<svg xmlns="http://www.w3.org/2000/svg" width="91" height="91" viewBox="0 0 91 91"><defs><style>.c{fill:#00adef}</style></defs><g transform="translate(.5 -104.829)"><circle cx="45" cy="45" r="45" transform="translate(0 105.329)" fill="none" stroke="#f5f5f5"/><path d="M75.818 134.243H14.182a4.633 4.633 0 00-4.633 4.633v13.647a4.633 4.633 0 004.633 4.633h6.4v-2.043h-3.879v-.875h3.874v-1.023h-3.874v-1.005h3.874v-2.045h-5.92v4.949h-.475a2.59 2.59 0 01-2.587-2.588v-13.648a2.59 2.59 0 012.587-2.587h39.581a2.59 2.59 0 012.588 2.587v4.623h2.045v-2.991h10.521a.511.511 0 000-1.023H58.395v-.609a4.615 4.615 0 00-.79-2.587h18.213a2.59 2.59 0 012.588 2.587v13.647a2.59 2.59 0 01-2.588 2.588h-.387v-4.949h-6.008v2.045h3.963v1.005h-2.59a.511.511 0 100 1.023h2.59v.875h-3.963v2.045h6.4a4.633 4.633 0 004.633-4.633v-13.646a4.633 4.633 0 00-4.638-4.635z"/><path d="M71.506 140.509h3.078a.511.511 0 000-1.023h-3.078a.511.511 0 000 1.023zm-22.055 0h3.077a.511.511 0 000-1.023h-3.077a.511.511 0 000 1.023zm-16.327 0h13.737a.511.511 0 000-1.023H33.124a.511.511 0 000 1.023z"/><path d="M59.767 163.493a.511.511 0 110-1.023h2.591v-1.006H27.731v1.006h29.208a.511.511 0 110 1.023H27.731v.874h34.626v-.874z" fill="#fff"/><path class="c" d="M69.422 155.113v-6.98a4.632 4.632 0 00-4.632-4.632H25.209a4.632 4.632 0 00-4.632 4.632v13.647a4.633 4.633 0 004.632 4.633h39.582a4.633 4.633 0 004.632-4.633v-6.667zm-4.632 9.255h-.388v-4.949H25.686v4.949h-.477a2.59 2.59 0 01-2.586-2.588v-13.647a2.589 2.589 0 012.586-2.586h39.582a2.589 2.589 0 012.586 2.586v13.647a2.59 2.59 0 01-2.586 2.588zm-37.06 0v-.874h29.209a.511.511 0 100-1.023H27.731v-1.006h34.626v1.006h-2.59a.511.511 0 100 1.023h2.59v.874z"/><path class="c" d="M60.478 149.765h3.078a.511.511 0 100-1.023h-3.078a.511.511 0 100 1.023zm-16.331 0H57.89a.511.511 0 100-1.023H44.147a.511.511 0 100 1.023zm-4.923 18.054a.51.51 0 00-.511.511v5.593a.511.511 0 101.023 0v-5.593a.511.511 0 00-.512-.511zm5.819 0a.511.511 0 00-.511.511v5.593a.511.511 0 101.023 0v-5.593a.51.51 0 00-.512-.511zm5.848 0a.51.51 0 00-.511.511v5.593a.511.511 0 101.023 0v-5.593a.511.511 0 00-.512-.511zm5.384.37a.511.511 0 00-.984.274 13.3 13.3 0 003.366 5.292.512.512 0 00.725-.722 12.556 12.556 0 01-3.107-4.844zm-21.733-.352a.514.514 0 00-.629.356 12.427 12.427 0 01-3.1 4.843.511.511 0 10.724.722 13.311 13.311 0 003.366-5.292.511.511 0 00-.361-.629z"/></g></svg>