<svg xmlns="http://www.w3.org/2000/svg" width="90" height="90" viewBox="0 0 90 90"><defs><style>.b{fill:#00adef}</style></defs><g transform="translate(-275.449 -105.329)"><circle cx="45" cy="45" r="45" transform="translate(275.449 105.329)" fill="#fff"/><path d="M320.449 167.431a17.1 17.1 0 1116.872-17.1 17.009 17.009 0 01-16.872 17.1zm0-32.161a15.059 15.059 0 1014.826 15.058 14.961 14.961 0 00-14.826-15.058z"/><path class="b" d="M318.217 161.111a1.858 1.858 0 01-1.841-2.121l.813-5.687h-3.434a1.859 1.859 0 01-1.39-3.094l8.924-10.039a1.859 1.859 0 013.224 1.542l-.754 4.526h3.382a1.859 1.859 0 011.45 3.022l-8.922 11.154a1.853 1.853 0 01-1.452.697zm-4.047-9.854h5.378l-1.05 7.347 8.257-10.321h-5.41l1.046-6.271zm6.279 21.913a1.023 1.023 0 110-2.045 20.665 20.665 0 0020.483-20.8 1.023 1.023 0 112.045 0 22.713 22.713 0 01-22.528 22.845zm-21.506-21.819a1.022 1.022 0 01-1.023-1.023 22.713 22.713 0 0122.529-22.843 1.023 1.023 0 110 2.045 20.665 20.665 0 00-20.483 20.8 1.022 1.022 0 01-1.023 1.021z"/><path d="M320.448 123.945a1.022 1.022 0 01-1.023-1.023v-3.276a1.023 1.023 0 112.045 0v3.276a1.022 1.022 0 01-1.022 1.023z"/><path class="b" d="M306.747 127.617a1.021 1.021 0 01-.887-.511l-1.639-2.837a1.023 1.023 0 111.771-1.023l1.644 2.84a1.023 1.023 0 01-.885 1.534z"/><path d="M296.714 137.648a1.015 1.015 0 01-.51-.137l-2.837-1.637a1.023 1.023 0 011.02-1.773l2.837 1.638a1.023 1.023 0 01-.512 1.908z"/><path class="b" d="M293.043 151.351h-3.276a1.023 1.023 0 010-2.045h3.276a1.023 1.023 0 010 2.045z"/><path d="M293.879 166.692a1.023 1.023 0 01-.512-1.909l2.837-1.637a1.023 1.023 0 011.023 1.771l-2.84 1.638a1.014 1.014 0 01-.508.137z"/><path class="b" d="M305.107 177.923a1.023 1.023 0 01-.885-1.534l1.638-2.838a1.025 1.025 0 111.776 1.022l-1.638 2.838a1.023 1.023 0 01-.891.512z"/><path d="M320.449 182.033a1.022 1.022 0 01-1.023-1.023v-3.277a1.023 1.023 0 112.045 0v3.277a1.022 1.022 0 01-1.022 1.023z"/><path class="b" d="M335.79 177.922a1.022 1.022 0 01-.887-.511l-1.639-2.837a1.023 1.023 0 011.772-1.023l1.638 2.837a1.023 1.023 0 01-.885 1.534z"/><path d="M347.019 166.692a1.015 1.015 0 01-.51-.137l-2.838-1.638a1.023 1.023 0 011.023-1.772l2.838 1.638a1.023 1.023 0 01-.512 1.909z"/><path class="b" d="M351.131 151.351h-3.277a1.023 1.023 0 110-2.045h3.277a1.023 1.023 0 110 2.045z"/><path d="M344.183 137.648a1.023 1.023 0 01-.512-1.908l2.833-1.639a1.023 1.023 0 011.023 1.772l-2.838 1.637a1.015 1.015 0 01-.506.138z"/><path class="b" d="M334.15 127.617a1.023 1.023 0 01-.886-1.534l1.638-2.837a1.023 1.023 0 111.771 1.023l-1.637 2.837a1.024 1.024 0 01-.886.511z"/></g></svg>