<svg xmlns="http://www.w3.org/2000/svg" width="120" height="120" viewBox="0 0 120 120"><defs><style>.a{fill:none;}.b{fill:#00adef;}</style></defs><g transform="translate(-900 -2748)"><g transform="translate(531.403 1928.24)"><path class="a" d="M462.1,907.036a.5.5,0,0,1,0-1h5.059V903.11H412.192v2.926h45.6a.5.5,0,0,1,0,1h-45.6v2.725h54.962v-2.725Z"/><path class="a" d="M443.787,885.128h15.448a.5.5,0,0,1,0,1H443.313a15.448,15.448,0,0,1-2.706,3.6,14.8,14.8,0,0,1-10.822,4.458H404.413v13.043a2.532,2.532,0,0,0,2.529,2.529h3.25V901.11h58.962v8.651h3.115a2.533,2.533,0,0,0,2.53-2.529V881.4a2.532,2.532,0,0,0-2.53-2.529H445.064v.04A15.191,15.191,0,0,1,443.787,885.128Zm19.391,0h4.688a.5.5,0,0,1,0,1h-4.688a.5.5,0,0,1,0-1Z"/><path d="M472.269,876.869H444.928a16.223,16.223,0,0,1,.136,2h27.205a2.532,2.532,0,0,1,2.53,2.529v25.834a2.533,2.533,0,0,1-2.53,2.529h-3.115V901.11H410.192v8.651h-3.25a2.532,2.532,0,0,1-2.529-2.529V894.189h-2v13.043a4.529,4.529,0,0,0,4.529,4.529h65.327a4.53,4.53,0,0,0,4.53-4.529V881.4A4.53,4.53,0,0,0,472.269,876.869Zm-60.077,32.892v-2.725h45.6a.5.5,0,0,0,0-1h-45.6V903.11h54.962v2.926H462.1a.5.5,0,0,0,0,1h5.059v2.725Z"/><path d="M463.178,886.128h4.688a.5.5,0,0,0,0-1h-4.688a.5.5,0,0,0,0,1Z"/><path d="M459.735,885.628a.5.5,0,0,0-.5-.5H443.787c-.149.338-.3.675-.474,1h15.922A.5.5,0,0,0,459.735,885.628Z"/><path class="b" d="M429.785,894.189a14.8,14.8,0,0,0,10.822-4.458,15.448,15.448,0,0,0,2.706-3.6c.175-.325.325-.662.474-1a15.191,15.191,0,0,0,1.278-6.219v-.04a16.223,16.223,0,0,0-.136-2,14.663,14.663,0,0,0-2.733-6.88,15.3,15.3,0,0,0-6.65-5.255v-.106a16.914,16.914,0,0,0-16.867-16.867,16.477,16.477,0,0,0-8.543,2.323,17.119,17.119,0,0,0-5.57,5.249,10.5,10.5,0,0,0-15.448,9.295,11.446,11.446,0,0,0,.329,2.724,12.4,12.4,0,0,0-4.507,2.24,13.993,13.993,0,0,0-3.9,4.8,13.533,13.533,0,0,0-1.444,6.1,13.7,13.7,0,0,0,13.694,13.693h36.494Zm-38.9-25.105a1,1,0,0,0,.773-1.318,9.406,9.406,0,0,1-.538-3.138,8.515,8.515,0,0,1,13.222-7.1,1,1,0,0,0,1.418-.328,15.087,15.087,0,0,1,5.4-5.4,14.527,14.527,0,0,1,7.522-2.041,14.914,14.914,0,0,1,14.867,14.867v.793a1,1,0,0,0,.664.942,13.33,13.33,0,0,1,6.371,4.805,12.859,12.859,0,0,1,2.485,7.741,13.22,13.22,0,0,1-13.28,13.28H393.291A11.7,11.7,0,0,1,381.6,880.5a11.544,11.544,0,0,1,1.233-5.206,11.981,11.981,0,0,1,3.342-4.123A10.45,10.45,0,0,1,390.882,869.084Z"/><rect width="2" height="8.414" transform="translate(411.753 868.574)"/><rect width="2" height="2.254" transform="translate(411.753 878.113)"/><path d="M412.753,885.827A11.357,11.357,0,1,0,401.4,874.47,11.37,11.37,0,0,0,412.753,885.827Zm0-20.714a9.357,9.357,0,1,1-9.357,9.357A9.367,9.367,0,0,1,412.753,865.113Z"/></g><rect class="a" width="120" height="120" transform="translate(900 2748)"/></g></svg>