<svg xmlns="http://www.w3.org/2000/svg" width="120" height="120" viewBox="0 0 120 120"><defs><style>.a{fill:#00adef}.b{fill:#fff}</style></defs><path class="a" d="M99.58 70.553H65.106a11.031 11.031 0 01.072 1.226c0 .262-.021.518-.039.774H99.58a2.533 2.533 0 012.53 2.53v15.8a2.533 2.533 0 01-2.53 2.529h-.917v-5.589h-42.01v5.589H55.64a2.533 2.533 0 01-2.53-2.529v-8.157a11.006 11.006 0 01-2-.389v8.548a4.53 4.53 0 004.53 4.529h43.94a4.53 4.53 0 004.53-4.529v-15.8a4.53 4.53 0 00-4.53-4.532zM58.653 92.192h31.913a.5.5 0 000-1H58.653v-1.367h38.01v1.367h-3.029a.5.5 0 000 1h3.029v1.222h-38.01z"/><path class="a" d="M94.406 77.294h3.339a.5.5 0 000-1h-3.339a.5.5 0 000 1zm-17.72 0h14.91a.5.5 0 000-1h-14.91a.5.5 0 000 1z"/><path d="M26.346 58.537h43.522a4.53 4.53 0 004.53-4.53V37.894a4.53 4.53 0 00-4.53-4.53h-33.9c.012.212.032.421.032.636a11.16 11.16 0 01-.093 1.364h33.961a2.533 2.533 0 012.53 2.53v16.113a2.533 2.533 0 01-2.53 2.53h-.985v-5.684H26.346v5.684h-1.083a2.533 2.533 0 01-2.53-2.53v-9.243a10.907 10.907 0 01-2-.623v9.866a4.53 4.53 0 004.53 4.53zm2-3.27h32.337a.5.5 0 000-1H28.346v-1.414h38.537v1.414H63.79a.5.5 0 000 1h3.093v1.27H28.346z"/><path d="M64.572 40.184h3.381a.5.5 0 000-1h-3.381a.5.5 0 000 1zm-17.943 0h15.1a.5.5 0 000-1h-15.1a.5.5 0 000 1zm32.675 6.762h13.33v16.229l-3.851-3.851a1 1 0 00-1.414 1.414l5.558 5.558a1 1 0 001.414 0l5.558-5.558a1 1 0 00-1.414-1.414l-3.851 3.851V45.946a1 1 0 00-1-1h-14.33a1 1 0 000 2zM46.053 82.13h-13.33V65.902l3.85 3.85a1 1 0 001.414-1.414L32.43 62.78a1 1 0 00-1.414 0l-5.558 5.558a1 1 0 001.414 1.414l3.851-3.85V83.13a1 1 0 001 1h14.33a1 1 0 000-2z"/><path class="b" d="M18 34a7 7 0 107-7 7.008 7.008 0 00-7 7zm3.293-3.707a1 1 0 011.414 0L25 32.586l2.293-2.293a1 1 0 011.414 1.414L26.414 34l2.293 2.293a1 1 0 11-1.414 1.414L25 35.414l-2.293 2.293a1 1 0 01-1.414-1.414L23.586 34l-2.293-2.293a1 1 0 010-1.414z"/><path d="M25 43a9 9 0 10-9-9 9.01 9.01 0 009 9zm7-9a7 7 0 11-7-7 7.008 7.008 0 017 7z"/><path class="b" d="M54.178 78.779a7 7 0 10-7-7 7.008 7.008 0 007 7zm-4.008-7.954a1 1 0 011.414 0l1.659 1.659 3.53-3.531a1 1 0 011.414 1.414l-4.234 4.239a1 1 0 01-1.414 0l-2.365-2.367a1 1 0 01-.004-1.414z"/><path class="a" d="M54.178 80.779a9 9 0 10-9-9 9.01 9.01 0 009 9zm0-16a7 7 0 11-7 7 7.009 7.009 0 017-7z"/><path d="M23.586 34l-2.293 2.293a1 1 0 101.414 1.414L25 35.414l2.293 2.293a1 1 0 001.414-1.414L26.414 34l2.293-2.293a1 1 0 00-1.414-1.414L25 32.586l-2.293-2.293a1 1 0 00-1.414 1.414z"/><path class="a" d="M52.535 74.606a1 1 0 001.414 0l4.238-4.239a1 1 0 00-1.414-1.414l-3.53 3.531-1.659-1.659a1 1 0 00-1.414 1.414z"/><path fill="none" d="M0 0h120v120H0z"/></svg>