<svg xmlns="http://www.w3.org/2000/svg" width="91" height="91" viewBox="0 0 91 91"><defs><style>.b{fill:none}</style></defs><g transform="translate(.5 .5)"><circle cx="45" cy="45" r="45" stroke="#f5f5f5" fill="none"/><path class="b" d="M47.545 45.001a2.541 2.541 0 10-2.542 2.54 2.545 2.545 0 002.542-2.54z"/><path class="b" d="M60.996 28.861l-.1.1-1.637-1.636.011-.011a22.75 22.75 0 101.728 1.545zm-4.581 27.555a1.022 1.022 0 01-1.446 0l-7.54-7.541a4.542 4.542 0 01-2.429.712 4.586 4.586 0 114.587-4.586 4.544 4.544 0 01-.712 2.428l7.54 7.541a1.021 1.021 0 01-.001 1.446zm3.755-2.228a1.009 1.009 0 01-.484-.123 1.021 1.021 0 01-.415-1.385 16.212 16.212 0 00-12.034-23.73 1.022 1.022 0 01-.873-1.153 1.01 1.01 0 011.153-.872 18.255 18.255 0 0113.555 26.726 1.022 1.022 0 01-.903.537z"/><path d="M62.441 27.415l.907-.907 1.228 1.228a.578.578 0 00.818 0l.819-.819a.578.578 0 000-.818l-4.094-4.093a.579.579 0 00-.818 0l-.819.818a.581.581 0 000 .819l1.228 1.227-.989.989a24.67 24.67 0 00-13.347-5.524v-2.658h2.542a1.022 1.022 0 001.023-1.023v-2.706a1.023 1.023 0 00-1.023-1.023h-9.835a1.023 1.023 0 00-1.023 1.023v2.706a1.022 1.022 0 001.023 1.023h2.541v2.658a24.807 24.807 0 1019.817 7.079zM44.999 67.738a22.737 22.737 0 1114.267-40.422l-.011.011 1.637 1.636.1-.1a22.723 22.723 0 01-16 38.877z"/><path d="M47.516 26.926a1.01 1.01 0 00-1.153.872 1.022 1.022 0 00.873 1.153 16.212 16.212 0 0112.034 23.73 1.021 1.021 0 00.415 1.385 1.009 1.009 0 00.484.123 1.022 1.022 0 00.9-.537 18.255 18.255 0 00-13.555-26.726zm1.359 20.507a4.544 4.544 0 00.712-2.428A4.587 4.587 0 1045 49.591a4.542 4.542 0 002.429-.712l7.54 7.541a1.023 1.023 0 101.446-1.446zm-6.417-2.428a2.541 2.541 0 112.541 2.54 2.545 2.545 0 01-2.541-2.543z" fill="#00adef"/></g></svg>