<svg xmlns="http://www.w3.org/2000/svg" width="136.506" height="421.091" viewBox="0 0 136.506 421.091"><defs><style>.a{fill:#1a1818}.b{fill:none}.c{fill:#00adef}.d{fill:#191717}.e{fill:#131212}.f{fill:#fff}</style></defs><path class="a" d="M36.764 255.51h-.154a19.381 19.381 0 01-2.33-38.62 15.052 15.052 0 0118.386-12 22 22 0 0136.829 10.662 13.749 13.749 0 0117.012 12.3 13.755 13.755 0 01-.652 27.463l-.367.009-.247-.005c-.639.004-67.214.191-68.477.191zm12.337-48.875a12.868 12.868 0 00-12.785 11.381l-.1.893-.9.067a17.2 17.2 0 001.3 34.356h.158c1.3.055 67.829-.185 68.5-.187h.221l.335-.007a11.579 11.579 0 00-.365-23.152h-1.089v-1.089a11.568 11.568 0 00-15.345-10.945l-1.206.416-.222-1.253a19.826 19.826 0 00-33.816-10.265l-.454.473-.632-.182a12.924 12.924 0 00-3.6-.506z"/><path class="a" d="M40.415 243.67a2.791 2.791 0 00.986-.672 3.323 3.323 0 00.856-2.239 3.236 3.236 0 00-.229-1.243 3.123 3.123 0 00-.627-1 3.044 3.044 0 00-.986-.685 3.38 3.38 0 00-1.284-.241h-1.813v6.339h1.813a3.124 3.124 0 001.284-.258m-1.284-7.983a5.432 5.432 0 012.041.385 5.306 5.306 0 011.657 1.086 5.1 5.1 0 011.112 1.613 5.121 5.121 0 010 3.97 5.1 5.1 0 01-1.112 1.612 5.019 5.019 0 01-1.657 1.072 5.169 5.169 0 01-2.041.4h-3.883v-10.138zm17.352.001h2.07v10.137h-2.07zm11.719 6.161a2.683 2.683 0 01-2.792 2.148c-2.161 0-2.85-1.673-2.85-3.241s.689-3.242 2.85-3.242a2.683 2.683 0 012.792 2.148h2.12a4.715 4.715 0 00-4.835-4.146 5.242 5.242 0 000 10.48 4.716 4.716 0 004.835-4.147zm14.867-6.161h2.07v10.137h-2.07zm-8.93-.001v4.118h4.554v-4.118h2.07v10.137h-2.07v-4.2h-4.554v4.2h-2.07v-10.137zm-43.94 4.2a1.273 1.273 0 111.272-1.274 1.274 1.274 0 01-1.272 1.274m0-4.371a3.1 3.1 0 103.1 3.1 3.1 3.1 0 00-3.1-3.1m17.212 6.448h4.94v1.786h-4.94z"/><path class="a" d="M48.249 235.688l-3.49 10.137h2.2l3.352-10.137z"/><path class="a" d="M49.368 235.688l3.323 10.137h2.2l-3.462-10.137z"/><path class="b" d="M0 158.807h136V296.09H0z"/><path class="c" d="M68.673 153.712v27.566h-1.087v-27.566z"/><path class="c" d="M68.135 188.031l3.192-8.771a6.278 6.278 0 01-6.384 0l3.192 8.771m0-41.071l-3.192 8.771a6.277 6.277 0 016.384 0l-3.192-8.771m.538 125.752v27.566h-1.087v-27.566z"/><path class="c" d="M68.135 307.031l3.192-8.771a6.278 6.278 0 01-6.384 0l3.192 8.771m0-41.071l-3.192 8.771a6.277 6.277 0 016.384 0l-3.192-8.771"/><path class="b" d="M80.65 166.279a13.609 13.609 0 012.292-3.425 14.329 14.329 0 00-4.626 2.792 11.873 11.873 0 002.334.633z"/><path class="b" d="M84.605 167.756v-4.851a14.315 14.315 0 00-2.031.216 9.9 9.9 0 00-3.623 4.241 42.855 42.855 0 005.654.394z"/><path class="b" d="M86.88 165.646a14.316 14.316 0 00-4.625-2.792 13.614 13.614 0 012.293 3.425 11.858 11.858 0 002.332-.633z"/><path class="b" d="M79.444 171.873a45.782 45.782 0 016.236-.466v-7.662h-7.76a23.576 23.576 0 001.524 8.128z"/><path class="b" d="M85.68 171.786v-8.044a46.134 46.134 0 01-6.089-.444 23.3 23.3 0 00-1.672 8.488z"/><path class="b" d="M79.958 163.627a24.019 24.019 0 011.7 8.663h4.99a14.4 14.4 0 00-4.021-9.519 9.527 9.527 0 01-2.669.856z"/><path class="b" d="M86.246 167.362a9.9 9.9 0 00-3.621-4.241 14.265 14.265 0 00-2.032-.216v4.851a42.844 42.844 0 005.653-.394z"/><path class="b" d="M78.861 166.353a10.18 10.18 0 003.8 4.6 14.253 14.253 0 002.029.215v-5.232a42.118 42.118 0 00-5.829.417z"/><path class="b" d="M86.337 166.353a42.3 42.3 0 00-5.824-.42v5.232a14.268 14.268 0 002.029-.215 10.174 10.174 0 003.795-4.597z"/><path class="b" d="M83.542 172.29a24.052 24.052 0 011.7-8.663 9.542 9.542 0 01-2.669-.855 14.4 14.4 0 00-4.021 9.518z"/><path class="b" d="M83.115 171.247a13.794 13.794 0 01-2.48-3.783 9.44 9.44 0 00-2.444.731 14.319 14.319 0 004.924 3.052z"/><path class="b" d="M81.657 161.904a24.3 24.3 0 01-1.556 8.309 8.2 8.2 0 012.747.963 14.392 14.392 0 003.8-9.272z"/><path class="b" d="M85.1 170.213a24.264 24.264 0 01-1.557-8.309h-4.991a14.386 14.386 0 003.8 9.272 8.22 8.22 0 012.748-.963z"/><path class="b" d="M85.608 163.298a46.162 46.162 0 01-6.089.444v8.044h7.759a23.33 23.33 0 00-1.67-8.488z"/><path class="b" d="M84.562 167.464a13.8 13.8 0 01-2.479 3.783 14.324 14.324 0 004.924-3.052 9.468 9.468 0 00-2.445-.731z"/><path class="b" d="M79.519 163.745v7.662a45.761 45.761 0 016.235.466 23.576 23.576 0 001.525-8.128z"/><path class="c" d="M82.6 160.874a6.161 6.161 0 106.16 6.161 6.168 6.168 0 00-6.16-6.161zm5.368 5.973h-1.871a9.009 9.009 0 00-.637-3.249 3.577 3.577 0 001-.321 5.4 5.4 0 011.508 3.57zm-6.325 5.506a3.817 3.817 0 01-1.423-1.724 15.779 15.779 0 012.184-.158v1.962a5.379 5.379 0 01-.758-.08zm1.914-10.636a3.711 3.711 0 011.358 1.59 16.045 16.045 0 01-2.12.148v-1.819a5.357 5.357 0 01.762.081zm.884.242a5.367 5.367 0 011.734 1.047 4.441 4.441 0 01-.875.237 5.1 5.1 0 00-.859-1.284zm-2.8-.243a5.384 5.384 0 01.762-.081v1.819a16.062 16.062 0 01-2.12-.148 3.712 3.712 0 011.363-1.59zm-1.744 1.527a4.455 4.455 0 01-.875-.237 5.373 5.373 0 011.735-1.047 5.1 5.1 0 00-.859 1.284zm.223.421a17.307 17.307 0 002.283.166v3.017h-2.91a8.725 8.725 0 01.628-3.183zm2.283 3.559v2.873a17.185 17.185 0 00-2.339.175 8.849 8.849 0 01-.572-3.048zm-1.637 4.891a5.368 5.368 0 01-1.847-1.144 3.544 3.544 0 01.916-.274 5.179 5.179 0 00.932 1.417zm2.028.32v-1.962a15.83 15.83 0 012.184.158 3.813 3.813 0 01-1.423 1.724 5.372 5.372 0 01-.76.08zm2.567-1.739a3.554 3.554 0 01.917.274 5.374 5.374 0 01-1.846 1.144 5.164 5.164 0 00.93-1.418zm-.229-.424a17.174 17.174 0 00-2.338-.175v-2.873h2.91a8.846 8.846 0 01-.571 3.048zm-2.338-3.424v-3.017a17.319 17.319 0 002.284-.166 8.754 8.754 0 01.626 3.183zm-4.056-3.569a3.579 3.579 0 001 .321 9.022 9.022 0 00-.637 3.249h-1.872a5.4 5.4 0 011.51-3.57zm-1.508 3.945h1.872a9.09 9.09 0 00.584 3.116 3.082 3.082 0 00-1.031.361 5.394 5.394 0 01-1.424-3.477zm9.312 3.477a3.078 3.078 0 00-1.03-.361 9.111 9.111 0 00.583-3.116h1.871a5.4 5.4 0 01-1.42 3.477z"/><path class="b" d="M80.65 285.279a13.609 13.609 0 012.292-3.425 14.329 14.329 0 00-4.626 2.792 11.873 11.873 0 002.334.633z"/><path class="b" d="M84.605 286.756v-4.851a14.315 14.315 0 00-2.031.216 9.9 9.9 0 00-3.623 4.241 42.855 42.855 0 005.654.394z"/><path class="b" d="M86.88 284.646a14.316 14.316 0 00-4.625-2.792 13.614 13.614 0 012.293 3.425 11.858 11.858 0 002.332-.633z"/><path class="b" d="M79.444 290.873a45.782 45.782 0 016.236-.466v-7.662h-7.76a23.576 23.576 0 001.524 8.128z"/><path class="b" d="M85.68 290.786v-8.044a46.134 46.134 0 01-6.089-.444 23.3 23.3 0 00-1.672 8.488z"/><path class="b" d="M79.958 282.627a24.019 24.019 0 011.7 8.663h4.99a14.4 14.4 0 00-4.021-9.519 9.527 9.527 0 01-2.669.856z"/><path class="b" d="M86.246 286.362a9.9 9.9 0 00-3.621-4.241 14.265 14.265 0 00-2.032-.216v4.851a42.844 42.844 0 005.653-.394z"/><path class="b" d="M78.861 285.353a10.18 10.18 0 003.8 4.6 14.253 14.253 0 002.029.215v-5.232a42.118 42.118 0 00-5.829.417z"/><path class="b" d="M86.337 285.353a42.3 42.3 0 00-5.824-.42v5.232a14.268 14.268 0 002.029-.215 10.174 10.174 0 003.795-4.597z"/><path class="b" d="M83.542 291.29a24.052 24.052 0 011.7-8.663 9.542 9.542 0 01-2.669-.855 14.4 14.4 0 00-4.021 9.518z"/><path class="b" d="M83.115 290.247a13.794 13.794 0 01-2.48-3.783 9.44 9.44 0 00-2.444.731 14.319 14.319 0 004.924 3.052z"/><path class="b" d="M81.657 280.904a24.3 24.3 0 01-1.556 8.309 8.2 8.2 0 012.747.963 14.392 14.392 0 003.8-9.272z"/><path class="b" d="M85.1 289.213a24.264 24.264 0 01-1.557-8.309h-4.991a14.386 14.386 0 003.8 9.272 8.22 8.22 0 012.748-.963z"/><path class="b" d="M85.608 282.298a46.162 46.162 0 01-6.089.444v8.044h7.759a23.33 23.33 0 00-1.67-8.488z"/><path class="b" d="M84.562 286.464a13.8 13.8 0 01-2.479 3.783 14.324 14.324 0 004.924-3.052 9.468 9.468 0 00-2.445-.731z"/><path class="b" d="M79.519 282.745v7.662a45.761 45.761 0 016.235.466 23.576 23.576 0 001.525-8.128z"/><path class="c" d="M82.6 279.874a6.161 6.161 0 106.16 6.161 6.168 6.168 0 00-6.16-6.161zm5.368 5.973h-1.871a9.009 9.009 0 00-.637-3.249 3.577 3.577 0 001-.321 5.4 5.4 0 011.508 3.57zm-6.325 5.506a3.817 3.817 0 01-1.423-1.724 15.779 15.779 0 012.184-.158v1.962a5.379 5.379 0 01-.758-.08zm1.914-10.636a3.711 3.711 0 011.358 1.59 16.045 16.045 0 01-2.12.148v-1.819a5.357 5.357 0 01.762.081zm.884.242a5.367 5.367 0 011.734 1.047 4.441 4.441 0 01-.875.237 5.1 5.1 0 00-.859-1.284zm-2.8-.243a5.384 5.384 0 01.762-.081v1.819a16.062 16.062 0 01-2.12-.148 3.712 3.712 0 011.363-1.59zm-1.744 1.527a4.455 4.455 0 01-.875-.237 5.373 5.373 0 011.735-1.047 5.1 5.1 0 00-.859 1.284zm.223.421a17.307 17.307 0 002.283.166v3.017h-2.91a8.725 8.725 0 01.628-3.183zm2.283 3.559v2.873a17.185 17.185 0 00-2.339.175 8.849 8.849 0 01-.572-3.048zm-1.637 4.891a5.368 5.368 0 01-1.847-1.144 3.544 3.544 0 01.916-.274 5.179 5.179 0 00.932 1.417zm2.028.32v-1.962a15.83 15.83 0 012.184.158 3.813 3.813 0 01-1.423 1.724 5.372 5.372 0 01-.76.08zm2.567-1.739a3.554 3.554 0 01.917.274 5.374 5.374 0 01-1.846 1.144 5.164 5.164 0 00.93-1.418zm-.229-.424a17.174 17.174 0 00-2.338-.175v-2.873h2.91a8.846 8.846 0 01-.571 3.048zm-2.338-3.424v-3.017a17.319 17.319 0 002.284-.166 8.754 8.754 0 01.626 3.183zm-4.056-3.569a3.579 3.579 0 001 .321 9.022 9.022 0 00-.637 3.249h-1.872a5.4 5.4 0 011.51-3.57zm-1.508 3.945h1.872a9.09 9.09 0 00.584 3.116 3.082 3.082 0 00-1.031.361 5.394 5.394 0 01-1.424-3.477zm9.312 3.477a3.078 3.078 0 00-1.03-.361 9.111 9.111 0 00.583-3.116h1.871a5.4 5.4 0 01-1.42 3.477zm45.457-153.698v-.82h4.1v.819zm-2.048 0h-4.1v-.82h4.1zm-6.145 0h-4.1v-.82h4.1zm-6.145 0h-4.1v-.82h4.1zm-6.145 0h-4.1v-.82h4.1zm-6.145 0h-4.1v-.82h4.1zm-6.145 0h-4.1v-.82h4.1zm-6.145 0h-4.1v-.82h4.1zm-6.145 0h-4.1v-.82h4.1zm-6.145 0h-4.1v-.82h4.1zm-6.145 0h-4.1v-.82h4.1zm-6.145 0h-4.1v-.82h4.104zm-6.145 0h-4.1v-.82h4.1zm-6.145 0h-4.1v-.82h4.1zm-6.145 0h-4.1v-.82h4.1zm-6.145 0h-4.1v-.82h4.1zm-6.145 0h-4.1v-.82h4.1zm-6.145 0h-4.1v-.82h4.1zm-6.145 0h-4.1v-.82h4.1zm-6.145 0h-4.095v-.82h4.1zm-6.145 0h-4.1v-.82h4.1zm-6.145 0h-4.1v-.82h4.1zm-5.735-.41H.505v-4.1h.819zm135.189-2.05h-.819v-4.1h.819zm-135.177-4.1H.505v-4.1h.819zm135.177-2.04h-.819v-4.1h.819zm-135.181-4.1H.505v-4.1h.819zm135.181-2.049h-.819v-4.1h.819zm-135.181-4.1H.505v-4.1h.819zm135.181-2.043h-.819v-4.1h.819zm-135.181-4.1H.505v-4.1h.819zm135.181-2.047h-.819v-4.1h.819zm-135.181-4.1H.505v-4.1h.819zm135.181-2.044h-.819v-4.1h.819zm-135.181-4.1H.505v-4.1h.819zm135.181-2.044h-.819v-4.1h.819zm-135.181-4.1H.505v-4.1h.819zm135.181-2.045h-.819v-4.1h.819zM1.324 86.43H.505v-4.1h.819zm135.181-2.044h-.819v-4.1h.819zm-135.181-4.1H.505v-4.1h.819zm135.181-2.045h-.819v-4.1h.819zm-135.181-4.1H.505v-4.1h.819zm135.181-2.044h-.819v-4.1h.819zm-135.181-4.1H.505v-4.1h.819zm135.181-2.045h-.819v-4.1h.819zm-135.181-4.1H.505v-4.1h.819zm135.181-2.044h-.819v-4.1h.819zm-135.181-4.1H.505v-4.1h.819zm135.181-2.045h-.819v-4.1h.819zm-135.181-4.1H.505v-4.1h.819zm135.181-2.044h-.819v-4.1h.819zm-135.181-4.1H.505v-4.1h.819zm135.181-2.045h-.819v-4.1h.819zm-135.181-4.1H.505v-4.1h.819zm135.181-2.045h-.819v-4.1h.819zm-135.181-4.1H.505v-4.1h.819zm135.181-2.044h-.819v-4.1h.819zm-135.181-4.1H.505v-4.1h.819zm135.181-2.045h-.819v-4.1h.819zM1.324 18.84H.505v-4.1h.819zm135.181-2.045h-.819v-4.1h.819zm-135.181-4.1H.505v-4.1h.819zm135.181-2.045h-.819v-4.1h.819zM1.324 6.55H.505v-4.1h.819zm135.181-2.048h-.819v-4.1h.819zM134.047.816h-4.1V.002h4.1zm-6.145 0h-4.1V.002h4.1zm-6.145 0h-4.1V.002h4.1zm-6.145 0h-4.1V.002h4.1zm-6.145 0h-4.1V.002h4.1zm-6.145 0h-4.1V.002h4.1zm-6.145 0h-4.1V.002h4.1zm-6.145 0h-4.1V.002h4.1zm-6.145 0h-4.1V.002h4.1zm-6.145 0h-4.1V.002h4.1zm-6.145 0h-4.092V.002h4.1zm-6.145 0h-4.1V.002h4.1zm-6.145 0h-4.1V.002h4.1zm-6.145 0h-4.1V.002h4.1zm-6.145 0h-4.1V.002h4.1zm-6.145 0h-4.1V.002h4.1zm-6.145 0h-4.1V.002h4.1zm-6.145 0h-4.1V.002h4.1zm-6.145 0h-4.1V.002h4.1zm-6.145 0h-4.1V.002h4.1zm-6.145 0h-4.1V.002h4.1zm-6.145 0h-4.1V.002h4.1z"/><path class="a" d="M76.289 71.58h.453l1.712 4.95 1.595-4.965h.311l1.6 4.965 1.712-4.95h.421l-1.978 5.6h-.326l-1.6-4.83-1.6 4.83h-.326zm8.921-.079h.474v.532h-.474zm.047 1.589h.382v4.052h-.382zm1.703 1.469h2.085v.445H86.96zm3.44-2.979h3.837v.382h-3.432v2.28h3.081v.381h-3.081v2.518h-.4zm5.028-.079h.474v.532h-.474zm.046 1.589h.382v4.052h-.382z"/><path class="c" d="M75.176 98.625a9.438 9.438 0 00-13.344 0l-.289-.289a9.846 9.846 0 0113.923 0z"/><path class="c" d="M72.904 100.895l.291-.289a6.632 6.632 0 00-9.378 0l.288.289a6.223 6.223 0 018.799 0zm-6.816 1.986l.289.288a3.009 3.009 0 014.254 0l.291-.288a3.418 3.418 0 00-4.834 0z"/><path class="c" d="M72.904 100.895a6.223 6.223 0 00-8.8 0l-.288-.289a6.632 6.632 0 019.378 0zm-2.272 2.277a3.009 3.009 0 00-4.254 0l-.289-.288a3.418 3.418 0 014.833 0zm-2.127-49.805a9.782 9.782 0 01-6.962-2.885l.289-.288a9.436 9.436 0 0013.344 0l.289.288a9.783 9.783 0 01-6.96 2.885z"/><path class="c" d="M68.505 50.155a6.587 6.587 0 01-4.69-1.942l.288-.288a6.222 6.222 0 008.8 0l.289.288a6.588 6.588 0 01-4.687 1.942zm-.001-3.213a3.4 3.4 0 01-2.417-1l.288-.289a3.009 3.009 0 004.255 0l.289.289a3.393 3.393 0 01-2.415 1z"/><path class="c" d="M68.505 50.155a6.587 6.587 0 01-4.69-1.942l.288-.288a6.222 6.222 0 008.8 0l.289.288a6.588 6.588 0 01-4.687 1.942zm-.001-3.213a3.4 3.4 0 01-2.417-1l.288-.289a3.009 3.009 0 004.255 0l.289.289a3.393 3.393 0 01-2.415 1zm-.541 20.685h1.084v13.977h-1.084z"/><path class="c" d="M68.505 88.338l3.184-8.748a6.262 6.262 0 01-6.368 0l3.184 8.748m0-27.446l-3.184 8.747a6.262 6.262 0 016.368 0l-3.184-8.748"/><path class="b" d="M94.449 14.456H42.284a3.89 3.89 0 00-3.9 3.869V36.37a3.891 3.891 0 003.9 3.869h.615V33.23h51.1v7.007h.456a3.891 3.891 0 003.9-3.869V18.324a3.89 3.89 0 00-3.906-3.868zM85.63 20.24H67.188a.417.417 0 11-.032-.833h18.44a.417.417 0 11.033.833zm7.348 0h-3.766a.417.417 0 01-.033-.833h3.763a.417.417 0 11.033.833z"/><path class="b" d="M87.287 38.363a.417.417 0 11-.032-.833h4.517v-2.084H45.116v2.084h38.563a.417.417 0 11.033.833h-38.6v1.872h46.656v-1.872z"/><path class="d" d="M94.449 12.237H42.284a6.112 6.112 0 00-6.124 6.087v18.044a6.113 6.113 0 006.124 6.087h52.165a6.112 6.112 0 006.123-6.084V18.324a6.111 6.111 0 00-6.123-6.087zm-49.333 28v-1.872h38.6a.417.417 0 00-.033-.833H45.116v-2.085h46.656v2.085h-4.516a.417.417 0 10.032.833h4.485v1.872zm53.24-3.869a3.891 3.891 0 01-3.9 3.869h-.457v-7.006h-51.1v7.009h-.615a3.891 3.891 0 01-3.9-3.869V18.324a3.89 3.89 0 013.9-3.869h52.165a3.89 3.89 0 013.9 3.869z"/><path class="d" d="M85.596 19.406h-18.44a.417.417 0 10.033.833h18.444a.417.417 0 10-.033-.833zm7.348 0h-3.766a.417.417 0 10.033.833h3.766a.417.417 0 10-.033-.833z"/><path class="e" d="M78.695 119.503v.97h2.1v-.97h-2.1zm5.934-.001h-2.1v.97h2.1v-.97zm-7.68 0h-2.1v.97h2.1v-.97zm-10.308 0h-14.5v.97h14.5v-.97z"/><path class="e" d="M87.433 117.164a2.532 2.532 0 00-1.217-1.44 4.664 4.664 0 00-2.248-.467h-1.011l1.372-12.116a1.3 1.3 0 00-.37-1.06l-.005.035v-.035l1.122-7.281a.485.485 0 00-.4-.553.46.46 0 00-.075-.005.484.484 0 00-.478.411l-1.086 7.05a1.3 1.3 0 00-1.277 1.148l-1.384 12.213a1.3 1.3 0 00.008.193H55.998a1.251 1.251 0 00.008-.193l-1.382-12.214a1.291 1.291 0 00-1.244-1.141l-.033-.216.033.216c-.012 0-.021-.006-.033-.006l-1.086-7.05a.484.484 0 00-.478-.411.458.458 0 00-.075.005.485.485 0 00-.4.553l1.122 7.281v.035l-.005-.035a1.3 1.3 0 00-.37 1.06l1.372 12.116h-.38a3.97 3.97 0 00-2.795.858 2.511 2.511 0 00-.67 1.048 3.428 3.428 0 00-.164 1.1v4.145a3.432 3.432 0 00.164 1.1 2.536 2.536 0 001.218 1.44 4.682 4.682 0 002.246.467h30.92a3.976 3.976 0 002.795-.858 2.507 2.507 0 00.67-1.048 3.433 3.433 0 00.164-1.1v-4.145a3.428 3.428 0 00-.162-1.1zm-1.775 5.133v.112a1.489 1.489 0 01-.063.481.57.57 0 01-.305.355c-.029.016-.072.032-.11.048a2.357 2.357 0 01-.591.143 4.533 4.533 0 01-.607.04H53.043a4.43 4.43 0 01-.7-.052 1.549 1.549 0 01-.739-.262c-.009-.008-.027-.017-.035-.025l-.152-.246a1.567 1.567 0 01-.063-.482v-4.145a1.58 1.58 0 01.063-.482.677.677 0 01.1-.194c.01-.013.036-.026.049-.038a.746.746 0 01.155-.12 1.22 1.22 0 01.123-.054 2.4 2.4 0 01.594-.14 4.594 4.594 0 01.589-.037h30.938a2.172 2.172 0 011.47.339l.153.245a1.508 1.508 0 01.063.482z"/><path class="b" d="M.438 283.807h136V421.09h-136z"/><path class="a" d="M59.892 370.934h4.034a.882.882 0 000-1.763h-4.034a.882.882 0 100 1.763z"/><path class="b" d="M49.286 367.662a3.722 3.722 0 01-.695.185v3.579a2.648 2.648 0 002.631 2.66h21.375a2.647 2.647 0 002.63-2.66v-5.416H51.192a3.624 3.624 0 01-1.906 1.652zm-.348-5.572l-2.062-.949a1.8 1.8 0 00-.76-.167 1.845 1.845 0 00-.65.12 1.875 1.875 0 00-1.062 1.008l-.156.354a1.95 1.95 0 00.94 2.56l2.063.95a1.818 1.818 0 001.411.047 1.879 1.879 0 001.059-1.008l.158-.354a1.952 1.952 0 00-.941-2.561zm2.158-1.815a2.047 2.047 0 001.153-1.1 2.131 2.131 0 00-1.021-2.792l-4.286-1.98a1.953 1.953 0 00-.823-.182 1.99 1.99 0 00-.706.13 2.045 2.045 0 00-1.153 1.1 2.13 2.13 0 001.021 2.791l4.287 1.98a1.956 1.956 0 001.528.053zm-2.238-16.619c.029-.034.061-.066.088-.1s.054-.077.08-.116a1.886 1.886 0 00.291-.676c.011-.045.015-.09.023-.136a2.152 2.152 0 00.03-.245v-.171a1.942 1.942 0 00-.046-.393c-.014-.063-.025-.1-.04-.153a2.107 2.107 0 00-.071-.216c-.012-.028-.026-.055-.04-.082a2.108 2.108 0 00-.581-.757c-.047-.038-.1-.072-.146-.107a2.041 2.041 0 00-.281-.167l-3.044-1.4a1.971 1.971 0 00-.827-.183 2.018 2.018 0 00-.71.131 2.055 2.055 0 00-1.16 1.1 2.139 2.139 0 001.027 2.8l3.045 1.4a1.978 1.978 0 001.539.052 2.008 2.008 0 00.3-.151 2.388 2.388 0 00.254-.179 2.246 2.246 0 00.269-.251zm1.016 9.468a2.055 2.055 0 001.159-1.1 2.139 2.139 0 00-1.028-2.805l-3.043-1.4a1.98 1.98 0 00-.828-.183 2.01 2.01 0 00-.709.131 2.058 2.058 0 00-1.162 1.1 2.139 2.139 0 001.029 2.8l3.044 1.4a1.973 1.973 0 001.538.057z"/><path class="f" d="M46.495 339.565l-1.374-.634 3.043 1.4zm2.699 3.575a2.09 2.09 0 01-.167.3 1.922 1.922 0 00.167-.3zm-.248.413c-.027.036-.059.068-.088.1.029-.031.06-.064.088-.1zm-.781-3.218a2.078 2.078 0 01.281.167 1.858 1.858 0 00-.281-.167zm1.118 1.329c.014.051.029.1.04.153a1.906 1.906 0 00-.04-.153zm.073.346zm.013.371a1.905 1.905 0 01-.03.245 1.905 1.905 0 00.03-.245zm-.052.38a2.231 2.231 0 01-.124.379 2.231 2.231 0 00.124-.379zm-.144-1.396c.013.028.028.054.039.083a.81.81 0 00-.039-.083zm-.582 2.549zm-.254.18a2.032 2.032 0 01-.3.151 1.832 1.832 0 00.3-.151zm-1.842.099l-3.044-1.4z"/><path d="M49.37 342.21v.171a1.95 1.95 0 000-.171zm-.162-.762a1.988 1.988 0 01.072.216 1.99 1.99 0 00-.072-.216zm-.035-.081a2.1 2.1 0 00-.582-.757 2.119 2.119 0 01.582.757zm-.148 2.07c-.026.039-.051.079-.08.116.029-.038.055-.076.08-.116zm.314-.811c-.009.045-.012.091-.023.136.011-.046.015-.091.023-.136zm-.748 1.289a2.042 2.042 0 00.266-.259 2.2 2.2 0 01-.266.259zm-.891 2.292l.89.411v-.706a3.778 3.778 0 01-1.091.216c.067.03.135.052.201.079zm1.625-4.39z"/><path class="f" d="M43.451 342.788a2.139 2.139 0 01-1.028-2.8 2.056 2.056 0 011.162-1.1 2.007 2.007 0 01.709-.131 1.978 1.978 0 01.828.183l1.374.634v-.971l-1-.464a2.913 2.913 0 00-3.875 1.5 3.029 3.029 0 001.465 3.96l3.045 1.4a2.8 2.8 0 00.369.137v-.937zm5.722-1.422c.012.028.027.054.038.083a2.173 2.173 0 01.072.216 1.906 1.906 0 01.086.546c.002.067 0 .113 0 .171a2.267 2.267 0 01-.03.245c-.008.045-.012.09-.023.136a2.188 2.188 0 01-.125.379 1.948 1.948 0 01-.167.3c-.025.04-.052.078-.08.116s-.058.069-.088.1a2.043 2.043 0 01-.266.259v1.046a2.942 2.942 0 001.407-1.465 3.03 3.03 0 00-1.407-3.932v1.043a2.1 2.1 0 01.583.757z"/><path d="M48.592 340.608a1.955 1.955 0 00-.146-.107c.05.035.1.069.146.107z"/><path d="M48.592 340.608a1.955 1.955 0 00-.146-.107c.05.035.1.069.146.107zm-.058-1.073c.02.009.038.021.058.03v-.974l-2.1-.968v.97z"/><path class="f" d="M48.165 340.337a1.791 1.791 0 01.281.167c.051.034.1.069.146.107v-1.043c-.02-.009-.038-.021-.058-.03l-2.039-.941v.971z"/><path d="M48.165 340.337a1.791 1.791 0 01.281.167c.051.034.1.069.146.107v-1.043c-.02-.009-.038-.021-.058-.03l-2.039-.941v.971zm.427 5.578v-.949a2.873 2.873 0 01-2.1.169v.758a3.715 3.715 0 011 .244 3.786 3.786 0 001.1-.222zm-.001-2.001a2.34 2.34 0 01-.254.179 2.07 2.07 0 00.254-.179z"/><path d="M48.591 343.914a2.34 2.34 0 01-.254.179 2.07 2.07 0 00.254-.179z"/><path class="f" d="M48.592 344.956v-1.046a2 2 0 01-.254.179 1.848 1.848 0 01-.3.151 1.978 1.978 0 01-1.539-.052v.937a2.873 2.873 0 002.093-.169z"/><path d="M48.592 344.956v-1.046a2 2 0 01-.254.179 1.848 1.848 0 01-.3.151 1.978 1.978 0 01-1.539-.052v.937a2.873 2.873 0 002.093-.169zm0 2.635v-.97l-.89-.411c-.066-.031-.135-.052-.2-.079-.059 0-.118.008-.177.008a3.681 3.681 0 01-.827-.1v.725a2.868 2.868 0 01.837.241zm-2.098-1.703a3.723 3.723 0 00-.543-.017 3.81 3.81 0 00.543.173z"/><path d="M47.499 346.131a3.713 3.713 0 00-1-.244v.156a3.684 3.684 0 00.827.1c.052-.004.114-.009.173-.012z"/><path d="M47.499 346.131a3.713 3.713 0 00-1-.244v.156a3.684 3.684 0 00.827.1c.052-.004.114-.009.173-.012z"/><path class="f" d="M47.683 352.807l2.484 1.148a2.944 2.944 0 001.673-1.578 3.031 3.031 0 00-1.464-3.962l-1.783-.823-1.26-.581a2.868 2.868 0 00-.837-.241 2.93 2.93 0 00-3.038 1.738 3.029 3.029 0 001.465 3.96l.252.117a3.708 3.708 0 012.508.222zm-3.42-3.943a2.058 2.058 0 011.16-1.1 2.017 2.017 0 01.71-.131 1.981 1.981 0 01.829.183l3.044 1.4a2.14 2.14 0 011.027 2.805 2.055 2.055 0 01-1.159 1.1 1.973 1.973 0 01-1.539-.052l-3.045-1.4a2.139 2.139 0 01-1.027-2.806z"/><path d="M45.114 353.527a2.862 2.862 0 011.38-.158v-.176l-1.321-.609a3.742 3.742 0 00-1.048.45 3.954 3.954 0 00.424.234zm3.477.549v.121l1.513.7a3.8 3.8 0 00.393-.122 3.862 3.862 0 00.694-.346l-1.025-.473a2.868 2.868 0 01-1.575.12z"/><path d="M48.592 354.197v-.121a2.857 2.857 0 01-.626-.2l-1.47-.679v.176a2.852 2.852 0 01.817.237z"/><path d="M48.592 354.197v-.121a2.857 2.857 0 01-.626-.2l-1.47-.679v.176a2.852 2.852 0 01.817.237z"/><path class="f" d="M48.591 354.08a2.869 2.869 0 001.575-.122l-2.484-1.148a3.7 3.7 0 00-2.508-.222l1.321.609 1.471.679a2.857 2.857 0 00.625.204z"/><path d="M48.591 354.08a2.869 2.869 0 001.575-.122l-2.484-1.148a3.7 3.7 0 00-2.508-.222l1.321.609 1.471.679a2.857 2.857 0 00.625.204z"/><path class="f" d="M47.613 359.54l2.063.949a3.6 3.6 0 011.082.771 2.926 2.926 0 002.3-1.727 3.021 3.021 0 00-1.458-3.947l-1.494-.69-1.513-.7-1.279-.591a2.849 2.849 0 00-2.2-.079 2.933 2.933 0 00-1.659 1.57 3.022 3.022 0 001.458 3.947l.512.237a3.529 3.529 0 012.188.26zm-2.33-1.3a2.13 2.13 0 01-1.02-2.791 2.042 2.042 0 011.152-1.1 1.986 1.986 0 01.706-.13 1.954 1.954 0 01.823.182l4.286 1.979a2.129 2.129 0 011.02 2.792 2.041 2.041 0 01-1.152 1.1 1.959 1.959 0 01-1.527-.051z"/><path d="M48.009 367.897a3.541 3.541 0 00.582-.051v-.9a2.685 2.685 0 01-1.708-.181l-.388-.178v.97l.019.009a3.576 3.576 0 001.495.331zm2.116-1.887h1.063c.032-.058.061-.119.09-.18h-1.015c-.043.063-.09.122-.138.18zm.801-2.12h.882c0-.061 0-.121-.005-.181h-.882c.004.06.006.121.005.181z"/><path d="M50.684 365.007l-.157.355a2.81 2.81 0 01-.264.468h1.015c.018-.037.038-.073.056-.111l.157-.354a3.714 3.714 0 00.316-1.474h-.881a2.843 2.843 0 01-.242 1.116z"/><path d="M50.684 365.007l-.157.355a2.81 2.81 0 01-.264.468h1.015c.018-.037.038-.073.056-.111l.157-.354a3.714 3.714 0 00.316-1.474h-.881a2.843 2.843 0 01-.242 1.116zm-5.349-4.796a2.705 2.705 0 011.161-.089v-.346l-1.07-.494a3.456 3.456 0 00-1.136.431c.083.046.166.093.253.133zm3.864.813l-.608-.281v.217l.716.329a2.753 2.753 0 011.071.88h.012a3.735 3.735 0 00.949-.126 3.725 3.725 0 00-.58-.785 2.825 2.825 0 01-1.56-.234z"/><path d="M48.592 360.959v-.217l-2.1-.968v.347a2.666 2.666 0 01.749.219z"/><path d="M48.592 360.959v-.217l-2.1-.968v.347a2.666 2.666 0 01.749.219z"/><path class="f" d="M49.2 361.024a2.827 2.827 0 001.56.235 3.61 3.61 0 00-1.083-.771l-2.063-.949a3.53 3.53 0 00-2.186-.259l1.069.494 2.1.968z"/><path d="M49.2 361.024a2.827 2.827 0 001.56.235 3.61 3.61 0 00-1.083-.771l-2.063-.949a3.53 3.53 0 00-2.186-.259l1.069.494 2.1.968z"/><path class="b" d="M48.336 353.073a1.973 1.973 0 001.539.052 2.055 2.055 0 001.159-1.1 2.139 2.139 0 00-1.028-2.805l-3.043-1.4a1.98 1.98 0 00-.828-.183 2.01 2.01 0 00-.709.131 2.058 2.058 0 00-1.162 1.1 2.139 2.139 0 001.029 2.8zm-1.024.534l1.279.591v-.121a2.857 2.857 0 01-.626-.2l-1.47-.679v.176a2.852 2.852 0 01.817.233zm4.938 5.571a2.131 2.131 0 00-1.021-2.792l-4.286-1.98a1.953 1.953 0 00-.823-.182 1.99 1.99 0 00-.706.13 2.045 2.045 0 00-1.153 1.1 2.13 2.13 0 001.021 2.791l4.287 1.98a1.956 1.956 0 001.526.052 2.047 2.047 0 001.155-1.099z"/><path class="f" d="M50.125 366.01c.048-.058.095-.117.138-.18a2.814 2.814 0 00.265-.468l.157-.355a2.843 2.843 0 00.241-1.117c0-.061 0-.121-.005-.181a2.868 2.868 0 00-.544-1.54 2.743 2.743 0 00-1.07-.88l-.716-.329-1.348-.62a2.675 2.675 0 00-.748-.219 2.706 2.706 0 00-1.161.089 2.767 2.767 0 00-1.736 1.535l-.156.354a2.841 2.841 0 001.378 3.717l1.675.771.387.179a2.685 2.685 0 001.708.182 2.763 2.763 0 001.535-.938zm-1.464 0a1.817 1.817 0 01-1.41-.047l-2.063-.95a1.95 1.95 0 01-.941-2.56l.156-.354a1.877 1.877 0 011.062-1.008 1.843 1.843 0 01.65-.12 1.8 1.8 0 01.759.167l2.062.949a1.952 1.952 0 01.941 2.561l-.158.354a1.879 1.879 0 01-1.057 1.012z"/><path class="b" d="M45.283 358.244l4.287 1.98a1.956 1.956 0 001.526.052 2.047 2.047 0 001.153-1.1 2.131 2.131 0 00-1.021-2.792l-4.286-1.98a1.953 1.953 0 00-.823-.182 1.99 1.99 0 00-.706.13 2.045 2.045 0 00-1.153 1.1 2.13 2.13 0 001.023 2.792zm1.212-14.051a1.978 1.978 0 001.539.052 1.829 1.829 0 00.3-.151 2.086 2.086 0 00.254-.179 2.06 2.06 0 00.266-.259l.088-.1c.028-.033.054-.076.08-.116a1.989 1.989 0 00.167-.3 2.186 2.186 0 00.124-.379c.011-.045.015-.09.023-.136a2.152 2.152 0 00.03-.245v-.171a2.353 2.353 0 00-.046-.393c-.013-.064-.025-.1-.04-.153a2.171 2.171 0 00-.071-.216c-.012-.028-.026-.055-.04-.082a2.092 2.092 0 00-.581-.757 1.955 1.955 0 00-.146-.107 1.805 1.805 0 00-.281-.167l-1.67-.77-1.374-.634a1.971 1.971 0 00-.827-.183 2.018 2.018 0 00-.71.131 2.055 2.055 0 00-1.16 1.1 2.139 2.139 0 001.027 2.8l3.045 1.4zm-1.203 7.473l3.044 1.4a1.973 1.973 0 001.539.052 2.055 2.055 0 001.159-1.1 2.139 2.139 0 00-1.028-2.805l-3.043-1.4a1.98 1.98 0 00-.828-.183 2.01 2.01 0 00-.709.131 2.058 2.058 0 00-1.162 1.1 2.139 2.139 0 001.028 2.805zm3.371 14.347a1.879 1.879 0 001.059-1.008l.158-.354a1.952 1.952 0 00-.941-2.561l-2.062-.949a1.8 1.8 0 00-.76-.167 1.845 1.845 0 00-.65.12 1.875 1.875 0 00-1.062 1.008l-.156.354a1.95 1.95 0 00.94 2.56l2.063.95a1.818 1.818 0 001.411.047zm.623 1.649a3.722 3.722 0 01-.695.185v3.579a2.648 2.648 0 002.631 2.66h21.375a2.647 2.647 0 002.63-2.66v-5.416H51.192a3.624 3.624 0 01-1.906 1.652z"/><path class="b" d="M49.722 365.005l.158-.354a1.952 1.952 0 00-.941-2.561l-2.062-.949a1.8 1.8 0 00-.76-.167 1.845 1.845 0 00-.65.12 1.875 1.875 0 00-1.062 1.008l-.156.354a1.95 1.95 0 00.94 2.56l2.063.95a1.818 1.818 0 001.411.047 1.879 1.879 0 001.059-1.008zm-4.43-13.339l3.044 1.4a1.973 1.973 0 001.539.052 2.055 2.055 0 001.159-1.1 2.139 2.139 0 00-1.028-2.805l-3.043-1.4a1.98 1.98 0 00-.828-.183 2.01 2.01 0 00-.709.131 2.058 2.058 0 00-1.162 1.1 2.139 2.139 0 001.028 2.805zm6.516 12.224a3.71 3.71 0 01-.317 1.474l-.156.354c-.018.038-.037.074-.056.111h24.484a1.571 1.571 0 001.563-1.576v-.363zm-5.313-19.697a1.978 1.978 0 001.539.052 1.829 1.829 0 00.3-.151 2.086 2.086 0 00.254-.179 2.06 2.06 0 00.266-.259l.088-.1c.028-.033.054-.076.08-.116a1.989 1.989 0 00.167-.3 2.186 2.186 0 00.124-.379c.011-.045.015-.09.023-.136a2.152 2.152 0 00.03-.245v-.171a2.353 2.353 0 00-.046-.393c-.013-.064-.025-.1-.04-.153a2.171 2.171 0 00-.071-.216c-.012-.028-.026-.055-.04-.082a2.092 2.092 0 00-.581-.757 1.955 1.955 0 00-.146-.107 1.805 1.805 0 00-.281-.167l-1.67-.77-1.374-.634a1.971 1.971 0 00-.827-.183 2.018 2.018 0 00-.71.131 2.055 2.055 0 00-1.16 1.1 2.139 2.139 0 001.027 2.8l3.045 1.4z"/><path class="b" d="M72.391 321.428H51.427a2.855 2.855 0 00-2.836 2.867v14.3l.313.144a3.91 3.91 0 011.9 5.117 3.8 3.8 0 01-2.149 2.041c-.021.008-.043.014-.066.021a3.779 3.779 0 01-1.091.217c.067.026.135.048.2.079l.89.411 2.153.994a3.91 3.91 0 011.9 5.117 3.812 3.812 0 01-1.455 1.7l.777.359a3.9 3.9 0 011.894 5.1 3.8 3.8 0 01-2.142 2.037 4.086 4.086 0 01-.381.119 3.774 3.774 0 01.464 1.664h23.424v-39.421a2.855 2.855 0 00-2.831-2.866zm-23.105 46.234a3.722 3.722 0 01-.695.185v3.579a2.648 2.648 0 002.631 2.66h21.375a2.647 2.647 0 002.63-2.66v-5.416H51.192a3.624 3.624 0 01-1.906 1.652z"/><path class="b" d="M52.25 359.177a2.131 2.131 0 00-1.021-2.792l-4.286-1.98a1.953 1.953 0 00-.823-.182 1.99 1.99 0 00-.706.13 2.045 2.045 0 00-1.153 1.1 2.13 2.13 0 001.021 2.791l4.287 1.98a1.956 1.956 0 001.526.052 2.047 2.047 0 001.155-1.099z"/><path class="b" d="M45.292 351.667l3.044 1.4a1.973 1.973 0 001.539.052 2.055 2.055 0 001.159-1.1 2.139 2.139 0 00-1.028-2.805l-3.043-1.4a1.98 1.98 0 00-.828-.183 2.01 2.01 0 00-.709.131 2.058 2.058 0 00-1.162 1.1 2.139 2.139 0 001.028 2.805zm1.202-7.474a1.978 1.978 0 001.539.052 1.829 1.829 0 00.3-.151 2.086 2.086 0 00.254-.179 2.06 2.06 0 00.266-.259l.088-.1c.028-.033.054-.076.08-.116a1.989 1.989 0 00.167-.3 2.186 2.186 0 00.124-.379c.011-.045.015-.09.023-.136a2.152 2.152 0 00.03-.245v-.171a2.353 2.353 0 00-.046-.393c-.013-.064-.025-.1-.04-.153a2.171 2.171 0 00-.071-.216c-.012-.028-.026-.055-.04-.082a2.092 2.092 0 00-.581-.757 1.955 1.955 0 00-.146-.107 1.805 1.805 0 00-.281-.167l-1.67-.77-1.374-.634a1.971 1.971 0 00-.827-.183 2.018 2.018 0 00-.71.131 2.055 2.055 0 00-1.16 1.1 2.139 2.139 0 001.027 2.8l3.045 1.4zm-1.212 14.052l4.287 1.98a1.956 1.956 0 001.526.052 2.047 2.047 0 001.153-1.1 2.131 2.131 0 00-1.021-2.792l-4.286-1.98a1.953 1.953 0 00-.823-.182 1.99 1.99 0 00-.706.13 2.045 2.045 0 00-1.153 1.1 2.13 2.13 0 001.023 2.792z"/><path class="b" d="M74.702 344.074a14.274 14.274 0 01.526-1.583v-18.197a2.855 2.855 0 00-2.837-2.867H51.427a2.855 2.855 0 00-2.836 2.867v14.3l.313.144a3.91 3.91 0 011.9 5.117 3.8 3.8 0 01-2.149 2.041c-.021.008-.043.014-.066.021a3.779 3.779 0 01-1.091.217c.067.026.135.048.2.079l.89.411 2.153.994a3.91 3.91 0 011.9 5.117 3.812 3.812 0 01-1.455 1.7l.777.359a3.9 3.9 0 011.894 5.1 3.8 3.8 0 01-2.142 2.037 4.086 4.086 0 01-.381.119 3.774 3.774 0 01.464 1.664h23.424v-9.2c-.165-.915-.346-1.7-.509-2.411a13.947 13.947 0 01-.011-8.029zm-22.895 19.817a3.71 3.71 0 01-.317 1.474l-.156.354c-.018.038-.037.074-.056.111h24.071l-.014-1.94zm-2.086 1.114l.158-.354a1.952 1.952 0 00-.941-2.561l-2.062-.949a1.8 1.8 0 00-.76-.167 1.845 1.845 0 00-.65.12 1.875 1.875 0 00-1.062 1.008l-.156.354a1.95 1.95 0 00.94 2.56l2.063.95a1.818 1.818 0 001.411.047 1.879 1.879 0 001.059-1.008zm-.436 2.657a3.722 3.722 0 01-.695.185v3.579a2.648 2.648 0 002.631 2.66h21.375a2.647 2.647 0 002.63-2.66v-5.416H51.191a3.624 3.624 0 01-1.906 1.652z"/><path d="M75.228 345.771c.083-.457.188-.942.327-1.475a14.658 14.658 0 011.77-4.037v-1.469a13.615 13.615 0 00-2.1 3.7zm.121 20.06l.046 6.121a.882.882 0 00.881.875h.007a.881.881 0 00.83-.616l-.837-.266-.046-6.194a1.528 1.528 0 01-.469.08zm-.081-11.108l.068 9.168h.881l-.069-9.248c-.313-1.818-.687-3.111-.921-4.36v4.226c.016.076.028.14.041.214z"/><path class="f" d="M92.131 372.727c-1.908-4.021-1.313-6.317-2.138-10.058-1.281-5.808-3.368-5.168-6.15-12.472-2.742-7.206-.2-11.4-3.943-11.936-.834-.125-1.767.749-2.576 2a14.671 14.671 0 00-1.77 4.037 19.842 19.842 0 00-.326 1.475 11.491 11.491 0 000 4.511c.233 1.249.607 2.543.92 4.361l.069 9.248.014 1.859.046 6.194.837.266a.908.908 0 00.045-.273l-.13-17.3a.905.905 0 00-.013-.143c-.187-1.086-.4-1.993-.58-2.793a12.238 12.238 0 01-.03-7.183c.785-3.021 2.68-5.456 3.363-5.385 1.3.187 1.458.741 1.663 3.483a26.169 26.169 0 001.586 7.895 27.726 27.726 0 003.6 6.788 13.148 13.148 0 012.515 5.56 28.535 28.535 0 01.5 3.464 18.144 18.144 0 001.7 6.783 35.361 35.361 0 002.512 4.422l1.36.432a34.459 34.459 0 01-3.074-5.235z"/><path class="b" d="M45.282 358.245l4.287 1.98a1.956 1.956 0 001.526.052 2.047 2.047 0 001.153-1.1 2.131 2.131 0 00-1.021-2.792l-4.286-1.98a1.953 1.953 0 00-.823-.182 1.99 1.99 0 00-.706.13 2.045 2.045 0 00-1.153 1.1 2.13 2.13 0 001.023 2.792zm.01-6.578l3.044 1.4a1.973 1.973 0 001.539.052 2.055 2.055 0 001.159-1.1 2.139 2.139 0 00-1.028-2.805l-3.043-1.4a1.98 1.98 0 00-.828-.183 2.01 2.01 0 00-.709.131 2.058 2.058 0 00-1.162 1.1 2.139 2.139 0 001.028 2.805zm1.202-7.474a1.978 1.978 0 001.539.052 1.829 1.829 0 00.3-.151 2.086 2.086 0 00.254-.179 2.06 2.06 0 00.266-.259l.088-.1c.028-.033.054-.076.08-.116a1.989 1.989 0 00.167-.3 2.186 2.186 0 00.124-.379c.011-.045.015-.09.023-.136a2.152 2.152 0 00.03-.245v-.171a2.353 2.353 0 00-.046-.393c-.013-.064-.025-.1-.04-.153a2.171 2.171 0 00-.071-.216c-.012-.028-.026-.055-.04-.082a2.092 2.092 0 00-.581-.757 1.955 1.955 0 00-.146-.107 1.805 1.805 0 00-.281-.167l-1.67-.77-1.374-.634a1.971 1.971 0 00-.827-.183 2.018 2.018 0 00-.71.131 2.055 2.055 0 00-1.16 1.1 2.139 2.139 0 001.027 2.8l3.045 1.4zm3.227 20.812l.158-.354a1.952 1.952 0 00-.941-2.561l-2.062-.949a1.8 1.8 0 00-.76-.167 1.845 1.845 0 00-.65.12 1.875 1.875 0 00-1.062 1.008l-.156.354a1.95 1.95 0 00.94 2.56l2.063.95a1.818 1.818 0 001.411.047 1.879 1.879 0 001.059-1.008zm-.436 2.657a3.722 3.722 0 01-.695.185v3.579a2.648 2.648 0 002.631 2.66h21.375a2.647 2.647 0 002.63-2.66v-5.416H51.191a3.624 3.624 0 01-1.906 1.652z"/><path class="b" d="M72.391 321.428H51.427a2.855 2.855 0 00-2.836 2.867v14.3l.313.144a3.91 3.91 0 011.9 5.117 3.8 3.8 0 01-2.149 2.041c-.021.008-.043.014-.066.021a3.779 3.779 0 01-1.091.217c.067.026.135.048.2.079l.89.411 2.153.994a3.91 3.91 0 011.9 5.117 3.812 3.812 0 01-1.455 1.7l.777.359a3.9 3.9 0 011.894 5.1 3.8 3.8 0 01-2.142 2.037 4.086 4.086 0 01-.381.119 3.774 3.774 0 01.464 1.664h23.424v-9.2c-.165-.915-.346-1.7-.509-2.411a13.947 13.947 0 01-.017-8.023 14.274 14.274 0 01.526-1.583v-18.204a2.855 2.855 0 00-2.831-2.866z"/><path d="M62.311 375.264a.879.879 0 00-.5.941h1.914c-.083-.168-.166-.335-.248-.512a.884.884 0 00-1.166-.429z"/><path class="b" d="M45.292 351.667l3.044 1.4a1.973 1.973 0 001.539.052 2.055 2.055 0 001.159-1.1 2.139 2.139 0 00-1.028-2.805l-3.043-1.4a1.98 1.98 0 00-.828-.183 2.01 2.01 0 00-.709.131 2.058 2.058 0 00-1.162 1.1 2.139 2.139 0 001.028 2.805zm-.01 6.578l4.287 1.98a1.956 1.956 0 001.526.052 2.047 2.047 0 001.153-1.1 2.131 2.131 0 00-1.021-2.792l-4.286-1.98a1.953 1.953 0 00-.823-.182 1.99 1.99 0 00-.706.13 2.045 2.045 0 00-1.153 1.1 2.13 2.13 0 001.023 2.792zm4.439 6.76l.158-.354a1.952 1.952 0 00-.941-2.561l-2.062-.949a1.8 1.8 0 00-.76-.167 1.845 1.845 0 00-.65.12 1.875 1.875 0 00-1.062 1.008l-.156.354a1.95 1.95 0 00.94 2.56l2.063.95a1.818 1.818 0 001.411.047 1.879 1.879 0 001.059-1.008zm-3.227-20.812a1.978 1.978 0 001.539.052 1.829 1.829 0 00.3-.151 2.086 2.086 0 00.254-.179 2.06 2.06 0 00.266-.259l.088-.1c.028-.033.054-.076.08-.116a1.989 1.989 0 00.167-.3 2.186 2.186 0 00.124-.379c.011-.045.015-.09.023-.136a2.152 2.152 0 00.03-.245v-.171a2.353 2.353 0 00-.046-.393c-.013-.064-.025-.1-.04-.153a2.171 2.171 0 00-.071-.216c-.012-.028-.026-.055-.04-.082a2.092 2.092 0 00-.581-.757 1.955 1.955 0 00-.146-.107 1.805 1.805 0 00-.281-.167l-1.67-.77-1.374-.634a1.971 1.971 0 00-.827-.183 2.018 2.018 0 00-.71.131 2.055 2.055 0 00-1.16 1.1 2.139 2.139 0 001.027 2.8l3.045 1.4zm2.791 23.469a3.722 3.722 0 01-.695.185v3.579a2.648 2.648 0 002.631 2.66h21.375a2.647 2.647 0 002.63-2.66v-5.416H51.191a3.624 3.624 0 01-1.906 1.652z"/><path class="b" d="M72.391 321.428H51.427a2.855 2.855 0 00-2.836 2.867v14.3l.313.144a3.91 3.91 0 011.9 5.117 3.8 3.8 0 01-2.149 2.041c-.021.008-.043.014-.066.021a3.779 3.779 0 01-1.091.217c.067.026.135.048.2.079l.89.411 2.153.994a3.91 3.91 0 011.9 5.117 3.812 3.812 0 01-1.455 1.7l.777.359a3.9 3.9 0 011.894 5.1 3.8 3.8 0 01-2.142 2.037 4.086 4.086 0 01-.381.119 3.774 3.774 0 01.464 1.664h23.424v-9.2c-.165-.915-.346-1.7-.509-2.411a13.947 13.947 0 01-.017-8.023 14.274 14.274 0 01.526-1.583v-18.204a2.855 2.855 0 00-2.831-2.866z"/><path d="M95.923 377.448a33.61 33.61 0 01-3-5.1 16.475 16.475 0 01-1.542-6.2 29.791 29.791 0 00-.532-3.667 14.768 14.768 0 00-2.79-6.189 25.8 25.8 0 01-3.4-6.407 24.222 24.222 0 01-1.477-7.4c-.189-2.519-.352-4.694-3.166-5.1a3.143 3.143 0 00-2.7 1.4v-14.489a4.961 4.961 0 00-4.933-4.987H51.42a4.959 4.959 0 00-4.932 4.987v13.328l-.634-.293a3.728 3.728 0 00-2.9-.1 3.81 3.81 0 00-2.152 2.041 3.91 3.91 0 001.9 5.117l3.044 1.4c.064.03.13.052.2.078a3.808 3.808 0 00-3.3 2.28 3.919 3.919 0 001.476 4.883 3.8 3.8 0 00-1.478 1.708 3.907 3.907 0 001.641 4.97 3.618 3.618 0 00-1.5 1.676l-.159.354a3.721 3.721 0 001.817 4.874l2.043.941v3.867a4.753 4.753 0 004.727 4.779h10.6a.86.86 0 00.067.23c2.138 4.613 4.616 6.339 6.537 7.328a15.23 15.23 0 002.614 1.007 23.513 23.513 0 013.181 1.2 24.823 24.823 0 015.566 3.564.881.881 0 001.137-1.347 26.559 26.559 0 00-5.96-3.816 24.963 24.963 0 00-3.4-1.281 13.6 13.6 0 01-2.332-.892c-1.7-.873-3.665-2.277-5.5-5.99h8.865a4.739 4.739 0 004.651-3.952l-.134-.043a.871.871 0 00.045-.273l-.13-17.3a.907.907 0 00-.013-.143c-.187-1.086-.4-1.993-.58-2.792a12.245 12.245 0 01-.029-7.183c.785-3.021 2.68-5.456 3.363-5.385 1.3.187 1.457.741 1.663 3.483a26.2 26.2 0 001.586 7.894 27.714 27.714 0 003.6 6.788 13.139 13.139 0 012.515 5.56 28.442 28.442 0 01.5 3.464 18.147 18.147 0 001.7 6.783 35.25 35.25 0 002.511 4.422c.211.317.421.635.643.945a.881.881 0 001.434-1.024zm-52.473-34.66a2.138 2.138 0 01-1.027-2.8 2.052 2.052 0 011.16-1.1 2.016 2.016 0 01.71-.131 1.979 1.979 0 01.827.183l1.374.634 1.67.77a1.8 1.8 0 01.28.167c.051.034.1.069.146.107a2.086 2.086 0 01.581.757c.012.028.028.054.039.082a2.1 2.1 0 01.072.216c.015.051.03.1.041.153s.024.128.032.193.012.133.014.2 0 .113 0 .171a2.324 2.324 0 01-.029.245c-.009.045-.013.09-.023.136a2.212 2.212 0 01-.124.379 1.936 1.936 0 01-.168.3c-.026.04-.052.078-.079.116s-.058.069-.088.1a2.04 2.04 0 01-.266.259 2.052 2.052 0 01-.254.179 1.819 1.819 0 01-.3.151 1.977 1.977 0 01-1.538-.052zm.813 6.075a2.059 2.059 0 011.161-1.1 2.013 2.013 0 01.71-.131 1.98 1.98 0 01.828.183l3.043 1.4a2.139 2.139 0 011.028 2.805 2.052 2.052 0 01-1.158 1.1 1.974 1.974 0 01-1.539-.052l-3.045-1.4a2.139 2.139 0 01-1.029-2.804zm0 6.59a2.045 2.045 0 011.153-1.1 1.989 1.989 0 01.705-.13 1.96 1.96 0 01.824.182l4.285 1.979a2.131 2.131 0 011.021 2.792 2.044 2.044 0 01-1.153 1.1 1.958 1.958 0 01-1.527-.052l-4.287-1.98a2.13 2.13 0 01-1.023-2.79zm2.99 10.513l-2.063-.95a1.949 1.949 0 01-.94-2.56l.156-.354a1.877 1.877 0 011.063-1.008 1.838 1.838 0 01.65-.12 1.8 1.8 0 01.759.167l2.062.949a1.952 1.952 0 01.942 2.561l-.158.354a1.879 1.879 0 01-1.059 1.008 1.816 1.816 0 01-1.413-.046zm27.975 5.459a2.648 2.648 0 01-2.63 2.66H51.223a2.648 2.648 0 01-2.631-2.66v-3.579a3.714 3.714 0 00.693-.185 3.625 3.625 0 001.9-1.652h24.038zm0-28.935a14.269 14.269 0 00-.526 1.583 13.964 13.964 0 00.017 8.023c.164.712.344 1.5.509 2.411v9.2H51.802a3.761 3.761 0 00-.464-1.665c.128-.034.255-.072.381-.119a3.8 3.8 0 002.143-2.037 3.9 3.9 0 00-1.895-5.1l-.777-.359a3.809 3.809 0 001.455-1.7 3.91 3.91 0 00-1.9-5.117l-2.153-.994-.891-.411c-.066-.03-.135-.052-.2-.079a3.793 3.793 0 001.093-.217l.065-.021a3.8 3.8 0 002.148-2.041 3.91 3.91 0 00-1.9-5.117l-.312-.144v-14.3a2.854 2.854 0 012.835-2.867h20.963a2.855 2.855 0 012.837 2.867z"/><path class="c" d="M28.636 357.45a9.912 9.912 0 010-14.017l.291.292a9.5 9.5 0 000 13.434z"/><path class="c" d="M30.924 355.163a6.676 6.676 0 010-9.441l.291.292a6.266 6.266 0 000 8.858zm2.286-2.288a3.442 3.442 0 010-4.866l.292.292a3.03 3.03 0 000 4.283z"/><path class="c" d="M30.924 355.163a6.676 6.676 0 010-9.441l.291.292a6.266 6.266 0 000 8.858zm2.286-2.288a3.442 3.442 0 010-4.866l.292.292a3.03 3.03 0 000 4.283z"/><path class="a" d="M65.211 344.679a1.958 1.958 0 00.692-.473 2.2 2.2 0 00.443-.712 2.231 2.231 0 00.161-.865 2.28 2.28 0 00-.161-.874 2.162 2.162 0 00-.443-.7 2.113 2.113 0 00-.692-.482 2.376 2.376 0 00-.9-.172h-1.276v4.46h1.276a2.2 2.2 0 00.9-.181m-.9-5.615a3.8 3.8 0 011.436.271 3.712 3.712 0 011.165.764 3.558 3.558 0 01.784 1.135 3.615 3.615 0 010 2.792 3.574 3.574 0 01-.784 1.135 3.531 3.531 0 01-1.165.754 3.64 3.64 0 01-1.436.28H61.58v-7.128zm-6.289 2.953a.9.9 0 11.9-.9.9.9 0 01-.9.9m0-3.075a2.179 2.179 0 102.179 2.18 2.179 2.179 0 00-2.179-2.18"/></svg>