<svg xmlns="http://www.w3.org/2000/svg" width="162" height="48" viewBox="0 0 162 48"><defs><style>.a{fill:#fff}</style></defs><path class="a" d="M156 .96A5.04 5.04 0 01161.04 6v36a5.04 5.04 0 01-5.04 5.04H6A5.04 5.04 0 01.96 42V6A5.04 5.04 0 016 .96zm0-.96H6a6 6 0 00-6 6v36a6 6 0 006 6h150a6 6 0 006-6V6a6 6 0 00-6-6z"/><path class="a" d="M81.768 26.102a5.1 5.1 0 105.124 5.1 5.028 5.028 0 00-5.124-5.1zm0 8.2a3.1 3.1 0 112.883-3.1 2.952 2.952 0 01-2.88 3.1zm-11.172-8.2a5.1 5.1 0 105.112 5.1 5.028 5.028 0 00-5.124-5.1zm0 8.2a3.1 3.1 0 112.868-3.1 2.952 2.952 0 01-2.88 3.1zm-13.308-6.63v2.16h5.184a4.524 4.524 0 01-1.2 2.724 5.3 5.3 0 01-4 1.584 5.76 5.76 0 110-11.52 5.52 5.52 0 013.924 1.548l1.524-1.524a7.548 7.548 0 00-5.432-2.242 7.932 7.932 0 100 15.852 7 7 0 007.4-7.284 7.041 7.041 0 00-.12-1.356zm54.372 1.68a4.718 4.718 0 00-9.168 1.85 4.992 4.992 0 005.064 5.1 5.076 5.076 0 004.248-2.256l-1.74-1.2a2.917 2.917 0 01-2.508 1.416 2.592 2.592 0 01-2.472-1.548l6.828-2.82zm-6.96 1.7a2.8 2.8 0 012.664-2.976 1.98 1.98 0 011.9 1.08zm-5.544 4.95h2.244v-15h-2.244zm-3.672-8.76H95.4a3.6 3.6 0 00-2.688-1.2 5.112 5.112 0 000 10.212 3.479 3.479 0 002.688-1.2h.072v.732c0 1.956-1.044 3-2.724 3a2.82 2.82 0 01-2.568-1.812l-1.956.816a4.86 4.86 0 004.527 3.012c2.628 0 4.8-1.548 4.8-5.316v-9.084h-2.064zm-2.568 7.056a3.108 3.108 0 010-6.192 2.88 2.88 0 012.724 3.1 2.856 2.856 0 01-2.736 3.1zm29.256-13.3h-5.364v15h2.243v-5.686h3.132a4.668 4.668 0 100-9.312zm0 7.2h-3.132v-5.11h3.18a2.574 2.574 0 110 5.148zm13.836-2.16a4.2 4.2 0 00-4 2.292l1.992.828a2.123 2.123 0 012.04-1.1 2.16 2.16 0 012.4 1.932v.156a4.957 4.957 0 00-2.34-.576c-2.148 0-4.32 1.2-4.32 3.372a3.468 3.468 0 003.72 3.3 3.157 3.157 0 002.88-1.44h.072v1.2h2.16v-5.774c0-2.628-1.992-4.152-4.548-4.152zm-.276 8.22c-.732 0-1.752-.372-1.752-1.272 0-1.2 1.272-1.6 2.4-1.6a3.984 3.984 0 012.04.5 2.712 2.712 0 01-2.628 2.4zm12.756-7.86l-2.568 6.5h-.069l-2.664-6.5h-2.4l4 9.1-2.28 5.052h2.34l6.137-14.148zm-20.172 9.6h2.244v-15h-2.244zM56.829 12.363a3.253 3.253 0 01-.9 2.4 3.492 3.492 0 01-2.642 1.07 3.78 3.78 0 01-2.652-6.444 3.6 3.6 0 012.652-1.08 3.72 3.72 0 011.476.3 2.965 2.965 0 011.128.8l-.636.636a2.4 2.4 0 00-1.968-.852 2.784 2.784 0 00-2.8 2.88 2.832 2.832 0 004.8 2.076 2.268 2.268 0 00.6-1.464h-2.6v-.862h3.492a3.054 3.054 0 01.05.54zm5.5-3h-3.242v2.28h2.95v.864h-2.95v2.28h3.24v.888h-4.2v-7.2h4.2zm3.936 6.312h-.928V9.363h-2.016v-.888h5v.888h-2.06zm5.592 0v-7.2h.924v7.2zm5.028 0h-.928V9.363h-2.016v-.888h4.946v.888h-2zm11.376-.936a3.744 3.744 0 01-5.28 0 3.887 3.887 0 010-5.34 3.72 3.72 0 015.28 0 3.875 3.875 0 010 5.34zm-4.6-.6a2.772 2.772 0 003.912 0 3.073 3.073 0 000-4.128 2.772 2.772 0 00-3.912 0 3.073 3.073 0 000 4.128zm6.96 1.536v-7.2h1.128l3.5 5.6v-5.6h.924v7.2h-.96l-3.66-5.868v5.868z"/><path d="M85.617 8.419a3.6 3.6 0 00-2.554 1.063 3.767 3.767 0 000 5.173 3.624 3.624 0 005.108 0 3.756 3.756 0 000-5.172 3.6 3.6 0 00-2.554-1.063zm-1.476.055a3.841 3.841 0 014.2.84 4 4 0 010 5.505 3.864 3.864 0 01-5.449 0 4.007 4.007 0 010-5.5 3.836 3.836 0 011.249-.846zm-30.855-.048a3.481 3.481 0 00-2.559 1.047 3.66 3.66 0 002.568 6.239 3.372 3.372 0 002.549-1.031 3.132 3.132 0 00.867-2.311l.12-.006h-.12a2.934 2.934 0 00-.03-.42h-3.27v.624h2.606v.124a2.388 2.388 0 01-.632 1.541v.005a2.952 2.952 0 01-5-2.161 2.9 2.9 0 012.913-3 2.52 2.52 0 011.976.8l.465-.465a2.843 2.843 0 00-1.007-.689 3.6 3.6 0 00-1.428-.29zm3.663 3.933a3.373 3.373 0 01-.933 2.486 3.613 3.613 0 01-2.729 1.1 3.9 3.9 0 01-2.735-6.648 3.72 3.72 0 012.739-1.116 3.839 3.839 0 011.521.309 3.084 3.084 0 011.172.836l.073.084-.808.808-.084-.1a2.28 2.28 0 00-1.87-.809h-.007a2.664 2.664 0 00-2.675 2.764 2.712 2.712 0 004.594 1.99 2.148 2.148 0 00.558-1.26h-2.6v-1.1h3.712l.018.1a3.17 3.17 0 01.054.557zm1.056-4.005h4.44v1.129h-3.24v2.04h2.952v1.1h-2.952v2.04h3.24v1.128h-4.44zm.24.24v6.96h3.96v-.648h-3.24v-2.52h2.952v-.623h-2.952v-2.52h3.24v-.648zm4.956-.24h5.244v1.129h-2.064v6.312h-1.164V9.483h-2.016zm.24.24v.648h2.016v6.312h.684V9.243h2.064v-.648zm8.292-.24h1.164v7.44h-1.164zm.24.24v6.96h.684v-6.96zm1.848-.24h5.184v1.129h-2v6.312h-1.168V9.483h-2.016zm.24.24v.648h2.016v6.312h.684V9.243h2v-.648zm16.44-.24h1.315l3.317 5.306V8.355h1.164v7.44H95.15l-3.473-5.569v5.569h-1.176zm.24.24v6.96h.7V9.387l3.847 6.167h.773v-6.96h-.684v5.9l-3.691-5.9zm-7.165 1.331a2.892 2.892 0 014.082 0 3.194 3.194 0 010 4.289 2.892 2.892 0 01-4.082 0l.085-.085-.088.081a3.191 3.191 0 010-4.289zm.172 4.13a2.652 2.652 0 003.738 0 2.952 2.952 0 000-3.962 2.652 2.652 0 00-3.738 0 2.952 2.952 0 000 3.962z" fill-rule="evenodd" fill="#fff"/><path class="a" d="M12.594 39.238l14.7-15.247L12.609 8.77a1.7 1.7 0 00-.635 1.5v27.478a1.73 1.73 0 00.62 1.49zM27.822 23.57l4.379-4.539L14.368 8.886a1.92 1.92 0 00-.989-.277l14.44 14.96zm0 .843L13.336 39.439a1.912 1.912 0 001.034-.284l17.868-10.17zm10.839-1.706l-5.934-3.381-4.5 4.666 4.532 4.7 5.9-3.372a1.375 1.375 0 00.002-2.613z"/></svg>