<svg xmlns="http://www.w3.org/2000/svg" width="120" height="120" viewBox="0 0 120 120"><defs><style>.a{fill:none;}.b{fill:#00adef;}</style></defs><g transform="translate(-900 -3094)"><g transform="translate(84.226 2274.739)"><path class="a" d="M864.216,875.22a5.924,5.924,0,1,0,5.923,5.924A5.93,5.93,0,0,0,864.216,875.22Z"/><path class="a" d="M900.776,860.117a.9.9,0,1,0-.9-.9A.9.9,0,0,0,900.776,860.117Z"/><path class="a" d="M884.588,909.2H865.361a3.772,3.772,0,0,1-2.916-1.362H841.862a3.17,3.17,0,0,0,3.077,2.424H905.01a3.17,3.17,0,0,0,3.077-2.424H887.5A3.771,3.771,0,0,1,884.588,909.2Z"/><path class="a" d="M864.216,892.81a10.171,10.171,0,0,0-10.159,10.159v2.868h8.9a1,1,0,0,1,.856.484,1.8,1.8,0,0,0,1.547.878h9.014v-4.23A10.171,10.171,0,0,0,864.216,892.81Z"/><path class="a" d="M893.12,860.117a.9.9,0,1,0-.9-.9A.9.9,0,0,0,893.12,860.117Z"/><path class="a" d="M877.106,870.115h3.88a1,1,0,0,1,1,1.008l-.046,6.169,6.407-6.86a1,1,0,0,1,.73-.317h20.057V849.261H877.106Zm23.67-13.8a2.9,2.9,0,1,1-2.9,2.9A2.9,2.9,0,0,1,900.776,856.315Zm-7.656,0a2.9,2.9,0,1,1-2.9,2.9A2.9,2.9,0,0,1,893.12,856.315Zm-7.656,0a2.9,2.9,0,1,1-2.9,2.9A2.9,2.9,0,0,1,885.464,856.315Z"/><path class="a" d="M885.464,860.117a.9.9,0,1,0-.9-.9A.9.9,0,0,0,885.464,860.117Z"/><path class="b" d="M864.216,873.22a7.924,7.924,0,1,0,7.923,7.924A7.933,7.933,0,0,0,864.216,873.22Zm0,13.847a5.924,5.924,0,1,1,5.923-5.923A5.93,5.93,0,0,1,864.216,887.067Z"/><path class="b" d="M854.057,902.969a10.159,10.159,0,0,1,20.318,0v4.23h2v-4.23a12.159,12.159,0,0,0-24.318,0v2.868h2Z"/><path d="M908.915,905.837h-2.144V876.414a1,1,0,0,0-2,0v29.423h-17.78a1,1,0,0,0-.855.483,1.8,1.8,0,0,1-1.548.879H865.361a1.8,1.8,0,0,1-1.547-.878,1,1,0,0,0-.856-.484h-17.73V865.794h25.58a1,1,0,0,0,0-2h-26.58a1,1,0,0,0-1,1v41.043h-2.194a1.262,1.262,0,0,0-1.26,1.26,5.171,5.171,0,0,0,5.165,5.164H905.01a5.171,5.171,0,0,0,5.165-5.164A1.262,1.262,0,0,0,908.915,905.837Zm-3.9,4.424H844.939a3.17,3.17,0,0,1-3.077-2.424h20.583a3.772,3.772,0,0,0,2.916,1.362h19.227a3.771,3.771,0,0,0,2.915-1.362h20.584A3.17,3.17,0,0,1,905.01,910.261Z"/><path d="M885.464,862.117a2.9,2.9,0,1,0-2.9-2.9A2.9,2.9,0,0,0,885.464,862.117Zm0-3.8a.9.9,0,1,1-.9.9A.9.9,0,0,1,885.464,858.315Z"/><path d="M893.12,862.117a2.9,2.9,0,1,0-2.9-2.9A2.9,2.9,0,0,0,893.12,862.117Zm0-3.8a.9.9,0,1,1-.9.9A.9.9,0,0,1,893.12,858.315Z"/><path d="M900.776,862.117a2.9,2.9,0,1,0-2.9-2.9A2.905,2.905,0,0,0,900.776,862.117Zm0-3.8a.9.9,0,1,1-.9.9A.9.9,0,0,1,900.776,858.315Z"/><path class="b" d="M910.134,847.261H876.106a1,1,0,0,0-1,1v22.854a1,1,0,0,0,1,1h3.873l-.052,6.936a1.3,1.3,0,0,0,.82,1.226,1.313,1.313,0,0,0,.489.1,1.3,1.3,0,0,0,.952-.417l7.324-7.841h20.622a1,1,0,0,0,1-1V848.261A1,1,0,0,0,910.134,847.261Zm-1,22.854H889.077a1,1,0,0,0-.73.317l-6.407,6.86.046-6.169a1,1,0,0,0-1-1.008h-3.88V849.261h32.028Z"/></g><rect class="a" width="120" height="120" transform="translate(900 3094)"/></g></svg>