<svg xmlns="http://www.w3.org/2000/svg" width="61" height="61" viewBox="0 0 61 61"><defs><style>.a{fill:none;stroke:#f5f5f5;}.b{fill:#00adef;}</style></defs><g transform="translate(-274.949 -104.829)"><circle class="a" cx="30" cy="30" r="30" transform="translate(275.449 105.329)"/><g transform="translate(284.313 114.193)"><g transform="translate(9.888 9.734)"><path d="M314.2,155.41a11.4,11.4,0,1,1,11.248-11.4A11.339,11.339,0,0,1,314.2,155.41Zm0-21.44a10.04,10.04,0,1,0,9.884,10.038A9.974,9.974,0,0,0,314.2,133.97Z" transform="translate(-302.951 -132.606)"/></g><g transform="translate(15.435 13.948)"><path class="b" d="M315.3,153.163a1.239,1.239,0,0,1-1.227-1.414l.542-3.792h-2.29a1.239,1.239,0,0,1-.927-2.062l5.95-6.693a1.239,1.239,0,0,1,2.149,1.028l-.5,3.017h2.255a1.24,1.24,0,0,1,.967,2.015l-5.948,7.436A1.235,1.235,0,0,1,315.3,153.163Zm-2.7-6.569h3.585l-.7,4.9,5.5-6.881h-3.607l.7-4.181Z" transform="translate(-311.087 -138.786)"/></g><g transform="translate(6.117 5.908)"><path class="b" d="M312.44,157.45a.682.682,0,0,1,0-1.364A13.777,13.777,0,0,0,326.1,142.222a.682.682,0,1,1,1.364,0A15.142,15.142,0,0,1,312.44,157.45ZM298.1,142.9a.682.682,0,0,1-.682-.682,15.142,15.142,0,0,1,15.019-15.228.682.682,0,1,1,0,1.364,13.777,13.777,0,0,0-13.655,13.865A.682.682,0,0,1,298.1,142.9Z" transform="translate(-297.421 -126.994)"/></g><g transform="translate(20.454)"><path d="M319.13,121.877a.682.682,0,0,1-.682-.682v-2.184a.682.682,0,1,1,1.364,0v2.184A.681.681,0,0,1,319.13,121.877Z" transform="translate(-318.448 -118.329)"/></g><g transform="translate(10.227 2.739)"><path class="b" d="M305.223,125.6a.681.681,0,0,1-.591-.341l-1.093-1.891a.682.682,0,1,1,1.181-.682l1.093,1.891a.682.682,0,0,1-.59,1.023Z" transform="translate(-303.448 -122.347)"/></g><g transform="translate(2.74 10.227)"><path d="M295.04,135.784a.676.676,0,0,1-.34-.091l-1.891-1.092a.682.682,0,0,1,.682-1.182l1.891,1.092a.682.682,0,0,1-.342,1.272Z" transform="translate(-292.467 -133.328)"/></g><g transform="translate(0 20.455)"><path class="b" d="M291.315,149.693h-2.184a.682.682,0,0,1,0-1.364h2.184a.682.682,0,0,1,0,1.364Z" transform="translate(-288.449 -148.329)"/></g><g transform="translate(2.74 29.59)"><path d="M293.15,164.183a.682.682,0,0,1-.342-1.273l1.891-1.092a.682.682,0,0,1,.682,1.181l-1.891,1.092A.676.676,0,0,1,293.15,164.183Z" transform="translate(-292.467 -161.727)"/></g><g transform="translate(10.227 36.277)"><path class="b" d="M304.13,174.791a.682.682,0,0,1-.59-1.023l1.092-1.892a.682.682,0,0,1,1.181.682l-1.092,1.892A.682.682,0,0,1,304.13,174.791Z" transform="translate(-303.449 -171.535)"/></g><g transform="translate(20.455 38.725)"><path d="M319.131,178.673a.682.682,0,0,1-.682-.682v-2.185a.682.682,0,1,1,1.364,0v2.185A.682.682,0,0,1,319.131,178.673Z" transform="translate(-318.449 -175.125)"/></g><g transform="translate(29.589 36.276)"><path class="b" d="M333.621,174.79a.682.682,0,0,1-.591-.341l-1.093-1.891a.682.682,0,0,1,1.182-.682l1.092,1.891a.682.682,0,0,1-.59,1.023Z" transform="translate(-331.846 -171.534)"/></g><g transform="translate(36.277 29.589)"><path d="M344.228,164.183a.676.676,0,0,1-.34-.091L342,163a.682.682,0,0,1,.682-1.182l1.892,1.092a.682.682,0,0,1-.342,1.273Z" transform="translate(-341.655 -161.726)"/></g><g transform="translate(38.725 20.455)"><path class="b" d="M348.111,149.693h-2.185a.682.682,0,1,1,0-1.364h2.185a.682.682,0,1,1,0,1.364Z" transform="translate(-345.245 -148.329)"/></g><g transform="translate(36.277 10.227)"><path d="M342.337,135.784a.682.682,0,0,1-.342-1.272l1.892-1.092a.682.682,0,0,1,.682,1.182l-1.892,1.092A.676.676,0,0,1,342.337,135.784Z" transform="translate(-341.655 -133.328)"/></g><g transform="translate(29.589 2.74)"><path class="b" d="M332.528,125.6a.682.682,0,0,1-.59-1.023l1.092-1.891a.682.682,0,1,1,1.181.682l-1.092,1.891A.682.682,0,0,1,332.528,125.6Z" transform="translate(-331.846 -122.347)"/></g></g></g></svg>