<svg xmlns="http://www.w3.org/2000/svg" width="202.5" height="60" viewBox="0 0 202.5 60"><defs><style>.a{fill:#888}</style></defs><path class="a" d="M195 1.2a6.3 6.3 0 016.3 6.3v45a6.3 6.3 0 01-6.3 6.3H7.5a6.3 6.3 0 01-6.3-6.3v-45a6.3 6.3 0 016.3-6.3zm0-1.2H7.5A7.5 7.5 0 000 7.5v45A7.5 7.5 0 007.5 60H195a7.5 7.5 0 007.5-7.5v-45A7.5 7.5 0 00195 0z"/><path class="a" d="M48.169 28.97a8.283 8.283 0 013.946-6.952 8.482 8.482 0 00-6.682-3.613c-2.812-.3-5.539 1.682-6.97 1.682-1.461 0-3.667-1.654-6.043-1.6a8.9 8.9 0 00-7.489 4.568c-3.239 5.607-.823 13.847 2.279 18.379 1.553 2.219 3.366 4.7 5.74 4.611 2.322-.1 3.189-1.481 5.992-1.481 2.777 0 3.592 1.481 6.012 1.425 2.493-.039 4.062-2.229 5.56-4.469a18.357 18.357 0 002.543-5.178 8.007 8.007 0 01-4.888-7.372zm-4.573-13.547a8.158 8.158 0 001.867-5.844 8.3 8.3 0 00-5.371 2.779 7.757 7.757 0 00-1.915 5.628 6.862 6.862 0 005.419-2.563zM81.779 45.72h-3.246l-1.777-5.588h-6.18l-1.694 5.588h-3.16l6.123-19.02h3.782zm-5.559-7.931l-1.608-4.966q-.256-.762-.959-3.583h-.057q-.281 1.214-.9 3.583l-1.579 4.966zm21.305.904a7.8 7.8 0 01-1.891 5.53 5.53 5.53 0 01-4.2 1.806 4.2 4.2 0 01-3.894-1.946h-.057v7.224h-3.047V36.52q0-2.2-.113-4.515h2.679l.171 2.173h.057a5.421 5.421 0 018.677-.537 7.559 7.559 0 011.618 5.052zm-3.1.112a5.645 5.645 0 00-.9-3.3 3.119 3.119 0 00-2.652-1.356 3.17 3.17 0 00-2.046.748 3.468 3.468 0 00-1.2 1.962 4.02 4.02 0 00-.142.929v2.287a3.661 3.661 0 00.918 2.527 3.041 3.041 0 002.384 1.03 3.118 3.118 0 002.679-1.326 5.839 5.839 0 00.951-3.501zm18.875-.112a7.791 7.791 0 01-1.893 5.53 5.523 5.523 0 01-4.2 1.806 4.2 4.2 0 01-3.893-1.946h-.057v7.224h-3.047V36.52q0-2.2-.113-4.515h2.68l.17 2.173h.057a5.423 5.423 0 018.678-.537 7.578 7.578 0 011.618 5.052zm-3.105.112a5.638 5.638 0 00-.9-3.3 3.113 3.113 0 00-2.65-1.356 3.175 3.175 0 00-2.047.748 3.466 3.466 0 00-1.2 1.962 4.072 4.072 0 00-.142.929v2.287a3.672 3.672 0 00.915 2.527 3.046 3.046 0 002.387 1.03 3.118 3.118 0 002.679-1.326 5.839 5.839 0 00.958-3.501zm20.741 1.58a5.069 5.069 0 01-1.689 3.951 7.485 7.485 0 01-5.181 1.665 9.07 9.07 0 01-4.929-1.185l.706-2.54a8.353 8.353 0 004.4 1.215 4.165 4.165 0 002.683-.777 2.54 2.54 0 00.957-2.078 2.646 2.646 0 00-.79-1.949 7.333 7.333 0 00-2.624-1.471q-5-1.863-4.993-5.453a4.828 4.828 0 011.75-3.844 6.906 6.906 0 014.657-1.5 9.23 9.23 0 014.316.9l-.762 2.484a7.486 7.486 0 00-3.639-.875 3.683 3.683 0 00-2.51.79 2.255 2.255 0 00-.762 1.722 2.323 2.323 0 00.873 1.862 9.889 9.889 0 002.768 1.468 9.377 9.377 0 013.611 2.312 4.83 4.83 0 011.158 3.303zm10.074-6.093h-3.358v6.658q0 2.541 1.778 2.541a5.447 5.447 0 001.354-.142l.084 2.314a6.917 6.917 0 01-2.37.337 3.656 3.656 0 01-2.823-1.1 5.408 5.408 0 01-1.016-3.7v-6.913h-2V32h2v-2.512l2.993-.9v3.414h3.358zm15.154 4.458a7.519 7.519 0 01-1.807 5.192 6.448 6.448 0 01-5.025 2.089 6.134 6.134 0 01-4.809-2 7.294 7.294 0 01-1.792-5.051 7.447 7.447 0 011.848-5.219 6.4 6.4 0 014.979-2.033 6.263 6.263 0 014.854 2 7.211 7.211 0 011.752 5.022zm-3.161.1a6.168 6.168 0 00-.818-3.254 3.01 3.01 0 00-2.736-1.641 3.055 3.055 0 00-2.794 1.641 6.285 6.285 0 00-.818 3.311 6.161 6.161 0 00.818 3.253 3.114 3.114 0 005.5-.029 6.19 6.19 0 00.847-3.283zm13.066-4.165a5.337 5.337 0 00-.961-.084 2.88 2.88 0 00-2.483 1.215 4.568 4.568 0 00-.762 2.708v7.2h-3.047l.029-9.4q0-2.371-.114-4.318h2.654l.112 2.624h.084a4.69 4.69 0 011.523-2.172 3.683 3.683 0 012.2-.735 4.908 4.908 0 01.762.056zm13.627 3.529a7.134 7.134 0 01-.112 1.382h-9.142a3.977 3.977 0 001.327 3.106 4.53 4.53 0 002.99.959 10.1 10.1 0 003.7-.649l.478 2.115a11.436 11.436 0 01-4.6.847 6.662 6.662 0 01-5.011-1.877 6.931 6.931 0 01-1.819-5.036 7.856 7.856 0 011.7-5.164 5.839 5.839 0 014.8-2.2 5.111 5.111 0 014.489 2.2 7.421 7.421 0 011.2 4.317zm-2.906-.79a4.134 4.134 0 00-.592-2.343 2.661 2.661 0 00-2.428-1.27 2.892 2.892 0 00-2.425 1.242 4.549 4.549 0 00-.9 2.37h6.347zM75.213 14.999a4.691 4.691 0 01-1.512 3.8 6.012 6.012 0 01-3.977 1.178 18.282 18.282 0 01-2.191-.112v-9.191a16.181 16.181 0 012.579-.194 5.563 5.563 0 013.7 1.068 4.313 4.313 0 011.401 3.451zm-1.579.041a3.045 3.045 0 00-3.4-3.382 6.359 6.359 0 00-1.207.1v6.988a8.028 8.028 0 001.012.041 3.544 3.544 0 002.654-.956 3.832 3.832 0 00.943-2.791zm9.953 1.428a3.7 3.7 0 01-.888 2.551 3.166 3.166 0 01-2.468 1.027 3.01 3.01 0 01-2.363-.984 3.584 3.584 0 01-.879-2.482 3.662 3.662 0 01.908-2.564 3.146 3.146 0 012.447-1 3.08 3.08 0 012.385.983 3.556 3.556 0 01.858 2.469zm-1.554.049a3.048 3.048 0 00-.4-1.6 1.48 1.48 0 00-1.343-.806 1.5 1.5 0 00-1.373.806 3.085 3.085 0 00-.4 1.627 3.049 3.049 0 00.4 1.6 1.512 1.512 0 001.359.806 1.5 1.5 0 001.343-.82 3.028 3.028 0 00.414-1.618zm12.782-3.362l-2.108 6.738h-1.372l-.874-2.926a21.836 21.836 0 01-.541-2.177h-.027a15.958 15.958 0 01-.542 2.177l-.928 2.926h-1.388l-1.982-6.738h1.539l.761 3.2c.185.758.336 1.478.458 2.162h.027c.112-.563.3-1.281.556-2.148l.956-3.216h1.218l.916 3.147q.332 1.15.54 2.218h.041a21.444 21.444 0 01.458-2.218l.817-3.147h1.471zm7.764 6.737h-1.5v-3.859q0-1.785-1.358-1.784a1.352 1.352 0 00-1.082.49 1.741 1.741 0 00-.416 1.155v4h-1.5v-4.81q0-.887-.054-1.928h1.324l.07 1.054h.041a2.167 2.167 0 01.776-.814 2.532 2.532 0 011.357-.379 2.15 2.15 0 011.568.61 2.966 2.966 0 01.776 2.233zm4.131.001h-1.5v-9.829h1.5zm8.818-3.425a3.7 3.7 0 01-.888 2.551 3.166 3.166 0 01-2.468 1.027 3.007 3.007 0 01-2.363-.984 3.588 3.588 0 01-.879-2.482 3.661 3.661 0 01.908-2.564 3.149 3.149 0 012.446-1 3.085 3.085 0 012.387.983 3.556 3.556 0 01.857 2.469zm-1.555.049a3.048 3.048 0 00-.4-1.6 1.478 1.478 0 00-1.342-.806 1.5 1.5 0 00-1.373.806 3.093 3.093 0 00-.4 1.627 3.048 3.048 0 00.4 1.6 1.512 1.512 0 001.359.806 1.5 1.5 0 001.342-.82 3.02 3.02 0 00.417-1.618zm8.804 3.376h-1.345l-.11-.781h-.042a2.306 2.306 0 01-1.968.929 2.031 2.031 0 01-1.538-.61 1.914 1.914 0 01-.528-1.373 2.092 2.092 0 011.033-1.884 5.358 5.358 0 012.906-.637v-.125q0-1.332-1.4-1.331a3.135 3.135 0 00-1.756.5l-.3-.983a4.321 4.321 0 012.311-.581q2.641 0 2.644 2.787v2.481a10.475 10.475 0 00.093 1.608zm-1.555-2.316v-1.039q-2.478-.044-2.478 1.357a1.017 1.017 0 00.287.79 1.046 1.046 0 00.732.263 1.513 1.513 0 00.916-.312 1.278 1.278 0 00.543-1.06zm10.065 2.316h-1.329l-.069-1.082h-.042a2.239 2.239 0 01-2.164 1.235 2.533 2.533 0 01-2.023-.956 3.724 3.724 0 01-.8-2.481 3.9 3.9 0 01.873-2.648 2.687 2.687 0 012.08-.944 2.018 2.018 0 011.9.915h.029v-3.867h1.5v8.014q-.007.982.045 1.814zm-1.552-2.842v-1.123a2.2 2.2 0 00-.042-.472 1.7 1.7 0 00-.541-.907 1.473 1.473 0 00-1-.368 1.538 1.538 0 00-1.318.666 2.855 2.855 0 00-.48 1.705 2.658 2.658 0 00.46 1.622 1.541 1.541 0 001.309.665 1.444 1.444 0 001.184-.554 1.849 1.849 0 00.429-1.234zm14.363-.583a3.7 3.7 0 01-.888 2.551 3.165 3.165 0 01-2.469 1.027 3.015 3.015 0 01-2.363-.984 3.588 3.588 0 01-.879-2.482 3.661 3.661 0 01.907-2.564 3.148 3.148 0 012.449-1 3.075 3.075 0 012.383.983 3.556 3.556 0 01.86 2.469zm-1.552.049a3.047 3.047 0 00-.4-1.6 1.482 1.482 0 00-1.345-.806 1.506 1.506 0 00-1.373.806 3.085 3.085 0 00-.4 1.627 3.049 3.049 0 00.4 1.6 1.512 1.512 0 001.359.806 1.5 1.5 0 001.344-.82 3.038 3.038 0 00.415-1.618zm9.605 3.375h-1.5v-3.859q0-1.785-1.359-1.784a1.349 1.349 0 00-1.081.49 1.736 1.736 0 00-.415 1.155v4h-1.5v-4.81q0-.887-.052-1.928h1.315l.069 1.054h.042a2.187 2.187 0 01.775-.814 2.541 2.541 0 011.359-.379 2.152 2.152 0 011.567.61 2.963 2.963 0 01.776 2.233zm10.08-5.615h-1.65v3.273c0 .832.293 1.248.874 1.248a2.607 2.607 0 00.667-.07l.039 1.136a3.363 3.363 0 01-1.164.168 1.788 1.788 0 01-1.385-.541 2.639 2.639 0 01-.5-1.816v-3.4h-.984v-1.12h.984V11.92l1.468-.443v1.676h1.649v1.123zm7.93 5.616h-1.5v-3.831q0-1.811-1.357-1.812a1.429 1.429 0 00-1.429 1.051 1.855 1.855 0 00-.07.538v4.052h-1.5v-9.827h1.5v4.06h.029a2.264 2.264 0 012.023-1.108 2.09 2.09 0 011.541.61 3.072 3.072 0 01.761 2.26zm8.18-3.687a3.634 3.634 0 01-.055.679h-4.492a1.962 1.962 0 00.651 1.524 2.226 2.226 0 001.47.472 4.946 4.946 0 001.817-.319l.234 1.041a5.634 5.634 0 01-2.261.416 3.265 3.265 0 01-2.459-.922 3.4 3.4 0 01-.893-2.474 3.855 3.855 0 01.832-2.537 2.863 2.863 0 012.355-1.081 2.506 2.506 0 012.2 1.081 3.6 3.6 0 01.601 2.12zm-1.43-.388a2.014 2.014 0 00-.29-1.15 1.309 1.309 0 00-1.192-.624 1.421 1.421 0 00-1.192.61 2.27 2.27 0 00-.444 1.164z"/></svg>