<svg xmlns="http://www.w3.org/2000/svg" width="91" height="91" viewBox="0 0 91 91"><defs><style>.a{fill:none;stroke:#f5f5f5;}.b{fill:#00adef;}</style></defs><g transform="translate(-1097.619 -1236.866)"><circle class="a" cx="45" cy="45" r="45" transform="translate(1098.119 1237.366)"/><g transform="translate(1108.235 1258.85)"><path d="M1124.119,1274.579a8.1,8.1,0,1,0-8.1-8.1A8.111,8.111,0,0,0,1124.119,1274.579Zm6.058-8.1a6.058,6.058,0,1,1-6.058-6.058A6.065,6.065,0,0,1,1130.177,1266.476Z" transform="translate(-1107.828 -1258.373)"/><path d="M1127.9,1291.917h-14.8a3.073,3.073,0,0,1-2.5-1.295,2.813,2.813,0,0,1-.389-2.579,14.926,14.926,0,0,1,25.1-5.2,15.619,15.619,0,0,1,1.933-.892,16.964,16.964,0,0,0-28.962,5.426,4.842,4.842,0,0,0,.653,4.438,5.127,5.127,0,0,0,4.166,2.153h14.33A15.531,15.531,0,0,1,1127.9,1291.917Z" transform="translate(-1108.01 -1257.973)"/><path d="M1177.346,1287.1a16.971,16.971,0,0,0-29.083-4.9,15.589,15.589,0,0,1,1.847.971,14.932,14.932,0,0,1,25.315,4.636,3.054,3.054,0,0,1-.359,2.836,2.951,2.951,0,0,1-2.452,1.275h-15.641a15.549,15.549,0,0,1,.468,2.046h15.172a4.971,4.971,0,0,0,4.128-2.15A5.14,5.14,0,0,0,1177.346,1287.1Z" transform="translate(-1107.095 -1257.973)"/><path d="M1161.264,1274.579a8.1,8.1,0,1,0-8.1-8.1A8.112,8.112,0,0,0,1161.264,1274.579Zm0-14.161a6.058,6.058,0,1,1-6.059,6.058A6.065,6.065,0,0,1,1161.264,1260.418Z" transform="translate(-1106.984 -1258.373)"/><path class="b" d="M1152.935,1292.782h-.768c-.092-.25-.193-.494-.3-.733l.542-.543a1.951,1.951,0,0,0,0-2.756l-2.359-2.359a2,2,0,0,0-2.758,0l-.53.53c-.245-.112-.493-.217-.746-.311v-.748a1.951,1.951,0,0,0-1.949-1.949h-3.338a1.952,1.952,0,0,0-1.949,1.949v.724q-.39.143-.764.314l-.51-.509a1.949,1.949,0,0,0-2.757,0l-2.36,2.359a1.952,1.952,0,0,0,0,2.756l.5.5c-.118.254-.225.513-.322.776h-.706a1.952,1.952,0,0,0-1.949,1.949v3.337a1.953,1.953,0,0,0,1.949,1.95h.706q.146.394.322.775l-.5.5a1.953,1.953,0,0,0,0,2.756l2.362,2.361a1.955,1.955,0,0,0,2.756,0l.51-.51c.25.115.505.219.764.313v.725a1.953,1.953,0,0,0,1.949,1.95h3.338a1.952,1.952,0,0,0,1.949-1.95v-.749c.252-.094.5-.2.746-.311l.53.532a1.951,1.951,0,0,0,2.757,0l2.361-2.361a1.953,1.953,0,0,0,0-2.755l-.543-.543c.109-.24.211-.484.3-.732h.768a1.952,1.952,0,0,0,1.949-1.95v-3.337A1.951,1.951,0,0,0,1152.935,1292.782Zm-.1,5.191h-1.413a1.023,1.023,0,0,0-.983.74,8.289,8.289,0,0,1-.719,1.742,1.024,1.024,0,0,0,.172,1.219l1,1-2.225,2.224-.988-.989a1.027,1.027,0,0,0-1.222-.17,8.305,8.305,0,0,1-1.75.731,1.024,1.024,0,0,0-.739.983v1.392h-3.146v-1.372a1.022,1.022,0,0,0-.743-.984,8.446,8.446,0,0,1-1.772-.727,1.018,1.018,0,0,0-1.217.172l-.967.964-2.223-2.224.956-.956a1.023,1.023,0,0,0,.17-1.222,8.3,8.3,0,0,1-.74-1.78,1.023,1.023,0,0,0-.983-.74h-1.351v-3.146h1.351a1.023,1.023,0,0,0,.983-.742,8.315,8.315,0,0,1,.74-1.779,1.024,1.024,0,0,0-.17-1.223l-.956-.955,2.223-2.224.967.965a1.021,1.021,0,0,0,1.218.172,8.3,8.3,0,0,1,1.771-.726,1.023,1.023,0,0,0,.744-.985v-1.372h3.146v1.39a1.022,1.022,0,0,0,.737.982,8.331,8.331,0,0,1,1.752.732,1.023,1.023,0,0,0,1.222-.17l.988-.988,2.225,2.224-1,1a1.024,1.024,0,0,0-.172,1.219,8.339,8.339,0,0,1,.719,1.743,1.022,1.022,0,0,0,.983.741h1.413Z" transform="translate(-1107.513 -1257.793)"/><path class="b" d="M1142.244,1290.571a5.677,5.677,0,1,0,5.678,5.678A5.684,5.684,0,0,0,1142.244,1290.571Zm0,9.309a3.632,3.632,0,1,1,3.633-3.631A3.635,3.635,0,0,1,1142.244,1299.88Z" transform="translate(-1107.361 -1257.641)"/><circle class="b" cx="1.023" cy="1.023" r="1.023" transform="translate(33.862 8.594)"/><circle class="b" cx="1.023" cy="1.023" r="1.023" transform="translate(33.862 2.457)"/><circle class="b" cx="1.023" cy="1.023" r="1.023" transform="translate(33.862 14.73)"/><path class="b" d="M1142.156,1280.818a1.023,1.023,0,1,0-.027,0l.013,0Z" transform="translate(-1107.258 -1257.909)"/></g></g></svg>