<svg xmlns="http://www.w3.org/2000/svg" width="162" height="48" viewBox="0 0 162 48"><defs><style>.a{fill:#fff}</style></defs><path class="a" d="M156 .96A5.039 5.039 0 01161.04 6v36a5.039 5.039 0 01-5.04 5.04H6A5.041 5.041 0 01.96 42V6A5.041 5.041 0 016 .96zm0-.96H6a6 6 0 00-6 6v36a6 6 0 006 6h150a6 6 0 006-6V6a6 6 0 00-6-6z"/><path class="a" d="M38.536 23.18a6.627 6.627 0 013.157-5.561 6.786 6.786 0 00-5.346-2.891c-2.249-.237-4.431 1.346-5.576 1.346-1.169 0-2.933-1.323-4.835-1.284a7.118 7.118 0 00-5.991 3.654c-2.591 4.486-.658 11.077 1.823 14.7 1.242 1.775 2.693 3.758 4.592 3.688 1.858-.077 2.552-1.185 4.794-1.185 2.222 0 2.873 1.185 4.81 1.14 1.994-.032 3.25-1.784 4.448-3.575a14.686 14.686 0 002.034-4.142 6.405 6.405 0 01-3.91-5.89zm-3.659-10.841a6.526 6.526 0 001.493-4.676 6.641 6.641 0 00-4.3 2.223 6.206 6.206 0 00-1.532 4.5 5.49 5.49 0 004.339-2.047zm30.547 24.237h-2.6l-1.423-4.47h-4.943l-1.355 4.47h-2.528l4.9-15.216h3.026zm-4.448-6.345l-1.286-3.973q-.2-.61-.767-2.866h-.046q-.225.971-.723 2.866l-1.263 3.973zm17.044.723a6.239 6.239 0 01-1.513 4.424 4.424 4.424 0 01-3.364 1.445 3.363 3.363 0 01-3.116-1.557h-.046v5.779h-2.437V29.22q0-1.761-.091-3.612h2.144l.136 1.739h.046a4.337 4.337 0 016.941-.43 6.047 6.047 0 011.3 4.037zm-2.484.089a4.516 4.516 0 00-.722-2.641 2.5 2.5 0 00-2.122-1.085 2.536 2.536 0 00-1.636.6 2.774 2.774 0 00-.959 1.57 3.215 3.215 0 00-.113.743v1.829a2.929 2.929 0 00.734 2.021 2.433 2.433 0 001.907.824 2.5 2.5 0 002.144-1.06 4.671 4.671 0 00.767-2.8zm15.104-.089a6.233 6.233 0 01-1.514 4.424 4.418 4.418 0 01-3.362 1.445 3.361 3.361 0 01-3.115-1.557h-.046v5.779h-2.437V29.22q0-1.761-.091-3.612h2.144l.136 1.739h.046a4.339 4.339 0 016.943-.43 6.062 6.062 0 011.296 4.037zm-2.484.089a4.51 4.51 0 00-.724-2.641 2.49 2.49 0 00-2.12-1.085 2.54 2.54 0 00-1.638.6 2.772 2.772 0 00-.958 1.57 3.257 3.257 0 00-.113.743v1.829a2.938 2.938 0 00.732 2.021 2.437 2.437 0 001.909.824 2.5 2.5 0 002.144-1.06 4.671 4.671 0 00.768-2.8zm16.592 1.265a4.055 4.055 0 01-1.352 3.16 5.988 5.988 0 01-4.144 1.332 7.256 7.256 0 01-3.943-.948l.565-2.032a6.683 6.683 0 003.524.972 3.332 3.332 0 002.146-.622 2.032 2.032 0 00.766-1.663 2.117 2.117 0 00-.632-1.559 5.866 5.866 0 00-2.1-1.177q-4-1.491-3.995-4.363a3.862 3.862 0 011.4-3.075 5.525 5.525 0 013.725-1.2 7.385 7.385 0 013.453.722l-.61 1.988a5.989 5.989 0 00-2.911-.7 2.946 2.946 0 00-2.008.632 1.8 1.8 0 00-.61 1.378 1.858 1.858 0 00.7 1.49 7.911 7.911 0 002.214 1.174 7.5 7.5 0 012.889 1.85 3.864 3.864 0 01.923 2.641zm8.06-4.875h-2.687v5.323q0 2.033 1.422 2.033a4.357 4.357 0 001.083-.113l.068 1.851a5.534 5.534 0 01-1.9.27 2.925 2.925 0 01-2.258-.88 4.326 4.326 0 01-.813-2.958v-5.53h-1.6V25.6h1.6v-2.009l2.395-.722V25.6h2.687zM124.931 31a6.015 6.015 0 01-1.445 4.154 5.159 5.159 0 01-4.02 1.671 4.907 4.907 0 01-3.847-1.6 5.835 5.835 0 01-1.433-4.041 5.958 5.958 0 011.478-4.175 5.116 5.116 0 013.983-1.626 5.01 5.01 0 013.883 1.6A5.768 5.768 0 01124.931 31zm-2.529.079a4.934 4.934 0 00-.654-2.6 2.408 2.408 0 00-2.189-1.312 2.444 2.444 0 00-2.235 1.313 5.028 5.028 0 00-.654 2.649 4.929 4.929 0 00.654 2.6 2.491 2.491 0 004.4-.023 4.952 4.952 0 00.678-2.628zm10.453-3.332a4.269 4.269 0 00-.769-.068 2.3 2.3 0 00-1.987.972 3.654 3.654 0 00-.61 2.167v5.757h-2.437l.023-7.517q0-1.9-.091-3.455h2.126l.089 2.1h.067a3.752 3.752 0 011.219-1.738 2.947 2.947 0 011.762-.588 3.925 3.925 0 01.61.045zm10.902 2.824a5.708 5.708 0 01-.089 1.106h-7.313a3.181 3.181 0 001.061 2.485 3.624 3.624 0 002.392.767 8.083 8.083 0 002.959-.519l.383 1.692a9.148 9.148 0 01-3.679.678 5.329 5.329 0 01-4.009-1.5 5.545 5.545 0 01-1.455-4.029 6.285 6.285 0 011.356-4.131 4.672 4.672 0 013.836-1.759 4.089 4.089 0 013.591 1.759 5.936 5.936 0 01.967 3.451zm-2.325-.632a3.307 3.307 0 00-.473-1.874 2.129 2.129 0 00-1.943-1.016 2.313 2.313 0 00-1.94.994 3.639 3.639 0 00-.721 1.9h5.077zM60.17 12a3.753 3.753 0 01-1.21 3.039 4.81 4.81 0 01-3.182.942 14.627 14.627 0 01-1.753-.089V8.539a12.944 12.944 0 012.063-.155 4.45 4.45 0 012.962.854A3.45 3.45 0 0160.17 12zm-1.263.033a2.436 2.436 0 00-2.718-2.706 5.089 5.089 0 00-.965.077v5.591a6.421 6.421 0 00.81.033 2.835 2.835 0 002.123-.765 3.066 3.066 0 00.75-2.23zm7.963 1.142a2.957 2.957 0 01-.71 2.041 2.533 2.533 0 01-1.975.821 2.408 2.408 0 01-1.891-.787 2.867 2.867 0 01-.7-1.985 2.929 2.929 0 01.726-2.051 2.517 2.517 0 011.957-.8 2.464 2.464 0 011.908.787 2.845 2.845 0 01.685 1.974zm-1.244.039a2.438 2.438 0 00-.321-1.279 1.184 1.184 0 00-1.075-.645 1.2 1.2 0 00-1.1.645 2.468 2.468 0 00-.321 1.3 2.439 2.439 0 00.321 1.279 1.21 1.21 0 001.087.645 1.2 1.2 0 001.075-.656 2.422 2.422 0 00.335-1.289zm10.231-2.69l-1.687 5.39h-1.1l-.7-2.341a17.477 17.477 0 01-.433-1.742h-.022a12.767 12.767 0 01-.433 1.742l-.742 2.341h-1.11l-1.585-5.39h1.231l.609 2.563c.148.606.268 1.183.366 1.729h.022a19.2 19.2 0 01.445-1.718l.765-2.573h.974l.733 2.518q.266.92.432 1.774h.033a17.17 17.17 0 01.366-1.774l.654-2.518h1.182zm6.206 5.386h-1.2v-3.087q0-1.428-1.086-1.427a1.081 1.081 0 00-.866.392 1.393 1.393 0 00-.333.924v3.2h-1.2v-3.848q0-.71-.044-1.543h1.053l.056.843h.033a1.734 1.734 0 01.621-.651 2.026 2.026 0 011.086-.3 1.72 1.72 0 011.254.488 2.373 2.373 0 01.621 1.786zm3.305.004h-1.2V8.051h1.2zm7.054-2.739a2.957 2.957 0 01-.71 2.041 2.533 2.533 0 01-1.975.821 2.4 2.4 0 01-1.891-.787 2.871 2.871 0 01-.7-1.985 2.929 2.929 0 01.726-2.051 2.519 2.519 0 011.957-.8 2.468 2.468 0 011.909.787 2.845 2.845 0 01.684 1.974zm-1.244.039a2.438 2.438 0 00-.321-1.279 1.183 1.183 0 00-1.074-.645 1.2 1.2 0 00-1.1.645 2.474 2.474 0 00-.321 1.3 2.439 2.439 0 00.321 1.279 1.21 1.21 0 001.088.645 1.2 1.2 0 001.074-.656 2.416 2.416 0 00.333-1.289zm7.043 2.701h-1.076l-.089-.621h-.034a1.845 1.845 0 01-1.574.743 1.624 1.624 0 01-1.23-.488 1.532 1.532 0 01-.422-1.1 1.674 1.674 0 01.827-1.508 4.287 4.287 0 012.325-.51v-.1q0-1.065-1.12-1.065a2.508 2.508 0 00-1.4.4l-.244-.787a3.457 3.457 0 011.849-.465q2.113 0 2.115 2.23v1.984a8.38 8.38 0 00.073 1.287zm-1.244-1.852v-.831q-1.982-.035-1.982 1.086a.813.813 0 00.229.632.837.837 0 00.586.211 1.21 1.21 0 00.733-.25 1.023 1.023 0 00.434-.848zm8.053 1.851h-1.063l-.056-.866h-.034a1.791 1.791 0 01-1.731.988 2.027 2.027 0 01-1.618-.765 2.979 2.979 0 01-.643-1.984 3.123 3.123 0 01.7-2.119 2.149 2.149 0 011.664-.755 1.615 1.615 0 011.518.732h.023V8.051h1.2v6.411q-.002.786.04 1.452zm-1.241-2.273v-.9a1.758 1.758 0 00-.034-.377 1.364 1.364 0 00-.433-.726 1.178 1.178 0 00-.8-.294 1.23 1.23 0 00-1.054.532 2.284 2.284 0 00-.384 1.364 2.127 2.127 0 00.368 1.3 1.233 1.233 0 001.047.532 1.155 1.155 0 00.947-.443 1.479 1.479 0 00.343-.988zm11.489-.466a2.957 2.957 0 01-.71 2.041 2.532 2.532 0 01-1.975.821 2.412 2.412 0 01-1.891-.787 2.871 2.871 0 01-.7-1.985 2.929 2.929 0 01.726-2.051 2.518 2.518 0 011.959-.8 2.46 2.46 0 011.906.787 2.845 2.845 0 01.685 1.974zm-1.242.039a2.438 2.438 0 00-.321-1.279 1.186 1.186 0 00-1.076-.645 1.205 1.205 0 00-1.1.645 2.468 2.468 0 00-.321 1.3 2.439 2.439 0 00.321 1.279 1.21 1.21 0 001.087.645 1.2 1.2 0 001.076-.656 2.43 2.43 0 00.334-1.289zm7.686 2.696h-1.2v-3.087q0-1.428-1.087-1.427a1.079 1.079 0 00-.865.392 1.389 1.389 0 00-.332.924v3.2h-1.2v-3.848q0-.71-.042-1.543h1.052l.056.843h.035a1.749 1.749 0 01.62-.651 2.033 2.033 0 011.087-.3 1.722 1.722 0 011.253.488 2.37 2.37 0 01.621 1.786zm8.063-4.491h-1.32v2.618c0 .665.235 1 .7 1a2.085 2.085 0 00.534-.056l.031.909a2.69 2.69 0 01-.931.134 1.43 1.43 0 01-1.108-.433 2.111 2.111 0 01-.4-1.453v-2.719h-.787v-.9h.787v-.988l1.175-.354v1.342h1.319v.9zm6.344 4.495h-1.2v-3.065q0-1.449-1.085-1.45a1.143 1.143 0 00-1.143.841 1.484 1.484 0 00-.056.43v3.242h-1.2V8.051h1.2v3.245h.023a1.812 1.812 0 011.619-.886 1.672 1.672 0 011.233.488 2.458 2.458 0 01.609 1.808zm6.544-2.949a2.909 2.909 0 01-.044.543h-3.594a1.569 1.569 0 00.52 1.219 1.781 1.781 0 001.176.377 3.956 3.956 0 001.454-.255l.188.833a4.507 4.507 0 01-1.809.333 2.612 2.612 0 01-1.967-.737 2.716 2.716 0 01-.715-1.979 3.084 3.084 0 01.665-2.029 2.29 2.29 0 011.884-.865 2 2 0 011.762.865 2.879 2.879 0 01.48 1.695zm-1.144-.31a1.611 1.611 0 00-.232-.92 1.047 1.047 0 00-.953-.5 1.137 1.137 0 00-.954.488 1.816 1.816 0 00-.355.932z"/></svg>