<svg xmlns="http://www.w3.org/2000/svg" width="91" height="91" viewBox="0 0 91 91"><defs><style>.a{fill:none;stroke:#f5f5f5;}.b{fill:#00adef;}</style></defs><g transform="translate(-141.295 -104.829)"><circle class="a" cx="45" cy="45" r="45" transform="translate(141.795 105.329)"/><g transform="translate(154.054 123.82)"><path d="M217.41,123.409H191.346a1.023,1.023,0,0,0-1.023,1.023v9.255h2.045v-8.232h24.019V135.49h-16.64v2.045h3.607v23.272h-3.607v2.045h15.112v1.25H199.747v2.045h16.135a1.022,1.022,0,0,0,1.023-1.023v-2.273h.505a1.023,1.023,0,0,0,1.023-1.023v-37.4A1.023,1.023,0,0,0,217.41,123.409Zm-1.023,37.4H205.4V154.4h10.987Zm0-8.456H205.4v-6.36h10.987Zm0-8.406H205.4v-6.41h10.987Z" transform="translate(-152.952 -123.409)"/><path d="M207.548,142.662a.512.512,0,0,0,.511-.511v-3.49a.511.511,0,1,0-1.023,0v3.49A.512.512,0,0,0,207.548,142.662Z" transform="translate(-152.572 -123.074)"/><path d="M210.448,142.662a.512.512,0,0,0,.511-.511v-3.49a.511.511,0,1,0-1.023,0v3.49A.511.511,0,0,0,210.448,142.662Z" transform="translate(-152.506 -123.074)"/><path d="M213.347,142.662a.512.512,0,0,0,.511-.511v-3.49a.511.511,0,0,0-1.023,0v3.49A.512.512,0,0,0,213.347,142.662Z" transform="translate(-152.44 -123.074)"/><path d="M207.548,150.905a.512.512,0,0,0,.511-.511v-3.489a.511.511,0,1,0-1.023,0v3.489A.512.512,0,0,0,207.548,150.905Z" transform="translate(-152.572 -122.887)"/><path d="M210.448,150.905a.512.512,0,0,0,.511-.511v-3.489a.511.511,0,0,0-1.023,0v3.489A.511.511,0,0,0,210.448,150.905Z" transform="translate(-152.506 -122.887)"/><path d="M213.347,150.905a.512.512,0,0,0,.511-.511v-3.489a.511.511,0,0,0-1.023,0v3.489A.512.512,0,0,0,213.347,150.905Z" transform="translate(-152.44 -122.887)"/><path d="M207.548,159.148a.511.511,0,0,0,.511-.511v-3.489a.511.511,0,0,0-1.023,0v3.489A.511.511,0,0,0,207.548,159.148Z" transform="translate(-152.572 -122.699)"/><path d="M210.448,159.148a.511.511,0,0,0,.511-.511v-3.489a.511.511,0,0,0-1.023,0v3.489A.51.51,0,0,0,210.448,159.148Z" transform="translate(-152.506 -122.699)"/><path d="M213.347,159.148a.511.511,0,0,0,.511-.511v-3.489a.511.511,0,0,0-1.023,0v3.489A.511.511,0,0,0,213.347,159.148Z" transform="translate(-152.44 -122.699)"/><path d="M211.139,128.734H213.4a.511.511,0,1,0,0-1.023h-2.258a.511.511,0,0,0,0,1.023Z" transform="translate(-152.49 -123.311)"/><path d="M200.083,128.734h9.179a.511.511,0,0,0,0-1.023h-9.179a.511.511,0,1,0,0,1.023Z" transform="translate(-152.741 -123.311)"/><path d="M157.354,164.1v-1.25h15.114v-2.045h-3.609V154.4h3.609v-2.045h-3.609v-6.36h3.609v-2.045h-3.609v-6.41h3.609V135.49H155.827V125.454h24.02v8.232h2.045v-9.255a1.023,1.023,0,0,0-1.023-1.023H154.8a1.022,1.022,0,0,0-1.023,1.023v37.4a1.022,1.022,0,0,0,1.023,1.023h.5v2.273a1.022,1.022,0,0,0,1.023,1.023h16.137V164.1Zm-1.527-3.3V137.536h10.986v23.272H155.827Z" transform="translate(-153.782 -123.409)"/><path d="M171.008,142.662a.512.512,0,0,0,.511-.511v-3.49a.511.511,0,1,0-1.023,0v3.49A.512.512,0,0,0,171.008,142.662Z" transform="translate(-153.402 -123.074)"/><path d="M171.008,150.905a.512.512,0,0,0,.511-.511v-3.489a.511.511,0,1,0-1.023,0v3.489A.512.512,0,0,0,171.008,150.905Z" transform="translate(-153.402 -122.887)"/><path d="M171.008,159.148a.511.511,0,0,0,.511-.511v-3.489a.511.511,0,0,0-1.023,0v3.489A.511.511,0,0,0,171.008,159.148Z" transform="translate(-153.402 -122.699)"/><path d="M176.857,127.711H174.6a.511.511,0,1,0,0,1.023h2.257a.511.511,0,1,0,0-1.023Z" transform="translate(-153.32 -123.311)"/><path d="M172.722,127.711h-9.179a.511.511,0,0,0,0,1.023h9.179a.511.511,0,1,0,0-1.023Z" transform="translate(-153.572 -123.311)"/><path class="b" d="M200.163,163.474V134.481a1.022,1.022,0,0,0-1.023-1.023H173.076a1.022,1.022,0,0,0-1.023,1.023v37.4a1.022,1.022,0,0,0,1.023,1.023h.5v2.274A1.022,1.022,0,0,0,174.6,176.2h23.01a1.022,1.022,0,0,0,1.023-1.023V172.9h.5a1.022,1.022,0,0,0,1.023-1.023v-8.4ZM174.1,170.856V147.584h10.986v23.272H174.1Zm22.492,3.3H175.625V172.9H196.59Zm1.527-3.3H187.13v-6.41h10.987Zm0-8.456H187.13v-6.359h10.987Zm0-8.4H187.13v-6.411h10.987Zm0-8.457H174.1V135.5h24.019Z" transform="translate(-153.367 -123.181)"/><path class="b" d="M189.278,152.71a.512.512,0,0,0,.511-.511V148.71a.511.511,0,1,0-1.023,0V152.2A.511.511,0,0,0,189.278,152.71Z" transform="translate(-152.987 -122.846)"/><path class="b" d="M192.177,152.71a.512.512,0,0,0,.511-.511V148.71a.511.511,0,1,0-1.023,0V152.2A.512.512,0,0,0,192.177,152.71Z" transform="translate(-152.921 -122.846)"/><path class="b" d="M195.076,152.71a.511.511,0,0,0,.511-.511V148.71a.511.511,0,1,0-1.023,0V152.2A.512.512,0,0,0,195.076,152.71Z" transform="translate(-152.855 -122.846)"/><path class="b" d="M189.278,160.954a.512.512,0,0,0,.511-.511v-3.49a.511.511,0,1,0-1.023,0v3.49A.511.511,0,0,0,189.278,160.954Z" transform="translate(-152.987 -122.658)"/><path class="b" d="M192.177,160.954a.512.512,0,0,0,.511-.511v-3.49a.511.511,0,1,0-1.023,0v3.49A.512.512,0,0,0,192.177,160.954Z" transform="translate(-152.921 -122.658)"/><path class="b" d="M195.076,160.954a.511.511,0,0,0,.511-.511v-3.49a.511.511,0,0,0-1.023,0v3.49A.512.512,0,0,0,195.076,160.954Z" transform="translate(-152.855 -122.658)"/><path class="b" d="M189.278,169.2a.512.512,0,0,0,.511-.511V165.2a.511.511,0,1,0-1.023,0v3.489A.511.511,0,0,0,189.278,169.2Z" transform="translate(-152.987 -122.471)"/><path class="b" d="M192.177,169.2a.512.512,0,0,0,.511-.511V165.2a.511.511,0,1,0-1.023,0v3.489A.512.512,0,0,0,192.177,169.2Z" transform="translate(-152.921 -122.471)"/><path class="b" d="M195.076,169.2a.511.511,0,0,0,.511-.511V165.2a.511.511,0,0,0-1.023,0v3.489A.512.512,0,0,0,195.076,169.2Z" transform="translate(-152.855 -122.471)"/><path class="b" d="M192.868,138.783h2.258a.511.511,0,0,0,0-1.023h-2.258a.511.511,0,0,0,0,1.023Z" transform="translate(-152.905 -123.083)"/><path class="b" d="M181.813,138.783h9.178a.511.511,0,1,0,0-1.023h-9.178a.511.511,0,1,0,0,1.023Z" transform="translate(-153.157 -123.083)"/></g></g></svg>