<svg xmlns="http://www.w3.org/2000/svg" width="90" height="90" viewBox="0 0 90 90"><g transform="translate(-556.041 -1237.366)"><circle cx="45" cy="45" r="45" transform="translate(556.041 1237.366)" fill="#fff"/><path d="M607.714 1261.325h1.768a1.024 1.024 0 001.023-1.023v-2.651h-18.928v2.652a1.024 1.024 0 001.023 1.023h15.114zm-5.001 28.736h-3.345l1.673 11.149zm4.075-26.691h-11.494l-1.7 17.02h14.9zm5.484 19.064H589.81a2.048 2.048 0 00-2.045 2.046v3.536h26.552v-3.536a2.048 2.048 0 00-2.045-2.046z" fill="none"/><path d="M601.041 1301.211l-1.673-11.15H597.3l2.73 18.2a1.023 1.023 0 002.023 0l2.729-18.2h-2.065z"/><path d="M612.272 1280.389h-1.725l-1.7-17.019h.637a3.072 3.072 0 003.068-3.068v-3.675a1.022 1.022 0 00-1.023-1.023h-20.975a1.022 1.022 0 00-1.023 1.023v3.675a3.072 3.072 0 003.068 3.068h.638l-1.7 17.019h-1.724a4.1 4.1 0 00-4.091 4.091v4.558a1.022 1.022 0 001.023 1.023h28.6a1.022 1.022 0 001.023-1.023v-4.558a4.094 4.094 0 00-4.096-4.091zm-20.695-20.084v-2.652h18.928v2.652a1.024 1.024 0 01-1.023 1.023H592.6a1.024 1.024 0 01-1.023-1.023zm3.717 3.068h11.494l1.7 17.019h-14.9zm19.024 24.646h-26.553v-3.536a2.048 2.048 0 012.045-2.046h22.461a2.048 2.048 0 012.045 2.046z" fill="#00adef"/></g></svg>