<svg xmlns="http://www.w3.org/2000/svg" width="570" height="400" viewBox="0 0 570 400"><defs><style>.a{fill:#1a1818}</style></defs><path class="a" d="M153.241 319.055h-.645a81.172 81.172 0 01-9.76-161.749 63.04 63.04 0 0177.006-50.271 92.154 92.154 0 01154.246 44.653 57.584 57.584 0 0171.25 51.535 57.609 57.609 0 01-2.733 115.023l-1.537.038-1.033-.021c-2.682.011-281.505.792-286.794.792zm51.667-204.7a53.891 53.891 0 00-53.542 47.666l-.435 3.741-3.759.28a72.049 72.049 0 005.424 143.889h.662c5.448.231 284.082-.774 286.89-.784l.927.021 1.4-.028a48.5 48.5 0 00-1.53-96.966h-4.56v-4.56a48.447 48.447 0 00-64.269-45.839l-5.05 1.741-.933-5.248a83.034 83.034 0 00-141.626-42.992l-1.9 1.983-2.646-.763a54.142 54.142 0 00-15.053-2.137z"/><path class="a" d="M168.531 269.467a11.69 11.69 0 004.129-2.812 13.925 13.925 0 003.585-9.379 13.541 13.541 0 00-.96-5.206 13.062 13.062 0 00-2.625-4.19 12.762 12.762 0 00-4.129-2.871 14.168 14.168 0 00-5.379-1.009h-7.593v26.548h7.593a13.087 13.087 0 005.379-1.081m-5.379-33.427a22.769 22.769 0 018.55 1.613 22.213 22.213 0 016.937 4.549 21.331 21.331 0 014.66 6.754 21.459 21.459 0 010 16.627 21.372 21.372 0 01-4.66 6.754 21.02 21.02 0 01-6.937 4.487 21.65 21.65 0 01-8.55 1.668h-16.264V236.04zm72.676.002h8.67v42.454h-8.67zm49.086 25.806c-1.258 4.875-4.764 9-11.694 9-9.048 0-11.935-7.005-11.935-13.573s2.887-13.576 11.935-13.576c6.93 0 10.436 4.121 11.694 9h8.878c-1.735-10.429-9.435-17.366-20.248-17.366-12.326 0-21.263 9.023-21.263 21.943s8.937 21.947 21.263 21.947c10.813 0 18.513-6.944 20.248-17.37zm62.258-25.806h8.67v42.454h-8.67zm-37.397-.001v17.25h19.072v-17.25h8.67v42.454h-8.67v-17.606h-19.072v17.607h-8.67v-42.455zM125.743 253.63a5.33 5.33 0 115.327-5.337 5.334 5.334 0 01-5.327 5.337m0-18.305a12.972 12.972 0 1012.972 12.968 12.97 12.97 0 00-12.972-12.968m72.089 27h20.691v7.478h-20.691z"/><path class="a" d="M201.336 236.041l-14.616 42.454h9.2l14.055-42.454z"/><path class="a" d="M206.028 236.041l13.919 42.454h9.206l-14.495-42.454z"/><path fill="none" d="M0 0h570v400H0z"/></svg>