<svg xmlns="http://www.w3.org/2000/svg" width="97.202" height="64" viewBox="0 0 97.202 64"><defs><style>.a{fill:none}</style></defs><path class="a" d="M82.503 59.275a.5.5 0 010-1h5.059v-2.926H32.595v2.926h45.6a.5.5 0 010 1h-45.6V62h54.962v-2.725z"/><path class="a" d="M64.19 37.367h15.448a.5.5 0 010 1H63.716a15.448 15.448 0 01-2.706 3.6 14.8 14.8 0 01-10.822 4.458H24.816v13.043a2.532 2.532 0 002.529 2.529h3.25v-8.648h58.962V62h3.115a2.533 2.533 0 002.53-2.529V33.639a2.532 2.532 0 00-2.53-2.529H65.467v.04a15.191 15.191 0 01-1.277 6.217zm19.391 0h4.688a.5.5 0 010 1h-4.688a.5.5 0 010-1z"/><path d="M92.672 29.108H65.331a16.223 16.223 0 01.136 2h27.205a2.532 2.532 0 012.53 2.529v25.834A2.533 2.533 0 0192.672 62h-3.115v-8.651H30.595V62h-3.25a2.532 2.532 0 01-2.529-2.529V46.428h-2v13.043A4.529 4.529 0 0027.345 64h65.327a4.53 4.53 0 004.53-4.529V33.639a4.53 4.53 0 00-4.53-4.531zM32.595 62v-2.725h45.6a.5.5 0 000-1h-45.6v-2.926h54.962v2.926h-5.054a.5.5 0 000 1h5.059V62z"/><path d="M83.581 38.367h4.688a.5.5 0 000-1h-4.688a.5.5 0 000 1zm-3.443-.5a.5.5 0 00-.5-.5H64.19c-.149.338-.3.675-.474 1h15.922a.5.5 0 00.5-.5z"/><path d="M50.188 46.428A14.8 14.8 0 0061.01 41.97a15.448 15.448 0 002.706-3.6c.175-.325.325-.662.474-1a15.191 15.191 0 001.278-6.219v-.04a16.223 16.223 0 00-.136-2 14.663 14.663 0 00-2.733-6.88 15.3 15.3 0 00-6.65-5.255v-.106A16.914 16.914 0 0039.082.003a16.477 16.477 0 00-8.543 2.323 17.119 17.119 0 00-5.57 5.249A10.5 10.5 0 009.521 16.87a11.446 11.446 0 00.329 2.724 12.4 12.4 0 00-4.507 2.24 13.993 13.993 0 00-3.9 4.8 13.533 13.533 0 00-1.444 6.1 13.7 13.7 0 0013.694 13.693h36.494zm-38.9-25.105a1 1 0 00.773-1.318 9.406 9.406 0 01-.538-3.138 8.515 8.515 0 0113.222-7.1 1 1 0 001.418-.328 15.087 15.087 0 015.4-5.4 14.527 14.527 0 017.522-2.041 14.914 14.914 0 0114.867 14.867v.793a1 1 0 00.664.942 13.33 13.33 0 016.371 4.805 12.859 12.859 0 012.485 7.741 13.22 13.22 0 01-13.28 13.28H13.694A11.7 11.7 0 012.003 32.739a11.544 11.544 0 011.233-5.206 11.981 11.981 0 013.342-4.123 10.45 10.45 0 014.707-2.087z" fill="#00adef"/><path d="M32.156 20.813h2v8.414h-2zm0 9.539h2v2.254h-2z"/><path d="M33.156 38.066a11.357 11.357 0 10-11.353-11.357 11.37 11.37 0 0011.353 11.357zm0-20.714a9.357 9.357 0 11-9.357 9.357 9.367 9.367 0 019.357-9.357z"/></svg>