<svg xmlns="http://www.w3.org/2000/svg" width="91" height="91" viewBox="0 0 91 91"><defs><style>.c{fill:#2d221e}</style></defs><g transform="translate(.5 .5)"><circle cx="45" cy="45" r="45" fill="none" stroke="#f5f5f5"/><path d="M45.382 59.461l-.478-.3v-38.5a3.414 3.414 0 10-6.828 0v38.5l-.477.3a7.121 7.121 0 00-3.368 6.035 7.261 7.261 0 0014.522 0 7.12 7.12 0 00-3.371-6.035zm-3.891 11.162a5.129 5.129 0 01-5.128-5.127 5.056 5.056 0 013.845-4.872V39.106h2.565v21.518a5.056 5.056 0 013.846 4.872 5.129 5.129 0 01-5.129 5.127z" fill="#fff"/><path class="c" d="M46.949 58.052V20.658a5.459 5.459 0 10-10.918 0v37.4a9.137 9.137 0 00-3.844 7.443 9.306 9.306 0 0018.613 0 9.137 9.137 0 00-3.851-7.449zm-5.458 14.7a7.268 7.268 0 01-7.26-7.259 7.121 7.121 0 013.368-6.035l.477-.3v-38.5a3.414 3.414 0 116.828 0v38.5l.478.3a7.12 7.12 0 013.37 6.035 7.268 7.268 0 01-7.261 7.263z"/><path d="M42.773 60.624V39.103h-2.565v21.518a5.056 5.056 0 00-3.845 4.872 5.128 5.128 0 0010.257 0 5.056 5.056 0 00-3.847-4.869z" fill="#00adef"/><path class="c" d="M49.509 23.553h7.283v2.045h-7.283zm0 9.71h7.283v2.045h-7.283zm0 9.71h7.283v2.045h-7.283zm0 9.708h7.283v2.045h-7.283z"/></g></svg>