<svg xmlns="http://www.w3.org/2000/svg" width="160" height="160" viewBox="0 0 160 160"><defs><linearGradient id="b" x1=".5" x2=".5" y2="1" gradientUnits="objectBoundingBox"><stop offset="0" stop-color="#7fb0f8"/><stop offset="1" stop-color="#d5d3ff"/></linearGradient><filter id="a" x="0" y="0" width="160" height="160" filterUnits="userSpaceOnUse"><feOffset dy="3"/><feGaussianBlur stdDeviation="10" result="c"/><feFlood flood-opacity=".161"/><feComposite operator="in" in2="c"/><feComposite in="SourceGraphic"/></filter></defs><g filter="url(#a)"><rect width="100" height="100" rx="5" transform="translate(30 27)" fill="url(#b)"/></g><path d="M108.901 107.304l5.588-11.873v-36l-5.59 9.4zM57.844 44.131l-10.771 9.157 60.482.009 6.17-9.165z" fill="none"/><path d="M116.112 42.782a.894.894 0 00-.1-.131.894.894 0 00-.334-.215l-.093-.027c-.069-.015-.113 0-.212-.024h-57.84a.869.869 0 00-.567.209l-12.84 10.913a.891.891 0 00-.31.68v57.058a.877.877 0 00.877.877h63.328a.883.883 0 00.8-.5l7.345-15.606a.855.855 0 00.086-.373V43.268a.858.858 0 00-.14-.486zm-8.559 10.513l-60.483-.006 10.776-9.159h55.877zm6.936 42.136l-5.588 11.873V68.829l5.591-9.4z" fill="#fff"/><path d="M86.05 66.967a15.757 15.757 0 015.916 1.113 15.463 15.463 0 014.806 3.144 14.57 14.57 0 013.222 4.687 13.967 13.967 0 011.151 5.764 14.245 14.245 0 01-1.151 5.761 15.642 15.642 0 01-3.222 4.687 14.024 14.024 0 01-4.806 3.088 14.744 14.744 0 01-5.916 1.152H74.779V66.967zm3.729 23.144a8.139 8.139 0 002.87-1.954 8.774 8.774 0 001.817-2.93 9.328 9.328 0 00.665-3.553 9.193 9.193 0 00-.665-3.595 8.517 8.517 0 00-4.687-4.863 9.885 9.885 0 00-3.729-.7h-5.256v18.4h5.257a9.906 9.906 0 003.729-.8M60.152 66.459a8.984 8.984 0 108.986 8.986 8.988 8.988 0 00-8.986-8.986m0 12.676a3.692 3.692 0 113.69-3.69 3.69 3.69 0 01-3.69 3.69" fill="#191717"/></svg>