<svg xmlns="http://www.w3.org/2000/svg" width="90" height="90" viewBox="0 0 90 90"><defs><style>.b{fill:#00adef}</style></defs><g transform="translate(-668.493 -1237.366)"><circle cx="45" cy="45" r="45" transform="translate(668.493 1237.366)" fill="#fff"/><path class="b" d="M696.997 1277.253h-.065a1.766 1.766 0 01-1.375-.749c-.013-.018-1.066-1.517-2.6-3.568-2.271-3.044-4.693-6.6-4.693-10.306a8.73 8.73 0 1117.459 0c0 3.585-2.324 7.2-4.6 10.257l-2.719 3.657a1.768 1.768 0 01-1.407.709zm0-1.054zm0-20.255a6.691 6.691 0 00-6.684 6.685c0 3.078 2.213 6.3 4.287 9.084 1.139 1.526 2 2.733 2.4 3.293l2.484-3.34c2.074-2.792 4.194-6.048 4.194-9.037a6.691 6.691 0 00-6.681-6.686z"/><path class="b" d="M696.997 1266.555a4.146 4.146 0 114.146-4.146 4.15 4.15 0 01-4.146 4.146zm0-6.246a2.1 2.1 0 102.1 2.1 2.1 2.1 0 00-2.1-2.1zm32.991 50.524h-.016a1.772 1.772 0 01-1.429-.75c-.151-.213-1.165-1.648-2.6-3.569-2.27-3.044-4.693-6.6-4.693-10.306a8.73 8.73 0 1117.459 0c0 3.586-2.324 7.2-4.6 10.257l-2.721 3.658a1.763 1.763 0 01-1.4.71zm-.231-1.93zm.447-.021zm-.216-19.359a6.691 6.691 0 00-6.685 6.685c0 3.077 2.213 6.3 4.287 9.084a172.146 172.146 0 012.4 3.293l2.485-3.34c2.073-2.792 4.193-6.047 4.193-9.037a6.691 6.691 0 00-6.68-6.685z"/><path class="b" d="M729.988 1300.135a4.146 4.146 0 114.145-4.145 4.151 4.151 0 01-4.145 4.145zm0-6.246a2.1 2.1 0 102.1 2.1 2.1 2.1 0 00-2.1-2.1z"/><path d="M724.082 1310.833h-21.743a14.073 14.073 0 010-28.146h31.614a2.717 2.717 0 000-5.435h-32.004a1.023 1.023 0 010-2.045h32.005a4.763 4.763 0 010 9.526h-31.615a12.027 12.027 0 100 24.055h21.741a1.023 1.023 0 010 2.045z"/></g></svg>