<svg xmlns="http://www.w3.org/2000/svg" xmlns:xlink="http://www.w3.org/1999/xlink" width="160" height="160" viewBox="0 0 160 160"><defs><style>.a{fill:url(#a);}.b{fill:none;}.c{fill:#fff;}.d{fill:#191717;}.e{filter:url(#b);}</style><linearGradient id="a" x1="0.5" x2="0.5" y2="1" gradientUnits="objectBoundingBox"><stop offset="0" stop-color="#7fb0f8"/><stop offset="1" stop-color="#d5d3ff"/></linearGradient><filter id="b" x="0" y="0" width="160" height="160" filterUnits="userSpaceOnUse"><feOffset dy="3" input="SourceAlpha"/><feGaussianBlur stdDeviation="10" result="c"/><feFlood flood-opacity="0.161"/><feComposite operator="in" in2="c"/><feComposite in="SourceGraphic"/></filter></defs><g transform="translate(30 27)"><g class="e" transform="matrix(1, 0, 0, 1, -30, -27)"><rect class="a" width="100" height="100" rx="5" transform="translate(30 27)"/></g><g transform="translate(13.803 15.373)"><path class="b" d="M445.423,283.417l5.588-11.873,0-36-5.59,9.4Z" transform="translate(-380.325 -218.486)"/><path class="b" d="M435.471,230.416,424.7,239.573l60.482.009,6.17-9.165Z" transform="translate(-421.43 -228.658)"/><path class="c" d="M495.911,230.236v0l0,0h0a.894.894,0,0,0-.1-.131h0v0a.894.894,0,0,0-.334-.215l0,0h0l-.093-.027c-.069-.015-.113,0-.212-.024h-57.84a.869.869,0,0,0-.567.209l-12.84,10.913a.891.891,0,0,0-.31.68v57.058a.877.877,0,0,0,.877.877H487.82a.883.883,0,0,0,.8-.5l7.345-15.606a.855.855,0,0,0,.086-.373l0-52.375A.858.858,0,0,0,495.911,230.236Zm-8.559,10.513-60.483-.006,10.776-9.159h55.877Zm6.936,42.136L488.7,294.758V256.283l5.591-9.4Z" transform="translate(-423.602 -229.827)"/><g transform="translate(7.36 24.087)"><path class="d" d="M445.256,238.071a15.757,15.757,0,0,1,5.916,1.113,15.463,15.463,0,0,1,4.806,3.144,14.57,14.57,0,0,1,3.222,4.687,13.967,13.967,0,0,1,1.151,5.764,14.245,14.245,0,0,1-1.151,5.761,15.642,15.642,0,0,1-3.222,4.687,14.024,14.024,0,0,1-4.806,3.088,14.744,14.744,0,0,1-5.916,1.152H433.985V238.071Zm3.729,23.144a8.139,8.139,0,0,0,2.87-1.954,8.774,8.774,0,0,0,1.817-2.93,9.328,9.328,0,0,0,.665-3.553,9.193,9.193,0,0,0-.665-3.595,8.517,8.517,0,0,0-4.687-4.863,9.885,9.885,0,0,0-3.729-.7H440v18.4h5.257a9.906,9.906,0,0,0,3.729-.8" transform="translate(-410.369 -237.564)"/><path class="d" d="M435.058,237.9a8.984,8.984,0,1,0,8.986,8.986,8.988,8.988,0,0,0-8.986-8.986m0,12.676a3.692,3.692,0,1,1,3.69-3.69,3.69,3.69,0,0,1-3.69,3.69" transform="translate(-426.069 -237.901)"/></g></g></g></svg>