<svg xmlns="http://www.w3.org/2000/svg" width="160" height="160" viewBox="0 0 160 160"><defs><linearGradient id="b" x1=".5" x2=".5" y2="1" gradientUnits="objectBoundingBox"><stop offset="0" stop-color="#7fb0f8"/><stop offset="1" stop-color="#d5d3ff"/></linearGradient><filter id="a" x="0" y="0" width="160" height="160" filterUnits="userSpaceOnUse"><feOffset dy="3"/><feGaussianBlur stdDeviation="10" result="c"/><feFlood flood-opacity=".161"/><feComposite operator="in" in2="c"/><feComposite in="SourceGraphic"/></filter></defs><g filter="url(#a)"><rect width="100" height="100" rx="5" transform="translate(30 27)" fill="url(#b)"/></g><path d="M43.479 73.144a2.189 2.189 0 003.065.336l2.021-1.624v33.917a3.97 3.97 0 003.956 3.96h56.256a3.97 3.97 0 003.96-3.96V71.925l1.959 1.576a2.209 2.209 0 001.363.476 2.152 2.152 0 001.7-.832 2.194 2.194 0 00-.336-3.069l-34.43-27.683-.791-.394a3.89 3.89 0 00-3.131.01l-.829.384-34.43 27.686a2.189 2.189 0 00-.336 3.066" fill="#fff"/><path d="M94.449 93.172a8.235 8.235 0 002.911-1.98 8.973 8.973 0 001.839-2.966 9.482 9.482 0 00.671-3.6 9.288 9.288 0 00-.671-3.641 8.837 8.837 0 00-1.839-2.929 8.679 8.679 0 00-2.911-2 10.03 10.03 0 00-3.778-.712h-5.323v18.64h5.323a10.118 10.118 0 003.778-.812m-3.778-23.449a16.011 16.011 0 015.994 1.127 15.642 15.642 0 014.871 3.189 14.7 14.7 0 013.264 4.747 14.109 14.109 0 011.168 5.837 14.434 14.434 0 01-1.168 5.837 15.936 15.936 0 01-3.264 4.751 14.221 14.221 0 01-4.871 3.127 14.909 14.909 0 01-5.994 1.168H79.255V69.723zM64.43 82.048a3.739 3.739 0 113.74-3.74 3.736 3.736 0 01-3.74 3.74m0-12.841a9.1 9.1 0 109.1 9.1 9.106 9.106 0 00-9.1-9.1" fill="#231f20"/></svg>