<svg xmlns="http://www.w3.org/2000/svg" width="162" height="48" viewBox="0 0 162 48"><defs><style>.a{fill:#fff;}</style></defs><g transform="translate(0 0)"><path class="a" d="M405.862,321.28a5.039,5.039,0,0,1,5.04,5.04v36a5.039,5.039,0,0,1-5.04,5.04h-150a5.041,5.041,0,0,1-5.04-5.04v-36a5.041,5.041,0,0,1,5.04-5.04Zm0-.96h-150a6,6,0,0,0-6,6v36a6,6,0,0,0,6,6h150a6,6,0,0,0,6-6v-36a6,6,0,0,0-6-6Z" transform="translate(-249.862 -320.32)"/><path class="a" d="M294.636,348.4a6.627,6.627,0,0,1,3.157-5.561,6.786,6.786,0,0,0-5.346-2.891c-2.249-.237-4.431,1.346-5.576,1.346-1.169,0-2.933-1.323-4.835-1.284a7.118,7.118,0,0,0-5.991,3.654c-2.591,4.486-.658,11.077,1.823,14.7,1.242,1.775,2.693,3.758,4.592,3.688,1.858-.077,2.552-1.185,4.794-1.185,2.222,0,2.873,1.185,4.81,1.14,1.994-.032,3.25-1.784,4.448-3.575a14.686,14.686,0,0,0,2.034-4.142A6.405,6.405,0,0,1,294.636,348.4Z" transform="translate(-256.1 -325.22)"/><path class="a" d="M294.908,335.214a6.526,6.526,0,0,0,1.493-4.676,6.641,6.641,0,0,0-4.3,2.223,6.206,6.206,0,0,0-1.532,4.5A5.49,5.49,0,0,0,294.908,335.214Z" transform="translate(-260.031 -322.875)"/><path class="a" d="M332.812,364.016h-2.6l-1.423-4.47h-4.943l-1.355,4.47h-2.528l4.9-15.216h3.026Zm-4.448-6.345-1.286-3.973q-.2-.61-.767-2.866h-.046q-.225.971-.723,2.866l-1.263,3.973Z" transform="translate(-267.388 -327.44)"/><path class="a" d="M350.367,359.734a6.239,6.239,0,0,1-1.513,4.424,4.424,4.424,0,0,1-3.364,1.445,3.363,3.363,0,0,1-3.116-1.557h-.046v5.779h-2.437V358q0-1.761-.091-3.612h2.144l.136,1.739h.046a4.337,4.337,0,0,1,6.941-.43A6.047,6.047,0,0,1,350.367,359.734Zm-2.484.089a4.516,4.516,0,0,0-.722-2.641,2.5,2.5,0,0,0-2.122-1.085,2.536,2.536,0,0,0-1.636.6,2.774,2.774,0,0,0-.959,1.57,3.215,3.215,0,0,0-.113.743v1.829a2.929,2.929,0,0,0,.734,2.021,2.433,2.433,0,0,0,1.907.824,2.5,2.5,0,0,0,2.144-1.06A4.671,4.671,0,0,0,347.883,359.824Z" transform="translate(-272.347 -328.78)"/><path class="a" d="M367.193,359.734a6.233,6.233,0,0,1-1.514,4.424,4.418,4.418,0,0,1-3.362,1.445,3.361,3.361,0,0,1-3.115-1.557h-.046v5.779h-2.437V358q0-1.761-.091-3.612h2.144l.136,1.739h.046a4.339,4.339,0,0,1,6.943-.43A6.062,6.062,0,0,1,367.193,359.734Zm-2.484.089a4.51,4.51,0,0,0-.724-2.641,2.49,2.49,0,0,0-2.12-1.085,2.54,2.54,0,0,0-1.638.6,2.772,2.772,0,0,0-.958,1.57,3.257,3.257,0,0,0-.113.743v1.829a2.938,2.938,0,0,0,.732,2.021,2.437,2.437,0,0,0,1.909.824,2.5,2.5,0,0,0,2.144-1.06A4.671,4.671,0,0,0,364.709,359.824Z" transform="translate(-276.553 -328.78)"/><path class="a" d="M386.38,359.674a4.055,4.055,0,0,1-1.352,3.16,5.988,5.988,0,0,1-4.144,1.332,7.256,7.256,0,0,1-3.943-.948l.565-2.032a6.683,6.683,0,0,0,3.524.972,3.332,3.332,0,0,0,2.146-.622,2.032,2.032,0,0,0,.766-1.663,2.117,2.117,0,0,0-.632-1.559,5.866,5.866,0,0,0-2.1-1.177q-4-1.491-3.995-4.363a3.862,3.862,0,0,1,1.4-3.075,5.525,5.525,0,0,1,3.725-1.2,7.385,7.385,0,0,1,3.453.722l-.61,1.988a5.989,5.989,0,0,0-2.911-.7,2.946,2.946,0,0,0-2.008.632,1.8,1.8,0,0,0-.61,1.378,1.858,1.858,0,0,0,.7,1.49,7.911,7.911,0,0,0,2.214,1.174,7.5,7.5,0,0,1,2.889,1.85A3.864,3.864,0,0,1,386.38,359.674Z" transform="translate(-281.632 -327.366)"/><path class="a" d="M398.046,355.377h-2.687V360.7q0,2.033,1.422,2.033a4.357,4.357,0,0,0,1.083-.113l.068,1.851a5.534,5.534,0,0,1-1.9.27,2.925,2.925,0,0,1-2.258-.88,4.326,4.326,0,0,1-.813-2.958v-5.53h-1.6v-1.829h1.6v-2.009l2.395-.722v2.731h2.687Z" transform="translate(-285.238 -327.944)"/><path class="a" d="M412.855,359.78a6.015,6.015,0,0,1-1.445,4.154,5.159,5.159,0,0,1-4.02,1.671,4.907,4.907,0,0,1-3.847-1.6,5.835,5.835,0,0,1-1.433-4.041,5.958,5.958,0,0,1,1.478-4.175,5.116,5.116,0,0,1,3.983-1.626,5.01,5.01,0,0,1,3.883,1.6A5.768,5.768,0,0,1,412.855,359.78Zm-2.529.079a4.934,4.934,0,0,0-.654-2.6,2.408,2.408,0,0,0-2.189-1.312,2.444,2.444,0,0,0-2.235,1.313,5.028,5.028,0,0,0-.654,2.649,4.929,4.929,0,0,0,.654,2.6,2.491,2.491,0,0,0,4.4-.023A4.952,4.952,0,0,0,410.326,359.858Z" transform="translate(-287.924 -328.78)"/><path class="a" d="M425.045,356.527a4.269,4.269,0,0,0-.769-.068,2.3,2.3,0,0,0-1.987.972,3.654,3.654,0,0,0-.61,2.167v5.757h-2.437l.023-7.517q0-1.9-.091-3.455H421.3l.089,2.1h.067a3.752,3.752,0,0,1,1.219-1.738,2.947,2.947,0,0,1,1.762-.588,3.925,3.925,0,0,1,.61.045Z" transform="translate(-292.19 -328.78)"/><path class="a" d="M438.288,359.344a5.708,5.708,0,0,1-.089,1.106h-7.313a3.181,3.181,0,0,0,1.061,2.485,3.624,3.624,0,0,0,2.392.767,8.083,8.083,0,0,0,2.959-.519l.383,1.692a9.148,9.148,0,0,1-3.679.678,5.329,5.329,0,0,1-4.009-1.5,5.545,5.545,0,0,1-1.455-4.029,6.285,6.285,0,0,1,1.356-4.131,4.672,4.672,0,0,1,3.836-1.759,4.089,4.089,0,0,1,3.591,1.759A5.936,5.936,0,0,1,438.288,359.344Zm-2.325-.632a3.307,3.307,0,0,0-.473-1.874,2.129,2.129,0,0,0-1.943-1.016,2.313,2.313,0,0,0-1.94.994,3.639,3.639,0,0,0-.721,1.9h5.077Z" transform="translate(-294.531 -328.773)"/><path class="a" d="M328.041,335.114a3.753,3.753,0,0,1-1.21,3.039,4.81,4.81,0,0,1-3.182.942,14.627,14.627,0,0,1-1.753-.089v-7.353a12.944,12.944,0,0,1,2.063-.155,4.45,4.45,0,0,1,2.962.854A3.45,3.45,0,0,1,328.041,335.114Zm-1.263.033a2.436,2.436,0,0,0-2.718-2.706,5.089,5.089,0,0,0-.965.077v5.591a6.421,6.421,0,0,0,.81.033,2.835,2.835,0,0,0,2.123-.765A3.066,3.066,0,0,0,326.778,335.147Z" transform="translate(-267.871 -323.114)"/><path class="a" d="M337.262,336.966a2.957,2.957,0,0,1-.71,2.041,2.533,2.533,0,0,1-1.975.821,2.408,2.408,0,0,1-1.891-.787,2.867,2.867,0,0,1-.7-1.985,2.929,2.929,0,0,1,.726-2.051,2.517,2.517,0,0,1,1.957-.8,2.464,2.464,0,0,1,1.908.787A2.845,2.845,0,0,1,337.262,336.966Zm-1.244.039a2.438,2.438,0,0,0-.321-1.279,1.184,1.184,0,0,0-1.075-.645,1.2,1.2,0,0,0-1.1.645,2.468,2.468,0,0,0-.321,1.3,2.439,2.439,0,0,0,.321,1.279,1.21,1.21,0,0,0,1.087.645,1.2,1.2,0,0,0,1.075-.656A2.422,2.422,0,0,0,336.019,337.005Z" transform="translate(-270.392 -323.791)"/><path class="a" d="M348.4,334.352l-1.687,5.39h-1.1l-.7-2.341a17.477,17.477,0,0,1-.433-1.742h-.022a12.767,12.767,0,0,1-.433,1.742l-.742,2.341h-1.11l-1.585-5.39h1.231l.609,2.563c.148.606.268,1.183.366,1.729h.022c.089-.45.237-1.024.445-1.718l.765-2.573H345l.733,2.518q.266.92.432,1.774h.033a17.17,17.17,0,0,1,.366-1.774l.654-2.518H348.4Z" transform="translate(-272.543 -323.828)"/><path class="a" d="M357.705,339.7h-1.2v-3.087q0-1.428-1.086-1.427a1.081,1.081,0,0,0-.866.392,1.393,1.393,0,0,0-.333.924v3.2h-1.2v-3.848q0-.71-.044-1.543h1.053l.056.843h.033a1.734,1.734,0,0,1,.621-.651,2.026,2.026,0,0,1,1.086-.3,1.72,1.72,0,0,1,1.254.488,2.373,2.373,0,0,1,.621,1.786Z" transform="translate(-275.642 -323.79)"/><path class="a" d="M363.287,338.918h-1.2v-7.863h1.2Z" transform="translate(-277.919 -323.004)"/><path class="a" d="M371.332,336.966a2.957,2.957,0,0,1-.71,2.041,2.533,2.533,0,0,1-1.975.821,2.4,2.4,0,0,1-1.891-.787,2.871,2.871,0,0,1-.7-1.985,2.929,2.929,0,0,1,.726-2.051,2.519,2.519,0,0,1,1.957-.8,2.468,2.468,0,0,1,1.909.787A2.845,2.845,0,0,1,371.332,336.966Zm-1.244.039a2.438,2.438,0,0,0-.321-1.279,1.183,1.183,0,0,0-1.074-.645,1.2,1.2,0,0,0-1.1.645,2.474,2.474,0,0,0-.321,1.3,2.439,2.439,0,0,0,.321,1.279,1.21,1.21,0,0,0,1.088.645,1.2,1.2,0,0,0,1.074-.656A2.416,2.416,0,0,0,370.088,337.005Z" transform="translate(-278.91 -323.791)"/><path class="a" d="M379.349,339.706h-1.076l-.089-.621h-.034a1.845,1.845,0,0,1-1.574.743,1.624,1.624,0,0,1-1.23-.488,1.532,1.532,0,0,1-.422-1.1,1.674,1.674,0,0,1,.827-1.508,4.287,4.287,0,0,1,2.325-.51v-.1q0-1.065-1.12-1.065a2.508,2.508,0,0,0-1.4.4l-.244-.787a3.457,3.457,0,0,1,1.849-.465q2.113,0,2.115,2.23v1.984A8.38,8.38,0,0,0,379.349,339.706Zm-1.244-1.852v-.831q-1.982-.035-1.982,1.086a.813.813,0,0,0,.229.632.837.837,0,0,0,.586.211,1.21,1.21,0,0,0,.733-.25,1.023,1.023,0,0,0,.434-.848Z" transform="translate(-281.128 -323.791)"/><path class="a" d="M388.187,338.918h-1.063l-.056-.866h-.034a1.791,1.791,0,0,1-1.731.988,2.027,2.027,0,0,1-1.618-.765,2.979,2.979,0,0,1-.643-1.984,3.123,3.123,0,0,1,.7-2.119,2.149,2.149,0,0,1,1.664-.755,1.615,1.615,0,0,1,1.518.732h.023v-3.094h1.2v6.411Q388.145,338.252,388.187,338.918Zm-1.241-2.273v-.9a1.758,1.758,0,0,0-.034-.377,1.364,1.364,0,0,0-.433-.726,1.178,1.178,0,0,0-.8-.294,1.23,1.23,0,0,0-1.054.532,2.284,2.284,0,0,0-.384,1.364,2.127,2.127,0,0,0,.368,1.3,1.233,1.233,0,0,0,1.047.532,1.155,1.155,0,0,0,.947-.443A1.479,1.479,0,0,0,386.946,336.645Z" transform="translate(-283.157 -323.004)"/><path class="a" d="M401.807,336.966a2.957,2.957,0,0,1-.71,2.041,2.532,2.532,0,0,1-1.975.821,2.412,2.412,0,0,1-1.891-.787,2.871,2.871,0,0,1-.7-1.985,2.929,2.929,0,0,1,.726-2.051,2.518,2.518,0,0,1,1.959-.8,2.46,2.46,0,0,1,1.906.787A2.845,2.845,0,0,1,401.807,336.966Zm-1.242.039a2.438,2.438,0,0,0-.321-1.279,1.186,1.186,0,0,0-1.076-.645,1.205,1.205,0,0,0-1.1.645,2.468,2.468,0,0,0-.321,1.3,2.439,2.439,0,0,0,.321,1.279,1.21,1.21,0,0,0,1.087.645,1.2,1.2,0,0,0,1.076-.656A2.43,2.43,0,0,0,400.565,337.005Z" transform="translate(-286.529 -323.791)"/><path class="a" d="M410.583,339.7h-1.2v-3.087q0-1.428-1.087-1.427a1.079,1.079,0,0,0-.865.392,1.389,1.389,0,0,0-.332.924v3.2h-1.2v-3.848q0-.71-.042-1.543h1.052l.056.843H407a1.749,1.749,0,0,1,.62-.651,2.033,2.033,0,0,1,1.087-.3,1.722,1.722,0,0,1,1.253.488,2.37,2.37,0,0,1,.621,1.786Z" transform="translate(-288.861 -323.79)"/><path class="a" d="M421.815,334.8h-1.32v2.618c0,.665.235,1,.7,1a2.085,2.085,0,0,0,.534-.056l.031.909a2.69,2.69,0,0,1-.931.134,1.43,1.43,0,0,1-1.108-.433,2.111,2.111,0,0,1-.4-1.453V334.8h-.787v-.9h.787v-.988l1.175-.354V333.9h1.319v.9Z" transform="translate(-292.03 -323.381)"/><path class="a" d="M429.807,338.918h-1.2v-3.065q0-1.449-1.085-1.45a1.143,1.143,0,0,0-1.143.841,1.484,1.484,0,0,0-.056.43v3.242h-1.2v-7.861h1.2V334.3h.023a1.812,1.812,0,0,1,1.619-.886,1.672,1.672,0,0,1,1.233.488,2.458,2.458,0,0,1,.609,1.808Z" transform="translate(-293.678 -323.004)"/><path class="a" d="M438.495,336.753a2.909,2.909,0,0,1-.044.543h-3.594a1.569,1.569,0,0,0,.52,1.219,1.781,1.781,0,0,0,1.176.377,3.956,3.956,0,0,0,1.454-.255l.188.833a4.507,4.507,0,0,1-1.809.333,2.612,2.612,0,0,1-1.967-.737,2.716,2.716,0,0,1-.715-1.979,3.084,3.084,0,0,1,.665-2.029,2.29,2.29,0,0,1,1.884-.865,2,2,0,0,1,1.762.865A2.879,2.879,0,0,1,438.495,336.753Zm-1.144-.31a1.611,1.611,0,0,0-.232-.92,1.047,1.047,0,0,0-.953-.5,1.137,1.137,0,0,0-.954.488,1.816,1.816,0,0,0-.355.932Z" transform="translate(-295.822 -323.788)"/></g></svg>