<svg xmlns="http://www.w3.org/2000/svg" width="90" height="90" viewBox="0 0 90 90"><defs><style>.b{fill:none}.c{fill:#00adef}</style></defs><g transform="translate(-444.606 -1237.366)"><circle cx="45" cy="45" r="45" transform="translate(444.606 1237.366)" fill="#fff"/><path class="b" d="M502.412 1267.468a3.7 3.7 0 01-3.69-3.69v-2.712H480.49v2.712a3.69 3.69 0 01-7.381 0v-2.712h-3.78a3.249 3.249 0 00-3.246 3.245v8.85h47.045v-8.85a3.248 3.248 0 00-3.245-3.245h-3.781v2.712a3.7 3.7 0 01-3.69 3.69zm-14.451 25.08h3.291v3.291h-3.291z"/><path class="b" d="M476.8 1265.423a1.646 1.646 0 001.646-1.645v-5.337a1.645 1.645 0 00-3.29 0v5.337a1.646 1.646 0 001.644 1.645zm-1.645 27.125h3.29v3.291h-3.29zm3.29 4.313v-1.023zm9.516-14.985h3.291v3.291h-3.291zm14.452-16.453a1.646 1.646 0 001.645-1.645v-5.337a1.645 1.645 0 00-3.289 0v5.337a1.646 1.646 0 001.644 1.645zm-27.258 16.453h3.29v3.291h-3.29zm3.29 4.314v-1.028zm22.323-4.314h3.29v3.291h-3.29z"/><path class="b" d="M466.083 1275.207v25.39a3.25 3.25 0 003.246 3.246h40.554a3.249 3.249 0 003.245-3.246v-25.39zm14.407 20.634a2.048 2.048 0 01-2.045 2.045h-3.29a2.048 2.048 0 01-2.045-2.045v-3.291a2.047 2.047 0 012.045-2.046h3.29a2.048 2.048 0 012.045 2.046zm0-10.672a2.047 2.047 0 01-2.045 2.045h-3.29a2.047 2.047 0 01-2.045-2.045v-3.291a2.048 2.048 0 012.045-2.045h3.29a2.048 2.048 0 012.045 2.045zm12.807 10.672a2.049 2.049 0 01-2.045 2.045h-3.291a2.049 2.049 0 01-2.045-2.045v-3.291a2.048 2.048 0 012.045-2.046h3.291a2.048 2.048 0 012.045 2.046zm0-10.672a2.048 2.048 0 01-2.045 2.045h-3.291a2.048 2.048 0 01-2.045-2.045v-3.291a2.049 2.049 0 012.045-2.045h3.291a2.049 2.049 0 012.045 2.045zm12.805 10.672a2.048 2.048 0 01-2.045 2.045h-3.289a2.048 2.048 0 01-2.045-2.045v-3.291a2.048 2.048 0 012.045-2.046h3.289a2.048 2.048 0 012.045 2.046zm0-10.672a2.048 2.048 0 01-2.045 2.045h-3.289a2.047 2.047 0 01-2.045-2.045v-3.291a2.048 2.048 0 012.045-2.045h3.289a2.048 2.048 0 012.045 2.045z"/><path class="b" d="M500.768 1292.548h3.29v3.291h-3.29z"/><path class="c" d="M491.252 1279.83h-3.291a2.049 2.049 0 00-2.045 2.045v3.291a2.048 2.048 0 002.045 2.045h3.291a2.048 2.048 0 002.045-2.045v-3.291a2.049 2.049 0 00-2.045-2.045zm-3.291 5.337v-3.291h3.291v3.291zm-9.515-5.337h-3.29a2.048 2.048 0 00-2.045 2.045v3.291a2.047 2.047 0 002.045 2.045h3.29a2.047 2.047 0 002.045-2.045v-3.291a2.048 2.048 0 00-2.045-2.045zm0 5.337h-3.289v-3.291h3.29zm0 1.023v-1.023zm25.612-6.36h-3.289a2.048 2.048 0 00-2.045 2.045v3.291a2.047 2.047 0 002.045 2.045h3.289a2.048 2.048 0 002.045-2.045v-3.291a2.048 2.048 0 00-2.045-2.045zm-3.289 5.337v-3.291h3.289v3.291zm-9.517 5.336h-3.291a2.048 2.048 0 00-2.045 2.046v3.291a2.049 2.049 0 002.045 2.045h3.291a2.049 2.049 0 002.045-2.045v-3.291a2.048 2.048 0 00-2.045-2.046zm-3.291 5.337v-3.291h3.291v3.291zm-9.515-5.337h-3.29a2.047 2.047 0 00-2.045 2.046v3.291a2.048 2.048 0 002.045 2.045h3.29a2.048 2.048 0 002.045-2.045v-3.291a2.048 2.048 0 00-2.045-2.046zm0 5.337h-3.289v-3.291h3.29zm0 1.023v-1.023zm25.612-6.36h-3.289a2.048 2.048 0 00-2.045 2.046v3.291a2.048 2.048 0 002.045 2.045h3.289a2.048 2.048 0 002.045-2.045v-3.291a2.048 2.048 0 00-2.045-2.046zm-3.289 5.337v-3.291h3.289v3.291z"/><path d="M480.491 1259.02h18.231v2.045h-18.231z"/><path d="M509.884 1259.021h-3.781v2.046h3.781a3.248 3.248 0 013.245 3.245v8.85h-47.046v-8.85a3.249 3.249 0 013.246-3.245h3.78v-2.046h-3.777a5.3 5.3 0 00-5.292 5.291v36.285a5.3 5.3 0 005.292 5.292h40.554a5.3 5.3 0 005.291-5.292v-36.286a5.3 5.3 0 00-5.293-5.29zm0 44.822h-40.552a3.25 3.25 0 01-3.246-3.246v-25.39h47.046v25.39a3.249 3.249 0 01-3.248 3.246z"/><path class="c" d="M473.11 1263.779a3.69 3.69 0 007.381 0v-5.337a3.69 3.69 0 00-7.381 0v5.337zm2.045-5.337a1.645 1.645 0 013.29 0v5.337a1.645 1.645 0 01-3.29 0zm23.568 5.337a3.69 3.69 0 107.38 0v-5.337a3.69 3.69 0 10-7.38 0v5.337zm2.045-5.337a1.645 1.645 0 013.289 0v5.337a1.645 1.645 0 11-3.289 0z"/></g></svg>