<svg xmlns="http://www.w3.org/2000/svg" width="570" height="400" viewBox="0 0 570 400"><defs><linearGradient id="a" x1=".5" x2=".5" y2="1" gradientUnits="objectBoundingBox"><stop offset="0" stop-color="#7fb0f8"/><stop offset="1" stop-color="#d5d3ff"/></linearGradient><filter id="b" x="164" y="15" width="242" height="242" filterUnits="userSpaceOnUse"><feOffset dy="3"/><feGaussianBlur stdDeviation="10" result="c"/><feFlood flood-opacity=".161"/><feComposite operator="in" in2="c"/><feComposite in="SourceGraphic"/></filter><style>.a{fill:#fff}</style></defs><path class="a" d="M0 0h570v400H0z"/><g filter="url(#b)"><rect width="182" height="182" rx="10" transform="translate(194 42)" fill="url(#a)"/></g><path d="M337.6 188.156l10.17-21.61V101.03l-10.174 17.1zM244.676 73.179l-19.605 16.665 110.077.016 11.223-16.681z" fill="none"/><path class="a" d="M350.719 70.724v-.005l-.006-.005a1.629 1.629 0 00-.185-.239h-.005v-.005a1.628 1.628 0 00-.608-.391l-.005-.005h-.005a23.19 23.19 0 00-.168-.049c-.125-.027-.206-.005-.385-.044H244.086a1.582 1.582 0 00-1.032.38l-23.369 19.861a1.622 1.622 0 00-.565 1.238v103.846a1.6 1.6 0 001.6 1.6h115.278a1.607 1.607 0 001.45-.918l13.368-28.4a1.556 1.556 0 00.157-.679l.006-95.322a1.561 1.561 0 00-.26-.863zm-15.573 19.129l-110.08-.011 19.612-16.669h101.7zm12.624 76.688l-10.17 21.612V118.13l10.175-17.1z"/><path d="M296.012 114.742a28.677 28.677 0 0110.767 2.025 28.144 28.144 0 018.747 5.723 26.517 26.517 0 015.864 8.53 25.421 25.421 0 012.1 10.49 25.927 25.927 0 01-2.1 10.484 28.47 28.47 0 01-5.864 8.53 25.524 25.524 0 01-8.747 5.62 26.835 26.835 0 01-10.767 2.1h-20.515v-53.5zm6.787 42.123a14.813 14.813 0 005.223-3.556 15.97 15.97 0 003.307-5.332 16.977 16.977 0 001.211-6.467 16.733 16.733 0 00-1.211-6.543 15.5 15.5 0 00-8.53-8.85 17.99 17.99 0 00-6.787-1.281h-9.567v33.484h9.567a18.028 18.028 0 006.787-1.455m-53.924-43.047a16.351 16.351 0 1016.354 16.354 16.358 16.358 0 00-16.354-16.354m0 23.07a6.719 6.719 0 116.716-6.716 6.715 6.715 0 01-6.716 6.716" fill="#191717"/></svg>