<svg xmlns="http://www.w3.org/2000/svg" width="91" height="91" viewBox="0 0 91 91"><defs><style>.a,.b{fill:none;}.a{stroke:#f5f5f5;}.c{fill:#00adef;}</style></defs><g transform="translate(0.5 0.5)"><circle class="a" cx="45" cy="45" r="45"/><g transform="translate(20.218 12.926)"><path class="b" d="M381.3,1281.423a2.541,2.541,0,1,0-2.542,2.54A2.545,2.545,0,0,0,381.3,1281.423Z" transform="translate(-353.973 -1249.348)"/><path class="b" d="M395.2,1265.732l-.1.1-1.637-1.636.011-.011a22.75,22.75,0,1,0,1.728,1.545Zm-4.581,27.555a1.022,1.022,0,0,1-1.446,0l-7.54-7.541a4.542,4.542,0,0,1-2.429.712,4.586,4.586,0,1,1,4.587-4.586,4.544,4.544,0,0,1-.712,2.428l7.54,7.541A1.021,1.021,0,0,1,390.618,1293.287Zm3.755-2.228a1.009,1.009,0,0,1-.484-.123,1.021,1.021,0,0,1-.415-1.385,16.212,16.212,0,0,0-12.034-23.73,1.022,1.022,0,0,1-.873-1.153,1.01,1.01,0,0,1,1.153-.872,18.255,18.255,0,0,1,13.555,26.726A1.022,1.022,0,0,1,394.373,1291.059Z" transform="translate(-354.422 -1249.797)"/><path d="M396.69,1264.493l.907-.907,1.228,1.228a.578.578,0,0,0,.818,0l.819-.819a.578.578,0,0,0,0-.818l-4.094-4.093a.579.579,0,0,0-.818,0l-.819.818a.581.581,0,0,0,0,.819l1.228,1.227-.989.989a24.67,24.67,0,0,0-13.347-5.524v-2.658h2.542a1.022,1.022,0,0,0,1.023-1.023v-2.706a1.023,1.023,0,0,0-1.023-1.023h-9.835a1.023,1.023,0,0,0-1.023,1.023v2.706a1.022,1.022,0,0,0,1.023,1.023h2.541v2.658a24.807,24.807,0,1,0,19.817,7.079Zm-17.442,40.323a22.737,22.737,0,1,1,14.267-40.422l-.011.011,1.637,1.636.1-.1a22.723,22.723,0,0,1-16,38.877Z" transform="translate(-354.467 -1250.004)"/><path class="c" d="M381.184,1263.693a1.01,1.01,0,0,0-1.153.872,1.022,1.022,0,0,0,.873,1.153,16.212,16.212,0,0,1,12.034,23.73,1.021,1.021,0,0,0,.415,1.385,1.009,1.009,0,0,0,.484.123,1.022,1.022,0,0,0,.9-.537,18.255,18.255,0,0,0-13.555-26.726Z" transform="translate(-353.886 -1249.693)"/><path class="c" d="M382.675,1283.9a4.544,4.544,0,0,0,.712-2.428,4.587,4.587,0,1,0-4.587,4.586,4.542,4.542,0,0,0,2.429-.712l7.54,7.541a1.023,1.023,0,1,0,1.446-1.446Zm-6.417-2.428a2.541,2.541,0,1,1,2.541,2.54A2.545,2.545,0,0,1,376.258,1281.469Z" transform="translate(-354.018 -1249.393)"/></g></g></svg>