<svg xmlns="http://www.w3.org/2000/svg" width="120" height="120" viewBox="0 0 120 120"><defs><style>.a{fill:none}.b{fill:#00adef}</style></defs><path class="a" d="M48.442 55.959a5.924 5.924 0 105.923 5.924 5.93 5.93 0 00-5.923-5.924zm36.56-15.103a.9.9 0 10-.9-.9.9.9 0 00.9.9zM68.814 89.939H49.587a3.772 3.772 0 01-2.916-1.362H26.088a3.17 3.17 0 003.077 2.424h60.071a3.17 3.17 0 003.077-2.424H71.726a3.771 3.771 0 01-2.912 1.362zm-20.372-16.39a10.171 10.171 0 00-10.159 10.159v2.868h8.9a1 1 0 01.856.484 1.8 1.8 0 001.547.878H58.6v-4.23a10.171 10.171 0 00-10.158-10.159zm28.904-32.693a.9.9 0 10-.9-.9.9.9 0 00.9.9z"/><path class="a" d="M61.332 50.854h3.88a1 1 0 011 1.008l-.046 6.169 6.407-6.86a1 1 0 01.73-.317H93.36V30H61.332zm23.67-13.8a2.9 2.9 0 11-2.9 2.9 2.9 2.9 0 012.9-2.9zm-7.656 0a2.9 2.9 0 11-2.9 2.9 2.9 2.9 0 012.9-2.9zm-7.656 0a2.9 2.9 0 11-2.9 2.9 2.9 2.9 0 012.9-2.9z"/><path class="a" d="M69.69 40.856a.9.9 0 10-.9-.9.9.9 0 00.9.9z"/><path class="b" d="M48.442 53.959a7.924 7.924 0 107.923 7.924 7.933 7.933 0 00-7.923-7.924zm0 13.847a5.924 5.924 0 115.923-5.923 5.93 5.93 0 01-5.923 5.923z"/><path class="b" d="M38.283 83.708a10.159 10.159 0 0120.318 0v4.23h2v-4.23a12.159 12.159 0 00-24.318 0v2.868h2z"/><path d="M93.141 86.576h-2.144V57.153a1 1 0 00-2 0v29.423h-17.78a1 1 0 00-.855.483 1.8 1.8 0 01-1.548.879H49.587a1.8 1.8 0 01-1.547-.878 1 1 0 00-.856-.484h-17.73V46.533h25.58a1 1 0 000-2h-26.58a1 1 0 00-1 1v41.043H25.26a1.262 1.262 0 00-1.26 1.26A5.171 5.171 0 0029.165 93h60.071a5.171 5.171 0 005.165-5.164 1.262 1.262 0 00-1.26-1.26zM89.241 91H29.165a3.17 3.17 0 01-3.077-2.424h20.583a3.772 3.772 0 002.916 1.362h19.227a3.771 3.771 0 002.915-1.362h20.584A3.17 3.17 0 0189.236 91zM69.69 42.856a2.9 2.9 0 10-2.9-2.9 2.9 2.9 0 002.9 2.9zm0-3.8a.9.9 0 11-.9.9.9.9 0 01.9-.902zm7.656 3.8a2.9 2.9 0 10-2.9-2.9 2.9 2.9 0 002.9 2.9zm0-3.8a.9.9 0 11-.9.9.9.9 0 01.9-.902zm7.656 3.8a2.9 2.9 0 10-2.9-2.9 2.905 2.905 0 002.9 2.9zm0-3.8a.9.9 0 11-.9.9.9.9 0 01.9-.902z"/><path class="b" d="M94.36 28H60.332a1 1 0 00-1 1v22.854a1 1 0 001 1h3.873l-.052 6.936a1.3 1.3 0 00.82 1.226 1.313 1.313 0 00.489.1 1.3 1.3 0 00.952-.417l7.324-7.841H94.36a1 1 0 001-1V29a1 1 0 00-1-1zm-1 22.854H73.303a1 1 0 00-.73.317l-6.407 6.86.046-6.169a1 1 0 00-1-1.008h-3.88V30H93.36z"/><path class="a" d="M0 0h120v120H0z"/></svg>