<svg version="1.0" xmlns="http://www.w3.org/2000/svg" width="758.667" height="137.333" viewBox="0 0 569 103"><path d="M16.2 3.1C5.3 8.5 0 17.4 0 30.5c0 9.4 2.5 16 8.4 21.8 5.6 5.7 11 8 19.7 8.5 10.9.6 16.8-1.5 24-8.7 6.5-6.5 8.9-12.4 8.9-21.6 0-8.4-2.3-14.5-7.8-20.6C46.7 2.6 40.7 0 30.4 0c-7 0-8.9.4-14.2 3.1zM39.3 23c3.1 3.5 3.6 8.4 1.2 13-2.1 4.1-5.3 6-10.1 6-8.1 0-14-8.2-11.1-15.2 3.8-8.9 13.6-10.8 20-3.8zM359.8 1.9c-8.2 2.6-13.5 6.1-19.9 12.7-6.5 6.9-10.3 14.3-12.4 23.9-4.2 19.8 1 38.9 13.9 51.3 10.9 10.5 19.9 13.6 37.5 13 10.5-.4 12.3-.7 18.4-3.5 7.6-3.6 16.6-11.6 20.4-18.1 2.5-4.2 6.3-15 6.3-17.8 0-1.1-2.2-1.4-10.7-1.4h-10.8l-1.9 4.7c-4.4 10.7-12.4 15.7-25.1 15.7-8.9 0-12.6-1.4-18.3-6.8-4.6-4.3-7-9.2-8.4-17.5-2.7-15.6 3.3-29.5 15.2-35.7 4.5-2.4 17.9-2.5 23.1-.2 5.7 2.5 10.5 7.4 13 13.3l2.4 5.5h10.8c12.2 0 11.7.5 8.8-8.9-2.6-8.3-6-13.7-12.3-19.8C400.1 3.2 391.2 0 375.5.1c-6.8 0-11.8.6-15.7 1.8zM79 51.5v50.7l24.8-.4c22.5-.4 25.3-.6 31.2-2.7 21.3-7.4 34.3-25.4 34.3-47.6 0-21.9-12.9-40-33.8-47.6-5.4-2-8.4-2.3-31.2-2.7L79 .8v50.7zm48.9-28.9c7.4 2.2 15.1 9.8 18.1 17.9 5.4 14.5-.9 31.3-14.4 38.3-4.6 2.4-6.4 2.7-17.8 3l-12.8.4V21h10.8c6.9 0 12.7.6 16.1 1.6zm78.2-19.4c-4.3 12-33.1 96.8-33.1 97.7 0 .8 3 1.1 11.2.9l11.1-.3 3.5-10.3 3.4-10.2h41.4l3.4 10.5 3.4 10.5h11.3c6.2 0 11.3-.2 11.3-.4 0-.5-32.4-96.1-33.5-98.9-.6-1.5-2.4-1.7-16.6-1.7-15.6 0-16 0-16.8 2.2zm24.7 38.5l7 21.3h-15c-11.6 0-14.9-.3-14.5-1.3l7.3-21.9c3.8-11.4 7.1-20.4 7.5-20 .4.4 3.8 10.3 7.7 21.9zm57.2 9.8V102h21V1h-21v50.5zm152 0V102h22V60h43v42h22V1h-22v41h-43V1h-22v50.5zm108 0V102h21V1h-21v50.5z"/></svg>