<svg xmlns="http://www.w3.org/2000/svg" width="1170" height="180" viewBox="0 0 1170 180"><defs><style>.a{fill:none;}.b{fill:#1a1818;}.c{fill:#191717;}.d{fill:#00adef;}.e{fill:red;}</style></defs><g transform="translate(-708.114 -751.89)"><rect class="a" width="1170" height="179.786" transform="translate(708.114 751.89)"/><path class="b" d="M1011.506,879.38h-.2a25.6,25.6,0,0,1-3.082-51.018,19.914,19.914,0,0,1,23.1-16.113q.613.109,1.22.257a29.115,29.115,0,0,1,48.709,14.084,18.183,18.183,0,0,1,22.5,16.255,18.17,18.17,0,0,1-.863,36.28l-.486.012-.326-.006C1101.226,879.134,1013.176,879.38,1011.506,879.38Zm16.316-64.564a17.011,17.011,0,0,0-16.908,15.035l-.137,1.18-1.187.088A22.724,22.724,0,0,0,1011.3,876.5h.209c1.721.073,89.71-.244,90.6-.247l.293.007.443-.009a15.3,15.3,0,0,0-.483-30.584h-1.44v-1.438a15.3,15.3,0,0,0-20.3-14.458l-1.595.549-.3-1.655a26.232,26.232,0,0,0-44.724-13.56l-.6.625-.836-.241a17.107,17.107,0,0,0-4.754-.677Z"/><path class="b" d="M1016.334,863.74a3.7,3.7,0,0,0,1.3-.887,4.387,4.387,0,0,0,1.132-2.958,4.269,4.269,0,0,0-.3-1.642,4.1,4.1,0,0,0-.829-1.322,4.012,4.012,0,0,0-1.3-.905,4.455,4.455,0,0,0-1.7-.318h-2.4v8.374h2.4a4.153,4.153,0,0,0,1.7-.341m-1.7-10.543a7.171,7.171,0,0,1,2.7.509,6.991,6.991,0,0,1,2.191,1.435,6.613,6.613,0,0,1,0,9.5,6.642,6.642,0,0,1-2.191,1.415,6.848,6.848,0,0,1-2.7.526h-5.136V853.2Z"/><rect class="b" width="2.738" height="13.39" transform="translate(1037.586 853.197)"/><path class="b" d="M1053.086,861.336a3.547,3.547,0,0,1-3.693,2.837c-2.857,0-3.769-2.21-3.769-4.281s.912-4.282,3.769-4.282a3.546,3.546,0,0,1,3.693,2.838h2.8a6.233,6.233,0,0,0-6.394-5.477,6.925,6.925,0,0,0,0,13.844,6.235,6.235,0,0,0,6.394-5.479Z"/><rect class="b" width="2.738" height="13.39" transform="translate(1072.747 853.197)"/><path class="b" d="M1060.938,853.2v5.44h6.023V853.2h2.738v13.391h-2.738v-5.554h-6.023v5.554H1058.2V853.2Z"/><path class="b" d="M1002.822,858.744a1.681,1.681,0,1,1,1.682-1.683,1.682,1.682,0,0,1-1.682,1.683m0-5.774a4.092,4.092,0,1,0,4.1,4.09,4.092,4.092,0,0,0-4.1-4.09h0"/><rect class="b" width="6.534" height="2.359" transform="translate(1025.587 861.487)"/><path class="b" d="M1026.691,853.2l-4.615,13.391h2.9l4.441-13.391Z"/><path class="b" d="M1028.175,853.2l4.4,13.391h2.907L1030.9,853.2Z"/><rect class="a" width="180" height="179.786" transform="translate(963.114 751.89)"/><path class="a" d="M1241.929,866.443l.021,3.8,7.816-1.924-.025-4.07Z"/><path class="a" d="M1241.886,859.44l.02,3.549,7.815-2.2-.019-3.783Z"/><path class="a" d="M1241.842,851.89l.022,4.044,7.819-2.433-.025-4.4Z"/><path class="a" d="M1241.974,873.642l.025,4.067,7.81-1.551-.025-4.437Z"/><path class="a" d="M1230.947,903.527l.02,3.359h6.4l-.024-3.7Z"/><path class="a" d="M1254.621,851.962l9.955-3.1v-5.08l-9.98,3.558Z"/><path class="a" d="M1242.017,881.051l.023,3.813,7.813-1.1-.024-4.266Z"/><path class="a" d="M1242.146,902.925l.025,3.961h7.809l-.025-4.377Z"/><path class="a" d="M1230.9,896.585l.025,3.7,6.4-.341-.025-3.957Z"/><path class="a" d="M1242.06,888.148l.025,4.145,7.811-.727-.027-4.515Z"/><path class="a" d="M1242.1,895.544l.027,4.148,7.809-.417-.027-4.458Z"/><path class="a" d="M1266.388,834.982l.25.083,25.127,8.41-25.427-9.285-32.846,12.171Z"/><path class="a" d="M1254.667,859.4l9.914-2.786v-4.24l-9.937,3.094Z"/><rect class="a" width="2.315" height="3.29" transform="translate(1305.422 903.153)"/><path class="a" d="M1267.016,839.44l.253.085,27.569,9.22v-3.309l-28.44-9.521-36.92,12.773.126,3.666,20.014-6.72-.011-.159.552-.027Z"/><rect class="a" width="2.315" height="3.29" transform="translate(1284.472 903.153)"/><path class="a" d="M1230.856,889.721l.025,3.614,6.4-.595-.025-3.918Z"/><path class="a" d="M1308.908,906.886h23.3l25.241-.286.4-28.616-23.732-20.41a107.036,107.036,0,0,0-30.036-2.568l-.58.027v-.011c-.927.045-1.76.051-1.8.051h-.137l-.122-.044-32.561-11.471v20.217a180.651,180.651,0,0,1,33.6-5.026l3.138-.129c12.074-.353,21.031.983,26.633,3.981l.237.127v2.553l-.93.7-.422-.29c-4.478-3.075-13.1-4.523-24.949-4.216l-.508.043-3.129.1c-12.685.677-26.425,3.129-33.674,5.241v5.727a274.527,274.527,0,0,1,33.6-4.418l3.136-.156c11.989-.488,20.95.6,26.606,3.213l.271.125v2.5l-.758.684-.456-.264c-4.634-2.668-13.492-3.826-25.591-3.343l-3.12.153a270.371,270.371,0,0,0-33.689,4.5v5.835a253.8,253.8,0,0,1,33.64-2.453l3.132-.012c11.761.027,21.16.878,26.471,2.395l.37.106v3.2l-.843-.3c-4.519-1.593-13.75-2.483-26-2.5l-3.123.012a249.826,249.826,0,0,0-33.652,2.516v5.75c8.694-.973,21.193-1.626,33.64-1.755l3.131-.021c11.47-.048,20.876.419,26.378,1.269l.464.07v2.991l-.721-.124c-5.181-.89-14.485-1.363-26.114-1.324l-3.124.021c-12.365.131-25.188.822-33.654,1.808v5.522c4.172-.005,9.864-.065,16.3-.134h.154c5.437-.062,11.325-.129,17.188-.17l3.128-.021c11.892-.063,20.237.022,26.281.265h1.382v2.9l-2.817-.049c-5.832-.2-13.961-.273-24.837-.217l-3.126.02c-5.461.037-10.945.1-16.062.15l-1.225.013c-7.593.1-12.678.14-16.367.142v5.407l14.426-.019V902.3h4.658v4.581l16.291-.019V902.3h4.658Z"/><path class="a" d="M1230.815,883.272l.021,3.165,6.4-.9-.024-3.533Z"/><path class="a" d="M1230.77,876.4l.022,3.535,6.4-1.269-.02-3.84Z"/><path class="a" d="M1230.681,862.927l.021,3.21,6.4-1.8-.019-3.4Z"/><path class="a" d="M1230.634,855.884l.025,3.54,6.406-1.995-.025-3.83Z"/><path class="a" d="M1230.723,869.595l.025,3.4,6.4-1.575-.022-3.627Z"/><path class="a" d="M1226.159,884.195l-4.351.863.012,2.644,4.358-.613Z"/><path class="a" d="M1226.027,864.377l-4.309,1.341.014,2.943,4.316-1.214Z"/><path class="a" d="M1254.931,906.886h9.646v-5.158l-9.672.517Z"/><path class="a" d="M1264.58,873.23v-5.147l-9.852,2.422.027,4.674Z"/><path class="a" d="M1225.979,857.541l-4.294,1.533.015,3.137,4.3-1.34Z"/><path class="a" d="M1264.58,881.7v-5.124l-9.806,1.943.026,4.552Z"/><path class="a" d="M1264.579,898.492v-5.041l-9.717.905.025,4.653Z"/><path class="a" d="M1226.072,870.9l-4.323,1.215.014,3.087,4.33-1.065Z"/><path class="a" d="M1226.288,903.775l-4.389.234.009,2.877h4.4Z"/><path class="a" d="M1254.711,867.1l9.869-2.427v-4.6l-9.893,2.783Z"/><path class="a" d="M1357.437,907.453l-25.216.282H1267.7v-7.1h.586c3.848,0,9.031-.044,16.936-.141l1.224-.015c5.12-.053,10.6-.111,16.068-.149l3.128-.019c11.254-.058,19.575.019,25.463.237l1.03.027v-1.2h-.244c-6.055-.245-14.373-.332-26.24-.266l-3.126.021c-5.859.042-11.747.108-17.182.171h-.152c-6.75.074-12.683.134-16.9.135h-.586v-7.09l.49-.06c8.635-1.04,21.466-1.742,34.321-1.877l3.131-.021c11.257-.039,20.293.4,25.671,1.229v-1.233c-5.481-.792-14.6-1.226-25.664-1.18l-3.124.021c-12.719.133-25.484.813-34.146,1.821l-.679.081V883.7l.459-.074a249.654,249.654,0,0,1,34.352-2.607l3.132-.012c11.718.019,20.758.839,25.67,2.314v-1.281c-5.24-1.414-14.327-2.205-25.667-2.233l-3.124.012a253.533,253.533,0,0,0-34.113,2.543l-.71.111v-7.539l.437-.083a273.346,273.346,0,0,1,34.335-4.61l3.136-.153c12.023-.479,20.656.583,25.706,3.154v-1.419c-5.458-2.424-14.089-3.423-25.633-2.959l-3.12.155a275.485,275.485,0,0,0-34.126,4.532l-.734.139V866.3l.363-.109c7.231-2.163,21.375-4.717,34.412-5.412l3.148-.134c12.1-.373,20.725.987,25.69,4.029V863.16c-5.4-2.792-14.021-4.033-25.642-3.691l-3.12.128a179.341,179.341,0,0,0-34.058,5.187l-.793.219V842.2l34.111,12.021c.346,0,1.292-.022,2.159-.083l.6-.041v.034a108.139,108.139,0,0,1,28.169,2.266l-.435-.373a99.829,99.829,0,0,0-28.481-2.731l-.386.015-7.69-2.809v-.514l-28.726-9.607-16.595,5.914-21.7,7.285.044,1.688-7.684,2.838v.229l6.044-2.155.032,5.25-6.053,1.884.008,1.662,6.058-1.886.033,4.937-6.069,1.706.008,1.638,6.072-1.707.033,5.083-6.082,1.494.007,1.614,6.085-1.5.033,5.144-6.1,1.208.007,1.584,6.1-1.209.031,4.7-6.11.861.007,1.558,6.109-.859.037,5.169-6.123.569.007,1.547,6.13-.571.03,5.271-6.136.324.007,1.535,6.136-.328.037,4.873h-6.152l0,.708h-2.445v3.145h148.446v-3.145h-9.913Zm-127.979-52.1,8.744-3.117.038,5.747-8.746,2.721Zm.048,7.012,8.744-2.721.031,5.27-8.742,2.457Zm.043,6.646,8.742-2.46.034,5.472-8.739,2.149Zm.046,6.774,8.74-2.149.032,5.668-8.737,1.734Zm.045,6.836,8.736-1.731.034,5.342-8.742,1.228Zm.042,6.4,8.737-1.227.033,5.691-8.738.813Zm.044,6.817,8.738-.813.032,5.709-8.737.468Zm.074,11.9-.032-5,8.737-.468.033,5.468Zm10.867-56.373,10.155-3.621.036,6.317-10.158,3.163Zm.045,7.52,10.155-3.161.03,5.65-10.153,2.856Zm.042,6.981,10.152-2.855.037,5.915-10.156,2.5Zm.046,7.171,10.153-2.5.032,6.266-10.153,2.019Zm.042,7.37,10.153-2.014.032,6.076-10.155,1.425Zm.044,7.045,10.151-1.425.034,6.288-10.153.945Zm.044,7.349,10.15-.946.034,6.21-10.15.543Zm.073,12.937-.032-5.6,10.15-.543.034,6.143Zm12.419-60.922,12.325-4.394v7l-12.29,3.83Zm.047,8.1,12.281-3.823V857.2l-12.247,3.443Zm.042,7.364,12.238-3.442v6.447l-12.207,3Zm.131,23.382,12.108-1.7v6.987l-12.071,1.124Zm.122,22.077-.034-6.278,12.018-.644v6.922Zm11.986-8.455-12.03.643-.032-6.313,12.062-1.123Zm0-16.879-12.118,1.7-.034-6.226,12.152-2.41Zm0-8.525-12.161,2.413-.039-6.392,12.2-3Z"/><path class="a" d="M1226.24,897.02l-4.374.407.015,3.345,4.383-.233Z"/><path class="a" d="M1226.2,890.375l-4.363.612.015,3.188,4.369-.406Z"/><path class="a" d="M1226.117,877.541l-4.339,1.066.016,3.111,4.343-.862Z"/><path class="a" d="M1254.846,891.1l9.734-.9v-5.214l-9.762,1.365Z"/><path class="b" d="M1360.473,906.181l.4-29.033L1334.46,854.43l-.39-.332-.557-.153a103.091,103.091,0,0,0-29.441-2.921l-5.3-1.935V843.52l-31.249-11.409-1.078-.483-39.555,14.658-1.345.573.187,7.013-7.654,2.828.231,49.48h-2.434v7.67h84.132l4.206.016,66.139-.015v-7.67Zm-56.231-3.876v4.562l-16.291.019V902.3h-4.658v4.563l-14.426.019V901.48c3.689,0,8.774-.042,16.367-.142l1.225-.013c5.117-.05,10.6-.113,16.062-.15l3.126-.02c10.876-.056,19.005.017,24.837.217l2.817.049v-2.9h-1.382c-6.044-.243-14.389-.328-26.281-.265l-3.128.021c-5.863.041-11.751.108-17.188.17h-.154c-6.436.069-12.128.129-16.3.134v-5.522c8.466-.986,21.289-1.677,33.654-1.808l3.124-.021c11.629-.039,20.933.434,26.114,1.324l.721.124v-2.991l-.464-.07c-5.5-.85-14.908-1.317-26.378-1.269l-3.131.021c-12.447.129-24.946.782-33.64,1.755v-5.75a249.826,249.826,0,0,1,33.652-2.516l3.123-.012c12.25.017,21.481.907,26,2.5l.843.3v-3.2l-.37-.106c-5.311-1.517-14.71-2.368-26.471-2.395l-3.132.012a253.8,253.8,0,0,0-33.64,2.453V875.58a270.371,270.371,0,0,1,33.689-4.5l3.12-.153c12.1-.483,20.957.675,25.591,3.343l.456.264.758-.684v-2.5l-.271-.125c-5.656-2.613-14.617-3.7-26.606-3.213l-3.136.156a274.527,274.527,0,0,0-33.6,4.418v-5.727c7.249-2.112,20.989-4.564,33.674-5.241l3.129-.1.508-.043c11.844-.307,20.471,1.141,24.949,4.216l.422.29.93-.7v-2.553l-.237-.127c-5.6-3-14.559-4.334-26.633-3.981l-3.138.129a180.651,180.651,0,0,0-33.6,5.026V843.558l32.561,11.471.122.044h.137c.04,0,.873-.006,1.8-.051v.011l.58-.027a107.036,107.036,0,0,1,30.036,2.568l23.732,20.41-.4,28.616-25.241.286h-23.3l-.008-4.581Zm3.5.848v3.29h-2.315v-3.29Zm-20.95,0v3.29h-2.315v-3.29Zm-37.169-57.519-20.014,6.72-.126-3.666,36.92-12.773,28.44,9.521v3.309l-27.569-9.22-.253-.085-16.857,6.008-.552.027Zm42.147-2.159-25.127-8.41-.25-.083-32.9,11.379,32.846-12.171Zm75.571,68.113H1218.89v-3.145h2.445l0-.708h6.152l-.037-4.873-6.136.328-.007-1.535,6.136-.324-.03-5.271-6.13.571-.007-1.547,6.123-.569-.037-5.169-6.109.859-.007-1.558,6.11-.861-.031-4.7-6.1,1.209-.007-1.584,6.1-1.208-.033-5.144-6.085,1.5-.007-1.614,6.082-1.494-.033-5.083-6.072,1.707-.008-1.638,6.069-1.706-.033-4.937-6.058,1.886-.008-1.662,6.053-1.884-.032-5.25-6.044,2.155v-.229l7.684-2.838-.044-1.688,21.7-7.285,16.595-5.914,28.726,9.607v.514l7.69,2.809.386-.015a99.829,99.829,0,0,1,28.481,2.731l.435.373a108.139,108.139,0,0,0-28.169-2.266V854.1l-.6.041c-.867.061-1.813.083-2.159.083L1267.71,842.2V865l.793-.219a179.341,179.341,0,0,1,34.058-5.187l3.12-.128c11.621-.342,20.242.9,25.642,3.691v1.512c-4.965-3.042-13.59-4.4-25.69-4.029l-3.148.134c-13.037.7-27.181,3.249-34.412,5.412l-.363.109v7.393l.734-.139a275.485,275.485,0,0,1,34.126-4.532l3.12-.155c11.544-.464,20.175.535,25.633,2.959v1.419c-5.05-2.571-13.683-3.633-25.706-3.154l-3.136.153a273.346,273.346,0,0,0-34.335,4.61l-.437.083v7.539l.71-.111a253.533,253.533,0,0,1,34.113-2.543l3.124-.012c11.34.028,20.427.819,25.667,2.233v1.281c-4.912-1.475-13.952-2.3-25.67-2.314l-3.132.012a249.654,249.654,0,0,0-34.352,2.607l-.459.074v7.426l.679-.081c8.662-1.008,21.427-1.688,34.146-1.821l3.124-.021c11.064-.046,20.183.388,25.664,1.18v1.233c-5.378-.829-14.414-1.268-25.671-1.229l-3.131.021c-12.855.135-25.686.837-34.321,1.877l-.49.06v7.09h.586c4.217,0,10.15-.061,16.9-.135h.152c5.435-.063,11.323-.129,17.182-.171l3.126-.021c11.867-.066,20.185.021,26.24.266h.244v1.2l-1.03-.027c-5.888-.218-14.209-.295-25.463-.237l-3.128.019c-5.468.038-10.948.1-16.068.149l-1.224.015c-7.905.1-13.088.141-16.936.141h-.586v7.1h64.516l25.216-.282-.014.99h9.913ZM1221.9,904.009l4.389-.234.02,3.111h-4.4Zm-.033-6.582,4.374-.407.024,3.519-4.383.233Zm-.031-6.44,4.363-.612.021,3.394-4.369.406Zm-.027-5.929,4.351-.863.019,2.894-4.358.613Zm-.03-6.451,4.339-1.066.02,3.315-4.343.862Zm-.029-6.49,4.323-1.215.021,3.237-4.33,1.065Zm-.031-6.4,4.309-1.341.021,3.07-4.316,1.214Zm-.032-6.644,4.293-1.533.021,3.33-4.3,1.34Z"/><path class="b" d="M1229.768,902.735l.032,5h8.738l-.033-5.468Zm1.2,4.151-.02-3.359,6.391-.341.024,3.7Z"/><path class="b" d="M1265.75,851.089l-12.281,3.823.034,5.727,12.247-3.443Zm-1.17,5.527-9.913,2.786-.023-3.932,9.936-3.094Z"/><path class="b" d="M1265.747,842.419l-12.325,4.394.035,6.436,12.29-3.83Zm-1.171,6.443-9.955,3.1-.025-4.622,9.98-3.558Z"/><path class="b" d="M1238.2,852.24l-8.744,3.117.036,5.351,8.746-2.721Zm-7.544,7.184-.024-3.54,6.406-2.285.024,3.83Z"/><path class="b" d="M1265.749,858.834l-12.238,3.442.031,6.007,12.207-3Zm-1.169,5.839-9.869,2.427-.024-4.244,9.893-2.783Z"/><path class="b" d="M1251.037,886.024l-10.151,1.425.032,5.808,10.153-.945Zm-8.952,6.269-.025-4.145,7.809-1.1.027,4.515Z"/><path class="b" d="M1251.08,893.852l-10.15.946.034,5.807,10.15-.543Zm-8.949,5.84-.027-4.148,7.809-.727.027,4.458Z"/><path class="b" d="M1253.633,884.1l12.118-1.7v-6.936l-12.152,2.41Zm10.947-7.523V881.7l-9.78,1.371-.026-4.552Z"/><path class="b" d="M1253.592,876.289l12.161-2.413V866.9l-12.2,3Zm10.988-8.206v5.147l-9.825,1.949-.027-4.674Z"/><path class="b" d="M1253.73,901.457l.034,6.278h11.984v-6.922Zm10.847,5.429h-9.646l-.026-4.641,9.672-.517Z"/><path class="b" d="M1253.72,899.923l12.03-.643v-6.793l-12.062,1.123Zm10.859-6.472v5.041l-9.692.517-.025-4.653Z"/><path class="b" d="M1265.75,883.958l-12.108,1.7.037,6.411,12.071-1.124Zm-1.17,6.247-9.734.9-.028-4.749,9.762-1.365Z"/><path class="b" d="M1240.971,902.135l.032,5.6h10.152l-.034-6.143Zm1.2,4.751-.025-3.961,7.809-.416.025,4.377Z"/><path class="b" d="M1238.376,880.894l-8.736,1.731.028,4.839,8.742-1.228Zm-7.54,5.543-.021-3.165,6.4-1.268.024,3.533Z"/><path class="b" d="M1238.335,873.64l-8.74,2.149.035,5.253,8.737-1.734Zm-7.543,6.292-.022-3.535,6.4-1.574.02,3.84Z"/><path class="b" d="M1238.291,866.555l-8.742,2.46.037,5.161,8.739-2.149Zm-7.543,6.44-.025-3.4,6.4-1.8.022,3.627Z"/><path class="b" d="M1238.25,859.648l-8.744,2.721.033,5.006,8.742-2.457Zm-7.548,6.489-.021-3.21,6.4-1.99.019,3.4Z"/><path class="b" d="M1238.419,887.795l-8.737,1.227.032,5.277,8.738-.813Zm-7.538,5.54-.025-3.614,6.4-.9.025,3.918Z"/><path class="b" d="M1250.906,863.008l-10.152,2.855.033,5.559,10.156-2.5Zm-8.956,7.235-.021-3.8,7.812-2.194.025,4.07Z"/><path class="b" d="M1238.464,895.026l-8.738.813.033,5.364,8.737-.468Zm-7.537,5.259-.025-3.7,6.4-.6.025,3.957Z"/><path class="b" d="M1250.953,870.534l-10.153,2.5.032,5.785,10.153-2.019ZM1242,877.709l-.025-4.067,7.81-1.921.025,4.437Z"/><path class="b" d="M1250.995,878.39l-10.153,2.014.03,5.487,10.155-1.425Zm-8.955,6.474-.023-3.813,7.812-1.553.024,4.266Z"/><path class="b" d="M1250.867,855.721l-10.155,3.161.032,5.345,10.153-2.856Zm-8.961,7.268-.02-3.549,7.816-2.434.019,3.783Z"/><path class="b" d="M1250.822,847.741l-10.155,3.621.033,5.859,10.158-3.163Zm-8.958,8.193-.022-4.044,7.815-2.789.025,4.4Z"/><rect class="a" width="180" height="180" transform="translate(1203.114 751.89)"/><path class="a" d="M1279.242,791.726a6.588,6.588,0,0,0-.02,13.176,6.709,6.709,0,0,0,1.176-.1v-12.97a6.58,6.58,0,0,0-1.156-.1Z"/><path class="c" d="M1315.438,795.69a8.835,8.835,0,0,0-6.349-5.963v-5.294a15.4,15.4,0,0,0-30.8,0v5.081a8.851,8.851,0,1,0,3.572,17.255l.8-.248v-16.41l-.8-.248a8.7,8.7,0,0,0-1.315-.3v-5.13a13.14,13.14,0,0,1,26.28,0v5.038a8.808,8.808,0,0,0-2.463.392l-.8.247v16.406l.8.248a8.807,8.807,0,0,0,2.2.368,13.164,13.164,0,0,1-7.132,9.186,3.721,3.721,0,0,0-3.3-2.037H1292.1a3.735,3.735,0,0,0-3.731,3.73v1.56a3.735,3.735,0,0,0,3.731,3.729h4.028a3.732,3.732,0,0,0,3.729-3.729v-.949a15.421,15.421,0,0,0,9.024-11.69c.243-.054.489-.093.727-.167A8.849,8.849,0,0,0,1315.438,795.69ZM1280.4,804.8a6.709,6.709,0,0,1-1.176.1,6.588,6.588,0,0,1,.02-13.176h0a6.58,6.58,0,0,1,1.156.1Zm17.2,13.213v1.56a1.469,1.469,0,0,1-1.467,1.467H1292.1a1.47,1.47,0,0,1-1.468-1.467v-1.56a1.469,1.469,0,0,1,1.468-1.467h4.028A1.468,1.468,0,0,1,1297.6,818.011Zm8.232-13.21V791.828a6.5,6.5,0,0,1,1.165-.1,6.588,6.588,0,1,1-.009,13.176A6.8,6.8,0,0,1,1305.83,804.8Z"/><g transform="translate(1467.537 850.049)"><path class="a" d="M1489.4,868.426l8.112,8.061.2,4.731-7.829-1.658Z" transform="translate(-1388.634 -850.049)"/><path class="a" d="M1483.756,898.246v-1.138H1470.49v-5.064h1.9a1.033,1.033,0,0,0,1.024-1.037V878.146a1.032,1.032,0,0,0-1.024-1.038h-1.9v-.683c-.006-.194-.46-14.493,3.7-23.345a.284.284,0,0,1,.257-.149h70.821a20.6,20.6,0,0,1,14.341,5.765l4.777,4.587a10.4,10.4,0,0,0-5.482-1.555h-3.731a1.506,1.506,0,0,0-1.508,1.5c0,.051,0,.1.008.153l1.123,11.737a3.633,3.633,0,0,0,2.871,3.223l10.078,2.14v.005l9.132,1.933,0,.032,7.212,1.513.559-1.019-7.14-7.025-1.088-1.081,4.066,3.9a4.719,4.719,0,0,0,1.024.75l11.592,6.347a1.964,1.964,0,0,1,.274.194l-.451.029h0a.638.638,0,0,0-.5.973c.638,1.07,1.329,2.106,2.048,3.122l.431,3.492a2.712,2.712,0,0,0,.692,1.5l-1.193,4.028a2.646,2.646,0,0,1-1.337,1.6,11.5,11.5,0,0,0-11.65-10.017c-6.455,0-11.706,4.977-11.706,11.1,0,.278-.009.764-.02,1.241V903.1h-61.05c0-.458-.007-.9-.007-1.244,0-.06-.009-.118-.01-.178h58.4V900.54h-58.481a11.518,11.518,0,0,0-11.616-9.784c-6.454,0-11.705,4.977-11.705,11.1v.626l-14.731-3.75v-.486Zm24.25,0h59.017v-1.138h-59.017Zm50.175-38.293c.739,0,1.334-.3,1.334-.669s-.595-.666-1.334-.666h-84.436c-.738,0-1.335.3-1.335.666s.6.669,1.335.669Z" transform="translate(-1467.59 -850.049)"/><path class="a" d="M1593.8,888.76v-.579h1.66l.123-.122v.824l-.123-.123Z" transform="translate(-1590.896 -850.049)"/><path class="a" d="M1502.342,877.228a2.5,2.5,0,0,1-1.975-2.217l-1.123-11.74a.37.37,0,0,1,.33-.408l.038,0h3.731a9.281,9.281,0,0,1,6.609,2.736l.76.76.553,12.771Z" transform="translate(-1412.029 -850.049)"/><path class="a" d="M1593.8,889.709h1.66l.123-.124v1.321H1593.8Z" transform="translate(-1590.896 -850.049)"/><path class="a" d="M1595.456,887.234h-1.66v-2.657h1.783v2.78Z" transform="translate(-1590.896 -850.049)"/><rect class="a" width="1.783" height="3.096" transform="translate(2.9 28.196)"/><path class="b" d="M1471.533,851.849a3.167,3.167,0,0,1,2.859-1.8h70.818a23.466,23.466,0,0,1,16.331,6.567l20.885,20.053a1.927,1.927,0,0,0,.406.3l11.6,6.349a4.868,4.868,0,0,1,2.493,3.665l.73,6.213a2.408,2.408,0,0,1,.726,2.492l-1.275,4.3a5.533,5.533,0,0,1-3.512,3.656l-.618.212a2.108,2.108,0,0,1-2.786-2c0-4.534-3.96-8.22-8.829-8.22s-8.83,3.686-8.83,8.22c0,.5-.024,1.62-.04,2.25a1.923,1.923,0,0,1-1.913,1.871h-62.947a1.919,1.919,0,0,1-1.91-1.893c-.008-.769-.018-1.635-.018-2.235,0-4.534-3.961-8.22-8.828-8.22s-8.83,3.686-8.83,8.22v1.9a1.884,1.884,0,0,1-2.346,1.835l-16.216-4.128a2.538,2.538,0,0,1-1.922-2.466V876.468C1467.54,875.855,1467.075,861.335,1471.533,851.849Zm93.928,13.748a9.281,9.281,0,0,0-6.609-2.736h-3.731l-.038,0a.37.37,0,0,0-.33.408l1.123,11.74a2.5,2.5,0,0,0,1.975,2.217l8.923,1.9-.553-12.771Zm12.559,12.792.137,2.925,3.575.748Zm-1.6-1.9-8.112-8.061.483,11.134,7.829,1.658Zm-91.247,26v-.626c0-6.123,5.251-11.1,11.705-11.1a11.518,11.518,0,0,1,11.616,9.784h58.481v1.138h-58.4c0,.06.01.118.01.178,0,.344.007.786.007,1.244h61.05v.005c.011-.477.019-.963.02-1.241,0-6.123,5.251-11.1,11.706-11.1a11.5,11.5,0,0,1,11.65,10.017,2.646,2.646,0,0,0,1.337-1.6l1.193-4.028a2.712,2.712,0,0,1-.692-1.5l-.431-3.492c-.719-1.016-1.41-2.052-2.048-3.122a.638.638,0,0,1,.5-.973h0l.451-.029a1.964,1.964,0,0,0-.274-.194l-11.592-6.347a4.719,4.719,0,0,1-1.024-.75l-4.066-3.9,1.088,1.081,7.14,7.025-.559,1.019-7.212-1.513,0-.032-9.132-1.933v-.005l-10.078-2.14a3.633,3.633,0,0,1-2.871-3.223l-1.123-11.737c-.005-.051-.008-.1-.008-.153a1.506,1.506,0,0,1,1.508-1.5h3.731a10.4,10.4,0,0,1,5.482,1.555l-4.777-4.587a20.6,20.6,0,0,0-14.341-5.765h-70.821a.284.284,0,0,0-.257.149c-4.16,8.852-3.706,23.151-3.7,23.345v.683h1.9a1.032,1.032,0,0,1,1.024,1.038v12.861a1.033,1.033,0,0,1-1.024,1.037h-1.9v5.064H1483.7v1.138h-13.266v.486Zm-12.948-14.423-.123.122h-1.66v.579h1.66l.123.123Zm-1.783-6.718h1.783v-3.1h-1.783Zm0,3.236v2.657h1.66l.123.123v-2.78Zm1.783,5.008-.123.124h-1.66v1.2h1.783Z" transform="translate(-1467.537 -850.049)"/><path class="b" d="M1506.553,859.284c0-.366.6-.666,1.335-.666h84.436c.739,0,1.334.3,1.334.666s-.595.669-1.334.669h-84.436C1507.153,859.953,1506.553,859.65,1506.553,859.284Z" transform="translate(-1501.733 -850.049)"/><path class="b" d="M1569.3,893.752h0a8.62,8.62,0,1,1-8.621,8.619A8.62,8.62,0,0,1,1569.3,893.752Zm0,13.516a4.893,4.893,0,1,0-4.9-4.891A4.893,4.893,0,0,0,1569.3,907.268Z" transform="translate(-1540.116 -850.049)"/><path class="b" d="M1569.3,899.844a2.528,2.528,0,1,1-2.528,2.528A2.528,2.528,0,0,1,1569.3,899.844Z" transform="translate(-1540.116 -850.049)"/><path class="b" d="M1484.57,893.752h0a8.62,8.62,0,1,1-8.621,8.619A8.62,8.62,0,0,1,1484.572,893.752Zm0,13.518a4.894,4.894,0,1,0-4.9-4.893A4.894,4.894,0,0,0,1484.573,907.27Z" transform="translate(-1370.664 -850.049)"/><path class="b" d="M1484.572,899.844a2.527,2.527,0,1,1-2.528,2.528A2.527,2.527,0,0,1,1484.572,899.844Z" transform="translate(-1370.664 -850.049)"/><rect class="b" width="59.017" height="1.138" transform="translate(40.416 47.059)"/></g><rect class="a" width="179.786" height="179.786" transform="translate(1443.114 752.104)"/><path class="b" d="M1520,821.053a10.7,10.7,0,0,1-3.133-.473l-1.8-.554,6.727-6.718-.977-3.646-3.651-.978-6.728,6.717-.554-1.793a10.533,10.533,0,0,1,2.625-10.586,10.679,10.679,0,0,1,8.548-3.038h0l.236.03.134.017.189.025a4.51,4.51,0,0,0,3.823-1.282l9.907-9.894a4.5,4.5,0,0,0,1.283-3.818l-.076-.555.007-.007a10.569,10.569,0,0,1,13.641-11.159l1.792.553-6.723,6.718.976,3.649,3.653.975,6.727-6.716.554,1.79a10.527,10.527,0,0,1-2.625,10.586,10.675,10.675,0,0,1-8.3,3.062l-.009.016-.8-.109a4.492,4.492,0,0,0-3.768,1.23l-10.013,10a4.484,4.484,0,0,0-1.228,3.758,10.573,10.573,0,0,1-8.818,12.074,10.7,10.7,0,0,1-1.619.126Zm-.478-2.275a8.2,8.2,0,0,0,6.341-2.419,8.316,8.316,0,0,0,2.332-7.174,6.765,6.765,0,0,1,1.85-5.668l10.046-10.033a6.616,6.616,0,0,1,4.837-1.923l.032-.062.818.127a8.31,8.31,0,0,0,9.606-8.664l-4.8,4.8-6.178-1.651-1.653-6.171,4.8-4.8a8.309,8.309,0,0,0-8.673,9.59l.09.568-.035.034a6.73,6.73,0,0,1-1.979,5.144l-9.908,9.9a6.672,6.672,0,0,1-5.151,1.977l-.032.032-.572-.086a8.3,8.3,0,0,0-9.6,8.664l4.8-4.794,6.176,1.654,1.653,6.168Zm29.9,1.241a3.676,3.676,0,0,1-2.609-1.074h0l-9.344-9.331.632-.632a5.626,5.626,0,0,0-1.543-2.277,7.139,7.139,0,0,0-1.87-1.39l-1.46-.684,7.986-7.974.683,1.46a7.239,7.239,0,0,0,1.391,1.869,5.669,5.669,0,0,0,2.278,1.538l.632-.634,9.344,9.335a3.686,3.686,0,0,1,0,5.209l-3.515,3.51A3.657,3.657,0,0,1,1549.426,820.019Zm-1.01-2.675a1.468,1.468,0,0,0,2.015,0l3.516-3.511a1.424,1.424,0,0,0,0-2.014l-8.042-8.033c-.069.007-.172.006-.215.011a6.527,6.527,0,0,1-4-2.218,11.373,11.373,0,0,1-1.024-1.179l-3.685,3.677a10.952,10.952,0,0,1,1.179,1.026c1.316,1.312,2.325,2.949,2.214,4.209Zm-20.272-22.366-8.327-8.319-4.32-1.924-3.855-6.36,3.286-3.287,6.369,3.853,1.926,4.313,8.328,8.317Zm-11.078-12.019,4.055,1.807,7.023,7.014.208-.208-7.024-7.014-1.809-4.049-4.245-2.567-.778.777Z"/><path class="b" d="M1550.633,815.37a.866.866,0,0,1-.624-.261l-7.889-7.886a.876.876,0,0,1-.008-1.239l.008-.008.453-.457a.89.89,0,0,1,1.249,0l7.9,7.887a.881.881,0,0,1,0,1.246l-.458.457A.87.87,0,0,1,1550.633,815.37Zm-7.413-9.25-.5.458,7.894,7.935a.047.047,0,0,0,.022.009l.482-.467Z"/><path class="a" d="M1802.376,886.574a.645.645,0,0,1-.051-1.289h6.987v-3.223h-72.157v3.223H1796.8a.645.645,0,0,1,.051,1.289h-59.692v2.9h72.157v-2.9Z"/><path class="a" d="M1813.452,849.6h-80.677a6.016,6.016,0,0,0-6.036,5.984v27.908a6.018,6.018,0,0,0,6.036,5.984h.951v-10.84h79.025l-.005,10.836h.706a6.017,6.017,0,0,0,6.036-5.984v-27.9A6.016,6.016,0,0,0,1813.452,849.6Zm-13.64,8.945h-28.52a.645.645,0,1,1-.051-1.289h28.52a.645.645,0,1,1,.051,1.289Zm11.362,0h-5.825a.645.645,0,1,1-.051-1.289h5.825a.645.645,0,0,1,.051,1.289Z"/><path class="c" d="M1813.452,846.169h-80.677a9.453,9.453,0,0,0-9.471,9.414v27.9a9.454,9.454,0,0,0,9.471,9.414h80.677a9.452,9.452,0,0,0,9.47-9.41V855.583A9.451,9.451,0,0,0,1813.452,846.169Zm-76.3,43.3v-2.9h59.692a.645.645,0,0,0-.051-1.289h-59.641v-3.223h72.157v3.223h-6.987a.645.645,0,0,0,.051,1.289h6.936v2.9Zm82.333-5.984a6.017,6.017,0,0,1-6.036,5.984h-.706l.005-10.836h-79.025v10.84h-.951a6.018,6.018,0,0,1-6.036-5.984V855.583a6.016,6.016,0,0,1,6.036-5.984h80.677a6.016,6.016,0,0,1,6.036,5.984Z"/><path class="c" d="M1785.132,895.9a.646.646,0,0,0-.646.646v10.118a.647.647,0,0,0,.646.645h0a.646.646,0,0,0,.641-.644V896.55A.645.645,0,0,0,1785.132,895.9Z"/><path class="c" d="M1751.817,895.8a.646.646,0,0,0-.814.414,23.682,23.682,0,0,1-2.229,4.836,31.7,31.7,0,0,1-3.947,5.182.645.645,0,0,0,.473,1.082h0a.647.647,0,0,0,.47-.206,33.054,33.054,0,0,0,4.105-5.394,25.026,25.026,0,0,0,2.352-5.1A.645.645,0,0,0,1751.817,895.8Z"/><path class="c" d="M1773.206,895.88a.645.645,0,0,0-.619.67v10.118a.647.647,0,0,0,.645.645h0a.646.646,0,0,0,.641-.644V896.55a.444.444,0,0,0,0-.051A.645.645,0,0,0,1773.206,895.88Z"/><path class="c" d="M1761.332,895.9a.646.646,0,0,0-.646.646v10.118a.647.647,0,0,0,.646.645h0a.646.646,0,0,0,.644-.644V896.55A.646.646,0,0,0,1761.332,895.9Z"/><path class="c" d="M1811.123,857.255H1805.3a.645.645,0,1,0,.051,1.289h5.825a.645.645,0,0,0-.051-1.289Z"/><path class="c" d="M1799.761,857.255h-28.52a.645.645,0,1,0,.051,1.289h28.52a.645.645,0,1,0-.051-1.289Z"/><path class="c" d="M1797.8,901.048a23.734,23.734,0,0,1-2.231-4.836l-.009-.03a.645.645,0,0,0-1.217.43,25.056,25.056,0,0,0,2.353,5.1,32.962,32.962,0,0,0,4.1,5.394.651.651,0,0,0,.472.207h0a.651.651,0,0,0,.436-.171.644.644,0,0,0,.037-.911A31.7,31.7,0,0,1,1797.8,901.048Z"/><rect class="a" width="180" height="179.786" transform="translate(1683.114 751.89)"/><path class="a" d="M1767.278,792.832H1761.4a.4.4,0,0,0-.389.388v11.2a.391.391,0,0,0,.389.388h5.879a.39.39,0,0,0,.39-.388v-11.2A.4.4,0,0,0,1767.278,792.832Z"/><path class="a" d="M1785.61,795.611l-.157-.557.045-.152a2.18,2.18,0,0,0-.025-1.413,1.683,1.683,0,0,0-1.427-1.213,6.428,6.428,0,0,0-.951-.026l-1.475.019-1.533-.01a1.149,1.149,0,0,1-.9-.375c-.35-.43-.232-1.03-.055-1.936a16.9,16.9,0,0,0,.365-4.569c-.072-1.208-.709-1.941-1.3-2.039a.681.681,0,0,0-.143-.013.939.939,0,0,0-.837.7,12.138,12.138,0,0,0-.485,1.575c-.444,1.742-1.568,4.917-4.089,6.616a5.886,5.886,0,0,1-2.957,1l-.085,11.25a9.536,9.536,0,0,1,3.445.852,8.244,8.244,0,0,0,3.741.776c1.176.007,2.348.011,3.528.005h2a1.733,1.733,0,0,0,1.549-.765,2.084,2.084,0,0,0,.277-1.823l-.047-.173.239-.609.193-.091a1.783,1.783,0,0,0,.991-1.2,2.175,2.175,0,0,0-.029-1.314l-.123-.365.305-.234a2.1,2.1,0,0,0,.8-1.776,3.287,3.287,0,0,0-.676-2.033Z"/><path class="a" d="M1792.625,779.769h-39.832a3.162,3.162,0,0,0-3.157,3.157V822.96a.162.162,0,1,0,.19.262.159.159,0,0,0,.067-.132l13.311-9.43h29.421a3.16,3.16,0,0,0,3.155-3.157V782.926A3.159,3.159,0,0,0,1792.625,779.769Zm-6.075,21.962a2.874,2.874,0,0,1-1.311,1.737,3.119,3.119,0,0,1-.488,2.464,2.775,2.775,0,0,1-2.453,1.236c-.563-.009-1.129-.008-1.694,0h-.285c-.445.011-.886.012-1.328.012q-1.1,0-2.214-.009a9.351,9.351,0,0,1-4.152-.86,9.152,9.152,0,0,0-3.031-.814,1.034,1.034,0,0,1-.945-.567,1.467,1.467,0,0,1-1.371.954H1761.4a1.471,1.471,0,0,1-1.469-1.467v-11.2a1.47,1.47,0,0,1,1.469-1.467h5.879a1.465,1.465,0,0,1,1.37.951,1.027,1.027,0,0,1,.912-.57,4.834,4.834,0,0,0,2.484-.816c2.223-1.5,3.238-4.394,3.644-5.987a13.172,13.172,0,0,1,.534-1.717,1.954,1.954,0,0,1,2.151-1.342,3.019,3.019,0,0,1,2.2,3.041,17.837,17.837,0,0,1-.385,4.839,6.517,6.517,0,0,0-.153,1.023h.071l1.071.008.445-.012h1.052l.4-.005a7.714,7.714,0,0,1,1.117.037,2.727,2.727,0,0,1,2.294,1.9,3.2,3.2,0,0,1,.106,1.875,4.382,4.382,0,0,1,.952,2.521A7.178,7.178,0,0,0,1786.55,801.731Z"/><path class="d" d="M1792.624,776.89h-39.832a6.043,6.043,0,0,0-6.036,6.036V822.96a3.124,3.124,0,0,0,1.521,2.939,2.545,2.545,0,0,0,1.182.285,3.681,3.681,0,0,0,2.1-.745l12.564-8.9h28.5a6.042,6.042,0,0,0,6.035-6.036V782.926A6.042,6.042,0,0,0,1792.624,776.89Zm3.156,33.613a3.16,3.16,0,0,1-3.155,3.157H1763.2l-13.311,9.43a.159.159,0,0,1-.067.132.162.162,0,1,1-.19-.262V782.926a3.162,3.162,0,0,1,3.157-3.157h39.832a3.159,3.159,0,0,1,3.155,3.157Z"/><path class="d" d="M1786.591,794.975a3.2,3.2,0,0,0-.106-1.875,2.727,2.727,0,0,0-2.294-1.9,7.714,7.714,0,0,0-1.117-.037l-.4.005h-1.052l-.445.012-1.071-.008h-.071a6.517,6.517,0,0,1,.153-1.023,17.837,17.837,0,0,0,.385-4.839,3.019,3.019,0,0,0-2.2-3.041,1.954,1.954,0,0,0-2.151,1.342,13.172,13.172,0,0,0-.534,1.717c-.406,1.593-1.421,4.487-3.644,5.987a4.834,4.834,0,0,1-2.484.816,1.027,1.027,0,0,0-.912.57,1.465,1.465,0,0,0-1.37-.951H1761.4a1.47,1.47,0,0,0-1.469,1.467v11.2a1.471,1.471,0,0,0,1.469,1.467h5.879a1.467,1.467,0,0,0,1.371-.954,1.034,1.034,0,0,0,.945.567,9.152,9.152,0,0,1,3.031.814,9.351,9.351,0,0,0,4.152.86q1.115.009,2.214.009c.442,0,.883,0,1.328-.012h.285c.565-.008,1.131-.009,1.694,0a2.775,2.775,0,0,0,2.453-1.236,3.119,3.119,0,0,0,.488-2.464,2.874,2.874,0,0,0,1.311-1.737,7.178,7.178,0,0,1,.993-4.235A4.382,4.382,0,0,0,1786.591,794.975Zm-18.923,9.445a.39.39,0,0,1-.39.388H1761.4a.391.391,0,0,1-.389-.388v-11.2a.4.4,0,0,1,.389-.388h5.879a.4.4,0,0,1,.39.388Zm18-4.893-.305.234.123.365a2.175,2.175,0,0,1,.029,1.314,1.783,1.783,0,0,1-.991,1.2l-.193.091-.239.609.047.173a2.084,2.084,0,0,1-.277,1.823,1.733,1.733,0,0,1-1.549.765h-2c-1.18.006-2.352,0-3.528-.005a8.244,8.244,0,0,1-3.741-.776,9.536,9.536,0,0,0-3.445-.852l.085-11.25a5.886,5.886,0,0,0,2.957-1c2.521-1.7,3.645-4.874,4.089-6.616a12.138,12.138,0,0,1,.485-1.575.939.939,0,0,1,.837-.7.681.681,0,0,1,.143.013c.591.1,1.228.831,1.3,2.039a16.9,16.9,0,0,1-.365,4.569c-.177.906-.295,1.506.055,1.936a1.149,1.149,0,0,0,.9.375l1.533.01,1.475-.019a6.428,6.428,0,0,1,.951.026,1.683,1.683,0,0,1,1.427,1.213,2.18,2.18,0,0,1,.025,1.413l-.045.152.157.557.184.107a3.287,3.287,0,0,1,.676,2.033A2.1,2.1,0,0,1,1785.665,799.527Z"/><rect class="d" width="40.271" height="1.587" transform="translate(912.979 841.652)"/><path class="d" d="M963.114,842.445,950.3,837.782s2.949,4.663,0,9.327l12.814-4.664"/><path class="d" d="M903.114,842.445l12.811,4.664s-2.949-4.664,0-9.327l-12.813,4.663"/><rect class="d" width="40.271" height="1.587" transform="translate(1152.979 841.652)"/><path class="d" d="M1203.114,842.445l-12.814-4.663s2.949,4.663,0,9.327l12.814-4.664"/><path class="d" d="M1143.114,842.445l12.811,4.664s-2.949-4.664,0-9.327l-12.813,4.663"/><rect class="d" width="50.136" height="1.587" transform="translate(1383.114 841.658)"/><path class="d" d="M1443.114,842.451l-12.814-4.663s2.95,4.663,0,9.327l12.814-4.664"/><rect class="d" width="50.136" height="1.587" transform="translate(1623.114 841.658)"/><path class="d" d="M1683.114,842.451l-12.814-4.663s2.95,4.663,0,9.327l12.814-4.664"/><path class="a" d="M853.452,849.6H772.775a6.016,6.016,0,0,0-6.036,5.984v27.908a6.018,6.018,0,0,0,6.036,5.984h.951v-10.84h79.025l-.005,10.836h.706a6.017,6.017,0,0,0,6.036-5.984v-27.9A6.016,6.016,0,0,0,853.452,849.6Zm-13.64,8.946h-28.52a.645.645,0,1,1-.05-1.289h28.519a.645.645,0,1,1,.051,1.289Zm11.364,0h-5.825a.645.645,0,0,1-.051-1.289h5.825a.645.645,0,0,1,.051,1.289Z"/><path class="a" d="M842.376,886.575a.645.645,0,1,1-.05-1.289.4.4,0,0,1,.05,0h6.936v-3.224H777.155v3.224H836.8a.645.645,0,0,1,.051,1.289H777.155v2.9h72.157v-2.9Z"/><path class="c" d="M853.452,846.169H772.775a9.453,9.453,0,0,0-9.471,9.414v27.9a9.454,9.454,0,0,0,9.471,9.414h80.677a9.452,9.452,0,0,0,9.47-9.41V855.583A9.451,9.451,0,0,0,853.452,846.169Zm-76.3,43.3v-2.9h59.692a.645.645,0,0,0-.051-1.289H777.155v-3.224h72.157v3.224h-6.936a.4.4,0,0,0-.05,0,.645.645,0,1,0,.05,1.289h6.936v2.9Zm82.333-5.984a6.017,6.017,0,0,1-6.036,5.984h-.706l.005-10.836H773.726v10.84h-.951a6.018,6.018,0,0,1-6.036-5.984V855.583a6.016,6.016,0,0,1,6.036-5.984h80.677a6.016,6.016,0,0,1,6.036,5.984Z"/><path class="c" d="M839.761,857.256H811.242a.645.645,0,1,0,.05,1.289h28.52a.645.645,0,1,0-.051-1.289Z"/><path class="c" d="M851.125,857.256H845.3a.645.645,0,0,0,.051,1.289h5.825a.645.645,0,0,0-.051-1.289Z"/><rect class="a" width="180" height="179.786" transform="translate(723.114 751.89)"/><rect class="a" width="180" height="179.786" transform="translate(723.114 751.89)"/><path class="a" d="M812.761,779.69a21.847,21.847,0,1,0,21.847,21.847A21.847,21.847,0,0,0,812.761,779.69Zm10.225,31.294-.778.777-9.447-9.447-9.448,9.447-.778-.777,9.448-9.448-9.448-9.447.778-.778,9.448,9.448,9.447-9.448.778.778-9.448,9.447Z"/><path class="e" d="M812.761,776.89a24.647,24.647,0,1,0,24.647,24.647h0A24.647,24.647,0,0,0,812.761,776.89Zm0,46.494a21.847,21.847,0,1,1,21.847-21.847A21.847,21.847,0,0,1,812.761,823.384Z"/><path class="e" d="M822.208,791.311l-9.448,9.448-9.448-9.448-.777.777,9.448,9.448-9.448,9.448.777.777,9.448-9.448,9.448,9.448.777-.777-9.448-9.448,9.448-9.448Z"/></g></svg>