<svg xmlns="http://www.w3.org/2000/svg" width="91" height="91" viewBox="0 0 91 91"><defs><style>.b{fill:#231f20}</style></defs><g transform="translate(.5 .5)"><circle cx="45" cy="45" r="45" fill="none" stroke="#f5f5f5"/><path class="b" d="M17.517 38.971h27.9a8.638 8.638 0 10-8.638-8.638 1.062 1.062 0 002.123 0 6.515 6.515 0 116.515 6.515h-27.9a1.062 1.062 0 100 2.123z"/><path d="M71.115 32.058a8.275 8.275 0 00-14.126 5.851 1.062 1.062 0 002.123 0 6.152 6.152 0 116.152 6.152H22.618a1.062 1.062 0 100 2.123h42.647a8.275 8.275 0 005.851-14.126z" fill="#00adef"/><path class="b" d="M45.425 51.028H17.517a1.062 1.062 0 000 2.123h27.9a6.515 6.515 0 11-6.515 6.515 1.062 1.062 0 10-2.123 0 8.638 8.638 0 108.638-8.638z"/></g></svg>