<svg xmlns="http://www.w3.org/2000/svg" width="91" height="91" viewBox="0 0 91 91"><g transform="translate(.5 .5)"><circle cx="45" cy="45" r="45" stroke="#f5f5f5" fill="none"/><path d="M68.934 47.339h3.883l-1.913-5.971z" fill="none"/><path d="M50.448 71.934c-.109-.217-4.413-7.586-4.413-7.586a.959.959 0 00-1.669 0s-4.3 7.373-4.413 7.586l-.013.023a6.309 6.309 0 00-.589 3.84 5.92 5.92 0 0011.781-1.023 6.282 6.282 0 00-.67-2.823zm-9.932-52.927l-1.3 4.072 4.067-1.306 1.96 3.8 1.953-3.8 4.072 1.3-1.306-4.067 3.8-1.96-3.8-1.953 1.3-4.072-4.067 1.306-1.96-3.8-1.953 3.8-4.072-1.3 1.306 4.067-3.8 1.96z"/><path d="M51.509 39.862l-1.653-1.653-3.448 3.448V34.49H44.07v7.645l-3.926-3.926-1.653 1.653 3.926 3.925h-7.644v2.338h7.167l-3.448 3.448 1.653 1.653 3.925-3.925v7.644h2.338v-7.166l3.448 3.447 1.653-1.653-3.448-3.448h7.167v-2.338h-7.644z" fill="#00adef"/><path d="M17.395 42.064a1.652 1.652 0 01.187.005 4.044 4.044 0 002.659-.7q.232-.162.463-.336c1.961-1.461.377-3.556-1.691-4.53-1.976-.933-3.985.275-4.326 3.068a4.754 4.754 0 00.833 3.268 2.642 2.642 0 011.875-.775zm-.001 5.306a1.6 1.6 0 01-.187-.005 4.05 4.05 0 00-2.659.7q-.232.162-.463.336c-1.96 1.462-.374 3.556 1.692 4.531 1.975.932 3.984-.276 4.326-3.068a4.752 4.752 0 00-.834-3.268 2.642 2.642 0 01-1.875.774zm5.145-5.361a4.754 4.754 0 00-3.268.833 2.64 2.64 0 01.776 1.875 1.416 1.416 0 01-.008.187 4.056 4.056 0 00.7 2.659q.163.232.338.463c1.461 1.959 3.555.374 4.53-1.692.931-1.972-.272-3.984-3.068-4.325zm-7.799 2.706a1.584 1.584 0 01.005-.184 4.053 4.053 0 00-.7-2.659 19.216 19.216 0 00-.336-.462c-1.463-1.961-3.556-.377-4.531 1.688-.932 1.975.276 3.984 3.068 4.326a4.752 4.752 0 003.268-.833 2.643 2.643 0 01-.774-1.876zm.94.004a1.716 1.716 0 101.717-1.716 1.717 1.717 0 00-1.717 1.716zm58.527-7.672h-3.123l-5.2 14.636-2.06.286v.573h5.472v-.573l-1.79-.291.909-2.756h4.913l.924 2.884-1.79.239v.5h8.408v-.5l-1.406-.156zm-5.271 10.292l1.97-5.971 1.912 5.971z"/></g></svg>