<svg xmlns="http://www.w3.org/2000/svg" width="202.5" height="60" viewBox="0 0 202.5 60"><defs><style>.a{fill:#888}</style></defs><path class="a" d="M195 1.2a6.3 6.3 0 016.3 6.3v45a6.3 6.3 0 01-6.3 6.3H7.5a6.3 6.3 0 01-6.3-6.3v-45a6.3 6.3 0 016.3-6.3zm0-1.2H7.5A7.5 7.5 0 000 7.5v45A7.5 7.5 0 007.5 60H195a7.5 7.5 0 007.5-7.5v-45A7.5 7.5 0 00195 0z"/><path class="a" d="M102.213 32.626a6.375 6.375 0 106.4 6.375 6.285 6.285 0 00-6.4-6.375zm0 10.245a3.87 3.87 0 113.6-3.87 3.69 3.69 0 01-3.6 3.87zM88.245 32.626a6.375 6.375 0 106.39 6.375 6.285 6.285 0 00-6.4-6.375zm0 10.245a3.87 3.87 0 113.585-3.87 3.69 3.69 0 01-3.6 3.87zm-16.632-8.28v2.7h6.48a5.655 5.655 0 01-1.5 3.4 6.63 6.63 0 01-5 1.98 7.2 7.2 0 110-14.4 6.9 6.9 0 014.9 1.935l1.912-1.905a9.435 9.435 0 00-6.792-2.8 9.915 9.915 0 100 19.815 8.756 8.756 0 009.255-9.1 8.8 8.8 0 00-.15-1.7zm67.965 2.1a5.9 5.9 0 00-11.465 2.31 6.241 6.241 0 006.33 6.375 6.345 6.345 0 005.31-2.82l-2.175-1.5a3.646 3.646 0 01-3.135 1.77 3.24 3.24 0 01-3.09-1.935l8.535-3.525zm-8.7 2.13a3.495 3.495 0 013.33-3.72 2.475 2.475 0 012.37 1.35zm-6.93 6.18h2.805v-18.75h-2.805zm-4.59-10.95h-.1a4.5 4.5 0 00-3.36-1.5 6.39 6.39 0 000 12.765 4.348 4.348 0 003.36-1.5h.09v.915c0 2.445-1.3 3.75-3.4 3.75a3.525 3.525 0 01-3.21-2.265l-2.445 1.02a6.075 6.075 0 005.655 3.765c3.285 0 6-1.935 6-6.645V33.001h-2.58zm-3.21 8.82a3.885 3.885 0 010-7.74 3.6 3.6 0 013.4 3.87 3.57 3.57 0 01-3.42 3.87zm36.565-16.62h-6.7v18.75h2.8v-7.11h3.915a5.835 5.835 0 100-11.64zm0 9h-3.915v-6.39h3.975a3.217 3.217 0 110 6.435zm17.295-2.7a5.251 5.251 0 00-4.995 2.865l2.49 1.035a2.654 2.654 0 012.55-1.38 2.7 2.7 0 013 2.415v.195a6.2 6.2 0 00-2.925-.72c-2.685 0-5.4 1.5-5.4 4.215a4.335 4.335 0 004.652 4.125 3.946 3.946 0 003.6-1.8h.09v1.5h2.7v-7.215c0-3.285-2.49-5.19-5.685-5.19zm-.345 10.275c-.915 0-2.19-.465-2.19-1.59 0-1.5 1.59-2 3-2a4.98 4.98 0 012.55.63 3.391 3.391 0 01-3.285 3zm15.95-9.825l-3.21 8.13h-.09l-3.33-8.13h-3l4.995 11.37-2.85 6.315h2.925l7.68-17.685zm-25.215 12h2.805v-18.75h-2.805zM71.037 15.453a4.066 4.066 0 01-1.125 3 4.366 4.366 0 01-3.3 1.335 4.725 4.725 0 01-3.315-8.055 4.5 4.5 0 013.315-1.35 4.65 4.65 0 011.845.375 3.706 3.706 0 011.41 1.005l-.795.8a3 3 0 00-2.46-1.065 3.48 3.48 0 00-3.495 3.6 3.54 3.54 0 006 2.595 2.835 2.835 0 00.75-1.83h-3.255v-1.085h4.36a3.817 3.817 0 01.065.675zm6.87-3.75h-4.05v2.85h3.69v1.08h-3.69v2.85h4.05v1.11h-5.25v-9h5.25zm4.92 7.89h-1.155v-7.885h-2.52v-1.11h6.255v1.11h-2.58zm6.99 0v-9h1.155v9zm6.285 0h-1.156v-7.885h-2.52v-1.11h6.18v1.11h-2.5zm14.22-1.17a4.68 4.68 0 01-6.6 0 4.859 4.859 0 010-6.675 4.649 4.649 0 016.6 0 4.844 4.844 0 010 6.675zm-5.745-.75a3.465 3.465 0 004.89 0 3.841 3.841 0 000-5.16 3.465 3.465 0 00-4.89 0 3.841 3.841 0 000 5.16zm8.7 1.92v-9h1.41l4.38 7.005v-7.005h1.155v9h-1.2l-4.575-7.335v7.335z"/><path d="M107.021 10.524a4.5 4.5 0 00-3.192 1.328 4.709 4.709 0 000 6.466 4.53 4.53 0 006.385 0 4.694 4.694 0 000-6.466 4.5 4.5 0 00-3.192-1.329zm-1.845.069a4.8 4.8 0 015.252 1.05 4.994 4.994 0 010 6.882 4.83 4.83 0 01-6.812 0 5.009 5.009 0 010-6.881 4.8 4.8 0 011.56-1.051zm-38.568-.06a4.351 4.351 0 00-3.2 1.305 4.575 4.575 0 003.21 7.8 4.215 4.215 0 003.186-1.289 3.915 3.915 0 001.078-2.889l.15-.007h-.15a3.669 3.669 0 00-.038-.525h-4.082v.78h3.26l-.005.155a2.985 2.985 0 01-.79 1.927l-.006.006a3.69 3.69 0 01-6.254-2.7 3.63 3.63 0 013.641-3.752 3.15 3.15 0 012.47 1l.581-.582a3.554 3.554 0 00-1.259-.861 4.5 4.5 0 00-1.785-.363zm4.574 4.917a4.216 4.216 0 01-1.167 3.107 4.516 4.516 0 01-3.412 1.381 4.875 4.875 0 01-3.418-8.31 4.65 4.65 0 013.423-1.395 4.8 4.8 0 011.9.386 3.855 3.855 0 011.474 1.046l.092.106-1.01 1.01-.105-.125a2.85 2.85 0 00-2.337-1.012h-.009a3.329 3.329 0 00-3.344 3.445v.007a3.39 3.39 0 005.743 2.488 2.685 2.685 0 00.7-1.575h-3.25v-1.381h4.64l.022.123a3.963 3.963 0 01.058.699zm1.32-5.007h5.55v1.41h-4.05v2.55h3.69v1.38h-3.69v2.55h4.05v1.41h-5.55zm.3.3v8.7h4.95v-.81h-4.05v-3.15h3.69v-.78h-3.69v-3.15h4.05v-.81zm6.195-.3h6.555v1.41h-2.58v7.89h-1.45v-7.89h-2.52zm.3.3v.81h2.52v7.89h.855v-7.89h2.58v-.81zm10.365-.3h1.46v9.3h-1.455zm.3.3v8.7h.855v-8.7zm2.31-.3h6.48v1.41h-2.505v7.89h-1.451v-7.89h-2.52zm.3.3v.81h2.52v7.89h.855v-7.89h2.5v-.81zm20.55-.3h1.643l4.147 6.632v-6.632h1.455v9.3h-1.433l-4.342-6.961v6.961h-1.47zm.3.3v8.7h.87v-7.709l4.808 7.709h.967v-8.7h-.855v7.375l-4.613-7.378zm-8.956 1.664a3.615 3.615 0 015.1 0l.006.005a3.992 3.992 0 010 5.362l-.006.006a3.615 3.615 0 01-5.1 0l.106-.106-.111.1a3.989 3.989 0 010-5.362zm.215 5.163a3.314 3.314 0 004.673 0 3.69 3.69 0 000-4.953 3.314 3.314 0 00-4.673 0 3.69 3.69 0 000 4.953z" fill-rule="evenodd" fill="#888"/><path class="a" d="M15.743 49.048l18.376-19.06-18.361-19.025a2.121 2.121 0 00-.794 1.88v34.343a2.162 2.162 0 00.779 1.862zm19.034-19.586l5.474-5.679-22.29-12.676a2.4 2.4 0 00-1.236-.346l18.05 18.7zm0 1.055L16.67 49.299a2.39 2.39 0 001.293-.355l22.334-12.712zm13.549-2.132l-7.418-4.227-5.622 5.832 5.662 5.87 7.374-4.215c1.57-.895 1.57-2.369.004-3.26z"/></svg>