<svg xmlns="http://www.w3.org/2000/svg" width="90" height="90" viewBox="0 0 90 90"><defs><style>.a{fill:#fff;}.b{fill:none;}.c{fill:#00adef;}</style></defs><g transform="translate(-444.606 -1237.366)"><circle class="a" cx="45" cy="45" r="45" transform="translate(444.606 1237.366)"/><g transform="translate(464.038 1254.752)"><path class="b" d="M501.935,1266.942a3.7,3.7,0,0,1-3.69-3.69v-2.712H480.013v2.712a3.69,3.69,0,0,1-7.381,0v-2.712h-3.78a3.249,3.249,0,0,0-3.246,3.245v8.85h47.045v-8.85a3.248,3.248,0,0,0-3.245-3.245h-3.781v2.712A3.7,3.7,0,0,1,501.935,1266.942Z" transform="translate(-463.561 -1254.226)"/><rect class="b" width="3.291" height="3.291" transform="translate(23.923 37.796)"/><path class="b" d="M476.121,1264.992a1.646,1.646,0,0,0,1.646-1.645v-5.337a1.645,1.645,0,0,0-3.29,0v5.337A1.646,1.646,0,0,0,476.121,1264.992Z" transform="translate(-463.359 -1254.321)"/><rect class="b" width="3.29" height="3.291" transform="translate(11.117 37.796)"/><path class="b" d="M477.693,1295.562v-1.023h0Z" transform="translate(-463.286 -1253.453)"/><rect class="b" width="3.291" height="3.291" transform="translate(23.923 27.124)"/><path class="b" d="M501.165,1264.992a1.646,1.646,0,0,0,1.645-1.645v-5.337a1.645,1.645,0,0,0-3.289,0v5.337A1.646,1.646,0,0,0,501.165,1264.992Z" transform="translate(-462.79 -1254.321)"/><rect class="b" width="3.29" height="3.291" transform="translate(11.117 27.124)"/><path class="b" d="M477.693,1285.128V1284.1h0Z" transform="translate(-463.286 -1253.69)"/><rect class="b" width="3.29" height="3.291" transform="translate(36.73 27.124)"/><path class="b" d="M465.606,1274.366v25.39a3.25,3.25,0,0,0,3.246,3.246h40.554a3.249,3.249,0,0,0,3.245-3.246v-25.39ZM480.013,1295a2.048,2.048,0,0,1-2.045,2.045h-3.29a2.048,2.048,0,0,1-2.045-2.045v-3.291a2.047,2.047,0,0,1,2.045-2.046h3.29a2.048,2.048,0,0,1,2.045,2.046Zm0-10.672a2.047,2.047,0,0,1-2.045,2.045h-3.29a2.047,2.047,0,0,1-2.045-2.045v-3.291a2.048,2.048,0,0,1,2.045-2.045h3.29a2.048,2.048,0,0,1,2.045,2.045ZM492.82,1295a2.049,2.049,0,0,1-2.045,2.045h-3.291a2.049,2.049,0,0,1-2.045-2.045v-3.291a2.048,2.048,0,0,1,2.045-2.046h3.291a2.048,2.048,0,0,1,2.045,2.046Zm0-10.672a2.048,2.048,0,0,1-2.045,2.045h-3.291a2.048,2.048,0,0,1-2.045-2.045v-3.291a2.049,2.049,0,0,1,2.045-2.045h3.291a2.049,2.049,0,0,1,2.045,2.045ZM505.625,1295a2.048,2.048,0,0,1-2.045,2.045h-3.289a2.048,2.048,0,0,1-2.045-2.045v-3.291a2.048,2.048,0,0,1,2.045-2.046h3.289a2.048,2.048,0,0,1,2.045,2.046Zm0-10.672a2.048,2.048,0,0,1-2.045,2.045h-3.289a2.047,2.047,0,0,1-2.045-2.045v-3.291a2.048,2.048,0,0,1,2.045-2.045h3.289a2.048,2.048,0,0,1,2.045,2.045Z" transform="translate(-463.561 -1253.911)"/><rect class="b" width="3.29" height="3.291" transform="translate(36.73 37.796)"/><path class="c" d="M490.334,1278.887h-3.291a2.049,2.049,0,0,0-2.045,2.045v3.291a2.048,2.048,0,0,0,2.045,2.045h3.291a2.048,2.048,0,0,0,2.045-2.045v-3.291A2.049,2.049,0,0,0,490.334,1278.887Zm-3.291,5.337v-3.291h3.291v3.291Z" transform="translate(-463.12 -1253.809)"/><path class="c" d="M477.812,1278.887h-3.29a2.048,2.048,0,0,0-2.045,2.045v3.291a2.047,2.047,0,0,0,2.045,2.045h3.29a2.047,2.047,0,0,0,2.045-2.045v-3.291A2.048,2.048,0,0,0,477.812,1278.887Zm0,5.337h-3.289v-3.291h3.29Zm0,1.023v-1.023h0Z" transform="translate(-463.404 -1253.809)"/><path class="c" d="M502.855,1278.887h-3.289a2.048,2.048,0,0,0-2.045,2.045v3.291a2.047,2.047,0,0,0,2.045,2.045h3.289a2.048,2.048,0,0,0,2.045-2.045v-3.291A2.048,2.048,0,0,0,502.855,1278.887Zm-3.289,5.337v-3.291h3.289v3.291Z" transform="translate(-462.835 -1253.809)"/><path class="c" d="M490.334,1289.322h-3.291a2.048,2.048,0,0,0-2.045,2.046v3.291a2.049,2.049,0,0,0,2.045,2.045h3.291a2.049,2.049,0,0,0,2.045-2.045v-3.291A2.048,2.048,0,0,0,490.334,1289.322Zm-3.291,5.337v-3.291h3.291v3.291Z" transform="translate(-463.12 -1253.571)"/><path class="c" d="M477.812,1289.322h-3.29a2.047,2.047,0,0,0-2.045,2.046v3.291a2.048,2.048,0,0,0,2.045,2.045h3.29a2.048,2.048,0,0,0,2.045-2.045v-3.291A2.048,2.048,0,0,0,477.812,1289.322Zm0,5.337h-3.289v-3.291h3.29Zm0,1.023v-1.023h0Z" transform="translate(-463.404 -1253.571)"/><path class="c" d="M502.855,1289.322h-3.289a2.048,2.048,0,0,0-2.045,2.046v3.291a2.048,2.048,0,0,0,2.045,2.045h3.289a2.048,2.048,0,0,0,2.045-2.045v-3.291A2.048,2.048,0,0,0,502.855,1289.322Zm-3.289,5.337v-3.291h3.289v3.291Z" transform="translate(-462.835 -1253.571)"/><rect width="18.231" height="2.045" transform="translate(16.453 4.268)"/><path d="M509.452,1258.54h-3.781v2.046h3.781a3.248,3.248,0,0,1,3.245,3.245v8.85H465.651v-8.85a3.249,3.249,0,0,1,3.246-3.245h3.78v-2.046H468.9a5.3,5.3,0,0,0-5.292,5.291v36.285a5.3,5.3,0,0,0,5.292,5.292h40.554a5.3,5.3,0,0,0,5.291-5.292V1263.83A5.3,5.3,0,0,0,509.452,1258.54Zm0,44.822H468.9a3.25,3.25,0,0,1-3.246-3.246v-25.39H512.7v25.39A3.249,3.249,0,0,1,509.452,1303.362Z" transform="translate(-463.606 -1254.271)"/><path class="c" d="M472.476,1263.393a3.69,3.69,0,0,0,7.381,0v-5.337a3.69,3.69,0,0,0-7.381,0v5.337Zm2.045-5.337a1.645,1.645,0,0,1,3.29,0v5.337a1.645,1.645,0,0,1-3.29,0Z" transform="translate(-463.404 -1254.366)"/><path class="c" d="M497.52,1263.393a3.69,3.69,0,1,0,7.38,0v-5.337a3.69,3.69,0,1,0-7.38,0v5.337Zm2.045-5.337a1.645,1.645,0,0,1,3.289,0v5.337a1.645,1.645,0,1,1-3.289,0Z" transform="translate(-462.835 -1254.366)"/></g></g></svg>