<svg xmlns="http://www.w3.org/2000/svg" width="91" height="91" viewBox="0 0 91 91"><defs><style>.a{fill:none;stroke:#f5f5f5;}.b{fill:#fff;}.c{fill:#00adef;}</style></defs><g transform="translate(0.5 -104.829)"><circle class="a" cx="45" cy="45" r="45" transform="translate(0 105.329)"/><g transform="translate(9.549 134.245)"><path d="M75.606,133.6H13.97a4.633,4.633,0,0,0-4.633,4.633v13.647a4.633,4.633,0,0,0,4.633,4.633h6.4V154.47H16.491v-.875h3.874v-1.023H16.491v-1.005h3.874v-2.045h-5.92v4.949H13.97a2.59,2.59,0,0,1-2.587-2.588V138.235a2.59,2.59,0,0,1,2.587-2.587H53.551a2.59,2.59,0,0,1,2.588,2.587v4.623h2.045v-2.991H68.705a.511.511,0,0,0,0-1.023H58.183v-.609a4.615,4.615,0,0,0-.79-2.587H75.606a2.59,2.59,0,0,1,2.588,2.587v13.647a2.59,2.59,0,0,1-2.588,2.588h-.387v-4.949H69.211v2.045h3.963v1.005h-2.59a.511.511,0,1,0,0,1.023h2.59v.875H69.211v2.045h6.4a4.633,4.633,0,0,0,4.633-4.633V138.235A4.633,4.633,0,0,0,75.606,133.6Z" transform="translate(-9.337 -133.602)"/><path d="M69.929,139.75h3.078a.511.511,0,0,0,0-1.023H69.929a.511.511,0,0,0,0,1.023Z" transform="translate(-7.972 -133.486)"/><path d="M48.364,139.75h3.077a.511.511,0,0,0,0-1.023H48.364a.511.511,0,0,0,0,1.023Z" transform="translate(-8.462 -133.486)"/><path d="M32.4,139.75H46.137a.511.511,0,0,0,0-1.023H32.4a.511.511,0,0,0,0,1.023Z" transform="translate(-8.825 -133.486)"/><path class="b" d="M59.151,162.245a.511.511,0,1,1,0-1.023h2.591v-1.006H27.115v1.006H56.323a.511.511,0,1,1,0,1.023H27.115v.874H61.741v-.874Z" transform="translate(-8.933 -132.997)"/><path class="c" d="M68.965,154.264v-6.98a4.632,4.632,0,0,0-4.632-4.632H24.752a4.632,4.632,0,0,0-4.632,4.632v13.647a4.633,4.633,0,0,0,4.632,4.633H64.334a4.633,4.633,0,0,0,4.632-4.633v-6.667Zm-4.632,9.255h-.388V158.57H25.229v4.949h-.477a2.59,2.59,0,0,1-2.586-2.588V147.284a2.589,2.589,0,0,1,2.586-2.586H64.334a2.589,2.589,0,0,1,2.586,2.586v13.647A2.59,2.59,0,0,1,64.334,163.519Zm-37.06,0v-.874H56.482a.511.511,0,1,0,0-1.023H27.274v-1.006H61.9v1.006H59.31a.511.511,0,1,0,0,1.023H61.9v.874Z" transform="translate(-9.092 -133.396)"/><path class="c" d="M59.146,148.8h3.078a.511.511,0,1,0,0-1.023H59.146a.511.511,0,1,0,0,1.023Z" transform="translate(-8.217 -133.28)"/><path class="c" d="M43.178,148.8H56.921a.511.511,0,1,0,0-1.023H43.178a.511.511,0,1,0,0,1.023Z" transform="translate(-8.58 -133.28)"/><path class="c" d="M38.364,166.43a.51.51,0,0,0-.511.511v5.593a.511.511,0,1,0,1.023,0v-5.593A.511.511,0,0,0,38.364,166.43Z" transform="translate(-8.689 -132.856)"/><path class="c" d="M44.054,166.43a.511.511,0,0,0-.511.511v5.593a.511.511,0,1,0,1.023,0v-5.593A.51.51,0,0,0,44.054,166.43Z" transform="translate(-8.56 -132.856)"/><path class="c" d="M49.772,166.43a.51.51,0,0,0-.511.511v5.593a.511.511,0,1,0,1.023,0v-5.593A.511.511,0,0,0,49.772,166.43Z" transform="translate(-8.43 -132.856)"/><path class="c" d="M55.047,166.8a.511.511,0,0,0-.984.274,13.3,13.3,0,0,0,3.366,5.292.512.512,0,0,0,.725-.722A12.556,12.556,0,0,1,55.047,166.8Z" transform="translate(-8.321 -132.856)"/><path class="c" d="M33.861,166.448a.514.514,0,0,0-.629.356,12.427,12.427,0,0,1-3.1,4.843.511.511,0,1,0,.724.722,13.311,13.311,0,0,0,3.366-5.292A.511.511,0,0,0,33.861,166.448Z" transform="translate(-8.868 -132.856)"/></g></g></svg>