<svg xmlns="http://www.w3.org/2000/svg" width="88.11" height="70.414" viewBox="0 0 88.11 70.414"><defs><style>.a{fill:#00adef}.b{fill:#fff}</style></defs><path class="a" d="M83.58 45.553H49.106a11.031 11.031 0 01.072 1.226c0 .262-.021.518-.039.774H83.58a2.533 2.533 0 012.53 2.53v15.8a2.533 2.533 0 01-2.53 2.529h-.917v-5.589h-42.01v5.589H39.64a2.533 2.533 0 01-2.53-2.529v-8.157a11.006 11.006 0 01-2-.389v8.548a4.53 4.53 0 004.53 4.529h43.94a4.53 4.53 0 004.53-4.529v-15.8a4.53 4.53 0 00-4.53-4.532zM42.653 67.192h31.913a.5.5 0 000-1H42.653v-1.367h38.01v1.367h-3.029a.5.5 0 000 1h3.029v1.222h-38.01z"/><path class="a" d="M78.406 52.294h3.339a.5.5 0 000-1h-3.339a.5.5 0 000 1zm-17.72 0h14.91a.5.5 0 000-1h-14.91a.5.5 0 000 1z"/><path d="M10.346 33.537h43.522a4.53 4.53 0 004.53-4.53V12.894a4.53 4.53 0 00-4.53-4.53h-33.9c.012.212.032.421.032.636a11.16 11.16 0 01-.093 1.364h33.961a2.533 2.533 0 012.53 2.53v16.113a2.533 2.533 0 01-2.53 2.53h-.985v-5.684H10.346v5.684H9.263a2.533 2.533 0 01-2.53-2.53v-9.243a10.907 10.907 0 01-2-.623v9.866a4.53 4.53 0 004.53 4.53zm2-3.27h32.337a.5.5 0 000-1H12.346v-1.414h38.537v1.414H47.79a.5.5 0 000 1h3.093v1.27H12.346z"/><path d="M48.572 15.184h3.381a.5.5 0 000-1h-3.381a.5.5 0 000 1zm-17.943 0h15.1a.5.5 0 000-1h-15.1a.5.5 0 000 1zm32.675 6.762h13.33v16.229l-3.851-3.851a1 1 0 00-1.414 1.414l5.558 5.558a1 1 0 001.414 0l5.558-5.558a1 1 0 00-1.414-1.414l-3.851 3.851V20.946a1 1 0 00-1-1h-14.33a1 1 0 000 2zM30.053 57.13h-13.33V40.902l3.85 3.85a1 1 0 001.414-1.414L16.43 37.78a1 1 0 00-1.414 0l-5.558 5.558a1 1 0 001.414 1.414l3.851-3.85V58.13a1 1 0 001 1h14.33a1 1 0 000-2z"/><path class="b" d="M2 9a7 7 0 107-7 7.008 7.008 0 00-7 7zm3.293-3.707a1 1 0 011.414 0L9 7.586l2.293-2.293a1 1 0 011.414 1.414L10.414 9l2.293 2.293a1 1 0 11-1.414 1.414L9 10.414l-2.293 2.293a1 1 0 01-1.414-1.414L7.586 9 5.293 6.707a1 1 0 010-1.414z"/><path d="M9 18a9 9 0 10-9-9 9.01 9.01 0 009 9zm7-9a7 7 0 11-7-7 7.008 7.008 0 017 7z"/><path class="b" d="M38.178 53.779a7 7 0 10-7-7 7.008 7.008 0 007 7zm-4.008-7.954a1 1 0 011.414 0l1.659 1.659 3.53-3.531a1 1 0 011.414 1.414l-4.234 4.239a1 1 0 01-1.414 0l-2.365-2.367a1 1 0 01-.004-1.414z"/><path class="a" d="M38.178 55.779a9 9 0 10-9-9 9.01 9.01 0 009 9zm0-16a7 7 0 11-7 7 7.009 7.009 0 017-7z"/><path d="M7.586 9l-2.293 2.293a1 1 0 101.414 1.414L9 10.414l2.293 2.293a1 1 0 001.414-1.414L10.414 9l2.293-2.293a1 1 0 00-1.414-1.414L9 7.586 6.707 5.293a1 1 0 00-1.414 1.414z"/><path class="a" d="M36.535 49.606a1 1 0 001.414 0l4.238-4.239a1 1 0 00-1.414-1.414l-3.53 3.531-1.659-1.659a1 1 0 00-1.414 1.414z"/></svg>