<svg xmlns="http://www.w3.org/2000/svg" width="91" height="91" viewBox="0 0 91 91"><defs><style>.b{fill:#fff}</style></defs><g transform="translate(-924.954 -1236.866)"><circle cx="45" cy="45" r="45" transform="translate(925.454 1237.366)" fill="none" stroke="#f5f5f5"/><path class="b" d="M991.537 1283.694a.511.511 0 010 1.023H980.27a11.521 11.521 0 01-2.007 2.669 11 11 0 01-8.045 3.315h-17.77v7.789a2.59 2.59 0 002.588 2.587h1v-5.665h42.681v5.665h.9a2.59 2.59 0 002.588-2.587v-15.993a2.59 2.59 0 00-2.588-2.588h-18.064a11.248 11.248 0 01-.8 3.785zm2.854 0h3.394a.511.511 0 010 1.023h-3.394a.511.511 0 010-1.023z"/><path class="b" d="M996.672 1299.85h-3.064a.511.511 0 010-1.023h3.064v-1.371h-38.591v1.371h32.408a.511.511 0 010 1.023h-32.408v1.226h38.591z"/><path d="M999.619 1277.864h-18.137a12.1 12.1 0 01.1 1.477c0 .192-.017.38-.026.569h18.065a2.59 2.59 0 012.588 2.588v15.993a2.59 2.59 0 01-2.588 2.587h-.9v-5.665h-42.685v5.665h-1a2.59 2.59 0 01-2.588-2.587v-7.791h-2.045v7.789a4.632 4.632 0 004.633 4.632h44.582a4.632 4.632 0 004.633-4.632V1282.5a4.633 4.633 0 00-4.632-4.636zm-41.537 21.987h32.408a.511.511 0 000-1.023h-32.408v-1.371h38.591v1.371h-3.064a.511.511 0 000 1.023h3.064v1.226h-38.591z"/><path d="M994.391 1284.718h3.394a.511.511 0 000-1.023h-3.394a.511.511 0 000 1.023zm-2.343-.512a.51.51 0 00-.511-.511h-10.784a10.734 10.734 0 01-.483 1.023h11.266a.511.511 0 00.512-.512z"/><path class="b" d="M970.218 1288.655a9.317 9.317 0 007.572-14.742 9.23 9.23 0 00-4.47-3.374 1.019 1.019 0 01-.679-.962v-.575a10.5 10.5 0 00-10.464-10.463 10.227 10.227 0 00-5.293 1.435 10.609 10.609 0 00-3.8 3.8 1.022 1.022 0 01-1.451.335 5.886 5.886 0 00-7.4.734 5.609 5.609 0 00-1.711 4.157 6.53 6.53 0 00.373 2.172 1.023 1.023 0 01-.791 1.349 7.255 7.255 0 00-3.277 1.449 8.389 8.389 0 00-2.336 2.882 8.058 8.058 0 00-.861 3.634 8.169 8.169 0 008.166 8.167zm-12.33-21.048a8.52 8.52 0 11-8.519 8.519 8.529 8.529 0 018.52-8.519z"/><path class="b" d="M957.889 1282.602a6.474 6.474 0 10-6.474-6.475 6.482 6.482 0 006.474 6.475zm1.023-2.206h-2.045v-1.631h2.045zm0-8.538v6.092h-2.045v-6.092z"/><path d="M952.449 1290.701h17.77a11 11 0 008.045-3.315 11.521 11.521 0 002.007-2.669 10.734 10.734 0 00.483-1.023 11.248 11.248 0 00.8-3.785c.008-.189.026-.376.026-.569a12.1 12.1 0 00-.1-1.477 10.9 10.9 0 00-2.038-5.156 11.37 11.37 0 00-4.757-3.828 12.543 12.543 0 00-12.504-12.384 12.227 12.227 0 00-6.337 1.722 12.7 12.7 0 00-3.977 3.67 7.749 7.749 0 00-3.469-.8 7.888 7.888 0 00-7.915 7.914 8.533 8.533 0 00.183 1.761 9.235 9.235 0 00-3.092 1.6 10.4 10.4 0 00-2.906 3.578 10.1 10.1 0 00-1.077 4.548 10.215 10.215 0 0010.212 10.212h8.648zm-14.422-4.439a7.808 7.808 0 01-2.392-5.773 8.058 8.058 0 01.861-3.634 8.389 8.389 0 012.336-2.882 7.255 7.255 0 013.277-1.449 1.023 1.023 0 00.791-1.349 6.53 6.53 0 01-.373-2.172 5.842 5.842 0 015.869-5.868 5.666 5.666 0 013.238.977 1.022 1.022 0 001.451-.335 10.609 10.609 0 013.8-3.8 10.227 10.227 0 015.293-1.435 10.5 10.5 0 0110.464 10.463v.575a1.019 1.019 0 00.679.962 9.23 9.23 0 014.47 3.374 9.3 9.3 0 01-7.572 14.742h-26.418a7.8 7.8 0 01-5.774-2.395z" fill="#00adef"/><path d="M956.866 1271.859h2.045v6.092h-2.045zm0 6.906h2.045v1.631h-2.045z"/><path d="M957.889 1284.648a8.52 8.52 0 10-8.519-8.52 8.53 8.53 0 008.519 8.52zm0-14.994a6.474 6.474 0 11-6.474 6.474 6.482 6.482 0 016.474-6.474z"/></g></svg>