<svg xmlns="http://www.w3.org/2000/svg" width="61" height="61" viewBox="0 0 61 61"><defs><style>.a{fill:none;stroke:#f5f5f5;}.b{fill:#00adef;}</style></defs><g transform="translate(-409.79 -104.829)"><circle class="a" cx="30" cy="30" r="30" transform="translate(410.29 105.329)"/><g transform="translate(422.206 114.806)"><path d="M445.851,122.8a17.728,17.728,0,0,1,8.643,2.146l-4.163.628a.682.682,0,0,0,.1,1.356.747.747,0,0,0,.1-.007l5.98-.9a.68.68,0,0,0,.137-.056.625.625,0,0,0,.1-.04.639.639,0,0,0,.181-.164s.008,0,.01-.009l0-.005a.628.628,0,0,0,.077-.089.685.685,0,0,0,0-.622l-2.781-5.438a.682.682,0,0,0-1.214.622l1.682,3.289a19.266,19.266,0,0,0-8.856-2.073A18.086,18.086,0,0,0,431.112,150a.682.682,0,0,0,1.111-.791,16.722,16.722,0,0,1,13.628-26.41Z" transform="translate(-427.767 -119.228)"/><path class="b" d="M463.557,132.969a.682.682,0,1,0-1.09.818,16.722,16.722,0,0,1-13.387,26.74,17.289,17.289,0,0,1-8.646-2.255l4.461-.733a.682.682,0,1,0-.221-1.346l-6.183,1.017h0l-.012,0c-.012,0-.02.011-.031.014a.542.542,0,0,0-.311.167.611.611,0,0,0-.094.085.559.559,0,0,0-.031.065c-.01.015-.026.024-.033.04s-.006.04-.014.059a.67.67,0,0,0-.044.191.553.553,0,0,0,.052.32c.008.016,0,.035.014.051l3.164,5.992a.682.682,0,1,0,1.205-.638l-1.986-3.76a18.816,18.816,0,0,0,8.711,2.093,18.085,18.085,0,0,0,14.477-28.922Z" transform="translate(-430.996 -123.513)"/><path d="M441.49,151.394v3.9a.682.682,0,1,0,1.364,0v-3.9a.682.682,0,0,0-1.364,0Z" transform="translate(-432.133 -129.246)"/><path d="M445.416,148.534v5.851a.682.682,0,1,0,1.364,0v-5.851a.682.682,0,1,0-1.364,0Z" transform="translate(-433.383 -128.336)"/><path d="M449.342,145.673v7.8a.682.682,0,0,0,1.364,0v-7.8a.682.682,0,0,0-1.364,0Z" transform="translate(-434.632 -127.425)"/><path d="M453.268,149.964v4.876a.682.682,0,0,0,1.364,0v-4.876a.682.682,0,0,0-1.364,0Z" transform="translate(-435.881 -128.791)"/><path d="M457.194,147.58v6.5a.682.682,0,0,0,1.364,0v-6.5a.682.682,0,1,0-1.364,0Z" transform="translate(-437.13 -128.032)"/><path d="M461.12,144.72v8.451a.682.682,0,1,0,1.364,0V144.72a.682.682,0,1,0-1.364,0Z" transform="translate(-438.379 -127.122)"/><path d="M465.046,141.859v10.4a.682.682,0,1,0,1.364,0v-10.4a.682.682,0,1,0-1.364,0Z" transform="translate(-439.629 -126.212)"/><path class="b" d="M458.851,135.367a.681.681,0,0,0-.953-.149l-7.859,5.735-2.268-2.78a.681.681,0,0,0-.93-.119l-5.956,4.349a.682.682,0,0,0,.8,1.1l5.435-3.968,2.268,2.78a.683.683,0,0,0,.93.119l8.38-6.116A.682.682,0,0,0,458.851,135.367Z" transform="translate(-431.852 -124.274)"/></g></g></svg>