<svg xmlns="http://www.w3.org/2000/svg" width="120" height="120" viewBox="0 0 120 120"><defs><style>.a{fill:none}.b{fill:#00adef}</style></defs><path class="a" d="M59.635 66.305a6.814 6.814 0 10-6.814-6.814 6.822 6.822 0 006.814 6.814z"/><path class="a" d="M48.472 71.389a1.389 1.389 0 011.415.2 15.094 15.094 0 004.209 2.431 1.388 1.388 0 01.882 1.127l.6 4.845 8.128-.017.6-4.83a1.389 1.389 0 01.882-1.127 15.059 15.059 0 004.205-2.429 1.389 1.389 0 011.416-.2l4.476 1.9 4.056-7.107-3.874-2.915a1.386 1.386 0 01-.532-1.324 15.8 15.8 0 000-4.9 1.388 1.388 0 01.532-1.324l3.878-2.934-4.082-7.092-4.454 1.908a1.386 1.386 0 01-1.416-.2 15.084 15.084 0 00-4.205-2.429 1.389 1.389 0 01-.882-1.127l-.6-4.845-8.144.015-.579 4.828a1.382 1.382 0 01-.882 1.126 15.158 15.158 0 00-4.213 2.436 1.389 1.389 0 01-1.417.2l-4.472-1.9-4.056 7.109 3.874 2.911a1.386 1.386 0 01.53 1.326 15.5 15.5 0 000 4.9 1.383 1.383 0 01-.53 1.324l-3.882 2.93 4.082 7.092zm11.163-21.477a9.584 9.584 0 11-9.583 9.584 9.6 9.6 0 019.583-9.584z"/><path d="M59.638 22.625a38.97 38.97 0 0119.354 4.895l-9.485 1.43a1.386 1.386 0 00.206 2.755 1.5 1.5 0 00.208-.015l13.143-1.984a1.327 1.327 0 00.3-.122 1.271 1.271 0 00.168-.069 1.319 1.319 0 00.39-.353 1.415 1.415 0 00.163-.19 1.391 1.391 0 000-1.263l-6.113-11.953a1.385 1.385 0 00-2.467 1.26l3.87 7.564a42.128 42.128 0 00-19.743-4.722 39.646 39.646 0 00-32.307 62.613 1.384 1.384 0 002.255-1.606 36.877 36.877 0 0130.052-58.237zm31.733 13.114a1.384 1.384 0 10-2.214 1.66 36.874 36.874 0 01-29.52 58.967 38.063 38.063 0 01-19.343-5.13l10.126-1.664a1.384 1.384 0 00-.449-2.732l-13.6 2.235h-.025c-.023 0-.042.022-.065.028a1.384 1.384 0 00-.474.2 431.657 431.657 0 00-.348.31 1.306 1.306 0 00-.062.134c-.018.031-.051.047-.066.079a1.141 1.141 0 00-.028.119 1.315 1.315 0 00-.089.389 1.124 1.124 0 00.107.654c.014.032.008.069.025.1l.029.054 6.929 13.117a1.38 1.38 0 001.225.738 1.365 1.365 0 00.644-.161 1.382 1.382 0 00.577-1.871l-4.546-8.607a41.159 41.159 0 0019.429 4.774 39.641 39.641 0 0031.734-63.4z"/><path class="b" d="M37.541 67.558l4.079 7.117a2.756 2.756 0 003.462 1.164l3.725-1.583a17.969 17.969 0 003.524 2.037l.5 4.038a2.754 2.754 0 002.73 2.415h8.162a2.752 2.752 0 002.729-2.415l.5-4.039a17.935 17.935 0 003.522-2.036l3.729 1.583a2.751 2.751 0 003.459-1.166l4.078-7.114a2.754 2.754 0 00-.724-3.561l-3.234-2.451a18.824 18.824 0 000-4.1L81.015 55a2.755 2.755 0 00.725-3.563l-4.076-7.114a2.758 2.758 0 00-3.462-1.167l-3.734 1.584a17.948 17.948 0 00-3.522-2.035l-.5-4.036a2.752 2.752 0 00-2.729-2.417h-8.159a2.754 2.754 0 00-2.73 2.416l-.5 4.036a18.041 18.041 0 00-3.524 2.038l-3.726-1.584a2.755 2.755 0 00-3.46 1.166l-4.08 7.116a2.759 2.759 0 00.728 3.563l3.232 2.445a18.2 18.2 0 000 4.107l-3.232 2.448a2.756 2.756 0 00-.725 3.555zm6.275-4.289a1.383 1.383 0 00.53-1.324 15.5 15.5 0 010-4.9 1.386 1.386 0 00-.53-1.326l-3.874-2.911 4.056-7.109 4.472 1.9a1.389 1.389 0 001.417-.2 15.158 15.158 0 014.209-2.434 1.382 1.382 0 00.882-1.126l.579-4.828 8.144-.015.6 4.845a1.389 1.389 0 00.882 1.127 15.084 15.084 0 014.205 2.429 1.386 1.386 0 001.416.2l4.454-1.908 4.082 7.092-3.878 2.934a1.388 1.388 0 00-.532 1.324 15.8 15.8 0 010 4.9 1.386 1.386 0 00.532 1.324l3.874 2.915-4.056 7.107-4.476-1.9a1.389 1.389 0 00-1.416.2 15.059 15.059 0 01-4.205 2.429 1.389 1.389 0 00-.882 1.127l-.6 4.83-8.128.017-.6-4.845a1.388 1.388 0 00-.882-1.127 15.094 15.094 0 01-4.209-2.431 1.389 1.389 0 00-1.415-.2l-4.452 1.908-4.082-7.092z"/><path class="b" d="M59.635 69.079a9.584 9.584 0 10-9.583-9.583 9.594 9.594 0 009.583 9.583zm0-16.4a6.814 6.814 0 11-6.814 6.815 6.823 6.823 0 016.814-6.813z"/><path class="a" d="M0 0h120v120H0z"/></svg>