<svg xmlns="http://www.w3.org/2000/svg" width="150" height="1000.3" viewBox="0 0 150 1000.3"><defs><style>.a{fill:none;}.b{fill:#1a1818;}.c{fill:#191717;}.d{fill:#00adef;}.e{fill:red;}</style></defs><g transform="translate(-708.113 -751.791)"><rect class="a" width="1000.182" height="149.999" transform="translate(858.113 751.909) rotate(90)"/><g transform="translate(708.114 949.688)"><g transform="translate(18.767 43.51)"><path class="b" d="M1007.166,866.747H1007a21.3,21.3,0,0,1-2.564-42.447,16.568,16.568,0,0,1,19.218-13.406c.34.061.679.131,1.015.214a24.224,24.224,0,0,1,40.526,11.718,15.129,15.129,0,0,1,18.72,13.524,15.117,15.117,0,0,1-.718,30.185l-.4.01-.271-.005C1081.813,866.543,1008.555,866.747,1007.166,866.747Zm13.575-53.717a14.153,14.153,0,0,0-14.067,12.509l-.114.982-.987.073a18.906,18.906,0,0,0,1.425,37.76h.174c1.432.061,74.639-.2,75.379-.206l.244.006.368-.007a12.73,12.73,0,0,0-.4-25.446h-1.2v-1.2a12.73,12.73,0,0,0-16.89-12.029l-1.327.457-.245-1.377a21.825,21.825,0,0,0-37.21-11.282l-.5.52-.7-.2a14.233,14.233,0,0,0-3.955-.563Z" transform="translate(-985.671 -804.186)"/><g transform="translate(19.831 40.777)"><path class="b" d="M1015.187,861.969a3.083,3.083,0,0,0,1.082-.738,3.652,3.652,0,0,0,.942-2.461,3.559,3.559,0,0,0-.25-1.366,3.41,3.41,0,0,0-.69-1.1,3.342,3.342,0,0,0-1.082-.753,3.709,3.709,0,0,0-1.414-.264h-1.993v6.967h2a3.454,3.454,0,0,0,1.414-.284m-1.414-8.772a5.968,5.968,0,0,1,2.246.423,5.815,5.815,0,0,1,1.823,1.194,5.5,5.5,0,0,1,0,7.907,5.526,5.526,0,0,1-1.823,1.177,5.7,5.7,0,0,1-2.246.438h-4.273V853.2Z" transform="translate(-1009.506 -853.196)"/></g><g transform="translate(43.193 40.777)"><rect class="b" width="2.278" height="11.14"/></g><g transform="translate(47.507 40.587)"><path class="b" d="M1051.354,859.93a2.951,2.951,0,0,1-3.073,2.36c-2.377,0-3.136-1.839-3.136-3.562s.759-3.563,3.136-3.563a2.951,2.951,0,0,1,3.073,2.361h2.329a5.186,5.186,0,0,0-5.32-4.557,5.762,5.762,0,0,0,0,11.518,5.188,5.188,0,0,0,5.32-4.559Z" transform="translate(-1042.771 -852.968)"/></g><g transform="translate(72.447 40.777)"><rect class="b" width="2.278" height="11.14"/></g><g transform="translate(60.345 40.777)"><path class="b" d="M1060.478,853.2v4.526h5.011V853.2h2.278v11.141h-2.278v-4.621h-5.011v4.621H1058.2V853.2Z" transform="translate(-1058.201 -853.196)"/></g><g transform="translate(10.872 40.589)"><path class="b" d="M1002.136,857.774a1.4,1.4,0,1,1,1.4-1.4,1.4,1.4,0,0,1-1.4,1.4m0-4.8a3.4,3.4,0,1,0,3.411,3.4,3.4,3.4,0,0,0-3.411-3.4h0" transform="translate(-998.738 -852.97)"/></g><g transform="translate(33.21 47.675)"><rect class="b" width="5.436" height="1.963"/></g><g transform="translate(30.289 40.777)"><path class="b" d="M1025.916,853.2l-3.84,11.141h2.417l3.695-11.141Z" transform="translate(-1022.076 -853.196)"/></g><g transform="translate(35.363 40.777)"><path class="b" d="M1028.175,853.2l3.661,11.141h2.419l-3.814-11.141Z" transform="translate(-1028.175 -853.196)"/></g></g><rect class="a" width="149.76" height="149.582"/></g><g transform="translate(708.115 1199.592)"><g transform="translate(0 0)"><g transform="translate(10.434 66.99)"><path class="a" d="M1241.929,866.079l.017,3.17,6.521-1.605-.021-3.4Z" transform="translate(-1220.191 -837.031)"/><path class="a" d="M1241.886,859.037,1241.9,862l6.521-1.835-.016-3.156Z" transform="translate(-1220.183 -835.831)"/><path class="a" d="M1241.842,851.428l.018,3.375,6.524-2.03-.021-3.671Z" transform="translate(-1220.176 -834.522)"/><path class="a" d="M1241.974,873.324l.021,3.393,6.517-1.294-.021-3.7Z" transform="translate(-1220.198 -838.269)"/><path class="a" d="M1230.947,903.47l.017,2.8h5.336l-.02-3.087Z" transform="translate(-1218.372 -843.48)"/><path class="a" d="M1254.617,850.607l8.306-2.587v-4.239l-8.327,2.969Z" transform="translate(-1222.288 -833.641)"/><path class="a" d="M1242.017,880.794l.019,3.181,6.519-.918-.02-3.559Z" transform="translate(-1220.205 -839.557)"/><path class="a" d="M1242.146,902.856l.021,3.3h6.516l-.021-3.652Z" transform="translate(-1220.226 -843.368)"/><path class="a" d="M1230.9,896.486l.021,3.087,5.34-.284-.021-3.3Z" transform="translate(-1218.364 -842.288)"/><path class="a" d="M1242.06,887.966l.021,3.458,6.517-.606-.023-3.767Z" transform="translate(-1220.212 -840.808)"/><path class="a" d="M1242.1,895.423l.023,3.461,6.516-.348-.022-3.72Z" transform="translate(-1220.219 -842.094)"/><path class="a" d="M1260.94,834.851l.208.069,20.965,7.017L1260.9,834.19l-27.407,10.156Z" transform="translate(-1218.793 -832.052)"/><path class="a" d="M1254.663,858.238l8.272-2.325v-3.538l-8.291,2.582Z" transform="translate(-1222.296 -835.064)"/><rect class="a" width="1.932" height="2.745" transform="translate(74.715 59.678)"/><path class="a" d="M1260.8,838.856l.211.071,23,7.693v-2.761l-23.73-7.944-30.8,10.657.105,3.059,16.7-5.607-.009-.133.461-.023Z" transform="translate(-1218.128 -832.338)"/><rect class="a" width="1.932" height="2.745" transform="translate(57.235 59.678)"/><path class="a" d="M1230.856,889.572l.021,3.016,5.34-.5-.021-3.269Z" transform="translate(-1218.356 -841.101)"/><path class="a" d="M1302.276,896.4h19.441l21.06-.239.331-23.876-19.8-17.029a89.306,89.306,0,0,0-25.061-2.143l-.484.022v-.009c-.773.037-1.468.043-1.5.043h-.114l-.1-.037-27.168-9.571v16.869a150.729,150.729,0,0,1,28.035-4.194l2.618-.108c10.074-.295,17.548.82,22.222,3.322l.2.106v2.13l-.776.584-.352-.242c-3.736-2.566-10.934-3.774-20.817-3.518l-.423.036-2.611.083a141.817,141.817,0,0,0-28.1,4.373v4.779a229.017,229.017,0,0,1,28.035-3.686l2.617-.13c10-.407,17.48.5,22.2,2.681l.226.1v2.086l-.632.571-.38-.22c-3.867-2.226-11.257-3.192-21.352-2.789l-2.6.128a225.6,225.6,0,0,0-28.109,3.755v4.869a211.746,211.746,0,0,1,28.068-2.047l2.613-.01c9.813.023,17.655.732,22.087,2l.309.088v2.666l-.7-.25c-3.77-1.329-11.473-2.072-21.694-2.086l-2.606.01a208.4,208.4,0,0,0-28.078,2.1v4.8c7.254-.812,17.683-1.357,28.068-1.464l2.612-.017a159.4,159.4,0,0,1,22.009,1.059l.387.058v2.5l-.6-.1c-4.323-.743-12.086-1.137-21.789-1.1l-2.607.017c-10.317.109-21.016.686-28.08,1.509v4.607c3.481,0,8.23-.054,13.6-.112h.129c4.536-.052,9.449-.108,14.341-.142l2.61-.017c9.922-.053,16.885.018,21.928.221h1.153v2.419l-2.351-.041c-4.866-.167-11.649-.228-20.723-.181l-2.609.017c-4.557.031-9.132.083-13.4.125l-1.022.011c-6.335.084-10.578.117-13.656.119V896.4l12.037-.016v-3.807h3.887V896.4l13.593-.016v-3.807h3.886Z" transform="translate(-1224.652 -833.604)"/><path class="a" d="M1230.815,883.062l.018,2.641,5.34-.751-.02-2.948Z" transform="translate(-1218.349 -839.972)"/><path class="a" d="M1230.77,876.136l.018,2.95,5.34-1.059-.017-3.2Z" transform="translate(-1218.342 -838.782)"/><path class="a" d="M1230.681,862.6l.017,2.678,5.34-1.5-.016-2.837Z" transform="translate(-1218.327 -836.483)"/><path class="a" d="M1230.633,855.505l.021,2.954,5.345-1.665-.021-3.2Z" transform="translate(-1218.319 -835.267)"/><path class="a" d="M1230.723,869.3l.021,2.837,5.34-1.314-.018-3.026Z" transform="translate(-1218.334 -837.618)"/><path class="a" d="M1225.438,884.195l-3.63.72.01,2.206,3.636-.511Z" transform="translate(-1216.857 -840.335)"/><path class="a" d="M1225.313,864.377l-3.6,1.119.012,2.456,3.6-1.013Z" transform="translate(-1216.843 -837.052)"/><path class="a" d="M1254.927,906.031h8.049v-4.3l-8.07.431Z" transform="translate(-1222.34 -843.239)"/><path class="a" d="M1262.948,872.377v-4.294l-8.22,2.021.022,3.9Z" transform="translate(-1222.311 -837.666)"/><path class="a" d="M1225.268,857.541l-3.583,1.279.012,2.617,3.588-1.118Z" transform="translate(-1216.838 -835.92)"/><path class="a" d="M1262.956,880.853v-4.275l-8.182,1.621.022,3.8Z" transform="translate(-1222.318 -839.073)"/><path class="a" d="M1262.969,897.657v-4.206l-8.107.755.021,3.882Z" transform="translate(-1222.332 -841.868)"/><path class="a" d="M1225.356,870.9l-3.607,1.014.012,2.576,3.613-.888Z" transform="translate(-1216.848 -838.133)"/><path class="a" d="M1225.561,903.775l-3.662.2.008,2.4h3.671Z" transform="translate(-1216.873 -843.578)"/><path class="a" d="M1254.707,865.936l8.235-2.025v-3.838l-8.254,2.322Z" transform="translate(-1222.304 -836.339)"/><path class="a" d="M1334.49,896.344l-21.04.235h-53.83v-5.924h.489c3.21,0,7.535-.037,14.131-.118l1.021-.013c4.272-.044,8.844-.093,13.407-.124l2.61-.016c9.39-.048,16.333.016,21.246.2l.859.023v-1h-.2c-5.052-.2-11.993-.277-21.894-.222l-2.608.017c-4.889.035-9.8.09-14.337.143h-.127c-5.632.062-10.582.112-14.1.112h-.489v-5.916l.409-.05c7.2-.868,17.911-1.453,28.636-1.566l2.613-.018a155.542,155.542,0,0,1,21.419,1.025V882.1a163.581,163.581,0,0,0-21.413-.984l-2.607.017c-10.612.111-21.263.678-28.49,1.519l-.567.068v-6.2l.383-.062a208.312,208.312,0,0,1,28.662-2.175l2.613-.01c9.777.016,17.32.7,21.418,1.931v-1.069c-4.372-1.18-11.954-1.84-21.416-1.863l-2.607.01a211.442,211.442,0,0,0-28.463,2.122l-.592.093v-6.29l.364-.069a228.085,228.085,0,0,1,28.648-3.846l2.616-.128c10.032-.4,17.235.486,21.448,2.632v-1.184c-4.554-2.022-11.755-2.856-21.387-2.469l-2.6.129a229.819,229.819,0,0,0-28.473,3.781l-.613.116v-6.169l.3-.091a141.825,141.825,0,0,1,28.712-4.516l2.627-.112c10.1-.311,17.293.824,21.435,3.362v-1.262c-4.505-2.33-11.7-3.365-21.395-3.08l-2.6.107a149.648,149.648,0,0,0-28.417,4.328l-.662.183V841.9l28.461,10.03c.288,0,1.078-.018,1.8-.069l.5-.034v.028a90.212,90.212,0,0,1,23.5,1.891l-.363-.311a83.3,83.3,0,0,0-23.764-2.279l-.322.013-6.416-2.344V848.4l-23.968-8.016-13.847,4.935-18.1,6.078.037,1.409-6.411,2.368v.191l5.043-1.8.027,4.381-5.051,1.572.007,1.387,5.055-1.574.027,4.119-5.064,1.424.006,1.367,5.066-1.424.028,4.241-5.075,1.247.006,1.347,5.077-1.248.027,4.292-5.085,1.008.006,1.322,5.089-1.009.026,3.922-5.1.718.006,1.3,5.1-.717.031,4.313-5.109.475.006,1.291,5.115-.476.025,4.4-5.12.27.006,1.281,5.12-.274.031,4.066h-5.133l0,.591h-2.04v2.624h123.859V897.17h-8.271Zm-106.782-43.468,7.3-2.6.032,4.8-7.3,2.27Zm.041,5.851,7.3-2.27.026,4.4-7.294,2.05Zm.036,5.545,7.294-2.052.028,4.566-7.292,1.793Zm.038,5.652,7.293-1.793.026,4.729-7.29,1.447Zm.038,5.7,7.289-1.444.028,4.457-7.294,1.024Zm.035,5.337,7.29-1.024.028,4.748-7.291.678Zm.037,5.688,7.291-.678.026,4.763-7.29.391Zm.062,9.926-.027-4.172,7.29-.391.027,4.562Zm9.067-47.036,8.474-3.021.03,5.271-8.476,2.639Zm.038,6.275,8.473-2.637.025,4.714-8.471,2.383Zm.035,5.825,8.47-2.382.031,4.936-8.474,2.085Zm.038,5.983,8.472-2.086.027,5.228-8.472,1.685Zm.035,6.149,8.471-1.68.027,5.07-8.473,1.189Zm.037,5.878,8.47-1.189.028,5.247-8.471.788Zm.037,6.132,8.469-.789.029,5.181-8.469.453Zm.061,10.794-.027-4.673,8.469-.453.029,5.126Zm10.362-50.831,10.283-3.666v5.841l-10.254,3.2Zm.039,6.758,10.247-3.19v5.1l-10.219,2.873Zm.035,6.144,10.211-2.872v5.379l-10.185,2.5Zm.109,19.509,10.1-1.418v5.83l-10.072.938Zm.1,18.42-.028-5.238,10.028-.537v5.776Zm10-7.055-10.037.536-.027-5.267,10.064-.937Zm0-14.083-10.11,1.419-.029-5.2,10.139-2.01Zm0-7.113-10.147,2.013-.032-5.333,10.179-2.5Z" transform="translate(-1216.375 -833.078)"/><path class="a" d="M1225.516,897.02l-3.65.339.013,2.791,3.657-.194Z" transform="translate(-1216.867 -842.459)"/><path class="a" d="M1225.475,890.375l-3.641.511.012,2.66,3.646-.339Z" transform="translate(-1216.862 -841.358)"/><path class="a" d="M1225.4,877.541l-3.62.889.013,2.6,3.624-.719Z" transform="translate(-1216.853 -839.233)"/><path class="a" d="M1254.841,890.092l8.122-.751v-4.35l-8.145,1.139Z" transform="translate(-1222.326 -840.466)"/><path class="b" d="M1336.523,893.833l.334-24.224-22.038-18.955-.326-.277-.465-.128a86.023,86.023,0,0,0-24.564-2.437l-4.422-1.615V841.55l-26.073-9.519-.9-.4-33,12.23-1.122.478.156,5.851-6.386,2.359.192,41.285h-2.031v6.4h70.2l3.509.013,55.184-.013v-6.4Zm-46.917-3.234v3.807l-13.593.016V890.6h-3.887v3.807l-12.037.016V889.91c3.078,0,7.321-.035,13.656-.118l1.022-.011c4.269-.042,8.845-.094,13.4-.125l2.608-.017c9.075-.047,15.857.014,20.724.181l2.35.041v-2.42H1312.7c-5.043-.2-12.006-.274-21.928-.221l-2.61.017c-4.892.034-9.8.09-14.341.142h-.129c-5.37.058-10.119.108-13.6.112v-4.607c7.064-.823,17.763-1.4,28.08-1.509l2.607-.018c9.7-.033,17.466.362,21.789,1.1l.6.1v-2.5l-.387-.058a159.4,159.4,0,0,0-22.009-1.059l-2.613.017c-10.385.107-20.814.652-28.068,1.464v-4.8a208.427,208.427,0,0,1,28.078-2.1l2.606-.01c10.221.014,17.923.757,21.693,2.086l.7.25V873.2l-.309-.088c-4.431-1.266-12.273-1.976-22.087-2l-2.613.01a211.763,211.763,0,0,0-28.068,2.047V868.3a225.564,225.564,0,0,1,28.109-3.755l2.6-.128c10.1-.4,17.486.563,21.353,2.789l.38.22.632-.571v-2.086l-.226-.1c-4.719-2.18-12.2-3.088-22.2-2.681l-2.616.13A229.034,229.034,0,0,0,1260.1,865.8v-4.779a141.844,141.844,0,0,1,28.1-4.373l2.611-.083.424-.036c9.882-.256,17.08.952,20.816,3.517l.352.242.776-.584v-2.13l-.2-.106c-4.674-2.5-12.147-3.616-22.222-3.322l-2.618.108a150.713,150.713,0,0,0-28.035,4.193V841.582l27.168,9.571.1.037h.115c.033,0,.729-.005,1.5-.042v.009l.484-.023a89.322,89.322,0,0,1,25.061,2.143l19.8,17.03L1334,894.182l-21.061.239H1293.5l-.007-3.822Zm2.916.708v2.745h-1.932v-2.745Zm-17.48,0v2.745h-1.931v-2.745Zm-31.012-47.992-16.7,5.607-.1-3.059,30.8-10.657,23.729,7.944v2.761l-23-7.693-.211-.071-14.065,5.013-.46.022Zm35.166-1.8L1258.23,834.5l-.209-.069-27.448,9.494,27.406-10.155Zm63.054,56.831H1218.391V895.72h2.04l0-.591h5.133l-.031-4.066-5.119.274-.006-1.281,5.12-.27-.025-4.4-5.115.476-.006-1.291,5.109-.475-.031-4.313-5.1.717-.005-1.3,5.1-.718-.026-3.921-5.089,1.009-.006-1.322,5.086-1.008-.027-4.292-5.077,1.248-.006-1.347,5.074-1.246-.027-4.241-5.066,1.424-.006-1.367,5.064-1.424-.028-4.119-5.054,1.574-.007-1.387,5.051-1.572-.026-4.38-5.043,1.8v-.191l6.411-2.368-.036-1.409,18.1-6.078,13.846-4.934,23.968,8.016v.429l6.416,2.344.322-.012a83.293,83.293,0,0,1,23.764,2.279l.363.311a90.229,90.229,0,0,0-23.5-1.891v-.028l-.5.034c-.723.051-1.513.069-1.8.069l-28.462-10.03v19.024l.662-.183a149.628,149.628,0,0,1,28.417-4.328l2.6-.107c9.7-.285,16.889.75,21.395,3.08V859.2c-4.143-2.538-11.339-3.673-21.435-3.362l-2.627.112a141.818,141.818,0,0,0-28.712,4.516l-.3.091v6.169l.612-.116a229.9,229.9,0,0,1,28.474-3.781l2.6-.129c9.632-.387,16.834.446,21.388,2.469v1.184c-4.214-2.145-11.417-3.031-21.448-2.632l-2.617.128a228.1,228.1,0,0,0-28.648,3.846l-.365.069v6.29l.592-.092a211.53,211.53,0,0,1,28.463-2.122l2.607-.01c9.462.023,17.044.683,21.416,1.863v1.069c-4.1-1.231-11.641-1.915-21.419-1.931l-2.613.01a208.306,208.306,0,0,0-28.662,2.175l-.383.062v6.2l.567-.067c7.227-.841,17.878-1.409,28.49-1.52l2.607-.017a163.658,163.658,0,0,1,21.413.985v1.029a155.561,155.561,0,0,0-21.419-1.025l-2.613.017c-10.726.113-21.432.7-28.636,1.566l-.409.05v5.916h.489c3.519,0,8.469-.051,14.1-.113h.127c4.535-.053,9.448-.108,14.336-.143l2.608-.018c9.9-.055,16.842.018,21.894.222h.2v1l-.86-.023c-4.913-.182-11.855-.246-21.246-.2l-2.61.016c-4.562.032-9.135.08-13.407.124l-1.021.013c-6.6.081-10.92.117-14.131.117h-.489v5.924h53.83l21.04-.235-.012.826h8.271ZM1220.9,892.02l3.662-.2.017,2.6h-3.671Zm-.028-5.492,3.649-.34.02,2.936-3.657.194Zm-.026-5.373,3.64-.51.018,2.832-3.646.339Zm-.023-4.947,3.631-.72.016,2.415-3.636.512Zm-.025-5.383,3.62-.889.017,2.766-3.624.719Zm-.024-5.415,3.607-1.014.018,2.7-3.613.889Zm-.026-5.339,3.6-1.119.017,2.562-3.6,1.013Zm-.027-5.544,3.582-1.279.017,2.779-3.588,1.118Z" transform="translate(-1215.875 -831.628)"/><path class="b" d="M1229.768,902.658l.027,4.172h7.291l-.028-4.562Zm1,3.463-.016-2.8,5.332-.285.02,3.087Z" transform="translate(-1218.176 -843.328)"/><path class="b" d="M1263.716,851.089l-10.247,3.19.029,4.778,10.218-2.873Zm-.976,4.612-8.271,2.325-.019-3.281,8.29-2.582Z" transform="translate(-1222.102 -834.851)"/><path class="b" d="M1263.705,842.419l-10.283,3.666.029,5.37,10.254-3.2Zm-.977,5.376-8.306,2.586-.021-3.856,8.327-2.969Z" transform="translate(-1222.094 -833.416)"/><path class="b" d="M1236.754,852.24l-7.3,2.6.03,4.465,7.3-2.27Zm-6.295,5.994-.02-2.954,5.345-1.906.02,3.2Z" transform="translate(-1218.124 -835.042)"/><path class="b" d="M1263.722,858.834l-10.211,2.872.026,5.012,10.185-2.5Zm-.976,4.872-8.234,2.025-.02-3.541,8.254-2.322Z" transform="translate(-1222.108 -836.134)"/><path class="b" d="M1249.356,886.024l-8.47,1.189.027,4.846,8.471-.789Zm-7.469,5.231-.021-3.458,6.516-.915.023,3.767Z" transform="translate(-1220.017 -840.638)"/><path class="b" d="M1249.4,893.852l-8.469.789.029,4.845,8.469-.453Zm-7.467,4.873-.023-3.461,6.516-.607.023,3.719Z" transform="translate(-1220.025 -841.934)"/><path class="b" d="M1253.627,882.67l10.11-1.418v-5.787l-10.139,2.011Zm9.134-6.277v4.275l-8.16,1.144-.021-3.8Z" transform="translate(-1222.123 -838.889)"/><path class="b" d="M1253.586,874.733l10.147-2.013V866.9l-10.18,2.5Zm9.168-6.847v4.294l-8.2,1.626-.022-3.9Z" transform="translate(-1222.115 -837.47)"/><path class="b" d="M1253.73,901.35l.028,5.238h10v-5.776Zm9.051,4.53h-8.048l-.022-3.872,8.07-.431Z" transform="translate(-1222.145 -843.087)"/><path class="b" d="M1253.715,898.691l10.038-.537v-5.668l-10.064.937Zm9.061-5.4V897.5l-8.087.431-.021-3.882Z" transform="translate(-1222.138 -841.708)"/><path class="b" d="M1263.745,883.958l-10.1,1.419.031,5.349,10.072-.938Zm-.976,5.212-8.122.751-.024-3.962,8.145-1.139Z" transform="translate(-1222.13 -840.295)"/><path class="b" d="M1240.971,902.045l.026,4.673h8.471l-.028-5.126Zm1,3.964-.021-3.3,6.516-.347.021,3.652Z" transform="translate(-1220.032 -843.216)"/><path class="b" d="M1236.929,880.894l-7.289,1.444.023,4.037,7.294-1.025Zm-6.291,4.625-.018-2.641,5.338-1.058.02,2.948Z" transform="translate(-1218.155 -839.788)"/><path class="b" d="M1236.888,873.64l-7.293,1.793.029,4.383,7.29-1.447Zm-6.293,5.25-.019-2.95,5.342-1.313.017,3.2Z" transform="translate(-1218.147 -838.586)"/><path class="b" d="M1236.843,866.555l-7.294,2.052.031,4.306,7.292-1.793Zm-6.294,5.373-.021-2.837,5.343-1.5.018,3.026Z" transform="translate(-1218.14 -837.413)"/><path class="b" d="M1236.8,859.648l-7.3,2.27.027,4.177,7.294-2.05Zm-6.3,5.414-.017-2.678,5.341-1.66.016,2.837Z" transform="translate(-1218.132 -836.269)"/><path class="b" d="M1236.972,887.8l-7.29,1.024.027,4.4,7.291-.678Zm-6.29,4.622-.021-3.016,5.34-.75.021,3.269Z" transform="translate(-1218.162 -840.931)"/><path class="b" d="M1249.224,863.008l-8.47,2.382.027,4.638,8.474-2.085Zm-7.472,6.037-.018-3.171,6.518-1.83.021,3.4Z" transform="translate(-1219.996 -836.825)"/><path class="b" d="M1237.016,895.026l-7.29.678.027,4.475,7.29-.391Zm-6.289,4.388-.021-3.087,5.34-.5.021,3.3Z" transform="translate(-1218.169 -842.129)"/><path class="b" d="M1249.272,870.534l-8.472,2.086.027,4.827,8.471-1.685Zm-7.471,5.986-.021-3.393,6.516-1.6.021,3.7Z" transform="translate(-1220.004 -838.072)"/><path class="b" d="M1249.313,878.39l-8.471,1.68.025,4.578,8.473-1.189Zm-7.472,5.4-.019-3.182,6.518-1.3.02,3.559Z" transform="translate(-1220.01 -839.373)"/><path class="b" d="M1249.185,855.721l-8.473,2.637.026,4.46,8.471-2.383Zm-7.477,6.064-.017-2.961,6.521-2.031.016,3.157Z" transform="translate(-1219.989 -835.619)"/><path class="b" d="M1249.14,847.741l-8.473,3.021.027,4.888,8.476-2.639Zm-7.475,6.836-.018-3.374,6.521-2.327.021,3.671Z" transform="translate(-1219.981 -834.297)"/></g><rect class="a" width="149.76" height="151.147"/></g><g transform="translate(55.918 14.762)"><path class="a" d="M1278.149,791.726a5.5,5.5,0,0,0-.017,10.994,5.6,5.6,0,0,0,.981-.087V791.811a5.505,5.505,0,0,0-.965-.084Z" transform="translate(-1270.761 -772.792)"/><path class="c" d="M1307.977,791.275a7.371,7.371,0,0,0-5.3-4.975v-4.417a12.849,12.849,0,1,0-25.7,0v4.239a7.385,7.385,0,1,0,2.98,14.4l.664-.207V786.62l-.664-.207a7.237,7.237,0,0,0-1.1-.25v-4.28a10.964,10.964,0,1,1,21.927,0v4.2a7.351,7.351,0,0,0-2.055.327l-.667.206v13.689l.667.207a7.338,7.338,0,0,0,1.839.307,10.984,10.984,0,0,1-5.951,7.665,3.1,3.1,0,0,0-2.756-1.7h-3.361a3.115,3.115,0,0,0-3.113,3.112v1.3a3.116,3.116,0,0,0,3.113,3.111h3.361a3.114,3.114,0,0,0,3.111-3.111v-.792a12.867,12.867,0,0,0,7.529-9.754c.2-.045.408-.077.607-.139A7.383,7.383,0,0,0,1307.977,791.275Zm-29.237,7.6a5.6,5.6,0,0,1-.981.087,5.5,5.5,0,1,1,.017-10.993h0a5.485,5.485,0,0,1,.964.084Zm14.351,11.025v1.3a1.226,1.226,0,0,1-1.224,1.224h-3.361a1.227,1.227,0,0,1-1.225-1.224v-1.3a1.226,1.226,0,0,1,1.225-1.224h3.361A1.225,1.225,0,0,1,1293.091,809.9Zm6.868-11.022V788.053a5.442,5.442,0,0,1,.972-.086,5.5,5.5,0,1,1-.008,10.994A5.664,5.664,0,0,1,1299.96,798.877Z" transform="translate(-1270.388 -769.033)"/></g></g><g transform="translate(708.113 1390.318)"><g transform="translate(20.344 81.588)"><path class="a" d="M1489.4,868.426l6.757,6.715.167,3.941L1489.8,877.7Z" transform="translate(-1405.462 -853.118)"/><path class="a" d="M1481.538,890.679v-.948h-11.051v-4.218h1.579a.861.861,0,0,0,.853-.864V873.935a.86.86,0,0,0-.853-.865h-1.579V872.5c0-.161-.383-12.073,3.082-19.446a.236.236,0,0,1,.214-.124h58.994a17.159,17.159,0,0,1,11.946,4.8l3.979,3.821a8.666,8.666,0,0,0-4.566-1.3h-3.108a1.255,1.255,0,0,0-1.256,1.253c0,.043,0,.085.007.128l.936,9.777a3.026,3.026,0,0,0,2.392,2.685l8.395,1.783v0l7.607,1.61,0,.026,6.008,1.26.465-.849-5.948-5.852-.906-.9,3.387,3.252a3.905,3.905,0,0,0,.853.625l9.656,5.287a1.6,1.6,0,0,1,.228.162l-.376.024h0a.531.531,0,0,0-.417.81c.531.891,1.107,1.754,1.706,2.6l.359,2.909a2.262,2.262,0,0,0,.576,1.249l-.994,3.355a2.2,2.2,0,0,1-1.114,1.333,9.789,9.789,0,0,0-19.456.9c0,.232-.007.636-.017,1.034v0h-50.855c0-.382-.006-.75-.006-1.036,0-.05-.007-.1-.008-.148H1550.9v-.948h-48.714a9.79,9.79,0,0,0-19.426,1.1v.521l-12.271-3.124v-.4Zm20.2,0H1550.9v-.948h-49.161Zm41.8-31.9c.616,0,1.111-.25,1.111-.557s-.5-.555-1.111-.555H1473.2c-.615,0-1.112.25-1.112.555s.5.557,1.112.557Z" transform="translate(-1468.071 -850.53)"/><path class="a" d="M1593.8,888.643v-.482h1.383l.1-.1v.686l-.1-.1Z" transform="translate(-1591.38 -856.397)"/><path class="a" d="M1501.824,874.829a2.082,2.082,0,0,1-1.645-1.847l-.935-9.779a.308.308,0,0,1,.275-.34l.031,0h3.108a7.731,7.731,0,0,1,5.505,2.279l.633.633.461,10.638Z" transform="translate(-1426.593 -852.188)"/><path class="a" d="M1593.8,889.688h1.383l.1-.1v1.1H1593.8Z" transform="translate(-1591.38 -856.651)"/><path class="a" d="M1595.179,886.79H1593.8v-2.213h1.485v2.316Z" transform="translate(-1591.38 -855.815)"/><rect class="a" width="1.485" height="2.579" transform="translate(2.416 23.487)"/><path class="b" d="M1470.865,851.548a2.638,2.638,0,0,1,2.382-1.5h58.992a19.548,19.548,0,0,1,13.6,5.471l17.4,16.7a1.606,1.606,0,0,0,.338.25l9.663,5.289a4.054,4.054,0,0,1,2.077,3.053l.609,5.176a2.006,2.006,0,0,1,.6,2.076l-1.062,3.582a4.61,4.61,0,0,1-2.925,3.045l-.515.177a1.756,1.756,0,0,1-2.321-1.666,7.374,7.374,0,0,0-14.71,0c0,.417-.02,1.35-.033,1.874a1.6,1.6,0,0,1-1.594,1.559h-52.435a1.6,1.6,0,0,1-1.591-1.577c-.007-.641-.015-1.362-.015-1.862a7.373,7.373,0,0,0-14.709,0v1.583a1.568,1.568,0,0,1-1.954,1.529l-13.508-3.439a2.115,2.115,0,0,1-1.6-2.054V872.056C1467.539,871.545,1467.152,859.45,1470.865,851.548ZM1549.107,863a7.731,7.731,0,0,0-5.5-2.279h-3.108l-.031,0a.309.309,0,0,0-.275.34l.936,9.779a2.082,2.082,0,0,0,1.645,1.847l7.433,1.583-.461-10.638Zm10.462,10.656.115,2.437,2.978.623Zm-1.336-1.584-6.757-6.715.4,9.275,6.522,1.381Zm-76.009,21.654V893.2a9.79,9.79,0,0,1,19.427-1.1h48.715v.948h-48.648c0,.05.008.1.008.148,0,.287.006.655.006,1.036h50.854v0c.009-.4.016-.8.017-1.034a9.789,9.789,0,0,1,19.456-.9,2.2,2.2,0,0,0,1.114-1.333l.994-3.356a2.256,2.256,0,0,1-.576-1.249l-.359-2.909c-.6-.846-1.175-1.709-1.706-2.6a.531.531,0,0,1,.417-.81h0l.376-.024a1.655,1.655,0,0,0-.228-.162l-9.656-5.287a3.937,3.937,0,0,1-.853-.625L1558.2,870.7l.906.9,5.947,5.852-.465.849-6.008-1.26,0-.027-7.607-1.61v0l-8.4-1.783a3.027,3.027,0,0,1-2.391-2.685l-.936-9.777c0-.042-.006-.085-.006-.127a1.255,1.255,0,0,1,1.256-1.253h3.108a8.663,8.663,0,0,1,4.566,1.3l-3.979-3.821a17.159,17.159,0,0,0-11.946-4.8H1473.25a.236.236,0,0,0-.214.124c-3.466,7.374-3.087,19.285-3.082,19.447v.569h1.58a.86.86,0,0,1,.853.865v10.713a.86.86,0,0,1-.853.864h-1.58v4.218H1481v.948h-11.051v.4Zm-10.786-12.015-.1.1h-1.383v.482h1.383l.1.1Zm-1.485-5.6h1.485v-2.579h-1.485Zm0,2.7v2.213h1.383l.1.1v-2.316Zm1.485,4.172-.1.1h-1.383v1h1.485Z" transform="translate(-1467.537 -850.049)"/><path class="b" d="M1506.553,859.173c0-.3.5-.555,1.112-.555H1578c.615,0,1.111.247,1.111.555s-.5.557-1.111.557h-70.335C1507.053,859.73,1506.553,859.478,1506.553,859.173Z" transform="translate(-1502.538 -851.48)"/><path class="b" d="M1567.857,893.752h0a7.181,7.181,0,1,1-7.181,7.18A7.181,7.181,0,0,1,1567.858,893.752Zm0,11.259a4.076,4.076,0,1,0-4.077-4.074A4.076,4.076,0,0,0,1567.858,905.011Z" transform="translate(-1543.55 -857.347)"/><path class="b" d="M1568.875,899.844a2.106,2.106,0,1,1-2.106,2.106A2.106,2.106,0,0,1,1568.875,899.844Z" transform="translate(-1544.567 -858.365)"/><path class="b" d="M1483.131,893.752h0a7.181,7.181,0,1,1-7.182,7.18A7.181,7.181,0,0,1,1483.133,893.752Zm0,11.26a4.077,4.077,0,1,0-4.078-4.076A4.077,4.077,0,0,0,1483.134,905.013Z" transform="translate(-1388.247 -857.347)"/><path class="b" d="M1484.15,899.844a2.105,2.105,0,1,1-2.106,2.106A2.105,2.105,0,0,1,1484.15,899.844Z" transform="translate(-1389.265 -858.365)"/><rect class="b" width="49.161" height="0.948" transform="translate(33.667 39.2)"/></g><rect class="a" width="149.762" height="149.762"/><g transform="translate(55.228 17.297)"><path class="b" d="M1518.235,813.006a8.919,8.919,0,0,1-2.609-.394l-1.5-.462,5.6-5.6-.814-3.037-3.041-.815-5.6,5.6-.461-1.494a8.774,8.774,0,0,1,2.187-8.818,8.9,8.9,0,0,1,7.121-2.531h0l.2.025.112.014.158.021a3.756,3.756,0,0,0,3.184-1.068l8.252-8.242a3.752,3.752,0,0,0,1.069-3.18l-.063-.462.006-.006a8.8,8.8,0,0,1,11.363-9.3l1.493.461-5.6,5.6.813,3.04,3.043.812,5.6-5.594.462,1.491a8.769,8.769,0,0,1-2.187,8.818,8.892,8.892,0,0,1-6.914,2.551l-.008.013-.667-.091a3.741,3.741,0,0,0-3.139,1.025l-8.341,8.33a3.735,3.735,0,0,0-1.023,3.13,8.807,8.807,0,0,1-7.345,10.058,8.928,8.928,0,0,1-1.349.1Zm-.4-1.9a6.831,6.831,0,0,0,5.282-2.015,6.927,6.927,0,0,0,1.943-5.976,5.635,5.635,0,0,1,1.541-4.721l8.369-8.358a5.51,5.51,0,0,1,4.029-1.6l.027-.052.681.106a6.922,6.922,0,0,0,8-7.217l-4,4-5.146-1.375-1.377-5.141,4-4a6.922,6.922,0,0,0-7.225,7.988l.075.473-.029.028a5.606,5.606,0,0,1-1.648,4.285l-8.253,8.247a5.56,5.56,0,0,1-4.291,1.647l-.027.027-.477-.072a6.916,6.916,0,0,0-8,7.217l4-3.993,5.144,1.378,1.377,5.138Zm24.906,1.034a3.06,3.06,0,0,1-2.173-.895h0l-7.783-7.773.526-.526a4.686,4.686,0,0,0-1.285-1.9,5.94,5.94,0,0,0-1.558-1.158l-1.216-.57,6.652-6.642.569,1.216a6.031,6.031,0,0,0,1.159,1.557,4.725,4.725,0,0,0,1.9,1.281l.527-.528,7.783,7.776a3.07,3.07,0,0,1,0,4.339l-2.928,2.924A3.046,3.046,0,0,1,1542.744,812.145Zm-.841-2.228a1.222,1.222,0,0,0,1.678,0l2.929-2.925a1.186,1.186,0,0,0,0-1.678l-6.7-6.691c-.057.006-.143,0-.179.009a5.436,5.436,0,0,1-3.332-1.848,9.4,9.4,0,0,1-.853-.982l-3.07,3.063a9.241,9.241,0,0,1,.983.855c1.1,1.093,1.936,2.457,1.844,3.506Zm-16.886-18.631-6.937-6.93-3.6-1.6-3.211-5.3,2.737-2.738,5.305,3.209,1.6,3.593,6.937,6.928Zm-9.228-10.012,3.378,1.505,5.85,5.843.173-.173-5.852-5.843-1.507-3.373-3.536-2.138-.648.647Z" transform="translate(-1509.414 -772.868)"/><g transform="translate(27.027 26.985)"><path class="b" d="M1549.168,813.682a.724.724,0,0,1-.52-.217l-6.571-6.569a.73.73,0,0,1-.007-1.032l.007-.007.377-.381a.742.742,0,0,1,1.041,0l6.581,6.57a.734.734,0,0,1,0,1.038l-.382.381A.725.725,0,0,1,1549.168,813.682Zm-6.175-7.705-.416.382,6.575,6.61a.039.039,0,0,0,.019.008l.4-.389Z" transform="translate(-1541.859 -805.263)"/></g></g></g><g transform="translate(708.113 1581.12)"><g transform="translate(33.438 78.441)"><path class="a" d="M1791.42,885.816a.537.537,0,0,1-.042-1.073h5.813v-2.681h-60.036v2.681h49.622a.537.537,0,1,1,.042,1.073h-49.665v2.41h60.036v-2.41Z" transform="translate(-1725.631 -852.199)"/><path class="a" d="M1798.885,849.6h-67.124a5.006,5.006,0,0,0-5.022,4.979V877.8a5.007,5.007,0,0,0,5.022,4.979h.791v-9.019h65.75l0,9.016h.587a5.006,5.006,0,0,0,5.022-4.979V854.578A5.005,5.005,0,0,0,1798.885,849.6Zm-11.349,7.442h-23.729a.537.537,0,0,1-.042-1.072h23.729a.537.537,0,1,1,.043,1.072Zm9.453,0h-4.846a.537.537,0,0,1-.042-1.072h4.847a.537.537,0,0,1,.042,1.072Z" transform="translate(-1723.881 -846.745)"/><path class="c" d="M1798.308,846.169h-67.124A7.865,7.865,0,0,0,1723.3,854v23.216a7.866,7.866,0,0,0,7.88,7.833h67.124a7.864,7.864,0,0,0,7.879-7.829V854A7.864,7.864,0,0,0,1798.308,846.169Zm-63.48,36.028v-2.41h49.665a.537.537,0,0,0-.043-1.073h-49.622v-2.682h60.035v2.682h-5.813a.537.537,0,0,0,.043,1.073h5.771v2.41Zm68.5-4.979a5.007,5.007,0,0,1-5.022,4.979h-.588l0-9.016h-65.75V882.2h-.792a5.006,5.006,0,0,1-5.022-4.979V854a5,5,0,0,1,5.022-4.979h67.124A5.005,5.005,0,0,1,1803.33,854Z" transform="translate(-1723.304 -846.169)"/><path class="c" d="M1785.023,895.9a.538.538,0,0,0-.538.538v8.418a.539.539,0,0,0,.538.537h0a.537.537,0,0,0,.533-.536v-8.419A.537.537,0,0,0,1785.023,895.9Z" transform="translate(-1733.582 -854.524)"/><path class="c" d="M1750.614,895.794a.538.538,0,0,0-.677.345,19.723,19.723,0,0,1-1.854,4.024,26.4,26.4,0,0,1-3.284,4.311.536.536,0,0,0,.394.9h0a.539.539,0,0,0,.391-.171,27.532,27.532,0,0,0,3.416-4.488,20.821,20.821,0,0,0,1.957-4.243A.536.536,0,0,0,1750.614,895.794Z" transform="translate(-1726.891 -854.501)"/><path class="c" d="M1773.1,895.88a.536.536,0,0,0-.515.557v8.418a.537.537,0,0,0,.536.537h0a.537.537,0,0,0,.533-.536v-8.419a.277.277,0,0,0,0-.043A.536.536,0,0,0,1773.1,895.88Z" transform="translate(-1731.583 -854.52)"/><path class="c" d="M1761.224,895.9a.538.538,0,0,0-.538.538v8.418a.539.539,0,0,0,.538.537h0a.537.537,0,0,0,.535-.536v-8.419A.537.537,0,0,0,1761.224,895.9Z" transform="translate(-1729.584 -854.524)"/><path class="c" d="M1810.041,857.255h-4.8a.277.277,0,0,0-.043,0,.537.537,0,1,0,.043,1.072h4.846a.537.537,0,1,0-.042-1.072Z" transform="translate(-1736.974 -848.031)"/><path class="c" d="M1794.865,857.255h-23.686a.274.274,0,0,0-.042,0,.537.537,0,1,0,.042,1.072h23.729a.537.537,0,1,0-.043-1.072Z" transform="translate(-1731.253 -848.031)"/><path class="c" d="M1797.216,900.158a19.708,19.708,0,0,1-1.856-4.024l-.008-.025a.537.537,0,0,0-1.013.358,20.847,20.847,0,0,0,1.958,4.243,27.43,27.43,0,0,0,3.416,4.488.541.541,0,0,0,.393.172h0a.542.542,0,0,0,.363-.142.536.536,0,0,0,.03-.758A26.391,26.391,0,0,1,1797.216,900.158Z" transform="translate(-1735.232 -854.499)"/></g><rect class="a" width="149.762" height="149.584"/><g transform="translate(52.942 20.801)"><path class="a" d="M1766.225,792.832h-4.892a.332.332,0,0,0-.323.323v9.319a.325.325,0,0,0,.323.323h4.892a.324.324,0,0,0,.324-.323v-9.319A.332.332,0,0,0,1766.225,792.832Z" transform="translate(-1749.142 -779.568)"/><path class="a" d="M1782.92,793.547l-.13-.463.037-.126a1.812,1.812,0,0,0-.021-1.176,1.4,1.4,0,0,0-1.187-1.009,5.327,5.327,0,0,0-.791-.022l-1.227.016-1.275-.008a.956.956,0,0,1-.749-.312c-.291-.358-.193-.857-.046-1.611a14.061,14.061,0,0,0,.3-3.8c-.06-1.005-.59-1.615-1.082-1.7a.594.594,0,0,0-.119-.011.781.781,0,0,0-.7.583,10.016,10.016,0,0,0-.4,1.31c-.37,1.45-1.305,4.091-3.4,5.5a4.892,4.892,0,0,1-2.46.832l-.071,9.36a7.937,7.937,0,0,1,2.866.709,6.861,6.861,0,0,0,3.113.646c.978.006,1.954.009,2.935,0h1.66a1.443,1.443,0,0,0,1.289-.636,1.735,1.735,0,0,0,.231-1.517l-.04-.144.2-.507.161-.076a1.484,1.484,0,0,0,.824-1,1.81,1.81,0,0,0-.024-1.093l-.1-.3.254-.195a1.745,1.745,0,0,0,.67-1.477,2.735,2.735,0,0,0-.563-1.691Z" transform="translate(-1750.586 -777.971)"/><path class="a" d="M1785.392,779.769h-33.141a2.631,2.631,0,0,0-2.627,2.627V815.7a.134.134,0,1,0,.158.218.131.131,0,0,0,.056-.11l11.075-7.846h24.479a2.629,2.629,0,0,0,2.625-2.627V782.4A2.628,2.628,0,0,0,1785.392,779.769Zm-5.055,18.273a2.39,2.39,0,0,1-1.091,1.445,2.6,2.6,0,0,1-.406,2.05,2.309,2.309,0,0,1-2.041,1.028c-.468-.008-.939-.007-1.409,0h-.237c-.37.009-.737.01-1.1.01q-.915,0-1.842-.007a7.781,7.781,0,0,1-3.454-.716,7.623,7.623,0,0,0-2.522-.677.859.859,0,0,1-.786-.472,1.221,1.221,0,0,1-1.141.794h-4.892a1.223,1.223,0,0,1-1.222-1.22v-9.319a1.223,1.223,0,0,1,1.222-1.22h4.892a1.218,1.218,0,0,1,1.139.791.855.855,0,0,1,.759-.474,4.02,4.02,0,0,0,2.067-.679c1.85-1.248,2.694-3.656,3.032-4.981a10.987,10.987,0,0,1,.445-1.428,1.625,1.625,0,0,1,1.79-1.117,2.512,2.512,0,0,1,1.83,2.53,14.831,14.831,0,0,1-.32,4.026,5.421,5.421,0,0,0-.128.851h.059l.891.007.37-.01h.875l.333,0a6.414,6.414,0,0,1,.929.031,2.269,2.269,0,0,1,1.909,1.581,2.661,2.661,0,0,1,.088,1.56,3.646,3.646,0,0,1,.792,2.1A5.971,5.971,0,0,0,1780.337,798.042Z" transform="translate(-1747.22 -777.374)"/><path class="d" d="M1784.917,776.89h-33.141a5.028,5.028,0,0,0-5.022,5.022v33.309a2.6,2.6,0,0,0,1.265,2.445,2.118,2.118,0,0,0,.984.237,3.062,3.062,0,0,0,1.748-.62l10.453-7.4h23.712a5.026,5.026,0,0,0,5.021-5.022V781.912A5.027,5.027,0,0,0,1784.917,776.89Zm2.626,27.966a2.629,2.629,0,0,1-2.625,2.627h-24.479l-11.075,7.846a.131.131,0,0,1-.055.11.135.135,0,0,1-.159-.218V781.912a2.631,2.631,0,0,1,2.627-2.627h33.141a2.629,2.629,0,0,1,2.625,2.627Z" transform="translate(-1746.746 -776.89)"/><path class="d" d="M1782.112,792.837a2.66,2.66,0,0,0-.088-1.56,2.268,2.268,0,0,0-1.909-1.581,6.376,6.376,0,0,0-.929-.031l-.333,0h-.875l-.37.01-.891-.007h-.059a5.414,5.414,0,0,1,.127-.851,14.823,14.823,0,0,0,.32-4.026,2.511,2.511,0,0,0-1.83-2.53,1.625,1.625,0,0,0-1.79,1.117,10.952,10.952,0,0,0-.444,1.429c-.338,1.325-1.182,3.733-3.032,4.981a4.025,4.025,0,0,1-2.067.679.855.855,0,0,0-.759.474,1.219,1.219,0,0,0-1.14-.791h-4.891a1.223,1.223,0,0,0-1.223,1.221v9.319a1.224,1.224,0,0,0,1.223,1.221h4.891a1.222,1.222,0,0,0,1.141-.794.86.86,0,0,0,.786.472,7.615,7.615,0,0,1,2.522.677,7.775,7.775,0,0,0,3.454.715q.927.007,1.842.008c.368,0,.735,0,1.105-.01h.237c.47-.007.941-.008,1.409,0a2.309,2.309,0,0,0,2.041-1.028,2.6,2.6,0,0,0,.406-2.05,2.389,2.389,0,0,0,1.091-1.445,5.978,5.978,0,0,1,.826-3.524A3.644,3.644,0,0,0,1782.112,792.837Zm-15.744,7.859a.324.324,0,0,1-.325.323h-4.891a.325.325,0,0,1-.324-.323v-9.319a.333.333,0,0,1,.324-.323h4.891a.332.332,0,0,1,.325.323Zm14.974-4.071-.254.195.1.3a1.811,1.811,0,0,1,.024,1.093,1.483,1.483,0,0,1-.824,1l-.161.076-.2.507.039.144a1.733,1.733,0,0,1-.231,1.517,1.442,1.442,0,0,1-1.289.637h-1.66c-.981,0-1.956,0-2.935,0a6.854,6.854,0,0,1-3.113-.646,7.934,7.934,0,0,0-2.866-.709l.071-9.36a4.9,4.9,0,0,0,2.46-.832c2.1-1.413,3.033-4.055,3.4-5.5a10.168,10.168,0,0,1,.4-1.31.782.782,0,0,1,.7-.582.586.586,0,0,1,.119.011c.492.081,1.022.691,1.082,1.7a14.061,14.061,0,0,1-.3,3.8c-.147.754-.245,1.253.046,1.611a.956.956,0,0,0,.749.312l1.276.008,1.227-.016a5.343,5.343,0,0,1,.791.022,1.4,1.4,0,0,1,1.187,1.009,1.813,1.813,0,0,1,.021,1.176l-.038.126.131.463.153.089a2.732,2.732,0,0,1,.563,1.692A1.744,1.744,0,0,1,1781.342,796.624Z" transform="translate(-1748.96 -777.79)"/></g></g><g transform="translate(786.487 900.796) rotate(90)"><g transform="translate(7.939 3.114)"><rect class="d" width="32.401" height="1.277"/></g><g transform="translate(37.966 0)"><path class="d" d="M10.31,3.752,0,0A7.379,7.379,0,0,1,0,7.5L10.31,3.752"/></g><g transform="translate(0 0)"><path class="d" d="M0,3.752,10.309,7.5a7.379,7.379,0,0,1,0-7.5L0,3.752"/></g></g><g transform="translate(786.487 1100.03) rotate(90)"><g transform="translate(7.939 3.114)"><rect class="d" width="32.401" height="1.277"/></g><g transform="translate(37.966 0)"><path class="d" d="M10.31,3.752,0,0A7.379,7.379,0,0,1,0,7.5L10.31,3.752"/></g><g transform="translate(0 0)"><path class="d" d="M0,3.752,10.309,7.5a7.379,7.379,0,0,1,0-7.5L0,3.752"/></g></g><g transform="translate(786.487 1350.292) rotate(90)"><g transform="translate(0 3.114)"><rect class="d" width="32.401" height="1.277"/></g><g transform="translate(30.027 0)"><path class="d" d="M10.31,3.752,0,0A7.379,7.379,0,0,1,0,7.5L10.31,3.752"/></g></g><g transform="translate(786.487 1540.167) rotate(90)"><g transform="translate(0 3.114)"><rect class="d" width="32.401" height="1.277"/></g><g transform="translate(30.027 0)"><path class="d" d="M10.31,3.752,0,0A7.379,7.379,0,0,1,0,7.5L10.31,3.752"/></g></g><g transform="translate(708.114 751.791)"><g transform="translate(33.438 78.441)"><path class="a" d="M838.885,849.6H771.761a5.005,5.005,0,0,0-5.022,4.979V877.8a5.007,5.007,0,0,0,5.022,4.979h.791v-9.019H838.3l0,9.016h.587a5.007,5.007,0,0,0,5.022-4.979V854.578A5.006,5.006,0,0,0,838.885,849.6Zm-11.349,7.443H803.807a.537.537,0,1,1-.042-1.072h23.728a.537.537,0,1,1,.042,1.072Zm9.455,0h-4.846a.537.537,0,1,1-.042-1.072h4.846a.537.537,0,0,1,.042,1.072Z" transform="translate(-763.881 -846.745)"/><path class="a" d="M831.419,885.817a.537.537,0,1,1-.042-1.073h5.812v-2.682H777.155v2.682h49.622a.537.537,0,1,1,.042,1.073H777.155v2.409H837.19v-2.409Z" transform="translate(-765.631 -852.199)"/><path class="c" d="M838.308,846.169H771.184A7.865,7.865,0,0,0,763.3,854v23.216a7.866,7.866,0,0,0,7.88,7.833h67.124a7.864,7.864,0,0,0,7.879-7.829V854A7.863,7.863,0,0,0,838.308,846.169ZM774.828,882.2v-2.409h49.664a.537.537,0,1,0-.042-1.072H774.828v-2.682h60.035v2.682h-5.771a.263.263,0,0,0-.042,0,.537.537,0,1,0,.042,1.072h5.771V882.2Zm68.5-4.979a5.006,5.006,0,0,1-5.022,4.979h-.588l0-9.016H771.975V882.2h-.791a5.007,5.007,0,0,1-5.022-4.979V854a5.005,5.005,0,0,1,5.022-4.979h67.124A5.005,5.005,0,0,1,843.329,854Z" transform="translate(-763.304 -846.169)"/><path class="c" d="M834.866,857.256H811.138a.537.537,0,1,0,.042,1.073h23.729a.537.537,0,0,0-.043-1.073Z" transform="translate(-771.253 -848.031)"/><path class="c" d="M850.042,857.256H845.2a.537.537,0,1,0,.042,1.073h4.846a.537.537,0,1,0-.042-1.073Z" transform="translate(-776.975 -848.031)"/></g><rect class="a" width="149.761" height="149.583"/><rect class="a" width="149.761" height="149.583"/><g transform="translate(54.08 20.8)"><path class="a" d="M809.091,779.69a18.177,18.177,0,1,0,18.177,18.177A18.176,18.176,0,0,0,809.091,779.69Zm8.507,26.037-.647.646-7.86-7.86-7.861,7.86-.647-.646,7.861-7.861-7.861-7.86.647-.648,7.861,7.861,7.86-7.861.647.648-7.861,7.86Z" transform="translate(-788.584 -777.36)"/><path class="e" d="M808.621,776.89A20.506,20.506,0,1,0,829.127,797.4h0A20.507,20.507,0,0,0,808.621,776.89Zm0,38.683A18.177,18.177,0,1,1,826.8,797.4,18.177,18.177,0,0,1,808.621,815.573Z" transform="translate(-788.114 -776.89)"/><path class="e" d="M818.9,791.311l-7.861,7.861-7.861-7.861-.646.646,7.861,7.861-7.861,7.861.646.646,7.861-7.861,7.861,7.861.646-.646-7.861-7.861,7.861-7.861Z" transform="translate(-790.536 -779.313)"/></g></g><path d="M22.177,11.624h.9l4.887-6.809v6.809h.914v-8.2H28L23.1,10.23V3.421h-.926Zm8.871,0h.9V8.976h3.492v2.648h.9V5.566h-.9V8.179H31.951V5.566h-.9Zm6.539,0h1.055L40.658,8.8l1.23,1.348v1.477h.9V10.148L44.021,8.8l2.016,2.824h1.055L44.607,8.156l2.355-2.59h-1.09L42.791,9.081V5.566h-.9V9.081L38.806,5.566h-1.09l2.355,2.59Zm13.394.141a3.127,3.127,0,0,0,2.5-1.137l-.562-.5a2.507,2.507,0,0,1-1.91.855,2.117,2.117,0,0,1-2.133-2.016h4.8c.012-.141.012-.234.012-.316,0-1.781-1.031-3.211-2.824-3.211A2.992,2.992,0,0,0,47.959,8.6,3.015,3.015,0,0,0,50.982,11.765ZM48.873,8.238A2.092,2.092,0,0,1,50.841,6.2a1.99,1.99,0,0,1,1.934,2.039Zm6.4,3.387h.9V8.976h3.492v2.648h.9V5.566h-.9V8.179H56.173V5.566h-.9Zm9.961.141a3.127,3.127,0,0,0,2.5-1.137l-.562-.5a2.507,2.507,0,0,1-1.91.855,2.117,2.117,0,0,1-2.133-2.016h4.8c.012-.141.012-.234.012-.316,0-1.781-1.031-3.211-2.824-3.211A2.992,2.992,0,0,0,62.208,8.6,3.015,3.015,0,0,0,65.232,11.765ZM63.122,8.238A2.092,2.092,0,0,1,65.091,6.2a1.99,1.99,0,0,1,1.934,2.039Zm6.4,5.262h.9V10.464a2.733,2.733,0,0,0,2.32,1.289A2.966,2.966,0,0,0,75.638,8.6a2.962,2.962,0,0,0-2.895-3.164,2.724,2.724,0,0,0-2.32,1.348V5.566h-.9Zm3.059-2.555A2.255,2.255,0,0,1,70.388,8.6a2.266,2.266,0,0,1,2.191-2.355,2.182,2.182,0,0,1,2.133,2.344A2.146,2.146,0,0,1,72.579,10.945Zm4.723.68h.9V8.976H81.7v2.648h.9V5.566h-.9V8.179H78.2V5.566h-.9Zm7.312,0H87.24c1.383,0,2.285-.762,2.285-1.969,0-1.277-1.078-1.816-2.391-1.816H85.517V5.566h-.9Zm.9-.8V8.613h1.605c.926,0,1.488.363,1.488,1.066,0,.762-.551,1.148-1.453,1.148Zm5.1.8h.9V5.566h-.9Zm2.918,0H94.4l3.609-4.793v4.793h.9V5.566h-.879l-3.6,4.793V5.566h-.9ZM96.193,4.7a1.639,1.639,0,0,0,1.652-1.43l-.621-.129a1.058,1.058,0,0,1-2.062,0l-.621.129A1.639,1.639,0,0,0,96.193,4.7Zm13.476,8.437h.75l.141-2.309h-.914V5.566h-.9v5.262h-3.4V5.566h-.9v6.059h5.227Zm4.781-1.371a3.127,3.127,0,0,0,2.5-1.137l-.562-.5a2.507,2.507,0,0,1-1.91.855,2.117,2.117,0,0,1-2.133-2.016h4.8c.012-.141.012-.234.012-.316,0-1.781-1.031-3.211-2.824-3.211A2.992,2.992,0,0,0,111.427,8.6,3.015,3.015,0,0,0,114.45,11.765Zm-2.109-3.527A2.092,2.092,0,0,1,114.31,6.2a1.99,1.99,0,0,1,1.934,2.039Zm6.4,3.387h.9V8.976h3.492v2.648h.9V5.566h-.9V8.179h-3.492V5.566h-.9Zm8.777,0h.914V6.363H130.6v-.8h-5.25v.8h2.168Zm4.394,1.875h.9V10.464a2.733,2.733,0,0,0,2.32,1.289A2.966,2.966,0,0,0,138.028,8.6a2.962,2.962,0,0,0-2.895-3.164,2.724,2.724,0,0,0-2.32,1.348V5.566h-.9Zm3.059-2.555A2.255,2.255,0,0,1,132.778,8.6a2.266,2.266,0,0,1,2.191-2.355A2.182,2.182,0,0,1,137.1,8.589,2.146,2.146,0,0,1,134.97,10.945ZM57.281,29.112l.691-.4L56.39,26.546,57.972,24.4l-.691-.387-1.9,2.5V26.6Zm2.613,0,.68-.4-1.582-2.168L60.574,24.4l-.68-.387-1.9,2.5V26.6Zm1.488,2.309h.785l.164-1.828h6.656v1.828h.773l.141-2.672H68.835V21.39H63.468v1.43a11.522,11.522,0,0,1-1.242,5.93h-.844Zm1.887-2.672a11.955,11.955,0,0,0,1.09-5.449V22.234H67.91v6.516Zm9.644.973a2.656,2.656,0,0,0,2.18-1.031v.9h.891v-3.7a2.4,2.4,0,0,0-.633-1.781,2.689,2.689,0,0,0-1.957-.668,4.966,4.966,0,0,0-2.2.516l.27.738a4.215,4.215,0,0,1,1.84-.434c1.137,0,1.793.562,1.793,1.641v.187a6.348,6.348,0,0,0-1.852-.258c-1.535,0-2.59.68-2.59,1.98A2.037,2.037,0,0,0,72.913,29.722ZM73.089,29c-.82,0-1.523-.445-1.523-1.207s.645-1.242,1.77-1.242a6.229,6.229,0,0,1,1.77.258v.562A1.812,1.812,0,0,1,73.089,29Zm4.8.6h.867L82.37,24.8v4.793h.9V23.534h-.879l-3.6,4.793V23.534h-.9Zm11.238,0h.9V23.534h-.9v2.754a3.659,3.659,0,0,1-1.91.574A1.094,1.094,0,0,1,86,25.7V23.534h-.9v2.3a1.76,1.76,0,0,0,2,1.816,4.76,4.76,0,0,0,2.027-.551Zm2.918,0h.867L96.527,24.8v4.793h.9V23.534H96.55l-3.6,4.793V23.534h-.9Zm7.758-.48,1.9-2.508v-.094l-1.9-2.5-.68.4,1.582,2.156-1.582,2.156Zm2.613,0,1.9-2.508v-.094l-1.9-2.5-.691.4,1.582,2.156-1.582,2.156Z" transform="translate(703.262 1162.431)"/></g></svg>