<svg xmlns="http://www.w3.org/2000/svg" width="90" height="90" viewBox="0 0 90 90"><defs><style>.b{fill:none}</style></defs><g transform="translate(-781.454 -1112.701)"><circle cx="45" cy="45" r="45" transform="translate(781.454 1112.701)" fill="#fff"/><path class="b" d="M818.178 1173.458v5.87a12.206 12.206 0 006.444 2.084h10.537c3.7 0 4.349-1.014 4.7-2.053a1.837 1.837 0 00-.08-1.548 1.317 1.317 0 00-1.037-.552 1.043 1.043 0 01-.156-.049 1.017 1.017 0 01-.2-.062.953.953 0 01-.159-.113 1.028 1.028 0 01-.149-.125 1.009 1.009 0 01-.1-.165 1.832 1.832 0 01-.154-.536c0-.013.008-.025.009-.038s-.005-.026 0-.039a.992.992 0 01.051-.162 1.04 1.04 0 01.058-.187 1.007 1.007 0 01.127-.175.959.959 0 01.109-.131.841.841 0 01.546-.234.922.922 0 01.157-.028 2.412 2.412 0 002.591-1.741 2.217 2.217 0 00-.141-1.893 1.559 1.559 0 00-1.337-.517h-.03a.982.982 0 01-.182-.042 1.056 1.056 0 01-.2-.047.927.927 0 01-.163-.109 1.045 1.045 0 01-.16-.114 1.147 1.147 0 01-.109-.163.92.92 0 01-.1-.166.979.979 0 01-.04-.2.937.937 0 01-.038-.186v-.028a.95.95 0 01.042-.179 1.045 1.045 0 01.047-.2 9.683 9.683 0 01.225-.321 1.073 1.073 0 01.158-.106 1.045 1.045 0 01.169-.107 1.057 1.057 0 01.207-.041.95.95 0 01.178-.037h.03a2.273 2.273 0 002.57-1.665 2.421 2.421 0 00-.2-1.863 1.582 1.582 0 00-1.278-.475h-.01a1.006 1.006 0 01-.192-.045 1.076 1.076 0 01-.2-.047 1.019 1.019 0 01-.16-.113 1 1 0 01-.16-.115 1.113 1.113 0 01-.106-.165.943.943 0 01-.1-.166.963.963 0 01-.037-.2.943.943 0 01-.035-.193v-.01a.951.951 0 01.049-.215 1.037 1.037 0 01.039-.171 1 1 0 01.131-.188.972.972 0 01.091-.129 1 1 0 01.217-.144.778.778 0 01.105-.069 1 1 0 01.392-.079h.032a2.358 2.358 0 002.569-1.669 2.332 2.332 0 00-.29-1.912 1.125 1.125 0 00-.944-.421h-10.6a1.025 1.025 0 01-.878-1.553 35.5 35.5 0 003.121-6.257 8.887 8.887 0 00-2.5-7.786 3.216 3.216 0 00-2.924-.957c-.8.235-.869.5-.9.6a4.692 4.692 0 00.151 1.636 8.091 8.091 0 01-.972 6.608c-1.525 2.31-7.4 8.018-8.83 9.392v12.811zm-13.262-5.991v14.922h11.213v-24.3h-11.213zm7.089 8.061a2.787 2.787 0 11-2.787 2.787 2.787 2.787 0 012.787-2.786z"/><path class="b" d="M812.004 1179.057a.741.741 0 10-.742-.741.742.742 0 00.742.741z"/><path d="M842.502 1156.912h-8.816a26.362 26.362 0 002.467-5.329l.006-.028a10.908 10.908 0 00-3.132-9.707 5.057 5.057 0 00-4.883-1.406 2.967 2.967 0 00-2.295 2.029 5.759 5.759 0 00.117 2.551 6.177 6.177 0 01-.669 5.1 76.9 76.9 0 01-7.119 7.66v2.86c1.428-1.374 7.305-7.081 8.83-9.392a8.091 8.091 0 00.972-6.608 4.692 4.692 0 01-.151-1.636c.027-.1.1-.361.9-.6a3.216 3.216 0 012.924.957 8.887 8.887 0 012.5 7.786 35.5 35.5 0 01-3.121 6.257 1.025 1.025 0 00.878 1.553h10.6a1.125 1.125 0 01.944.421 2.332 2.332 0 01.29 1.912 2.358 2.358 0 01-2.569 1.669h-.032a1 1 0 00-.392.079.778.778 0 00-.105.069 1 1 0 00-.217.144.972.972 0 00-.091.129 1 1 0 00-.131.188 1.037 1.037 0 00-.039.171.951.951 0 00-.049.215v.01a.943.943 0 00.035.193.963.963 0 00.037.2.943.943 0 00.1.166 1.113 1.113 0 00.106.165 1 1 0 00.16.115 1.019 1.019 0 00.16.113 1.076 1.076 0 00.2.047 1.006 1.006 0 00.192.045h.01a1.582 1.582 0 011.278.475 2.421 2.421 0 01.2 1.863 2.273 2.273 0 01-2.57 1.665h-.035a.95.95 0 00-.178.037 1.057 1.057 0 00-.207.041 1.045 1.045 0 00-.169.107 1.073 1.073 0 00-.158.106 9.683 9.683 0 00-.225.321 1.045 1.045 0 00-.047.2.95.95 0 00-.042.179v.028a.937.937 0 00.038.186.979.979 0 00.04.2.92.92 0 00.1.166 1.147 1.147 0 00.109.163 1.045 1.045 0 00.16.114.927.927 0 00.163.109 1.056 1.056 0 00.2.047.982.982 0 00.182.042h.03a1.559 1.559 0 011.337.517 2.217 2.217 0 01.141 1.893 2.412 2.412 0 01-2.591 1.741.922.922 0 00-.157.028 1.188 1.188 0 00-.546.234.959.959 0 00-.109.131 1.007 1.007 0 00-.127.175 1.04 1.04 0 00-.058.187.992.992 0 00-.051.162c0 .013.005.026 0 .039s-.008.024-.009.038a33.557 33.557 0 01.062.363 1 1 0 00.092.173 1.009 1.009 0 00.1.165 1.028 1.028 0 00.149.125.953.953 0 00.159.113 1.017 1.017 0 00.2.062 1.043 1.043 0 00.156.049 1.317 1.317 0 011.037.552 1.837 1.837 0 01.08 1.548c-.352 1.039-1 2.053-4.7 2.053h-10.531a12.206 12.206 0 01-6.444-2.084v2.392a13.71 13.71 0 006.444 1.742h10.539c2.708 0 5.613-.411 6.64-3.444a3.83 3.83 0 00-.295-3.312c-.018-.029-.045-.049-.064-.078a4.4 4.4 0 001.982-2.531 4.184 4.184 0 00-.44-3.725c-.019-.026-.044-.053-.065-.08a4 4 0 001.669-2.472 4.39 4.39 0 00-.568-3.575 4.027 4.027 0 001.709-2.472 4.315 4.315 0 00-.675-3.659 3.173 3.173 0 00-2.552-1.197zm-4.527-18.993a1.019 1.019 0 00.724-.3l5.422-5.421a1.025 1.025 0 00-1.449-1.449l-5.423 5.421a1.025 1.025 0 00.725 1.75zm-17.019-.301a1.025 1.025 0 001.449-1.449l-5.423-5.421a1.025 1.025 0 00-1.449 1.449z" fill="#00adef"/><path d="M810.638 1146.066h7.668a1.025 1.025 0 100-2.049h-7.668a1.025 1.025 0 100 2.049zm38.379-2.049h-7.667a1.025 1.025 0 100 2.049h7.667a1.025 1.025 0 100-2.049zm-19.189-9.473a1.025 1.025 0 001.025-1.025v-7.667a1.025 1.025 0 10-2.05 0v7.667a1.024 1.024 0 001.025 1.025zm-11.652 43.966v-21.447a1.025 1.025 0 00-1.025-1.025h-13.26a1.025 1.025 0 00-1.025 1.025v26.352a1.025 1.025 0 001.025 1.025h13.263a1.025 1.025 0 001.025-1.025v-4.9zm-2.05-6.36v10.24h-11.21v-24.3h11.213z"/><path d="M812.004 1181.103a2.787 2.787 0 10-2.787-2.787 2.787 2.787 0 002.787 2.787zm0-3.528a.741.741 0 11-.742.741.742.742 0 01.742-.742z"/></g></svg>