<svg xmlns="http://www.w3.org/2000/svg" width="136.506" height="421.091" viewBox="0 0 136.506 421.091"><defs><style>.a{fill:#1a1818;}.b{fill:none;}.c{fill:#00adef;}.d{fill:#191717;}.e{fill:#131212;}.f{fill:#fff;}</style></defs><g transform="translate(-15.562 -3900.193)"><g transform="translate(15.562 4059)"><g transform="translate(17.243 39.781)"><path class="a" d="M1184.95,524.943h-.154a19.381,19.381,0,0,1-2.33-38.62,15.052,15.052,0,0,1,18.386-12,22,22,0,0,1,36.829,10.662,13.749,13.749,0,0,1,17.012,12.3,13.755,13.755,0,0,1-.652,27.463l-.367.009-.247-.005C1252.788,524.756,1186.213,524.943,1184.95,524.943Zm12.337-48.875a12.868,12.868,0,0,0-12.785,11.381l-.1.893-.9.067a17.2,17.2,0,0,0,1.3,34.356h.158c1.3.055,67.829-.185,68.5-.187l.221,0,.335-.007a11.579,11.579,0,0,0-.365-23.152h-1.089v-1.089a11.568,11.568,0,0,0-15.345-10.945l-1.206.416-.222-1.253a19.826,19.826,0,0,0-33.816-10.265l-.454.473-.632-.182A12.924,12.924,0,0,0,1197.287,476.068Z" transform="translate(-1165.429 -468.021)"/><g transform="translate(18.004 37.101)"><path class="a" d="M1192.425,520.982a2.791,2.791,0,0,0,.986-.672,3.323,3.323,0,0,0,.856-2.239,3.236,3.236,0,0,0-.229-1.243,3.123,3.123,0,0,0-.627-1,3.044,3.044,0,0,0-.986-.685,3.38,3.38,0,0,0-1.284-.241h-1.813v6.339h1.813a3.124,3.124,0,0,0,1.284-.258M1191.141,513a5.432,5.432,0,0,1,2.041.385,5.306,5.306,0,0,1,1.657,1.086,5.1,5.1,0,0,1,1.112,1.613,5.121,5.121,0,0,1,0,3.97,5.1,5.1,0,0,1-1.112,1.612,5.019,5.019,0,0,1-1.657,1.072,5.169,5.169,0,0,1-2.041.4h-3.883V513Z" transform="translate(-1187.257 -513.001)"/></g><g transform="translate(39.24 37.101)"><rect class="a" width="2.07" height="10.137"/></g><g transform="translate(43.168 36.93)"><path class="a" d="M1225.556,519.126a2.683,2.683,0,0,1-2.792,2.148c-2.161,0-2.85-1.673-2.85-3.241s.689-3.242,2.85-3.242a2.683,2.683,0,0,1,2.792,2.148h2.12a4.715,4.715,0,0,0-4.835-4.146,5.242,5.242,0,0,0,0,10.48,4.716,4.716,0,0,0,4.835-4.147Z" transform="translate(-1217.765 -512.794)"/></g><g transform="translate(65.826 37.101)"><rect class="a" width="2.07" height="10.137"/></g><g transform="translate(54.826 37.101)"><path class="a" d="M1233.969,513v4.118h4.554V513h2.07v10.137h-2.07v-4.2h-4.554v4.2h-2.07V513Z" transform="translate(-1231.899 -513.001)"/></g><g transform="translate(9.859 36.929)"><path class="a" d="M1180.479,517.164a1.273,1.273,0,1,1,1.272-1.274,1.274,1.274,0,0,1-1.272,1.274m0-4.371a3.1,3.1,0,1,0,3.1,3.1,3.1,3.1,0,0,0-3.1-3.1" transform="translate(-1177.382 -512.793)"/></g><g transform="translate(30.168 43.377)"><rect class="a" width="4.94" height="1.786"/></g><g transform="translate(27.516 37.101)"><path class="a" d="M1202.278,513l-3.49,10.137h2.2L1204.34,513Z" transform="translate(-1198.788 -513.001)"/></g><g transform="translate(32.125 37.101)"><path class="a" d="M1204.377,513l3.323,10.137h2.2L1206.438,513Z" transform="translate(-1204.377 -513.001)"/></g></g><rect class="b" width="136" height="137.283" transform="translate(0 0)"/></g><g transform="translate(86.884 4047.153) rotate(90)"><g transform="translate(6.752 2.649)"><rect class="c" width="27.566" height="1.087"/></g><g transform="translate(32.3 0)"><path class="c" d="M935.846,524.4l-8.771-3.192a6.278,6.278,0,0,1,0,6.384l8.771-3.192" transform="translate(-927.075 -521.213)"/></g><g transform="translate(0 0)"><path class="c" d="M879.889,524.4l8.771,3.192a6.277,6.277,0,0,1,0-6.384l-8.771,3.192" transform="translate(-879.889 -521.213)"/></g></g><g transform="translate(86.884 4166.153) rotate(90)"><g transform="translate(6.752 2.649)"><rect class="c" width="27.566" height="1.087"/></g><g transform="translate(32.3 0)"><path class="c" d="M935.846,524.4l-8.771-3.192a6.278,6.278,0,0,1,0,6.384l8.771-3.192" transform="translate(-927.075 -521.213)"/></g><g transform="translate(0 0)"><path class="c" d="M879.889,524.4l8.771,3.192a6.277,6.277,0,0,1,0-6.384l-8.771,3.192" transform="translate(-879.889 -521.213)"/></g></g><g transform="translate(92 4061.067)"><path class="b" d="M1282.308,582.061a13.609,13.609,0,0,1,2.292-3.425,14.329,14.329,0,0,0-4.626,2.792A11.873,11.873,0,0,0,1282.308,582.061Z" transform="translate(-1278.096 -576.656)"/><path class="b" d="M1293.813,581.386v-4.851a14.315,14.315,0,0,0-2.031.216,9.9,9.9,0,0,0-3.623,4.241A42.855,42.855,0,0,0,1293.813,581.386Z" transform="translate(-1285.646 -574.504)"/><path class="b" d="M1319.776,581.428a14.316,14.316,0,0,0-4.625-2.792,13.614,13.614,0,0,1,2.293,3.425A11.858,11.858,0,0,0,1319.776,581.428Z" transform="translate(-1309.334 -576.656)"/><path class="b" d="M1284.555,620.94a45.782,45.782,0,0,1,6.236-.466v-7.662h-7.76A23.576,23.576,0,0,0,1284.555,620.94Z" transform="translate(-1281.549 -609.941)"/><path class="b" d="M1290.791,598.194V590.15a46.134,46.134,0,0,1-6.089-.444,23.3,23.3,0,0,0-1.672,8.488Z" transform="translate(-1281.549 -587.282)"/><path class="b" d="M1321.763,588.052a24.019,24.019,0,0,1,1.7,8.663h4.99a14.4,14.4,0,0,0-4.021-9.519A9.527,9.527,0,0,1,1321.763,588.052Z" transform="translate(-1318.243 -585.299)"/><path class="b" d="M1310.119,580.992a9.9,9.9,0,0,0-3.621-4.241,14.265,14.265,0,0,0-2.032-.216v4.851A42.844,42.844,0,0,0,1310.119,580.992Z" transform="translate(-1300.311 -574.504)"/><path class="b" d="M1287.742,634.328a10.18,10.18,0,0,0,3.8,4.6,14.253,14.253,0,0,0,2.029.215v-5.232A42.118,42.118,0,0,0,1287.742,634.328Z" transform="translate(-1285.319 -628.849)"/><path class="b" d="M1310.291,634.328a42.3,42.3,0,0,0-5.824-.42v5.232a14.268,14.268,0,0,0,2.029-.215A10.174,10.174,0,0,0,1310.291,634.328Z" transform="translate(-1300.392 -628.849)"/><path class="b" d="M1273.327,596.715a24.052,24.052,0,0,1,1.7-8.663,9.542,9.542,0,0,1-2.669-.855,14.4,14.4,0,0,0-4.021,9.518Z" transform="translate(-1266.223 -585.299)"/><path class="b" d="M1284.23,639.139a13.794,13.794,0,0,1-2.48-3.783,9.44,9.44,0,0,0-2.444.731A14.319,14.319,0,0,0,1284.23,639.139Z" transform="translate(-1277.553 -628.766)"/><path class="b" d="M1323.667,612.812a24.3,24.3,0,0,1-1.556,8.309,8.2,8.2,0,0,1,2.747.963,14.392,14.392,0,0,0,3.8-9.272Z" transform="translate(-1318.448 -611.782)"/><path class="b" d="M1274.885,621.121a24.264,24.264,0,0,1-1.557-8.309h-4.991a14.386,14.386,0,0,0,3.8,9.272A8.22,8.22,0,0,1,1274.885,621.121Z" transform="translate(-1266.223 -611.782)"/><path class="b" d="M1310.555,589.706a46.162,46.162,0,0,1-6.089.444v8.044h7.759A23.33,23.33,0,0,0,1310.555,589.706Z" transform="translate(-1301.385 -587.282)"/><path class="b" d="M1317.573,635.356a13.8,13.8,0,0,1-2.479,3.783,14.324,14.324,0,0,0,4.924-3.052A9.468,9.468,0,0,0,1317.573,635.356Z" transform="translate(-1309.449 -628.766)"/><path class="b" d="M1304.466,612.812v7.662a45.761,45.761,0,0,1,6.235.466,23.576,23.576,0,0,0,1.525-8.128Z" transform="translate(-1301.385 -609.941)"/><path class="c" d="M1269.354,571.591a6.161,6.161,0,1,0,6.16,6.161A6.168,6.168,0,0,0,1269.354,571.591Zm5.368,5.973h-1.871a9.009,9.009,0,0,0-.637-3.249,3.577,3.577,0,0,0,1-.321A5.4,5.4,0,0,1,1274.722,577.564Zm-6.325,5.506a3.817,3.817,0,0,1-1.423-1.724,15.779,15.779,0,0,1,2.184-.158v1.962A5.379,5.379,0,0,1,1268.4,583.07Zm1.914-10.636a3.711,3.711,0,0,1,1.358,1.59,16.045,16.045,0,0,1-2.12.148v-1.819A5.357,5.357,0,0,1,1270.311,572.434Zm.884.242a5.367,5.367,0,0,1,1.734,1.047,4.441,4.441,0,0,1-.875.237A5.1,5.1,0,0,0,1271.195,572.676Zm-2.8-.243a5.384,5.384,0,0,1,.762-.081v1.819a16.062,16.062,0,0,1-2.12-.148A3.712,3.712,0,0,1,1268.4,572.433Zm-1.744,1.527a4.455,4.455,0,0,1-.875-.237,5.373,5.373,0,0,1,1.735-1.047A5.1,5.1,0,0,0,1266.652,573.96Zm.223.421a17.307,17.307,0,0,0,2.283.166v3.017h-2.91A8.725,8.725,0,0,1,1266.875,574.381Zm2.283,3.559v2.873a17.185,17.185,0,0,0-2.339.175,8.849,8.849,0,0,1-.572-3.048Zm-1.637,4.891a5.368,5.368,0,0,1-1.847-1.144,3.544,3.544,0,0,1,.916-.274A5.179,5.179,0,0,0,1267.521,582.83Zm2.028.32v-1.962a15.83,15.83,0,0,1,2.184.158,3.813,3.813,0,0,1-1.423,1.724A5.372,5.372,0,0,1,1269.549,583.151Zm2.567-1.739a3.554,3.554,0,0,1,.917.274,5.374,5.374,0,0,1-1.846,1.144A5.164,5.164,0,0,0,1272.116,581.412Zm-.229-.424a17.174,17.174,0,0,0-2.338-.175V577.94h2.91A8.846,8.846,0,0,1,1271.887,580.988Zm-2.338-3.424v-3.017a17.319,17.319,0,0,0,2.284-.166,8.754,8.754,0,0,1,.626,3.183Zm-4.056-3.569a3.579,3.579,0,0,0,1,.321,9.022,9.022,0,0,0-.637,3.249h-1.872A5.4,5.4,0,0,1,1265.493,573.995Zm-1.508,3.945h1.872a9.09,9.09,0,0,0,.584,3.116,3.082,3.082,0,0,0-1.031.361A5.394,5.394,0,0,1,1263.985,577.94Zm9.312,3.477a3.078,3.078,0,0,0-1.03-.361,9.111,9.111,0,0,0,.583-3.116h1.871A5.4,5.4,0,0,1,1273.3,581.417Z" transform="translate(-1263.192 -571.591)"/></g><g transform="translate(92 4180.067)"><path class="b" d="M1282.308,582.061a13.609,13.609,0,0,1,2.292-3.425,14.329,14.329,0,0,0-4.626,2.792A11.873,11.873,0,0,0,1282.308,582.061Z" transform="translate(-1278.096 -576.656)"/><path class="b" d="M1293.813,581.386v-4.851a14.315,14.315,0,0,0-2.031.216,9.9,9.9,0,0,0-3.623,4.241A42.855,42.855,0,0,0,1293.813,581.386Z" transform="translate(-1285.646 -574.504)"/><path class="b" d="M1319.776,581.428a14.316,14.316,0,0,0-4.625-2.792,13.614,13.614,0,0,1,2.293,3.425A11.858,11.858,0,0,0,1319.776,581.428Z" transform="translate(-1309.334 -576.656)"/><path class="b" d="M1284.555,620.94a45.782,45.782,0,0,1,6.236-.466v-7.662h-7.76A23.576,23.576,0,0,0,1284.555,620.94Z" transform="translate(-1281.549 -609.941)"/><path class="b" d="M1290.791,598.194V590.15a46.134,46.134,0,0,1-6.089-.444,23.3,23.3,0,0,0-1.672,8.488Z" transform="translate(-1281.549 -587.282)"/><path class="b" d="M1321.763,588.052a24.019,24.019,0,0,1,1.7,8.663h4.99a14.4,14.4,0,0,0-4.021-9.519A9.527,9.527,0,0,1,1321.763,588.052Z" transform="translate(-1318.243 -585.299)"/><path class="b" d="M1310.119,580.992a9.9,9.9,0,0,0-3.621-4.241,14.265,14.265,0,0,0-2.032-.216v4.851A42.844,42.844,0,0,0,1310.119,580.992Z" transform="translate(-1300.311 -574.504)"/><path class="b" d="M1287.742,634.328a10.18,10.18,0,0,0,3.8,4.6,14.253,14.253,0,0,0,2.029.215v-5.232A42.118,42.118,0,0,0,1287.742,634.328Z" transform="translate(-1285.319 -628.849)"/><path class="b" d="M1310.291,634.328a42.3,42.3,0,0,0-5.824-.42v5.232a14.268,14.268,0,0,0,2.029-.215A10.174,10.174,0,0,0,1310.291,634.328Z" transform="translate(-1300.392 -628.849)"/><path class="b" d="M1273.327,596.715a24.052,24.052,0,0,1,1.7-8.663,9.542,9.542,0,0,1-2.669-.855,14.4,14.4,0,0,0-4.021,9.518Z" transform="translate(-1266.223 -585.299)"/><path class="b" d="M1284.23,639.139a13.794,13.794,0,0,1-2.48-3.783,9.44,9.44,0,0,0-2.444.731A14.319,14.319,0,0,0,1284.23,639.139Z" transform="translate(-1277.553 -628.766)"/><path class="b" d="M1323.667,612.812a24.3,24.3,0,0,1-1.556,8.309,8.2,8.2,0,0,1,2.747.963,14.392,14.392,0,0,0,3.8-9.272Z" transform="translate(-1318.448 -611.782)"/><path class="b" d="M1274.885,621.121a24.264,24.264,0,0,1-1.557-8.309h-4.991a14.386,14.386,0,0,0,3.8,9.272A8.22,8.22,0,0,1,1274.885,621.121Z" transform="translate(-1266.223 -611.782)"/><path class="b" d="M1310.555,589.706a46.162,46.162,0,0,1-6.089.444v8.044h7.759A23.33,23.33,0,0,0,1310.555,589.706Z" transform="translate(-1301.385 -587.282)"/><path class="b" d="M1317.573,635.356a13.8,13.8,0,0,1-2.479,3.783,14.324,14.324,0,0,0,4.924-3.052A9.468,9.468,0,0,0,1317.573,635.356Z" transform="translate(-1309.449 -628.766)"/><path class="b" d="M1304.466,612.812v7.662a45.761,45.761,0,0,1,6.235.466,23.576,23.576,0,0,0,1.525-8.128Z" transform="translate(-1301.385 -609.941)"/><path class="c" d="M1269.354,571.591a6.161,6.161,0,1,0,6.16,6.161A6.168,6.168,0,0,0,1269.354,571.591Zm5.368,5.973h-1.871a9.009,9.009,0,0,0-.637-3.249,3.577,3.577,0,0,0,1-.321A5.4,5.4,0,0,1,1274.722,577.564Zm-6.325,5.506a3.817,3.817,0,0,1-1.423-1.724,15.779,15.779,0,0,1,2.184-.158v1.962A5.379,5.379,0,0,1,1268.4,583.07Zm1.914-10.636a3.711,3.711,0,0,1,1.358,1.59,16.045,16.045,0,0,1-2.12.148v-1.819A5.357,5.357,0,0,1,1270.311,572.434Zm.884.242a5.367,5.367,0,0,1,1.734,1.047,4.441,4.441,0,0,1-.875.237A5.1,5.1,0,0,0,1271.195,572.676Zm-2.8-.243a5.384,5.384,0,0,1,.762-.081v1.819a16.062,16.062,0,0,1-2.12-.148A3.712,3.712,0,0,1,1268.4,572.433Zm-1.744,1.527a4.455,4.455,0,0,1-.875-.237,5.373,5.373,0,0,1,1.735-1.047A5.1,5.1,0,0,0,1266.652,573.96Zm.223.421a17.307,17.307,0,0,0,2.283.166v3.017h-2.91A8.725,8.725,0,0,1,1266.875,574.381Zm2.283,3.559v2.873a17.185,17.185,0,0,0-2.339.175,8.849,8.849,0,0,1-.572-3.048Zm-1.637,4.891a5.368,5.368,0,0,1-1.847-1.144,3.544,3.544,0,0,1,.916-.274A5.179,5.179,0,0,0,1267.521,582.83Zm2.028.32v-1.962a15.83,15.83,0,0,1,2.184.158,3.813,3.813,0,0,1-1.423,1.724A5.372,5.372,0,0,1,1269.549,583.151Zm2.567-1.739a3.554,3.554,0,0,1,.917.274,5.374,5.374,0,0,1-1.846,1.144A5.164,5.164,0,0,0,1272.116,581.412Zm-.229-.424a17.174,17.174,0,0,0-2.338-.175V577.94h2.91A8.846,8.846,0,0,1,1271.887,580.988Zm-2.338-3.424v-3.017a17.319,17.319,0,0,0,2.284-.166,8.754,8.754,0,0,1,.626,3.183Zm-4.056-3.569a3.579,3.579,0,0,0,1,.321,9.022,9.022,0,0,0-.637,3.249h-1.872A5.4,5.4,0,0,1,1265.493,573.995Zm-1.508,3.945h1.872a9.09,9.09,0,0,0,.584,3.116,3.082,3.082,0,0,0-1.031.361A5.394,5.394,0,0,1,1263.985,577.94Zm9.312,3.477a3.078,3.078,0,0,0-1.03-.361,9.111,9.111,0,0,0,.583-3.116h1.871A5.4,5.4,0,0,1,1273.3,581.417Z" transform="translate(-1263.192 -571.591)"/></g><g transform="translate(16.067 3900.193)"><path class="c" d="M264.494,391.5v-.82h4.1v.819Zm-2.048,0h-4.1v-.82h4.1Zm-6.145,0h-4.1v-.82h4.1Zm-6.145,0h-4.1v-.82h4.1Zm-6.145,0h-4.1v-.82h4.1Zm-6.145,0h-4.1v-.82h4.1Zm-6.145,0h-4.1v-.82h4.1Zm-6.145,0h-4.1v-.82h4.1Zm-6.145,0h-4.1v-.82h4.1Zm-6.145,0h-4.1v-.82h4.1Zm-6.145,0h-4.1v-.82h4.1Zm-6.145,0h-4.1v-.82H201Zm-6.145,0h-4.1v-.82h4.1Zm-6.145,0h-4.1v-.82h4.1Zm-6.145,0h-4.1v-.82h4.1Zm-6.145,0h-4.1v-.82h4.1Zm-6.145,0h-4.1v-.82h4.1Zm-6.145,0h-4.1v-.82h4.1Zm-6.145,0h-4.1v-.82h4.1Zm-6.145,0h-4.095v-.82h4.1Zm-6.145,0h-4.1v-.82h4.1Zm-6.145,0h-4.1v-.82h4.1Zm-5.735-.41H133v-4.1h.819ZM269,389.04h-.819v-4.1H269Zm-135.177-4.1H133v-4.1h.819ZM269,382.9h-.819v-4.1H269Zm-135.181-4.1H133v-4.1h.819ZM269,376.751h-.819v-4.1H269Zm-135.181-4.1H133v-4.1h.819ZM269,370.608h-.819v-4.1H269Zm-135.181-4.1H133v-4.1h.819ZM269,364.461h-.819v-4.1H269Zm-135.181-4.1H133v-4.1h.819ZM269,358.317h-.819v-4.1H269Zm-135.181-4.1H133v-4.1h.819ZM269,352.173h-.819v-4.1H269Zm-135.181-4.1H133v-4.1h.819ZM269,346.028h-.819v-4.1H269Zm-135.181-4.1H133v-4.1h.819ZM269,339.884h-.819v-4.1H269Zm-135.181-4.1H133v-4.1h.819ZM269,333.739h-.819v-4.1H269Zm-135.181-4.1H133v-4.1h.819ZM269,327.595h-.819v-4.1H269Zm-135.181-4.1H133v-4.1h.819ZM269,321.45h-.819v-4.1H269Zm-135.181-4.1H133v-4.1h.819ZM269,315.306h-.819v-4.1H269Zm-135.181-4.1H133v-4.1h.819ZM269,309.161h-.819v-4.1H269Zm-135.181-4.1H133v-4.1h.819ZM269,303.017h-.819v-4.1H269Zm-135.181-4.1H133v-4.1h.819ZM269,296.872h-.819v-4.1H269Zm-135.181-4.1H133v-4.1h.819ZM269,290.727h-.819v-4.1H269Zm-135.181-4.1H133v-4.1h.819ZM269,284.583h-.819v-4.1H269Zm-135.181-4.1H133v-4.1h.819ZM269,278.438h-.819v-4.1H269Zm-135.181-4.1H133v-4.1h.819ZM269,272.293h-.819v-4.1H269Zm-135.181-4.1H133v-4.1h.819ZM269,266.148h-.819v-4.1H269Zm-135.181-4.1H133v-4.1h.819ZM269,260h-.819v-4.1H269Zm-2.458-3.686h-4.1V255.5h4.1Zm-6.145,0h-4.1V255.5h4.1Zm-6.145,0h-4.1V255.5h4.1Zm-6.145,0h-4.1V255.5h4.1Zm-6.145,0h-4.1V255.5h4.1Zm-6.145,0h-4.1V255.5h4.1Zm-6.145,0h-4.1V255.5h4.1Zm-6.145,0h-4.1V255.5h4.1Zm-6.145,0h-4.1V255.5h4.1Zm-6.145,0h-4.1V255.5h4.1Zm-6.145,0H201V255.5h4.1Zm-6.145,0h-4.1V255.5h4.1Zm-6.145,0h-4.1V255.5h4.1Zm-6.145,0h-4.1V255.5h4.1Zm-6.145,0h-4.1V255.5h4.1Zm-6.145,0h-4.1V255.5h4.1Zm-6.145,0h-4.1V255.5h4.1Zm-6.145,0h-4.1V255.5h4.1Zm-6.145,0h-4.1V255.5h4.1Zm-6.145,0h-4.1V255.5h4.1Zm-6.145,0h-4.1V255.5h4.1Zm-6.145,0h-4.1V255.5h4.1Z" transform="translate(-133 -255.498)"/><g transform="translate(35.655 12.237)"><g transform="translate(40.129 59.264)"><path class="a" d="M316.888,446.164h.453l1.712,4.95,1.595-4.965h.311l1.6,4.965,1.712-4.95h.421l-1.978,5.6h-.326l-1.6-4.83-1.6,4.83h-.326Z" transform="translate(-316.888 -446.085)"/><path class="a" d="M338.534,445.994h.474v.532h-.474Zm.047,1.589h.382v4.052h-.382Z" transform="translate(-329.613 -445.994)"/><path class="a" d="M342.78,453.413h2.085v.445H342.78Z" transform="translate(-332.109 -450.355)"/><path class="a" d="M351.128,446.186h3.837v.382h-3.432v2.28h3.081v.381h-3.081v2.518h-.4Z" transform="translate(-337.017 -446.107)"/><path class="a" d="M363.328,445.994h.474v.532h-.474Zm.046,1.589h.382v4.052h-.382Z" transform="translate(-344.189 -445.994)"/></g><g transform="translate(25.384 83.216)"><path class="c" d="M294.741,497.285a9.438,9.438,0,0,0-13.344,0l-.289-.289a9.846,9.846,0,0,1,13.923,0Z" transform="translate(-281.109 -494.113)"/><g transform="translate(2.272 3.212)"><path class="c" d="M295.711,504.137l.291-.289a6.632,6.632,0,0,0-9.378,0l.288.289A6.223,6.223,0,0,1,295.711,504.137Z" transform="translate(-286.623 -501.907)"/><path class="c" d="M292.137,510.708l.289.288a3.009,3.009,0,0,1,4.254,0l.291-.288h0A3.418,3.418,0,0,0,292.137,510.708Z" transform="translate(-289.865 -506.492)"/></g><g transform="translate(2.272 3.212)"><path class="c" d="M295.711,504.137a6.223,6.223,0,0,0-8.8,0l-.288-.289a6.632,6.632,0,0,1,9.378,0Z" transform="translate(-286.623 -501.907)"/></g><g transform="translate(4.545 6.426)"><path class="c" d="M296.68,511a3.009,3.009,0,0,0-4.254,0l-.289-.288a3.418,3.418,0,0,1,4.833,0h0Z" transform="translate(-292.137 -509.707)"/></g></g><g transform="translate(25.383 33.415)"><g transform="translate(0 4.542)"><path class="c" d="M288.069,408.466a9.782,9.782,0,0,1-6.962-2.885l.289-.288a9.436,9.436,0,0,0,13.344,0l.289.288A9.783,9.783,0,0,1,288.069,408.466Z" transform="translate(-281.107 -405.293)"/></g><g transform="translate(2.272 2.272)"><path class="c" d="M291.311,402.015a6.587,6.587,0,0,1-4.69-1.942l.288-.288a6.222,6.222,0,0,0,8.8,0l.289.288A6.588,6.588,0,0,1,291.311,402.015Z" transform="translate(-286.621 -399.784)"/></g><g transform="translate(4.544)"><path class="c" d="M294.551,395.561a3.4,3.4,0,0,1-2.417-1l.288-.289a3.009,3.009,0,0,0,4.255,0l.289.289A3.393,3.393,0,0,1,294.551,395.561Z" transform="translate(-292.134 -394.271)"/></g><g transform="translate(2.272 2.272)"><path class="c" d="M291.311,402.015a6.587,6.587,0,0,1-4.69-1.942l.288-.288a6.222,6.222,0,0,0,8.8,0l.289.288A6.588,6.588,0,0,1,291.311,402.015Z" transform="translate(-286.621 -399.784)"/></g><g transform="translate(4.544)"><path class="c" d="M294.551,395.561a3.4,3.4,0,0,1-2.417-1l.288-.289a3.009,3.009,0,0,0,4.255,0l.289.289A3.393,3.393,0,0,1,294.551,395.561Z" transform="translate(-292.134 -394.271)"/></g></g><g transform="translate(29.161 48.655)"><g transform="translate(2.642 6.735)"><rect class="c" width="1.084" height="13.977"/></g><g transform="translate(0.001 18.698)"><path class="c" d="M293.459,474.372l3.184-8.748a6.262,6.262,0,0,1-6.368,0l3.184,8.748" transform="translate(-290.276 -465.624)"/></g><path class="c" d="M293.458,420.253,290.274,429a6.262,6.262,0,0,1,6.368,0l-3.184-8.748" transform="translate(-290.274 -420.253)"/></g><g transform="translate(0 0)"><path class="b" d="M822.807,849.6H770.642a3.89,3.89,0,0,0-3.9,3.869v18.045a3.891,3.891,0,0,0,3.9,3.869h.615v-7.009h51.1l0,7.007h.456a3.891,3.891,0,0,0,3.9-3.869V853.468A3.89,3.89,0,0,0,822.807,849.6Zm-8.819,5.784H795.546a.417.417,0,1,1-.032-.833h18.44a.417.417,0,1,1,.033.833Zm7.348,0h-3.766a.417.417,0,0,1-.033-.833H821.3a.417.417,0,1,1,.033.833Z" transform="translate(-764.518 -847.381)"/><path class="b" d="M819.326,884.98a.417.417,0,1,1-.032-.833h4.517v-2.084H777.155v2.084h38.563a.417.417,0,1,1,.033.833h-38.6v1.872h46.656V884.98Z" transform="translate(-768.199 -858.854)"/><path class="d" d="M821.593,846.169H769.428a6.112,6.112,0,0,0-6.124,6.087V870.3a6.113,6.113,0,0,0,6.124,6.087h52.165a6.112,6.112,0,0,0,6.123-6.084V852.256A6.111,6.111,0,0,0,821.593,846.169Zm-49.333,28v-1.872h38.6a.417.417,0,0,0-.033-.833H772.26v-2.085h46.656v2.085H814.4a.417.417,0,1,0,.032.833h4.485v1.872ZM825.5,870.3a3.891,3.891,0,0,1-3.9,3.869h-.457l0-7.006h-51.1v7.009h-.615a3.891,3.891,0,0,1-3.9-3.869V852.256a3.89,3.89,0,0,1,3.9-3.869h52.165a3.89,3.89,0,0,1,3.9,3.869Z" transform="translate(-763.304 -846.169)"/><path class="d" d="M829.463,857.256h-18.44a.417.417,0,1,0,.033.833H829.5a.417.417,0,1,0-.033-.833Z" transform="translate(-780.027 -850.087)"/><path class="d" d="M848.848,857.256h-3.766a.417.417,0,1,0,.033.833h3.766a.417.417,0,1,0-.033-.833Z" transform="translate(-792.064 -850.087)"/></g><g transform="translate(13.258 82.006)"><path class="e" d="M322.723,552.471h0v.97h2.1v-.97h-2.1Z" transform="translate(-293.446 -527.211)"/><path class="e" d="M334.135,552.47h-2.1v.97h2.1v-.97h0Z" transform="translate(-298.924 -527.211)"/><path class="e" d="M315.5,552.47h-2.1v.97h2.1v-.97h0Z" transform="translate(-287.969 -527.211)"/><path class="e" d="M272.8,552.47h-14.5v.97h14.5v-.97h0Z" transform="translate(-255.577 -527.211)"/><path class="e" d="M289.7,514.1a2.532,2.532,0,0,0-1.217-1.44,4.664,4.664,0,0,0-2.248-.467h-1.011l1.372-12.116a1.3,1.3,0,0,0-.37-1.06l-.005.035,0-.035,1.122-7.281a.485.485,0,0,0-.4-.553.46.46,0,0,0-.075-.005.484.484,0,0,0-.478.411l-1.086,7.05h0a1.3,1.3,0,0,0-1.277,1.148L282.643,512a1.3,1.3,0,0,0,.008.193H258.265a1.251,1.251,0,0,0,.008-.193l-1.382-12.214a1.291,1.291,0,0,0-1.244-1.141l-.033-.216h0l.033.216c-.012,0-.021-.006-.033-.006h0l-1.086-7.05a.484.484,0,0,0-.478-.411.458.458,0,0,0-.075.005.485.485,0,0,0-.4.553l1.122,7.281,0,.035-.005-.035a1.3,1.3,0,0,0-.37,1.06l1.372,12.116h-.38a3.97,3.97,0,0,0-2.795.858,2.511,2.511,0,0,0-.67,1.048,3.428,3.428,0,0,0-.164,1.1v4.145a3.432,3.432,0,0,0,.164,1.1,2.536,2.536,0,0,0,1.218,1.44,4.682,4.682,0,0,0,2.246.467h30.92a3.976,3.976,0,0,0,2.795-.858,2.507,2.507,0,0,0,.67-1.048,3.433,3.433,0,0,0,.164-1.1V515.2A3.428,3.428,0,0,0,289.7,514.1Zm-1.775,5.133v.112a1.489,1.489,0,0,1-.063.481.57.57,0,0,1-.305.355c-.029.016-.072.032-.11.048a2.357,2.357,0,0,1-.591.143,4.533,4.533,0,0,1-.607.04H255.31a4.43,4.43,0,0,1-.7-.052,1.549,1.549,0,0,1-.739-.262c-.009-.008-.027-.017-.035-.025l-.152-.246a1.567,1.567,0,0,1-.063-.482V515.2a1.58,1.58,0,0,1,.063-.482.677.677,0,0,1,.1-.194c.01-.013.036-.026.049-.038a.746.746,0,0,1,.155-.12,1.22,1.22,0,0,1,.123-.054,2.4,2.4,0,0,1,.594-.14,4.594,4.594,0,0,1,.589-.037h30.938a2.172,2.172,0,0,1,1.47.339l.153.245a1.508,1.508,0,0,1,.063.482Z" transform="translate(-251.685 -491.179)"/></g></g></g><g transform="translate(16 4184)"><rect class="b" width="136" height="137.283" transform="translate(0 0)"/><g transform="translate(25.295 35.502)"><g transform="translate(14.743)"><g transform="translate(18.534 49.861)"><path class="a" d="M2475.747,478.46h4.034a.882.882,0,0,0,0-1.763h-4.034a.882.882,0,1,0,0,1.763Z" transform="translate(-2474.865 -476.696)"/></g><g transform="translate(0.882 2.119)"><path class="b" d="M2450.294,470.685a3.722,3.722,0,0,1-.695.185v3.579a2.648,2.648,0,0,0,2.631,2.66h21.375a2.647,2.647,0,0,0,2.63-2.66v-5.416H2452.2A3.624,3.624,0,0,1,2450.294,470.685Z" transform="translate(-2442.366 -424.451)"/><path class="b" d="M2443.517,457.939l-2.062-.949a1.8,1.8,0,0,0-.76-.167,1.845,1.845,0,0,0-.65.12,1.875,1.875,0,0,0-1.062,1.008l-.156.354a1.95,1.95,0,0,0,.94,2.56l2.063.95a1.818,1.818,0,0,0,1.411.047,1.879,1.879,0,0,0,1.059-1.008l.158-.354A1.952,1.952,0,0,0,2443.517,457.939Z" transform="translate(-2435.937 -417.277)"/><path class="b" d="M2445.675,446.508a2.047,2.047,0,0,0,1.153-1.1,2.131,2.131,0,0,0-1.021-2.792l-4.286-1.98a1.953,1.953,0,0,0-.823-.182,1.99,1.99,0,0,0-.706.13,2.045,2.045,0,0,0-1.153,1.1,2.13,2.13,0,0,0,1.021,2.791l4.287,1.98A1.956,1.956,0,0,0,2445.675,446.508Z" transform="translate(-2435.937 -407.661)"/><path class="b" d="M2440.814,407.838c.029-.034.061-.066.088-.1s.054-.077.08-.116a1.886,1.886,0,0,0,.291-.676c.011-.045.015-.09.023-.136a2.152,2.152,0,0,0,.03-.245c0-.057,0-.114,0-.171s-.006-.133-.014-.2-.018-.13-.032-.193-.025-.1-.04-.153a2.107,2.107,0,0,0-.071-.216c-.012-.028-.026-.055-.04-.082a2.108,2.108,0,0,0-.581-.757c-.047-.038-.1-.072-.146-.107a2.041,2.041,0,0,0-.281-.167l-3.044-1.4a1.971,1.971,0,0,0-.827-.183,2.018,2.018,0,0,0-.71.131,2.055,2.055,0,0,0-1.16,1.1,2.139,2.139,0,0,0,1.027,2.8l3.045,1.4a1.978,1.978,0,0,0,1.539.052,2.008,2.008,0,0,0,.3-.151,2.388,2.388,0,0,0,.254-.179h0A2.246,2.246,0,0,0,2440.814,407.838Z" transform="translate(-2433.314 -385.61)"/><path class="b" d="M2444.453,429.958a2.055,2.055,0,0,0,1.159-1.1,2.139,2.139,0,0,0-1.028-2.805l-3.043-1.4a1.98,1.98,0,0,0-.828-.183,2.01,2.01,0,0,0-.709.131,2.058,2.058,0,0,0-1.162,1.1,2.139,2.139,0,0,0,1.029,2.8l3.044,1.4A1.973,1.973,0,0,0,2444.453,429.958Z" transform="translate(-2435.937 -398.262)"/><path class="f" d="M2442.56,404.007l-1.374-.634,3.043,1.4Z" transform="translate(-2437.423 -385.87)"/><path class="f" d="M2450.821,413.58a2.09,2.09,0,0,1-.167.3A1.922,1.922,0,0,0,2450.821,413.58Z" transform="translate(-2442.985 -391.868)"/><path class="f" d="M2450.335,414.581c-.027.036-.059.068-.088.1C2450.276,414.65,2450.307,414.617,2450.335,414.581Z" transform="translate(-2442.747 -392.456)"/><path class="f" d="M2448.566,406.778a2.078,2.078,0,0,1,.281.167A1.858,1.858,0,0,0,2448.566,406.778Z" transform="translate(-2441.759 -387.871)"/><path class="f" d="M2451.279,410c.014.051.029.1.04.153C2451.308,410.1,2451.294,410.051,2451.279,410Z" transform="translate(-2443.354 -389.764)"/><path class="f" d="M2451.454,410.841c.008.066.012.133.014.2C2451.466,410.974,2451.462,410.907,2451.454,410.841Z" transform="translate(-2443.456 -390.259)"/><path class="f" d="M2451.445,411.739a1.905,1.905,0,0,1-.03.245A1.905,1.905,0,0,0,2451.445,411.739Z" transform="translate(-2443.434 -390.786)"/><path class="f" d="M2451.184,412.662a2.231,2.231,0,0,1-.124.379A2.231,2.231,0,0,0,2451.184,412.662Z" transform="translate(-2443.225 -391.329)"/><path class="f" d="M2451.01,409.277c.013.028.028.054.039.083C2451.037,409.331,2451.023,409.3,2451.01,409.277Z" transform="translate(-2443.195 -389.34)"/><path class="f" d="M2449.6,415.458h0Z" transform="translate(-2442.367 -392.972)"/><path class="f" d="M2448.552,415.892a2.032,2.032,0,0,1-.3.151A1.832,1.832,0,0,0,2448.552,415.892Z" transform="translate(-2441.573 -393.226)"/><path class="f" d="M2440.18,414.131h0l-3.044-1.4Z" transform="translate(-2435.043 -391.366)"/><path d="M2451.488,411.325c0,.057,0,.114,0,.171C2451.491,411.439,2451.49,411.382,2451.488,411.325Z" transform="translate(-2443.476 -390.543)"/><path d="M2451.1,409.477a1.988,1.988,0,0,1,.072.216A1.99,1.99,0,0,0,2451.1,409.477Z" transform="translate(-2443.25 -389.457)"/><path d="M2450.182,408.2a2.1,2.1,0,0,0-.582-.757h0A2.119,2.119,0,0,1,2450.182,408.2Z" transform="translate(-2442.367 -388.261)"/><path d="M2450.539,414.3c-.026.039-.051.079-.08.116C2450.488,414.378,2450.514,414.34,2450.539,414.3Z" transform="translate(-2442.872 -392.291)"/><path d="M2451.383,412.333c-.009.045-.012.091-.023.136C2451.371,412.423,2451.375,412.378,2451.383,412.333Z" transform="translate(-2443.402 -391.135)"/><path d="M2449.6,415.089a2.042,2.042,0,0,0,.266-.259A2.2,2.2,0,0,1,2449.6,415.089Z" transform="translate(-2442.367 -392.602)"/><path d="M2447.154,420.6l.89.411v-.706a3.778,3.778,0,0,1-1.091.216C2447.02,420.551,2447.088,420.573,2447.154,420.6Z" transform="translate(-2440.812 -395.821)"/><path d="M2451.378,410.372c.014.064.024.129.031.193C2451.4,410.5,2451.391,410.436,2451.378,410.372Z" transform="translate(-2443.411 -389.983)"/><path class="f" d="M2434.154,405.714a2.139,2.139,0,0,1-1.028-2.8,2.056,2.056,0,0,1,1.162-1.1,2.007,2.007,0,0,1,.709-.131,1.978,1.978,0,0,1,.828.183l1.374.634v-.971l-1-.464a2.913,2.913,0,0,0-3.875,1.5,3.029,3.029,0,0,0,1.465,3.96l3.045,1.4a2.8,2.8,0,0,0,.369.137v-.937Z" transform="translate(-2432.061 -384.354)"/><path class="f" d="M2450.182,406.712c.012.028.027.054.038.083a2.173,2.173,0,0,1,.072.216c.015.051.029.1.04.153s.024.128.032.193.012.133.014.2,0,.113,0,.171a2.267,2.267,0,0,1-.03.245c-.008.045-.012.09-.023.136a2.188,2.188,0,0,1-.125.379,1.948,1.948,0,0,1-.167.3c-.025.04-.052.078-.08.116s-.058.069-.088.1a2.043,2.043,0,0,1-.266.259h0v1.046a2.942,2.942,0,0,0,1.407-1.465,3.03,3.03,0,0,0-1.407-3.932v1.043A2.1,2.1,0,0,1,2450.182,406.712Z" transform="translate(-2442.367 -386.774)"/><path d="M2449.393,407.289c-.047-.038-.095-.073-.146-.107.05.035.1.069.146.107Z" transform="translate(-2442.159 -388.109)"/><path d="M2449.393,407.289c-.047-.038-.095-.073-.146-.107.05.035.1.069.146.107Z" transform="translate(-2442.159 -388.109)"/><path d="M2446.556,402.115c.02.009.038.021.058.03v-.974l-2.1-.968v.97Z" transform="translate(-2439.38 -384.008)"/><path class="f" d="M2446.187,404.3a1.791,1.791,0,0,1,.281.167c.051.034.1.069.146.107v-1.043c-.02-.009-.038-.021-.058-.03l-2.039-.941v.971Z" transform="translate(-2439.38 -385.391)"/><path d="M2446.187,404.3a1.791,1.791,0,0,1,.281.167c.051.034.1.069.146.107v-1.043c-.02-.009-.038-.021-.058-.03l-2.039-.941v.971Z" transform="translate(-2439.38 -385.391)"/><path d="M2446.614,418.949V418a2.873,2.873,0,0,1-2.1.169v.758a3.715,3.715,0,0,1,1,.244A3.786,3.786,0,0,0,2446.614,418.949Z" transform="translate(-2439.38 -394.462)"/><path d="M2449.239,415.458a2.34,2.34,0,0,1-.254.179A2.07,2.07,0,0,0,2449.239,415.458Z" transform="translate(-2442.006 -392.972)"/><path d="M2449.239,415.458a2.34,2.34,0,0,1-.254.179A2.07,2.07,0,0,0,2449.239,415.458Z" transform="translate(-2442.006 -392.972)"/><path class="f" d="M2446.614,416.5v-1.046h0a2,2,0,0,1-.254.179,1.848,1.848,0,0,1-.3.151,1.978,1.978,0,0,1-1.539-.052h0v.937A2.873,2.873,0,0,0,2446.614,416.5Z" transform="translate(-2439.38 -392.972)"/><path d="M2446.614,416.5v-1.046h0a2,2,0,0,1-.254.179,1.848,1.848,0,0,1-.3.151,1.978,1.978,0,0,1-1.539-.052h0v.937A2.873,2.873,0,0,0,2446.614,416.5Z" transform="translate(-2439.38 -392.972)"/><path d="M2446.614,422.168v-.97l-.89-.411c-.066-.031-.135-.052-.2-.079-.059,0-.118.008-.177.008a3.681,3.681,0,0,1-.827-.1v.725a2.868,2.868,0,0,1,.837.241Z" transform="translate(-2439.38 -396.005)"/><path d="M2443.742,420.213a3.723,3.723,0,0,0-.543-.017,3.81,3.81,0,0,0,.543.173Z" transform="translate(-2438.606 -395.753)"/><path d="M2445.521,420.486a3.713,3.713,0,0,0-1-.244v.156a3.684,3.684,0,0,0,.827.1C2445.4,420.494,2445.462,420.489,2445.521,420.486Z" transform="translate(-2439.38 -395.783)"/><path d="M2445.521,420.486a3.713,3.713,0,0,0-1-.244v.156a3.684,3.684,0,0,0,.827.1C2445.4,420.494,2445.462,420.489,2445.521,420.486Z" transform="translate(-2439.38 -395.783)"/><path class="f" d="M2441.009,428.385l2.484,1.148a2.944,2.944,0,0,0,1.673-1.578,3.031,3.031,0,0,0-1.464-3.962l-1.783-.823-1.26-.581a2.868,2.868,0,0,0-.837-.241,2.93,2.93,0,0,0-3.038,1.738,3.029,3.029,0,0,0,1.465,3.96l.252.117A3.708,3.708,0,0,1,2441.009,428.385Zm-3.42-3.943a2.058,2.058,0,0,1,1.16-1.1,2.017,2.017,0,0,1,.71-.131,1.981,1.981,0,0,1,.829.183l3.044,1.4a2.14,2.14,0,0,1,1.027,2.805,2.055,2.055,0,0,1-1.159,1.1,1.973,1.973,0,0,1-1.539-.052l-3.045-1.4A2.139,2.139,0,0,1,2437.589,424.441Z" transform="translate(-2434.684 -397.006)"/><path d="M2439.762,437.423a2.862,2.862,0,0,1,1.38-.158v-.176l-1.321-.609a3.742,3.742,0,0,0-1.048.45,3.954,3.954,0,0,0,.424.234Z" transform="translate(-2436.006 -405.324)"/><path d="M2449.6,439.923v.121l1.513.7a3.8,3.8,0,0,0,.393-.122,3.862,3.862,0,0,0,.694-.346l-1.025-.473A2.868,2.868,0,0,1,2449.6,439.923Z" transform="translate(-2442.367 -407.275)"/><path d="M2446.614,438.961v-.121a2.857,2.857,0,0,1-.626-.2l-1.47-.679v.176a2.852,2.852,0,0,1,.817.237Z" transform="translate(-2439.38 -406.192)"/><path d="M2446.614,438.961v-.121a2.857,2.857,0,0,1-.626-.2l-1.47-.679v.176a2.852,2.852,0,0,1,.817.237Z" transform="translate(-2439.38 -406.192)"/><path class="f" d="M2444.731,437.8a2.869,2.869,0,0,0,1.575-.122l-2.484-1.148a3.7,3.7,0,0,0-2.508-.222l1.321.609,1.471.679A2.857,2.857,0,0,0,2444.731,437.8Z" transform="translate(-2437.498 -405.148)"/><path d="M2444.731,437.8a2.869,2.869,0,0,0,1.575-.122l-2.484-1.148a3.7,3.7,0,0,0-2.508-.222l1.321.609,1.471.679A2.857,2.857,0,0,0,2444.731,437.8Z" transform="translate(-2437.498 -405.148)"/><path class="f" d="M2440.939,444.519l2.063.949a3.6,3.6,0,0,1,1.082.771,2.926,2.926,0,0,0,2.3-1.727,3.021,3.021,0,0,0-1.458-3.947l-1.494-.69-1.513-.7-1.279-.591a2.849,2.849,0,0,0-2.2-.079,2.933,2.933,0,0,0-1.659,1.57,3.022,3.022,0,0,0,1.458,3.947l.512.237A3.529,3.529,0,0,1,2440.939,444.519Zm-2.33-1.3a2.13,2.13,0,0,1-1.02-2.791,2.042,2.042,0,0,1,1.152-1.1,1.986,1.986,0,0,1,.706-.13,1.954,1.954,0,0,1,.823.182l4.286,1.979a2.129,2.129,0,0,1,1.02,2.792,2.041,2.041,0,0,1-1.152,1.1,1.959,1.959,0,0,1-1.527-.051Z" transform="translate(-2434.684 -406.407)"/><path d="M2446.03,471.744a3.541,3.541,0,0,0,.582-.051v-.9a2.685,2.685,0,0,1-1.708-.181l-.388-.178v.97l.019.009A3.576,3.576,0,0,0,2446.03,471.744Z" transform="translate(-2439.379 -425.275)"/><path d="M2453.32,468.777h1.063c.032-.058.061-.119.09-.18h-1.015C2453.415,468.66,2453.368,468.719,2453.32,468.777Z" transform="translate(-2444.553 -424.195)"/><path d="M2455.255,463.636h.882c0-.061,0-.121-.005-.181h-.882C2455.254,463.515,2455.256,463.576,2455.255,463.636Z" transform="translate(-2445.687 -421.174)"/><path d="M2454.076,465.011l-.157.355a2.81,2.81,0,0,1-.264.468h1.015c.018-.037.038-.073.056-.111l.157-.354a3.714,3.714,0,0,0,.316-1.474h-.881A2.843,2.843,0,0,1,2454.076,465.011Z" transform="translate(-2444.75 -421.432)"/><path d="M2454.076,465.011l-.157.355a2.81,2.81,0,0,1-.264.468h1.015c.018-.037.038-.073.056-.111l.157-.354a3.714,3.714,0,0,0,.316-1.474h-.881A2.843,2.843,0,0,1,2454.076,465.011Z" transform="translate(-2444.75 -421.432)"/><path d="M2440.216,453.648a2.705,2.705,0,0,1,1.161-.089v-.346l-1.07-.494a3.456,3.456,0,0,0-1.136.431c.083.046.166.093.253.133Z" transform="translate(-2436.239 -414.865)"/><path d="M2450.208,456.545l-.608-.281v.217l.716.329a2.753,2.753,0,0,1,1.071.88h.012a3.735,3.735,0,0,0,.949-.126,3.725,3.725,0,0,0-.58-.785A2.825,2.825,0,0,1,2450.208,456.545Z" transform="translate(-2442.367 -416.949)"/><path d="M2446.614,455.1v-.217l-2.1-.968v.347a2.666,2.666,0,0,1,.749.219Z" transform="translate(-2439.38 -415.569)"/><path d="M2446.614,455.1v-.217l-2.1-.968v.347a2.666,2.666,0,0,1,.749.219Z" transform="translate(-2439.38 -415.569)"/><path class="f" d="M2445.7,454.363a2.827,2.827,0,0,0,1.56.235,3.61,3.61,0,0,0-1.083-.771l-2.063-.949a3.53,3.53,0,0,0-2.186-.259l1.069.494,2.1.968Z" transform="translate(-2437.858 -414.767)"/><path d="M2445.7,454.363a2.827,2.827,0,0,0,1.56.235,3.61,3.61,0,0,0-1.083-.771l-2.063-.949a3.53,3.53,0,0,0-2.186-.259l1.069.494,2.1.968Z" transform="translate(-2437.858 -414.767)"/><g transform="translate(2.72 26.2)"><path class="b" d="M2442.914,429.906a1.973,1.973,0,0,0,1.539.052,2.055,2.055,0,0,0,1.159-1.1,2.139,2.139,0,0,0-1.028-2.805l-3.043-1.4a1.98,1.98,0,0,0-.828-.183,2.01,2.01,0,0,0-.709.131,2.058,2.058,0,0,0-1.162,1.1,2.139,2.139,0,0,0,1.029,2.8Z" transform="translate(-2438.656 -424.461)"/><path class="b" d="M2445.334,438.37l1.279.591v-.121a2.857,2.857,0,0,1-.626-.2l-1.47-.679v.176A2.852,2.852,0,0,1,2445.334,438.37Z" transform="translate(-2442.1 -432.391)"/><path class="b" d="M2446.828,445.41a2.131,2.131,0,0,0-1.021-2.792l-4.286-1.98a1.953,1.953,0,0,0-.823-.182,1.99,1.99,0,0,0-.706.13,2.045,2.045,0,0,0-1.153,1.1,2.13,2.13,0,0,0,1.021,2.791l4.287,1.98a1.956,1.956,0,0,0,1.526.052A2.047,2.047,0,0,0,2446.828,445.41Z" transform="translate(-2438.656 -433.86)"/></g><path class="f" d="M2443.452,460.606c.048-.058.095-.117.138-.18a2.814,2.814,0,0,0,.265-.468l.157-.355a2.843,2.843,0,0,0,.241-1.117c0-.061,0-.121-.005-.181a2.868,2.868,0,0,0-.544-1.54,2.743,2.743,0,0,0-1.07-.88l-.716-.329-1.348-.62a2.675,2.675,0,0,0-.748-.219,2.706,2.706,0,0,0-1.161.089,2.767,2.767,0,0,0-1.736,1.535l-.156.354a2.841,2.841,0,0,0,1.378,3.717l1.675.771.387.179a2.685,2.685,0,0,0,1.708.182A2.763,2.763,0,0,0,2443.452,460.606Zm-1.464,0a1.817,1.817,0,0,1-1.41-.047l-2.063-.95a1.95,1.95,0,0,1-.941-2.56l.156-.354a1.877,1.877,0,0,1,1.062-1.008,1.843,1.843,0,0,1,.65-.12,1.8,1.8,0,0,1,.759.167l2.062.949a1.952,1.952,0,0,1,.941,2.561l-.158.354A1.879,1.879,0,0,1,2441.989,460.61Z" transform="translate(-2434.685 -416.024)"/><g transform="translate(0.88)"><path class="b" d="M2439.861,444.477l4.287,1.98a1.956,1.956,0,0,0,1.526.052,2.047,2.047,0,0,0,1.153-1.1,2.131,2.131,0,0,0-1.021-2.792l-4.286-1.98a1.953,1.953,0,0,0-.823-.182,1.99,1.99,0,0,0-.706.13,2.045,2.045,0,0,0-1.153,1.1A2.13,2.13,0,0,0,2439.861,444.477Z" transform="translate(-2436.816 -407.661)"/><path class="b" d="M2438.451,408.375a1.978,1.978,0,0,0,1.539.052,1.829,1.829,0,0,0,.3-.151,2.086,2.086,0,0,0,.254-.179h0a2.06,2.06,0,0,0,.266-.259c.03-.034.06-.067.088-.1s.054-.076.08-.116a1.989,1.989,0,0,0,.167-.3,2.186,2.186,0,0,0,.124-.379c.011-.045.015-.09.023-.136a2.152,2.152,0,0,0,.03-.245c0-.057,0-.113,0-.171s-.006-.133-.014-.2-.019-.129-.032-.193-.025-.1-.04-.153a2.171,2.171,0,0,0-.071-.216c-.012-.028-.026-.055-.04-.082a2.092,2.092,0,0,0-.581-.757c-.047-.038-.095-.073-.146-.107a1.805,1.805,0,0,0-.281-.167l-1.67-.77-1.374-.634a1.971,1.971,0,0,0-.827-.183,2.018,2.018,0,0,0-.71.131,2.055,2.055,0,0,0-1.16,1.1,2.139,2.139,0,0,0,1.027,2.8l3.045,1.4Z" transform="translate(-2434.194 -385.61)"/><path class="b" d="M2439.87,428.5l3.044,1.4a1.973,1.973,0,0,0,1.539.052,2.055,2.055,0,0,0,1.159-1.1,2.139,2.139,0,0,0-1.028-2.805l-3.043-1.4a1.98,1.98,0,0,0-.828-.183,2.01,2.01,0,0,0-.709.131,2.058,2.058,0,0,0-1.162,1.1A2.139,2.139,0,0,0,2439.87,428.5Z" transform="translate(-2436.816 -398.262)"/><path class="b" d="M2443.241,461.862a1.879,1.879,0,0,0,1.059-1.008l.158-.354a1.952,1.952,0,0,0-.941-2.561l-2.062-.949a1.8,1.8,0,0,0-.76-.167,1.845,1.845,0,0,0-.65.12,1.875,1.875,0,0,0-1.062,1.008l-.156.354a1.95,1.95,0,0,0,.94,2.56l2.063.95A1.818,1.818,0,0,0,2443.241,461.862Z" transform="translate(-2436.816 -417.277)"/><path class="b" d="M2450.294,470.685a3.722,3.722,0,0,1-.695.185v3.579a2.648,2.648,0,0,0,2.631,2.66h21.375a2.647,2.647,0,0,0,2.63-2.66v-5.416H2452.2A3.624,3.624,0,0,1,2450.294,470.685Z" transform="translate(-2443.246 -424.451)"/><path class="b" d="M2444.3,460.854l.158-.354a1.952,1.952,0,0,0-.941-2.561l-2.062-.949a1.8,1.8,0,0,0-.76-.167,1.845,1.845,0,0,0-.65.12,1.875,1.875,0,0,0-1.062,1.008l-.156.354a1.95,1.95,0,0,0,.94,2.56l2.063.95a1.818,1.818,0,0,0,1.411.047A1.879,1.879,0,0,0,2444.3,460.854Z" transform="translate(-2436.816 -417.277)"/><path class="b" d="M2439.87,428.5l3.044,1.4a1.973,1.973,0,0,0,1.539.052,2.055,2.055,0,0,0,1.159-1.1,2.139,2.139,0,0,0-1.028-2.805l-3.043-1.4a1.98,1.98,0,0,0-.828-.183,2.01,2.01,0,0,0-.709.131,2.058,2.058,0,0,0-1.162,1.1A2.139,2.139,0,0,0,2439.87,428.5Z" transform="translate(-2436.816 -398.262)"/><path class="b" d="M2456.645,463.894a3.71,3.71,0,0,1-.317,1.474l-.156.354c-.018.038-.037.074-.056.111H2480.6a1.571,1.571,0,0,0,1.563-1.576v-.363Z" transform="translate(-2447.075 -421.432)"/><path class="b" d="M2438.451,408.375a1.978,1.978,0,0,0,1.539.052,1.829,1.829,0,0,0,.3-.151,2.086,2.086,0,0,0,.254-.179h0a2.06,2.06,0,0,0,.266-.259c.03-.034.06-.067.088-.1s.054-.076.08-.116a1.989,1.989,0,0,0,.167-.3,2.186,2.186,0,0,0,.124-.379c.011-.045.015-.09.023-.136a2.152,2.152,0,0,0,.03-.245c0-.057,0-.113,0-.171s-.006-.133-.014-.2-.019-.129-.032-.193-.025-.1-.04-.153a2.171,2.171,0,0,0-.071-.216c-.012-.028-.026-.055-.04-.082a2.092,2.092,0,0,0-.581-.757c-.047-.038-.095-.073-.146-.107a1.805,1.805,0,0,0-.281-.167l-1.67-.77-1.374-.634a1.971,1.971,0,0,0-.827-.183,2.018,2.018,0,0,0-.71.131,2.055,2.055,0,0,0-1.16,1.1,2.139,2.139,0,0,0,1.027,2.8l3.045,1.4Z" transform="translate(-2434.194 -385.61)"/><path class="b" d="M2471.844,360.934H2450.88a2.855,2.855,0,0,0-2.836,2.867v14.3l.313.144a3.91,3.91,0,0,1,1.9,5.117,3.8,3.8,0,0,1-2.149,2.041c-.021.008-.043.014-.066.021a3.779,3.779,0,0,1-1.091.217c.067.026.135.048.2.079l.89.411,2.153.994a3.91,3.91,0,0,1,1.9,5.117,3.812,3.812,0,0,1-1.455,1.7l.777.359a3.9,3.9,0,0,1,1.894,5.1,3.8,3.8,0,0,1-2.142,2.037c-.126.047-.253.085-.381.119a3.774,3.774,0,0,1,.464,1.664h23.424V363.8A2.855,2.855,0,0,0,2471.844,360.934Z" transform="translate(-2441.691 -360.934)"/><path class="b" d="M2450.294,470.685a3.722,3.722,0,0,1-.695.185v3.579a2.648,2.648,0,0,0,2.631,2.66h21.375a2.647,2.647,0,0,0,2.63-2.66v-5.416H2452.2A3.624,3.624,0,0,1,2450.294,470.685Z" transform="translate(-2443.246 -424.451)"/><path class="b" d="M2446.828,445.41a2.131,2.131,0,0,0-1.021-2.792l-4.286-1.98a1.953,1.953,0,0,0-.823-.182,1.99,1.99,0,0,0-.706.13,2.045,2.045,0,0,0-1.153,1.1,2.13,2.13,0,0,0,1.021,2.791l4.287,1.98a1.956,1.956,0,0,0,1.526.052A2.047,2.047,0,0,0,2446.828,445.41Z" transform="translate(-2436.816 -407.661)"/></g></g><path class="b" d="M2439.87,428.5l3.044,1.4a1.973,1.973,0,0,0,1.539.052,2.055,2.055,0,0,0,1.159-1.1,2.139,2.139,0,0,0-1.028-2.805l-3.043-1.4a1.98,1.98,0,0,0-.828-.183,2.01,2.01,0,0,0-.709.131,2.058,2.058,0,0,0-1.162,1.1A2.139,2.139,0,0,0,2439.87,428.5Z" transform="translate(-2435.054 -396.142)"/><path class="b" d="M2438.451,408.375a1.978,1.978,0,0,0,1.539.052,1.829,1.829,0,0,0,.3-.151,2.086,2.086,0,0,0,.254-.179h0a2.06,2.06,0,0,0,.266-.259c.03-.034.06-.067.088-.1s.054-.076.08-.116a1.989,1.989,0,0,0,.167-.3,2.186,2.186,0,0,0,.124-.379c.011-.045.015-.09.023-.136a2.152,2.152,0,0,0,.03-.245c0-.057,0-.113,0-.171s-.006-.133-.014-.2-.019-.129-.032-.193-.025-.1-.04-.153a2.171,2.171,0,0,0-.071-.216c-.012-.028-.026-.055-.04-.082a2.092,2.092,0,0,0-.581-.757c-.047-.038-.095-.073-.146-.107a1.805,1.805,0,0,0-.281-.167l-1.67-.77-1.374-.634a1.971,1.971,0,0,0-.827-.183,2.018,2.018,0,0,0-.71.131,2.055,2.055,0,0,0-1.16,1.1,2.139,2.139,0,0,0,1.027,2.8l3.045,1.4Z" transform="translate(-2432.433 -383.491)"/><path class="b" d="M2439.861,444.477l4.287,1.98a1.956,1.956,0,0,0,1.526.052,2.047,2.047,0,0,0,1.153-1.1,2.131,2.131,0,0,0-1.021-2.792l-4.286-1.98a1.953,1.953,0,0,0-.823-.182,1.99,1.99,0,0,0-.706.13,2.045,2.045,0,0,0-1.153,1.1A2.13,2.13,0,0,0,2439.861,444.477Z" transform="translate(-2435.055 -405.541)"/><path class="b" d="M2474.155,383.58a14.274,14.274,0,0,1,.526-1.583V363.8a2.855,2.855,0,0,0-2.837-2.867H2450.88a2.855,2.855,0,0,0-2.836,2.867v14.3l.313.144a3.91,3.91,0,0,1,1.9,5.117,3.8,3.8,0,0,1-2.149,2.041c-.021.008-.043.014-.066.021a3.779,3.779,0,0,1-1.091.217c.067.026.135.048.2.079l.89.411,2.153.994a3.91,3.91,0,0,1,1.9,5.117,3.812,3.812,0,0,1-1.455,1.7l.777.359a3.9,3.9,0,0,1,1.894,5.1,3.8,3.8,0,0,1-2.142,2.037c-.126.047-.253.085-.381.119a3.774,3.774,0,0,1,.464,1.664h23.424v-9.2c-.165-.915-.346-1.7-.509-2.411A13.947,13.947,0,0,1,2474.155,383.58Z" transform="translate(-2439.929 -358.815)"/><path class="b" d="M2456.645,463.894a3.71,3.71,0,0,1-.317,1.474l-.156.354c-.018.038-.037.074-.056.111h24.071l-.014-1.94Z" transform="translate(-2445.314 -419.312)"/><path class="b" d="M2444.3,460.854l.158-.354a1.952,1.952,0,0,0-.941-2.561l-2.062-.949a1.8,1.8,0,0,0-.76-.167,1.845,1.845,0,0,0-.65.12,1.875,1.875,0,0,0-1.062,1.008l-.156.354a1.95,1.95,0,0,0,.94,2.56l2.063.95a1.818,1.818,0,0,0,1.411.047A1.879,1.879,0,0,0,2444.3,460.854Z" transform="translate(-2435.055 -415.158)"/><path class="b" d="M2450.294,470.685a3.722,3.722,0,0,1-.695.185v3.579a2.648,2.648,0,0,0,2.631,2.66h21.375a2.647,2.647,0,0,0,2.63-2.66v-5.416H2452.2A3.624,3.624,0,0,1,2450.294,470.685Z" transform="translate(-2441.485 -422.332)"/><path d="M2514.185,410.013c.083-.457.188-.942.327-1.475a14.658,14.658,0,0,1,1.77-4.037v-1.469a13.615,13.615,0,0,0-2.1,3.7Z" transform="translate(-2479.433 -383.551)"/><path d="M2514.481,468.483l.046,6.121a.882.882,0,0,0,.881.875h.007a.881.881,0,0,0,.83-.616l-.837-.266-.046-6.194a1.528,1.528,0,0,1-.469.08Z" transform="translate(-2479.608 -421.961)"/><path d="M2514.225,435.338l.068,9.168h.881l-.069-9.248c-.313-1.818-.687-3.111-.921-4.36v4.226C2514.2,435.2,2514.212,435.264,2514.225,435.338Z" transform="translate(-2479.433 -399.924)"/><path class="f" d="M2530.772,436.2c-1.908-4.021-1.313-6.317-2.138-10.058-1.281-5.808-3.368-5.168-6.15-12.472-2.742-7.206-.2-11.4-3.943-11.936-.834-.125-1.767.749-2.576,2a14.671,14.671,0,0,0-1.77,4.037c-.138.533-.244,1.018-.326,1.475a11.491,11.491,0,0,0,0,4.511c.233,1.249.607,2.543.92,4.361l.069,9.248.014,1.859.046,6.194.837.266a.908.908,0,0,0,.045-.273l-.13-17.3a.905.905,0,0,0-.013-.143c-.187-1.086-.4-1.993-.58-2.793a12.238,12.238,0,0,1-.03-7.183c.785-3.021,2.68-5.456,3.363-5.385,1.3.187,1.458.741,1.663,3.483a26.169,26.169,0,0,0,1.586,7.895,27.726,27.726,0,0,0,3.6,6.788,13.148,13.148,0,0,1,2.515,5.56,28.535,28.535,0,0,1,.5,3.464,18.144,18.144,0,0,0,1.7,6.783,35.361,35.361,0,0,0,2.512,4.422l1.36.432A34.459,34.459,0,0,1,2530.772,436.2Z" transform="translate(-2479.117 -382.782)"/><path class="b" d="M2439.861,444.477l4.287,1.98a1.956,1.956,0,0,0,1.526.052,2.047,2.047,0,0,0,1.153-1.1,2.131,2.131,0,0,0-1.021-2.792l-4.286-1.98a1.953,1.953,0,0,0-.823-.182,1.99,1.99,0,0,0-.706.13,2.045,2.045,0,0,0-1.153,1.1A2.13,2.13,0,0,0,2439.861,444.477Z" transform="translate(-2435.055 -405.541)"/><path class="b" d="M2439.87,428.5l3.044,1.4a1.973,1.973,0,0,0,1.539.052,2.055,2.055,0,0,0,1.159-1.1,2.139,2.139,0,0,0-1.028-2.805l-3.043-1.4a1.98,1.98,0,0,0-.828-.183,2.01,2.01,0,0,0-.709.131,2.058,2.058,0,0,0-1.162,1.1A2.139,2.139,0,0,0,2439.87,428.5Z" transform="translate(-2435.054 -396.142)"/><path class="b" d="M2438.451,408.375a1.978,1.978,0,0,0,1.539.052,1.829,1.829,0,0,0,.3-.151,2.086,2.086,0,0,0,.254-.179h0a2.06,2.06,0,0,0,.266-.259c.03-.034.06-.067.088-.1s.054-.076.08-.116a1.989,1.989,0,0,0,.167-.3,2.186,2.186,0,0,0,.124-.379c.011-.045.015-.09.023-.136a2.152,2.152,0,0,0,.03-.245c0-.057,0-.113,0-.171s-.006-.133-.014-.2-.019-.129-.032-.193-.025-.1-.04-.153a2.171,2.171,0,0,0-.071-.216c-.012-.028-.026-.055-.04-.082a2.092,2.092,0,0,0-.581-.757c-.047-.038-.095-.073-.146-.107a1.805,1.805,0,0,0-.281-.167l-1.67-.77-1.374-.634a1.971,1.971,0,0,0-.827-.183,2.018,2.018,0,0,0-.71.131,2.055,2.055,0,0,0-1.16,1.1,2.139,2.139,0,0,0,1.027,2.8l3.045,1.4Z" transform="translate(-2432.433 -383.491)"/><path class="b" d="M2444.3,460.854l.158-.354a1.952,1.952,0,0,0-.941-2.561l-2.062-.949a1.8,1.8,0,0,0-.76-.167,1.845,1.845,0,0,0-.65.12,1.875,1.875,0,0,0-1.062,1.008l-.156.354a1.95,1.95,0,0,0,.94,2.56l2.063.95a1.818,1.818,0,0,0,1.411.047A1.879,1.879,0,0,0,2444.3,460.854Z" transform="translate(-2435.055 -415.158)"/><path class="b" d="M2450.294,470.685a3.722,3.722,0,0,1-.695.185v3.579a2.648,2.648,0,0,0,2.631,2.66h21.375a2.647,2.647,0,0,0,2.63-2.66v-5.416H2452.2A3.624,3.624,0,0,1,2450.294,470.685Z" transform="translate(-2441.485 -422.332)"/><path class="b" d="M2471.844,360.934H2450.88a2.855,2.855,0,0,0-2.836,2.867v14.3l.313.144a3.91,3.91,0,0,1,1.9,5.117,3.8,3.8,0,0,1-2.149,2.041c-.021.008-.043.014-.066.021a3.779,3.779,0,0,1-1.091.217c.067.026.135.048.2.079l.89.411,2.153.994a3.91,3.91,0,0,1,1.9,5.117,3.812,3.812,0,0,1-1.455,1.7l.777.359a3.9,3.9,0,0,1,1.894,5.1,3.8,3.8,0,0,1-2.142,2.037c-.126.047-.253.085-.381.119a3.774,3.774,0,0,1,.464,1.664h23.424v-9.2c-.165-.915-.346-1.7-.509-2.411a13.947,13.947,0,0,1-.017-8.023,14.274,14.274,0,0,1,.526-1.583V363.8A2.855,2.855,0,0,0,2471.844,360.934Z" transform="translate(-2439.929 -358.815)"/><path d="M2482.147,491.356a.879.879,0,0,0-.5.941h1.914c-.083-.168-.166-.335-.248-.512A.884.884,0,0,0,2482.147,491.356Z" transform="translate(-2460.312 -435.401)"/><path class="b" d="M2439.87,428.5l3.044,1.4a1.973,1.973,0,0,0,1.539.052,2.055,2.055,0,0,0,1.159-1.1,2.139,2.139,0,0,0-1.028-2.805l-3.043-1.4a1.98,1.98,0,0,0-.828-.183,2.01,2.01,0,0,0-.709.131,2.058,2.058,0,0,0-1.162,1.1A2.139,2.139,0,0,0,2439.87,428.5Z" transform="translate(-2435.054 -396.142)"/><path class="b" d="M2439.861,444.477l4.287,1.98a1.956,1.956,0,0,0,1.526.052,2.047,2.047,0,0,0,1.153-1.1,2.131,2.131,0,0,0-1.021-2.792l-4.286-1.98a1.953,1.953,0,0,0-.823-.182,1.99,1.99,0,0,0-.706.13,2.045,2.045,0,0,0-1.153,1.1A2.13,2.13,0,0,0,2439.861,444.477Z" transform="translate(-2435.055 -405.541)"/><path class="b" d="M2444.3,460.854l.158-.354a1.952,1.952,0,0,0-.941-2.561l-2.062-.949a1.8,1.8,0,0,0-.76-.167,1.845,1.845,0,0,0-.65.12,1.875,1.875,0,0,0-1.062,1.008l-.156.354a1.95,1.95,0,0,0,.94,2.56l2.063.95a1.818,1.818,0,0,0,1.411.047A1.879,1.879,0,0,0,2444.3,460.854Z" transform="translate(-2435.055 -415.158)"/><path class="b" d="M2438.451,408.375a1.978,1.978,0,0,0,1.539.052,1.829,1.829,0,0,0,.3-.151,2.086,2.086,0,0,0,.254-.179h0a2.06,2.06,0,0,0,.266-.259c.03-.034.06-.067.088-.1s.054-.076.08-.116a1.989,1.989,0,0,0,.167-.3,2.186,2.186,0,0,0,.124-.379c.011-.045.015-.09.023-.136a2.152,2.152,0,0,0,.03-.245c0-.057,0-.113,0-.171s-.006-.133-.014-.2-.019-.129-.032-.193-.025-.1-.04-.153a2.171,2.171,0,0,0-.071-.216c-.012-.028-.026-.055-.04-.082a2.092,2.092,0,0,0-.581-.757c-.047-.038-.095-.073-.146-.107a1.805,1.805,0,0,0-.281-.167l-1.67-.77-1.374-.634a1.971,1.971,0,0,0-.827-.183,2.018,2.018,0,0,0-.71.131,2.055,2.055,0,0,0-1.16,1.1,2.139,2.139,0,0,0,1.027,2.8l3.045,1.4Z" transform="translate(-2432.433 -383.491)"/><path class="b" d="M2450.294,470.685a3.722,3.722,0,0,1-.695.185v3.579a2.648,2.648,0,0,0,2.631,2.66h21.375a2.647,2.647,0,0,0,2.63-2.66v-5.416H2452.2A3.624,3.624,0,0,1,2450.294,470.685Z" transform="translate(-2441.485 -422.332)"/><path class="b" d="M2471.844,360.934H2450.88a2.855,2.855,0,0,0-2.836,2.867v14.3l.313.144a3.91,3.91,0,0,1,1.9,5.117,3.8,3.8,0,0,1-2.149,2.041c-.021.008-.043.014-.066.021a3.779,3.779,0,0,1-1.091.217c.067.026.135.048.2.079l.89.411,2.153.994a3.91,3.91,0,0,1,1.9,5.117,3.812,3.812,0,0,1-1.455,1.7l.777.359a3.9,3.9,0,0,1,1.894,5.1,3.8,3.8,0,0,1-2.142,2.037c-.126.047-.253.085-.381.119a3.774,3.774,0,0,1,.464,1.664h23.424v-9.2c-.165-.915-.346-1.7-.509-2.411a13.947,13.947,0,0,1-.017-8.023,14.274,14.274,0,0,1,.526-1.583V363.8A2.855,2.855,0,0,0,2471.844,360.934Z" transform="translate(-2439.929 -358.815)"/><path d="M2485.371,413.934a33.61,33.61,0,0,1-3-5.1,16.475,16.475,0,0,1-1.542-6.2,29.791,29.791,0,0,0-.532-3.667,14.768,14.768,0,0,0-2.79-6.189,25.8,25.8,0,0,1-3.4-6.407,24.222,24.222,0,0,1-1.477-7.4c-.189-2.519-.352-4.694-3.166-5.1a3.143,3.143,0,0,0-2.7,1.4V360.782a4.961,4.961,0,0,0-4.933-4.987h-20.963a4.959,4.959,0,0,0-4.932,4.987V374.11l-.634-.293a3.728,3.728,0,0,0-2.9-.1,3.81,3.81,0,0,0-2.152,2.041,3.91,3.91,0,0,0,1.9,5.117l3.044,1.4c.064.03.13.052.2.078a3.808,3.808,0,0,0-3.3,2.28,3.919,3.919,0,0,0,1.476,4.883,3.8,3.8,0,0,0-1.478,1.708,3.907,3.907,0,0,0,1.641,4.97,3.618,3.618,0,0,0-1.5,1.676l-.159.354a3.721,3.721,0,0,0,1.817,4.874l2.043.941v3.867a4.753,4.753,0,0,0,4.727,4.779h10.6a.86.86,0,0,0,.067.23c2.138,4.613,4.616,6.339,6.537,7.328a15.23,15.23,0,0,0,2.614,1.007,23.513,23.513,0,0,1,3.181,1.2,24.823,24.823,0,0,1,5.566,3.564.881.881,0,0,0,1.137-1.347,26.559,26.559,0,0,0-5.96-3.816,24.963,24.963,0,0,0-3.4-1.281,13.6,13.6,0,0,1-2.332-.892c-1.7-.873-3.665-2.277-5.5-5.99h8.865a4.739,4.739,0,0,0,4.651-3.952l-.134-.043a.871.871,0,0,0,.045-.273l-.13-17.3a.907.907,0,0,0-.013-.143c-.187-1.086-.4-1.993-.58-2.792a12.245,12.245,0,0,1-.029-7.183c.785-3.021,2.68-5.456,3.363-5.385,1.3.187,1.457.741,1.663,3.483a26.2,26.2,0,0,0,1.586,7.894,27.714,27.714,0,0,0,3.6,6.788,13.139,13.139,0,0,1,2.515,5.56,28.442,28.442,0,0,1,.5,3.464,18.147,18.147,0,0,0,1.7,6.783,35.25,35.25,0,0,0,2.511,4.422c.211.317.421.635.643.945a.881.881,0,0,0,1.434-1.024Zm-52.473-34.66a2.138,2.138,0,0,1-1.027-2.8,2.052,2.052,0,0,1,1.16-1.1,2.016,2.016,0,0,1,.71-.131,1.979,1.979,0,0,1,.827.183l1.374.634,1.67.77a1.8,1.8,0,0,1,.28.167c.051.034.1.069.146.107a2.086,2.086,0,0,1,.581.757c.012.028.028.054.039.082a2.1,2.1,0,0,1,.072.216c.015.051.03.1.041.153s.024.128.032.193.012.133.014.2,0,.113,0,.171a2.324,2.324,0,0,1-.029.245c-.009.045-.013.09-.023.136a2.212,2.212,0,0,1-.124.379,1.936,1.936,0,0,1-.168.3c-.026.04-.052.078-.079.116s-.058.069-.088.1a2.04,2.04,0,0,1-.266.259h0a2.052,2.052,0,0,1-.254.179,1.819,1.819,0,0,1-.3.151,1.977,1.977,0,0,1-1.538-.052h0Zm.813,6.075a2.059,2.059,0,0,1,1.161-1.1,2.013,2.013,0,0,1,.71-.131,1.98,1.98,0,0,1,.828.183l3.043,1.4a2.139,2.139,0,0,1,1.028,2.805,2.052,2.052,0,0,1-1.158,1.1,1.974,1.974,0,0,1-1.539-.052l-3.045-1.4A2.139,2.139,0,0,1,2433.71,385.35Zm0,6.59a2.045,2.045,0,0,1,1.153-1.1,1.989,1.989,0,0,1,.705-.13,1.96,1.96,0,0,1,.824.182l4.285,1.979a2.131,2.131,0,0,1,1.021,2.792,2.044,2.044,0,0,1-1.153,1.1,1.958,1.958,0,0,1-1.527-.052l-4.287-1.98A2.13,2.13,0,0,1,2433.709,391.94Zm2.99,10.513-2.063-.95a1.949,1.949,0,0,1-.94-2.56l.156-.354a1.877,1.877,0,0,1,1.063-1.008,1.838,1.838,0,0,1,.65-.12,1.8,1.8,0,0,1,.759.167l2.062.949a1.952,1.952,0,0,1,.942,2.561l-.158.354a1.879,1.879,0,0,1-1.059,1.008A1.816,1.816,0,0,1,2436.7,402.453Zm27.975,5.459a2.648,2.648,0,0,1-2.63,2.66h-21.375a2.648,2.648,0,0,1-2.631-2.66v-3.579a3.714,3.714,0,0,0,.693-.185,3.625,3.625,0,0,0,1.9-1.652h24.038Zm0-28.935a14.269,14.269,0,0,0-.526,1.583,13.964,13.964,0,0,0,.017,8.023c.164.712.344,1.5.509,2.411v9.2H2441.25a3.761,3.761,0,0,0-.464-1.665c.128-.034.255-.072.381-.119a3.8,3.8,0,0,0,2.143-2.037,3.9,3.9,0,0,0-1.895-5.1l-.777-.359a3.809,3.809,0,0,0,1.455-1.7,3.91,3.91,0,0,0-1.9-5.117l-2.153-.994-.891-.411c-.066-.03-.135-.052-.2-.079a3.793,3.793,0,0,0,1.093-.217l.065-.021a3.8,3.8,0,0,0,2.148-2.041,3.91,3.91,0,0,0-1.9-5.117l-.312-.144v-14.3a2.854,2.854,0,0,1,2.835-2.867h20.963a2.855,2.855,0,0,1,2.837,2.867Z" transform="translate(-2429.924 -355.795)"/></g><g transform="translate(0 24.124)"><path class="c" d="M2397.08,428.307a9.912,9.912,0,0,1,0-14.017l.291.292a9.5,9.5,0,0,0,0,13.434Z" transform="translate(-2394.177 -414.29)"/><g transform="translate(3.235 2.288)"><path class="c" d="M2403.976,429.279a6.676,6.676,0,0,1,0-9.441l.291.292a6.266,6.266,0,0,0,0,8.858Z" transform="translate(-2402.02 -419.837)"/></g><g transform="translate(6.47 4.575)"><path class="c" d="M2410.872,430.25a3.442,3.442,0,0,1,0-4.866l.292.292a3.03,3.03,0,0,0,0,4.283Z" transform="translate(-2409.865 -425.383)"/></g><g transform="translate(3.235 2.288)"><path class="c" d="M2403.976,429.279a6.676,6.676,0,0,1,0-9.441l.291.292a6.266,6.266,0,0,0,0,8.858Z" transform="translate(-2402.02 -419.837)"/></g><g transform="translate(6.47 4.575)"><path class="c" d="M2410.872,430.25a3.442,3.442,0,0,1,0-4.866l.292.292a3.03,3.03,0,0,0,0,4.283Z" transform="translate(-2409.865 -425.383)"/></g></g><g transform="translate(30.111 19.634)"><path class="a" d="M2484.719,409.311a1.958,1.958,0,0,0,.692-.473,2.2,2.2,0,0,0,.443-.712,2.231,2.231,0,0,0,.161-.865,2.28,2.28,0,0,0-.161-.874,2.162,2.162,0,0,0-.443-.7,2.113,2.113,0,0,0-.692-.482,2.376,2.376,0,0,0-.9-.172h-1.276v4.46h1.276a2.2,2.2,0,0,0,.9-.181m-.9-5.615a3.8,3.8,0,0,1,1.436.271,3.712,3.712,0,0,1,1.165.764,3.558,3.558,0,0,1,.784,1.135,3.615,3.615,0,0,1,0,2.792,3.574,3.574,0,0,1-.784,1.135,3.531,3.531,0,0,1-1.165.754,3.64,3.64,0,0,1-1.436.28h-2.731V403.7Z" transform="translate(-2475.352 -403.575)"/><path class="a" d="M2469.366,406.477a.9.9,0,1,1,.9-.9.9.9,0,0,1-.9.9m0-3.075a2.179,2.179,0,1,0,2.179,2.18,2.179,2.179,0,0,0-2.179-2.18" transform="translate(-2467.188 -403.402)"/></g></g></g></g></svg>