<svg xmlns="http://www.w3.org/2000/svg" width="90" height="90" viewBox="0 0 90 90"><defs><style>.a{fill:#fff;}.b{fill:#00adef;}</style></defs><g transform="translate(-275.449 -105.329)"><circle class="a" cx="45" cy="45" r="45" transform="translate(275.449 105.329)"/><g transform="translate(288.744 118.624)"><g transform="translate(14.832 14.601)"><path d="M319.824,166.812a17.1,17.1,0,1,1,16.872-17.1A17.009,17.009,0,0,1,319.824,166.812Zm0-32.161a15.059,15.059,0,1,0,14.826,15.058A14.961,14.961,0,0,0,319.824,134.651Z" transform="translate(-302.951 -132.606)"/></g><g transform="translate(23.153 20.922)"><path class="b" d="M317.407,160.351a1.858,1.858,0,0,1-1.841-2.121l.813-5.687h-3.434a1.859,1.859,0,0,1-1.39-3.094l8.924-10.039a1.859,1.859,0,0,1,3.224,1.542l-.754,4.526h3.382a1.859,1.859,0,0,1,1.45,3.022l-8.922,11.154A1.853,1.853,0,0,1,317.407,160.351Zm-4.047-9.854h5.378l-1.05,7.347,8.257-10.321h-5.41l1.046-6.271Z" transform="translate(-311.087 -138.786)"/></g><g transform="translate(9.176 8.862)"><path class="b" d="M319.95,172.678a1.023,1.023,0,1,1,0-2.045,20.665,20.665,0,0,0,20.483-20.8,1.023,1.023,0,1,1,2.045,0A22.713,22.713,0,0,1,319.95,172.678Zm-21.506-21.819a1.022,1.022,0,0,1-1.023-1.023,22.713,22.713,0,0,1,22.529-22.843,1.023,1.023,0,1,1,0,2.045,20.665,20.665,0,0,0-20.483,20.8A1.022,1.022,0,0,1,298.444,150.859Z" transform="translate(-297.421 -126.994)"/></g><g transform="translate(30.681)"><path d="M319.471,123.65a1.022,1.022,0,0,1-1.023-1.023v-3.276a1.023,1.023,0,1,1,2.045,0v3.276A1.022,1.022,0,0,1,319.471,123.65Z" transform="translate(-318.448 -118.329)"/></g><g transform="translate(15.34 4.109)"><path class="b" d="M306.111,127.231a1.021,1.021,0,0,1-.887-.511l-1.639-2.837a1.023,1.023,0,1,1,1.771-1.023L307,125.7a1.023,1.023,0,0,1-.885,1.534Z" transform="translate(-303.448 -122.347)"/></g><g transform="translate(4.11 15.34)"><path d="M296.327,137.012a1.015,1.015,0,0,1-.51-.137l-2.837-1.637A1.023,1.023,0,0,1,294,133.465l2.837,1.638a1.023,1.023,0,0,1-.512,1.908Z" transform="translate(-292.467 -133.328)"/></g><g transform="translate(0 30.682)"><path class="b" d="M292.748,150.374h-3.276a1.023,1.023,0,0,1,0-2.045h3.276a1.023,1.023,0,0,1,0,2.045Z" transform="translate(-288.449 -148.329)"/></g><g transform="translate(4.11 44.384)"><path d="M293.492,165.411a1.023,1.023,0,0,1-.512-1.909l2.837-1.637a1.023,1.023,0,0,1,1.023,1.771L294,165.274A1.014,1.014,0,0,1,293.492,165.411Z" transform="translate(-292.467 -161.727)"/></g><g transform="translate(15.341 54.415)"><path class="b" d="M304.471,176.419a1.023,1.023,0,0,1-.885-1.534l1.638-2.838A1.023,1.023,0,1,1,307,173.069l-1.638,2.838A1.023,1.023,0,0,1,304.471,176.419Z" transform="translate(-303.449 -171.535)"/></g><g transform="translate(30.682 58.087)"><path d="M319.472,180.447a1.022,1.022,0,0,1-1.023-1.023v-3.277a1.023,1.023,0,1,1,2.045,0v3.277A1.022,1.022,0,0,1,319.472,180.447Z" transform="translate(-318.449 -175.125)"/></g><g transform="translate(44.383 54.414)"><path class="b" d="M334.509,176.418a1.022,1.022,0,0,1-.887-.511l-1.639-2.837a1.023,1.023,0,0,1,1.772-1.023l1.638,2.837a1.023,1.023,0,0,1-.885,1.534Z" transform="translate(-331.846 -171.534)"/></g><g transform="translate(54.415 44.383)"><path d="M345.515,165.411a1.015,1.015,0,0,1-.51-.137l-2.838-1.638a1.023,1.023,0,0,1,1.023-1.772l2.838,1.638a1.023,1.023,0,0,1-.512,1.909Z" transform="translate(-341.655 -161.726)"/></g><g transform="translate(58.087 30.682)"><path class="b" d="M349.545,150.374h-3.277a1.023,1.023,0,1,1,0-2.045h3.277a1.023,1.023,0,1,1,0,2.045Z" transform="translate(-345.245 -148.329)"/></g><g transform="translate(54.415 15.34)"><path d="M342.679,137.012a1.023,1.023,0,0,1-.512-1.908L345,133.465a1.023,1.023,0,0,1,1.023,1.772l-2.838,1.637A1.015,1.015,0,0,1,342.679,137.012Z" transform="translate(-341.655 -133.328)"/></g><g transform="translate(44.383 4.109)"><path class="b" d="M332.869,127.231a1.023,1.023,0,0,1-.886-1.534l1.638-2.837a1.023,1.023,0,1,1,1.771,1.023l-1.637,2.837A1.024,1.024,0,0,1,332.869,127.231Z" transform="translate(-331.846 -122.347)"/></g></g></g></svg>