<svg xmlns="http://www.w3.org/2000/svg" width="90" height="90" viewBox="0 0 90 90"><defs><style>.b{fill:#00adef}</style></defs><g transform="translate(-410.29 -105.329)"><circle cx="45" cy="45" r="45" transform="translate(410.29 105.329)" fill="#fff"/><path d="M455.29 124.904a26.592 26.592 0 0112.965 3.22l-6.244.942a1.023 1.023 0 00.152 2.034 1.119 1.119 0 00.153-.011l8.969-1.353a1.02 1.02 0 00.206-.084.939.939 0 00.145-.059.96.96 0 00.272-.246c0-.005.011-.007.015-.013v-.008a.944.944 0 00.116-.133 1.027 1.027 0 000-.933l-4.172-8.157a1.023 1.023 0 00-1.821.933l2.523 4.934a28.9 28.9 0 00-13.284-3.109 27.129 27.129 0 00-22.108 42.847 1.023 1.023 0 001.666-1.186 25.084 25.084 0 0120.442-39.615z"/><path class="b" d="M477.006 133.728a1.022 1.022 0 10-1.635 1.227 25.084 25.084 0 01-20.08 40.11 25.933 25.933 0 01-12.968-3.382l6.691-1.1a1.023 1.023 0 00-.331-2.019l-9.275 1.525h-.018c-.017 0-.03.016-.046.02a.812.812 0 00-.466.251.92.92 0 00-.141.127.844.844 0 00-.046.1c-.014.023-.039.036-.05.059s-.009.06-.02.089a1 1 0 00-.065.286.83.83 0 00.078.481c.011.025.007.053.02.077l4.746 8.988a1.023 1.023 0 101.808-.956l-2.979-5.64a28.224 28.224 0 0013.066 3.14 27.128 27.128 0 0021.716-43.383z"/><path d="M442.199 152.766v5.851a1.023 1.023 0 102.045 0v-5.851a1.023 1.023 0 00-2.045 0zm4.015-2.925v8.776a1.023 1.023 0 102.045 0v-8.776a1.023 1.023 0 10-2.045 0zm4.015-2.926v11.7a1.023 1.023 0 102.045 0v-11.7a1.023 1.023 0 10-2.045 0zm4.016 4.384v7.314a1.023 1.023 0 002.045 0v-7.314a1.023 1.023 0 00-2.045 0zm4.015-2.433v9.752a1.023 1.023 0 002.045 0v-9.752a1.023 1.023 0 00-2.045 0zm4.015-2.925v12.677a1.023 1.023 0 102.045 0v-12.677a1.023 1.023 0 00-2.045 0zm4.015-2.926v15.6a1.023 1.023 0 102.045 0v-15.6a1.023 1.023 0 10-2.045 0z"/><path class="b" d="M468.663 136.183a1.021 1.021 0 00-1.429-.224l-11.788 8.6-3.4-4.171a1.021 1.021 0 00-1.395-.179l-8.935 6.523a1.023 1.023 0 001.206 1.653l8.152-5.952 3.4 4.171a1.025 1.025 0 001.395.179l12.57-9.174a1.022 1.022 0 00.224-1.426z"/></g></svg>