<svg xmlns="http://www.w3.org/2000/svg" width="91" height="91" viewBox="0 0 91 91"><defs><style>.b{fill:#00adef}</style></defs><g transform="translate(-141.295 -104.829)"><circle cx="45" cy="45" r="45" transform="translate(141.795 105.329)" fill="none" stroke="#f5f5f5"/><path d="M218.512 123.82h-26.064a1.023 1.023 0 00-1.023 1.023v9.255h2.045v-8.232h24.019v10.035h-16.64v2.045h3.607v23.272h-3.607v2.045h15.112v1.25h-15.112v2.045h16.135a1.022 1.022 0 001.023-1.023v-2.273h.505a1.023 1.023 0 001.023-1.023v-37.4a1.023 1.023 0 00-1.023-1.019zm-1.023 37.4h-10.987v-6.409h10.987zm0-8.456h-10.987v-6.36h10.987zm0-8.406h-10.987v-6.41h10.987z"/><path d="M209.03 143.408a.512.512 0 00.511-.511v-3.49a.511.511 0 10-1.023 0v3.49a.512.512 0 00.512.511zm2.966 0a.512.512 0 00.511-.511v-3.49a.511.511 0 10-1.023 0v3.49a.511.511 0 00.512.511zm2.965 0a.512.512 0 00.511-.511v-3.49a.511.511 0 00-1.023 0v3.49a.512.512 0 00.512.511zm-5.931 8.43a.512.512 0 00.511-.511v-3.489a.511.511 0 10-1.023 0v3.489a.512.512 0 00.512.511zm2.966 0a.512.512 0 00.511-.511v-3.489a.511.511 0 00-1.023 0v3.489a.511.511 0 00.512.511zm2.965 0a.512.512 0 00.511-.511v-3.489a.511.511 0 00-1.023 0v3.489a.512.512 0 00.512.511zm-5.931 8.431a.511.511 0 00.511-.511v-3.489a.511.511 0 00-1.023 0v3.489a.511.511 0 00.512.511zm2.966 0a.511.511 0 00.511-.511v-3.489a.511.511 0 00-1.023 0v3.489a.51.51 0 00.512.511zm2.965 0a.511.511 0 00.511-.511v-3.489a.511.511 0 00-1.023 0v3.489a.511.511 0 00.512.511zm-2.258-31.026h2.261a.511.511 0 100-1.023h-2.258a.511.511 0 000 1.023zm-11.307 0h9.179a.511.511 0 000-1.023h-9.179a.511.511 0 100 1.023zm-43.77 35.268v-1.25h15.114v-2.045h-3.609v-6.405h3.609v-2.045h-3.609v-6.36h3.609v-2.045h-3.609v-6.41h3.609v-2.05h-16.641v-10.036h24.02v8.232h2.045v-9.255a1.023 1.023 0 00-1.023-1.023h-26.069a1.022 1.022 0 00-1.023 1.023v37.4a1.022 1.022 0 001.023 1.023h.5v2.273a1.022 1.022 0 001.023 1.023h16.137v-2.05zm-1.527-3.3v-23.264h10.986v23.272h-10.986z"/><path d="M171.66 143.408a.512.512 0 00.511-.511v-3.49a.511.511 0 10-1.023 0v3.49a.512.512 0 00.512.511zm0 8.43a.512.512 0 00.511-.511v-3.489a.511.511 0 10-1.023 0v3.489a.512.512 0 00.512.511zm0 8.431a.511.511 0 00.511-.511v-3.489a.511.511 0 00-1.023 0v3.489a.511.511 0 00.512.511zm5.931-32.049h-2.257a.511.511 0 100 1.023h2.257a.511.511 0 100-1.023zm-4.387 0h-9.179a.511.511 0 000 1.023h9.179a.511.511 0 100-1.023z"/><path class="b" d="M200.85 164.113V135.12a1.022 1.022 0 00-1.023-1.023h-26.064a1.022 1.022 0 00-1.023 1.023v37.4a1.022 1.022 0 001.023 1.023h.5v2.274a1.022 1.022 0 001.024 1.022h23.01a1.022 1.022 0 001.023-1.023v-2.277h.5a1.022 1.022 0 001.023-1.023v-8.4zm-26.063 7.382v-23.272h10.986v23.272h-10.986zm22.492 3.3h-20.967v-1.256h20.965zm1.527-3.3h-10.989v-6.41h10.987zm0-8.456h-10.989v-6.359h10.987zm0-8.4h-10.989v-6.411h10.987zm0-8.457h-24.019v-10.043h24.019z"/><path class="b" d="M190.345 153.684a.512.512 0 00.511-.511v-3.489a.511.511 0 10-1.023 0v3.49a.511.511 0 00.512.51zm2.965 0a.512.512 0 00.511-.511v-3.489a.511.511 0 10-1.023 0v3.49a.512.512 0 00.512.51zm2.965 0a.511.511 0 00.511-.511v-3.489a.511.511 0 10-1.023 0v3.49a.512.512 0 00.512.51zm-5.93 8.432a.512.512 0 00.511-.511v-3.49a.511.511 0 10-1.023 0v3.49a.511.511 0 00.512.511zm2.965 0a.512.512 0 00.511-.511v-3.49a.511.511 0 10-1.023 0v3.49a.512.512 0 00.512.511zm2.965 0a.511.511 0 00.511-.511v-3.49a.511.511 0 00-1.023 0v3.49a.512.512 0 00.512.511zm-5.93 8.433a.512.512 0 00.511-.511v-3.489a.511.511 0 10-1.023 0v3.489a.511.511 0 00.512.511zm2.965 0a.512.512 0 00.511-.511v-3.489a.511.511 0 10-1.023 0v3.489a.512.512 0 00.512.511zm2.965 0a.511.511 0 00.511-.511v-3.489a.511.511 0 00-1.023 0v3.489a.512.512 0 00.512.511zm-2.258-31.029h2.258a.511.511 0 000-1.023h-2.258a.511.511 0 000 1.023zm-11.307 0h9.178a.511.511 0 100-1.023h-9.178a.511.511 0 100 1.023z"/></g></svg>