<svg xmlns="http://www.w3.org/2000/svg" width="91" height="91" viewBox="0 0 91 91"><defs><style>.b{fill:#00adef}</style></defs><g transform="translate(-1097.619 -1236.866)"><circle cx="45" cy="45" r="45" transform="translate(1098.119 1237.366)" fill="none" stroke="#f5f5f5"/><g transform="translate(1108.235 1258.85)"><path d="M16.291 16.206a8.1 8.1 0 10-8.1-8.1 8.111 8.111 0 008.1 8.1zm6.058-8.1a6.058 6.058 0 11-6.058-6.058 6.065 6.065 0 016.058 6.055z"/><path d="M19.89 33.944H5.09a3.073 3.073 0 01-2.5-1.295 2.813 2.813 0 01-.389-2.579 14.926 14.926 0 0125.1-5.2 15.619 15.619 0 011.933-.892A16.964 16.964 0 00.272 29.404a4.842 4.842 0 00.653 4.438 5.127 5.127 0 004.166 2.153h14.33a15.531 15.531 0 01.469-2.051zm50.361-4.817a16.971 16.971 0 00-29.083-4.9 15.589 15.589 0 011.847.971 14.932 14.932 0 0125.315 4.636 3.054 3.054 0 01-.359 2.836 2.951 2.951 0 01-2.452 1.275H49.878a15.549 15.549 0 01.468 2.046h15.172a4.971 4.971 0 004.128-2.15 5.14 5.14 0 00.605-4.714z"/><path d="M54.28 16.206a8.1 8.1 0 10-8.1-8.1 8.112 8.112 0 008.1 8.1zm0-14.161a6.058 6.058 0 11-6.059 6.058 6.065 6.065 0 016.059-6.058z"/><path class="b" d="M45.422 34.989h-.768c-.092-.25-.193-.494-.3-.733l.542-.543a1.951 1.951 0 000-2.756l-2.359-2.359a2 2 0 00-2.758 0l-.53.53a11.061 11.061 0 00-.746-.311v-.748a1.951 1.951 0 00-1.949-1.949h-3.338a1.952 1.952 0 00-1.949 1.949v.724q-.39.143-.764.314l-.51-.509a1.949 1.949 0 00-2.757 0l-2.36 2.359a1.952 1.952 0 000 2.756l.5.5c-.118.254-.225.513-.322.776h-.706a1.952 1.952 0 00-1.949 1.949v3.337a1.953 1.953 0 001.949 1.95h.706q.146.394.322.775l-.5.5a1.953 1.953 0 000 2.756l2.362 2.361a1.955 1.955 0 002.756 0l.51-.51c.25.115.505.219.764.313v.725a1.953 1.953 0 001.949 1.95h3.338a1.952 1.952 0 001.949-1.95v-.749c.252-.094.5-.2.746-.311l.53.532a1.951 1.951 0 002.757 0l2.361-2.361a1.953 1.953 0 000-2.755l-.543-.543c.109-.24.211-.484.3-.732h.768a1.952 1.952 0 001.949-1.95v-3.337a1.951 1.951 0 00-1.95-1.95zm-.1 5.191h-1.413a1.023 1.023 0 00-.983.74 8.289 8.289 0 01-.719 1.742 1.024 1.024 0 00.172 1.219l1 1-2.225 2.224-.988-.989a1.027 1.027 0 00-1.222-.17 8.305 8.305 0 01-1.75.731 1.024 1.024 0 00-.739.983v1.392h-3.146V47.68a1.022 1.022 0 00-.743-.984 8.446 8.446 0 01-1.772-.727 1.018 1.018 0 00-1.217.172l-.967.964-2.223-2.224.956-.956a1.023 1.023 0 00.17-1.222 8.3 8.3 0 01-.74-1.78 1.023 1.023 0 00-.983-.74h-1.351v-3.146h1.351a1.023 1.023 0 00.983-.742 8.315 8.315 0 01.74-1.779 1.024 1.024 0 00-.17-1.223l-.956-.955 2.223-2.224.967.965a1.021 1.021 0 001.218.172 8.3 8.3 0 011.771-.726 1.023 1.023 0 00.744-.985v-1.372h3.146v1.39a1.022 1.022 0 00.737.982 8.331 8.331 0 011.752.732 1.023 1.023 0 001.222-.17l.988-.988 2.225 2.224-1 1a1.024 1.024 0 00-.172 1.219 8.339 8.339 0 01.719 1.743 1.022 1.022 0 00.983.741h1.413z"/><path class="b" d="M34.883 32.93a5.677 5.677 0 105.678 5.678 5.684 5.684 0 00-5.678-5.678zm0 9.309a3.632 3.632 0 113.633-3.631 3.635 3.635 0 01-3.633 3.631z"/><circle class="b" cx="1.023" cy="1.023" r="1.023" transform="translate(33.862 8.594)"/><circle class="b" cx="1.023" cy="1.023" r="1.023" transform="translate(33.862 2.457)"/><circle class="b" cx="1.023" cy="1.023" r="1.023" transform="translate(33.862 14.73)"/><path class="b" d="M34.898 22.909a1.023 1.023 0 10-.027 0h.013z"/></g></g></svg>