<svg xmlns="http://www.w3.org/2000/svg" width="570" height="400" viewBox="0 0 570 400"><defs><linearGradient id="a" x1=".5" x2=".5" y2="1" gradientUnits="objectBoundingBox"><stop offset="0" stop-color="#7fb0f8"/><stop offset="1" stop-color="#d5d3ff"/></linearGradient><filter id="b" x="164" y="15" width="242" height="242" filterUnits="userSpaceOnUse"><feOffset dy="3"/><feGaussianBlur stdDeviation="10" result="c"/><feFlood flood-opacity=".161"/><feComposite operator="in" in2="c"/><feComposite in="SourceGraphic"/></filter><style>.a{fill:#fff}</style></defs><path class="a" d="M0 0h570v400H0z"/><g filter="url(#b)"><rect width="182" height="182" rx="10" transform="translate(194 42)" fill="url(#a)"/></g><path class="a" d="M218.53 125.986a3.985 3.985 0 005.579.611l3.678-2.955v61.728a7.225 7.225 0 007.2 7.207h102.387a7.226 7.226 0 007.206-7.207v-61.6l3.566 2.868a4.02 4.02 0 002.481.866 3.917 3.917 0 003.1-1.515 3.993 3.993 0 00-.611-5.586L290.453 70.02l-1.44-.717a7.08 7.08 0 00-5.7.019l-1.509.7-62.663 50.389a3.985 3.985 0 00-.611 5.579"/><path d="M311.299 162.434a14.988 14.988 0 005.3-3.6 16.331 16.331 0 003.348-5.4 17.257 17.257 0 001.222-6.558 16.905 16.905 0 00-1.222-6.627 16.084 16.084 0 00-3.348-5.33 15.8 15.8 0 00-5.3-3.634 18.254 18.254 0 00-6.876-1.3h-9.688v33.925h9.688a18.417 18.417 0 006.876-1.477m-6.876-42.678a29.14 29.14 0 0110.909 2.051 28.468 28.468 0 018.865 5.8 26.758 26.758 0 015.941 8.64 25.678 25.678 0 012.126 10.623 26.269 26.269 0 01-2.126 10.623 29 29 0 01-5.939 8.653 25.881 25.881 0 01-8.865 5.692 27.135 27.135 0 01-10.909 2.126h-20.781v-54.2zm-47.76 22.437a6.8 6.8 0 116.807-6.807 6.8 6.8 0 01-6.807 6.807m0-23.371a16.567 16.567 0 1016.563 16.564 16.572 16.572 0 00-16.563-16.564" fill="#231f20"/></svg>