<svg xmlns="http://www.w3.org/2000/svg" width="150" height="1000.3" viewBox="0 0 150 1000.3"><defs><style>.a{fill:none}.b{fill:#1a1818}.c{fill:#191717}.d{fill:#00adef}.e{fill:red}</style></defs><path class="a" d="M150 .118V1000.3H.001V.118z"/><path class="b" d="M40.263 303.968h-.166a21.3 21.3 0 01-2.564-42.447 16.568 16.568 0 0119.218-13.406c.34.061.679.131 1.015.214a24.224 24.224 0 0140.526 11.718 15.129 15.129 0 0118.72 13.524 15.117 15.117 0 01-.718 30.185l-.4.01-.271-.005c-.713.003-73.971.207-75.36.207zm13.575-53.717a14.153 14.153 0 00-14.067 12.509l-.114.982-.987.073a18.906 18.906 0 001.425 37.76h.174c1.432.061 74.639-.2 75.379-.206l.244.006.368-.007a12.73 12.73 0 00-.4-25.446h-1.2v-1.2a12.73 12.73 0 00-16.89-12.029l-1.327.457-.245-1.377a21.825 21.825 0 00-37.21-11.282l-.5.52-.7-.2a14.233 14.233 0 00-3.955-.563z"/><path class="b" d="M44.28 290.957a3.083 3.083 0 001.082-.738 3.652 3.652 0 00.942-2.461 3.559 3.559 0 00-.25-1.366 3.41 3.41 0 00-.69-1.1 3.342 3.342 0 00-1.082-.753 3.709 3.709 0 00-1.414-.264h-1.993v6.967h2a3.454 3.454 0 001.414-.284m-1.414-8.772a5.968 5.968 0 012.246.423 5.815 5.815 0 011.823 1.194 5.5 5.5 0 010 7.907 5.526 5.526 0 01-1.823 1.177 5.7 5.7 0 01-2.246.438h-4.273v-11.137zm19.086-.002h2.278v11.14h-2.278zm12.897 6.772a2.951 2.951 0 01-3.073 2.36c-2.377 0-3.136-1.839-3.136-3.562s.759-3.563 3.136-3.563a2.951 2.951 0 013.073 2.361h2.329a5.186 5.186 0 00-5.32-4.557 5.762 5.762 0 000 11.518 5.188 5.188 0 005.32-4.559zm16.357-6.772h2.278v11.14h-2.278zm-9.825.004v4.526h5.011v-4.526h2.278v11.141h-2.278v-4.621H81.39v4.621h-2.278v-11.141zM33.038 286.8a1.4 1.4 0 111.4-1.4 1.4 1.4 0 01-1.4 1.4m0-4.8a3.4 3.4 0 103.411 3.4 3.4 3.4 0 00-3.411-3.4m18.94 7.082h5.436v1.963h-5.436z"/><path class="b" d="M52.897 282.188l-3.84 11.141h2.417l3.695-11.141z"/><path class="b" d="M54.131 282.188l3.661 11.141h2.419l-3.814-11.141z"/><path class="a" d="M.001 197.897h149.76v149.582H.001zm32.173 345.942l.017 3.17 6.521-1.605-.021-3.4zm-.035-5.842l.014 2.963 6.521-1.835-.016-3.156zm-.037-6.3l.018 3.375 6.524-2.03-.021-3.671zm.11 18.149l.021 3.393 6.517-1.294-.021-3.7zm-9.201 24.935l.017 2.8h5.336l-.02-3.087zm19.754-43.024l8.306-2.587v-4.239l-8.327 2.969zm-10.517 24.271l.019 3.181 6.519-.918-.02-3.559zm.108 18.251l.021 3.3h6.516l-.021-3.652zm-9.384-5.29l.021 3.087 5.34-.284-.021-3.3zm9.312-7.04l.021 3.458 6.517-.606-.023-3.767zm.033 6.171l.023 3.461 6.516-.348-.022-3.72z"/><path class="a" d="M52.583 517.59l.208.069 20.965 7.017-21.213-7.747-27.407 10.156zm-9.78 20.375l8.272-2.325v-3.538l-8.291 2.582zm42.348 36.504h1.932v2.745h-1.932z"/><path class="a" d="M53.108 521.309l.211.071 23 7.693v-2.761l-23.73-7.944-30.8 10.657.105 3.059 16.7-5.607-.009-.133.461-.023zm14.563 53.16h1.932v2.745h-1.932zm-44.735-11.207l.021 3.016 5.34-.5-.021-3.269z"/><path class="a" d="M88.06 577.587h19.441l21.06-.239.331-23.876-19.8-17.029a89.306 89.306 0 00-25.061-2.143l-.484.022v-.009c-.773.037-1.468.043-1.5.043h-.114l-.1-.037-27.168-9.571v16.869a150.729 150.729 0 0128.035-4.194l2.618-.108c10.074-.295 17.548.82 22.222 3.322l.2.106v2.13l-.776.584-.352-.242c-3.736-2.566-10.934-3.774-20.817-3.518l-.423.036-2.611.083a141.817 141.817 0 00-28.1 4.373v4.779a229.017 229.017 0 0128.035-3.686l2.617-.13c10-.407 17.48.5 22.2 2.681l.226.1v2.086l-.632.571-.38-.22c-3.867-2.226-11.257-3.192-21.352-2.789l-2.6.128a225.6 225.6 0 00-28.109 3.755v4.869a211.746 211.746 0 0128.068-2.047l2.613-.01c9.813.023 17.655.732 22.087 2l.309.088v2.666l-.7-.25c-3.77-1.329-11.473-2.072-21.694-2.086l-2.606.01a208.4 208.4 0 00-28.078 2.1v4.8c7.254-.812 17.683-1.357 28.068-1.464l2.612-.017a159.4 159.4 0 0122.009 1.059l.387.058v2.5l-.6-.1c-4.323-.743-12.086-1.137-21.789-1.1l-2.607.017c-10.317.109-21.016.686-28.08 1.509v4.607c3.481 0 8.23-.054 13.6-.112h.129c4.536-.052 9.449-.108 14.341-.142l2.61-.017c9.922-.053 16.885.018 21.928.221h1.153v2.419l-2.351-.041c-4.866-.167-11.649-.228-20.723-.181l-2.609.017c-4.557.031-9.132.083-13.4.125l-1.022.011c-6.335.084-10.578.117-13.656.119v4.495l12.037-.016v-3.807h3.887v3.823l13.593-.016v-3.807h3.886zm-65.158-19.706l.018 2.641 5.34-.751-.02-2.948zm-.038-5.736l.018 2.95 5.34-1.059-.017-3.2zm-.074-11.237l.017 2.678 5.34-1.5-.016-2.837zm-.04-5.879l.021 2.954 5.345-1.665-.021-3.2zm.075 11.444l.021 2.837 5.34-1.314-.018-3.026zm-3.808 12.178l-3.63.72.01 2.206 3.636-.511zm-.111-16.535l-3.6 1.119.012 2.456 3.6-1.013zm24.117 35.467h8.049v-4.3l-8.07.431zm8.05-28.081v-4.294l-8.22 2.021.022 3.9zm-32.207-13.09l-3.583 1.279.012 2.617 3.588-1.118zm32.208 20.159v-4.275l-8.182 1.621.022 3.8zm-.001 14.009v-4.206l-8.107.755.021 3.882zm-32.129-23.022l-3.607 1.014.012 2.576 3.613-.888zm.18 27.43l-3.662.2.008 2.4h3.671zm23.715-30.6l8.235-2.025v-3.838l-8.254 2.322z"/><path class="a" d="M128.551 578.057l-21.04.235h-53.83v-5.924h.489c3.21 0 7.535-.037 14.131-.118l1.021-.013c4.272-.044 8.844-.093 13.407-.124l2.61-.016c9.39-.048 16.333.016 21.246.2l.859.023v-1h-.2c-5.052-.2-11.993-.277-21.894-.222l-2.608.017c-4.889.035-9.8.09-14.337.143h-.127c-5.632.062-10.582.112-14.1.112h-.489v-5.916l.409-.05c7.2-.868 17.911-1.453 28.636-1.566l2.613-.018a155.542 155.542 0 0121.419 1.025v-1.032a163.581 163.581 0 00-21.413-.984l-2.607.017c-10.612.111-21.263.678-28.49 1.519l-.567.068v-6.2l.383-.062a208.312 208.312 0 0128.662-2.175l2.613-.01c9.777.016 17.32.7 21.418 1.931v-1.069c-4.372-1.18-11.954-1.84-21.416-1.863l-2.607.01a211.442 211.442 0 00-28.463 2.122l-.592.093v-6.29l.364-.069a228.085 228.085 0 0128.648-3.846l2.616-.128c10.032-.4 17.235.486 21.448 2.632v-1.184c-4.554-2.022-11.755-2.856-21.387-2.469l-2.6.129a229.819 229.819 0 00-28.473 3.781l-.613.116v-6.169l.3-.091a141.825 141.825 0 0128.712-4.516l2.627-.112c10.1-.311 17.293.824 21.435 3.362v-1.262c-4.505-2.33-11.7-3.365-21.395-3.08l-2.6.107a149.648 149.648 0 00-28.417 4.328l-.662.183v-19.019l28.461 10.03c.288 0 1.078-.018 1.8-.069l.5-.034v.028a90.212 90.212 0 0123.5 1.891l-.363-.311a83.3 83.3 0 00-23.764-2.279l-.322.013-6.416-2.344v-.425l-23.968-8.016-13.847 4.935-18.1 6.078.037 1.409-6.411 2.368v.191l5.043-1.8.027 4.381-5.051 1.572.007 1.387 5.055-1.574.027 4.119-5.064 1.424.006 1.367 5.066-1.424.028 4.241-5.075 1.247.006 1.347 5.077-1.248.027 4.292-5.085 1.008.006 1.322 5.089-1.009.026 3.922-5.1.718.006 1.3 5.1-.717.031 4.313-5.109.475.006 1.291 5.115-.476.025 4.4-5.12.27.006 1.281 5.12-.274.031 4.066H14.99v.591h-2.04v2.624h123.859v-2.631h-8.271zM21.769 534.589l7.3-2.6.032 4.8-7.3 2.27zm.041 5.851l7.3-2.27.026 4.4-7.294 2.05zm.036 5.545l7.294-2.052.028 4.566-7.292 1.793zm.038 5.652l7.293-1.793.026 4.729-7.29 1.447zm.038 5.7l7.289-1.444.028 4.457-7.294 1.024zm.035 5.337l7.29-1.024.028 4.748-7.291.678zm.037 5.688l7.291-.678.026 4.763-7.29.391zm.062 9.926l-.027-4.172 7.29-.391.027 4.562zm9.067-47.036l8.474-3.021.03 5.271-8.476 2.639zm.038 6.275l8.473-2.637.025 4.714-8.471 2.383zm.035 5.825l8.47-2.382.031 4.936-8.474 2.085zm.038 5.983l8.472-2.086.027 5.228-8.472 1.685zm.035 6.149l8.471-1.68.027 5.07-8.473 1.189zm.037 5.878l8.47-1.189.028 5.247-8.471.788zm.037 6.132l8.469-.789.029 5.181-8.469.453zm.061 10.794l-.027-4.673 8.469-.453.029 5.126zm10.362-50.831l10.283-3.666v5.841l-10.254 3.2zm.039 6.758l10.247-3.19v5.1l-10.219 2.873zm.035 6.144l10.211-2.872v5.379l-10.185 2.5zm.109 19.509l10.1-1.418v5.83l-10.072.938zm.1 18.42l-.028-5.238 10.028-.537v5.776zm10-7.055l-10.037.536-.027-5.267 10.064-.937zm0-14.083l-10.11 1.419-.029-5.2 10.139-2.01zm0-7.113l-10.147 2.013-.032-5.333 10.179-2.5z"/><path class="a" d="M19.085 569.352l-3.65.339.013 2.791 3.657-.194zm-.036-5.544l-3.641.511.012 2.66 3.646-.339zm-.066-10.709l-3.62.889.013 2.6 3.624-.719zm23.968 11.318l8.122-.751v-4.35l-8.145 1.139z"/><path class="b" d="M131.084 576.996l.334-24.224-22.038-18.955-.326-.277-.465-.128a86.023 86.023 0 00-24.564-2.437l-4.422-1.615v-4.647l-26.073-9.519-.9-.4-33 12.23-1.122.478.156 5.851-6.386 2.359.192 41.285h-2.031v6.4h70.2l3.509.013 55.184-.013v-6.4zm-46.917-3.234v3.807l-13.593.016v-3.822h-3.887v3.807l-12.037.016v-4.513c3.078 0 7.321-.035 13.656-.118l1.022-.011c4.269-.042 8.845-.094 13.4-.125l2.608-.017c9.075-.047 15.857.014 20.724.181l2.35.041v-2.42h-1.149c-5.043-.2-12.006-.274-21.928-.221l-2.61.017c-4.892.034-9.8.09-14.341.142h-.129c-5.37.058-10.119.108-13.6.112v-4.607c7.064-.823 17.763-1.4 28.08-1.509l2.607-.018c9.7-.033 17.466.362 21.789 1.1l.6.1v-2.5l-.387-.058a159.4 159.4 0 00-22.009-1.059l-2.613.017c-10.385.107-20.814.652-28.068 1.464v-4.8a208.427 208.427 0 0128.078-2.1l2.606-.01c10.221.014 17.923.757 21.693 2.086l.7.25v-2.647l-.309-.088c-4.431-1.266-12.273-1.976-22.087-2l-2.613.01a211.763 211.763 0 00-28.068 2.047v-4.869a225.564 225.564 0 0128.109-3.755l2.6-.128c10.1-.4 17.486.563 21.353 2.789l.38.22.632-.571v-2.086l-.226-.1c-4.719-2.18-12.2-3.088-22.2-2.681l-2.616.13a229.034 229.034 0 00-28.023 3.682v-4.779a141.844 141.844 0 0128.1-4.373l2.611-.083.424-.036c9.882-.256 17.08.952 20.816 3.517l.352.242.776-.584v-2.13l-.2-.106c-4.674-2.5-12.147-3.616-22.222-3.322l-2.618.108a150.713 150.713 0 00-28.035 4.193v-16.865l27.168 9.571.1.037h.115c.033 0 .729-.005 1.5-.042v.009l.484-.023a89.322 89.322 0 0125.061 2.143l19.8 17.03-.332 23.875-21.061.239H88.061l-.007-3.822zm2.916.708v2.745h-1.932v-2.745zm-17.48 0v2.745h-1.931v-2.745zm-31.012-47.992l-16.7 5.607-.1-3.059 30.8-10.657 23.729 7.944v2.761l-23-7.693-.211-.071-14.065 5.013-.46.022zm35.166-1.8l-20.966-7.015-.209-.069-27.448 9.494 27.406-10.155zm63.054 56.831H12.952v-2.626h2.04v-.591h5.133l-.031-4.066-5.119.274-.006-1.281 5.12-.27-.025-4.4-5.115.476-.006-1.291 5.109-.475-.031-4.313-5.1.717-.005-1.3 5.1-.718-.026-3.921-5.089 1.009-.006-1.322 5.086-1.008-.027-4.292-5.077 1.248-.006-1.347 5.074-1.246-.027-4.241-5.066 1.424-.006-1.367 5.064-1.424-.028-4.119-5.054 1.574-.007-1.387 5.051-1.572-.026-4.38-5.043 1.8v-.191l6.411-2.368-.036-1.409 18.1-6.078 13.846-4.934 23.968 8.016v.429l6.416 2.344.322-.012a83.293 83.293 0 0123.764 2.279l.363.311a90.229 90.229 0 00-23.5-1.891v-.028l-.5.034c-.723.051-1.513.069-1.8.069l-28.462-10.03v19.024l.662-.183a149.628 149.628 0 0128.417-4.328l2.6-.107c9.7-.285 16.889.75 21.395 3.08v1.262c-4.143-2.538-11.339-3.673-21.435-3.362l-2.627.112a141.818 141.818 0 00-28.712 4.516l-.3.091v6.169l.612-.116a229.9 229.9 0 0128.474-3.781l2.6-.129c9.632-.387 16.834.446 21.388 2.469v1.184c-4.214-2.145-11.417-3.031-21.448-2.632l-2.617.128a228.1 228.1 0 00-28.648 3.846l-.365.069v6.29l.592-.092a211.53 211.53 0 0128.463-2.122l2.607-.01c9.462.023 17.044.683 21.416 1.863v1.069c-4.1-1.231-11.641-1.915-21.419-1.931l-2.613.01a208.306 208.306 0 00-28.662 2.175l-.383.062v6.2l.567-.067c7.227-.841 17.878-1.409 28.49-1.52l2.607-.017a163.658 163.658 0 0121.413.985v1.029a155.561 155.561 0 00-21.419-1.025l-2.613.017c-10.726.113-21.432.7-28.636 1.566l-.409.05v5.916h.489c3.519 0 8.469-.051 14.1-.113h.127c4.535-.053 9.448-.108 14.336-.143l2.608-.018c9.9-.055 16.842.018 21.894.222h.2v1l-.86-.023c-4.913-.182-11.855-.246-21.246-.2l-2.61.016c-4.562.032-9.135.08-13.407.124l-1.021.013c-6.6.081-10.92.117-14.131.117h-.489v5.924h53.83l21.04-.235-.012.826h8.271zm-121.35-6.326l3.662-.2.017 2.6h-3.671zm-.028-5.492l3.649-.34.02 2.936-3.657.194zm-.026-5.373l3.64-.51.018 2.832-3.646.339zm-.023-4.947l3.631-.72.016 2.415-3.636.512zm-.025-5.383l3.62-.889.017 2.766-3.624.719zm-.024-5.415l3.607-1.014.018 2.7-3.613.889zm-.026-5.339l3.6-1.119.017 2.562-3.6 1.013zm-.027-5.544l3.582-1.279.017 2.779-3.588 1.118z"/><path class="b" d="M22.028 574.121l.027 4.172h7.291l-.028-4.562zm1 3.463l-.016-2.8 5.332-.285.02 3.087zm29.022-46.555l-10.247 3.19.029 4.778 10.218-2.873zm-.976 4.612l-8.271 2.325-.019-3.281 8.29-2.582zm.973-11.847l-10.283 3.666.029 5.37 10.254-3.2zm-.977 5.376l-8.306 2.586-.021-3.856 8.327-2.969zm-22.004 2.819l-7.3 2.6.03 4.465 7.3-2.27zm-6.295 5.994l-.02-2.954 5.345-1.906.02 3.2zm29.279-.492l-10.211 2.872.026 5.012 10.185-2.5zm-.976 4.872l-8.234 2.025-.02-3.541 8.254-2.322zm-11.299 17.814l-8.47 1.189.027 4.846 8.471-.789zm-7.469 5.231l-.021-3.458 6.516-.915.023 3.767zm7.505 1.301l-8.469.789.029 4.845 8.469-.453zm-7.467 4.873l-.023-3.461 6.516-.607.023 3.719zm9.596-13.01l10.11-1.418v-5.787l-10.139 2.011zm9.134-6.277v4.275l-8.16 1.144-.021-3.8zm-9.167-.241l10.147-2.013v-5.82l-10.18 2.5zm9.168-6.847v4.294l-8.2 1.626-.022-3.9zm-9.054 27.847l.028 5.238h10v-5.776zm9.051 4.53h-8.048l-.022-3.872 8.07-.431zm-9.059-5.81l10.038-.537v-5.668l-10.064.937zm9.061-5.4v4.209l-8.087.431-.021-3.882zm.977-7.92l-10.1 1.419.031 5.349 10.072-.938zm-.976 5.212l-8.122.751-.024-3.962 8.145-1.139zm-19.7 9.954l.026 4.673h8.471l-.028-5.126zm1 3.964l-.021-3.3 6.516-.347.021 3.652zm-3.165-21.687l-7.289 1.444.023 4.037 7.294-1.025zm-6.291 4.625l-.018-2.641 5.338-1.058.02 2.948zm6.258-10.677l-7.293 1.793.029 4.383 7.29-1.447zm-6.293 5.25l-.019-2.95 5.342-1.313.017 3.2zm6.255-11.162l-7.294 2.052.031 4.306 7.292-1.793zm-6.294 5.373l-.021-2.837 5.343-1.5.018 3.026zm6.259-11.136l-7.3 2.27.027 4.177 7.294-2.05zm-6.3 5.414l-.017-2.678 5.341-1.66.016 2.837zm6.442 18.076l-7.29 1.024.027 4.4 7.291-.678zm-6.29 4.622l-.021-3.016 5.34-.75.021 3.269zm16.708-25.308l-8.47 2.382.027 4.638 8.474-2.085zm-7.472 6.037l-.018-3.171 6.518-1.83.021 3.4zm-2.909 20.677l-7.29.678.027 4.475 7.29-.391zm-6.289 4.388l-.021-3.087 5.34-.5.021 3.3zm16.71-24.823l-8.472 2.086.027 4.827 8.471-1.685zm-7.471 5.986l-.021-3.393 6.516-1.6.021 3.7zm7.506.569l-8.471 1.68.025 4.578 8.473-1.189zm-7.472 5.4l-.019-3.182 6.518-1.3.02 3.559zm7.365-24.315l-8.473 2.637.026 4.46 8.471-2.383zm-7.477 6.064l-.017-2.961 6.521-2.031.016 3.157zm7.44-12.722l-8.473 3.021.027 4.888 8.476-2.639zm-7.475 6.836l-.018-3.374 6.521-2.327.021 3.671z"/><path class="a" d="M.002 447.801h149.76v151.147H.002z"/><path class="a" d="M63.308 481.497a5.5 5.5 0 00-.017 10.994 5.6 5.6 0 00.981-.087v-10.822a5.505 5.505 0 00-.965-.084z"/><path class="c" d="M93.509 484.805a7.371 7.371 0 00-5.3-4.975v-4.417a12.85 12.85 0 10-25.7 0v4.239a7.385 7.385 0 102.98 14.4l.664-.207V480.15l-.664-.207a7.237 7.237 0 00-1.1-.25v-4.28a10.964 10.964 0 1121.927 0v4.2a7.351 7.351 0 00-2.055.327l-.667.206v13.689l.667.207a7.338 7.338 0 001.839.307 10.984 10.984 0 01-5.951 7.665 3.1 3.1 0 00-2.756-1.7h-3.361a3.115 3.115 0 00-3.113 3.112v1.3a3.116 3.116 0 003.113 3.111h3.361a3.114 3.114 0 003.111-3.111v-.792a12.867 12.867 0 007.529-9.754c.2-.045.408-.077.607-.139a7.383 7.383 0 004.869-9.236zm-29.237 7.6a5.6 5.6 0 01-.981.087 5.5 5.5 0 11.017-10.993 5.485 5.485 0 01.964.084zm14.351 11.025v1.3a1.226 1.226 0 01-1.224 1.224h-3.361a1.227 1.227 0 01-1.225-1.224v-1.3a1.226 1.226 0 011.225-1.224h3.361a1.225 1.225 0 011.224 1.224zm6.868-11.022v-10.825a5.442 5.442 0 01.972-.086 5.5 5.5 0 11-.008 10.994 5.664 5.664 0 01-.963-.084z"/><path class="a" d="M104.282 735.423l6.757 6.715.167 3.941-6.524-1.382z"/><path class="a" d="M33.811 760.264v-.948H22.76v-4.218h1.579a.861.861 0 00.853-.864V743.52a.86.86 0 00-.853-.865H22.76v-.57c0-.161-.383-12.073 3.082-19.446a.236.236 0 01.214-.124H85.05a17.159 17.159 0 0111.946 4.8l3.979 3.821a8.666 8.666 0 00-4.566-1.3h-3.108a1.255 1.255 0 00-1.256 1.253c0 .043 0 .085.007.128l.936 9.777a3.026 3.026 0 002.392 2.685l8.395 1.783 7.607 1.61v.026l6.008 1.26.465-.849-5.948-5.852-.906-.9 3.387 3.252a3.905 3.905 0 00.853.625l9.656 5.287a1.6 1.6 0 01.228.162l-.376.024a.531.531 0 00-.417.81 39.547 39.547 0 001.706 2.6l.359 2.909a2.262 2.262 0 00.576 1.249l-.994 3.355a2.2 2.2 0 01-1.114 1.333 9.789 9.789 0 00-19.456.9c0 .232-.007.636-.017 1.034H54.537c0-.382-.006-.75-.006-1.036 0-.05-.007-.1-.008-.148h48.65v-.948H54.459a9.79 9.79 0 00-19.426 1.1v.521l-12.271-3.124v-.4zm20.2 0h49.162v-.948H54.012zm41.8-31.9c.616 0 1.111-.25 1.111-.557s-.5-.555-1.111-.555H25.473c-.615 0-1.112.25-1.112.555s.5.557 1.112.557z"/><path class="a" d="M22.764 752.361v-.482h1.383l.1-.1v.686l-.1-.1zm72.811-9.605a2.082 2.082 0 01-1.645-1.847l-.935-9.779a.308.308 0 01.275-.34h3.139a7.731 7.731 0 015.505 2.279l.633.633.461 10.638zm-72.811 10.396h1.383l.1-.1v1.1h-1.483zm1.379-2.062h-1.379v-2.213h1.485v2.316zm-1.383-7.488h1.485v2.579H22.76z"/><path class="b" d="M23.672 721.614a2.638 2.638 0 012.382-1.5h58.992a19.548 19.548 0 0113.6 5.471l17.4 16.7a1.606 1.606 0 00.338.25l9.663 5.289a4.054 4.054 0 012.077 3.053l.609 5.176a2.006 2.006 0 01.6 2.076l-1.062 3.582a4.61 4.61 0 01-2.925 3.045l-.515.177a1.756 1.756 0 01-2.321-1.666 7.374 7.374 0 00-14.71 0c0 .417-.02 1.35-.033 1.874a1.6 1.6 0 01-1.594 1.559H53.738a1.6 1.6 0 01-1.591-1.577c-.007-.641-.015-1.362-.015-1.862a7.373 7.373 0 00-14.709 0v1.583a1.568 1.568 0 01-1.954 1.529l-13.508-3.439a2.115 2.115 0 01-1.6-2.054v-18.758c-.015-.511-.402-12.606 3.311-20.508zm78.242 11.452a7.731 7.731 0 00-5.5-2.279h-3.139a.309.309 0 00-.275.34l.936 9.779a2.082 2.082 0 001.645 1.847l7.433 1.583-.461-10.638zm10.462 10.656l.115 2.437 2.978.623zm-1.336-1.584l-6.757-6.715.4 9.275 6.522 1.381zm-76.009 21.654v-.526a9.79 9.79 0 0119.427-1.1h48.715v.948H54.525c0 .05.008.1.008.148 0 .287.006.655.006 1.036h50.854c.009-.4.016-.8.017-1.034a9.789 9.789 0 0119.456-.9 2.2 2.2 0 001.114-1.333l.994-3.356a2.256 2.256 0 01-.576-1.249l-.359-2.909a39.146 39.146 0 01-1.706-2.6.531.531 0 01.417-.81l.376-.024a1.655 1.655 0 00-.228-.162l-9.656-5.287a3.937 3.937 0 01-.853-.625l-3.382-3.243.906.9 5.947 5.852-.465.849-6.008-1.26v-.027l-7.607-1.61-8.4-1.783a3.027 3.027 0 01-2.391-2.685l-.936-9.777c0-.042-.006-.085-.006-.127a1.255 1.255 0 011.256-1.253h3.108a8.663 8.663 0 014.566 1.3l-3.979-3.821a17.159 17.159 0 00-11.946-4.8H26.057a.236.236 0 00-.214.124c-3.466 7.374-3.087 19.285-3.082 19.447v.569h1.58a.86.86 0 01.853.865v10.713a.86.86 0 01-.853.864h-1.58v4.218h11.046v.948H22.756v.4zm-10.786-12.015l-.1.1h-1.383v.482h1.383l.1.1zm-1.485-5.6h1.485v-2.579H22.76zm0 2.7v2.213h1.383l.1.1v-2.316zm1.485 4.172l-.1.1h-1.383v1h1.485z"/><path class="b" d="M24.359 727.808c0-.3.5-.555 1.112-.555h70.335c.615 0 1.111.247 1.111.555s-.5.557-1.111.557H25.471c-.612 0-1.112-.252-1.112-.557zm20.292 28.712a7.181 7.181 0 11-7.181 7.18 7.181 7.181 0 017.182-7.18zm0 11.259a4.076 4.076 0 10-4.077-4.074 4.076 4.076 0 004.078 4.074z"/><path class="b" d="M44.652 761.594a2.106 2.106 0 11-2.106 2.106 2.106 2.106 0 012.106-2.106zm70.576-5.074a7.181 7.181 0 11-7.182 7.18 7.181 7.181 0 017.184-7.18zm0 11.26a4.077 4.077 0 10-4.078-4.076 4.077 4.077 0 004.081 4.077z"/><path class="b" d="M115.229 761.594a2.105 2.105 0 11-2.106 2.106 2.105 2.105 0 012.106-2.106zm-61.218-2.279h49.161v.948H54.011z"/><path class="a" d="M0 638.527h149.762v149.762H0z"/><path class="b" d="M64.049 695.962a8.919 8.919 0 01-2.609-.394l-1.5-.462 5.6-5.6-.814-3.037-3.041-.815-5.6 5.6-.461-1.494a8.774 8.774 0 012.187-8.818 8.9 8.9 0 017.121-2.531l.2.025.112.014.158.021a3.756 3.756 0 003.184-1.068l8.252-8.242a3.752 3.752 0 001.069-3.18l-.063-.462.006-.006a8.8 8.8 0 0111.363-9.3l1.493.461-5.6 5.6.813 3.04 3.043.812 5.6-5.594.462 1.491a8.769 8.769 0 01-2.187 8.818 8.892 8.892 0 01-6.914 2.551l-.008.013-.667-.091a3.741 3.741 0 00-3.139 1.025l-8.341 8.33a3.735 3.735 0 00-1.023 3.13 8.807 8.807 0 01-7.345 10.058 8.928 8.928 0 01-1.349.1zm-.4-1.9a6.831 6.831 0 005.282-2.015 6.927 6.927 0 001.943-5.976 5.635 5.635 0 011.541-4.721l8.369-8.358a5.51 5.51 0 014.029-1.6l.027-.052.681.106a6.922 6.922 0 008-7.217l-4 4-5.146-1.375-1.377-5.141 4-4a6.922 6.922 0 00-7.225 7.988l.075.473-.029.028a5.606 5.606 0 01-1.648 4.285l-8.253 8.247a5.56 5.56 0 01-4.291 1.647l-.027.027-.477-.072a6.916 6.916 0 00-8 7.217l4-3.993 5.144 1.378 1.377 5.138zm24.906 1.034a3.06 3.06 0 01-2.173-.895l-7.783-7.773.526-.526a4.686 4.686 0 00-1.285-1.9 5.94 5.94 0 00-1.558-1.158l-1.216-.57 6.652-6.642.569 1.216a6.031 6.031 0 001.159 1.557 4.725 4.725 0 001.9 1.281l.527-.528 7.783 7.776a3.07 3.07 0 010 4.339l-2.928 2.924a3.046 3.046 0 01-2.17.904zm-.841-2.228a1.222 1.222 0 001.678 0l2.929-2.925a1.186 1.186 0 000-1.678l-6.7-6.691c-.057.006-.143 0-.179.009a5.436 5.436 0 01-3.332-1.848 9.4 9.4 0 01-.853-.982l-3.07 3.063a9.241 9.241 0 01.983.855c1.1 1.093 1.936 2.457 1.844 3.506zm-16.886-18.631l-6.937-6.93-3.6-1.6-3.211-5.3 2.737-2.738 5.305 3.209 1.6 3.593 6.937 6.928zM61.6 664.225l3.378 1.505 5.85 5.843.173-.173-5.852-5.843-1.507-3.373-3.536-2.138-.648.647z"/><path class="b" d="M89.564 691.228a.724.724 0 01-.52-.217l-6.571-6.569a.73.73 0 01-.007-1.032l.007-.007.377-.381a.742.742 0 011.041 0l6.581 6.57a.734.734 0 010 1.038l-.382.381a.725.725 0 01-.526.217zm-6.175-7.705l-.416.382 6.575 6.61a.039.039 0 00.019.008l.4-.389z"/><path class="a" d="M99.227 941.387a.537.537 0 01-.042-1.073h5.813v-2.681H44.962v2.681h49.622a.537.537 0 11.042 1.073H44.961v2.41h60.036v-2.41z"/><path class="a" d="M108.442 910.625H41.318a5.006 5.006 0 00-5.022 4.979v23.221a5.007 5.007 0 005.022 4.979h.791v-9.019h65.75v9.016h.587a5.006 5.006 0 005.022-4.979v-23.219a5.005 5.005 0 00-5.026-4.978zm-11.349 7.442H73.364a.537.537 0 01-.042-1.072h23.729a.537.537 0 11.043 1.072zm9.453 0H101.7a.537.537 0 01-.042-1.072h4.847a.537.537 0 01.042 1.072z"/><path class="c" d="M108.442 907.77H41.318a7.865 7.865 0 00-7.884 7.831v23.216a7.866 7.866 0 007.88 7.833h67.124a7.864 7.864 0 007.879-7.829v-23.22a7.864 7.864 0 00-7.875-7.831zm-63.48 36.028v-2.41h49.665a.537.537 0 00-.043-1.073H44.962v-2.682h60.035v2.682h-5.813a.537.537 0 00.043 1.073h5.771v2.41zm68.5-4.979a5.007 5.007 0 01-5.022 4.979h-.588v-9.016h-65.75v9.019h-.792a5.006 5.006 0 01-5.022-4.979v-23.221a5 5 0 015.022-4.979h67.124a5.005 5.005 0 015.03 4.979zm-28.583 10.327a.538.538 0 00-.538.538v8.418a.539.539 0 00.538.537.537.537 0 00.533-.536v-8.419a.537.537 0 00-.533-.538zm-27.718-.083a.538.538 0 00-.677.345 19.723 19.723 0 01-1.854 4.024 26.4 26.4 0 01-3.284 4.311.536.536 0 00.394.9.539.539 0 00.391-.171 27.532 27.532 0 003.416-4.488 20.821 20.821 0 001.957-4.243.536.536 0 00-.343-.678zm17.794.067a.536.536 0 00-.515.557v8.418a.537.537 0 00.536.537.537.537 0 00.533-.536v-8.419a.277.277 0 000-.043.536.536 0 00-.554-.514zm-9.877.016a.538.538 0 00-.538.538v8.418a.539.539 0 00.538.537.537.537 0 00.535-.536v-8.419a.537.537 0 00-.535-.538z"/><path class="c" d="M106.505 916.994h-4.8a.277.277 0 00-.043 0 .537.537 0 10.043 1.072h4.846a.537.537 0 10-.042-1.072zm-9.455 0H73.364a.274.274 0 00-.042 0 .537.537 0 10.042 1.072h23.729a.537.537 0 10-.043-1.072zm-1.628 36.435a19.708 19.708 0 01-1.856-4.024l-.008-.025a.537.537 0 00-1.013.358 20.847 20.847 0 001.958 4.243 27.43 27.43 0 003.416 4.488.541.541 0 00.393.172.542.542 0 00.363-.142.536.536 0 00.03-.758 26.391 26.391 0 01-3.283-4.312z"/><path class="a" d="M0 829.329h149.762v149.584H0z"/><path class="a" d="M70.025 863.394h-4.892a.332.332 0 00-.323.323v9.319a.325.325 0 00.323.323h4.892a.324.324 0 00.324-.323v-9.319a.332.332 0 00-.324-.323zm15.251 2.312l-.13-.463.037-.126a1.812 1.812 0 00-.021-1.176 1.4 1.4 0 00-1.187-1.009 5.327 5.327 0 00-.791-.022l-1.227.016-1.275-.008a.956.956 0 01-.749-.312c-.291-.358-.193-.857-.046-1.611a14.061 14.061 0 00.3-3.8c-.06-1.005-.59-1.615-1.082-1.7a.594.594 0 00-.119-.011.781.781 0 00-.7.583 10.016 10.016 0 00-.4 1.31c-.37 1.45-1.305 4.091-3.4 5.5a4.892 4.892 0 01-2.46.832l-.071 9.36a7.937 7.937 0 012.866.709 6.861 6.861 0 003.113.646c.978.006 1.954.009 2.935 0h1.66a1.443 1.443 0 001.289-.636 1.735 1.735 0 00.231-1.517l-.04-.144.2-.507.161-.076a1.484 1.484 0 00.824-1 1.81 1.81 0 00-.024-1.093l-.1-.3.254-.195a1.745 1.745 0 00.67-1.477 2.735 2.735 0 00-.563-1.691z"/><path class="a" d="M91.114 852.525H57.973a2.631 2.631 0 00-2.627 2.627v33.304a.135.135 0 10.158.218.131.131 0 00.056-.11l11.075-7.846h24.479a2.629 2.629 0 002.625-2.627v-22.935a2.628 2.628 0 00-2.625-2.631zm-5.055 18.273a2.39 2.39 0 01-1.091 1.445 2.6 2.6 0 01-.406 2.05 2.309 2.309 0 01-2.041 1.028 44.12 44.12 0 00-1.409 0h-.237c-.37.009-.737.01-1.1.01q-.915 0-1.842-.007a7.781 7.781 0 01-3.454-.716 7.623 7.623 0 00-2.522-.677.859.859 0 01-.786-.472 1.221 1.221 0 01-1.141.794h-4.892a1.223 1.223 0 01-1.222-1.22v-9.319a1.223 1.223 0 011.222-1.22h4.892a1.218 1.218 0 011.139.791.855.855 0 01.759-.474 4.02 4.02 0 002.067-.679c1.85-1.248 2.694-3.656 3.032-4.981a10.987 10.987 0 01.445-1.428 1.625 1.625 0 011.79-1.117 2.512 2.512 0 011.83 2.53 14.831 14.831 0 01-.32 4.026 5.421 5.421 0 00-.128.851h.059l.891.007.37-.01h1.208a6.414 6.414 0 01.929.031 2.269 2.269 0 011.909 1.581 2.661 2.661 0 01.088 1.56 3.646 3.646 0 01.792 2.1 5.971 5.971 0 00-.831 3.516z"/><path class="d" d="M91.113 850.13H57.972a5.028 5.028 0 00-5.022 5.022v33.309a2.6 2.6 0 001.265 2.445 2.118 2.118 0 00.984.237 3.062 3.062 0 001.748-.62l10.453-7.4h23.712a5.026 5.026 0 005.021-5.022v-22.949a5.027 5.027 0 00-5.02-5.022zm2.626 27.966a2.629 2.629 0 01-2.625 2.627H66.635l-11.075 7.846a.131.131 0 01-.055.11.135.135 0 01-.159-.218v-33.309a2.631 2.631 0 012.627-2.627h33.141a2.629 2.629 0 012.625 2.627z"/><path class="d" d="M86.094 865.177a2.66 2.66 0 00-.088-1.56 2.268 2.268 0 00-1.909-1.581 6.376 6.376 0 00-.929-.031H81.96l-.37.01-.891-.007h-.059a5.414 5.414 0 01.127-.851 14.823 14.823 0 00.32-4.026 2.511 2.511 0 00-1.83-2.53 1.625 1.625 0 00-1.79 1.117 10.952 10.952 0 00-.444 1.429c-.338 1.325-1.182 3.733-3.032 4.981a4.025 4.025 0 01-2.067.679.855.855 0 00-.759.474 1.219 1.219 0 00-1.14-.791h-4.891a1.223 1.223 0 00-1.223 1.221v9.319a1.224 1.224 0 001.223 1.221h4.891a1.222 1.222 0 001.141-.794.86.86 0 00.786.472 7.615 7.615 0 012.522.677 7.775 7.775 0 003.454.715q.927.007 1.842.008c.368 0 .735 0 1.105-.01h.237c.47-.007.941-.008 1.409 0a2.309 2.309 0 002.041-1.028 2.6 2.6 0 00.406-2.05 2.389 2.389 0 001.091-1.445 5.978 5.978 0 01.826-3.524 3.644 3.644 0 00-.791-2.095zm-15.744 7.859a.324.324 0 01-.325.323h-4.891a.325.325 0 01-.324-.323v-9.319a.333.333 0 01.324-.323h4.891a.332.332 0 01.325.323zm14.974-4.071l-.254.195.1.3a1.811 1.811 0 01.024 1.093 1.483 1.483 0 01-.824 1l-.161.076-.2.507.039.144a1.733 1.733 0 01-.231 1.517 1.442 1.442 0 01-1.289.637h-4.595a6.854 6.854 0 01-3.113-.646 7.934 7.934 0 00-2.866-.709l.071-9.36a4.9 4.9 0 002.46-.832c2.1-1.413 3.033-4.055 3.4-5.5a10.168 10.168 0 01.4-1.31.782.782 0 01.7-.582.586.586 0 01.119.011c.492.081 1.022.691 1.082 1.7a14.061 14.061 0 01-.3 3.8c-.147.754-.245 1.253.046 1.611a.956.956 0 00.749.312l1.276.008 1.227-.016a5.343 5.343 0 01.791.022 1.4 1.4 0 011.187 1.009 1.813 1.813 0 01.021 1.176l-.038.126.131.463.153.089a2.732 2.732 0 01.563 1.692 1.744 1.744 0 01-.668 1.466zM75.26 156.944v32.401h-1.277v-32.401z"/><path class="d" d="M74.622 197.281l3.752-10.31a7.379 7.379 0 01-7.5 0l3.748 10.31m0-48.276l-3.748 10.309a7.379 7.379 0 017.5 0l-3.752-10.309m.638 207.173v32.401h-1.277v-32.401z"/><path class="d" d="M74.622 396.515l3.752-10.31a7.379 7.379 0 01-7.5 0l3.748 10.31m0-48.276l-3.748 10.309a7.379 7.379 0 017.5 0l-3.752-10.309m.638 250.262v32.401h-1.277v-32.401z"/><path class="d" d="M74.622 638.838l3.752-10.31a7.379 7.379 0 01-7.5 0l3.748 10.31m.638 149.538v32.401h-1.277v-32.401z"/><path class="d" d="M74.622 828.713l3.752-10.31a7.379 7.379 0 01-7.5 0l3.748 10.31"/><path class="a" d="M108.443 81.296H41.319a5.005 5.005 0 00-5.022 4.979v23.221a5.007 5.007 0 005.022 4.979h.791v-9.019h65.748v9.016h.587a5.007 5.007 0 005.022-4.979V86.274a5.006 5.006 0 00-5.024-4.978zm-11.349 7.443H73.365a.537.537 0 11-.042-1.072h23.728a.537.537 0 11.042 1.072zm9.455 0h-4.846a.537.537 0 11-.042-1.072h4.846a.537.537 0 01.042 1.072z"/><path class="a" d="M99.227 112.059a.537.537 0 11-.042-1.073h5.812v-2.682H44.963v2.682h49.622a.537.537 0 11.042 1.073H44.963v2.409h60.035v-2.409z"/><path class="c" d="M108.443 78.441H41.319a7.865 7.865 0 00-7.884 7.831v23.216a7.866 7.866 0 007.88 7.833h67.124a7.864 7.864 0 007.879-7.829v-23.22a7.863 7.863 0 00-7.875-7.831zm-63.48 36.031v-2.409h49.664a.537.537 0 10-.042-1.072H44.963v-2.682h60.035v2.682h-5.771a.263.263 0 00-.042 0 .537.537 0 10.042 1.072h5.771v2.409zm68.5-4.979a5.006 5.006 0 01-5.022 4.979h-.588v-9.016H42.11v9.016h-.791a5.007 5.007 0 01-5.022-4.979V86.272a5.005 5.005 0 015.022-4.979h67.124a5.005 5.005 0 015.021 4.979z"/><path class="c" d="M97.052 87.666H73.324a.537.537 0 10.042 1.073h23.729a.537.537 0 00-.043-1.073zm9.454 0h-4.842a.537.537 0 10.042 1.073h4.846a.537.537 0 10-.042-1.073z"/><path class="a" d="M.001 0h149.761v149.583H.001z"/><path class="a" d="M.001 0h149.761v149.583H.001z"/><path class="a" d="M74.588 23.13a18.177 18.177 0 1018.177 18.177A18.176 18.176 0 0074.588 23.13zm8.507 26.037l-.647.646-7.86-7.86-7.861 7.86-.647-.646 7.861-7.861-7.861-7.86.647-.648 7.861 7.861 7.86-7.861.647.648-7.861 7.86z"/><path class="e" d="M74.588 20.8a20.506 20.506 0 1020.506 20.51A20.507 20.507 0 0074.588 20.8zm0 38.683A18.177 18.177 0 1192.767 41.31a18.177 18.177 0 01-18.179 18.173z"/><path class="e" d="M82.445 32.798l-7.861 7.861-7.861-7.861-.646.646 7.861 7.861-7.861 7.861.646.646 7.861-7.861 7.861 7.861.646-.646-7.861-7.861 7.861-7.861z"/><path d="M17.326 422.264h.9l4.887-6.809v6.809h.914v-8.2h-.878l-4.9 6.806v-6.809h-.926zm8.871 0h.9v-2.648h3.492v2.648h.9v-6.058h-.9v2.613H27.1v-2.613h-.9zm6.539 0h1.055l2.016-2.824 1.23 1.348v1.477h.9v-1.477l1.233-1.348 2.016 2.824h1.055l-2.485-3.468 2.355-2.59h-1.09l-3.081 3.515v-3.515h-.9v3.515l-3.085-3.515h-1.09l2.355 2.59zm13.394.141a3.127 3.127 0 002.5-1.137l-.562-.5a2.507 2.507 0 01-1.91.855 2.117 2.117 0 01-2.133-2.016h4.8c.012-.141.012-.234.012-.316 0-1.781-1.031-3.211-2.824-3.211a2.992 2.992 0 00-2.905 3.16 3.015 3.015 0 003.023 3.165zm-2.108-3.527a2.092 2.092 0 011.968-2.038 1.99 1.99 0 011.934 2.039zm6.4 3.387h.9v-2.649h3.492v2.648h.9v-6.058h-.9v2.613h-3.492v-2.613h-.9zm9.961.141a3.127 3.127 0 002.5-1.137l-.562-.5a2.507 2.507 0 01-1.91.855 2.117 2.117 0 01-2.133-2.016h4.8c.012-.141.012-.234.012-.316 0-1.781-1.031-3.211-2.824-3.211a2.992 2.992 0 00-2.909 3.159 3.015 3.015 0 003.024 3.165zm-2.112-3.528a2.092 2.092 0 011.969-2.038 1.99 1.99 0 011.934 2.039zm6.4 5.262h.9v-3.036a2.733 2.733 0 002.32 1.289 2.966 2.966 0 002.896-3.153 2.962 2.962 0 00-2.895-3.164 2.724 2.724 0 00-2.32 1.348v-1.218h-.9zm3.059-2.555a2.255 2.255 0 01-2.193-2.345 2.266 2.266 0 012.191-2.355 2.182 2.182 0 012.133 2.344 2.146 2.146 0 01-2.133 2.356zm4.723.68h.9v-2.649h3.496v2.648h.9v-6.058h-.9v2.613h-3.5v-2.613h-.9zm7.312 0h2.624c1.383 0 2.285-.762 2.285-1.969 0-1.277-1.078-1.816-2.391-1.816h-1.617v-2.274h-.9zm.9-.8v-2.212h1.605c.926 0 1.488.363 1.488 1.066 0 .762-.551 1.148-1.453 1.148zm5.1.8h.9v-6.059h-.9zm2.918 0h.866l3.609-4.793v4.793h.9v-6.059h-.879l-3.6 4.793v-4.793h-.9zm2.659-6.925a1.639 1.639 0 001.652-1.43l-.621-.129a1.058 1.058 0 01-2.062 0l-.621.129a1.639 1.639 0 001.652 1.43zm13.476 8.437h.75l.141-2.309h-.914v-5.262h-.9v5.262h-3.4v-5.262h-.9v6.059h5.227zm4.781-1.371a3.127 3.127 0 002.5-1.137l-.562-.5a2.507 2.507 0 01-1.91.855 2.117 2.117 0 01-2.133-2.016h4.8c.012-.141.012-.234.012-.316 0-1.781-1.031-3.211-2.824-3.211a2.992 2.992 0 00-2.906 3.159 3.015 3.015 0 003.023 3.165zm-2.109-3.527a2.092 2.092 0 011.969-2.039 1.99 1.99 0 011.934 2.039zm6.4 3.387h.9v-2.65h3.492v2.648h.9v-6.058h-.9v2.613h-3.492v-2.613h-.9zm8.777 0h.914v-5.263h2.168v-.8h-5.25v.8h2.168zm4.394 1.875h.9v-3.037a2.733 2.733 0 002.32 1.289 2.966 2.966 0 002.896-3.153 2.962 2.962 0 00-2.895-3.164 2.724 2.724 0 00-2.32 1.348v-1.218h-.9zm3.059-2.555a2.255 2.255 0 01-2.193-2.346 2.266 2.266 0 012.191-2.355 2.182 2.182 0 012.131 2.344 2.146 2.146 0 01-2.13 2.356zm-77.69 18.166l.691-.4-1.582-2.166 1.582-2.146-.691-.387-1.9 2.5v.087zm2.613 0l.68-.4-1.582-2.168 1.582-2.144-.68-.387-1.9 2.5v.087zm1.488 2.309h.785l.164-1.828h6.656v1.828h.773l.141-2.672h-1.066v-7.359h-5.367v1.43a11.522 11.522 0 01-1.242 5.93h-.844zm1.887-2.672a11.955 11.955 0 001.09-5.449v-1.066h3.551v6.516zm9.644.973a2.656 2.656 0 002.18-1.031v.9h.891v-3.7a2.4 2.4 0 00-.633-1.781 2.689 2.689 0 00-1.957-.668 4.966 4.966 0 00-2.2.516l.27.738a4.215 4.215 0 011.84-.434c1.137 0 1.793.562 1.793 1.641v.187a6.348 6.348 0 00-1.852-.258c-1.535 0-2.59.68-2.59 1.98a2.037 2.037 0 002.258 1.91zm.176-.722c-.82 0-1.523-.445-1.523-1.207s.645-1.242 1.77-1.242a6.229 6.229 0 011.77.258v.562a1.812 1.812 0 01-2.017 1.629zm4.8.6h.867l3.614-4.8v4.793h.9v-6.059h-.879l-3.6 4.793v-4.793h-.9zm11.238 0h.9v-6.066h-.9v2.754a3.659 3.659 0 01-1.91.574 1.094 1.094 0 01-1.217-1.162v-2.166h-.9v2.3a1.76 1.76 0 002 1.816 4.76 4.76 0 002.027-.551zm2.918 0h.867l3.615-4.8v4.793h.9v-6.059h-.877l-3.6 4.793v-4.793h-.9zm7.758-.48l1.9-2.508v-.094l-1.9-2.5-.68.4 1.582 2.156-1.582 2.156zm2.613 0l1.9-2.508v-.094l-1.9-2.5-.691.4 1.582 2.156-1.582 2.156z"/></svg>