<svg xmlns="http://www.w3.org/2000/svg" width="120" height="120" viewBox="0 0 120 120"><defs><style>.a{fill:#00adef}</style></defs><path class="a" d="M60.486 28a32.458 32.458 0 00-27.183 14.706v-10.39a1 1 0 00-2 0v13.263a1 1 0 001 1h.126a.977.977 0 00.6 0h12.539a1 1 0 000-2h-11.09a30.494 30.494 0 111.842 34.53 30.84 30.84 0 01-5.243-26.89 1 1 0 10-1.933-.508 32.824 32.824 0 005.592 28.619A32.5 32.5 0 1060.488 28z"/><path d="M37.276 59.5H33.96a1 1 0 000 2h3.316a1 1 0 000-2zm50.737 1a1 1 0 00-1-1h-3.316a1 1 0 000 2h3.316a1 1 0 001-1zM60.486 32.974a1 1 0 00-1 1v3.316a1 1 0 002 0v-3.316a1 1 0 00-1-1zm-1 54.053a1 1 0 002 0v-3.316a1 1 0 00-2 0zm21.603-15.788a1 1 0 10-1 1.732l2.87 1.658a1 1 0 101-1.732zM74.25 36.661a1 1 0 00-1.366.367L71.226 39.9a1 1 0 101.732 1l1.658-2.872a1 1 0 00-.366-1.367zm-26.235 43.44l-1.658 2.872a1 1 0 001.733 1l1.657-2.872a1 1 0 00-1.732-1zm1.366-38.835a1 1 0 00.366-1.366l-1.657-2.872a1 1 0 10-1.733 1l1.658 2.872a1 1 0 001.366.366zm23.577 38.835a1 1 0 10-1.732 1l1.658 2.872a1 1 0 001.732-1zm10.001-33.73l-2.872 1.658a1 1 0 101 1.732l2.872-1.657a1 1 0 00-1-1.733zM36.645 74.264a1 1 0 001.366.366l2.872-1.658a1 1 0 00-1-1.732l-2.872 1.658a1 1 0 00-.366 1.366z"/><path d="M56.796 64.474l-.283-.755v.755z" fill="#fff"/><path class="a" d="M45.678 66.025a1 1 0 00.835.449h8v2.315a1 1 0 002 0v-2.315h.658a1 1 0 000-2h-.658v-5.635a1 1 0 00-1-1 .987.987 0 00-.94.7.973.973 0 00-.06.3v5.632h-6.484l4.676-10.909.411-.96a1 1 0 10-1.838-.787l-5.684 13.262a1 1 0 00.084.948zm15.467-1.406c0 3.044 2.456 5.17 5.973 5.17s5.974-2.126 5.974-5.17a4.738 4.738 0 00-2.432-4.25 4.935 4.935 0 001.94-4.04c0-3.013-2.254-5.118-5.482-5.118s-5.481 2.105-5.481 5.118a4.94 4.94 0 001.919 4.025 4.7 4.7 0 00-2.411 4.265zm2.492-8.29c0-1.894 1.366-3.118 3.481-3.118 2.148 0 3.482 1.2 3.482 3.118 0 1.534-.915 3.171-3.482 3.171s-3.481-1.637-3.481-3.171zm3.481 11.46c-2.414 0-3.973-1.244-3.973-3.17 0-1.953 1.485-3.119 3.973-3.119 2.451 0 3.974 1.2 3.974 3.119s-1.56 3.17-3.974 3.17z"/><path fill="none" d="M0 0h120v120H0z"/></svg>