<svg xmlns="http://www.w3.org/2000/svg" width="61" height="61" viewBox="0 0 61 61"><defs><style>.b{fill:#00adef}</style></defs><g transform="translate(-274.949 -104.829)"><circle cx="30" cy="30" r="30" transform="translate(275.449 105.329)" fill="none" stroke="#f5f5f5"/><path d="M305.45 146.731a11.4 11.4 0 1111.248-11.4 11.339 11.339 0 01-11.248 11.4zm0-21.44a10.04 10.04 0 109.884 10.038 9.974 9.974 0 00-9.884-10.038z"/><path class="b" d="M303.961 142.518a1.239 1.239 0 01-1.227-1.414l.542-3.792h-2.29a1.239 1.239 0 01-.927-2.062l5.95-6.693a1.239 1.239 0 012.149 1.028l-.5 3.017h2.255a1.24 1.24 0 01.967 2.015l-5.948 7.436a1.235 1.235 0 01-.971.465zm-2.7-6.569h3.585l-.7 4.9 5.5-6.881h-3.607l.7-4.181zm4.188 14.608a.682.682 0 010-1.364 13.777 13.777 0 0013.66-13.864.682.682 0 111.364 0 15.142 15.142 0 01-15.024 15.228zm-14.34-14.55a.682.682 0 01-.682-.682 15.142 15.142 0 0115.019-15.228.682.682 0 110 1.364 13.777 13.777 0 00-13.655 13.865.682.682 0 01-.682.681z"/><path d="M305.449 117.741a.682.682 0 01-.682-.682v-2.184a.682.682 0 111.364 0v2.184a.681.681 0 01-.682.682z"/><path class="b" d="M296.315 120.185a.681.681 0 01-.591-.341l-1.093-1.891a.682.682 0 111.181-.682l1.093 1.891a.682.682 0 01-.59 1.023z"/><path d="M289.626 126.876a.676.676 0 01-.34-.091l-1.891-1.092a.682.682 0 01.682-1.182l1.891 1.092a.682.682 0 01-.342 1.272z"/><path class="b" d="M287.179 136.012h-2.184a.682.682 0 010-1.364h2.184a.682.682 0 010 1.364z"/><path d="M287.736 146.239a.682.682 0 01-.342-1.273l1.891-1.092a.682.682 0 01.682 1.181l-1.891 1.092a.676.676 0 01-.34.092z"/><path class="b" d="M295.221 153.726a.682.682 0 01-.59-1.023l1.092-1.892a.682.682 0 011.181.682l-1.092 1.892a.682.682 0 01-.591.341z"/><path d="M305.45 156.466a.682.682 0 01-.682-.682v-2.185a.682.682 0 111.364 0v2.185a.682.682 0 01-.682.682z"/><path class="b" d="M315.677 153.725a.682.682 0 01-.591-.341l-1.093-1.891a.682.682 0 011.182-.682l1.092 1.891a.682.682 0 01-.59 1.023z"/><path d="M323.163 146.239a.676.676 0 01-.34-.091l-1.888-1.092a.682.682 0 01.682-1.182l1.892 1.092a.682.682 0 01-.342 1.273z"/><path class="b" d="M325.904 136.012h-2.185a.682.682 0 110-1.364h2.185a.682.682 0 110 1.364z"/><path d="M321.272 126.876a.682.682 0 01-.342-1.272l1.892-1.092a.682.682 0 01.682 1.182l-1.892 1.092a.676.676 0 01-.34.09z"/><path class="b" d="M314.584 120.186a.682.682 0 01-.59-1.023l1.092-1.891a.682.682 0 111.181.682l-1.092 1.891a.682.682 0 01-.591.341z"/></g></svg>