<svg xmlns="http://www.w3.org/2000/svg" width="91" height="91" viewBox="0 0 91 91"><defs><style>.a{fill:none;stroke:#f5f5f5;}.b{fill:#221f20;}.c{fill:#00adef;}</style></defs><g transform="translate(-141.295 -323.118)"><circle class="a" cx="45" cy="45" r="45" transform="translate(141.795 323.618)"/><g transform="translate(162.663 339.763)"><path class="b" d="M200.269,378.933a14.171,14.171,0,0,1-7.927,10.268,3.757,3.757,0,0,1,.336,1.545v.542a16.2,16.2,0,0,0,9.682-12.527,9.28,9.28,0,0,1-1.866.188C200.418,378.949,200.345,378.935,200.269,378.933Z" transform="translate(-161.514 -338.509)"/><path class="b" d="M203.059,355.7a16.3,16.3,0,1,0-32.594,0v5.553c0,.021.01.039.011.059.27-.025.542-.042.818-.042a9.3,9.3,0,0,1,1.195.09.951.951,0,0,0,.021-.107V355.7a14.252,14.252,0,1,1,28.5,0v5.573a9.3,9.3,0,0,1,2.045.239Z" transform="translate(-162.011 -339.404)"/><path class="c" d="M170.664,360.83a9.282,9.282,0,1,0,3.572,18.111,1.023,1.023,0,0,0,.718-.977V362.181a1.022,1.022,0,0,0-.72-.977,9.2,9.2,0,0,0-1.558-.326,9.3,9.3,0,0,0-1.195-.09C171.206,360.788,170.934,360.805,170.664,360.83Zm2.245,16.342a7.359,7.359,0,0,1-1.427.139,7.239,7.239,0,1,1,1.427-14.337Z" transform="translate(-162.199 -338.918)"/><path class="c" d="M192.6,389.019a3.8,3.8,0,0,0-3.468-2.257H184.82a3.808,3.808,0,0,0-3.8,3.8v1.67a3.809,3.809,0,0,0,3.8,3.8h4.312a3.809,3.809,0,0,0,3.8-3.8v-1.67A3.757,3.757,0,0,0,192.6,389.019Zm-3.468,4.975H184.82a1.76,1.76,0,0,1-1.758-1.759v-1.67a1.76,1.76,0,0,1,1.758-1.757h4.312a1.761,1.761,0,0,1,1.759,1.757v1.67A1.761,1.761,0,0,1,189.131,393.994Z" transform="translate(-161.771 -338.328)"/><path class="c" d="M209.674,370.072a9.315,9.315,0,0,0-9.262-9.282h-.023a9.227,9.227,0,0,0-2.753.417,1.023,1.023,0,0,0-.717.976v15.783a1.022,1.022,0,0,0,.717.976,9.208,9.208,0,0,0,2.528.4c.076,0,.149.016.225.016a9.277,9.277,0,0,0,9.284-9.285Zm-9.284,7.24a7.33,7.33,0,0,1-1.425-.139v-14.2a7.24,7.24,0,1,1,1.425,14.338Z" transform="translate(-161.41 -338.918)"/></g></g></svg>