<svg xmlns="http://www.w3.org/2000/svg" width="1410" height="330.004" viewBox="0 0 1410 330.004"><defs><style>.a{fill:none}.b{fill:#1a1818}.c{fill:#00adef}.d{fill:#fff}.e{fill:#191717}.f{fill:#131212}</style></defs><path class="a" d="M0 0h1410v330H0z"/><path class="b" d="M628.718 234.011h-.374a46.995 46.995 0 01-5.65-93.644 36.5 36.5 0 0144.582-29.1 53.352 53.352 0 0189.3 25.852 33.338 33.338 0 0141.25 29.836 33.352 33.352 0 01-1.582 66.592l-.89.022-.6-.012c-1.548.002-162.974.454-166.036.454zm29.912-118.508a31.2 31.2 0 00-31 27.6l-.252 2.166-2.176.162a41.712 41.712 0 003.14 83.3h.383c3.155.134 164.468-.448 166.094-.454l.536.012.812-.016a28.076 28.076 0 00-.886-56.138h-2.64v-2.64a28.049 28.049 0 00-37.208-26.538l-2.923 1.008-.54-3.038a48.072 48.072 0 00-81.994-24.89l-1.1 1.148-1.532-.442a31.344 31.344 0 00-8.713-1.24z"/><path class="b" d="M637.57 205.303a6.765 6.765 0 002.391-1.628 8.061 8.061 0 002.076-5.43 7.842 7.842 0 00-.556-3.014 7.56 7.56 0 00-1.52-2.426 7.389 7.389 0 00-2.391-1.662 8.2 8.2 0 00-3.114-.584h-4.4v15.37h4.4a7.575 7.575 0 003.114-.626m-3.114-19.353a13.182 13.182 0 014.95.934 12.866 12.866 0 014.017 2.634 12.352 12.352 0 012.7 3.91 12.422 12.422 0 010 9.626 12.372 12.372 0 01-2.7 3.91 12.175 12.175 0 01-4.017 2.6 12.536 12.536 0 01-4.95.966h-9.416v-24.58zm42.076.002h5.019v24.578h-5.019zm28.416 14.939a6.505 6.505 0 01-6.77 5.208c-5.238 0-6.91-4.056-6.91-7.858s1.672-7.86 6.91-7.86a6.5 6.5 0 016.77 5.21h5.14c-1-6.038-5.462-10.054-11.722-10.054-7.136 0-12.31 5.224-12.31 12.7s5.174 12.706 12.31 12.706c6.26 0 10.718-4.02 11.722-10.056zm36.046-14.939h5.019v24.578h-5.019zm-21.651-.001v9.986h11.042v-9.986h5.02v24.58h-5.02v-10.194h-11.042v10.194h-5.018v-24.58zm-106.545 10.182a3.086 3.086 0 113.084-3.09 3.088 3.088 0 01-3.084 3.09m0-10.6a7.51 7.51 0 107.51 7.508 7.509 7.509 0 00-7.51-7.508m41.736 15.635h11.979v4.33h-11.979z"/><path class="b" d="M656.564 185.951l-8.462 24.579h5.326l8.136-24.579z"/><path class="b" d="M659.279 185.951l8.059 24.579h5.33l-8.393-24.579z"/><path class="a" d="M540 .001h330v330H540z"/><path class="c" d="M439.441 165.45h67.118v2.646h-67.118z"/><path class="c" d="M523 166.772L501.643 159s4.915 7.772 0 15.545L523 166.772m-100 0l21.355 7.773s-4.915-7.773 0-15.545L423 166.772m480.441-1.322h67.118v2.646h-67.118z"/><path class="c" d="M987 166.772L965.643 159s4.915 7.772 0 15.545L987 166.772m-100 0l21.355 7.773s-4.915-7.773 0-15.545L887 166.772"/><path class="a" d="M1019 .001h330v330h-330z"/><path class="b" d="M1162.824 210.791h9.78a2.138 2.138 0 100-4.276h-9.78a2.138 2.138 0 100 4.276z"/><path class="a" d="M1137.105 202.858a9.012 9.012 0 01-1.682.448v8.678a6.42 6.42 0 006.379 6.449h51.828a6.42 6.42 0 006.378-6.449v-13.132h-58.284a8.785 8.785 0 01-4.619 4.006zm-.84-13.509l-5-2.3a4.365 4.365 0 00-1.841-.406 4.464 4.464 0 00-1.576.291 4.547 4.547 0 00-2.575 2.444l-.38.859a4.727 4.727 0 002.281 6.207l5 2.3a4.4 4.4 0 003.42.114 4.561 4.561 0 002.569-2.444l.383-.859a4.733 4.733 0 00-2.281-6.206zm5.233-4.4a4.953 4.953 0 002.795-2.663 5.166 5.166 0 00-2.475-6.769l-10.391-4.8a4.744 4.744 0 00-2-.441 4.82 4.82 0 00-1.71.315 4.956 4.956 0 00-2.795 2.664 5.164 5.164 0 002.475 6.767l10.4 4.8a4.748 4.748 0 003.701.127zm-5.427-40.3c.07-.083.147-.161.213-.249s.131-.186.194-.281a5.185 5.185 0 00.405-.72 5.255 5.255 0 00.3-.918c.026-.109.036-.219.055-.329a5.029 5.029 0 00.072-.594c.007-.138 0-.276 0-.414 0-.162-.014-.323-.032-.484a4.495 4.495 0 00-.177-.841 4.858 4.858 0 00-.174-.523c-.027-.069-.064-.133-.095-.2a5.107 5.107 0 00-1.41-1.836c-.113-.091-.234-.175-.353-.259a4.893 4.893 0 00-.681-.4l-7.38-3.4a4.79 4.79 0 00-2.007-.443 4.884 4.884 0 00-1.721.317 4.985 4.985 0 00-2.815 2.679 5.185 5.185 0 002.491 6.8l7.384 3.406a4.8 4.8 0 003.731.126 4.969 4.969 0 00.736-.366 5.67 5.67 0 00.615-.434 5.457 5.457 0 00.649-.637zm2.464 22.959a4.978 4.978 0 002.809-2.678 5.188 5.188 0 00-2.492-6.8l-7.38-3.4a4.793 4.793 0 00-2.007-.443 4.886 4.886 0 00-1.721.317 4.985 4.985 0 00-2.815 2.679 5.186 5.186 0 002.492 6.8l7.383 3.406a4.785 4.785 0 003.731.119z"/><path class="d" d="M1130.34 134.729l-3.33-1.537 7.38 3.406zm6.542 8.67a5.139 5.139 0 01-.405.72 4.691 4.691 0 00.405-.72zm-.599 1.001c-.065.088-.142.166-.213.249.072-.082.146-.162.213-.249zm-1.893-7.803a4.887 4.887 0 01.681.4 4.384 4.384 0 00-.681-.4zm2.713 3.222c.035.124.072.247.1.372a6 6 0 00-.1-.372zm.175.841zm.033.898a5.356 5.356 0 01-.072.594 5.356 5.356 0 00.072-.594zm-.127.923a5.275 5.275 0 01-.3.918 5.275 5.275 0 00.3-.918zm-.35-3.385c.031.067.068.131.095.2-.028-.069-.064-.133-.095-.2zm-1.41 6.181zm-.615.434a4.945 4.945 0 01-.736.366 4.44 4.44 0 00.736-.366zm-4.468.24l-7.382-3.406z"/><path d="M1137.311 141.144c0 .138.007.276 0 .414.013-.139.004-.275 0-.414zm-.387-1.848a4.908 4.908 0 01.174.523 5.025 5.025 0 00-.174-.523zm-.09-.2a5.058 5.058 0 00-1.41-1.836 5.113 5.113 0 011.41 1.836zm-.356 5.023zm.76-1.967c-.019.11-.029.22-.055.329.026-.11.04-.219.055-.329zm-1.814 3.125a4.907 4.907 0 00.646-.628 5.384 5.384 0 01-.646.628zm-2.159 5.566l2.159 1v-1.712a9.17 9.17 0 01-2.647.525c.162.063.328.113.488.187zm3.936-10.652z"/><path class="d" d="M1122.959 142.545a5.185 5.185 0 01-2.492-6.8 4.986 4.986 0 012.815-2.679 4.885 4.885 0 011.721-.317 4.791 4.791 0 012.007.443l3.331 1.537v-2.354l-2.434-1.124a7.063 7.063 0 00-9.4 3.631 7.346 7.346 0 003.552 9.6l7.382 3.406a6.931 6.931 0 00.9.333v-2.273zm13.875-3.449c.031.067.067.131.095.2a5.08 5.08 0 01.174.523 6 6 0 01.1.372 5.328 5.328 0 01.11.953c0 .139.008.275 0 .414a5.3 5.3 0 01-.072.594c-.019.11-.029.219-.055.329a5.275 5.275 0 01-.3.918 4.67 4.67 0 01-.405.72c-.062.1-.125.19-.194.281s-.141.167-.213.249a4.9 4.9 0 01-.646.628v2.542a7.136 7.136 0 003.413-3.551 7.348 7.348 0 00-3.413-9.533v2.53a5.059 5.059 0 011.406 1.831z"/><path d="M1135.424 137.26zm0 0zm-.139-2.603c.048.022.092.05.139.073v-2.362l-5.083-2.346v2.353z"/><path class="d" d="M1134.39 136.597a4.379 4.379 0 01.681.4c.123.082.24.167.353.259v-2.53c-.047-.023-.091-.051-.139-.073l-4.944-2.282v2.354z"/><path d="M1134.39 136.597a4.379 4.379 0 01.681.4c.123.082.24.167.353.259v-2.53c-.047-.023-.091-.051-.139-.073l-4.944-2.282v2.354zm1.034 13.53v-2.313a6.964 6.964 0 01-5.083.41v1.837a9.01 9.01 0 012.436.591 9.17 9.17 0 002.647-.525zm0-4.85a5.659 5.659 0 01-.615.434 4.89 4.89 0 00.615-.434z"/><path d="M1135.424 145.277a5.659 5.659 0 01-.615.434 4.89 4.89 0 00.615-.434z"/><path class="d" d="M1135.424 147.819v-2.537a4.911 4.911 0 01-.615.434 4.435 4.435 0 01-.736.366 4.8 4.8 0 01-3.731-.126v2.263a6.964 6.964 0 005.082-.4z"/><path d="M1135.424 147.819v-2.537a4.911 4.911 0 01-.615.434 4.435 4.435 0 01-.736.366 4.8 4.8 0 01-3.731-.126v2.263a6.964 6.964 0 005.082-.4zm0 6.373v-2.353l-2.159-1c-.16-.074-.326-.127-.488-.191-.144.008-.287.02-.431.02a8.926 8.926 0 01-2-.232v1.759a6.944 6.944 0 012.029.584zm-5.082-4.131a9.06 9.06 0 00-1.318-.041 9.235 9.235 0 001.318.42z"/><path d="M1132.777 150.652a9.01 9.01 0 00-2.436-.591v.379a8.925 8.925 0 002 .232c.149 0 .292-.012.436-.02z"/><path d="M1132.777 150.652a9.01 9.01 0 00-2.436-.591v.379a8.925 8.925 0 002 .232c.149 0 .292-.012.436-.02z"/><path class="d" d="M1133.224 166.837l6.023 2.783a7.134 7.134 0 004.057-3.826 7.349 7.349 0 00-3.552-9.606l-4.324-2-3.054-1.409a6.944 6.944 0 00-2.029-.584 7.106 7.106 0 00-7.367 4.214 7.347 7.347 0 003.552 9.6l.612.283a8.983 8.983 0 016.082.545zm-8.291-9.561a4.986 4.986 0 012.815-2.679 4.886 4.886 0 011.721-.317 4.793 4.793 0 012.007.443l7.38 3.4a5.188 5.188 0 012.492 6.8 4.979 4.979 0 01-2.809 2.678 4.785 4.785 0 01-3.731-.126l-7.383-3.406a5.186 5.186 0 01-2.501-6.793z"/><path d="M1126.993 168.585a6.945 6.945 0 013.348-.383v-.426l-3.2-1.477a9.062 9.062 0 00-2.54 1.09 9.4 9.4 0 001.03.567zm8.431 1.334v.294l3.668 1.694a9.185 9.185 0 00.953-.3 9.306 9.306 0 001.682-.839l-2.484-1.147a6.955 6.955 0 01-3.819.298zm0 .29v-.29a6.922 6.922 0 01-1.517-.493l-3.566-1.646v.426a6.91 6.91 0 011.982.575z"/><path d="M1135.424 170.209v-.29a6.922 6.922 0 01-1.517-.493l-3.566-1.646v.426a6.91 6.91 0 011.982.575z"/><path class="d" d="M1135.424 169.919a6.957 6.957 0 003.819-.295l-6.023-2.783a8.983 8.983 0 00-6.082-.538l3.2 1.477 3.566 1.646a6.916 6.916 0 001.52.493z"/><path d="M1135.424 169.919a6.957 6.957 0 003.819-.295l-6.023-2.783a8.983 8.983 0 00-6.082-.538l3.2 1.477 3.566 1.646a6.916 6.916 0 001.52.493z"/><path class="d" d="M1133.051 183.165l5 2.3a8.748 8.748 0 012.625 1.869 7.092 7.092 0 005.572-4.187 7.327 7.327 0 00-3.534-9.571l-3.624-1.674-3.668-1.694-3.1-1.432a6.91 6.91 0 00-5.33-.192 7.11 7.11 0 00-4.022 3.808 7.327 7.327 0 003.535 9.571l1.243.574a8.564 8.564 0 015.303.628zm-5.65-3.143a5.165 5.165 0 01-2.474-6.767 4.956 4.956 0 012.795-2.664 4.818 4.818 0 011.71-.315 4.745 4.745 0 012 .441l10.391 4.8a5.166 5.166 0 012.475 6.769 4.953 4.953 0 01-2.795 2.663 4.748 4.748 0 01-3.7-.125z"/><path d="M1134.011 203.429a8.622 8.622 0 001.413-.123v-2.179a6.511 6.511 0 01-4.143-.44l-.94-.433v2.353l.047.022a8.669 8.669 0 003.623.8zm5.133-4.577h2.577c.078-.141.148-.289.219-.436h-2.461a5.992 5.992 0 01-.335.436zm1.94-5.139h2.138c0-.147-.006-.293-.012-.439h-2.137c.009.145.013.292.011.439z"/><path d="M1140.5 196.419l-.381.86a6.726 6.726 0 01-.641 1.134h2.461c.043-.09.094-.176.135-.269l.38-.859a8.99 8.99 0 00.768-3.575h-2.137a6.883 6.883 0 01-.585 2.709z"/><path d="M1140.5 196.419l-.381.86a6.726 6.726 0 01-.641 1.134h2.461c.043-.09.094-.176.135-.269l.38-.859a8.99 8.99 0 00.768-3.575h-2.137a6.883 6.883 0 01-.585 2.709zm-12.977-11.628a6.556 6.556 0 012.814-.216v-.84l-2.593-1.2a8.368 8.368 0 00-2.754 1.044c.2.112.4.225.613.323zm9.375 1.973l-1.474-.681v.526l1.735.8a6.657 6.657 0 012.6 2.134h.03a9.053 9.053 0 002.3-.3 8.93 8.93 0 00-1.406-1.9 6.849 6.849 0 01-3.785-.579zm-1.474-.155v-.526l-5.083-2.348v.84a6.5 6.5 0 011.816.531z"/><path d="M1135.424 186.609v-.526l-5.083-2.348v.84a6.5 6.5 0 011.816.531z"/><path class="d" d="M1136.897 186.764a6.85 6.85 0 003.78.571 8.747 8.747 0 00-2.625-1.869l-5-2.3a8.564 8.564 0 00-5.3-.627l2.592 1.2 5.083 2.348z"/><path d="M1136.897 186.764a6.85 6.85 0 003.78.571 8.747 8.747 0 00-2.625-1.869l-5-2.3a8.564 8.564 0 00-5.3-.627l2.592 1.2 5.083 2.348z"/><path class="a" d="M1134.803 167.482a4.785 4.785 0 003.731.126 4.978 4.978 0 002.809-2.678 5.188 5.188 0 00-2.492-6.8l-7.38-3.4a4.793 4.793 0 00-2.007-.443 4.886 4.886 0 00-1.721.317 4.985 4.985 0 00-2.815 2.679 5.186 5.186 0 002.492 6.8zm-2.48 1.295l3.1 1.432v-.29a6.922 6.922 0 01-1.517-.493l-3.566-1.646v.426a6.91 6.91 0 011.983.571zm11.969 13.509a5.166 5.166 0 00-2.475-6.769l-10.391-4.8a4.744 4.744 0 00-2-.441 4.82 4.82 0 00-1.71.315 4.956 4.956 0 00-2.795 2.664 5.164 5.164 0 002.475 6.767l10.4 4.8a4.748 4.748 0 003.7.125 4.953 4.953 0 002.796-2.661z"/><path class="d" d="M1139.144 198.852c.116-.14.23-.284.335-.436a6.711 6.711 0 00.641-1.134l.381-.86a6.883 6.883 0 00.584-2.709c0-.147 0-.293-.011-.439a6.974 6.974 0 00-1.319-3.733 6.657 6.657 0 00-2.6-2.134l-1.735-.8-3.267-1.5a6.569 6.569 0 00-4.63-.315 6.709 6.709 0 00-4.21 3.721l-.38.859a6.889 6.889 0 003.342 9.013l4.061 1.87.94.433a6.512 6.512 0 004.143.44 6.7 6.7 0 003.725-2.276zm-3.549.009a4.4 4.4 0 01-3.42-.114l-5-2.3a4.727 4.727 0 01-2.281-6.207l.38-.859a4.546 4.546 0 012.575-2.444 4.461 4.461 0 011.576-.291 4.364 4.364 0 011.841.406l5 2.3a4.733 4.733 0 012.282 6.209l-.383.859a4.56 4.56 0 01-2.57 2.441z"/><path class="a" d="M1127.401 180.019l10.4 4.8a4.748 4.748 0 003.7.125 4.953 4.953 0 002.795-2.663 5.166 5.166 0 00-2.475-6.769l-10.391-4.8a4.744 4.744 0 00-2-.441 4.82 4.82 0 00-1.71.315 4.956 4.956 0 00-2.795 2.664 5.164 5.164 0 002.476 6.769zm2.942-34.068a4.8 4.8 0 003.731.126 4.468 4.468 0 00.736-.366 4.956 4.956 0 00.615-.434 4.968 4.968 0 00.646-.628c.072-.082.146-.162.213-.249s.132-.185.194-.281a4.733 4.733 0 00.405-.72 5.255 5.255 0 00.3-.918c.026-.11.036-.219.055-.329a5.029 5.029 0 00.072-.594c.008-.139 0-.275 0-.414a5.151 5.151 0 00-.109-.953 4.087 4.087 0 00-.1-.372 5.083 5.083 0 00-.174-.523c-.028-.069-.064-.133-.095-.2a5.063 5.063 0 00-1.41-1.836 4.574 4.574 0 00-.353-.259 4.389 4.389 0 00-.681-.4l-4.049-1.868-3.332-1.537a4.79 4.79 0 00-2.007-.443 4.884 4.884 0 00-1.721.317 4.985 4.985 0 00-2.815 2.679 5.185 5.185 0 002.491 6.8l7.383 3.406zm-2.919 18.125l7.383 3.406a4.785 4.785 0 003.731.126 4.978 4.978 0 002.809-2.678 5.188 5.188 0 00-2.492-6.8l-7.38-3.4a4.793 4.793 0 00-2.007-.443 4.886 4.886 0 00-1.721.317 4.985 4.985 0 00-2.815 2.679 5.186 5.186 0 002.492 6.793zm8.171 34.785a4.561 4.561 0 002.569-2.444l.383-.859a4.733 4.733 0 00-2.282-6.209l-5-2.3a4.365 4.365 0 00-1.841-.406 4.464 4.464 0 00-1.576.291 4.547 4.547 0 00-2.575 2.444l-.38.859a4.727 4.727 0 002.281 6.207l5 2.3a4.4 4.4 0 003.421.117zm1.51 3.997a9.012 9.012 0 01-1.682.448v8.678a6.42 6.42 0 006.379 6.449h51.828a6.42 6.42 0 006.378-6.449v-13.132h-58.284a8.785 8.785 0 01-4.619 4.006z"/><path class="a" d="M1138.164 196.419l.383-.859a4.733 4.733 0 00-2.282-6.209l-5-2.3a4.365 4.365 0 00-1.841-.406 4.464 4.464 0 00-1.576.291 4.547 4.547 0 00-2.575 2.444l-.38.859a4.727 4.727 0 002.281 6.207l5 2.3a4.4 4.4 0 003.42.114 4.561 4.561 0 002.57-2.441zm-10.74-32.343l7.383 3.406a4.785 4.785 0 003.731.126 4.978 4.978 0 002.809-2.678 5.188 5.188 0 00-2.492-6.8l-7.38-3.4a4.793 4.793 0 00-2.007-.443 4.886 4.886 0 00-1.721.317 4.985 4.985 0 00-2.815 2.679 5.186 5.186 0 002.492 6.793zm15.8 29.637a9 9 0 01-.768 3.575l-.38.859c-.041.093-.091.179-.135.269h59.364a3.81 3.81 0 003.788-3.822v-.881zm-12.881-47.762a4.8 4.8 0 003.731.126 4.468 4.468 0 00.736-.366 4.956 4.956 0 00.615-.434 4.968 4.968 0 00.646-.628c.072-.082.146-.162.213-.249s.132-.185.194-.281a4.733 4.733 0 00.405-.72 5.255 5.255 0 00.3-.918c.026-.11.036-.219.055-.329a5.029 5.029 0 00.072-.594c.008-.139 0-.275 0-.414a5.151 5.151 0 00-.109-.953 4.087 4.087 0 00-.1-.372 5.083 5.083 0 00-.174-.523c-.028-.069-.064-.133-.095-.2a5.063 5.063 0 00-1.41-1.836 4.574 4.574 0 00-.353-.259 4.389 4.389 0 00-.681-.4l-4.049-1.868-3.332-1.537a4.79 4.79 0 00-2.007-.443 4.884 4.884 0 00-1.721.317 4.985 4.985 0 00-2.815 2.679 5.185 5.185 0 002.491 6.8l7.383 3.406z"/><path class="a" d="M1193.131 90.753H1142.3a6.922 6.922 0 00-6.876 6.952v34.663l.759.35a9.48 9.48 0 014.61 12.407 9.223 9.223 0 01-5.21 4.95c-.052.02-.106.033-.159.052a9.169 9.169 0 01-2.647.525c.162.064.328.117.488.191l2.159 1 5.221 2.41a9.48 9.48 0 014.61 12.407 9.237 9.237 0 01-3.528 4.111l1.884.87a9.462 9.462 0 014.593 12.373 9.2 9.2 0 01-5.195 4.939 9.778 9.778 0 01-.925.289 9.107 9.107 0 011.127 4.036h56.8V97.705a6.922 6.922 0 00-6.88-6.952zm-56.026 112.105a9.012 9.012 0 01-1.682.448v8.678a6.42 6.42 0 006.379 6.449h51.828a6.42 6.42 0 006.378-6.449v-13.132h-58.284a8.785 8.785 0 01-4.619 4.006z"/><path class="a" d="M1144.293 182.286a5.166 5.166 0 00-2.475-6.769l-10.391-4.8a4.744 4.744 0 00-2-.441 4.82 4.82 0 00-1.71.315 4.956 4.956 0 00-2.795 2.664 5.164 5.164 0 002.475 6.767l10.4 4.8a4.748 4.748 0 003.7.125 4.953 4.953 0 002.796-2.661z"/><path class="a" d="M1127.423 164.076l7.383 3.406a4.785 4.785 0 003.731.126 4.978 4.978 0 002.809-2.678 5.188 5.188 0 00-2.492-6.8l-7.38-3.4a4.793 4.793 0 00-2.007-.443 4.886 4.886 0 00-1.721.317 4.985 4.985 0 00-2.815 2.679 5.186 5.186 0 002.492 6.793zm2.919-18.125a4.8 4.8 0 003.731.126 4.468 4.468 0 00.736-.366 4.956 4.956 0 00.615-.434 4.968 4.968 0 00.646-.628c.072-.082.146-.162.213-.249s.132-.185.194-.281a4.733 4.733 0 00.405-.72 5.255 5.255 0 00.3-.918c.026-.11.036-.219.055-.329a5.029 5.029 0 00.072-.594c.008-.139 0-.275 0-.414a5.151 5.151 0 00-.109-.953 4.087 4.087 0 00-.1-.372 5.083 5.083 0 00-.174-.523c-.028-.069-.064-.133-.095-.2a5.063 5.063 0 00-1.41-1.836 4.574 4.574 0 00-.353-.259 4.389 4.389 0 00-.681-.4l-4.049-1.868-3.332-1.537a4.79 4.79 0 00-2.007-.443 4.884 4.884 0 00-1.721.317 4.985 4.985 0 00-2.815 2.679 5.185 5.185 0 002.491 6.8l7.383 3.406zm-2.942 34.068l10.4 4.8a4.748 4.748 0 003.7.125 4.953 4.953 0 002.795-2.663 5.166 5.166 0 00-2.475-6.769l-10.391-4.8a4.744 4.744 0 00-2-.441 4.82 4.82 0 00-1.71.315 4.956 4.956 0 00-2.795 2.664 5.164 5.164 0 002.476 6.769z"/><path class="a" d="M1198.735 145.664a34.447 34.447 0 011.274-3.839v-44.12a6.922 6.922 0 00-6.878-6.952H1142.3a6.922 6.922 0 00-6.876 6.952v34.663l.759.35a9.48 9.48 0 014.61 12.407 9.223 9.223 0 01-5.21 4.95c-.052.02-.106.033-.159.052a9.169 9.169 0 01-2.647.525c.162.064.328.117.488.191l2.159 1 5.221 2.41a9.48 9.48 0 014.61 12.407 9.237 9.237 0 01-3.528 4.111l1.884.87a9.462 9.462 0 014.593 12.373 9.2 9.2 0 01-5.195 4.939 9.778 9.778 0 01-.925.289 9.107 9.107 0 011.127 4.036h56.8v-22.313c-.4-2.219-.838-4.121-1.234-5.847-1.396-6.03-2.401-10.387-.042-19.454zm-55.512 48.049a9 9 0 01-.768 3.575l-.38.859c-.041.093-.091.179-.135.269h58.365l-.034-4.7zm-5.059 2.706l.383-.859a4.733 4.733 0 00-2.282-6.209l-5-2.3a4.365 4.365 0 00-1.841-.406 4.464 4.464 0 00-1.576.291 4.547 4.547 0 00-2.575 2.444l-.38.859a4.727 4.727 0 002.281 6.207l5 2.3a4.4 4.4 0 003.42.114 4.561 4.561 0 002.57-2.441zm-1.06 6.439a9.012 9.012 0 01-1.682.448v8.678a6.42 6.42 0 006.379 6.449h51.828a6.42 6.42 0 006.378-6.449v-13.132h-58.284a8.785 8.785 0 01-4.619 4.006z"/><path d="M1200.009 149.778c.2-1.107.457-2.284.793-3.576a35.529 35.529 0 014.291-9.789v-3.562a33.033 33.033 0 00-5.084 8.974zm.296 48.641l.111 14.842a2.141 2.141 0 002.138 2.121h.018a2.135 2.135 0 002.011-1.494l-2.03-.645-.112-15.019a3.7 3.7 0 01-1.137.195zm-.2-26.937l.166 22.231h2.137l-.167-22.423c-.758-4.408-1.665-7.544-2.232-10.573v10.248c.032.175.065.338.096.517z"/><path class="d" d="M1240.998 215.143c-4.628-9.749-3.186-15.318-5.186-24.389-3.107-14.082-8.168-12.53-14.913-30.242-6.65-17.473-.485-27.643-9.562-28.941-2.022-.3-4.285 1.817-6.245 4.842a35.552 35.552 0 00-4.291 9.789 48.637 48.637 0 00-.792 3.576 27.915 27.915 0 000 10.939c.567 3.029 1.474 6.165 2.232 10.573l.167 22.423.033 4.508.112 15.019 2.03.645a2.165 2.165 0 00.11-.662l-.315-41.948a2.228 2.228 0 00-.031-.346c-.454-2.633-.959-4.833-1.407-6.771-1.351-5.841-2.164-9.367-.073-17.417 1.9-7.326 6.5-13.23 8.155-13.057 3.163.453 3.534 1.8 4.033 8.446a63.447 63.447 0 003.846 19.142 67.205 67.205 0 008.727 16.46 31.881 31.881 0 016.1 13.481 69.387 69.387 0 011.211 8.4c.5 5.044.979 9.809 4.129 16.446a85.623 85.623 0 006.09 10.722l3.3 1.047a83.51 83.51 0 01-7.46-12.685z"/><path class="a" d="M1127.4 180.019l10.4 4.8a4.748 4.748 0 003.7.125 4.953 4.953 0 002.795-2.663 5.166 5.166 0 00-2.475-6.769l-10.391-4.8a4.744 4.744 0 00-2-.441 4.82 4.82 0 00-1.71.315 4.956 4.956 0 00-2.795 2.664 5.164 5.164 0 002.476 6.769zm.023-15.943l7.383 3.406a4.785 4.785 0 003.731.126 4.978 4.978 0 002.809-2.678 5.188 5.188 0 00-2.492-6.8l-7.38-3.4a4.793 4.793 0 00-2.007-.443 4.886 4.886 0 00-1.721.317 4.985 4.985 0 00-2.815 2.679 5.186 5.186 0 002.492 6.793zm2.919-18.125a4.8 4.8 0 003.731.126 4.468 4.468 0 00.736-.366 4.956 4.956 0 00.615-.434 4.968 4.968 0 00.646-.628c.072-.082.146-.162.213-.249s.132-.185.194-.281a4.733 4.733 0 00.405-.72 5.255 5.255 0 00.3-.918c.026-.11.036-.219.055-.329a5.029 5.029 0 00.072-.594c.008-.139 0-.275 0-.414a5.151 5.151 0 00-.109-.953 4.087 4.087 0 00-.1-.372 5.083 5.083 0 00-.174-.523c-.028-.069-.064-.133-.095-.2a5.063 5.063 0 00-1.41-1.836 4.574 4.574 0 00-.353-.259 4.389 4.389 0 00-.681-.4l-4.049-1.868-3.332-1.537a4.79 4.79 0 00-2.007-.443 4.884 4.884 0 00-1.721.317 4.985 4.985 0 00-2.815 2.679 5.185 5.185 0 002.491 6.8l7.383 3.406zm7.822 50.468l.383-.859a4.733 4.733 0 00-2.282-6.209l-5-2.3a4.365 4.365 0 00-1.841-.406 4.464 4.464 0 00-1.576.291 4.547 4.547 0 00-2.575 2.444l-.38.859a4.727 4.727 0 002.281 6.207l5 2.3a4.4 4.4 0 003.42.114 4.561 4.561 0 002.57-2.441zm-1.06 6.439a9.012 9.012 0 01-1.682.448v8.678a6.42 6.42 0 006.379 6.449h51.828a6.42 6.42 0 006.378-6.449v-13.132h-58.284a8.785 8.785 0 01-4.619 4.006z"/><path class="a" d="M1193.131 90.753H1142.3a6.922 6.922 0 00-6.876 6.952v34.663l.759.35a9.48 9.48 0 014.61 12.407 9.223 9.223 0 01-5.21 4.95c-.052.02-.106.033-.159.052a9.169 9.169 0 01-2.647.525c.162.064.328.117.488.191l2.159 1 5.221 2.41a9.48 9.48 0 014.61 12.407 9.237 9.237 0 01-3.528 4.111l1.884.87a9.462 9.462 0 014.593 12.373 9.2 9.2 0 01-5.195 4.939 9.778 9.778 0 01-.925.289 9.107 9.107 0 011.127 4.036h56.8v-22.313c-.4-2.219-.838-4.121-1.234-5.847-1.394-6.03-2.4-10.387-.04-19.454a34.447 34.447 0 011.274-3.839v-44.12a6.922 6.922 0 00-6.88-6.952z"/><path d="M1168.693 221.291a2.132 2.132 0 00-1.2 2.281h4.641c-.2-.407-.4-.811-.6-1.242a2.142 2.142 0 00-2.841-1.039z"/><path class="a" d="M1127.423 164.076l7.383 3.406a4.785 4.785 0 003.731.126 4.978 4.978 0 002.809-2.678 5.188 5.188 0 00-2.492-6.8l-7.38-3.4a4.793 4.793 0 00-2.007-.443 4.886 4.886 0 00-1.721.317 4.985 4.985 0 00-2.815 2.679 5.186 5.186 0 002.492 6.793zm-.023 15.943l10.4 4.8a4.748 4.748 0 003.7.125 4.953 4.953 0 002.795-2.663 5.166 5.166 0 00-2.475-6.769l-10.391-4.8a4.744 4.744 0 00-2-.441 4.82 4.82 0 00-1.71.315 4.956 4.956 0 00-2.795 2.664 5.164 5.164 0 002.476 6.769zm10.764 16.4l.383-.859a4.733 4.733 0 00-2.282-6.209l-5-2.3a4.365 4.365 0 00-1.841-.406 4.464 4.464 0 00-1.576.291 4.547 4.547 0 00-2.575 2.444l-.38.859a4.727 4.727 0 002.281 6.207l5 2.3a4.4 4.4 0 003.42.114 4.561 4.561 0 002.57-2.441zm-7.822-50.468a4.8 4.8 0 003.731.126 4.468 4.468 0 00.736-.366 4.956 4.956 0 00.615-.434 4.968 4.968 0 00.646-.628c.072-.082.146-.162.213-.249s.132-.185.194-.281a4.733 4.733 0 00.405-.72 5.255 5.255 0 00.3-.918c.026-.11.036-.219.055-.329a5.029 5.029 0 00.072-.594c.008-.139 0-.275 0-.414a5.151 5.151 0 00-.109-.953 4.087 4.087 0 00-.1-.372 5.083 5.083 0 00-.174-.523c-.028-.069-.064-.133-.095-.2a5.063 5.063 0 00-1.41-1.836 4.574 4.574 0 00-.353-.259 4.389 4.389 0 00-.681-.4l-4.049-1.868-3.332-1.537a4.79 4.79 0 00-2.007-.443 4.884 4.884 0 00-1.721.317 4.985 4.985 0 00-2.815 2.679 5.185 5.185 0 002.491 6.8l7.383 3.406zm6.762 56.907a9.012 9.012 0 01-1.682.448v8.678a6.42 6.42 0 006.379 6.449h51.828a6.42 6.42 0 006.378-6.449v-13.132h-58.284a8.785 8.785 0 01-4.619 4.006z"/><path class="a" d="M1193.131 90.753H1142.3a6.922 6.922 0 00-6.876 6.952v34.663l.759.35a9.48 9.48 0 014.61 12.407 9.223 9.223 0 01-5.21 4.95c-.052.02-.106.033-.159.052a9.169 9.169 0 01-2.647.525c.162.064.328.117.488.191l2.159 1 5.221 2.41a9.48 9.48 0 014.61 12.407 9.237 9.237 0 01-3.528 4.111l1.884.87a9.462 9.462 0 014.593 12.373 9.2 9.2 0 01-5.195 4.939 9.778 9.778 0 01-.925.289 9.107 9.107 0 011.127 4.036h56.8v-22.313c-.4-2.219-.838-4.121-1.234-5.847-1.394-6.03-2.4-10.387-.04-19.454a34.447 34.447 0 011.274-3.839v-44.12a6.922 6.922 0 00-6.88-6.952z"/><path d="M1250.192 226.587a81.41 81.41 0 01-7.266-12.362c-2.832-5.969-3.251-10.171-3.737-15.039a72.526 72.526 0 00-1.29-8.892 35.837 35.837 0 00-6.766-15.008 62.509 62.509 0 01-8.236-15.535 58.793 58.793 0 01-3.58-17.939c-.457-6.107-.854-11.381-7.677-12.356-2.383-.346-4.616 1.133-6.548 3.4V97.705a12.028 12.028 0 00-11.962-12.091h-50.831a12.024 12.024 0 00-11.959 12.091v32.314l-1.538-.71a9.037 9.037 0 00-7.031-.244 9.236 9.236 0 00-5.216 4.95 9.481 9.481 0 004.61 12.407l7.383 3.406c.156.072.316.126.474.189a9.126 9.126 0 00-2.789.579 9.235 9.235 0 00-5.216 4.95 9.5 9.5 0 003.58 11.84 9.214 9.214 0 00-3.583 4.141 9.473 9.473 0 003.98 12.052 8.791 8.791 0 00-3.631 4.065l-.383.859a9.023 9.023 0 004.405 11.819l4.954 2.282v9.377a11.525 11.525 0 0011.462 11.588h25.69a2.142 2.142 0 00.162.557c5.185 11.185 11.194 15.37 15.85 17.768a36.992 36.992 0 006.338 2.441 57.1 57.1 0 017.713 2.9 60.184 60.184 0 0113.5 8.642 2.137 2.137 0 102.758-3.266 64.412 64.412 0 00-14.451-9.252 60.537 60.537 0 00-8.239-3.106 32.937 32.937 0 01-5.655-2.164c-4.117-2.117-8.887-5.522-13.33-14.523h21.5a11.492 11.492 0 0011.279-9.583l-.326-.1a2.165 2.165 0 00.11-.662l-.315-41.948a2.228 2.228 0 00-.031-.346c-.454-2.633-.959-4.833-1.407-6.771-1.351-5.841-2.164-9.367-.072-17.417 1.9-7.326 6.5-13.23 8.154-13.057 3.163.453 3.534 1.8 4.033 8.446a63.454 63.454 0 003.846 19.142 67.2 67.2 0 008.727 16.46 31.881 31.881 0 016.1 13.481 69.436 69.436 0 011.211 8.4c.5 5.044.979 9.809 4.13 16.446a85.625 85.625 0 006.089 10.722c.512.769 1.023 1.539 1.559 2.291a2.137 2.137 0 003.478-2.484zm-127.234-84.042a5.185 5.185 0 01-2.492-6.8 4.984 4.984 0 012.815-2.679 4.884 4.884 0 011.721-.317 4.8 4.8 0 012.007.443l3.331 1.537 4.049 1.868a4.389 4.389 0 01.681.4c.123.082.24.167.353.259a5.058 5.058 0 011.41 1.836c.031.067.067.131.1.2a5.072 5.072 0 01.174.523 6 6 0 01.1.372 5.328 5.328 0 01.11.953c0 .139.008.275 0 .414a5.3 5.3 0 01-.072.594c-.019.11-.029.219-.055.329a5.217 5.217 0 01-.3.918 4.671 4.671 0 01-.4.72c-.062.1-.125.19-.194.281s-.141.167-.213.249a4.924 4.924 0 01-.646.628 4.907 4.907 0 01-.615.434 4.435 4.435 0 01-.736.366 4.8 4.8 0 01-3.731-.126zm1.97 14.731a4.985 4.985 0 012.815-2.679 4.886 4.886 0 011.721-.317 4.793 4.793 0 012.007.443l7.38 3.405a5.188 5.188 0 012.492 6.8 4.978 4.978 0 01-2.809 2.678 4.784 4.784 0 01-3.731-.126l-7.383-3.406a5.186 5.186 0 01-2.497-6.798zm0 15.979a4.956 4.956 0 012.795-2.664 4.818 4.818 0 011.71-.315 4.745 4.745 0 012 .441l10.391 4.8a5.166 5.166 0 012.475 6.769 4.953 4.953 0 01-2.795 2.663 4.748 4.748 0 01-3.7-.125l-10.4-4.8a5.165 5.165 0 01-2.481-6.769zm7.249 25.492l-5-2.3a4.727 4.727 0 01-2.281-6.207l.38-.859a4.546 4.546 0 012.575-2.444 4.462 4.462 0 011.576-.291 4.364 4.364 0 011.841.406l5 2.3a4.733 4.733 0 012.282 6.209l-.383.859a4.56 4.56 0 01-2.569 2.444 4.4 4.4 0 01-3.424-.117zm67.833 13.237a6.42 6.42 0 01-6.378 6.449h-51.828a6.42 6.42 0 01-6.379-6.449v-8.678a9.015 9.015 0 001.682-.448 8.787 8.787 0 004.616-4.006h58.287zm0-70.159a34.409 34.409 0 00-1.274 3.839c-2.359 9.067-1.354 13.424.04 19.454.4 1.726.834 3.628 1.234 5.847v22.309h-56.8a9.107 9.107 0 00-1.127-4.036c.311-.082.619-.175.925-.289a9.2 9.2 0 005.195-4.939 9.462 9.462 0 00-4.593-12.373l-1.884-.87a9.237 9.237 0 003.528-4.111 9.481 9.481 0 00-4.61-12.407l-5.221-2.41-2.159-1c-.16-.074-.326-.127-.488-.191a9.173 9.173 0 002.647-.525c.053-.019.107-.032.159-.052a9.224 9.224 0 005.21-4.95 9.48 9.48 0 00-4.61-12.407l-.759-.35V97.705a6.922 6.922 0 016.876-6.952h50.831a6.922 6.922 0 016.878 6.952z"/><path class="c" d="M1087.039 178.096a24.032 24.032 0 010-33.987l.707.707a23.033 23.033 0 000 32.573z"/><path class="c" d="M1092.586 172.549a16.187 16.187 0 010-22.893l.707.707a15.19 15.19 0 000 21.479zm5.546-5.547a8.343 8.343 0 010-11.8l.707.708a7.343 7.343 0 000 10.385z"/><path class="c" d="M1092.586 172.549a16.187 16.187 0 010-22.893l.707.707a15.19 15.19 0 000 21.479zm5.546-5.547a8.343 8.343 0 010-11.8l.707.708a7.343 7.343 0 000 10.385z"/><path class="b" d="M1175.724 147.13a4.754 4.754 0 001.679-1.146 5.637 5.637 0 001.463-3.822 5.527 5.527 0 00-.391-2.12 5.252 5.252 0 00-1.072-1.7 5.131 5.131 0 00-1.679-1.169 5.761 5.761 0 00-2.192-.417h-3.092v10.815h3.092a5.328 5.328 0 002.192-.438m-2.192-13.615a9.215 9.215 0 013.482.657 9.015 9.015 0 012.825 1.852 8.672 8.672 0 011.9 2.753 8.768 8.768 0 010 6.771 8.71 8.71 0 01-1.9 2.751 8.576 8.576 0 01-2.825 1.829 8.822 8.822 0 01-3.482.68h-6.623v-17.292zm-15.238 7.159a2.172 2.172 0 112.171-2.171 2.171 2.171 0 01-2.171 2.171m0-7.456a5.283 5.283 0 105.283 5.285 5.285 5.285 0 00-5.283-5.285"/><path class="a" d="M468.257 132.158a33.129 33.129 0 015.581-8.338 34.888 34.888 0 00-11.264 6.8 28.882 28.882 0 005.683 1.538z"/><path class="a" d="M477.885 135.755v-11.811a34.886 34.886 0 00-4.946.525c-3.428 2.009-6.468 5.591-8.82 10.327a104.294 104.294 0 0013.766.959z"/><path class="a" d="M483.426 130.618a34.85 34.85 0 00-11.262-6.8 33.136 33.136 0 015.583 8.338 28.817 28.817 0 005.679-1.538z"/><path class="a" d="M465.317 145.778a111.45 111.45 0 0115.183-1.134V125.99h-18.9a57.4 57.4 0 003.717 19.788z"/><path class="a" d="M480.5 145.569v-19.586a112.273 112.273 0 01-14.825-1.08 56.726 56.726 0 00-4.07 20.666z"/><path class="a" d="M466.571 125.704a58.5 58.5 0 014.136 21.092h12.15a35.072 35.072 0 00-9.79-23.176 23.2 23.2 0 01-6.496 2.084z"/><path class="a" d="M481.881 134.796c-2.353-4.736-5.391-8.317-8.818-10.326a34.726 34.726 0 00-4.946-.526v11.811a104.262 104.262 0 0013.764-.959z"/><path class="a" d="M463.9 132.34c2.407 5.161 5.606 9.062 9.243 11.191a34.773 34.773 0 004.94.524v-12.738a102.48 102.48 0 00-14.183 1.023z"/><path class="a" d="M482.101 132.34a102.914 102.914 0 00-14.181-1.023v12.738a34.8 34.8 0 004.941-.524c3.637-2.129 6.834-6.03 9.24-11.191z"/><path class="a" d="M475.297 146.796a58.56 58.56 0 014.136-21.092 23.239 23.239 0 01-6.5-2.083 35.07 35.07 0 00-9.791 23.175z"/><path class="a" d="M474.262 144.257a33.581 33.581 0 01-6.039-9.21 23 23 0 00-5.952 1.78 34.882 34.882 0 0011.991 7.43z"/><path class="a" d="M470.708 121.508a59.174 59.174 0 01-3.788 20.231 19.968 19.968 0 016.689 2.345 35.044 35.044 0 009.249-22.576z"/><path class="a" d="M479.089 141.739a59.077 59.077 0 01-3.792-20.231h-12.153a35.032 35.032 0 009.251 22.575 20.021 20.021 0 016.694-2.344z"/><path class="a" d="M480.328 124.903a112.335 112.335 0 01-14.826 1.08v19.586h18.892a56.792 56.792 0 00-4.066-20.666z"/><path class="a" d="M477.782 135.047a33.589 33.589 0 01-6.037 9.21 34.881 34.881 0 0011.988-7.43 23.039 23.039 0 00-5.951-1.78z"/><path class="a" d="M465.502 125.99v18.656a111.4 111.4 0 0115.18 1.134 57.407 57.407 0 003.712-19.79z"/><path class="c" d="M473.002 119a15 15 0 1015 15 15.018 15.018 0 00-15-15zm13.07 14.543h-4.556a21.94 21.94 0 00-1.551-7.909 8.7 8.7 0 002.436-.782 13.15 13.15 0 013.67 8.691zm-15.4 13.406a9.293 9.293 0 01-3.466-4.2 38.448 38.448 0 015.319-.383v4.777a13.043 13.043 0 01-1.852-.194zm4.66-25.9a9.039 9.039 0 013.307 3.872 39.088 39.088 0 01-5.162.359v-4.429a13.019 13.019 0 011.856.2zm2.152.591a13.071 13.071 0 014.223 2.549 10.8 10.8 0 01-2.129.577 12.429 12.429 0 00-2.093-3.124zm-6.815-.591a13.085 13.085 0 011.855-.2v4.429a39.1 39.1 0 01-5.162-.359 9.037 9.037 0 013.308-3.868zm-4.246 3.718a10.828 10.828 0 01-2.131-.577 13.087 13.087 0 014.224-2.549 12.414 12.414 0 00-2.091 3.128zm.541 1.025a42.1 42.1 0 005.559.4v7.345h-7.086a21.265 21.265 0 011.529-7.744zm5.559 8.665v7a41.8 41.8 0 00-5.694.425 21.526 21.526 0 01-1.392-7.421zm-3.986 11.908a13.077 13.077 0 01-4.5-2.786 8.629 8.629 0 012.232-.667 12.592 12.592 0 002.27 3.454zm4.939.78v-4.776a38.612 38.612 0 015.318.383 9.288 9.288 0 01-3.465 4.2 13.053 13.053 0 01-1.851.194zm6.249-4.234a8.642 8.642 0 012.232.667 13.078 13.078 0 01-4.5 2.786 12.586 12.586 0 002.27-3.455zm-.557-1.033a41.775 41.775 0 00-5.693-.425v-7h7.085a21.526 21.526 0 01-1.39 7.426zm-5.693-8.336v-7.345a42.122 42.122 0 005.56-.4 21.3 21.3 0 011.525 7.75zm-9.877-8.691a8.722 8.722 0 002.437.781 21.951 21.951 0 00-1.551 7.909h-4.558a13.15 13.15 0 013.675-8.689zm-3.672 9.606h4.558a22.144 22.144 0 001.422 7.586 7.507 7.507 0 00-2.51.879 13.137 13.137 0 01-3.467-8.464zm22.674 8.466a7.5 7.5 0 00-2.508-.879 22.188 22.188 0 001.42-7.586h4.556a13.142 13.142 0 01-3.46 8.466z"/><path class="a" d="M932.257 132.158a33.129 33.129 0 015.581-8.338 34.888 34.888 0 00-11.264 6.8 28.882 28.882 0 005.683 1.538z"/><path class="a" d="M941.885 135.755v-11.811a34.886 34.886 0 00-4.946.525c-3.428 2.009-6.468 5.591-8.82 10.327a104.294 104.294 0 0013.766.959z"/><path class="a" d="M947.426 130.618a34.85 34.85 0 00-11.262-6.8 33.136 33.136 0 015.583 8.338 28.817 28.817 0 005.679-1.538z"/><path class="a" d="M929.317 145.778a111.45 111.45 0 0115.183-1.134V125.99h-18.9a57.4 57.4 0 003.717 19.788z"/><path class="a" d="M944.5 145.569v-19.586a112.273 112.273 0 01-14.825-1.08 56.726 56.726 0 00-4.07 20.666z"/><path class="a" d="M930.571 125.704a58.5 58.5 0 014.136 21.092h12.15a35.072 35.072 0 00-9.79-23.176 23.2 23.2 0 01-6.496 2.084z"/><path class="a" d="M945.881 134.796c-2.353-4.736-5.391-8.317-8.818-10.326a34.726 34.726 0 00-4.946-.526v11.811a104.262 104.262 0 0013.764-.959z"/><path class="a" d="M927.9 132.34c2.407 5.161 5.606 9.062 9.243 11.191a34.773 34.773 0 004.94.524v-12.738a102.48 102.48 0 00-14.183 1.023z"/><path class="a" d="M946.101 132.34a102.914 102.914 0 00-14.181-1.023v12.738a34.8 34.8 0 004.941-.524c3.637-2.129 6.834-6.03 9.24-11.191z"/><path class="a" d="M939.297 146.796a58.56 58.56 0 014.136-21.092 23.239 23.239 0 01-6.5-2.083 35.07 35.07 0 00-9.791 23.175z"/><path class="a" d="M938.262 144.257a33.581 33.581 0 01-6.039-9.21 23 23 0 00-5.952 1.78 34.882 34.882 0 0011.991 7.43z"/><path class="a" d="M934.708 121.508a59.174 59.174 0 01-3.788 20.231 19.968 19.968 0 016.689 2.345 35.044 35.044 0 009.249-22.576z"/><path class="a" d="M943.089 141.739a59.077 59.077 0 01-3.792-20.231h-12.153a35.032 35.032 0 009.251 22.575 20.021 20.021 0 016.694-2.344z"/><path class="a" d="M944.328 124.903a112.335 112.335 0 01-14.826 1.08v19.586h18.892a56.792 56.792 0 00-4.066-20.666z"/><path class="a" d="M941.782 135.047a33.589 33.589 0 01-6.037 9.21 34.881 34.881 0 0011.988-7.43 23.039 23.039 0 00-5.951-1.78z"/><path class="a" d="M929.502 125.99v18.656a111.4 111.4 0 0115.18 1.134 57.407 57.407 0 003.712-19.79z"/><path class="c" d="M937.002 119a15 15 0 1015 15 15.018 15.018 0 00-15-15zm13.07 14.543h-4.556a21.94 21.94 0 00-1.551-7.909 8.7 8.7 0 002.436-.782 13.15 13.15 0 013.67 8.691zm-15.4 13.406a9.293 9.293 0 01-3.466-4.2 38.448 38.448 0 015.319-.383v4.777a13.043 13.043 0 01-1.852-.194zm4.66-25.9a9.039 9.039 0 013.307 3.872 39.088 39.088 0 01-5.162.359v-4.429a13.019 13.019 0 011.856.2zm2.152.591a13.071 13.071 0 014.223 2.549 10.8 10.8 0 01-2.129.577 12.429 12.429 0 00-2.093-3.124zm-6.815-.591a13.085 13.085 0 011.855-.2v4.429a39.1 39.1 0 01-5.162-.359 9.037 9.037 0 013.308-3.868zm-4.246 3.718a10.828 10.828 0 01-2.131-.577 13.087 13.087 0 014.224-2.549 12.414 12.414 0 00-2.091 3.128zm.541 1.025a42.1 42.1 0 005.559.4v7.345h-7.086a21.265 21.265 0 011.529-7.744zm5.559 8.665v7a41.8 41.8 0 00-5.694.425 21.526 21.526 0 01-1.392-7.421zm-3.986 11.908a13.077 13.077 0 01-4.5-2.786 8.629 8.629 0 012.232-.667 12.592 12.592 0 002.27 3.454zm4.939.78v-4.776a38.612 38.612 0 015.318.383 9.288 9.288 0 01-3.465 4.2 13.053 13.053 0 01-1.851.194zm6.249-4.234a8.642 8.642 0 012.232.667 13.078 13.078 0 01-4.5 2.786 12.586 12.586 0 002.27-3.455zm-.557-1.033a41.775 41.775 0 00-5.693-.425v-7h7.085a21.526 21.526 0 01-1.39 7.426zm-5.693-8.336v-7.345a42.122 42.122 0 005.56-.4 21.3 21.3 0 011.525 7.75zm-9.877-8.691a8.722 8.722 0 002.437.781 21.951 21.951 0 00-1.551 7.909h-4.558a13.15 13.15 0 013.675-8.689zm-3.672 9.606h4.558a22.144 22.144 0 001.422 7.586 7.507 7.507 0 00-2.51.879 13.137 13.137 0 01-3.467-8.464zm22.674 8.466a7.5 7.5 0 00-2.508-.879 22.188 22.188 0 001.42-7.586h4.556a13.142 13.142 0 01-3.46 8.466zM379.066 330.002v-1.99h9.94v1.99zm-4.97 0h-9.94v-1.99h9.94zm-14.91 0h-9.94v-1.99h9.94zm-14.91 0h-9.94v-1.99h9.94zm-14.91 0h-9.94v-1.99h9.94zm-14.91 0h-9.94v-1.99h9.94zm-14.91 0h-9.94v-1.99h9.94zm-14.91 0H274.7v-1.99h9.94zm-14.91 0h-9.94v-1.99h9.94zm-14.91 0h-9.94v-1.99h9.94zm-14.91 0h-9.94v-1.99h9.94zm-14.91 0h-9.94v-1.99H225zm-14.91 0h-9.94v-1.99h9.94zm-14.91 0h-9.94v-1.99h9.94zm-14.91 0h-9.94v-1.99h9.94zm-14.91 0h-9.94v-1.99h9.94zm-14.91 0h-9.94v-1.99h9.94zm-14.91 0H125.6v-1.99h9.94zm-14.91 0h-9.94v-1.99h9.94zm-14.91 0H95.78v-1.99h9.94zm-14.91 0h-9.94v-1.99h9.94zm-14.91 0h-9.94v-1.99h9.94zm-13.916-.994H60v-9.94h1.988zm328.012-4.971H388v-9.935h1.988zm-328-9.939H60v-9.94h1.988zM390 309.129h-1.988v-9.94H390zm-328.012-9.938H60v-9.94h1.988zM390 294.22h-1.988v-9.94H390zm-328.012-9.939H60v-9.94h1.988zM390 279.314h-1.988v-9.94H390zm-328.012-9.943H60v-9.94h1.988zM390 264.402h-1.988v-9.94H390zm-328.012-9.94H60v-9.94h1.988zM390 249.491h-1.988v-9.94H390zm-328.012-9.939H60v-9.938h1.988zM390 234.581h-1.988v-9.939H390zm-328.012-9.938H60v-9.941h1.988zM390 219.672h-1.988v-9.94H390zm-328.012-9.939H60v-9.94h1.988zM390 204.762h-1.988v-9.94H390zm-328.012-9.939H60v-9.94h1.988zM390 189.852h-1.988v-9.938H390zm-328.012-9.938H60v-9.94h1.988zM390 174.943h-1.988v-9.941H390zm-328.012-9.941H60v-9.94h1.988zM390 160.033h-1.988v-9.94H390zm-328.012-9.939H60v-9.94h1.988zM390 145.123h-1.988v-9.94H390zm-328.012-9.938H60v-9.94h1.988zM390 130.214h-1.988v-9.94H390zm-328.012-9.939H60v-9.94h1.988zM390 115.302h-1.988v-9.94H390zm-328.012-9.939H60v-9.94h1.988zM390 100.394h-1.988v-9.94H390zM61.988 90.455H60v-9.94h1.988zM390 85.484h-1.988v-9.94H390zM61.988 75.545H60v-9.943h1.988zM390 70.574h-1.988v-9.94H390zM61.988 60.635H60v-9.94h1.988zM390 55.664h-1.988v-9.94H390zM61.988 45.725H60v-9.94h1.988zM390 40.754h-1.988v-9.94H390zm-328.012-9.94H60v-9.94h1.988zM390 25.843h-1.988v-9.941H390zM61.988 15.902H60v-9.94h1.988zM390 10.933h-1.988V.994H390zm-5.964-8.945H374.1V.002h9.94zm-14.91 0h-9.94V.002h9.94zm-14.91 0h-9.94V.002h9.94zm-14.91 0h-9.94V.002h9.94zm-14.91 0h-9.94V.002h9.94zm-14.91 0h-9.94V.002h9.94zm-14.91 0h-9.94V.002h9.94zm-14.91 0h-9.94V.002h9.94zm-14.91 0h-9.94V.002h9.94zm-14.91 0h-9.94V.002h9.94zm-14.91 0H225V.002h9.94zm-14.91 0h-9.94V.002h9.94zm-14.91 0h-9.94V.002h9.94zm-14.91 0h-9.94V.002h9.94zm-14.91 0h-9.94V.002h9.94zm-14.91 0h-9.94V.002h9.94zm-14.91 0h-9.94V.002h9.944zm-14.91 0h-9.94V.002h9.94zm-14.91 0h-9.94V.002h9.94zm-14.91 0h-9.94V.002h9.94zm-14.91 0H75.9V.002h9.94zm-14.91 0h-9.94V.002h9.94z"/><path class="b" d="M243.888 173.688h1.1l4.155 12.01 3.87-12.048h.755l3.872 12.052 4.153-12.01h1.021l-4.8 13.591h-.792l-3.872-11.72-3.872 11.72h-.792zm21.646-.192h1.151v1.291h-1.151zm.113 3.856h.926v9.831h-.926zm4.133 3.563h5.06v1.079h-5.06zm8.348-7.227h9.31v.926h-8.328v5.532h7.477v.925h-7.477v6.111h-.982zm12.2-.192h1.151v1.291h-1.151zm.112 3.856h.926v9.831h-.926z"/><path class="c" d="M241.187 239.311a22.9 22.9 0 00-32.378 0l-.7-.7a23.89 23.89 0 0133.783 0z"/><path class="c" d="M235.674 244.821l.7-.7a16.092 16.092 0 00-22.756 0l.7.7a15.1 15.1 0 0121.356 0zm-16.537 4.817l.7.7a7.3 7.3 0 0110.323 0l.706-.7a8.293 8.293 0 00-11.729 0z"/><path class="c" d="M235.674 244.821a15.1 15.1 0 00-21.351 0l-.7-.7a16.092 16.092 0 0122.756 0zm-5.514 5.517a7.3 7.3 0 00-10.323 0l-.7-.7a8.293 8.293 0 0111.728 0zM225 129.495a23.737 23.737 0 01-16.893-7l.7-.7a22.9 22.9 0 0032.378 0l.7.7a23.736 23.736 0 01-16.885 7z"/><path class="c" d="M225 121.702a15.984 15.984 0 01-11.379-4.713l.7-.7a15.1 15.1 0 0021.35 0l.7.7A15.984 15.984 0 01225 121.702zm0-7.8a8.238 8.238 0 01-5.865-2.429l.7-.7a7.3 7.3 0 0010.324 0l.7.7a8.232 8.232 0 01-5.859 2.429z"/><path class="c" d="M225 121.702a15.984 15.984 0 01-11.379-4.713l.7-.7a15.1 15.1 0 0021.35 0l.7.7A15.984 15.984 0 01225 121.702zm0-7.8a8.238 8.238 0 01-5.865-2.429l.7-.7a7.3 7.3 0 0010.324 0l.7.7a8.232 8.232 0 01-5.859 2.429zm-1.316 50.195h2.63v33.915h-2.63z"/><path class="c" d="M225 214.354l7.727-21.228s-7.725 4.885-15.451 0L225 214.354m0-66.599l-7.726 21.226s7.726-4.885 15.451 0L225 147.755"/><path class="a" d="M287.95 35.075H161.374a9.439 9.439 0 00-9.47 9.389V88.25a9.442 9.442 0 009.47 9.388h1.491V80.629H286.85l-.008 17h1.108a9.441 9.441 0 009.47-9.389V44.463a9.439 9.439 0 00-9.47-9.388zm-21.4 14.036h-44.746a1.012 1.012 0 11-.078-2.022.648.648 0 01.078 0h44.661a1.012 1.012 0 11.08 2.022zm17.829 0h-9.139a1.012 1.012 0 01-.08-2.022.674.674 0 01.08 0h9.059a1.012 1.012 0 01.08 2.022z"/><path class="a" d="M270.573 93.087a1.012 1.012 0 11-.078-2.022.648.648 0 01.078 0h10.882v-5.058H168.246v5.058h93.572a1.012 1.012 0 01.08 2.022h-93.652v4.544h113.209v-4.544z"/><path class="e" d="M287.951 29.693H161.374a14.832 14.832 0 00-14.859 14.77v43.779a14.833 14.833 0 0014.859 14.77h126.577a14.83 14.83 0 0014.86-14.764V44.463a14.828 14.828 0 00-14.86-14.77zm-119.7 67.938v-4.544h93.652a1.012 1.012 0 00-.08-2.022h-93.577v-5.058h113.209v5.058h-10.882a.648.648 0 00-.078 0 1.012 1.012 0 10.078 2.022h10.882v4.544zm129.174-9.389a9.441 9.441 0 01-9.47 9.389h-1.108l.008-17H162.866v17.007h-1.492a9.442 9.442 0 01-9.47-9.388V44.463a9.439 9.439 0 019.47-9.389h126.577a9.439 9.439 0 019.47 9.389z"/><path class="e" d="M266.47 47.087h-44.665a.648.648 0 00-.078 0 1.012 1.012 0 10.078 2.022h44.746a1.012 1.012 0 10-.08-2.022zm17.83 0h-9.059a.674.674 0 00-.08 0 1.012 1.012 0 00.08 2.022h9.139a1.012 1.012 0 00-.08-2.022z"/><path class="f" d="M249.724 289.973v2.352h5.087v-2.353h-5.084zm14.4-.001h-5.084v2.352h5.085v-2.352zm-18.634 0h-5.084v2.352h5.085v-2.352zm-25.008 0h-35.177v2.352h35.178v-2.352z"/><path class="f" d="M270.922 284.302a6.145 6.145 0 00-2.952-3.494 11.317 11.317 0 00-5.454-1.133h-2.453l3.329-29.4a3.145 3.145 0 00-.9-2.572l-.013.085.011-.085 2.723-17.668a1.178 1.178 0 00-.982-1.342 1.137 1.137 0 00-.182-.013 1.174 1.174 0 00-1.16 1l-2.635 17.106a3.143 3.143 0 00-3.1 2.785l-3.354 29.637a3.15 3.15 0 00.019.467h-59.168a3.011 3.011 0 00.02-.467l-3.353-29.638a3.132 3.132 0 00-3.018-2.768l-.081-.524.081.523c-.028 0-.052-.015-.08-.015l-2.635-17.106a1.176 1.176 0 00-1.16-1 1.136 1.136 0 00-.182.013 1.178 1.178 0 00-.982 1.342l2.722 17.668.012.085-.013-.085a3.145 3.145 0 00-.9 2.572l3.33 29.4h-.923c-2.9 0-5.169.6-6.781 2.083a6.093 6.093 0 00-1.625 2.544 8.315 8.315 0 00-.4 2.666v10.059a8.329 8.329 0 00.4 2.669 6.156 6.156 0 002.955 3.494 11.365 11.365 0 005.451 1.132h75.027c2.9 0 5.169-.6 6.781-2.083a6.08 6.08 0 001.625-2.543 8.33 8.33 0 00.4-2.669v-10.059a8.316 8.316 0 00-.4-2.666zm-4.307 12.454v.273a3.616 3.616 0 01-.154 1.167 1.383 1.383 0 01-.74.86c-.07.039-.175.077-.266.116a5.71 5.71 0 01-1.434.347 10.957 10.957 0 01-1.474.1H187.48a10.759 10.759 0 01-1.689-.126 3.757 3.757 0 01-1.794-.636c-.022-.019-.066-.042-.084-.06l-.369-.6a3.8 3.8 0 01-.154-1.17v-10.059a3.83 3.83 0 01.154-1.17 1.64 1.64 0 01.25-.472c.025-.031.087-.063.118-.093a1.816 1.816 0 01.375-.291 2.866 2.866 0 01.3-.131 5.8 5.8 0 011.442-.34 11.094 11.094 0 011.428-.091h75.07c2.293 0 3.253.508 3.566.822l.37.595a3.654 3.654 0 01.154 1.17z"/></svg>