<svg xmlns="http://www.w3.org/2000/svg" width="1170" height="180" viewBox="0 0 1170 180"><defs><style>.a{fill:none}.b{fill:#1a1818}.c{fill:#191717}.d{fill:#00adef}.e{fill:red}</style></defs><path class="a" d="M0 0h1170v179.786H0z"/><path class="b" d="M303.392 127.49h-.2a25.6 25.6 0 01-3.082-51.018 19.914 19.914 0 0123.1-16.113q.613.109 1.22.257A29.115 29.115 0 01373.139 74.7a18.183 18.183 0 0122.5 16.255 18.17 18.17 0 01-.863 36.28l-.486.012-.326-.006c-.852.003-88.902.249-90.572.249zm16.316-64.564A17.011 17.011 0 00302.8 77.961l-.137 1.18-1.187.088a22.724 22.724 0 001.71 45.381h.209c1.721.073 89.71-.244 90.6-.247l.293.007.443-.009a15.3 15.3 0 00-.483-30.584h-1.44v-1.438a15.3 15.3 0 00-20.3-14.458l-1.595.549-.3-1.655a26.232 26.232 0 00-44.724-13.56l-.6.625-.836-.241a17.107 17.107 0 00-4.754-.677z"/><path class="b" d="M308.22 111.85a3.7 3.7 0 001.3-.887 4.387 4.387 0 001.132-2.958 4.269 4.269 0 00-.3-1.642 4.1 4.1 0 00-.829-1.322 4.012 4.012 0 00-1.3-.905 4.455 4.455 0 00-1.7-.318h-2.4v8.374h2.4a4.153 4.153 0 001.7-.341m-1.7-10.543a7.171 7.171 0 012.7.509 6.991 6.991 0 012.191 1.435 6.613 6.613 0 010 9.5 6.642 6.642 0 01-2.191 1.415 6.848 6.848 0 01-2.7.526h-5.136V101.31zm22.949-.001h2.738v13.39h-2.738zm15.5 8.139a3.547 3.547 0 01-3.693 2.837c-2.857 0-3.769-2.21-3.769-4.281s.912-4.282 3.769-4.282a3.546 3.546 0 013.693 2.838h2.8a6.233 6.233 0 00-6.394-5.477 6.925 6.925 0 000 13.844 6.235 6.235 0 006.394-5.479zm19.661-8.139h2.738v13.39h-2.738zm-11.809.003v5.44h6.023v-5.44h2.738v13.391h-2.738v-5.554h-6.023v5.554h-2.738V101.31zm-58.116 5.544a1.681 1.681 0 111.682-1.683 1.682 1.682 0 01-1.682 1.683m0-5.774a4.092 4.092 0 104.1 4.09 4.092 4.092 0 00-4.1-4.09m22.765 8.517h6.534v2.359h-6.534z"/><path class="b" d="M318.577 101.31l-4.615 13.391h2.9l4.441-13.391z"/><path class="b" d="M320.061 101.31l4.4 13.391h2.907l-4.582-13.391z"/><path class="a" d="M255 0h180v179.786H255zm278.815 114.553l.021 3.8 7.816-1.924-.025-4.07zm-.043-7.003l.02 3.549 7.815-2.2-.019-3.783zm-.044-7.55l.022 4.044 7.819-2.433-.025-4.4zm.132 21.752l.025 4.067 7.81-1.551-.025-4.437zm-11.027 29.885l.02 3.359h6.4l-.024-3.7zm23.674-51.565l9.955-3.1v-5.08l-9.98 3.558zm-12.604 29.089l.023 3.813 7.813-1.1-.024-4.266zm.129 21.874l.025 3.961h7.809l-.025-4.377zm-11.246-6.34l.025 3.7 6.4-.341-.025-3.957zm11.16-8.437l.025 4.145 7.811-.727-.027-4.515zm.04 7.396l.027 4.148 7.809-.417-.027-4.458z"/><path class="a" d="M558.274 83.092l.25.083 25.127 8.41-25.427-9.285-32.846 12.171zm-11.721 24.418l9.914-2.786v-4.24l-9.937 3.094zm50.755 43.753h2.315v3.29h-2.315z"/><path class="a" d="M558.902 87.55l.253.085 27.569 9.22v-3.309l-28.44-9.521-36.92 12.773.126 3.666 20.014-6.72-.011-.159.552-.027zm17.456 63.713h2.315v3.29h-2.315zm-53.616-13.432l.025 3.614 6.4-.595-.025-3.918z"/><path class="a" d="M600.794 154.996h23.3l25.241-.286.4-28.616-23.732-20.41a107.036 107.036 0 00-30.036-2.568l-.58.027v-.011c-.927.045-1.76.051-1.8.051h-.137l-.122-.044-32.561-11.471v20.217a180.651 180.651 0 0133.6-5.026l3.138-.129c12.074-.353 21.031.983 26.633 3.981l.237.127v2.553l-.93.7-.422-.29c-4.478-3.075-13.1-4.523-24.949-4.216l-.508.043-3.129.1c-12.685.677-26.425 3.129-33.674 5.241v5.727a274.527 274.527 0 0133.6-4.418l3.136-.156c11.989-.488 20.95.6 26.606 3.213l.271.125v2.5l-.758.684-.456-.264c-4.634-2.668-13.492-3.826-25.591-3.343l-3.12.153a270.371 270.371 0 00-33.689 4.5v5.835a253.8 253.8 0 0133.64-2.453l3.132-.012c11.761.027 21.16.878 26.471 2.395l.37.106v3.2l-.843-.3c-4.519-1.593-13.75-2.483-26-2.5l-3.123.012a249.826 249.826 0 00-33.652 2.516v5.75c8.694-.973 21.193-1.626 33.64-1.755l3.131-.021c11.47-.048 20.876.419 26.378 1.269l.464.07v2.991l-.721-.124c-5.181-.89-14.485-1.363-26.114-1.324l-3.124.021c-12.365.131-25.188.822-33.654 1.808v5.522c4.172-.005 9.864-.065 16.3-.134h.154c5.437-.062 11.325-.129 17.188-.17l3.128-.021c11.892-.063 20.237.022 26.281.265h1.382v2.9l-2.817-.049c-5.832-.2-13.961-.273-24.837-.217l-3.126.02c-5.461.037-10.945.1-16.062.15l-1.225.013c-7.593.1-12.678.14-16.367.142v5.407l14.426-.019v-4.573h4.658v4.581l16.291-.019v-4.562h4.658zm-78.093-23.614l.021 3.165 6.4-.9-.024-3.533zm-.045-6.872l.022 3.535 6.4-1.269-.02-3.84zm-.089-13.473l.021 3.21 6.4-1.8-.019-3.4zm-.047-7.043l.025 3.54 6.406-1.995-.025-3.83zm.089 13.711l.025 3.4 6.4-1.575-.022-3.627zm-4.564 14.6l-4.351.863.012 2.644 4.358-.613zm-.132-19.818l-4.309 1.341.014 2.943 4.316-1.214zm28.904 42.509h9.646v-5.158l-9.672.517zm9.649-33.656v-5.147l-9.852 2.422.027 4.674zm-38.601-15.689l-4.294 1.533.015 3.137 4.3-1.34zm38.601 24.159v-5.124l-9.806 1.943.026 4.552zm-.001 16.792v-5.041l-9.717.905.025 4.653zm-38.507-27.592l-4.323 1.215.014 3.087 4.33-1.065zm.216 32.875l-4.389.234.009 2.877h4.4zm28.423-36.675l9.869-2.427v-4.6l-9.893 2.783z"/><path class="a" d="M649.323 155.563l-25.216.282h-64.521v-7.1h.586c3.848 0 9.031-.044 16.936-.141l1.224-.015c5.12-.053 10.6-.111 16.068-.149l3.128-.019c11.254-.058 19.575.019 25.463.237l1.03.027v-1.2h-.244c-6.055-.245-14.373-.332-26.24-.266l-3.126.021c-5.859.042-11.747.108-17.182.171h-.152c-6.75.074-12.683.134-16.9.135h-.586v-7.09l.49-.06c8.635-1.04 21.466-1.742 34.321-1.877l3.131-.021c11.257-.039 20.293.4 25.671 1.229v-1.233c-5.481-.792-14.6-1.226-25.664-1.18l-3.124.021c-12.719.133-25.484.813-34.146 1.821l-.679.081v-7.427l.459-.074a249.654 249.654 0 0134.352-2.607l3.132-.012c11.718.019 20.758.839 25.67 2.314v-1.281c-5.24-1.414-14.327-2.205-25.667-2.233l-3.124.012a253.533 253.533 0 00-34.113 2.543l-.71.111v-7.539l.437-.083a273.346 273.346 0 0134.335-4.61l3.136-.153c12.023-.479 20.656.583 25.706 3.154v-1.419c-5.458-2.424-14.089-3.423-25.633-2.959l-3.12.155a275.485 275.485 0 00-34.126 4.532l-.734.139v-7.39l.363-.109c7.231-2.163 21.375-4.717 34.412-5.412l3.148-.134c12.1-.373 20.725.987 25.69 4.029v-1.514c-5.4-2.792-14.021-4.033-25.642-3.691l-3.12.128a179.341 179.341 0 00-34.058 5.187l-.793.219V90.31l34.111 12.021c.346 0 1.292-.022 2.159-.083l.6-.041v.034a108.139 108.139 0 0128.169 2.266l-.435-.373a99.829 99.829 0 00-28.481-2.731l-.386.015-7.69-2.809v-.514l-28.726-9.607-16.595 5.914-21.7 7.285.044 1.688-7.684 2.838v.229l6.044-2.155.032 5.25-6.053 1.884.008 1.662 6.058-1.886.033 4.937-6.069 1.706.008 1.638 6.072-1.707.033 5.083-6.082 1.494.007 1.614 6.085-1.5.033 5.144-6.1 1.208.007 1.584 6.1-1.209.031 4.7-6.11.861.007 1.558 6.109-.859.037 5.169-6.123.569.007 1.547 6.13-.571.03 5.271-6.136.324.007 1.535 6.136-.328.037 4.873h-6.152v.708h-2.445v3.145h148.446v-3.145h-9.913zm-127.979-52.1l8.744-3.117.038 5.747-8.746 2.721zm.048 7.012l8.744-2.721.031 5.27-8.742 2.457zm.043 6.646l8.742-2.46.034 5.472-8.739 2.149zm.046 6.774l8.74-2.149.032 5.668-8.737 1.734zm.045 6.836l8.736-1.731.034 5.342-8.742 1.228zm.042 6.4l8.737-1.227.033 5.691-8.738.813zm.044 6.817l8.738-.813.032 5.709-8.737.468zm.074 11.9l-.032-5 8.737-.468.033 5.468zm10.867-56.373l10.155-3.621.036 6.317-10.158 3.163zm.045 7.52l10.155-3.161.03 5.65-10.153 2.856zm.042 6.981l10.152-2.855.037 5.915-10.156 2.5zm.046 7.171l10.153-2.5.032 6.266-10.153 2.019zm.042 7.37l10.153-2.014.032 6.076-10.155 1.425zm.044 7.045l10.151-1.425.034 6.288-10.153.945zm.044 7.349l10.15-.946.034 6.21-10.15.543zm.073 12.937l-.032-5.6 10.15-.543.034 6.143zm12.419-60.922l12.325-4.394v7l-12.29 3.83zm.047 8.1l12.281-3.823v6.107l-12.247 3.443zm.042 7.364l12.238-3.442v6.447l-12.207 3zm.131 23.382l12.108-1.7v6.987l-12.071 1.124zm.122 22.077l-.034-6.278 12.018-.644v6.922zm11.986-8.455l-12.03.643-.032-6.313 12.062-1.123zm0-16.879l-12.118 1.7-.034-6.226 12.152-2.41zm0-8.525l-12.161 2.413-.039-6.392 12.2-3z"/><path class="a" d="M518.126 145.13l-4.374.407.015 3.345 4.383-.233zm-.04-6.645l-4.363.612.015 3.188 4.369-.406zm-.083-12.834l-4.339 1.066.016 3.111 4.343-.862zm28.729 13.559l9.734-.9v-5.214l-9.762 1.365z"/><path class="b" d="M652.359 154.291l.4-29.033-26.413-22.718-.39-.332-.557-.153a103.091 103.091 0 00-29.441-2.921l-5.3-1.935V91.63l-31.249-11.409-1.078-.483-39.555 14.658-1.345.573.187 7.013-7.654 2.828.231 49.48h-2.434v7.67h84.132l4.206.016 66.139-.015v-7.67zm-56.231-3.876v4.562l-16.291.019v-4.586h-4.658v4.563l-14.426.019v-5.402c3.689 0 8.774-.042 16.367-.142l1.225-.013c5.117-.05 10.6-.113 16.062-.15l3.126-.02c10.876-.056 19.005.017 24.837.217l2.817.049v-2.9h-1.382c-6.044-.243-14.389-.328-26.281-.265l-3.128.021c-5.863.041-11.751.108-17.188.17h-.154c-6.436.069-12.128.129-16.3.134v-5.522c8.466-.986 21.289-1.677 33.654-1.808l3.124-.021c11.629-.039 20.933.434 26.114 1.324l.721.124v-2.991l-.464-.07c-5.5-.85-14.908-1.317-26.378-1.269l-3.131.021c-12.447.129-24.946.782-33.64 1.755v-5.75a249.826 249.826 0 0133.652-2.516l3.123-.012c12.25.017 21.481.907 26 2.5l.843.3v-3.2l-.37-.106c-5.311-1.517-14.71-2.368-26.471-2.395l-3.132.012a253.8 253.8 0 00-33.64 2.453v-5.83a270.371 270.371 0 0133.689-4.5l3.12-.153c12.1-.483 20.957.675 25.591 3.343l.456.264.758-.684v-2.5l-.271-.125c-5.656-2.613-14.617-3.7-26.606-3.213l-3.136.156a274.527 274.527 0 00-33.6 4.418v-5.727c7.249-2.112 20.989-4.564 33.674-5.241l3.129-.1.508-.043c11.844-.307 20.471 1.141 24.949 4.216l.422.29.93-.7v-2.553l-.237-.127c-5.6-3-14.559-4.334-26.633-3.981l-3.138.129a180.651 180.651 0 00-33.6 5.026V91.668l32.561 11.471.122.044h.137c.04 0 .873-.006 1.8-.051v.011l.58-.027A107.036 107.036 0 01626 105.684l23.732 20.41-.4 28.616-25.241.286h-23.3l-.008-4.581zm3.5.848v3.29h-2.315v-3.29zm-20.95 0v3.29h-2.315v-3.29zm-37.169-57.519l-20.014 6.72-.126-3.666 36.92-12.773 28.44 9.521v3.309l-27.569-9.22-.253-.085-16.857 6.008-.552.027zm42.147-2.159l-25.127-8.41-.25-.083-32.9 11.379L558.225 82.3zm75.571 68.113H510.776v-3.145h2.445v-.708h6.152l-.037-4.873-6.136.328-.007-1.535 6.136-.324-.03-5.271-6.13.571-.007-1.547 6.123-.569-.037-5.169-6.109.859-.007-1.558 6.11-.861-.031-4.7-6.1 1.209-.007-1.584 6.1-1.208-.033-5.144-6.085 1.5-.007-1.614 6.082-1.494-.033-5.083-6.072 1.707-.008-1.638 6.069-1.706-.033-4.937-6.058 1.886-.008-1.662 6.053-1.884-.032-5.25-6.044 2.155v-.229l7.684-2.838-.044-1.688 21.7-7.285 16.595-5.914 28.726 9.607v.514l7.69 2.809.386-.015a99.829 99.829 0 0128.481 2.731l.435.373a108.139 108.139 0 00-28.169-2.266v-.038l-.6.041c-.867.061-1.813.083-2.159.083L559.596 90.31v22.8l.793-.219a179.341 179.341 0 0134.058-5.187l3.12-.128c11.621-.342 20.242.9 25.642 3.691v1.512c-4.965-3.042-13.59-4.4-25.69-4.029l-3.148.134c-13.037.7-27.181 3.249-34.412 5.412l-.363.109v7.393l.734-.139a275.485 275.485 0 0134.126-4.532l3.12-.155c11.544-.464 20.175.535 25.633 2.959v1.419c-5.05-2.571-13.683-3.633-25.706-3.154l-3.136.153a273.346 273.346 0 00-34.335 4.61l-.437.083v7.539l.71-.111a253.533 253.533 0 0134.113-2.543l3.124-.012c11.34.028 20.427.819 25.667 2.233v1.281c-4.912-1.475-13.952-2.3-25.67-2.314l-3.132.012a249.654 249.654 0 00-34.352 2.607l-.459.074v7.426l.679-.081c8.662-1.008 21.427-1.688 34.146-1.821l3.124-.021c11.064-.046 20.183.388 25.664 1.18v1.233c-5.378-.829-14.414-1.268-25.671-1.229l-3.131.021c-12.855.135-25.686.837-34.321 1.877l-.49.06v7.09h.586c4.217 0 10.15-.061 16.9-.135h.152a3901.23 3901.23 0 0117.182-.171l3.126-.021c11.867-.066 20.185.021 26.24.266h.244v1.2l-1.03-.027c-5.888-.218-14.209-.295-25.463-.237l-3.128.019c-5.468.038-10.948.1-16.068.149l-1.224.015c-7.905.1-13.088.141-16.936.141h-.586v7.1h64.516l25.216-.282-.014.99h9.913zm-145.441-7.579l4.389-.234.02 3.111h-4.4zm-.033-6.582l4.374-.407.024 3.519-4.383.233zm-.031-6.44l4.363-.612.021 3.394-4.369.406zm-.027-5.929l4.351-.863.019 2.894-4.358.613zm-.03-6.451l4.339-1.066.02 3.315-4.343.862zm-.029-6.49l4.323-1.215.021 3.237-4.33 1.065zm-.031-6.4l4.309-1.341.021 3.07-4.316 1.214zm-.032-6.644l4.293-1.533.021 3.33-4.3 1.34z"/><path class="b" d="M521.654 150.845l.032 5h8.738l-.033-5.468zm1.2 4.151l-.02-3.359 6.391-.341.024 3.7zm34.782-55.797l-12.281 3.823.034 5.727 12.247-3.443zm-1.17 5.527l-9.913 2.786-.023-3.932 9.936-3.094zm1.167-14.197l-12.325 4.394.035 6.436 12.29-3.83zm-1.171 6.443l-9.955 3.1-.025-4.622 9.98-3.558zm-26.376 3.378l-8.744 3.117.036 5.351 8.746-2.721zm-7.544 7.184l-.024-3.54 6.406-2.285.024 3.83zm35.093-.59l-12.238 3.442.031 6.007 12.207-3zm-1.169 5.839l-9.869 2.427-.024-4.244 9.893-2.783zm-13.543 21.351l-10.151 1.425.032 5.808 10.153-.945zm-8.952 6.269l-.025-4.145 7.809-1.1.027 4.515zm8.995 1.559l-10.15.946.034 5.807 10.15-.543zm-8.949 5.84l-.027-4.148 7.809-.727.027 4.458zm11.502-15.592l12.118-1.7v-6.936l-12.152 2.41zm10.947-7.523v5.123l-9.78 1.371-.026-4.552zm-10.988-.288l12.161-2.413v-6.976l-12.2 3zm10.988-8.206v5.147l-9.825 1.949-.027-4.674zm-10.85 33.374l.034 6.278h11.984v-6.922zm10.847 5.429h-9.646l-.026-4.641 9.672-.517zm-10.857-6.963l12.03-.643v-6.793l-12.062 1.123zm10.859-6.472v5.041l-9.692.517-.025-4.653zm1.171-9.493l-12.108 1.7.037 6.411 12.071-1.124zm-1.17 6.247l-9.734.9-.028-4.749 9.762-1.365zm-23.609 11.93l.032 5.6h10.152l-.034-6.143zm1.2 4.751l-.025-3.961 7.809-.416.025 4.377zm-3.795-25.992l-8.736 1.731.028 4.839 8.742-1.228zm-7.54 5.543l-.021-3.165 6.4-1.268.024 3.533zm7.499-12.797l-8.74 2.149.035 5.253 8.737-1.734zm-7.543 6.292l-.022-3.535 6.4-1.574.02 3.84zm7.499-13.377l-8.742 2.46.037 5.161 8.739-2.149zm-7.543 6.44l-.025-3.4 6.4-1.8.022 3.627zm7.502-13.347l-8.744 2.721.033 5.006 8.742-2.457zm-7.548 6.489l-.021-3.21 6.4-1.99.019 3.4zm7.717 21.658l-8.737 1.227.032 5.277 8.738-.813zm-7.538 5.54l-.025-3.614 6.4-.9.025 3.918zm20.025-30.327l-10.152 2.855.033 5.559 10.156-2.5zm-8.956 7.235l-.021-3.8 7.812-2.194.025 4.07zm-3.486 24.783l-8.738.813.033 5.364 8.737-.468zm-7.537 5.259l-.025-3.7 6.4-.6.025 3.957zm20.026-29.751l-10.153 2.5.032 5.785 10.153-2.019zm-8.953 7.175l-.025-4.067 7.81-1.921.025 4.437zm8.995.681l-10.153 2.014.03 5.487 10.155-1.425zm-8.955 6.474l-.023-3.813 7.812-1.553.024 4.266zm8.827-29.143l-10.155 3.161.032 5.345 10.153-2.856zm-8.961 7.268l-.02-3.549 7.816-2.434.019 3.783zm8.916-15.248l-10.155 3.621.033 5.859 10.158-3.163zm-8.958 8.193l-.022-4.044 7.815-2.789.025 4.4z"/><path class="a" d="M495 0h180v180H495z"/><path class="a" d="M571.128 39.836a6.588 6.588 0 00-.02 13.176 6.709 6.709 0 001.176-.1v-12.97a6.58 6.58 0 00-1.156-.1z"/><path class="c" d="M607.324 43.8a8.835 8.835 0 00-6.349-5.963v-5.294a15.4 15.4 0 00-30.8 0v5.081a8.851 8.851 0 103.572 17.255l.8-.248v-16.41l-.8-.248a8.7 8.7 0 00-1.315-.3v-5.13a13.14 13.14 0 0126.28 0v5.038a8.808 8.808 0 00-2.463.392l-.8.247v16.406l.8.248a8.807 8.807 0 002.2.368 13.164 13.164 0 01-7.132 9.186 3.721 3.721 0 00-3.3-2.037h-4.031a3.735 3.735 0 00-3.731 3.73v1.56a3.735 3.735 0 003.731 3.729h4.028a3.732 3.732 0 003.729-3.729v-.949a15.421 15.421 0 009.024-11.69c.243-.054.489-.093.727-.167a8.849 8.849 0 005.83-11.075zm-35.038 9.11a6.709 6.709 0 01-1.176.1 6.588 6.588 0 01.02-13.176 6.58 6.58 0 011.156.1zm17.2 13.213v1.56a1.469 1.469 0 01-1.467 1.467h-4.033a1.47 1.47 0 01-1.468-1.467v-1.56a1.469 1.469 0 011.468-1.467h4.028a1.468 1.468 0 011.472 1.465zm8.232-13.21V39.938a6.5 6.5 0 011.165-.1 6.588 6.588 0 11-.009 13.176 6.8 6.8 0 01-1.158-.104z"/><path class="a" d="M860.189 116.536l8.112 8.061.2 4.731-7.829-1.658z"/><path class="a" d="M775.589 146.356v-1.138h-13.266v-5.064h1.9a1.033 1.033 0 001.024-1.037v-12.861a1.032 1.032 0 00-1.024-1.038h-1.9v-.683c-.006-.194-.46-14.493 3.7-23.345a.284.284 0 01.257-.149h70.821a20.6 20.6 0 0114.341 5.765l4.777 4.587a10.4 10.4 0 00-5.482-1.555h-3.731a1.506 1.506 0 00-1.508 1.5c0 .051 0 .1.008.153l1.123 11.737a3.633 3.633 0 002.871 3.223l10.078 2.14v.005l9.132 1.933v.032l7.212 1.513.559-1.019-7.14-7.025-1.088-1.081 4.066 3.9a4.719 4.719 0 001.024.75l11.592 6.347a1.964 1.964 0 01.274.194l-.451.029a.638.638 0 00-.5.973 47.755 47.755 0 002.048 3.122l.431 3.492a2.712 2.712 0 00.692 1.5l-1.193 4.028a2.646 2.646 0 01-1.337 1.6 11.5 11.5 0 00-11.65-10.017c-6.455 0-11.706 4.977-11.706 11.1 0 .278-.009.764-.02 1.241v.002h-61.05c0-.458-.007-.9-.007-1.244 0-.06-.009-.118-.01-.178h58.4v-1.138h-58.481a11.518 11.518 0 00-11.616-9.784c-6.454 0-11.705 4.977-11.705 11.1v.626l-14.731-3.75v-.486zm24.25 0h59.017v-1.138h-59.017zm50.175-38.293c.739 0 1.334-.3 1.334-.669s-.595-.666-1.334-.666h-84.436c-.738 0-1.335.3-1.335.666s.6.669 1.335.669z"/><path class="a" d="M762.327 136.87v-.579h1.66l.123-.122v.824l-.123-.123zm87.409-11.532a2.5 2.5 0 01-1.975-2.217l-1.123-11.74a.37.37 0 01.33-.408h3.769a9.281 9.281 0 016.609 2.736l.76.76.553 12.771zm-87.409 12.481h1.66l.123-.124v1.321h-1.783zm1.656-2.475h-1.66v-2.657h1.783v2.78zm-1.66-8.989h1.783v3.096h-1.783z"/><path class="b" d="M763.419 99.959a3.167 3.167 0 012.859-1.8h70.818a23.466 23.466 0 0116.331 6.567l20.885 20.053a1.927 1.927 0 00.406.3l11.6 6.349a4.868 4.868 0 012.493 3.665l.73 6.213a2.408 2.408 0 01.726 2.492l-1.275 4.3a5.533 5.533 0 01-3.512 3.656l-.618.212a2.108 2.108 0 01-2.786-2c0-4.534-3.96-8.22-8.829-8.22s-8.83 3.686-8.83 8.22c0 .5-.024 1.62-.04 2.25a1.923 1.923 0 01-1.913 1.871h-62.947a1.919 1.919 0 01-1.91-1.893c-.008-.769-.018-1.635-.018-2.235 0-4.534-3.961-8.22-8.828-8.22s-8.83 3.686-8.83 8.22v1.9a1.884 1.884 0 01-2.346 1.835l-16.216-4.128a2.538 2.538 0 01-1.922-2.466v-22.522c-.021-.613-.486-15.133 3.972-24.619zm93.928 13.748a9.281 9.281 0 00-6.609-2.736h-3.769a.37.37 0 00-.33.408l1.123 11.74a2.5 2.5 0 001.975 2.217l8.923 1.9-.553-12.771zm12.559 12.792l.137 2.925 3.575.748zm-1.6-1.9l-8.112-8.061.483 11.134 7.829 1.658zm-91.247 26v-.626c0-6.123 5.251-11.1 11.705-11.1a11.518 11.518 0 0111.616 9.784h58.481v1.138h-58.4c0 .06.01.118.01.178 0 .344.007.786.007 1.244h61.05v.005c.011-.477.019-.963.02-1.241 0-6.123 5.251-11.1 11.706-11.1a11.5 11.5 0 0111.65 10.017 2.646 2.646 0 001.337-1.6l1.193-4.028a2.712 2.712 0 01-.692-1.5l-.431-3.492a47.755 47.755 0 01-2.048-3.122.638.638 0 01.5-.973l.451-.029a1.964 1.964 0 00-.274-.194l-11.592-6.347a4.719 4.719 0 01-1.024-.75l-4.066-3.9 1.088 1.081 7.14 7.025-.559 1.019-7.212-1.513v-.032l-9.132-1.933v-.005l-10.078-2.14a3.633 3.633 0 01-2.871-3.223l-1.123-11.737a1.536 1.536 0 01-.008-.153 1.506 1.506 0 011.508-1.5h3.731a10.4 10.4 0 015.482 1.555l-4.777-4.587a20.6 20.6 0 00-14.341-5.765h-70.821a.284.284 0 00-.257.149c-4.16 8.852-3.706 23.151-3.7 23.345v.683h1.9a1.032 1.032 0 011.024 1.038v12.861a1.033 1.033 0 01-1.024 1.037h-1.9v5.064h13.258v1.138H762.32v.486zm-12.948-14.423l-.123.122h-1.66v.579h1.66l.123.123zm-1.783-6.718h1.783v-3.1h-1.783zm0 3.236v2.657h1.66l.123.123v-2.78zm1.783 5.008l-.123.124h-1.66v1.2h1.783z"/><path class="b" d="M764.243 107.394c0-.366.6-.666 1.335-.666h84.436c.739 0 1.334.3 1.334.666s-.595.669-1.334.669h-84.436c-.735 0-1.335-.303-1.335-.669zm24.364 34.468a8.62 8.62 0 11-8.621 8.619 8.62 8.62 0 018.621-8.619zm0 13.516a4.893 4.893 0 10-4.9-4.891 4.893 4.893 0 004.9 4.891z"/><path class="b" d="M788.607 147.954a2.528 2.528 0 11-2.528 2.528 2.528 2.528 0 012.528-2.528zm84.722-6.092a8.62 8.62 0 11-8.621 8.619 8.62 8.62 0 018.623-8.619zm0 13.518a4.894 4.894 0 10-4.9-4.893 4.894 4.894 0 004.903 4.893z"/><path class="b" d="M873.331 147.954a2.527 2.527 0 11-2.528 2.528 2.527 2.527 0 012.528-2.528zm-73.492-2.736h59.017v1.138h-59.017z"/><path class="a" d="M735 .214h179.786V180H735z"/><path class="b" d="M811.886 69.163a10.7 10.7 0 01-3.133-.473l-1.8-.554 6.727-6.718-.977-3.646-3.651-.978-6.728 6.717-.554-1.793a10.533 10.533 0 012.625-10.586 10.679 10.679 0 018.548-3.038l.236.03.134.017.189.025a4.51 4.51 0 003.823-1.282l9.907-9.894a4.5 4.5 0 001.283-3.818l-.076-.555.007-.007a10.569 10.569 0 0113.641-11.159l1.792.553-6.723 6.718.976 3.649 3.653.975 6.727-6.716.554 1.79a10.527 10.527 0 01-2.625 10.586 10.675 10.675 0 01-8.3 3.062l-.009.016-.8-.109a4.492 4.492 0 00-3.768 1.23l-10.013 10a4.484 4.484 0 00-1.228 3.758 10.573 10.573 0 01-8.818 12.074 10.7 10.7 0 01-1.619.126zm-.478-2.275a8.2 8.2 0 006.341-2.419 8.316 8.316 0 002.332-7.174 6.765 6.765 0 011.85-5.668l10.046-10.033a6.616 6.616 0 014.837-1.923l.032-.062.818.127a8.31 8.31 0 009.606-8.664l-4.8 4.8-6.178-1.651-1.653-6.171 4.8-4.8a8.309 8.309 0 00-8.673 9.59l.09.568-.035.034a6.73 6.73 0 01-1.979 5.144l-9.908 9.9a6.672 6.672 0 01-5.151 1.977l-.032.032-.572-.086a8.3 8.3 0 00-9.6 8.664l4.8-4.794 6.176 1.654 1.653 6.168zm29.9 1.241a3.676 3.676 0 01-2.609-1.074l-9.344-9.331.632-.632a5.626 5.626 0 00-1.543-2.277 7.139 7.139 0 00-1.87-1.39l-1.46-.684 7.986-7.974.683 1.46a7.239 7.239 0 001.391 1.869 5.669 5.669 0 002.278 1.538l.632-.634 9.344 9.335a3.686 3.686 0 010 5.209l-3.515 3.51a3.657 3.657 0 01-2.601 1.075zm-1.01-2.675a1.468 1.468 0 002.015 0l3.516-3.511a1.424 1.424 0 000-2.014l-8.042-8.033c-.069.007-.172.006-.215.011a6.527 6.527 0 01-4-2.218 11.373 11.373 0 01-1.024-1.179l-3.685 3.677a10.952 10.952 0 011.179 1.026c1.316 1.312 2.325 2.949 2.214 4.209zm-20.272-22.366l-8.327-8.319-4.32-1.924-3.855-6.36 3.286-3.287 6.369 3.853 1.926 4.313 8.328 8.317zm-11.078-12.019l4.055 1.807 7.023 7.014.208-.208-7.024-7.014-1.809-4.049-4.245-2.567-.778.777z"/><path class="b" d="M842.519 63.48a.866.866 0 01-.624-.261l-7.889-7.886a.876.876 0 01-.008-1.239l.008-.008.453-.457a.89.89 0 011.249 0l7.9 7.887a.881.881 0 010 1.246l-.458.457a.87.87 0 01-.631.261zm-7.413-9.25l-.5.458 7.894 7.935a.047.047 0 00.022.009l.482-.467z"/><path class="a" d="M1094.262 134.684a.645.645 0 01-.051-1.289h6.987v-3.223h-72.157v3.223h59.645a.645.645 0 01.051 1.289h-59.692v2.9h72.157v-2.9z"/><path class="a" d="M1105.338 97.71h-80.677a6.016 6.016 0 00-6.036 5.984v27.908a6.018 6.018 0 006.036 5.984h.951v-10.84h79.025l-.005 10.836h.706a6.017 6.017 0 006.036-5.984v-27.9a6.016 6.016 0 00-6.036-5.988zm-13.64 8.945h-28.52a.645.645 0 11-.051-1.289h28.52a.645.645 0 11.051 1.289zm11.362 0h-5.825a.645.645 0 11-.051-1.289h5.825a.645.645 0 01.051 1.289z"/><path class="c" d="M1105.338 94.279h-80.677a9.453 9.453 0 00-9.471 9.414v27.9a9.454 9.454 0 009.471 9.414h80.677a9.452 9.452 0 009.47-9.41v-27.904a9.451 9.451 0 00-9.47-9.414zm-76.3 43.3v-2.9h59.692a.645.645 0 00-.051-1.289h-59.641v-3.223h72.157v3.223h-6.987a.645.645 0 00.051 1.289h6.936v2.9zm82.333-5.984a6.017 6.017 0 01-6.036 5.984h-.706l.005-10.836h-79.025v10.84h-.951a6.018 6.018 0 01-6.036-5.984v-27.906a6.016 6.016 0 016.036-5.984h80.677a6.016 6.016 0 016.036 5.984zm-34.353 12.415a.646.646 0 00-.646.646v10.118a.647.647 0 00.646.645.646.646 0 00.641-.644V144.66a.645.645 0 00-.641-.65zm-33.315-.1a.646.646 0 00-.814.414 23.682 23.682 0 01-2.229 4.836 31.7 31.7 0 01-3.947 5.182.645.645 0 00.473 1.082.647.647 0 00.47-.206 33.054 33.054 0 004.105-5.394 25.026 25.026 0 002.352-5.1.645.645 0 00-.41-.814zm21.389.08a.645.645 0 00-.619.67v10.118a.647.647 0 00.645.645.646.646 0 00.641-.644V144.66a.444.444 0 000-.051.645.645 0 00-.667-.619zm-11.874.02a.646.646 0 00-.646.646v10.118a.647.647 0 00.646.645.646.646 0 00.644-.644V144.66a.646.646 0 00-.644-.65z"/><path class="c" d="M1103.009 105.365h-5.823a.645.645 0 10.051 1.289h5.825a.645.645 0 00-.051-1.289zm-11.362 0h-28.52a.645.645 0 10.051 1.289h28.52a.645.645 0 10-.051-1.289zm-1.961 43.793a23.734 23.734 0 01-2.231-4.836l-.009-.03a.645.645 0 00-1.217.43 25.056 25.056 0 002.353 5.1 32.962 32.962 0 004.1 5.394.651.651 0 00.472.207.651.651 0 00.436-.171.644.644 0 00.037-.911 31.7 31.7 0 01-3.941-5.183z"/><path class="a" d="M975 0h180v179.786H975z"/><path class="a" d="M1059.164 40.942h-5.878a.4.4 0 00-.389.388v11.2a.391.391 0 00.389.388h5.879a.39.39 0 00.39-.388v-11.2a.4.4 0 00-.391-.388zm18.332 2.779l-.157-.557.045-.152a2.18 2.18 0 00-.025-1.413 1.683 1.683 0 00-1.427-1.213 6.428 6.428 0 00-.951-.026l-1.475.019-1.533-.01a1.149 1.149 0 01-.9-.375c-.35-.43-.232-1.03-.055-1.936a16.9 16.9 0 00.365-4.569c-.072-1.208-.709-1.941-1.3-2.039a.681.681 0 00-.143-.013.939.939 0 00-.837.7 12.138 12.138 0 00-.485 1.575c-.444 1.742-1.568 4.917-4.089 6.616a5.886 5.886 0 01-2.957 1l-.085 11.25a9.536 9.536 0 013.445.852 8.244 8.244 0 003.741.776c1.176.007 2.348.011 3.528.005h2a1.733 1.733 0 001.549-.765 2.084 2.084 0 00.277-1.823l-.047-.173.239-.609.193-.091a1.783 1.783 0 00.991-1.2 2.175 2.175 0 00-.029-1.314l-.123-.365.305-.234a2.1 2.1 0 00.8-1.776 3.287 3.287 0 00-.676-2.033z"/><path class="a" d="M1084.511 27.879h-39.832a3.162 3.162 0 00-3.157 3.157V71.07a.162.162 0 10.19.262.159.159 0 00.067-.132l13.311-9.43h29.421a3.16 3.16 0 003.155-3.157V31.036a3.159 3.159 0 00-3.155-3.157zm-6.075 21.962a2.874 2.874 0 01-1.311 1.737 3.119 3.119 0 01-.488 2.464 2.775 2.775 0 01-2.453 1.236 56.27 56.27 0 00-1.694 0h-.285c-.445.011-.886.012-1.328.012q-1.1 0-2.214-.009a9.351 9.351 0 01-4.152-.86 9.152 9.152 0 00-3.031-.814 1.034 1.034 0 01-.945-.567 1.467 1.467 0 01-1.371.954h-5.878a1.471 1.471 0 01-1.469-1.467v-11.2a1.47 1.47 0 011.469-1.467h5.879a1.465 1.465 0 011.37.951 1.027 1.027 0 01.912-.57 4.834 4.834 0 002.484-.816c2.223-1.5 3.238-4.394 3.644-5.987a13.172 13.172 0 01.534-1.717 1.954 1.954 0 012.151-1.342 3.019 3.019 0 012.2 3.041 17.837 17.837 0 01-.385 4.839 6.517 6.517 0 00-.153 1.023h.071l1.071.008.445-.012h1.052l.4-.005a7.714 7.714 0 011.117.037 2.727 2.727 0 012.294 1.9 3.2 3.2 0 01.106 1.875 4.382 4.382 0 01.952 2.521 7.178 7.178 0 00-.994 4.235z"/><path class="d" d="M1084.51 25h-39.832a6.043 6.043 0 00-6.036 6.036V71.07a3.124 3.124 0 001.521 2.939 2.545 2.545 0 001.182.285 3.681 3.681 0 002.1-.745l12.564-8.9h28.5a6.042 6.042 0 006.035-6.036V31.036A6.042 6.042 0 001084.51 25zm3.156 33.613a3.16 3.16 0 01-3.155 3.157h-29.425l-13.311 9.43a.159.159 0 01-.067.132.162.162 0 11-.19-.262V31.036a3.162 3.162 0 013.157-3.157h39.832a3.159 3.159 0 013.155 3.157z"/><path class="d" d="M1078.477 43.085a3.2 3.2 0 00-.106-1.875 2.727 2.727 0 00-2.294-1.9 7.714 7.714 0 00-1.117-.037l-.4.005h-1.052l-.445.012-1.071-.008h-.071a6.517 6.517 0 01.153-1.023 17.837 17.837 0 00.385-4.839 3.019 3.019 0 00-2.2-3.041 1.954 1.954 0 00-2.151 1.342 13.172 13.172 0 00-.534 1.717c-.406 1.593-1.421 4.487-3.644 5.987a4.834 4.834 0 01-2.484.816 1.027 1.027 0 00-.912.57 1.465 1.465 0 00-1.37-.951h-5.878a1.47 1.47 0 00-1.469 1.467v11.2a1.471 1.471 0 001.469 1.467h5.879a1.467 1.467 0 001.371-.954 1.034 1.034 0 00.945.567 9.152 9.152 0 013.031.814 9.351 9.351 0 004.152.86q1.115.009 2.214.009c.442 0 .883 0 1.328-.012h.285a56.27 56.27 0 011.694 0 2.775 2.775 0 002.453-1.236 3.119 3.119 0 00.488-2.464 2.874 2.874 0 001.311-1.737 7.178 7.178 0 01.993-4.235 4.382 4.382 0 00-.953-2.521zm-18.923 9.445a.39.39 0 01-.39.388h-5.878a.391.391 0 01-.389-.388v-11.2a.4.4 0 01.389-.388h5.879a.4.4 0 01.39.388zm18-4.893l-.305.234.123.365a2.175 2.175 0 01.029 1.314 1.783 1.783 0 01-.991 1.2l-.193.091-.239.609.047.173a2.084 2.084 0 01-.277 1.823 1.733 1.733 0 01-1.549.765h-2c-1.18.006-2.352 0-3.528-.005a8.244 8.244 0 01-3.741-.776 9.536 9.536 0 00-3.445-.852l.085-11.25a5.886 5.886 0 002.957-1c2.521-1.7 3.645-4.874 4.089-6.616a12.138 12.138 0 01.485-1.575.939.939 0 01.837-.7.681.681 0 01.143.013c.591.1 1.228.831 1.3 2.039a16.9 16.9 0 01-.365 4.569c-.177.906-.295 1.506.055 1.936a1.149 1.149 0 00.9.375l1.533.01 1.475-.019a6.428 6.428 0 01.951.026 1.683 1.683 0 011.427 1.213 2.18 2.18 0 01.025 1.413l-.045.152.157.557.184.107a3.287 3.287 0 01.676 2.033 2.1 2.1 0 01-.803 1.776zM204.865 89.762h40.271v1.587h-40.271z"/><path class="d" d="M255 90.555l-12.814-4.663s2.949 4.663 0 9.327L255 90.555m-60 0l12.811 4.664s-2.949-4.664 0-9.327l-12.813 4.663m249.867-.793h40.271v1.587h-40.271z"/><path class="d" d="M495 90.555l-12.814-4.663s2.949 4.663 0 9.327L495 90.555m-60 0l12.811 4.664s-2.949-4.664 0-9.327l-12.813 4.663M675 89.768h50.136v1.587H675z"/><path class="d" d="M735 90.561l-12.814-4.663s2.95 4.663 0 9.327L735 90.561m180-.793h50.136v1.587H915z"/><path class="d" d="M975 90.561l-12.814-4.663s2.95 4.663 0 9.327L975 90.561"/><path class="a" d="M145.338 97.71H64.661a6.016 6.016 0 00-6.036 5.984v27.908a6.018 6.018 0 006.036 5.984h.951v-10.84h79.025l-.005 10.836h.706a6.017 6.017 0 006.036-5.984v-27.9a6.016 6.016 0 00-6.036-5.988zm-13.64 8.946h-28.52a.645.645 0 11-.05-1.289h28.519a.645.645 0 11.051 1.289zm11.364 0h-5.825a.645.645 0 01-.051-1.289h5.825a.645.645 0 01.051 1.289z"/><path class="a" d="M134.262 134.685a.645.645 0 11-.05-1.289.4.4 0 01.05 0h6.936v-3.224H69.041v3.224h59.645a.645.645 0 01.051 1.289H69.041v2.9h72.157v-2.9z"/><path class="c" d="M145.338 94.279H64.661a9.453 9.453 0 00-9.471 9.414v27.9a9.454 9.454 0 009.471 9.414h80.677a9.452 9.452 0 009.47-9.41v-27.904a9.451 9.451 0 00-9.47-9.414zm-76.3 43.3v-2.9h59.692a.645.645 0 00-.051-1.289H69.041v-3.224h72.157v3.224h-6.936a.4.4 0 00-.05 0 .645.645 0 10.05 1.289h6.936v2.9zm82.333-5.984a6.017 6.017 0 01-6.036 5.984h-.706l.005-10.836H65.612v10.84h-.951a6.018 6.018 0 01-6.036-5.984v-27.906a6.016 6.016 0 016.036-5.984h80.677a6.016 6.016 0 016.036 5.984z"/><path class="c" d="M131.647 105.366h-28.519a.645.645 0 10.05 1.289h28.52a.645.645 0 10-.051-1.289zm11.364 0h-5.825a.645.645 0 00.051 1.289h5.825a.645.645 0 00-.051-1.289z"/><path class="a" d="M15 0h180v179.786H15z"/><path class="a" d="M15 0h180v179.786H15z"/><path class="a" d="M104.647 27.8a21.847 21.847 0 1021.847 21.847A21.847 21.847 0 00104.647 27.8zm10.225 31.294l-.778.777-9.447-9.447-9.448 9.447-.778-.777 9.448-9.448-9.448-9.447.778-.778 9.448 9.448 9.447-9.448.778.778-9.448 9.447z"/><path class="e" d="M104.647 25a24.647 24.647 0 1024.647 24.647A24.647 24.647 0 00104.647 25zm0 46.494a21.847 21.847 0 1121.847-21.847 21.847 21.847 0 01-21.847 21.847z"/><path class="e" d="M114.094 39.421l-9.448 9.448-9.448-9.448-.777.777 9.448 9.448-9.448 9.448.777.777 9.448-9.448 9.448 9.448.777-.777-9.448-9.448 9.448-9.448z"/></svg>