<svg xmlns="http://www.w3.org/2000/svg" xmlns:xlink="http://www.w3.org/1999/xlink" width="570" height="400" viewBox="0 0 570 400"><defs><style>.a{fill:#fff;}.b{fill:url(#a);}.c{fill:#231f20;}.d{filter:url(#b);}</style><linearGradient id="a" x1="0.5" x2="0.5" y2="1" gradientUnits="objectBoundingBox"><stop offset="0" stop-color="#7fb0f8"/><stop offset="1" stop-color="#d5d3ff"/></linearGradient><filter id="b" x="164" y="15" width="242" height="242" filterUnits="userSpaceOnUse"><feOffset dy="3" input="SourceAlpha"/><feGaussianBlur stdDeviation="10" result="c"/><feFlood flood-opacity="0.161"/><feComposite operator="in" in2="c"/><feComposite in="SourceGraphic"/></filter></defs><g transform="translate(-1095 -1988)"><rect class="a" width="570" height="400" transform="translate(1095 1988)"/><g transform="translate(7)"><g transform="translate(1282 2030)"><g class="d" transform="matrix(1, 0, 0, 1, -194, -42)"><rect class="b" width="182" height="182" rx="10" transform="translate(194 42)"/></g><g transform="translate(23.663 26.709)"><path class="a" d="M333.728,286.3a3.985,3.985,0,0,0,5.579.611l3.678-2.955v61.728a7.225,7.225,0,0,0,7.2,7.207H452.572a7.226,7.226,0,0,0,7.206-7.207v-61.6l3.566,2.868a4.02,4.02,0,0,0,2.481.866,3.917,3.917,0,0,0,3.1-1.515,3.993,3.993,0,0,0-.611-5.586l-62.663-50.383-1.44-.717a7.08,7.08,0,0,0-5.7.019l-1.509.7-62.663,50.389a3.985,3.985,0,0,0-.611,5.579" transform="translate(-332.861 -229.023)"/><path class="c" d="M371.1,279.889a14.988,14.988,0,0,0,5.3-3.6,16.331,16.331,0,0,0,3.348-5.4,17.257,17.257,0,0,0,1.222-6.558,16.905,16.905,0,0,0-1.222-6.627,16.084,16.084,0,0,0-3.348-5.33,15.8,15.8,0,0,0-5.3-3.634,18.254,18.254,0,0,0-6.876-1.3h-9.688v33.925h9.688a18.417,18.417,0,0,0,6.876-1.477m-6.876-42.678a29.14,29.14,0,0,1,10.909,2.051,28.468,28.468,0,0,1,8.865,5.8,26.758,26.758,0,0,1,5.941,8.64,25.678,25.678,0,0,1,2.126,10.623,26.269,26.269,0,0,1-2.126,10.623A29,29,0,0,1,384,283.6a25.881,25.881,0,0,1-8.865,5.692,27.135,27.135,0,0,1-10.909,2.126H343.445v-54.2Z" transform="translate(-277.464 -186.164)"/><path class="c" d="M353.029,260.432a6.8,6.8,0,1,1,6.807-6.807,6.8,6.8,0,0,1-6.807,6.807m0-23.371a16.567,16.567,0,1,0,16.563,16.564,16.572,16.572,0,0,0-16.563-16.564" transform="translate(-314.029 -186.949)"/></g></g></g></g></svg>