<svg xmlns="http://www.w3.org/2000/svg" width="91" height="91" viewBox="0 0 91 91"><g transform="translate(-141.295 -323.118)"><circle cx="45" cy="45" r="45" transform="translate(141.795 323.618)" fill="none" stroke="#f5f5f5"/><path d="M201.418 380.187a14.171 14.171 0 01-7.927 10.268 3.757 3.757 0 01.336 1.545v.542a16.2 16.2 0 009.682-12.527 9.28 9.28 0 01-1.866.188c-.076 0-.149-.014-.225-.016zm2.293-24.128a16.3 16.3 0 10-32.594 0v5.553c0 .021.01.039.011.059.27-.025.542-.042.818-.042a9.3 9.3 0 011.195.09.951.951 0 00.021-.107v-5.553a14.252 14.252 0 1128.5 0v5.573a9.3 9.3 0 012.045.239z" fill="#221f20"/><path d="M171.128 361.675a9.282 9.282 0 103.572 18.111 1.023 1.023 0 00.718-.977v-15.783a1.022 1.022 0 00-.72-.977 9.2 9.2 0 00-1.558-.326 9.3 9.3 0 00-1.195-.09c-.275 0-.547.017-.817.042zm2.245 16.342a7.359 7.359 0 01-1.427.139 7.239 7.239 0 111.427-14.337zm20.119 12.437a3.8 3.8 0 00-3.468-2.257h-4.312a3.808 3.808 0 00-3.8 3.8v1.67a3.809 3.809 0 003.8 3.8h4.312a3.809 3.809 0 003.8-3.8v-1.67a3.757 3.757 0 00-.332-1.543zm-3.468 4.975h-4.312a1.76 1.76 0 01-1.758-1.759V392a1.76 1.76 0 011.758-1.757h4.312a1.761 1.761 0 011.759 1.757v1.67a1.761 1.761 0 01-1.76 1.759zm20.903-24.512a9.315 9.315 0 00-9.262-9.282h-.023a9.227 9.227 0 00-2.753.417 1.023 1.023 0 00-.717.976v15.783a1.022 1.022 0 00.717.976 9.208 9.208 0 002.528.4c.076 0 .149.016.225.016a9.277 9.277 0 009.284-9.285zm-9.284 7.24a7.33 7.33 0 01-1.425-.139v-14.2a7.24 7.24 0 111.425 14.338z" fill="#00adef"/></g></svg>