<svg xmlns="http://www.w3.org/2000/svg" width="1410" height="330.004" viewBox="0 0 1410 330.004"><defs><style>.a{fill:none;}.b{fill:#1a1818;}.c{fill:#00adef;}.d{fill:#fff;}.e{fill:#191717;}.f{fill:#131212;}</style></defs><g transform="translate(-255 -3420)"><rect class="a" width="1410" height="330" transform="translate(255 3420)"/><g transform="translate(794.953 3419.954)"><g transform="translate(41.431 96.037)"><path class="b" d="M1212.763,606.041h-.374a46.995,46.995,0,0,1-5.65-93.644,36.5,36.5,0,0,1,44.582-29.1,53.352,53.352,0,0,1,89.3,25.852,33.338,33.338,0,0,1,41.25,29.836,33.352,33.352,0,0,1-1.582,66.592l-.89.022-.6-.012C1377.251,605.589,1215.825,606.041,1212.763,606.041Zm29.912-118.508a31.2,31.2,0,0,0-31,27.6l-.252,2.166-2.176.162a41.712,41.712,0,0,0,3.14,83.3l.383,0c3.155.134,164.468-.448,166.094-.454l.536.012.812-.016a28.076,28.076,0,0,0-.886-56.138h-2.64v-2.64a28.049,28.049,0,0,0-37.208-26.538l-2.923,1.008-.54-3.038a48.072,48.072,0,0,0-81.994-24.89l-1.1,1.148-1.532-.442A31.344,31.344,0,0,0,1242.676,487.533Z" transform="translate(-1165.429 -468.021)"/><g transform="translate(43.656 89.96)"><path class="b" d="M1199.787,532.353a6.765,6.765,0,0,0,2.391-1.628,8.061,8.061,0,0,0,2.076-5.43,7.842,7.842,0,0,0-.556-3.014,7.56,7.56,0,0,0-1.52-2.426,7.389,7.389,0,0,0-2.391-1.662,8.2,8.2,0,0,0-3.114-.584h-4.4v15.37h4.4a7.575,7.575,0,0,0,3.114-.626M1196.673,513a13.182,13.182,0,0,1,4.95.934,12.866,12.866,0,0,1,4.017,2.634,12.352,12.352,0,0,1,2.7,3.91,12.422,12.422,0,0,1,0,9.626,12.372,12.372,0,0,1-2.7,3.91,12.175,12.175,0,0,1-4.017,2.6,12.536,12.536,0,0,1-4.95.966h-9.416V513Z" transform="translate(-1187.257 -513.001)"/></g><g transform="translate(95.148 89.961)"><rect class="b" width="5.019" height="24.578"/></g><g transform="translate(104.672 89.546)"><path class="b" d="M1236.657,528.148a6.505,6.505,0,0,1-6.77,5.208c-5.238,0-6.91-4.056-6.91-7.858s1.672-7.86,6.91-7.86a6.5,6.5,0,0,1,6.77,5.21h5.14c-1-6.038-5.462-10.054-11.722-10.054-7.136,0-12.31,5.224-12.31,12.7s5.174,12.706,12.31,12.706c6.26,0,10.718-4.02,11.722-10.056Z" transform="translate(-1217.765 -512.794)"/></g><g transform="translate(159.61 89.961)"><rect class="b" width="5.019" height="24.578"/></g><g transform="translate(132.94 89.961)"><path class="b" d="M1236.918,513v9.986h11.042V513h5.02V537.58h-5.02V527.386h-11.042V537.58H1231.9V513Z" transform="translate(-1231.899 -513.001)"/></g><g transform="translate(23.906 89.544)"><path class="b" d="M1184.89,523.391a3.086,3.086,0,1,1,3.084-3.09,3.088,3.088,0,0,1-3.084,3.09m0-10.6a7.51,7.51,0,1,0,7.51,7.508,7.509,7.509,0,0,0-7.51-7.508" transform="translate(-1177.382 -512.793)"/></g><g transform="translate(73.15 105.177)"><rect class="b" width="11.979" height="4.33"/></g><g transform="translate(66.719 89.961)"><path class="b" d="M1207.25,513l-8.462,24.579h5.326L1212.25,513Z" transform="translate(-1198.789 -513.001)"/></g><g transform="translate(77.895 89.961)"><path class="b" d="M1204.377,513l8.059,24.579h5.33L1209.373,513Z" transform="translate(-1204.377 -513.001)"/></g></g><rect class="a" width="330" height="330" transform="translate(0.047 0.047)"/></g><g transform="translate(678 3579)"><g transform="translate(16.441 6.45)"><rect class="c" width="67.118" height="2.646"/></g><g transform="translate(78.643 0)"><path class="c" d="M948.432,528.985l-21.357-7.772s4.915,7.772,0,15.545l21.357-7.773" transform="translate(-927.075 -521.213)"/></g><g transform="translate(0 0)"><path class="c" d="M879.889,528.985l21.355,7.773s-4.915-7.773,0-15.545l-21.355,7.772" transform="translate(-879.889 -521.213)"/></g></g><g transform="translate(1142 3579)"><g transform="translate(16.441 6.45)"><rect class="c" width="67.118" height="2.646"/></g><g transform="translate(78.643 0)"><path class="c" d="M948.432,528.985l-21.357-7.772s4.915,7.772,0,15.545l21.357-7.773" transform="translate(-927.075 -521.213)"/></g><g transform="translate(0 0)"><path class="c" d="M879.889,528.985l21.355,7.773s-4.915-7.773,0-15.545l-21.355,7.772" transform="translate(-879.889 -521.213)"/></g></g><g transform="translate(1273.698 3419.954)"><rect class="a" width="330" height="330" transform="translate(0.302 0.047)"/><g transform="translate(61.302 85.66)"><g transform="translate(35.747)"><g transform="translate(44.941 120.901)"><path class="b" d="M2477,480.972h9.78a2.138,2.138,0,1,0,0-4.276H2477a2.138,2.138,0,1,0,0,4.276Z" transform="translate(-2474.864 -476.696)"/></g><g transform="translate(2.138 5.139)"><path class="a" d="M2451.281,473.039a9.012,9.012,0,0,1-1.682.448v8.678a6.42,6.42,0,0,0,6.379,6.449h51.828a6.42,6.42,0,0,0,6.378-6.449V469.033H2455.9A8.785,8.785,0,0,1,2451.281,473.039Z" transform="translate(-2432.061 -360.934)"/><path class="a" d="M2450.441,459.53l-5-2.3a4.365,4.365,0,0,0-1.841-.406,4.464,4.464,0,0,0-1.576.291,4.547,4.547,0,0,0-2.575,2.444l-.38.859a4.727,4.727,0,0,0,2.281,6.207l5,2.3a4.4,4.4,0,0,0,3.42.114,4.561,4.561,0,0,0,2.569-2.444l.383-.859A4.733,4.733,0,0,0,2450.441,459.53Z" transform="translate(-2432.061 -360.934)"/><path class="a" d="M2455.674,455.13a4.953,4.953,0,0,0,2.795-2.663,5.166,5.166,0,0,0-2.475-6.769l-10.391-4.8a4.744,4.744,0,0,0-2-.441,4.82,4.82,0,0,0-1.71.315,4.956,4.956,0,0,0-2.795,2.664,5.164,5.164,0,0,0,2.475,6.767l10.4,4.8A4.748,4.748,0,0,0,2455.674,455.13Z" transform="translate(-2432.061 -360.934)"/><path class="a" d="M2450.247,414.83c.07-.083.147-.161.213-.249s.131-.186.194-.281a5.185,5.185,0,0,0,.405-.72,5.255,5.255,0,0,0,.3-.918c.026-.109.036-.219.055-.329a5.029,5.029,0,0,0,.072-.594c.007-.138,0-.276,0-.414,0-.162-.014-.323-.032-.484s-.043-.314-.077-.469c-.026-.125-.062-.248-.1-.372a4.858,4.858,0,0,0-.174-.523c-.027-.069-.064-.133-.095-.2a5.107,5.107,0,0,0-1.41-1.836c-.113-.091-.234-.175-.353-.259a4.893,4.893,0,0,0-.681-.4l-7.38-3.4a4.79,4.79,0,0,0-2.007-.443,4.884,4.884,0,0,0-1.721.317,4.985,4.985,0,0,0-2.815,2.679,5.185,5.185,0,0,0,2.491,6.8l7.384,3.406a4.8,4.8,0,0,0,3.731.126,4.969,4.969,0,0,0,.736-.366,5.67,5.67,0,0,0,.615-.434h0A5.457,5.457,0,0,0,2450.247,414.83Z" transform="translate(-2432.061 -360.934)"/><path class="a" d="M2452.711,437.789a4.978,4.978,0,0,0,2.809-2.678,5.188,5.188,0,0,0-2.492-6.8l-7.38-3.4a4.793,4.793,0,0,0-2.007-.443,4.886,4.886,0,0,0-1.721.317,4.985,4.985,0,0,0-2.815,2.679,5.186,5.186,0,0,0,2.492,6.8l7.383,3.406A4.785,4.785,0,0,0,2452.711,437.789Z" transform="translate(-2432.061 -360.934)"/><path class="d" d="M2444.516,404.91l-3.33-1.537,7.38,3.406Z" transform="translate(-2432.061 -360.934)"/><path class="d" d="M2451.058,413.58a5.139,5.139,0,0,1-.405.72A4.691,4.691,0,0,0,2451.058,413.58Z" transform="translate(-2432.061 -360.934)"/><path class="d" d="M2450.459,414.581c-.065.088-.142.166-.213.249C2450.318,414.748,2450.392,414.668,2450.459,414.581Z" transform="translate(-2432.061 -360.934)"/><path class="d" d="M2448.566,406.778a4.887,4.887,0,0,1,.681.4A4.384,4.384,0,0,0,2448.566,406.778Z" transform="translate(-2432.061 -360.934)"/><path class="d" d="M2451.279,410c.035.124.072.247.1.372C2451.35,410.246,2451.316,410.124,2451.279,410Z" transform="translate(-2432.061 -360.934)"/><path class="d" d="M2451.454,410.841c.019.161.029.322.033.484C2451.483,411.163,2451.473,411,2451.454,410.841Z" transform="translate(-2432.061 -360.934)"/><path class="d" d="M2451.487,411.739a5.356,5.356,0,0,1-.072.594A5.356,5.356,0,0,0,2451.487,411.739Z" transform="translate(-2432.061 -360.934)"/><path class="d" d="M2451.36,412.662a5.275,5.275,0,0,1-.3.918A5.275,5.275,0,0,0,2451.36,412.662Z" transform="translate(-2432.061 -360.934)"/><path class="d" d="M2451.01,409.277c.031.067.068.131.095.2C2451.077,409.408,2451.041,409.344,2451.01,409.277Z" transform="translate(-2432.061 -360.934)"/><path class="d" d="M2449.6,415.458h0Z" transform="translate(-2432.061 -360.934)"/><path class="d" d="M2448.985,415.892a4.945,4.945,0,0,1-.736.366A4.44,4.44,0,0,0,2448.985,415.892Z" transform="translate(-2432.061 -360.934)"/><path class="d" d="M2444.517,416.132h0l-7.382-3.406Z" transform="translate(-2432.061 -360.934)"/><path d="M2451.487,411.325c0,.138.007.276,0,.414C2451.5,411.6,2451.491,411.464,2451.487,411.325Z" transform="translate(-2432.061 -360.934)"/><path d="M2451.1,409.477a4.908,4.908,0,0,1,.174.523A5.025,5.025,0,0,0,2451.1,409.477Z" transform="translate(-2432.061 -360.934)"/><path d="M2451.01,409.277a5.058,5.058,0,0,0-1.41-1.836h0A5.113,5.113,0,0,1,2451.01,409.277Z" transform="translate(-2432.061 -360.934)"/><path d="M2450.654,414.3c-.063.1-.124.191-.194.281C2450.528,414.49,2450.591,414.4,2450.654,414.3Z" transform="translate(-2432.061 -360.934)"/><path d="M2451.415,412.333c-.019.11-.029.22-.055.329C2451.386,412.552,2451.4,412.443,2451.415,412.333Z" transform="translate(-2432.062 -360.934)"/><path d="M2449.6,415.458a4.907,4.907,0,0,0,.646-.628A5.384,5.384,0,0,1,2449.6,415.458Z" transform="translate(-2432.061 -360.934)"/><path d="M2447.441,421.024l2.159,1v-1.712a9.17,9.17,0,0,1-2.647.525C2447.115,420.9,2447.281,420.95,2447.441,421.024Z" transform="translate(-2432.061 -360.934)"/><path d="M2451.377,410.372c.034.155.057.312.077.469C2451.435,410.683,2451.41,410.528,2451.377,410.372Z" transform="translate(-2432.061 -360.934)"/><path class="d" d="M2437.135,412.726a5.185,5.185,0,0,1-2.492-6.8,4.986,4.986,0,0,1,2.815-2.679,4.885,4.885,0,0,1,1.721-.317,4.791,4.791,0,0,1,2.007.443l3.331,1.537v-2.354l-2.434-1.124a7.063,7.063,0,0,0-9.4,3.631,7.346,7.346,0,0,0,3.552,9.6l7.382,3.406a6.931,6.931,0,0,0,.9.333v-2.273Z" transform="translate(-2432.061 -360.934)"/><path class="d" d="M2451.01,409.277c.031.067.067.131.095.2a5.08,5.08,0,0,1,.174.523c.037.124.071.246.1.372.033.156.058.311.077.469s.029.322.033.484c0,.139.008.275,0,.414a5.3,5.3,0,0,1-.072.594c-.019.11-.029.219-.055.329a5.275,5.275,0,0,1-.3.918,4.67,4.67,0,0,1-.405.72c-.062.1-.125.19-.194.281s-.141.167-.213.249a4.9,4.9,0,0,1-.646.628h0V418a7.136,7.136,0,0,0,3.413-3.551,7.348,7.348,0,0,0-3.413-9.533v2.53A5.059,5.059,0,0,1,2451.01,409.277Z" transform="translate(-2432.061 -360.934)"/><path d="M2449.6,407.441c-.113-.092-.23-.177-.353-.259.12.084.24.168.353.259Z" transform="translate(-2432.061 -360.934)"/><path d="M2449.6,407.441c-.113-.092-.23-.177-.353-.259.12.084.24.168.353.259Z" transform="translate(-2432.061 -360.934)"/><path d="M2449.461,404.838c.048.022.092.05.139.073v-2.362l-5.083-2.346v2.353Z" transform="translate(-2432.061 -360.934)"/><path class="d" d="M2448.566,406.778a4.379,4.379,0,0,1,.681.4c.123.082.24.167.353.259v-2.53c-.047-.023-.091-.051-.139-.073l-4.944-2.282v2.354Z" transform="translate(-2432.061 -360.934)"/><path d="M2448.566,406.778a4.379,4.379,0,0,1,.681.4c.123.082.24.167.353.259v-2.53c-.047-.023-.091-.051-.139-.073l-4.944-2.282v2.354Z" transform="translate(-2432.061 -360.934)"/><path d="M2449.6,420.308v-2.313a6.964,6.964,0,0,1-5.083.41v1.837a9.01,9.01,0,0,1,2.436.591A9.17,9.17,0,0,0,2449.6,420.308Z" transform="translate(-2432.061 -360.934)"/><path d="M2449.6,415.458a5.659,5.659,0,0,1-.615.434A4.89,4.89,0,0,0,2449.6,415.458Z" transform="translate(-2432.061 -360.934)"/><path d="M2449.6,415.458a5.659,5.659,0,0,1-.615.434A4.89,4.89,0,0,0,2449.6,415.458Z" transform="translate(-2432.061 -360.934)"/><path class="d" d="M2449.6,418v-2.537h0a4.911,4.911,0,0,1-.615.434,4.435,4.435,0,0,1-.736.366,4.8,4.8,0,0,1-3.731-.126h0V418.4A6.964,6.964,0,0,0,2449.6,418Z" transform="translate(-2432.061 -360.934)"/><path d="M2449.6,418v-2.537h0a4.911,4.911,0,0,1-.615.434,4.435,4.435,0,0,1-.736.366,4.8,4.8,0,0,1-3.731-.126h0V418.4A6.964,6.964,0,0,0,2449.6,418Z" transform="translate(-2432.061 -360.934)"/><path d="M2449.6,424.373V422.02l-2.159-1c-.16-.074-.326-.127-.488-.191-.144.008-.287.02-.431.02a8.926,8.926,0,0,1-2-.232v1.759a6.944,6.944,0,0,1,2.029.584Z" transform="translate(-2432.061 -360.934)"/><path d="M2444.518,420.242a9.06,9.06,0,0,0-1.318-.041,9.235,9.235,0,0,0,1.318.42Z" transform="translate(-2432.061 -360.934)"/><path d="M2446.953,420.833a9.01,9.01,0,0,0-2.436-.591v.379a8.925,8.925,0,0,0,2,.232C2446.666,420.853,2446.809,420.841,2446.953,420.833Z" transform="translate(-2432.061 -360.934)"/><path d="M2446.953,420.833a9.01,9.01,0,0,0-2.436-.591v.379a8.925,8.925,0,0,0,2,.232C2446.666,420.853,2446.809,420.841,2446.953,420.833Z" transform="translate(-2432.061 -360.934)"/><path class="d" d="M2447.4,437.018l6.023,2.783a7.134,7.134,0,0,0,4.057-3.826,7.349,7.349,0,0,0-3.552-9.606l-4.324-2-3.054-1.409a6.944,6.944,0,0,0-2.029-.584,7.106,7.106,0,0,0-7.367,4.214,7.347,7.347,0,0,0,3.552,9.6l.612.283A8.983,8.983,0,0,1,2447.4,437.018Zm-8.291-9.561a4.986,4.986,0,0,1,2.815-2.679,4.886,4.886,0,0,1,1.721-.317,4.793,4.793,0,0,1,2.007.443l7.38,3.4a5.188,5.188,0,0,1,2.492,6.8,4.979,4.979,0,0,1-2.809,2.678,4.785,4.785,0,0,1-3.731-.126l-7.383-3.406A5.186,5.186,0,0,1,2439.1,427.457Z" transform="translate(-2432.061 -360.934)"/><path d="M2441.169,438.766a6.945,6.945,0,0,1,3.348-.383v-.426l-3.2-1.477a9.062,9.062,0,0,0-2.54,1.09,9.4,9.4,0,0,0,1.03.567Z" transform="translate(-2432.061 -360.934)"/><path d="M2449.6,440.1v.294l3.668,1.694a9.185,9.185,0,0,0,.953-.3,9.306,9.306,0,0,0,1.682-.839l-2.484-1.147A6.955,6.955,0,0,1,2449.6,440.1Z" transform="translate(-2432.061 -360.934)"/><path d="M2449.6,440.39V440.1a6.922,6.922,0,0,1-1.517-.493l-3.566-1.646v.426a6.91,6.91,0,0,1,1.982.575Z" transform="translate(-2432.061 -360.934)"/><path d="M2449.6,440.39V440.1a6.922,6.922,0,0,1-1.517-.493l-3.566-1.646v.426a6.91,6.91,0,0,1,1.982.575Z" transform="translate(-2432.061 -360.934)"/><path class="d" d="M2449.6,440.1a6.957,6.957,0,0,0,3.819-.295l-6.023-2.783a8.983,8.983,0,0,0-6.082-.538l3.2,1.477,3.566,1.646A6.916,6.916,0,0,0,2449.6,440.1Z" transform="translate(-2432.061 -360.934)"/><path d="M2449.6,440.1a6.957,6.957,0,0,0,3.819-.295l-6.023-2.783a8.983,8.983,0,0,0-6.082-.538l3.2,1.477,3.566,1.646A6.916,6.916,0,0,0,2449.6,440.1Z" transform="translate(-2432.061 -360.934)"/><path class="d" d="M2447.227,453.346l5,2.3a8.748,8.748,0,0,1,2.625,1.869,7.092,7.092,0,0,0,5.572-4.187,7.327,7.327,0,0,0-3.534-9.571l-3.624-1.674-3.668-1.694-3.1-1.432a6.91,6.91,0,0,0-5.33-.192,7.11,7.11,0,0,0-4.022,3.808,7.327,7.327,0,0,0,3.535,9.571l1.243.574A8.564,8.564,0,0,1,2447.227,453.346Zm-5.65-3.143a5.165,5.165,0,0,1-2.474-6.767,4.956,4.956,0,0,1,2.795-2.664,4.818,4.818,0,0,1,1.71-.315,4.745,4.745,0,0,1,2,.441l10.391,4.8a5.166,5.166,0,0,1,2.475,6.769,4.953,4.953,0,0,1-2.795,2.663,4.748,4.748,0,0,1-3.7-.125Z" transform="translate(-2432.061 -360.934)"/><path d="M2448.187,473.61a8.622,8.622,0,0,0,1.413-.123v-2.179a6.511,6.511,0,0,1-4.143-.44l-.94-.433v2.353l.047.022A8.669,8.669,0,0,0,2448.187,473.61Z" transform="translate(-2432.061 -360.934)"/><path d="M2453.32,469.033h2.577c.078-.141.148-.289.219-.436h-2.461C2453.55,468.749,2453.437,468.893,2453.32,469.033Z" transform="translate(-2432.061 -360.934)"/><path d="M2455.261,463.894h2.138c0-.147-.006-.293-.012-.439h-2.137C2455.259,463.6,2455.263,463.747,2455.261,463.894Z" transform="translate(-2432.062 -360.934)"/><path d="M2454.677,466.6l-.381.86a6.726,6.726,0,0,1-.641,1.134h2.461c.043-.09.094-.176.135-.269l.38-.859a8.99,8.99,0,0,0,.768-3.575h-2.137A6.883,6.883,0,0,1,2454.677,466.6Z" transform="translate(-2432.062 -360.934)"/><path d="M2454.677,466.6l-.381.86a6.726,6.726,0,0,1-.641,1.134h2.461c.043-.09.094-.176.135-.269l.38-.859a8.99,8.99,0,0,0,.768-3.575h-2.137A6.883,6.883,0,0,1,2454.677,466.6Z" transform="translate(-2432.062 -360.934)"/><path d="M2441.7,454.972a6.556,6.556,0,0,1,2.814-.216v-.84l-2.593-1.2a8.368,8.368,0,0,0-2.754,1.044c.2.112.4.225.613.323Z" transform="translate(-2432.062 -360.934)"/><path d="M2451.074,456.945l-1.474-.681v.526l1.735.8a6.657,6.657,0,0,1,2.6,2.134l.03,0a9.053,9.053,0,0,0,2.3-.3,8.93,8.93,0,0,0-1.406-1.9A6.849,6.849,0,0,1,2451.074,456.945Z" transform="translate(-2432.061 -360.934)"/><path d="M2449.6,456.79v-.526l-5.083-2.348v.84a6.5,6.5,0,0,1,1.816.531Z" transform="translate(-2432.061 -360.934)"/><path d="M2449.6,456.79v-.526l-5.083-2.348v.84a6.5,6.5,0,0,1,1.816.531Z" transform="translate(-2432.061 -360.934)"/><path class="d" d="M2451.074,456.945a6.85,6.85,0,0,0,3.78.571,8.747,8.747,0,0,0-2.625-1.869l-5-2.3a8.564,8.564,0,0,0-5.3-.627l2.592,1.2,5.083,2.348Z" transform="translate(-2432.062 -360.934)"/><path d="M2451.074,456.945a6.85,6.85,0,0,0,3.78.571,8.747,8.747,0,0,0-2.625-1.869l-5-2.3a8.564,8.564,0,0,0-5.3-.627l2.592,1.2,5.083,2.348Z" transform="translate(-2432.062 -360.934)"/><g transform="translate(6.594 63.527)"><path class="a" d="M2448.98,437.663a4.785,4.785,0,0,0,3.731.126,4.978,4.978,0,0,0,2.809-2.678,5.188,5.188,0,0,0-2.492-6.8l-7.38-3.4a4.793,4.793,0,0,0-2.007-.443,4.886,4.886,0,0,0-1.721.317,4.985,4.985,0,0,0-2.815,2.679,5.186,5.186,0,0,0,2.492,6.8Z" transform="translate(-2438.656 -424.461)"/><path class="a" d="M2446.5,438.958l3.1,1.432V440.1a6.922,6.922,0,0,1-1.517-.493l-3.566-1.646v.426A6.91,6.91,0,0,1,2446.5,438.958Z" transform="translate(-2438.656 -424.461)"/><path class="a" d="M2458.469,452.467a5.166,5.166,0,0,0-2.475-6.769l-10.391-4.8a4.744,4.744,0,0,0-2-.441,4.82,4.82,0,0,0-1.71.315,4.956,4.956,0,0,0-2.795,2.664,5.164,5.164,0,0,0,2.475,6.767l10.4,4.8a4.748,4.748,0,0,0,3.7.125A4.953,4.953,0,0,0,2458.469,452.467Z" transform="translate(-2438.656 -424.461)"/></g><path class="d" d="M2453.32,469.033c.116-.14.23-.284.335-.436a6.711,6.711,0,0,0,.641-1.134l.381-.86a6.883,6.883,0,0,0,.584-2.709c0-.147,0-.293-.011-.439a6.974,6.974,0,0,0-1.319-3.733,6.657,6.657,0,0,0-2.6-2.134l-1.735-.8-3.267-1.5a6.569,6.569,0,0,0-4.63-.315,6.709,6.709,0,0,0-4.21,3.721l-.38.859a6.889,6.889,0,0,0,3.342,9.013l4.061,1.87.94.433a6.512,6.512,0,0,0,4.143.44A6.7,6.7,0,0,0,2453.32,469.033Zm-3.549.009a4.4,4.4,0,0,1-3.42-.114l-5-2.3a4.727,4.727,0,0,1-2.281-6.207l.38-.859a4.546,4.546,0,0,1,2.575-2.444,4.461,4.461,0,0,1,1.576-.291,4.364,4.364,0,0,1,1.841.406l5,2.3a4.733,4.733,0,0,1,2.282,6.209l-.383.859A4.56,4.56,0,0,1,2449.771,469.042Z" transform="translate(-2432.061 -360.934)"/><g transform="translate(2.133)"><path class="a" d="M2441.577,450.2l10.4,4.8a4.748,4.748,0,0,0,3.7.125,4.953,4.953,0,0,0,2.795-2.663,5.166,5.166,0,0,0-2.475-6.769l-10.391-4.8a4.744,4.744,0,0,0-2-.441,4.82,4.82,0,0,0-1.71.315,4.956,4.956,0,0,0-2.795,2.664A5.164,5.164,0,0,0,2441.577,450.2Z" transform="translate(-2434.194 -360.934)"/><path class="a" d="M2444.519,416.132a4.8,4.8,0,0,0,3.731.126,4.468,4.468,0,0,0,.736-.366,4.956,4.956,0,0,0,.615-.434h0a4.968,4.968,0,0,0,.646-.628c.072-.082.146-.162.213-.249s.132-.185.194-.281a4.733,4.733,0,0,0,.405-.72,5.255,5.255,0,0,0,.3-.918c.026-.11.036-.219.055-.329a5.029,5.029,0,0,0,.072-.594c.008-.139,0-.275,0-.414,0-.162-.014-.323-.032-.484s-.045-.313-.077-.469c-.027-.126-.061-.248-.1-.372a5.083,5.083,0,0,0-.174-.523c-.028-.069-.064-.133-.095-.2a5.063,5.063,0,0,0-1.41-1.836c-.113-.092-.23-.177-.353-.259a4.389,4.389,0,0,0-.681-.4l-4.049-1.868-3.332-1.537a4.79,4.79,0,0,0-2.007-.443,4.884,4.884,0,0,0-1.721.317,4.985,4.985,0,0,0-2.815,2.679,5.185,5.185,0,0,0,2.491,6.8l7.383,3.406Z" transform="translate(-2434.194 -360.934)"/><path class="a" d="M2441.6,434.257l7.383,3.406a4.785,4.785,0,0,0,3.731.126,4.978,4.978,0,0,0,2.809-2.678,5.188,5.188,0,0,0-2.492-6.8l-7.38-3.4a4.793,4.793,0,0,0-2.007-.443,4.886,4.886,0,0,0-1.721.317,4.985,4.985,0,0,0-2.815,2.679A5.186,5.186,0,0,0,2441.6,434.257Z" transform="translate(-2434.194 -360.934)"/><path class="a" d="M2449.771,469.042a4.561,4.561,0,0,0,2.569-2.444l.383-.859a4.733,4.733,0,0,0-2.282-6.209l-5-2.3a4.365,4.365,0,0,0-1.841-.406,4.464,4.464,0,0,0-1.576.291,4.547,4.547,0,0,0-2.575,2.444l-.38.859a4.727,4.727,0,0,0,2.281,6.207l5,2.3A4.4,4.4,0,0,0,2449.771,469.042Z" transform="translate(-2434.194 -360.934)"/><path class="a" d="M2451.281,473.039a9.012,9.012,0,0,1-1.682.448v8.678a6.42,6.42,0,0,0,6.379,6.449h51.828a6.42,6.42,0,0,0,6.378-6.449V469.033H2455.9A8.785,8.785,0,0,1,2451.281,473.039Z" transform="translate(-2434.194 -360.934)"/><path class="a" d="M2452.34,466.6l.383-.859a4.733,4.733,0,0,0-2.282-6.209l-5-2.3a4.365,4.365,0,0,0-1.841-.406,4.464,4.464,0,0,0-1.576.291,4.547,4.547,0,0,0-2.575,2.444l-.38.859a4.727,4.727,0,0,0,2.281,6.207l5,2.3a4.4,4.4,0,0,0,3.42.114A4.561,4.561,0,0,0,2452.34,466.6Z" transform="translate(-2434.194 -360.934)"/><path class="a" d="M2441.6,434.257l7.383,3.406a4.785,4.785,0,0,0,3.731.126,4.978,4.978,0,0,0,2.809-2.678,5.188,5.188,0,0,0-2.492-6.8l-7.38-3.4a4.793,4.793,0,0,0-2.007-.443,4.886,4.886,0,0,0-1.721.317,4.985,4.985,0,0,0-2.815,2.679A5.186,5.186,0,0,0,2441.6,434.257Z" transform="translate(-2434.194 -360.934)"/><path class="a" d="M2457.4,463.894a9,9,0,0,1-.768,3.575l-.38.859c-.041.093-.091.179-.135.269h59.364a3.81,3.81,0,0,0,3.788-3.822v-.881Z" transform="translate(-2434.194 -360.934)"/><path class="a" d="M2444.519,416.132a4.8,4.8,0,0,0,3.731.126,4.468,4.468,0,0,0,.736-.366,4.956,4.956,0,0,0,.615-.434h0a4.968,4.968,0,0,0,.646-.628c.072-.082.146-.162.213-.249s.132-.185.194-.281a4.733,4.733,0,0,0,.405-.72,5.255,5.255,0,0,0,.3-.918c.026-.11.036-.219.055-.329a5.029,5.029,0,0,0,.072-.594c.008-.139,0-.275,0-.414,0-.162-.014-.323-.032-.484s-.045-.313-.077-.469c-.027-.126-.061-.248-.1-.372a5.083,5.083,0,0,0-.174-.523c-.028-.069-.064-.133-.095-.2a5.063,5.063,0,0,0-1.41-1.836c-.113-.092-.23-.177-.353-.259a4.389,4.389,0,0,0-.681-.4l-4.049-1.868-3.332-1.537a4.79,4.79,0,0,0-2.007-.443,4.884,4.884,0,0,0-1.721.317,4.985,4.985,0,0,0-2.815,2.679,5.185,5.185,0,0,0,2.491,6.8l7.383,3.406Z" transform="translate(-2434.194 -360.934)"/><path class="a" d="M2507.307,360.934h-50.831a6.922,6.922,0,0,0-6.876,6.952v34.663l.759.35a9.48,9.48,0,0,1,4.61,12.407,9.223,9.223,0,0,1-5.21,4.95c-.052.02-.106.033-.159.052a9.169,9.169,0,0,1-2.647.525c.162.064.328.117.488.191l2.159,1,5.221,2.41a9.48,9.48,0,0,1,4.61,12.407,9.237,9.237,0,0,1-3.528,4.111l1.884.87a9.462,9.462,0,0,1,4.593,12.373,9.2,9.2,0,0,1-5.195,4.939c-.306.114-.614.207-.925.289a9.107,9.107,0,0,1,1.127,4.036h56.8V367.886A6.922,6.922,0,0,0,2507.307,360.934Z" transform="translate(-2434.194 -360.934)"/><path class="a" d="M2451.281,473.039a9.012,9.012,0,0,1-1.682.448v8.678a6.42,6.42,0,0,0,6.379,6.449h51.828a6.42,6.42,0,0,0,6.378-6.449V469.033H2455.9A8.785,8.785,0,0,1,2451.281,473.039Z" transform="translate(-2434.194 -360.934)"/><path class="a" d="M2458.469,452.467a5.166,5.166,0,0,0-2.475-6.769l-10.391-4.8a4.744,4.744,0,0,0-2-.441,4.82,4.82,0,0,0-1.71.315,4.956,4.956,0,0,0-2.795,2.664,5.164,5.164,0,0,0,2.475,6.767l10.4,4.8a4.748,4.748,0,0,0,3.7.125A4.953,4.953,0,0,0,2458.469,452.467Z" transform="translate(-2434.194 -360.934)"/></g></g><path class="a" d="M2441.6,434.257l7.383,3.406a4.785,4.785,0,0,0,3.731.126,4.978,4.978,0,0,0,2.809-2.678,5.188,5.188,0,0,0-2.492-6.8l-7.38-3.4a4.793,4.793,0,0,0-2.007-.443,4.886,4.886,0,0,0-1.721.317,4.985,4.985,0,0,0-2.815,2.679A5.186,5.186,0,0,0,2441.6,434.257Z" transform="translate(-2429.924 -355.795)"/><path class="a" d="M2444.519,416.132a4.8,4.8,0,0,0,3.731.126,4.468,4.468,0,0,0,.736-.366,4.956,4.956,0,0,0,.615-.434h0a4.968,4.968,0,0,0,.646-.628c.072-.082.146-.162.213-.249s.132-.185.194-.281a4.733,4.733,0,0,0,.405-.72,5.255,5.255,0,0,0,.3-.918c.026-.11.036-.219.055-.329a5.029,5.029,0,0,0,.072-.594c.008-.139,0-.275,0-.414,0-.162-.014-.323-.032-.484s-.045-.313-.077-.469c-.027-.126-.061-.248-.1-.372a5.083,5.083,0,0,0-.174-.523c-.028-.069-.064-.133-.095-.2a5.063,5.063,0,0,0-1.41-1.836c-.113-.092-.23-.177-.353-.259a4.389,4.389,0,0,0-.681-.4l-4.049-1.868-3.332-1.537a4.79,4.79,0,0,0-2.007-.443,4.884,4.884,0,0,0-1.721.317,4.985,4.985,0,0,0-2.815,2.679,5.185,5.185,0,0,0,2.491,6.8l7.383,3.406Z" transform="translate(-2429.924 -355.795)"/><path class="a" d="M2441.577,450.2l10.4,4.8a4.748,4.748,0,0,0,3.7.125,4.953,4.953,0,0,0,2.795-2.663,5.166,5.166,0,0,0-2.475-6.769l-10.391-4.8a4.744,4.744,0,0,0-2-.441,4.82,4.82,0,0,0-1.71.315,4.956,4.956,0,0,0-2.795,2.664A5.164,5.164,0,0,0,2441.577,450.2Z" transform="translate(-2429.924 -355.795)"/><path class="a" d="M2512.911,415.845a34.447,34.447,0,0,1,1.274-3.839v-44.12a6.922,6.922,0,0,0-6.878-6.952h-50.831a6.922,6.922,0,0,0-6.876,6.952v34.663l.759.35a9.48,9.48,0,0,1,4.61,12.407,9.223,9.223,0,0,1-5.21,4.95c-.052.02-.106.033-.159.052a9.169,9.169,0,0,1-2.647.525c.162.064.328.117.488.191l2.159,1,5.221,2.41a9.48,9.48,0,0,1,4.61,12.407,9.237,9.237,0,0,1-3.528,4.111l1.884.87a9.462,9.462,0,0,1,4.593,12.373,9.2,9.2,0,0,1-5.195,4.939c-.306.114-.614.207-.925.289a9.107,9.107,0,0,1,1.127,4.036h56.8V441.146c-.4-2.219-.838-4.121-1.234-5.847C2511.557,429.269,2510.552,424.912,2512.911,415.845Z" transform="translate(-2429.923 -355.795)"/><path class="a" d="M2457.4,463.894a9,9,0,0,1-.768,3.575l-.38.859c-.041.093-.091.179-.135.269h58.365l-.034-4.7Z" transform="translate(-2429.924 -355.795)"/><path class="a" d="M2452.34,466.6l.383-.859a4.733,4.733,0,0,0-2.282-6.209l-5-2.3a4.365,4.365,0,0,0-1.841-.406,4.464,4.464,0,0,0-1.576.291,4.547,4.547,0,0,0-2.575,2.444l-.38.859a4.727,4.727,0,0,0,2.281,6.207l5,2.3a4.4,4.4,0,0,0,3.42.114A4.561,4.561,0,0,0,2452.34,466.6Z" transform="translate(-2429.923 -355.795)"/><path class="a" d="M2451.281,473.039a9.012,9.012,0,0,1-1.682.448v8.678a6.42,6.42,0,0,0,6.379,6.449h51.828a6.42,6.42,0,0,0,6.378-6.449V469.033H2455.9A8.785,8.785,0,0,1,2451.281,473.039Z" transform="translate(-2429.924 -355.795)"/><path d="M2514.185,419.959c.2-1.107.457-2.284.793-3.576a35.529,35.529,0,0,1,4.291-9.789v-3.562a33.033,33.033,0,0,0-5.084,8.974Z" transform="translate(-2429.923 -355.795)"/><path d="M2514.481,468.6l.111,14.842a2.141,2.141,0,0,0,2.138,2.121h.018a2.135,2.135,0,0,0,2.011-1.494l-2.03-.645-.112-15.019a3.7,3.7,0,0,1-1.137.195Z" transform="translate(-2429.923 -355.795)"/><path d="M2514.281,441.663l.166,22.231h2.137l-.167-22.423c-.758-4.408-1.665-7.544-2.232-10.573v10.248C2514.217,441.321,2514.25,441.484,2514.281,441.663Z" transform="translate(-2429.923 -355.795)"/><path class="d" d="M2555.174,485.324c-4.628-9.749-3.186-15.318-5.186-24.389-3.107-14.082-8.168-12.53-14.913-30.242-6.65-17.473-.485-27.643-9.562-28.941-2.022-.3-4.285,1.817-6.245,4.842a35.552,35.552,0,0,0-4.291,9.789c-.336,1.292-.591,2.469-.792,3.576a27.915,27.915,0,0,0,0,10.939c.567,3.029,1.474,6.165,2.232,10.573l.167,22.423.033,4.508.112,15.019,2.03.645a2.165,2.165,0,0,0,.11-.662l-.315-41.948a2.228,2.228,0,0,0-.031-.346c-.454-2.633-.959-4.833-1.407-6.771-1.351-5.841-2.164-9.367-.073-17.417,1.9-7.326,6.5-13.23,8.155-13.057,3.163.453,3.534,1.8,4.033,8.446a63.447,63.447,0,0,0,3.846,19.142,67.205,67.205,0,0,0,8.727,16.46,31.881,31.881,0,0,1,6.1,13.481,69.387,69.387,0,0,1,1.211,8.4c.5,5.044.979,9.809,4.129,16.446a85.623,85.623,0,0,0,6.09,10.722l3.3,1.047A83.51,83.51,0,0,1,2555.174,485.324Z" transform="translate(-2429.923 -355.795)"/><path class="a" d="M2441.577,450.2l10.4,4.8a4.748,4.748,0,0,0,3.7.125,4.953,4.953,0,0,0,2.795-2.663,5.166,5.166,0,0,0-2.475-6.769l-10.391-4.8a4.744,4.744,0,0,0-2-.441,4.82,4.82,0,0,0-1.71.315,4.956,4.956,0,0,0-2.795,2.664A5.164,5.164,0,0,0,2441.577,450.2Z" transform="translate(-2429.924 -355.795)"/><path class="a" d="M2441.6,434.257l7.383,3.406a4.785,4.785,0,0,0,3.731.126,4.978,4.978,0,0,0,2.809-2.678,5.188,5.188,0,0,0-2.492-6.8l-7.38-3.4a4.793,4.793,0,0,0-2.007-.443,4.886,4.886,0,0,0-1.721.317,4.985,4.985,0,0,0-2.815,2.679A5.186,5.186,0,0,0,2441.6,434.257Z" transform="translate(-2429.924 -355.795)"/><path class="a" d="M2444.519,416.132a4.8,4.8,0,0,0,3.731.126,4.468,4.468,0,0,0,.736-.366,4.956,4.956,0,0,0,.615-.434h0a4.968,4.968,0,0,0,.646-.628c.072-.082.146-.162.213-.249s.132-.185.194-.281a4.733,4.733,0,0,0,.405-.72,5.255,5.255,0,0,0,.3-.918c.026-.11.036-.219.055-.329a5.029,5.029,0,0,0,.072-.594c.008-.139,0-.275,0-.414,0-.162-.014-.323-.032-.484s-.045-.313-.077-.469c-.027-.126-.061-.248-.1-.372a5.083,5.083,0,0,0-.174-.523c-.028-.069-.064-.133-.095-.2a5.063,5.063,0,0,0-1.41-1.836c-.113-.092-.23-.177-.353-.259a4.389,4.389,0,0,0-.681-.4l-4.049-1.868-3.332-1.537a4.79,4.79,0,0,0-2.007-.443,4.884,4.884,0,0,0-1.721.317,4.985,4.985,0,0,0-2.815,2.679,5.185,5.185,0,0,0,2.491,6.8l7.383,3.406Z" transform="translate(-2429.924 -355.795)"/><path class="a" d="M2452.34,466.6l.383-.859a4.733,4.733,0,0,0-2.282-6.209l-5-2.3a4.365,4.365,0,0,0-1.841-.406,4.464,4.464,0,0,0-1.576.291,4.547,4.547,0,0,0-2.575,2.444l-.38.859a4.727,4.727,0,0,0,2.281,6.207l5,2.3a4.4,4.4,0,0,0,3.42.114A4.561,4.561,0,0,0,2452.34,466.6Z" transform="translate(-2429.923 -355.795)"/><path class="a" d="M2451.281,473.039a9.012,9.012,0,0,1-1.682.448v8.678a6.42,6.42,0,0,0,6.379,6.449h51.828a6.42,6.42,0,0,0,6.378-6.449V469.033H2455.9A8.785,8.785,0,0,1,2451.281,473.039Z" transform="translate(-2429.924 -355.795)"/><path class="a" d="M2507.307,360.934h-50.831a6.922,6.922,0,0,0-6.876,6.952v34.663l.759.35a9.48,9.48,0,0,1,4.61,12.407,9.223,9.223,0,0,1-5.21,4.95c-.052.02-.106.033-.159.052a9.169,9.169,0,0,1-2.647.525c.162.064.328.117.488.191l2.159,1,5.221,2.41a9.48,9.48,0,0,1,4.61,12.407,9.237,9.237,0,0,1-3.528,4.111l1.884.87a9.462,9.462,0,0,1,4.593,12.373,9.2,9.2,0,0,1-5.195,4.939c-.306.114-.614.207-.925.289a9.107,9.107,0,0,1,1.127,4.036h56.8V441.146c-.4-2.219-.838-4.121-1.234-5.847-1.394-6.03-2.4-10.387-.04-19.454a34.447,34.447,0,0,1,1.274-3.839v-44.12A6.922,6.922,0,0,0,2507.307,360.934Z" transform="translate(-2429.923 -355.795)"/><path d="M2482.869,491.472a2.132,2.132,0,0,0-1.2,2.281h4.641c-.2-.407-.4-.811-.6-1.242A2.142,2.142,0,0,0,2482.869,491.472Z" transform="translate(-2429.923 -355.795)"/><path class="a" d="M2441.6,434.257l7.383,3.406a4.785,4.785,0,0,0,3.731.126,4.978,4.978,0,0,0,2.809-2.678,5.188,5.188,0,0,0-2.492-6.8l-7.38-3.4a4.793,4.793,0,0,0-2.007-.443,4.886,4.886,0,0,0-1.721.317,4.985,4.985,0,0,0-2.815,2.679A5.186,5.186,0,0,0,2441.6,434.257Z" transform="translate(-2429.924 -355.795)"/><path class="a" d="M2441.577,450.2l10.4,4.8a4.748,4.748,0,0,0,3.7.125,4.953,4.953,0,0,0,2.795-2.663,5.166,5.166,0,0,0-2.475-6.769l-10.391-4.8a4.744,4.744,0,0,0-2-.441,4.82,4.82,0,0,0-1.71.315,4.956,4.956,0,0,0-2.795,2.664A5.164,5.164,0,0,0,2441.577,450.2Z" transform="translate(-2429.924 -355.795)"/><path class="a" d="M2452.34,466.6l.383-.859a4.733,4.733,0,0,0-2.282-6.209l-5-2.3a4.365,4.365,0,0,0-1.841-.406,4.464,4.464,0,0,0-1.576.291,4.547,4.547,0,0,0-2.575,2.444l-.38.859a4.727,4.727,0,0,0,2.281,6.207l5,2.3a4.4,4.4,0,0,0,3.42.114A4.561,4.561,0,0,0,2452.34,466.6Z" transform="translate(-2429.923 -355.795)"/><path class="a" d="M2444.519,416.132a4.8,4.8,0,0,0,3.731.126,4.468,4.468,0,0,0,.736-.366,4.956,4.956,0,0,0,.615-.434h0a4.968,4.968,0,0,0,.646-.628c.072-.082.146-.162.213-.249s.132-.185.194-.281a4.733,4.733,0,0,0,.405-.72,5.255,5.255,0,0,0,.3-.918c.026-.11.036-.219.055-.329a5.029,5.029,0,0,0,.072-.594c.008-.139,0-.275,0-.414,0-.162-.014-.323-.032-.484s-.045-.313-.077-.469c-.027-.126-.061-.248-.1-.372a5.083,5.083,0,0,0-.174-.523c-.028-.069-.064-.133-.095-.2a5.063,5.063,0,0,0-1.41-1.836c-.113-.092-.23-.177-.353-.259a4.389,4.389,0,0,0-.681-.4l-4.049-1.868-3.332-1.537a4.79,4.79,0,0,0-2.007-.443,4.884,4.884,0,0,0-1.721.317,4.985,4.985,0,0,0-2.815,2.679,5.185,5.185,0,0,0,2.491,6.8l7.383,3.406Z" transform="translate(-2429.924 -355.795)"/><path class="a" d="M2451.281,473.039a9.012,9.012,0,0,1-1.682.448v8.678a6.42,6.42,0,0,0,6.379,6.449h51.828a6.42,6.42,0,0,0,6.378-6.449V469.033H2455.9A8.785,8.785,0,0,1,2451.281,473.039Z" transform="translate(-2429.924 -355.795)"/><path class="a" d="M2507.307,360.934h-50.831a6.922,6.922,0,0,0-6.876,6.952v34.663l.759.35a9.48,9.48,0,0,1,4.61,12.407,9.223,9.223,0,0,1-5.21,4.95c-.052.02-.106.033-.159.052a9.169,9.169,0,0,1-2.647.525c.162.064.328.117.488.191l2.159,1,5.221,2.41a9.48,9.48,0,0,1,4.61,12.407,9.237,9.237,0,0,1-3.528,4.111l1.884.87a9.462,9.462,0,0,1,4.593,12.373,9.2,9.2,0,0,1-5.195,4.939c-.306.114-.614.207-.925.289a9.107,9.107,0,0,1,1.127,4.036h56.8V441.146c-.4-2.219-.838-4.121-1.234-5.847-1.394-6.03-2.4-10.387-.04-19.454a34.447,34.447,0,0,1,1.274-3.839v-44.12A6.922,6.922,0,0,0,2507.307,360.934Z" transform="translate(-2429.923 -355.795)"/><path d="M2564.369,496.768a81.41,81.41,0,0,1-7.266-12.362c-2.832-5.969-3.251-10.171-3.737-15.039a72.526,72.526,0,0,0-1.29-8.892,35.837,35.837,0,0,0-6.766-15.008,62.509,62.509,0,0,1-8.236-15.535,58.793,58.793,0,0,1-3.58-17.939c-.457-6.107-.854-11.381-7.677-12.356-2.383-.346-4.616,1.133-6.548,3.4V367.886a12.028,12.028,0,0,0-11.962-12.091h-50.831a12.024,12.024,0,0,0-11.959,12.091V400.2l-1.538-.71a9.037,9.037,0,0,0-7.031-.244,9.236,9.236,0,0,0-5.216,4.95,9.481,9.481,0,0,0,4.61,12.407l7.383,3.406c.156.072.316.126.474.189a9.126,9.126,0,0,0-2.789.579,9.235,9.235,0,0,0-5.216,4.95,9.5,9.5,0,0,0,3.58,11.84,9.214,9.214,0,0,0-3.583,4.141,9.473,9.473,0,0,0,3.98,12.052,8.791,8.791,0,0,0-3.631,4.065l-.383.859a9.023,9.023,0,0,0,4.405,11.819l4.954,2.282v9.377a11.525,11.525,0,0,0,11.462,11.588h25.69a2.142,2.142,0,0,0,.162.557c5.185,11.185,11.194,15.37,15.85,17.768a36.992,36.992,0,0,0,6.338,2.441,57.1,57.1,0,0,1,7.713,2.9,60.184,60.184,0,0,1,13.5,8.642,2.137,2.137,0,1,0,2.758-3.266,64.412,64.412,0,0,0-14.451-9.252,60.537,60.537,0,0,0-8.239-3.106,32.937,32.937,0,0,1-5.655-2.164c-4.117-2.117-8.887-5.522-13.33-14.523h21.5a11.492,11.492,0,0,0,11.279-9.583l-.326-.1a2.165,2.165,0,0,0,.11-.662l-.315-41.948a2.228,2.228,0,0,0-.031-.346c-.454-2.633-.959-4.833-1.407-6.771-1.351-5.841-2.164-9.367-.072-17.417,1.9-7.326,6.5-13.23,8.154-13.057,3.163.453,3.534,1.8,4.033,8.446a63.454,63.454,0,0,0,3.846,19.142,67.2,67.2,0,0,0,8.727,16.46,31.881,31.881,0,0,1,6.1,13.481,69.436,69.436,0,0,1,1.211,8.4c.5,5.044.979,9.809,4.13,16.446a85.625,85.625,0,0,0,6.089,10.722c.512.769,1.023,1.539,1.559,2.291a2.137,2.137,0,0,0,3.478-2.484Zm-127.234-84.042a5.185,5.185,0,0,1-2.492-6.8,4.984,4.984,0,0,1,2.815-2.679,4.884,4.884,0,0,1,1.721-.317,4.8,4.8,0,0,1,2.007.443l3.331,1.537,4.049,1.868a4.389,4.389,0,0,1,.681.4c.123.082.24.167.353.259a5.058,5.058,0,0,1,1.41,1.836c.031.067.067.131.1.2a5.072,5.072,0,0,1,.174.523c.037.124.071.246.1.372.033.156.058.311.077.469s.029.322.033.484c0,.139.008.275,0,.414a5.3,5.3,0,0,1-.072.594c-.019.11-.029.219-.055.329a5.217,5.217,0,0,1-.3.918,4.671,4.671,0,0,1-.4.72c-.062.1-.125.19-.194.281s-.141.167-.213.249a4.924,4.924,0,0,1-.646.628h0a4.907,4.907,0,0,1-.615.434,4.435,4.435,0,0,1-.736.366,4.8,4.8,0,0,1-3.731-.126h0Zm1.97,14.731a4.985,4.985,0,0,1,2.815-2.679,4.886,4.886,0,0,1,1.721-.317,4.793,4.793,0,0,1,2.007.443l7.38,3.405a5.188,5.188,0,0,1,2.492,6.8,4.978,4.978,0,0,1-2.809,2.678,4.784,4.784,0,0,1-3.731-.126l-7.383-3.406A5.186,5.186,0,0,1,2439.1,427.457Zm0,15.979a4.956,4.956,0,0,1,2.795-2.664,4.818,4.818,0,0,1,1.71-.315,4.745,4.745,0,0,1,2,.441l10.391,4.8a5.166,5.166,0,0,1,2.475,6.769,4.953,4.953,0,0,1-2.795,2.663,4.748,4.748,0,0,1-3.7-.125l-10.4-4.8A5.165,5.165,0,0,1,2439.1,443.436Zm7.249,25.492-5-2.3a4.727,4.727,0,0,1-2.281-6.207l.38-.859a4.546,4.546,0,0,1,2.575-2.444,4.462,4.462,0,0,1,1.576-.291,4.364,4.364,0,0,1,1.841.406l5,2.3a4.733,4.733,0,0,1,2.282,6.209l-.383.859a4.56,4.56,0,0,1-2.569,2.444A4.4,4.4,0,0,1,2446.351,468.928Zm67.833,13.237a6.42,6.42,0,0,1-6.378,6.449h-51.828a6.42,6.42,0,0,1-6.379-6.449v-8.678a9.015,9.015,0,0,0,1.682-.448,8.787,8.787,0,0,0,4.616-4.006h58.287Zm0-70.159a34.409,34.409,0,0,0-1.274,3.839c-2.359,9.067-1.354,13.424.04,19.454.4,1.726.834,3.628,1.234,5.847v22.309h-56.8a9.107,9.107,0,0,0-1.127-4.036c.311-.082.619-.175.925-.289a9.2,9.2,0,0,0,5.195-4.939,9.462,9.462,0,0,0-4.593-12.373l-1.884-.87a9.237,9.237,0,0,0,3.528-4.111,9.481,9.481,0,0,0-4.61-12.407l-5.221-2.41-2.159-1c-.16-.074-.326-.127-.488-.191a9.173,9.173,0,0,0,2.647-.525c.053-.019.107-.032.159-.052a9.224,9.224,0,0,0,5.21-4.95,9.48,9.48,0,0,0-4.61-12.407l-.759-.35V367.886a6.922,6.922,0,0,1,6.876-6.952h50.831a6.922,6.922,0,0,1,6.878,6.952Z" transform="translate(-2429.924 -355.795)"/></g><g transform="translate(0 58.495)"><path class="c" d="M2401.215,448.277a24.032,24.032,0,0,1,0-33.987l.707.707a23.033,23.033,0,0,0,0,32.573Z" transform="translate(-2394.176 -414.29)"/><g transform="translate(7.844 5.547)"><path class="c" d="M2406.762,442.73a16.187,16.187,0,0,1,0-22.893l.707.707a15.19,15.19,0,0,0,0,21.479Z" transform="translate(-2402.02 -419.837)"/></g><g transform="translate(15.688 11.093)"><path class="c" d="M2412.308,437.183a8.343,8.343,0,0,1,0-11.8l.707.708a7.343,7.343,0,0,0,0,10.385Z" transform="translate(-2409.864 -425.383)"/></g><g transform="translate(7.844 5.547)"><path class="c" d="M2406.762,442.73a16.187,16.187,0,0,1,0-22.893l.707.707a15.19,15.19,0,0,0,0,21.479Z" transform="translate(-2402.02 -419.837)"/></g><g transform="translate(15.688 11.093)"><path class="c" d="M2412.308,437.183a8.343,8.343,0,0,1,0-11.8l.707.708a7.343,7.343,0,0,0,0,10.385Z" transform="translate(-2409.864 -425.383)"/></g></g><g transform="translate(73.011 47.607)"><path class="b" d="M2489.9,417.311a4.754,4.754,0,0,0,1.679-1.146,5.637,5.637,0,0,0,1.463-3.822,5.527,5.527,0,0,0-.391-2.12,5.252,5.252,0,0,0-1.072-1.7,5.131,5.131,0,0,0-1.679-1.169,5.761,5.761,0,0,0-2.192-.417h-3.092v10.815h3.092a5.328,5.328,0,0,0,2.192-.438m-2.192-13.615a9.215,9.215,0,0,1,3.482.657,9.015,9.015,0,0,1,2.825,1.852,8.672,8.672,0,0,1,1.9,2.753,8.768,8.768,0,0,1,0,6.771,8.71,8.71,0,0,1-1.9,2.751,8.576,8.576,0,0,1-2.825,1.829,8.822,8.822,0,0,1-3.482.68h-6.623V403.7Z" transform="translate(-2467.187 -403.402)"/><path class="b" d="M2472.47,410.858a2.172,2.172,0,1,1,2.171-2.171,2.171,2.171,0,0,1-2.171,2.171m0-7.456a5.283,5.283,0,1,0,5.283,5.285,5.285,5.285,0,0,0-5.283-5.285" transform="translate(-2467.187 -403.402)"/></g></g></g><g transform="translate(713 3539)"><path class="a" d="M1285.657,586.974a33.129,33.129,0,0,1,5.581-8.338,34.888,34.888,0,0,0-11.264,6.8A28.882,28.882,0,0,0,1285.657,586.974Z" transform="translate(-1275.4 -573.816)"/><path class="a" d="M1301.925,588.346V576.535a34.886,34.886,0,0,0-4.946.525c-3.428,2.009-6.468,5.591-8.82,10.327A104.294,104.294,0,0,0,1301.925,588.346Z" transform="translate(-1282.04 -571.591)"/><path class="a" d="M1326.413,585.434a34.85,34.85,0,0,0-11.262-6.8,33.136,33.136,0,0,1,5.583,8.338A28.817,28.817,0,0,0,1326.413,585.434Z" transform="translate(-1300.987 -573.816)"/><path class="a" d="M1286.742,632.6a111.45,111.45,0,0,1,15.183-1.134V612.812h-18.9A57.4,57.4,0,0,0,1286.742,632.6Z" transform="translate(-1279.425 -605.822)"/><path class="a" d="M1301.925,610.372V590.786a112.273,112.273,0,0,1-14.825-1.08,56.726,56.726,0,0,0-4.07,20.666Z" transform="translate(-1279.425 -583.803)"/><path class="a" d="M1321.763,589.28a58.5,58.5,0,0,1,4.136,21.092h12.15a35.072,35.072,0,0,0-9.79-23.176A23.2,23.2,0,0,1,1321.763,589.28Z" transform="translate(-1313.192 -582.576)"/><path class="a" d="M1318.23,587.387c-2.353-4.736-5.391-8.317-8.818-10.326a34.726,34.726,0,0,0-4.946-.526v11.811A104.262,104.262,0,0,0,1318.23,587.387Z" transform="translate(-1294.349 -571.591)"/><path class="a" d="M1287.742,634.931c2.407,5.161,5.606,9.062,9.243,11.191a34.773,34.773,0,0,0,4.94.524V633.908A102.48,102.48,0,0,0,1287.742,634.931Z" transform="translate(-1281.842 -621.591)"/><path class="a" d="M1318.647,634.931a102.914,102.914,0,0,0-14.181-1.023v12.738a34.8,34.8,0,0,0,4.941-.524C1313.044,643.993,1316.241,640.092,1318.647,634.931Z" transform="translate(-1294.546 -621.591)"/><path class="a" d="M1280.489,610.372a58.56,58.56,0,0,1,4.136-21.092,23.239,23.239,0,0,1-6.5-2.083,35.07,35.07,0,0,0-9.791,23.175Z" transform="translate(-1263.192 -582.576)"/><path class="a" d="M1291.3,644.566a33.581,33.581,0,0,1-6.039-9.21,23,23,0,0,0-5.952,1.78A34.882,34.882,0,0,0,1291.3,644.566Z" transform="translate(-1275.038 -619.309)"/><path class="a" d="M1325.9,612.812a59.174,59.174,0,0,1-3.788,20.231,19.968,19.968,0,0,1,6.689,2.345,35.044,35.044,0,0,0,9.249-22.576Z" transform="translate(-1313.192 -610.304)"/><path class="a" d="M1284.281,633.043a59.077,59.077,0,0,1-3.792-20.231h-12.153a35.032,35.032,0,0,0,9.251,22.575A20.021,20.021,0,0,1,1284.281,633.043Z" transform="translate(-1263.192 -610.304)"/><path class="a" d="M1319.292,589.706a112.335,112.335,0,0,1-14.826,1.08v19.586h18.892A56.792,56.792,0,0,0,1319.292,589.706Z" transform="translate(-1296.964 -583.803)"/><path class="a" d="M1321.131,635.356a33.589,33.589,0,0,1-6.037,9.21,34.881,34.881,0,0,0,11.988-7.43A23.039,23.039,0,0,0,1321.131,635.356Z" transform="translate(-1301.349 -619.309)"/><path class="a" d="M1304.466,612.812v18.656a111.4,111.4,0,0,1,15.18,1.134,57.407,57.407,0,0,0,3.712-19.79Z" transform="translate(-1296.964 -605.822)"/><path class="c" d="M1278.194,571.591a15,15,0,1,0,15,15A15.018,15.018,0,0,0,1278.194,571.591Zm13.07,14.543h-4.556a21.94,21.94,0,0,0-1.551-7.909,8.7,8.7,0,0,0,2.436-.782A13.15,13.15,0,0,1,1291.263,586.134Zm-15.4,13.406a9.293,9.293,0,0,1-3.466-4.2,38.448,38.448,0,0,1,5.319-.383v4.777A13.043,13.043,0,0,1,1275.865,599.54Zm4.66-25.9a9.039,9.039,0,0,1,3.307,3.872,39.088,39.088,0,0,1-5.162.359v-4.429A13.019,13.019,0,0,1,1280.525,573.642Zm2.152.591a13.071,13.071,0,0,1,4.223,2.549,10.8,10.8,0,0,1-2.129.577A12.429,12.429,0,0,0,1282.677,574.233Zm-6.815-.591a13.085,13.085,0,0,1,1.855-.2v4.429a39.1,39.1,0,0,1-5.162-.359A9.037,9.037,0,0,1,1275.862,573.642Zm-4.246,3.718a10.828,10.828,0,0,1-2.131-.577,13.087,13.087,0,0,1,4.224-2.549A12.414,12.414,0,0,0,1271.617,577.36Zm.541,1.025a42.1,42.1,0,0,0,5.559.4v7.345h-7.086A21.265,21.265,0,0,1,1272.158,578.384Zm5.559,8.665v7a41.8,41.8,0,0,0-5.694.425,21.526,21.526,0,0,1-1.392-7.421Zm-3.986,11.908a13.077,13.077,0,0,1-4.5-2.786,8.629,8.629,0,0,1,2.232-.667A12.592,12.592,0,0,0,1273.731,598.957Zm4.939.78V594.96a38.612,38.612,0,0,1,5.318.383,9.288,9.288,0,0,1-3.465,4.2A13.053,13.053,0,0,1,1278.67,599.737Zm6.249-4.234a8.642,8.642,0,0,1,2.232.667,13.078,13.078,0,0,1-4.5,2.786A12.586,12.586,0,0,0,1284.919,595.5Zm-.557-1.033a41.775,41.775,0,0,0-5.693-.425v-7h7.085A21.526,21.526,0,0,1,1284.362,594.47Zm-5.693-8.336v-7.345a42.122,42.122,0,0,0,5.56-.4,21.3,21.3,0,0,1,1.525,7.75Zm-9.877-8.691a8.722,8.722,0,0,0,2.437.781,21.951,21.951,0,0,0-1.551,7.909h-4.558A13.15,13.15,0,0,1,1268.793,577.443Zm-3.672,9.606h4.558a22.144,22.144,0,0,0,1.422,7.586,7.507,7.507,0,0,0-2.51.879A13.137,13.137,0,0,1,1265.121,587.049Zm22.674,8.466a7.5,7.5,0,0,0-2.508-.879,22.188,22.188,0,0,0,1.42-7.586h4.556A13.142,13.142,0,0,1,1287.8,595.515Z" transform="translate(-1263.192 -571.591)"/></g><g transform="translate(1177 3539)"><path class="a" d="M1285.657,586.974a33.129,33.129,0,0,1,5.581-8.338,34.888,34.888,0,0,0-11.264,6.8A28.882,28.882,0,0,0,1285.657,586.974Z" transform="translate(-1275.4 -573.816)"/><path class="a" d="M1301.925,588.346V576.535a34.886,34.886,0,0,0-4.946.525c-3.428,2.009-6.468,5.591-8.82,10.327A104.294,104.294,0,0,0,1301.925,588.346Z" transform="translate(-1282.04 -571.591)"/><path class="a" d="M1326.413,585.434a34.85,34.85,0,0,0-11.262-6.8,33.136,33.136,0,0,1,5.583,8.338A28.817,28.817,0,0,0,1326.413,585.434Z" transform="translate(-1300.987 -573.816)"/><path class="a" d="M1286.742,632.6a111.45,111.45,0,0,1,15.183-1.134V612.812h-18.9A57.4,57.4,0,0,0,1286.742,632.6Z" transform="translate(-1279.425 -605.822)"/><path class="a" d="M1301.925,610.372V590.786a112.273,112.273,0,0,1-14.825-1.08,56.726,56.726,0,0,0-4.07,20.666Z" transform="translate(-1279.425 -583.803)"/><path class="a" d="M1321.763,589.28a58.5,58.5,0,0,1,4.136,21.092h12.15a35.072,35.072,0,0,0-9.79-23.176A23.2,23.2,0,0,1,1321.763,589.28Z" transform="translate(-1313.192 -582.576)"/><path class="a" d="M1318.23,587.387c-2.353-4.736-5.391-8.317-8.818-10.326a34.726,34.726,0,0,0-4.946-.526v11.811A104.262,104.262,0,0,0,1318.23,587.387Z" transform="translate(-1294.349 -571.591)"/><path class="a" d="M1287.742,634.931c2.407,5.161,5.606,9.062,9.243,11.191a34.773,34.773,0,0,0,4.94.524V633.908A102.48,102.48,0,0,0,1287.742,634.931Z" transform="translate(-1281.842 -621.591)"/><path class="a" d="M1318.647,634.931a102.914,102.914,0,0,0-14.181-1.023v12.738a34.8,34.8,0,0,0,4.941-.524C1313.044,643.993,1316.241,640.092,1318.647,634.931Z" transform="translate(-1294.546 -621.591)"/><path class="a" d="M1280.489,610.372a58.56,58.56,0,0,1,4.136-21.092,23.239,23.239,0,0,1-6.5-2.083,35.07,35.07,0,0,0-9.791,23.175Z" transform="translate(-1263.192 -582.576)"/><path class="a" d="M1291.3,644.566a33.581,33.581,0,0,1-6.039-9.21,23,23,0,0,0-5.952,1.78A34.882,34.882,0,0,0,1291.3,644.566Z" transform="translate(-1275.038 -619.309)"/><path class="a" d="M1325.9,612.812a59.174,59.174,0,0,1-3.788,20.231,19.968,19.968,0,0,1,6.689,2.345,35.044,35.044,0,0,0,9.249-22.576Z" transform="translate(-1313.192 -610.304)"/><path class="a" d="M1284.281,633.043a59.077,59.077,0,0,1-3.792-20.231h-12.153a35.032,35.032,0,0,0,9.251,22.575A20.021,20.021,0,0,1,1284.281,633.043Z" transform="translate(-1263.192 -610.304)"/><path class="a" d="M1319.292,589.706a112.335,112.335,0,0,1-14.826,1.08v19.586h18.892A56.792,56.792,0,0,0,1319.292,589.706Z" transform="translate(-1296.964 -583.803)"/><path class="a" d="M1321.131,635.356a33.589,33.589,0,0,1-6.037,9.21,34.881,34.881,0,0,0,11.988-7.43A23.039,23.039,0,0,0,1321.131,635.356Z" transform="translate(-1301.349 -619.309)"/><path class="a" d="M1304.466,612.812v18.656a111.4,111.4,0,0,1,15.18,1.134,57.407,57.407,0,0,0,3.712-19.79Z" transform="translate(-1296.964 -605.822)"/><path class="c" d="M1278.194,571.591a15,15,0,1,0,15,15A15.018,15.018,0,0,0,1278.194,571.591Zm13.07,14.543h-4.556a21.94,21.94,0,0,0-1.551-7.909,8.7,8.7,0,0,0,2.436-.782A13.15,13.15,0,0,1,1291.263,586.134Zm-15.4,13.406a9.293,9.293,0,0,1-3.466-4.2,38.448,38.448,0,0,1,5.319-.383v4.777A13.043,13.043,0,0,1,1275.865,599.54Zm4.66-25.9a9.039,9.039,0,0,1,3.307,3.872,39.088,39.088,0,0,1-5.162.359v-4.429A13.019,13.019,0,0,1,1280.525,573.642Zm2.152.591a13.071,13.071,0,0,1,4.223,2.549,10.8,10.8,0,0,1-2.129.577A12.429,12.429,0,0,0,1282.677,574.233Zm-6.815-.591a13.085,13.085,0,0,1,1.855-.2v4.429a39.1,39.1,0,0,1-5.162-.359A9.037,9.037,0,0,1,1275.862,573.642Zm-4.246,3.718a10.828,10.828,0,0,1-2.131-.577,13.087,13.087,0,0,1,4.224-2.549A12.414,12.414,0,0,0,1271.617,577.36Zm.541,1.025a42.1,42.1,0,0,0,5.559.4v7.345h-7.086A21.265,21.265,0,0,1,1272.158,578.384Zm5.559,8.665v7a41.8,41.8,0,0,0-5.694.425,21.526,21.526,0,0,1-1.392-7.421Zm-3.986,11.908a13.077,13.077,0,0,1-4.5-2.786,8.629,8.629,0,0,1,2.232-.667A12.592,12.592,0,0,0,1273.731,598.957Zm4.939.78V594.96a38.612,38.612,0,0,1,5.318.383,9.288,9.288,0,0,1-3.465,4.2A13.053,13.053,0,0,1,1278.67,599.737Zm6.249-4.234a8.642,8.642,0,0,1,2.232.667,13.078,13.078,0,0,1-4.5,2.786A12.586,12.586,0,0,0,1284.919,595.5Zm-.557-1.033a41.775,41.775,0,0,0-5.693-.425v-7h7.085A21.526,21.526,0,0,1,1284.362,594.47Zm-5.693-8.336v-7.345a42.122,42.122,0,0,0,5.56-.4,21.3,21.3,0,0,1,1.525,7.75Zm-9.877-8.691a8.722,8.722,0,0,0,2.437.781,21.951,21.951,0,0,0-1.551,7.909h-4.558A13.15,13.15,0,0,1,1268.793,577.443Zm-3.672,9.606h4.558a22.144,22.144,0,0,0,1.422,7.586,7.507,7.507,0,0,0-2.51.879A13.137,13.137,0,0,1,1265.121,587.049Zm22.674,8.466a7.5,7.5,0,0,0-2.508-.879,22.188,22.188,0,0,0,1.42-7.586h4.556A13.142,13.142,0,0,1,1287.8,595.515Z" transform="translate(-1263.192 -571.591)"/></g><g transform="translate(315 3420)"><path class="c" d="M452.066,585.5v-1.99h9.94V585.5Zm-4.97,0h-9.94v-1.99h9.94Zm-14.91,0h-9.94v-1.99h9.94Zm-14.91,0h-9.94v-1.99h9.94Zm-14.91,0h-9.94v-1.99h9.94Zm-14.91,0h-9.94v-1.99h9.94Zm-14.91,0h-9.94v-1.99h9.94Zm-14.91,0H347.7v-1.99h9.94Zm-14.91,0h-9.94v-1.99h9.94Zm-14.91,0h-9.94v-1.99h9.94Zm-14.91,0h-9.94v-1.99h9.94Zm-14.91,0h-9.94v-1.99H298Zm-14.91,0h-9.94v-1.99h9.94Zm-14.91,0h-9.94v-1.99h9.94Zm-14.91,0h-9.94v-1.99h9.94Zm-14.91,0h-9.94v-1.99h9.94Zm-14.91,0h-9.94v-1.99h9.94Zm-14.91,0H198.6v-1.99h9.94Zm-14.91,0h-9.94v-1.99h9.94Zm-14.91,0H168.78v-1.99h9.94Zm-14.91,0h-9.94v-1.99h9.94Zm-14.91,0h-9.94v-1.99h9.94Zm-13.916-.994H133v-9.94h1.988Zm328.012-4.971H461V569.6h1.988Zm-328-9.939H133v-9.94h1.988ZM463,564.627h-1.988v-9.94H463Zm-328.012-9.938H133v-9.94h1.988ZM463,549.718h-1.988v-9.94H463Zm-328.012-9.939H133v-9.94h1.988ZM463,534.812h-1.988v-9.94H463Zm-328.012-9.943H133v-9.94h1.988ZM463,519.9h-1.988v-9.94H463ZM134.988,509.96H133v-9.94h1.988ZM463,504.989h-1.988v-9.94H463ZM134.988,495.05H133v-9.938h1.988ZM463,490.079h-1.988V480.14H463Zm-328.012-9.938H133V470.2h1.988ZM463,475.17h-1.988v-9.94H463Zm-328.012-9.939H133v-9.94h1.988ZM463,460.26h-1.988v-9.94H463Zm-328.012-9.939H133v-9.94h1.988ZM463,445.35h-1.988v-9.938H463Zm-328.012-9.938H133v-9.94h1.988ZM463,430.441h-1.988V420.5H463ZM134.988,420.5H133v-9.94h1.988ZM463,415.531h-1.988v-9.94H463Zm-328.012-9.939H133v-9.94h1.988ZM463,400.621h-1.988v-9.94H463Zm-328.012-9.938H133v-9.94h1.988ZM463,385.712h-1.988v-9.94H463Zm-328.012-9.939H133v-9.94h1.988ZM463,370.8h-1.988v-9.94H463Zm-328.012-9.939H133v-9.94h1.988ZM463,355.892h-1.988v-9.94H463Zm-328.012-9.939H133v-9.94h1.988ZM463,340.982h-1.988v-9.94H463Zm-328.012-9.939H133V321.1h1.988ZM463,326.072h-1.988v-9.94H463Zm-328.012-9.939H133v-9.94h1.988ZM463,311.162h-1.988v-9.94H463Zm-328.012-9.939H133v-9.94h1.988ZM463,296.252h-1.988v-9.94H463Zm-328.012-9.94H133v-9.94h1.988ZM463,281.341h-1.988V271.4H463ZM134.988,271.4H133v-9.94h1.988ZM463,266.431h-1.988v-9.939H463Zm-5.964-8.945H447.1V255.5h9.94Zm-14.91,0h-9.94V255.5h9.94Zm-14.91,0h-9.94V255.5h9.94Zm-14.91,0h-9.94V255.5h9.94Zm-14.91,0h-9.94V255.5h9.94Zm-14.91,0h-9.94V255.5h9.94Zm-14.91,0h-9.94V255.5h9.94Zm-14.91,0h-9.94V255.5h9.94Zm-14.91,0h-9.94V255.5h9.94Zm-14.91,0h-9.94V255.5h9.94Zm-14.91,0H298V255.5h9.94Zm-14.91,0h-9.94V255.5h9.94Zm-14.91,0h-9.94V255.5h9.94Zm-14.91,0h-9.94V255.5h9.94Zm-14.91,0h-9.94V255.5h9.94Zm-14.91,0h-9.94V255.5h9.94Zm-14.91,0h-9.94V255.5h9.944Zm-14.91,0h-9.94V255.5h9.94Zm-14.91,0h-9.94V255.5h9.94Zm-14.91,0h-9.94V255.5h9.94Zm-14.91,0H148.9V255.5h9.94Zm-14.91,0h-9.94V255.5h9.94Z" transform="translate(-133 -255.498)"/></g><g transform="translate(0 -7)"><g transform="translate(498.888 3600.496)"><path class="b" d="M316.888,446.186h1.1l4.155,12.01,3.87-12.048h.755L330.64,458.2l4.153-12.01h1.021l-4.8,13.591h-.792l-3.872-11.72-3.872,11.72h-.792Z" transform="translate(-316.888 -445.994)"/><path class="b" d="M338.534,445.994h1.151v1.291h-1.151Zm.113,3.856h.926v9.831h-.926Z" transform="translate(-316.888 -445.994)"/><path class="b" d="M342.78,453.413h5.06v1.079h-5.06Z" transform="translate(-316.888 -445.994)"/><path class="b" d="M351.128,446.186h9.31v.926H352.11v5.532h7.477v.925H352.11v6.111h-.982Z" transform="translate(-316.888 -445.994)"/><path class="b" d="M363.328,445.994h1.151v1.291h-1.151Zm.112,3.856h.926v9.831h-.926Z" transform="translate(-316.888 -445.994)"/></g><g transform="translate(463.109 3658.615)"><path class="c" d="M314.187,501.809a22.9,22.9,0,0,0-32.378,0l-.7-.7a23.89,23.89,0,0,1,33.783,0Z" transform="translate(-281.109 -494.113)"/><g transform="translate(5.514 7.794)"><path class="c" d="M308.674,507.319l.7-.7a16.092,16.092,0,0,0-22.756,0l.7.7A15.1,15.1,0,0,1,308.674,507.319Z" transform="translate(-286.623 -501.907)"/><path class="c" d="M292.137,512.136l.7.7a7.3,7.3,0,0,1,10.323,0l.706-.7h0A8.293,8.293,0,0,0,292.137,512.136Z" transform="translate(-286.623 -501.907)"/></g><g transform="translate(5.514 7.794)"><path class="c" d="M308.674,507.319a15.1,15.1,0,0,0-21.351,0l-.7-.7a16.092,16.092,0,0,1,22.756,0Z" transform="translate(-286.623 -501.907)"/></g><g transform="translate(11.028 15.594)"><path class="c" d="M303.16,512.836a7.3,7.3,0,0,0-10.323,0l-.7-.7a8.293,8.293,0,0,1,11.728,0h0Z" transform="translate(-292.137 -509.707)"/></g></g><g transform="translate(463.107 3537.773)"><g transform="translate(0 11.022)"><path class="c" d="M298,412.993a23.737,23.737,0,0,1-16.893-7l.7-.7a22.9,22.9,0,0,0,32.378,0l.7.7A23.736,23.736,0,0,1,298,412.993Z" transform="translate(-281.107 -405.293)"/></g><g transform="translate(5.514 5.513)"><path class="c" d="M298,405.2a15.984,15.984,0,0,1-11.379-4.713l.7-.7a15.1,15.1,0,0,0,21.35,0l.7.7A15.984,15.984,0,0,1,298,405.2Z" transform="translate(-286.621 -399.784)"/></g><g transform="translate(11.027)"><path class="c" d="M298,397.4a8.238,8.238,0,0,1-5.865-2.429l.7-.7a7.3,7.3,0,0,0,10.324,0l.7.7A8.232,8.232,0,0,1,298,397.4Z" transform="translate(-292.134 -394.271)"/></g><g transform="translate(5.514 5.513)"><path class="c" d="M298,405.2a15.984,15.984,0,0,1-11.379-4.713l.7-.7a15.1,15.1,0,0,0,21.35,0l.7.7A15.984,15.984,0,0,1,298,405.2Z" transform="translate(-286.621 -399.784)"/></g><g transform="translate(11.027)"><path class="c" d="M298,397.4a8.238,8.238,0,0,1-5.865-2.429l.7-.7a7.3,7.3,0,0,0,10.324,0l.7.7A8.232,8.232,0,0,1,298,397.4Z" transform="translate(-292.134 -394.271)"/></g></g><g transform="translate(472.274 3574.755)"><g transform="translate(6.41 16.342)"><rect class="c" width="2.63" height="33.915"/></g><g transform="translate(0.002 45.371)"><path class="c" d="M298,486.852l7.727-21.228s-7.725,4.885-15.451,0L298,486.852" transform="translate(-290.276 -465.624)"/></g><path class="c" d="M298,420.253l-7.726,21.226s7.726-4.885,15.451,0L298,420.253" transform="translate(-290.274 -420.253)"/></g><g transform="translate(-361.789 2610.524)"><path class="a" d="M902.785,849.6H776.209a9.439,9.439,0,0,0-9.47,9.389v43.786a9.442,9.442,0,0,0,9.47,9.388H777.7V895.154H901.685l-.008,17h1.108a9.441,9.441,0,0,0,9.47-9.389V858.988A9.439,9.439,0,0,0,902.785,849.6Zm-21.4,14.036H836.639a1.012,1.012,0,1,1-.078-2.022.648.648,0,0,1,.078,0H881.3a1.012,1.012,0,1,1,.08,2.022Zm17.829,0h-9.139a1.012,1.012,0,0,1-.08-2.022.674.674,0,0,1,.08,0h9.059a1.012,1.012,0,0,1,.08,2.022Z" transform="translate(1.954 1.951)"/><path class="a" d="M879.482,889.143a1.012,1.012,0,1,1-.078-2.022.648.648,0,0,1,.078,0h10.882v-5.058H777.155v5.058h93.572a1.012,1.012,0,0,1,.08,2.022H777.155v4.544H890.364v-4.544Z" transform="translate(7.88 20.42)"/><path class="e" d="M904.74,846.169H778.163a14.832,14.832,0,0,0-14.859,14.77v43.779a14.833,14.833,0,0,0,14.859,14.77H904.74A14.83,14.83,0,0,0,919.6,904.724V860.939A14.828,14.828,0,0,0,904.74,846.169Zm-119.7,67.938v-4.544h93.652a1.012,1.012,0,0,0-.08-2.022H785.035v-5.058H898.244v5.058H887.362a.648.648,0,0,0-.078,0,1.012,1.012,0,1,0,.078,2.022h10.882v4.544Zm129.174-9.389a9.441,9.441,0,0,1-9.47,9.389h-1.108l.008-17H779.655v17.007h-1.492a9.442,9.442,0,0,1-9.47-9.388V860.939a9.439,9.439,0,0,1,9.47-9.389H904.74a9.439,9.439,0,0,1,9.47,9.389Z" transform="translate(0 0)"/><path class="e" d="M856.339,857.256H811.674a.648.648,0,0,0-.078,0,1.012,1.012,0,1,0,.078,2.022h44.746a1.012,1.012,0,1,0-.08-2.022Z" transform="translate(26.92 6.307)"/><path class="e" d="M854.792,857.256h-9.059a.674.674,0,0,0-.08,0,1.012,1.012,0,0,0,.08,2.022h9.139a1.012,1.012,0,0,0-.08-2.022Z" transform="translate(46.297 6.307)"/></g><g transform="translate(433.685 3655.681)"><path class="f" d="M322.724,552.471h0v2.352h5.087V552.47h-5.084Z" transform="translate(-251.685 -491.179)"/><path class="f" d="M337.124,552.47H332.04v2.352h5.085v-2.352h0Z" transform="translate(-251.685 -491.179)"/><path class="f" d="M318.49,552.47h-5.084v2.352h5.085v-2.352h0Z" transform="translate(-251.685 -491.179)"/><path class="f" d="M293.482,552.47H258.305v2.352h35.178v-2.352h0Z" transform="translate(-251.685 -491.179)"/><path class="f" d="M343.922,546.8a6.145,6.145,0,0,0-2.952-3.494,11.317,11.317,0,0,0-5.454-1.133h-2.453l3.329-29.4a3.145,3.145,0,0,0-.9-2.572l-.013.085.011-.085,2.723-17.668a1.178,1.178,0,0,0-.982-1.342,1.137,1.137,0,0,0-.182-.013,1.174,1.174,0,0,0-1.16,1l-2.635,17.106h0a3.143,3.143,0,0,0-3.1,2.785L326.8,541.706a3.15,3.15,0,0,0,.019.467H267.651a3.011,3.011,0,0,0,.02-.467l-3.353-29.638A3.132,3.132,0,0,0,261.3,509.3l-.081-.524h0l.081.523c-.028,0-.052-.015-.08-.015h0l-2.635-17.106a1.176,1.176,0,0,0-1.16-1,1.136,1.136,0,0,0-.182.013,1.178,1.178,0,0,0-.982,1.342l2.722,17.668.012.085-.013-.085a3.145,3.145,0,0,0-.9,2.572l3.33,29.4h-.923c-2.9,0-5.169.6-6.781,2.083a6.093,6.093,0,0,0-1.625,2.544,8.315,8.315,0,0,0-.4,2.666v10.059a8.329,8.329,0,0,0,.4,2.669,6.156,6.156,0,0,0,2.955,3.494,11.365,11.365,0,0,0,5.451,1.132h75.027c2.9,0,5.169-.6,6.781-2.083a6.08,6.08,0,0,0,1.625-2.543,8.33,8.33,0,0,0,.4-2.669V549.466A8.316,8.316,0,0,0,343.922,546.8Zm-4.307,12.454v.273a3.616,3.616,0,0,1-.154,1.167,1.383,1.383,0,0,1-.74.86c-.07.039-.175.077-.266.116a5.71,5.71,0,0,1-1.434.347,10.957,10.957,0,0,1-1.474.1H260.48a10.759,10.759,0,0,1-1.689-.126,3.757,3.757,0,0,1-1.794-.636c-.022-.019-.066-.042-.084-.06l-.369-.6a3.8,3.8,0,0,1-.154-1.17V549.466a3.83,3.83,0,0,1,.154-1.17,1.64,1.64,0,0,1,.25-.472c.025-.031.087-.063.118-.093a1.816,1.816,0,0,1,.375-.291,2.866,2.866,0,0,1,.3-.131,5.8,5.8,0,0,1,1.442-.34,11.094,11.094,0,0,1,1.428-.091h75.07c2.293,0,3.253.508,3.566.822l.37.595a3.654,3.654,0,0,1,.154,1.17Z" transform="translate(-251.685 -491.179)"/></g></g></g></svg>