<svg xmlns="http://www.w3.org/2000/svg" width="61" height="61" viewBox="0 0 61 61"><defs><style>.b{fill:#00adef}</style></defs><g transform="translate(-409.79 -104.829)"><circle cx="30" cy="30" r="30" transform="translate(410.29 105.329)" fill="none" stroke="#f5f5f5"/><path d="M440.29 118.378a17.728 17.728 0 018.643 2.146l-4.163.628a.682.682 0 00.1 1.356.747.747 0 00.1-.007l5.98-.9a.68.68 0 00.137-.056.625.625 0 00.1-.04.639.639 0 00.181-.164s.008 0 .01-.009v-.005a.628.628 0 00.077-.089.685.685 0 000-.622l-2.781-5.438a.682.682 0 00-1.214.622l1.682 3.289a19.266 19.266 0 00-8.856-2.073 18.086 18.086 0 00-14.735 28.562.682.682 0 001.111-.791 16.722 16.722 0 0113.628-26.41z"/><path class="b" d="M454.767 124.262a.682.682 0 10-1.09.818 16.722 16.722 0 01-13.387 26.74 17.289 17.289 0 01-8.646-2.255l4.461-.733a.682.682 0 10-.221-1.346l-6.183 1.017h-.012c-.012 0-.02.011-.031.014a.542.542 0 00-.311.167.611.611 0 00-.094.085.559.559 0 00-.031.065c-.01.015-.026.024-.033.04s-.006.04-.014.059a.67.67 0 00-.044.191.553.553 0 00.052.32c.008.016 0 .035.014.051l3.164 5.992a.682.682 0 101.205-.638l-1.986-3.76a18.816 18.816 0 008.711 2.093 18.085 18.085 0 0014.477-28.922z"/><path d="M431.563 136.954v3.9a.682.682 0 101.364 0v-3.9a.682.682 0 00-1.364 0zm2.676-1.95v5.851a.682.682 0 101.364 0v-5.851a.682.682 0 10-1.364 0zm2.677-1.95v7.8a.682.682 0 001.364 0v-7.8a.682.682 0 00-1.364 0zm2.677 2.925v4.876a.682.682 0 001.364 0v-4.876a.682.682 0 00-1.364 0zm2.677-1.625v6.5a.682.682 0 001.364 0v-6.5a.682.682 0 10-1.364 0zm2.677-1.95v8.451a.682.682 0 101.364 0v-8.451a.682.682 0 10-1.364 0zm2.676-1.951v10.4a.682.682 0 101.364 0v-10.4a.682.682 0 10-1.364 0z"/><path class="b" d="M449.205 125.899a.681.681 0 00-.953-.149l-7.859 5.735-2.268-2.78a.681.681 0 00-.93-.119l-5.956 4.349a.682.682 0 00.8 1.1l5.435-3.968 2.268 2.78a.683.683 0 00.93.119l8.38-6.116a.682.682 0 00.153-.951z"/></g></svg>