<svg xmlns="http://www.w3.org/2000/svg" width="300" height="71.97" viewBox="0 0 300 71.97"><defs><linearGradient id="b" x1="1" y1=".5" x2="0" y2=".5" gradientUnits="objectBoundingBox"><stop offset="0" stop-color="#ffa3b1"/><stop offset="1" stop-color="#ffe4aa"/></linearGradient><clipPath id="a"><path fill="none" d="M0 0h154.921v9.734H0z"/></clipPath></defs><path d="M83.956 1.181a36.109 36.109 0 0125.838 10.266 35.465 35.465 0 017.766 11.273 34.1 34.1 0 012.791 13.849 33.961 33.961 0 01-2.791 13.849 35.143 35.143 0 01-19.326 18.757 35.787 35.787 0 01-14.314 2.792H56.865V1.181zm9.09 55.72a19.718 19.718 0 006.871-4.688 22.188 22.188 0 004.4-7.157 22.76 22.76 0 001.575-8.589 23.118 23.118 0 00-1.575-8.66 21.83 21.83 0 00-4.4-6.978 21.007 21.007 0 00-6.871-4.688 24.049 24.049 0 00-9.09-1.825H71.323V58.69h12.633a21.472 21.472 0 009.09-1.789M21.472 0a21.472 21.472 0 1021.472 21.472A21.472 21.472 0 0021.472 0m0 30.49a8.875 8.875 0 116.42-2.6 8.875 8.875 0 01-6.42 2.6M147.835 8.16v17.321h-2.791V5.619h4.688l5.082 16.569 5.081-16.569h4.689v19.862h-2.828V8.16l-5.475 17.321h-2.967zm20.756 7.371a9.376 9.376 0 1118.645 0 9.376 9.376 0 11-18.645 0m15.818 0c0-5.118-2.863-7.909-6.477-7.909s-6.478 2.791-6.478 7.909 2.863 7.98 6.477 7.98 6.477-2.827 6.477-7.98m9.663 9.946h-2.791V5.619h2.791v15.858L204.807 5.69h2.756v19.787h-2.791V9.698zm5.4-20.971c-3.141.003-4.684-1.429-4.97-3.289h2.111c0 1.038 1.181 1.61 2.9 1.61s2.718-.608 2.933-1.61h2.111c-.214 1.86-1.826 3.292-5.081 3.292m-51.64 40.725v9.054h-2.791V34.391h2.791v8.446h2l6.697-8.446h3.364l-7.658 9.412 7.945 10.486h-3.329l-6.94-9.055zm13.205-.894a9.376 9.376 0 1118.645 0 9.376 9.376 0 11-18.645 0m15.782 0c0-5.153-2.827-7.945-6.442-7.945s-6.479 2.792-6.479 7.945 2.827 7.945 6.477 7.945 6.442-2.827 6.442-7.945m9.557-7.372v17.32h-2.791V34.391h4.688l5.082 16.569 5.046-16.569h4.684v19.9h-2.788V36.968l-5.475 17.32h-2.97zm40.94 7.371a8.3 8.3 0 01-8.839 8.338v2.33h-2.827v-2.329a8.446 8.446 0 110-16.891v-2.47h2.827v2.469a8.374 8.374 0 018.839 8.553m-17.679 0a5.9 5.9 0 006.012 6.084V38.112a5.869 5.869 0 00-6.012 6.155m14.816 0a5.9 5.9 0 00-5.976-6.155v12.239a5.869 5.869 0 005.976-6.084m5.44.073a9.376 9.376 0 1118.645 0 9.376 9.376 0 11-18.645 0m15.818 0c0-5.153-2.863-7.945-6.477-7.945s-6.62 2.971-6.62 7.945 2.863 7.945 6.477 7.945 6.477-2.827 6.477-7.945m21.507-3.937c0 4.939-3.4 6.012-8.267 6.012h-3.579v7.873h-2.791V34.391h6.227c4.867 0 8.267 1.109 8.267 6.012m-11.703 3.578h3.579c2.9 0 5.189-.322 5.189-3.579s-2.29-3.579-5.189-3.579h-3.579zm12.24-7.157v-2.433h15.746v2.433h-6.477v17.464h-2.792V36.824zm23.798 9.448h-6.191V43.91h6.191v-6.048h2.505v6.048H300v2.362h-6.227v6.191h-2.505z" fill="#231f20"/><g transform="translate(145.044 62.197)" clip-path="url(#a)"><path fill="url(#b)" d="M0 0h154.921v9.734H0z"/></g></svg>