<svg xmlns="http://www.w3.org/2000/svg" width="283.216" height="71.97" viewBox="0 0 283.216 71.97"><defs><linearGradient id="a" y1=".5" x2=".761" y2=".5" gradientUnits="objectBoundingBox"><stop offset="0" stop-color="#a0b1ff"/><stop offset="1" stop-color="#ffdcd6"/></linearGradient><clipPath id="b"><path class="a" d="M0 0h138.173v9.734H0z"/></clipPath><style>.a{fill:url(#a)}</style></defs><g transform="translate(145.044 62.233)" clip-path="url(#b)"><path class="a" d="M0 0h138.173v9.734H0z"/></g><path d="M83.956 1.216a36.288 36.288 0 0125.838 10.235 35.465 35.465 0 017.766 11.273 34.1 34.1 0 012.791 13.849 33.854 33.854 0 01-2.792 13.85 35.143 35.143 0 01-19.325 18.75 35.787 35.787 0 01-14.315 2.791H56.865V1.216zm9.09 55.684a19.253 19.253 0 006.871-4.688 22.188 22.188 0 004.4-7.157 22.76 22.76 0 001.575-8.589 23.119 23.119 0 00-1.575-8.66 22.26 22.26 0 00-4.4-6.978 21.007 21.007 0 00-6.871-4.688 24.049 24.049 0 00-9.09-1.825H71.323v44.411h12.633a21.472 21.472 0 009.09-1.825M21.472 0a21.472 21.472 0 1021.472 21.472A21.472 21.472 0 0021.472 0m0 30.49a8.875 8.875 0 116.42-2.6 8.875 8.875 0 01-6.42 2.6M147.835 8.16v17.356h-2.791V5.619h4.688l5.082 16.569 5.082-16.569h4.688v19.9h-2.828V8.16l-5.475 17.356h-2.967zm20.757 7.371a9.376 9.376 0 1118.645 0 9.376 9.376 0 11-18.645 0m15.818 0c0-5.118-2.863-7.909-6.477-7.909s-6.478 2.791-6.478 7.909 2.863 7.98 6.477 7.98 6.477-2.827 6.477-7.98m9.662 9.985h-2.791V5.619h2.791v15.858L204.807 5.69h2.756v19.826h-2.791V9.698zm5.4-21.007c-3.141 0-4.684-1.432-4.97-3.292h2.111c0 1.038 1.181 1.646 2.9 1.646s2.718-.644 2.933-1.646h2.111c-.214 1.86-1.826 3.292-5.081 3.292m-51.64 40.832v9.054h-2.791V34.498h2.791v8.446h2l6.697-8.446h3.364l-7.658 9.412 7.945 10.486h-3.329l-6.94-9.055zm13.206-.892a9.376 9.376 0 1118.645 0 9.376 9.376 0 11-18.645 0m15.782 0c0-5.153-2.827-7.945-6.442-7.945s-6.479 2.79-6.479 7.945 2.827 7.945 6.477 7.945 6.442-2.827 6.442-7.945m9.556-7.374v17.32h-2.791V34.498h4.688l5.082 16.569 5.046-16.569h4.684v19.9h-2.788V37.075l-5.475 17.32h-2.97zm40.94 7.372a8.3 8.3 0 01-8.839 8.338v2.326h-2.827v-2.326a8.446 8.446 0 110-16.891v-2.469h2.827v2.36a8.374 8.374 0 018.839 8.553m-17.679 0a5.9 5.9 0 006.012 6.084v-12.2a5.869 5.869 0 00-6.012 6.155m14.816 0a5.9 5.9 0 00-5.976-6.155v12.237a5.9 5.9 0 005.976-6.084m5.44.074a9.376 9.376 0 1118.645 0 9.376 9.376 0 11-18.645 0m15.818 0c0-5.153-2.863-7.945-6.477-7.945s-6.62 2.861-6.62 7.945 2.863 7.945 6.477 7.945 6.477-2.827 6.477-7.945m21.508-3.939c0 4.939-3.4 6.012-8.267 6.012h-3.579v7.873h-2.791V34.498h6.227c4.867 0 8.267 1.109 8.267 6.012m-11.7 3.579h3.576c2.9 0 5.189-.322 5.189-3.579s-2.29-3.579-5.189-3.579h-3.579zm12.236-7.158v-2.433h15.746v2.433h-6.477v17.464h-2.792V36.931z" fill="#231f20"/></svg>