<svg xmlns="http://www.w3.org/2000/svg" xmlns:xlink="http://www.w3.org/1999/xlink" width="283.216" height="71.97" viewBox="0 0 283.216 71.97"><defs><style>.a{fill:url(#a);}.b{clip-path:url(#b);}.c{fill:#231f20;}</style><linearGradient id="a" y1="0.5" x2="0.761" y2="0.5" gradientUnits="objectBoundingBox"><stop offset="0" stop-color="#a0b1ff"/><stop offset="1" stop-color="#ffdcd6"/></linearGradient><clipPath id="b"><rect class="a" width="138.173" height="9.734"/></clipPath></defs><g transform="translate(0)"><g class="b" transform="translate(145.044 62.233)"><rect class="a" width="138.173" height="9.734"/></g><path class="c" d="M42.981.343A36.288,36.288,0,0,1,68.819,10.578a35.465,35.465,0,0,1,7.766,11.273A34.1,34.1,0,0,1,79.376,35.7,33.854,33.854,0,0,1,76.584,49.55,35.143,35.143,0,0,1,57.259,68.3a35.787,35.787,0,0,1-14.315,2.791H15.89V.343Zm9.09,55.684a19.253,19.253,0,0,0,6.871-4.688,22.188,22.188,0,0,0,4.4-7.157,22.76,22.76,0,0,0,1.575-8.589,23.119,23.119,0,0,0-1.575-8.66,22.26,22.26,0,0,0-4.4-6.978,21.007,21.007,0,0,0-6.871-4.688,24.049,24.049,0,0,0-9.09-1.825H30.348V57.853H42.981a21.472,21.472,0,0,0,9.09-1.825" transform="translate(40.975 0.873)"/><path class="c" d="M21.472,0A21.472,21.472,0,1,0,42.944,21.472,21.472,21.472,0,0,0,21.472,0m0,30.49a8.875,8.875,0,1,1,6.42-2.6,8.875,8.875,0,0,1-6.42,2.6"/><path class="c" d="M43.321,4.111V21.467H40.53V1.57h4.688L50.3,18.139,55.382,1.57H60.07v19.9H57.242V4.111L51.767,21.467H48.8Z" transform="translate(104.514 4.049)"/><path class="c" d="M47.149,11.818a9.376,9.376,0,1,1,18.645,0,9.376,9.376,0,1,1-18.645,0m15.818,0c0-5.118-2.863-7.909-6.477-7.909S50.012,6.7,50.012,11.818s2.863,7.98,6.477,7.98,6.477-2.827,6.477-7.98" transform="translate(121.443 3.713)"/><path class="c" d="M56.241,24.639H53.45V4.742h2.791V20.6L66.977,4.813h2.756V24.639H66.942V8.821Zm5.4-21.007C58.5,3.632,56.957,2.2,56.671.34h2.111c0,1.038,1.181,1.646,2.9,1.646S64.4,1.342,64.615.34h2.111C66.512,2.2,64.9,3.632,61.645,3.632" transform="translate(137.83 0.877)"/><path class="c" d="M43.321,20.483v9.054H40.53V9.64h2.791v8.446h2L52.018,9.64h3.364l-7.658,9.412,7.945,10.486H52.34L45.4,20.483Z" transform="translate(104.514 24.858)"/><path class="c" d="M45.039,19.9a9.376,9.376,0,1,1,18.645,0,9.376,9.376,0,1,1-18.645,0m15.782,0c0-5.153-2.827-7.945-6.442-7.945S47.9,14.745,47.9,19.9s2.827,7.945,6.477,7.945,6.442-2.827,6.442-7.945" transform="translate(116.002 24.549)"/><path class="c" d="M54.091,12.217V29.537H51.3V9.64h4.688L61.07,26.209,66.116,9.64H70.8v19.9H68.012V12.217L62.537,29.537h-2.97Z" transform="translate(132.286 24.858)"/><path class="c" d="M78.012,20.362A8.3,8.3,0,0,1,69.173,28.7v2.326H66.346V28.7a8.446,8.446,0,1,1,0-16.891V9.34h2.827V11.7a8.374,8.374,0,0,1,8.839,8.553m-17.679,0a5.9,5.9,0,0,0,6.012,6.084v-12.2a5.869,5.869,0,0,0-6.012,6.155m14.816,0a5.9,5.9,0,0,0-5.976-6.155V26.374a5.9,5.9,0,0,0,5.976-6.084" transform="translate(149.305 24.085)"/><path class="c" d="M64.279,19.9a9.376,9.376,0,1,1,18.645,0,9.376,9.376,0,1,1-18.645,0m15.818,0c0-5.153-2.863-7.945-6.477-7.945S67,14.816,67,19.9s2.863,7.945,6.477,7.945,6.477-2.827,6.477-7.945" transform="translate(165.615 24.549)"/><path class="c" d="M85.177,15.652c0,4.939-3.4,6.012-8.267,6.012H73.331v7.873H70.54V9.64h6.227c4.867,0,8.267,1.109,8.267,6.012m-11.7,3.579H76.91c2.9,0,5.189-.322,5.189-3.579s-2.29-3.579-5.189-3.579H73.331Z" transform="translate(181.9 24.858)"/><path class="c" d="M74.74,12.073V9.64H90.486v2.433H84.009V29.537H81.217V12.073Z" transform="translate(192.73 24.858)"/></g></svg>