<svg xmlns="http://www.w3.org/2000/svg" width="150" height="150" viewBox="0 0 150 150"><defs><style>.a{fill:none;}.b{fill:#191717;}.c{fill:#00adef;}</style></defs><g transform="translate(-708.483 -91.563)"><path class="a" d="M817.1,173.085H749.867a5.018,5.018,0,0,0-5.03,4.993v23.284a5.018,5.018,0,0,0,5.03,4.993h.793v-9.044h65.854v9.041h.584a5.016,5.016,0,0,0,5.03-4.993V178.076A5.017,5.017,0,0,0,817.1,173.085Zm-11.367,7.464H781.964a.538.538,0,0,1-.042-1.076h23.766a.538.538,0,1,1,.042,1.076Zm9.47,0h-4.854a.538.538,0,0,1-.043-1.076h4.854a.538.538,0,1,1,.043,1.076Z"/><path class="a" d="M807.868,203.933a.538.538,0,0,1-.042-1.075h5.822v-2.69H753.517v2.69h49.7a.538.538,0,0,1,.043,1.075H753.517v2.416h60.131v-2.416Z"/><path class="b" d="M817.1,170.222H749.871a7.883,7.883,0,0,0-7.893,7.854v23.277a7.883,7.883,0,0,0,7.893,7.854H817.1a7.881,7.881,0,0,0,7.892-7.851v-23.28A7.88,7.88,0,0,0,817.1,170.222Zm-63.58,36.131v-2.416h49.743a.538.538,0,0,0-.042-1.075h-49.7v-2.69H813.65v2.69h-5.822a.538.538,0,0,0,.042,1.075h5.78v2.416Zm68.611-4.993a5.016,5.016,0,0,1-5.03,4.993h-.588v-9.041H750.66v9.041h-.789a5.018,5.018,0,0,1-5.03-4.993V178.076a5.016,5.016,0,0,1,5.03-4.992H817.1a5.016,5.016,0,0,1,5.03,4.992Z"/><path class="b" d="M805.685,179.472H781.924a.538.538,0,0,0,.042,1.075h23.767a.538.538,0,0,0-.043-1.075Z"/><path class="b" d="M815.159,179.472h-4.851a.538.538,0,0,0,.042,1.075H815.2a.538.538,0,0,0-.042-1.075Z"/><rect class="a" width="150" height="150" transform="translate(708.483 91.563)"/><rect class="a" width="150" height="150" transform="translate(708.483 91.563)"/><path class="a" d="M783.189,114.757A18.227,18.227,0,1,0,801.4,133.005v-.02a18.216,18.216,0,0,0-18.2-18.228Z"/><path class="c" d="M783.189,112.421a20.564,20.564,0,1,0,20.539,20.589v-.025h0A20.552,20.552,0,0,0,783.189,112.421Zm0,38.791a18.228,18.228,0,1,1,18.206-18.25v.023A18.216,18.216,0,0,1,783.189,151.212Z"/><rect class="c" width="2" height="18.414" transform="translate(782.164 120.317)"/><rect class="c" width="2" height="3.898" transform="translate(782.164 141.755)"/></g></svg>