<svg xmlns="http://www.w3.org/2000/svg" width="150" height="150" viewBox="0 0 150 150"><defs><style>.a{fill:none}.b{fill:#191717}.c{fill:#00adef}</style></defs><path class="a" d="M108.617 81.522H41.384a5.018 5.018 0 00-5.03 4.993v23.284a5.018 5.018 0 005.03 4.993h.793v-9.044h65.854v9.041h.584a5.016 5.016 0 005.03-4.993V86.513a5.017 5.017 0 00-5.028-4.991zM97.25 88.986H73.481a.538.538 0 01-.042-1.076h23.766a.538.538 0 11.042 1.076zm9.47 0h-4.854a.538.538 0 01-.043-1.076h4.854a.538.538 0 11.043 1.076z"/><path class="a" d="M99.385 112.37a.538.538 0 01-.042-1.075h5.822v-2.69H45.034v2.69h49.7a.538.538 0 01.043 1.075H45.034v2.416h60.131v-2.416z"/><path class="b" d="M108.617 78.659H41.388a7.883 7.883 0 00-7.893 7.854v23.277a7.883 7.883 0 007.893 7.854h67.229a7.881 7.881 0 007.892-7.851v-23.28a7.88 7.88 0 00-7.892-7.854zm-63.58 36.131v-2.416H94.78a.538.538 0 00-.042-1.075h-49.7v-2.69h60.129v2.69h-5.822a.538.538 0 00.042 1.075h5.78v2.416zm68.611-4.993a5.016 5.016 0 01-5.03 4.993h-.588v-9.041H42.177v9.041h-.789a5.018 5.018 0 01-5.03-4.993V86.513a5.016 5.016 0 015.03-4.992h67.229a5.016 5.016 0 015.03 4.992z"/><path class="b" d="M97.202 87.909H73.441a.538.538 0 00.042 1.075H97.25a.538.538 0 00-.043-1.075zm9.474 0h-4.851a.538.538 0 00.042 1.075h4.85a.538.538 0 00-.042-1.075z"/><path class="a" d="M0 0h150v150H0z"/><path class="a" d="M0 0h150v150H0z"/><path class="a" d="M74.706 23.194a18.227 18.227 0 1018.211 18.248v-.02a18.216 18.216 0 00-18.2-18.228z"/><path class="c" d="M74.706 20.858a20.564 20.564 0 1020.539 20.589v-.025a20.552 20.552 0 00-20.539-20.564zm0 38.791a18.228 18.228 0 1118.206-18.25v.023a18.216 18.216 0 01-18.206 18.227z"/><path class="c" d="M73.681 28.754h2v18.414h-2zm0 21.438h2v3.898h-2z"/></svg>