<svg xmlns="http://www.w3.org/2000/svg" width="289.087" height="64" viewBox="0 0 289.087 64"><defs><linearGradient id="b" x1="1" y1=".5" x2=".358" y2=".5" gradientUnits="objectBoundingBox"><stop offset="0" stop-color="#7bbaff"/><stop offset="1" stop-color="#ceeede"/></linearGradient><clipPath id="a"><path fill="none" d="M0 0h160.105v8.656H0z"/></clipPath><style>.b{fill:#231f20}</style></defs><path class="b" d="M131.368 7.574v14.862h-2.387V5.378h4.01l4.36 14.225 4.359-14.225h4.01v17.058h-2.387V7.574l-4.71 14.862h-2.545zm17.822 6.333a8.02 8.02 0 1115.912 0 8.02 8.02 0 11-15.912 0m13.525 0c0-4.392-2.45-6.81-5.537-6.81s-5.537 2.45-5.537 6.81 2.419 6.81 5.537 6.81 5.537-2.419 5.537-6.81m12.316-1.782c3.787 0 6.078 1.559 6.078 5.028s-2.546 5.283-6.078 5.283h-6.365V5.378h11.457v2.069h-9.1v4.678zm3.628 5.06c0-2.291-1.4-3.182-3.819-3.182h-3.819v6.365h4.01c2.355 0 3.723-1.114 3.723-3.182m7.956 5.25h-2.387V5.378h2.387v13.525l9.165-13.525h2.387v17.058h-2.387V8.879zm26.509-14.989h-6.046v2.991c-.286 7.383-1.464 12-4.964 12h-.7v-2.071h.35c2.259 0 2.832-4.837 3.023-10.661V5.378h10.565v17.058h-2.228zm9.133-2.069v6.365h2.514c4.264-.064 7.447.987 7.447 5.315s-3.182 5.378-7.288 5.378h-5.06V5.378zm7.288 11.679c0-2.832-2.069-3.182-4.678-3.182h-2.61v6.492h2.61c2.61 0 4.678-.541 4.678-3.182m19.094 5.251h-2.388v-7.734h-8.973v7.733h-2.387V5.378h2.387v7.256h8.973V5.378h2.387zm3.469-8.529a8.02 8.02 0 1115.912 0 8.02 8.02 0 11-15.912 0m13.525 0c0-4.392-2.419-6.81-5.537-6.81s-5.6 2.45-5.6 6.81 2.45 6.81 5.537 6.81 5.537-2.419 5.537-6.81m17.566-8.529v2.069h-9.2v5.187h8.656v2.069h-8.653v5.665h9.2v2.069h-11.587V5.378zM74.659 1.05a32.11 32.11 0 0122.976 9.134 31.537 31.537 0 016.906 10.024 30.328 30.328 0 012.482 12.316 30.2 30.2 0 01-2.482 12.316 31.251 31.251 0 01-17.185 16.677 31.824 31.824 0 01-12.729 2.48H50.568V1.05zm8.083 49.549a17.535 17.535 0 006.11-4.169 19.731 19.731 0 003.914-6.365 20.24 20.24 0 001.4-7.638 20.558 20.558 0 00-1.4-7.7 19.413 19.413 0 00-3.914-6.21 18.68 18.68 0 00-6.11-4.169 21.386 21.386 0 00-8.083-1.623H63.425v39.466h11.234a19.094 19.094 0 008.083-1.591M19.094 0a19.094 19.094 0 1019.094 19.094A19.094 19.094 0 0019.094 0m0 27.114A7.892 7.892 0 1124.8 24.8a7.892 7.892 0 01-5.709 2.311"/><g transform="translate(128.981 55.31)" clip-path="url(#a)"><path fill="url(#b)" d="M0 0h160.105v8.656H0z"/></g><path class="b" d="M131.369 46.94h1.591a2.1 2.1 0 002.036-1.147l.318-.6-6.364-13.56h2.58l4.965 11.075 4.58-11.075h2.641l-6.365 14.26a4.742 4.742 0 01-4.36 3.182h-1.75zm25.077-13.238h-8.529v14.957h-2.387V31.633h13.3v17.026h-2.384zm19.316 3.091c0 4.233-2.9 5.155-7.065 5.155h-2.927v6.745h-2.419v-17.06h5.315c4.169 0 7.065.923 7.065 5.155m-9.993 3.182h3.183c2.482 0 4.455-.255 4.455-3.182s-1.973-3.182-4.455-3.182h-3.183zm17.949-8.337l6.364 17.06h-2.577l-1.337-3.692h-7.765l-1.337 3.692h-2.45l6.365-17.06zm1.75 11.3l-3.182-8.881-3.182 8.879zm13.207-11.3c3.182 0 5.983.827 5.983 4.2a4.233 4.233 0 01-1.878 3.76 4.042 4.042 0 012.578 4.042c0 3.628-2.705 5.06-6.11 5.06h-6.715V31.633zm.35 7.288c1.973 0 3.182-.764 3.182-2.769s-1.3-2.514-3.182-2.514h-4.105v5.283zm.255 7.733c2.419 0 3.628-1.05 3.628-2.991s-1.209-2.832-3.787-2.832h-4.2v5.824zm19.57-12.952h-6.014v2.96c-.255 7.382-1.432 12.031-4.933 12.031h-.732v-2.071h.35c2.259 0 2.864-4.869 3.182-10.693v-4.296h10.693v17.06h-2.415zm18.49-2.069v2.069h-9.165v5.155h8.624v2.1h-8.624v5.636h9.165v2.069h-11.552V31.633zm17.187 17.026h-2.389v-7.733h-8.942v7.733h-2.419V31.633h2.419v7.224h8.942v-7.224h2.389zm6.936 0h-2.419V31.633h2.419v13.525l9.165-13.525h2.387v17.026h-2.387V35.134zm27.655-17.026v2.069h-9.2v5.155h8.656v2.1h-8.653v5.636h9.2v2.069h-11.587V31.633z"/></svg>