<svg xmlns="http://www.w3.org/2000/svg" xmlns:xlink="http://www.w3.org/1999/xlink"><defs><style>.a{fill:none;stroke:#f5f5f5;}.b{fill:#00adef;}</style><style>.a{fill:none;stroke:#f5f5f5;}.b{fill:#231f20;}.c{fill:#00adef;}</style><style>.a{fill:none;stroke:#f5f5f5;}.b{fill:#fff;}.c{fill:#00adef;}</style><style>.a{fill:#888;}</style><style>.a{fill:#fff;}</style><style>.a{opacity:0;}</style><style>.a{opacity:0;}</style><style>.a{fill:#fff;}.b{fill:none;}.c{fill:#00adef;}</style><style>.a{fill:#00adef;opacity:0.8;}</style><style>.a,.b{fill:none;}.a{stroke:#f5f5f5;}.c{fill:#00adef;}</style><style>.a{fill:red;opacity:0.8;}</style><style>.a{fill:url(#a);}.b{fill:none;}.c{fill:#fff;}.d{fill:#191717;}.e{filter:url(#b);}</style><linearGradient id="a" x1="0.5" x2="0.5" y2="1" gradientUnits="objectBoundingBox"><stop offset="0" stop-color="#7fb0f8"/><stop offset="1" stop-color="#d5d3ff"/></linearGradient><filter id="b" x="0" y="0" width="160" height="160" filterUnits="userSpaceOnUse"><feOffset dy="3" input="SourceAlpha"/><feGaussianBlur stdDeviation="10" result="c"/><feFlood flood-opacity="0.161"/><feComposite operator="in" in2="c"/><feComposite in="SourceGraphic"/></filter><style>.a{fill:url(#a);}.b{fill:#fff;}.c{fill:#231f20;}.d{filter:url(#b);}</style><linearGradient id="a" x1="0.5" x2="0.5" y2="1" gradientUnits="objectBoundingBox"><stop offset="0" stop-color="#7fb0f8"/><stop offset="1" stop-color="#d5d3ff"/></linearGradient><filter id="b" x="0" y="0" width="160" height="160" filterUnits="userSpaceOnUse"><feOffset dy="3" input="SourceAlpha"/><feGaussianBlur stdDeviation="10" result="c"/><feFlood flood-opacity="0.161"/><feComposite operator="in" in2="c"/><feComposite in="SourceGraphic"/></filter><style>.a{fill:#fff;}.b{fill:#00adef;}</style><style>.a{fill:#fff;fill-rule:evenodd;}</style><style>.a{fill:#fff;}.b{fill:#00adef;}</style><style>.a,.b{fill:#888;}.b{fill-rule:evenodd;}</style><style>.a,.b{fill:#fff;}.b{fill-rule:evenodd;}</style><style>.a{fill:#fff;}.b{fill:none;}.c{fill:#00adef;}</style><style>.a{fill:#fff;}.b{fill:#00adef;}</style><style>.a,.b{fill:none;}.a{stroke:#f5f5f5;}.c{fill:#00adef;}</style><style>.a{fill:#fff;}.b{fill:none;}.c{fill:#00adef;}</style><style>.a{fill:none;stroke:#f5f5f5;}.b{fill:#fff;}.c{fill:#00adef;}</style><style>.a{fill:none;stroke:#f5f5f5;}.b{fill:#fff;}.c{fill:#2d221e;}.d{fill:#00adef;}</style></defs><symbol id="icon_admin" viewBox="0 0 91 91"><g transform="translate(-1097.619 -1236.866)"><circle class="a" cx="45" cy="45" r="45" transform="translate(1098.119 1237.366)"/><g transform="translate(1108.235 1258.85)"><path d="M1124.119,1274.579a8.1,8.1,0,1,0-8.1-8.1A8.111,8.111,0,0,0,1124.119,1274.579Zm6.058-8.1a6.058,6.058,0,1,1-6.058-6.058A6.065,6.065,0,0,1,1130.177,1266.476Z" transform="translate(-1107.828 -1258.373)"/><path d="M1127.9,1291.917h-14.8a3.073,3.073,0,0,1-2.5-1.295,2.813,2.813,0,0,1-.389-2.579,14.926,14.926,0,0,1,25.1-5.2,15.619,15.619,0,0,1,1.933-.892,16.964,16.964,0,0,0-28.962,5.426,4.842,4.842,0,0,0,.653,4.438,5.127,5.127,0,0,0,4.166,2.153h14.33A15.531,15.531,0,0,1,1127.9,1291.917Z" transform="translate(-1108.01 -1257.973)"/><path d="M1177.346,1287.1a16.971,16.971,0,0,0-29.083-4.9,15.589,15.589,0,0,1,1.847.971,14.932,14.932,0,0,1,25.315,4.636,3.054,3.054,0,0,1-.359,2.836,2.951,2.951,0,0,1-2.452,1.275h-15.641a15.549,15.549,0,0,1,.468,2.046h15.172a4.971,4.971,0,0,0,4.128-2.15A5.14,5.14,0,0,0,1177.346,1287.1Z" transform="translate(-1107.095 -1257.973)"/><path d="M1161.264,1274.579a8.1,8.1,0,1,0-8.1-8.1A8.112,8.112,0,0,0,1161.264,1274.579Zm0-14.161a6.058,6.058,0,1,1-6.059,6.058A6.065,6.065,0,0,1,1161.264,1260.418Z" transform="translate(-1106.984 -1258.373)"/><path class="b" d="M1152.935,1292.782h-.768c-.092-.25-.193-.494-.3-.733l.542-.543a1.951,1.951,0,0,0,0-2.756l-2.359-2.359a2,2,0,0,0-2.758,0l-.53.53c-.245-.112-.493-.217-.746-.311v-.748a1.951,1.951,0,0,0-1.949-1.949h-3.338a1.952,1.952,0,0,0-1.949,1.949v.724q-.39.143-.764.314l-.51-.509a1.949,1.949,0,0,0-2.757,0l-2.36,2.359a1.952,1.952,0,0,0,0,2.756l.5.5c-.118.254-.225.513-.322.776h-.706a1.952,1.952,0,0,0-1.949,1.949v3.337a1.953,1.953,0,0,0,1.949,1.95h.706q.146.394.322.775l-.5.5a1.953,1.953,0,0,0,0,2.756l2.362,2.361a1.955,1.955,0,0,0,2.756,0l.51-.51c.25.115.505.219.764.313v.725a1.953,1.953,0,0,0,1.949,1.95h3.338a1.952,1.952,0,0,0,1.949-1.95v-.749c.252-.094.5-.2.746-.311l.53.532a1.951,1.951,0,0,0,2.757,0l2.361-2.361a1.953,1.953,0,0,0,0-2.755l-.543-.543c.109-.24.211-.484.3-.732h.768a1.952,1.952,0,0,0,1.949-1.95v-3.337A1.951,1.951,0,0,0,1152.935,1292.782Zm-.1,5.191h-1.413a1.023,1.023,0,0,0-.983.74,8.289,8.289,0,0,1-.719,1.742,1.024,1.024,0,0,0,.172,1.219l1,1-2.225,2.224-.988-.989a1.027,1.027,0,0,0-1.222-.17,8.305,8.305,0,0,1-1.75.731,1.024,1.024,0,0,0-.739.983v1.392h-3.146v-1.372a1.022,1.022,0,0,0-.743-.984,8.446,8.446,0,0,1-1.772-.727,1.018,1.018,0,0,0-1.217.172l-.967.964-2.223-2.224.956-.956a1.023,1.023,0,0,0,.17-1.222,8.3,8.3,0,0,1-.74-1.78,1.023,1.023,0,0,0-.983-.74h-1.351v-3.146h1.351a1.023,1.023,0,0,0,.983-.742,8.315,8.315,0,0,1,.74-1.779,1.024,1.024,0,0,0-.17-1.223l-.956-.955,2.223-2.224.967.965a1.021,1.021,0,0,0,1.218.172,8.3,8.3,0,0,1,1.771-.726,1.023,1.023,0,0,0,.744-.985v-1.372h3.146v1.39a1.022,1.022,0,0,0,.737.982,8.331,8.331,0,0,1,1.752.732,1.023,1.023,0,0,0,1.222-.17l.988-.988,2.225,2.224-1,1a1.024,1.024,0,0,0-.172,1.219,8.339,8.339,0,0,1,.719,1.743,1.022,1.022,0,0,0,.983.741h1.413Z" transform="translate(-1107.513 -1257.793)"/><path class="b" d="M1142.244,1290.571a5.677,5.677,0,1,0,5.678,5.678A5.684,5.684,0,0,0,1142.244,1290.571Zm0,9.309a3.632,3.632,0,1,1,3.633-3.631A3.635,3.635,0,0,1,1142.244,1299.88Z" transform="translate(-1107.361 -1257.641)"/><circle class="b" cx="1.023" cy="1.023" r="1.023" transform="translate(33.862 8.594)"/><circle class="b" cx="1.023" cy="1.023" r="1.023" transform="translate(33.862 2.457)"/><circle class="b" cx="1.023" cy="1.023" r="1.023" transform="translate(33.862 14.73)"/><path class="b" d="M1142.156,1280.818a1.023,1.023,0,1,0-.027,0l.013,0Z" transform="translate(-1107.258 -1257.909)"/></g></g></symbol><symbol id="icon_airflow" viewBox="0 0 91 91"><g transform="translate(0.5 0.5)"><circle class="a" cx="45" cy="45" r="45"/><g transform="translate(16.46 21.695)"><path class="b" d="M248.6,1275.855h27.9a8.638,8.638,0,1,0-8.638-8.638,1.062,1.062,0,0,0,2.123,0,6.515,6.515,0,1,1,6.515,6.515H248.6a1.062,1.062,0,1,0,0,2.123Z" transform="translate(-247.543 -1258.579)"/><g transform="translate(5.095 7.939)"><path class="c" d="M302.085,1268.766a8.275,8.275,0,0,0-14.126,5.851,1.062,1.062,0,0,0,2.123,0,6.152,6.152,0,1,1,6.152,6.152H253.588a1.062,1.062,0,1,0,0,2.123h42.647a8.275,8.275,0,0,0,5.851-14.126Z" transform="translate(-252.525 -1266.342)"/></g><g transform="translate(0 29.333)"><path class="b" d="M276.508,1287.26H248.6a1.062,1.062,0,0,0,0,2.123h27.9a6.515,6.515,0,1,1-6.515,6.515,1.062,1.062,0,1,0-2.123,0,8.638,8.638,0,1,0,8.638-8.638Z" transform="translate(-247.543 -1287.26)"/></g></g></g></symbol><symbol id="icon_amount" viewBox="0 0 91 91"><g transform="translate(0.5 -104.829)"><circle class="a" cx="45" cy="45" r="45" transform="translate(0 105.329)"/><g transform="translate(9.549 134.245)"><path d="M75.606,133.6H13.97a4.633,4.633,0,0,0-4.633,4.633v13.647a4.633,4.633,0,0,0,4.633,4.633h6.4V154.47H16.491v-.875h3.874v-1.023H16.491v-1.005h3.874v-2.045h-5.92v4.949H13.97a2.59,2.59,0,0,1-2.587-2.588V138.235a2.59,2.59,0,0,1,2.587-2.587H53.551a2.59,2.59,0,0,1,2.588,2.587v4.623h2.045v-2.991H68.705a.511.511,0,0,0,0-1.023H58.183v-.609a4.615,4.615,0,0,0-.79-2.587H75.606a2.59,2.59,0,0,1,2.588,2.587v13.647a2.59,2.59,0,0,1-2.588,2.588h-.387v-4.949H69.211v2.045h3.963v1.005h-2.59a.511.511,0,1,0,0,1.023h2.59v.875H69.211v2.045h6.4a4.633,4.633,0,0,0,4.633-4.633V138.235A4.633,4.633,0,0,0,75.606,133.6Z" transform="translate(-9.337 -133.602)"/><path d="M69.929,139.75h3.078a.511.511,0,0,0,0-1.023H69.929a.511.511,0,0,0,0,1.023Z" transform="translate(-7.972 -133.486)"/><path d="M48.364,139.75h3.077a.511.511,0,0,0,0-1.023H48.364a.511.511,0,0,0,0,1.023Z" transform="translate(-8.462 -133.486)"/><path d="M32.4,139.75H46.137a.511.511,0,0,0,0-1.023H32.4a.511.511,0,0,0,0,1.023Z" transform="translate(-8.825 -133.486)"/><path class="b" d="M59.151,162.245a.511.511,0,1,1,0-1.023h2.591v-1.006H27.115v1.006H56.323a.511.511,0,1,1,0,1.023H27.115v.874H61.741v-.874Z" transform="translate(-8.933 -132.997)"/><path class="c" d="M68.965,154.264v-6.98a4.632,4.632,0,0,0-4.632-4.632H24.752a4.632,4.632,0,0,0-4.632,4.632v13.647a4.633,4.633,0,0,0,4.632,4.633H64.334a4.633,4.633,0,0,0,4.632-4.633v-6.667Zm-4.632,9.255h-.388V158.57H25.229v4.949h-.477a2.59,2.59,0,0,1-2.586-2.588V147.284a2.589,2.589,0,0,1,2.586-2.586H64.334a2.589,2.589,0,0,1,2.586,2.586v13.647A2.59,2.59,0,0,1,64.334,163.519Zm-37.06,0v-.874H56.482a.511.511,0,1,0,0-1.023H27.274v-1.006H61.9v1.006H59.31a.511.511,0,1,0,0,1.023H61.9v.874Z" transform="translate(-9.092 -133.396)"/><path class="c" d="M59.146,148.8h3.078a.511.511,0,1,0,0-1.023H59.146a.511.511,0,1,0,0,1.023Z" transform="translate(-8.217 -133.28)"/><path class="c" d="M43.178,148.8H56.921a.511.511,0,1,0,0-1.023H43.178a.511.511,0,1,0,0,1.023Z" transform="translate(-8.58 -133.28)"/><path class="c" d="M38.364,166.43a.51.51,0,0,0-.511.511v5.593a.511.511,0,1,0,1.023,0v-5.593A.511.511,0,0,0,38.364,166.43Z" transform="translate(-8.689 -132.856)"/><path class="c" d="M44.054,166.43a.511.511,0,0,0-.511.511v5.593a.511.511,0,1,0,1.023,0v-5.593A.51.51,0,0,0,44.054,166.43Z" transform="translate(-8.56 -132.856)"/><path class="c" d="M49.772,166.43a.51.51,0,0,0-.511.511v5.593a.511.511,0,1,0,1.023,0v-5.593A.511.511,0,0,0,49.772,166.43Z" transform="translate(-8.43 -132.856)"/><path class="c" d="M55.047,166.8a.511.511,0,0,0-.984.274,13.3,13.3,0,0,0,3.366,5.292.512.512,0,0,0,.725-.722A12.556,12.556,0,0,1,55.047,166.8Z" transform="translate(-8.321 -132.856)"/><path class="c" d="M33.861,166.448a.514.514,0,0,0-.629.356,12.427,12.427,0,0,1-3.1,4.843.511.511,0,1,0,.724.722,13.311,13.311,0,0,0,3.366-5.292A.511.511,0,0,0,33.861,166.448Z" transform="translate(-8.868 -132.856)"/></g></g></symbol><symbol id="icon_appstore_grey" viewBox="0 0 202.5 60"><path class="a" d="M444.862,321.52a6.3,6.3,0,0,1,6.3,6.3v45a6.3,6.3,0,0,1-6.3,6.3h-187.5a6.3,6.3,0,0,1-6.3-6.3v-45a6.3,6.3,0,0,1,6.3-6.3Zm0-1.2h-187.5a7.5,7.5,0,0,0-7.5,7.5v45a7.5,7.5,0,0,0,7.5,7.5h187.5a7.5,7.5,0,0,0,7.5-7.5v-45a7.5,7.5,0,0,0-7.5-7.5Z" transform="translate(-249.862 -320.32)"/><path class="a" d="M299.591,350.515a8.283,8.283,0,0,1,3.946-6.952,8.482,8.482,0,0,0-6.682-3.613c-2.812-.3-5.539,1.682-6.97,1.682-1.461,0-3.667-1.654-6.043-1.6a8.9,8.9,0,0,0-7.489,4.568c-3.239,5.607-.823,13.847,2.279,18.379,1.553,2.219,3.366,4.7,5.74,4.611,2.322-.1,3.189-1.481,5.992-1.481,2.777,0,3.592,1.481,6.012,1.425,2.493-.039,4.062-2.229,5.56-4.469a18.357,18.357,0,0,0,2.543-5.178A8.007,8.007,0,0,1,299.591,350.515Z" transform="translate(-251.422 -321.545)"/><path class="a" d="M296,336.382a8.158,8.158,0,0,0,1.867-5.844,8.3,8.3,0,0,0-5.371,2.779,7.757,7.757,0,0,0-1.915,5.628A6.862,6.862,0,0,0,296,336.382Z" transform="translate(-252.404 -320.959)"/><path class="a" d="M336.023,367.82h-3.246L331,362.232H324.82l-1.694,5.588h-3.16l6.123-19.02h3.782Zm-5.559-7.931-1.608-4.966q-.256-.762-.959-3.583h-.057q-.281,1.214-.9,3.583l-1.579,4.966Z" transform="translate(-254.244 -322.1)"/><path class="a" d="M353.008,361.128a7.8,7.8,0,0,1-1.891,5.53,5.53,5.53,0,0,1-4.2,1.806,4.2,4.2,0,0,1-3.894-1.946h-.057v7.224h-3.047V358.955q0-2.2-.113-4.515h2.679l.171,2.173h.057a5.421,5.421,0,0,1,8.677-.537A7.559,7.559,0,0,1,353.008,361.128Zm-3.1.112a5.645,5.645,0,0,0-.9-3.3,3.119,3.119,0,0,0-2.652-1.356,3.17,3.17,0,0,0-2.046.748,3.468,3.468,0,0,0-1.2,1.962,4.02,4.02,0,0,0-.142.929v2.287a3.661,3.661,0,0,0,.918,2.527,3.041,3.041,0,0,0,2.384,1.03,3.118,3.118,0,0,0,2.679-1.326A5.839,5.839,0,0,0,349.9,361.24Z" transform="translate(-255.483 -322.435)"/><path class="a" d="M369.835,361.128a7.791,7.791,0,0,1-1.893,5.53,5.523,5.523,0,0,1-4.2,1.806,4.2,4.2,0,0,1-3.893-1.946h-.057v7.224h-3.047V358.955q0-2.2-.113-4.515h2.68l.17,2.173h.057a5.423,5.423,0,0,1,8.678-.537A7.578,7.578,0,0,1,369.835,361.128Zm-3.105.112a5.638,5.638,0,0,0-.9-3.3,3.113,3.113,0,0,0-2.65-1.356,3.175,3.175,0,0,0-2.047.748,3.466,3.466,0,0,0-1.2,1.962,4.072,4.072,0,0,0-.142.929v2.287a3.672,3.672,0,0,0,.915,2.527,3.046,3.046,0,0,0,2.387,1.03,3.118,3.118,0,0,0,2.679-1.326A5.839,5.839,0,0,0,366.73,361.24Z" transform="translate(-256.535 -322.435)"/><path class="a" d="M388.74,362.467a5.069,5.069,0,0,1-1.689,3.951,7.485,7.485,0,0,1-5.181,1.665,9.07,9.07,0,0,1-4.929-1.185l.706-2.54a8.353,8.353,0,0,0,4.4,1.215,4.165,4.165,0,0,0,2.683-.777,2.54,2.54,0,0,0,.957-2.078,2.646,2.646,0,0,0-.79-1.949,7.333,7.333,0,0,0-2.624-1.471q-5-1.863-4.993-5.453a4.828,4.828,0,0,1,1.75-3.844,6.906,6.906,0,0,1,4.657-1.5,9.23,9.23,0,0,1,4.316.9l-.762,2.484a7.486,7.486,0,0,0-3.639-.875,3.683,3.683,0,0,0-2.51.79,2.255,2.255,0,0,0-.762,1.722,2.323,2.323,0,0,0,.873,1.862,9.889,9.889,0,0,0,2.768,1.468,9.377,9.377,0,0,1,3.611,2.312A4.83,4.83,0,0,1,388.74,362.467Z" transform="translate(-257.804 -322.082)"/><path class="a" d="M399.716,356.518h-3.358v6.658q0,2.541,1.778,2.541a5.447,5.447,0,0,0,1.354-.142l.084,2.314a6.917,6.917,0,0,1-2.37.337,3.656,3.656,0,0,1-2.823-1.1,5.408,5.408,0,0,1-1.016-3.7v-6.913h-2v-2.287h2v-2.512l2.993-.9v3.414h3.358Z" transform="translate(-258.706 -322.226)"/><path class="a" d="M415.542,361.185a7.519,7.519,0,0,1-1.807,5.192,6.448,6.448,0,0,1-5.025,2.089,6.134,6.134,0,0,1-4.809-2,7.294,7.294,0,0,1-1.792-5.051,7.447,7.447,0,0,1,1.848-5.219,6.4,6.4,0,0,1,4.979-2.033,6.263,6.263,0,0,1,4.854,2A7.211,7.211,0,0,1,415.542,361.185Zm-3.161.1a6.168,6.168,0,0,0-.818-3.254,3.01,3.01,0,0,0-2.736-1.641,3.055,3.055,0,0,0-2.794,1.641,6.285,6.285,0,0,0-.818,3.311,6.161,6.161,0,0,0,.818,3.253,3.114,3.114,0,0,0,5.5-.029A6.19,6.19,0,0,0,412.38,361.283Z" transform="translate(-259.378 -322.435)"/><path class="a" d="M426.513,357.12a5.337,5.337,0,0,0-.961-.084,2.88,2.88,0,0,0-2.483,1.215,4.568,4.568,0,0,0-.762,2.708v7.2H419.26l.029-9.4q0-2.371-.114-4.318h2.654l.112,2.624h.084a4.69,4.69,0,0,1,1.523-2.172,3.683,3.683,0,0,1,2.2-.735,4.908,4.908,0,0,1,.762.056Z" transform="translate(-260.444 -322.435)"/><path class="a" d="M440.725,360.647a7.134,7.134,0,0,1-.112,1.382h-9.142a3.977,3.977,0,0,0,1.327,3.106,4.53,4.53,0,0,0,2.99.959,10.1,10.1,0,0,0,3.7-.649l.478,2.115a11.436,11.436,0,0,1-4.6.847,6.662,6.662,0,0,1-5.011-1.877,6.931,6.931,0,0,1-1.819-5.036,7.856,7.856,0,0,1,1.7-5.164,5.839,5.839,0,0,1,4.8-2.2,5.111,5.111,0,0,1,4.489,2.2A7.421,7.421,0,0,1,440.725,360.647Zm-2.906-.79a4.134,4.134,0,0,0-.592-2.343,2.661,2.661,0,0,0-2.428-1.27,2.892,2.892,0,0,0-2.425,1.242,4.549,4.549,0,0,0-.9,2.37h6.347Z" transform="translate(-261.029 -322.433)"/><path class="a" d="M329.577,336.018a4.691,4.691,0,0,1-1.512,3.8,6.012,6.012,0,0,1-3.977,1.178,18.282,18.282,0,0,1-2.191-.112v-9.191a16.181,16.181,0,0,1,2.579-.194,5.563,5.563,0,0,1,3.7,1.068A4.313,4.313,0,0,1,329.577,336.018Zm-1.579.041a3.045,3.045,0,0,0-3.4-3.382,6.359,6.359,0,0,0-1.207.1v6.988a8.028,8.028,0,0,0,1.012.041,3.544,3.544,0,0,0,2.654-.956A3.832,3.832,0,0,0,328,336.059Z" transform="translate(-254.364 -321.019)"/><path class="a" d="M338.582,337.656a3.7,3.7,0,0,1-.888,2.551,3.166,3.166,0,0,1-2.468,1.027,3.01,3.01,0,0,1-2.363-.984,3.584,3.584,0,0,1-.879-2.482,3.662,3.662,0,0,1,.908-2.564,3.146,3.146,0,0,1,2.447-1,3.08,3.08,0,0,1,2.385.983A3.556,3.556,0,0,1,338.582,337.656Zm-1.554.049a3.048,3.048,0,0,0-.4-1.6,1.48,1.48,0,0,0-1.343-.806,1.5,1.5,0,0,0-1.373.806,3.085,3.085,0,0,0-.4,1.627,3.049,3.049,0,0,0,.4,1.6,1.512,1.512,0,0,0,1.359.806,1.5,1.5,0,0,0,1.343-.82A3.028,3.028,0,0,0,337.028,337.7Z" transform="translate(-254.995 -321.188)"/><path class="a" d="M350.347,334.352l-2.108,6.738h-1.372l-.874-2.926a21.836,21.836,0,0,1-.541-2.177h-.027a15.958,15.958,0,0,1-.542,2.177l-.928,2.926h-1.388l-1.982-6.738h1.539l.761,3.2c.185.758.336,1.478.458,2.162h.027c.112-.563.3-1.281.556-2.148l.956-3.216H346.1l.916,3.147q.332,1.15.54,2.218h.041a21.444,21.444,0,0,1,.458-2.218l.817-3.147h1.471Z" transform="translate(-255.532 -321.197)"/><path class="a" d="M358.886,341.08h-1.5v-3.859q0-1.785-1.358-1.784a1.352,1.352,0,0,0-1.082.49,1.741,1.741,0,0,0-.416,1.155v4h-1.5v-4.81q0-.887-.054-1.928H354.3l.07,1.054h.041a2.167,2.167,0,0,1,.776-.814,2.532,2.532,0,0,1,1.357-.379,2.15,2.15,0,0,1,1.568.61,2.966,2.966,0,0,1,.776,2.233Z" transform="translate(-256.307 -321.188)"/><path class="a" d="M363.586,340.884h-1.5v-9.829h1.5Z" transform="translate(-256.876 -320.991)"/><path class="a" d="M372.652,337.656a3.7,3.7,0,0,1-.888,2.551,3.166,3.166,0,0,1-2.468,1.027,3.007,3.007,0,0,1-2.363-.984,3.588,3.588,0,0,1-.879-2.482,3.661,3.661,0,0,1,.908-2.564,3.149,3.149,0,0,1,2.446-1,3.085,3.085,0,0,1,2.387.983A3.556,3.556,0,0,1,372.652,337.656Zm-1.555.049a3.048,3.048,0,0,0-.4-1.6,1.478,1.478,0,0,0-1.342-.806,1.5,1.5,0,0,0-1.373.806,3.093,3.093,0,0,0-.4,1.627,3.048,3.048,0,0,0,.4,1.6,1.512,1.512,0,0,0,1.359.806,1.5,1.5,0,0,0,1.342-.82A3.02,3.02,0,0,0,371.1,337.7Z" transform="translate(-257.124 -321.188)"/><path class="a" d="M380.455,341.081H379.11L379,340.3h-.042a2.306,2.306,0,0,1-1.968.929,2.031,2.031,0,0,1-1.538-.61,1.914,1.914,0,0,1-.528-1.373,2.092,2.092,0,0,1,1.033-1.884,5.358,5.358,0,0,1,2.906-.637V336.6q0-1.332-1.4-1.331a3.135,3.135,0,0,0-1.756.5l-.3-.983a4.321,4.321,0,0,1,2.311-.581q2.641,0,2.644,2.787v2.481A10.475,10.475,0,0,0,380.455,341.081Zm-1.555-2.316v-1.039q-2.478-.044-2.478,1.357a1.017,1.017,0,0,0,.287.79,1.046,1.046,0,0,0,.732.263,1.513,1.513,0,0,0,.916-.312,1.278,1.278,0,0,0,.543-1.06Z" transform="translate(-257.678 -321.188)"/><path class="a" d="M389.473,340.884h-1.329l-.069-1.082h-.042a2.239,2.239,0,0,1-2.164,1.235,2.533,2.533,0,0,1-2.023-.956,3.724,3.724,0,0,1-.8-2.481,3.9,3.9,0,0,1,.873-2.648,2.687,2.687,0,0,1,2.08-.944,2.018,2.018,0,0,1,1.9.915h.029v-3.867h1.5v8.014Q389.421,340.052,389.473,340.884Zm-1.552-2.842v-1.123a2.2,2.2,0,0,0-.042-.472,1.7,1.7,0,0,0-.541-.907,1.473,1.473,0,0,0-1-.368,1.538,1.538,0,0,0-1.318.666,2.855,2.855,0,0,0-.48,1.705,2.658,2.658,0,0,0,.46,1.622,1.541,1.541,0,0,0,1.309.665,1.444,1.444,0,0,0,1.184-.554A1.849,1.849,0,0,0,387.922,338.042Z" transform="translate(-258.186 -320.991)"/><path class="a" d="M403.127,337.656a3.7,3.7,0,0,1-.888,2.551,3.165,3.165,0,0,1-2.469,1.027,3.015,3.015,0,0,1-2.363-.984,3.588,3.588,0,0,1-.879-2.482,3.661,3.661,0,0,1,.907-2.564,3.148,3.148,0,0,1,2.449-1,3.075,3.075,0,0,1,2.383.983A3.556,3.556,0,0,1,403.127,337.656Zm-1.552.049a3.047,3.047,0,0,0-.4-1.6,1.482,1.482,0,0,0-1.345-.806,1.506,1.506,0,0,0-1.373.806,3.085,3.085,0,0,0-.4,1.627,3.049,3.049,0,0,0,.4,1.6,1.512,1.512,0,0,0,1.359.806,1.5,1.5,0,0,0,1.344-.82A3.038,3.038,0,0,0,401.575,337.7Z" transform="translate(-259.029 -321.188)"/><path class="a" d="M411.763,341.08h-1.5v-3.859q0-1.785-1.359-1.784a1.349,1.349,0,0,0-1.081.49,1.736,1.736,0,0,0-.415,1.155v4h-1.5v-4.81q0-.887-.052-1.928h1.315l.069,1.054h.042a2.187,2.187,0,0,1,.775-.814,2.541,2.541,0,0,1,1.359-.379,2.152,2.152,0,0,1,1.567.61,2.963,2.963,0,0,1,.776,2.233Z" transform="translate(-259.612 -321.188)"/><path class="a" d="M422.635,335.362h-1.65v3.273c0,.832.293,1.248.874,1.248a2.607,2.607,0,0,0,.667-.07l.039,1.136a3.363,3.363,0,0,1-1.164.168,1.788,1.788,0,0,1-1.385-.541,2.639,2.639,0,0,1-.5-1.816v-3.4h-.984V334.24h.984v-1.235l1.468-.443v1.676h1.649v1.123Z" transform="translate(-260.404 -321.085)"/><path class="a" d="M430.977,340.884h-1.5v-3.831q0-1.811-1.357-1.812a1.429,1.429,0,0,0-1.429,1.051,1.855,1.855,0,0,0-.07.538v4.052h-1.5v-9.827h1.5v4.06h.029a2.264,2.264,0,0,1,2.023-1.108,2.09,2.09,0,0,1,1.541.61,3.072,3.072,0,0,1,.761,2.26Z" transform="translate(-260.816 -320.991)"/><path class="a" d="M439.693,337.393a3.634,3.634,0,0,1-.055.679h-4.492a1.962,1.962,0,0,0,.651,1.524,2.226,2.226,0,0,0,1.47.472,4.946,4.946,0,0,0,1.817-.319l.234,1.041a5.634,5.634,0,0,1-2.261.416,3.265,3.265,0,0,1-2.459-.922,3.4,3.4,0,0,1-.893-2.474,3.855,3.855,0,0,1,.832-2.537,2.863,2.863,0,0,1,2.355-1.081,2.506,2.506,0,0,1,2.2,1.081A3.6,3.6,0,0,1,439.693,337.393Zm-1.43-.388a2.014,2.014,0,0,0-.29-1.15,1.309,1.309,0,0,0-1.192-.624,1.421,1.421,0,0,0-1.192.61,2.27,2.27,0,0,0-.444,1.164Z" transform="translate(-261.352 -321.187)"/></symbol><symbol id="icon_appstore_white" viewBox="0 0 162 48"><g transform="translate(0 0)"><path class="a" d="M405.862,321.28a5.039,5.039,0,0,1,5.04,5.04v36a5.039,5.039,0,0,1-5.04,5.04h-150a5.041,5.041,0,0,1-5.04-5.04v-36a5.041,5.041,0,0,1,5.04-5.04Zm0-.96h-150a6,6,0,0,0-6,6v36a6,6,0,0,0,6,6h150a6,6,0,0,0,6-6v-36a6,6,0,0,0-6-6Z" transform="translate(-249.862 -320.32)"/><path class="a" d="M294.636,348.4a6.627,6.627,0,0,1,3.157-5.561,6.786,6.786,0,0,0-5.346-2.891c-2.249-.237-4.431,1.346-5.576,1.346-1.169,0-2.933-1.323-4.835-1.284a7.118,7.118,0,0,0-5.991,3.654c-2.591,4.486-.658,11.077,1.823,14.7,1.242,1.775,2.693,3.758,4.592,3.688,1.858-.077,2.552-1.185,4.794-1.185,2.222,0,2.873,1.185,4.81,1.14,1.994-.032,3.25-1.784,4.448-3.575a14.686,14.686,0,0,0,2.034-4.142A6.405,6.405,0,0,1,294.636,348.4Z" transform="translate(-256.1 -325.22)"/><path class="a" d="M294.908,335.214a6.526,6.526,0,0,0,1.493-4.676,6.641,6.641,0,0,0-4.3,2.223,6.206,6.206,0,0,0-1.532,4.5A5.49,5.49,0,0,0,294.908,335.214Z" transform="translate(-260.031 -322.875)"/><path class="a" d="M332.812,364.016h-2.6l-1.423-4.47h-4.943l-1.355,4.47h-2.528l4.9-15.216h3.026Zm-4.448-6.345-1.286-3.973q-.2-.61-.767-2.866h-.046q-.225.971-.723,2.866l-1.263,3.973Z" transform="translate(-267.388 -327.44)"/><path class="a" d="M350.367,359.734a6.239,6.239,0,0,1-1.513,4.424,4.424,4.424,0,0,1-3.364,1.445,3.363,3.363,0,0,1-3.116-1.557h-.046v5.779h-2.437V358q0-1.761-.091-3.612h2.144l.136,1.739h.046a4.337,4.337,0,0,1,6.941-.43A6.047,6.047,0,0,1,350.367,359.734Zm-2.484.089a4.516,4.516,0,0,0-.722-2.641,2.5,2.5,0,0,0-2.122-1.085,2.536,2.536,0,0,0-1.636.6,2.774,2.774,0,0,0-.959,1.57,3.215,3.215,0,0,0-.113.743v1.829a2.929,2.929,0,0,0,.734,2.021,2.433,2.433,0,0,0,1.907.824,2.5,2.5,0,0,0,2.144-1.06A4.671,4.671,0,0,0,347.883,359.824Z" transform="translate(-272.347 -328.78)"/><path class="a" d="M367.193,359.734a6.233,6.233,0,0,1-1.514,4.424,4.418,4.418,0,0,1-3.362,1.445,3.361,3.361,0,0,1-3.115-1.557h-.046v5.779h-2.437V358q0-1.761-.091-3.612h2.144l.136,1.739h.046a4.339,4.339,0,0,1,6.943-.43A6.062,6.062,0,0,1,367.193,359.734Zm-2.484.089a4.51,4.51,0,0,0-.724-2.641,2.49,2.49,0,0,0-2.12-1.085,2.54,2.54,0,0,0-1.638.6,2.772,2.772,0,0,0-.958,1.57,3.257,3.257,0,0,0-.113.743v1.829a2.938,2.938,0,0,0,.732,2.021,2.437,2.437,0,0,0,1.909.824,2.5,2.5,0,0,0,2.144-1.06A4.671,4.671,0,0,0,364.709,359.824Z" transform="translate(-276.553 -328.78)"/><path class="a" d="M386.38,359.674a4.055,4.055,0,0,1-1.352,3.16,5.988,5.988,0,0,1-4.144,1.332,7.256,7.256,0,0,1-3.943-.948l.565-2.032a6.683,6.683,0,0,0,3.524.972,3.332,3.332,0,0,0,2.146-.622,2.032,2.032,0,0,0,.766-1.663,2.117,2.117,0,0,0-.632-1.559,5.866,5.866,0,0,0-2.1-1.177q-4-1.491-3.995-4.363a3.862,3.862,0,0,1,1.4-3.075,5.525,5.525,0,0,1,3.725-1.2,7.385,7.385,0,0,1,3.453.722l-.61,1.988a5.989,5.989,0,0,0-2.911-.7,2.946,2.946,0,0,0-2.008.632,1.8,1.8,0,0,0-.61,1.378,1.858,1.858,0,0,0,.7,1.49,7.911,7.911,0,0,0,2.214,1.174,7.5,7.5,0,0,1,2.889,1.85A3.864,3.864,0,0,1,386.38,359.674Z" transform="translate(-281.632 -327.366)"/><path class="a" d="M398.046,355.377h-2.687V360.7q0,2.033,1.422,2.033a4.357,4.357,0,0,0,1.083-.113l.068,1.851a5.534,5.534,0,0,1-1.9.27,2.925,2.925,0,0,1-2.258-.88,4.326,4.326,0,0,1-.813-2.958v-5.53h-1.6v-1.829h1.6v-2.009l2.395-.722v2.731h2.687Z" transform="translate(-285.238 -327.944)"/><path class="a" d="M412.855,359.78a6.015,6.015,0,0,1-1.445,4.154,5.159,5.159,0,0,1-4.02,1.671,4.907,4.907,0,0,1-3.847-1.6,5.835,5.835,0,0,1-1.433-4.041,5.958,5.958,0,0,1,1.478-4.175,5.116,5.116,0,0,1,3.983-1.626,5.01,5.01,0,0,1,3.883,1.6A5.768,5.768,0,0,1,412.855,359.78Zm-2.529.079a4.934,4.934,0,0,0-.654-2.6,2.408,2.408,0,0,0-2.189-1.312,2.444,2.444,0,0,0-2.235,1.313,5.028,5.028,0,0,0-.654,2.649,4.929,4.929,0,0,0,.654,2.6,2.491,2.491,0,0,0,4.4-.023A4.952,4.952,0,0,0,410.326,359.858Z" transform="translate(-287.924 -328.78)"/><path class="a" d="M425.045,356.527a4.269,4.269,0,0,0-.769-.068,2.3,2.3,0,0,0-1.987.972,3.654,3.654,0,0,0-.61,2.167v5.757h-2.437l.023-7.517q0-1.9-.091-3.455H421.3l.089,2.1h.067a3.752,3.752,0,0,1,1.219-1.738,2.947,2.947,0,0,1,1.762-.588,3.925,3.925,0,0,1,.61.045Z" transform="translate(-292.19 -328.78)"/><path class="a" d="M438.288,359.344a5.708,5.708,0,0,1-.089,1.106h-7.313a3.181,3.181,0,0,0,1.061,2.485,3.624,3.624,0,0,0,2.392.767,8.083,8.083,0,0,0,2.959-.519l.383,1.692a9.148,9.148,0,0,1-3.679.678,5.329,5.329,0,0,1-4.009-1.5,5.545,5.545,0,0,1-1.455-4.029,6.285,6.285,0,0,1,1.356-4.131,4.672,4.672,0,0,1,3.836-1.759,4.089,4.089,0,0,1,3.591,1.759A5.936,5.936,0,0,1,438.288,359.344Zm-2.325-.632a3.307,3.307,0,0,0-.473-1.874,2.129,2.129,0,0,0-1.943-1.016,2.313,2.313,0,0,0-1.94.994,3.639,3.639,0,0,0-.721,1.9h5.077Z" transform="translate(-294.531 -328.773)"/><path class="a" d="M328.041,335.114a3.753,3.753,0,0,1-1.21,3.039,4.81,4.81,0,0,1-3.182.942,14.627,14.627,0,0,1-1.753-.089v-7.353a12.944,12.944,0,0,1,2.063-.155,4.45,4.45,0,0,1,2.962.854A3.45,3.45,0,0,1,328.041,335.114Zm-1.263.033a2.436,2.436,0,0,0-2.718-2.706,5.089,5.089,0,0,0-.965.077v5.591a6.421,6.421,0,0,0,.81.033,2.835,2.835,0,0,0,2.123-.765A3.066,3.066,0,0,0,326.778,335.147Z" transform="translate(-267.871 -323.114)"/><path class="a" d="M337.262,336.966a2.957,2.957,0,0,1-.71,2.041,2.533,2.533,0,0,1-1.975.821,2.408,2.408,0,0,1-1.891-.787,2.867,2.867,0,0,1-.7-1.985,2.929,2.929,0,0,1,.726-2.051,2.517,2.517,0,0,1,1.957-.8,2.464,2.464,0,0,1,1.908.787A2.845,2.845,0,0,1,337.262,336.966Zm-1.244.039a2.438,2.438,0,0,0-.321-1.279,1.184,1.184,0,0,0-1.075-.645,1.2,1.2,0,0,0-1.1.645,2.468,2.468,0,0,0-.321,1.3,2.439,2.439,0,0,0,.321,1.279,1.21,1.21,0,0,0,1.087.645,1.2,1.2,0,0,0,1.075-.656A2.422,2.422,0,0,0,336.019,337.005Z" transform="translate(-270.392 -323.791)"/><path class="a" d="M348.4,334.352l-1.687,5.39h-1.1l-.7-2.341a17.477,17.477,0,0,1-.433-1.742h-.022a12.767,12.767,0,0,1-.433,1.742l-.742,2.341h-1.11l-1.585-5.39h1.231l.609,2.563c.148.606.268,1.183.366,1.729h.022c.089-.45.237-1.024.445-1.718l.765-2.573H345l.733,2.518q.266.92.432,1.774h.033a17.17,17.17,0,0,1,.366-1.774l.654-2.518H348.4Z" transform="translate(-272.543 -323.828)"/><path class="a" d="M357.705,339.7h-1.2v-3.087q0-1.428-1.086-1.427a1.081,1.081,0,0,0-.866.392,1.393,1.393,0,0,0-.333.924v3.2h-1.2v-3.848q0-.71-.044-1.543h1.053l.056.843h.033a1.734,1.734,0,0,1,.621-.651,2.026,2.026,0,0,1,1.086-.3,1.72,1.72,0,0,1,1.254.488,2.373,2.373,0,0,1,.621,1.786Z" transform="translate(-275.642 -323.79)"/><path class="a" d="M363.287,338.918h-1.2v-7.863h1.2Z" transform="translate(-277.919 -323.004)"/><path class="a" d="M371.332,336.966a2.957,2.957,0,0,1-.71,2.041,2.533,2.533,0,0,1-1.975.821,2.4,2.4,0,0,1-1.891-.787,2.871,2.871,0,0,1-.7-1.985,2.929,2.929,0,0,1,.726-2.051,2.519,2.519,0,0,1,1.957-.8,2.468,2.468,0,0,1,1.909.787A2.845,2.845,0,0,1,371.332,336.966Zm-1.244.039a2.438,2.438,0,0,0-.321-1.279,1.183,1.183,0,0,0-1.074-.645,1.2,1.2,0,0,0-1.1.645,2.474,2.474,0,0,0-.321,1.3,2.439,2.439,0,0,0,.321,1.279,1.21,1.21,0,0,0,1.088.645,1.2,1.2,0,0,0,1.074-.656A2.416,2.416,0,0,0,370.088,337.005Z" transform="translate(-278.91 -323.791)"/><path class="a" d="M379.349,339.706h-1.076l-.089-.621h-.034a1.845,1.845,0,0,1-1.574.743,1.624,1.624,0,0,1-1.23-.488,1.532,1.532,0,0,1-.422-1.1,1.674,1.674,0,0,1,.827-1.508,4.287,4.287,0,0,1,2.325-.51v-.1q0-1.065-1.12-1.065a2.508,2.508,0,0,0-1.4.4l-.244-.787a3.457,3.457,0,0,1,1.849-.465q2.113,0,2.115,2.23v1.984A8.38,8.38,0,0,0,379.349,339.706Zm-1.244-1.852v-.831q-1.982-.035-1.982,1.086a.813.813,0,0,0,.229.632.837.837,0,0,0,.586.211,1.21,1.21,0,0,0,.733-.25,1.023,1.023,0,0,0,.434-.848Z" transform="translate(-281.128 -323.791)"/><path class="a" d="M388.187,338.918h-1.063l-.056-.866h-.034a1.791,1.791,0,0,1-1.731.988,2.027,2.027,0,0,1-1.618-.765,2.979,2.979,0,0,1-.643-1.984,3.123,3.123,0,0,1,.7-2.119,2.149,2.149,0,0,1,1.664-.755,1.615,1.615,0,0,1,1.518.732h.023v-3.094h1.2v6.411Q388.145,338.252,388.187,338.918Zm-1.241-2.273v-.9a1.758,1.758,0,0,0-.034-.377,1.364,1.364,0,0,0-.433-.726,1.178,1.178,0,0,0-.8-.294,1.23,1.23,0,0,0-1.054.532,2.284,2.284,0,0,0-.384,1.364,2.127,2.127,0,0,0,.368,1.3,1.233,1.233,0,0,0,1.047.532,1.155,1.155,0,0,0,.947-.443A1.479,1.479,0,0,0,386.946,336.645Z" transform="translate(-283.157 -323.004)"/><path class="a" d="M401.807,336.966a2.957,2.957,0,0,1-.71,2.041,2.532,2.532,0,0,1-1.975.821,2.412,2.412,0,0,1-1.891-.787,2.871,2.871,0,0,1-.7-1.985,2.929,2.929,0,0,1,.726-2.051,2.518,2.518,0,0,1,1.959-.8,2.46,2.46,0,0,1,1.906.787A2.845,2.845,0,0,1,401.807,336.966Zm-1.242.039a2.438,2.438,0,0,0-.321-1.279,1.186,1.186,0,0,0-1.076-.645,1.205,1.205,0,0,0-1.1.645,2.468,2.468,0,0,0-.321,1.3,2.439,2.439,0,0,0,.321,1.279,1.21,1.21,0,0,0,1.087.645,1.2,1.2,0,0,0,1.076-.656A2.43,2.43,0,0,0,400.565,337.005Z" transform="translate(-286.529 -323.791)"/><path class="a" d="M410.583,339.7h-1.2v-3.087q0-1.428-1.087-1.427a1.079,1.079,0,0,0-.865.392,1.389,1.389,0,0,0-.332.924v3.2h-1.2v-3.848q0-.71-.042-1.543h1.052l.056.843H407a1.749,1.749,0,0,1,.62-.651,2.033,2.033,0,0,1,1.087-.3,1.722,1.722,0,0,1,1.253.488,2.37,2.37,0,0,1,.621,1.786Z" transform="translate(-288.861 -323.79)"/><path class="a" d="M421.815,334.8h-1.32v2.618c0,.665.235,1,.7,1a2.085,2.085,0,0,0,.534-.056l.031.909a2.69,2.69,0,0,1-.931.134,1.43,1.43,0,0,1-1.108-.433,2.111,2.111,0,0,1-.4-1.453V334.8h-.787v-.9h.787v-.988l1.175-.354V333.9h1.319v.9Z" transform="translate(-292.03 -323.381)"/><path class="a" d="M429.807,338.918h-1.2v-3.065q0-1.449-1.085-1.45a1.143,1.143,0,0,0-1.143.841,1.484,1.484,0,0,0-.056.43v3.242h-1.2v-7.861h1.2V334.3h.023a1.812,1.812,0,0,1,1.619-.886,1.672,1.672,0,0,1,1.233.488,2.458,2.458,0,0,1,.609,1.808Z" transform="translate(-293.678 -323.004)"/><path class="a" d="M438.495,336.753a2.909,2.909,0,0,1-.044.543h-3.594a1.569,1.569,0,0,0,.52,1.219,1.781,1.781,0,0,0,1.176.377,3.956,3.956,0,0,0,1.454-.255l.188.833a4.507,4.507,0,0,1-1.809.333,2.612,2.612,0,0,1-1.967-.737,2.716,2.716,0,0,1-.715-1.979,3.084,3.084,0,0,1,.665-2.029,2.29,2.29,0,0,1,1.884-.865,2,2,0,0,1,1.762.865A2.879,2.879,0,0,1,438.495,336.753Zm-1.144-.31a1.611,1.611,0,0,0-.232-.92,1.047,1.047,0,0,0-.953-.5,1.137,1.137,0,0,0-.954.488,1.816,1.816,0,0,0-.355.932Z" transform="translate(-295.822 -323.788)"/></g></symbol><symbol id="icon_arrow-l_white-1" viewBox="0 0 31 15.001"><path class="a" d="M6.9,14.834a.512.512,0,0,0,.756,0,.574.574,0,0,0,0-.78l-5.834-6H30.47a.558.558,0,0,0,0-1.114H1.822L7.656.954a.586.586,0,0,0,0-.79.517.517,0,0,0-.756,0L.159,7.11a.557.557,0,0,0,0,.779Z" transform="translate(31 15.001) rotate(180)"/></symbol><symbol id="icon_arrow-l_white" viewBox="0 0 31 15.001"><path class="a" d="M6.9,14.834a.512.512,0,0,0,.756,0,.574.574,0,0,0,0-.78l-5.834-6H30.47a.558.558,0,0,0,0-1.114H1.822L7.656.954a.586.586,0,0,0,0-.79.517.517,0,0,0-.756,0L.159,7.11a.557.557,0,0,0,0,.779Z" transform="translate(0 0)"/></symbol><symbol id="icon_arrow" viewBox="0 0 31 15.001">
  <path id="icon_arrow-l_white" d="M6.9,14.834a.512.512,0,0,0,.756,0,.574.574,0,0,0,0-.78l-5.834-6H30.47a.558.558,0,0,0,0-1.114H1.822L7.656.954a.586.586,0,0,0,0-.79.517.517,0,0,0-.756,0L.159,7.11a.557.557,0,0,0,0,.779Z" transform="translate(31 15.001) rotate(180)"/>
</symbol><symbol id="icon_calendar" viewBox="0 0 90 90"><g transform="translate(-444.606 -1237.366)"><circle class="a" cx="45" cy="45" r="45" transform="translate(444.606 1237.366)"/><g transform="translate(464.038 1254.752)"><path class="b" d="M501.935,1266.942a3.7,3.7,0,0,1-3.69-3.69v-2.712H480.013v2.712a3.69,3.69,0,0,1-7.381,0v-2.712h-3.78a3.249,3.249,0,0,0-3.246,3.245v8.85h47.045v-8.85a3.248,3.248,0,0,0-3.245-3.245h-3.781v2.712A3.7,3.7,0,0,1,501.935,1266.942Z" transform="translate(-463.561 -1254.226)"/><rect class="b" width="3.291" height="3.291" transform="translate(23.923 37.796)"/><path class="b" d="M476.121,1264.992a1.646,1.646,0,0,0,1.646-1.645v-5.337a1.645,1.645,0,0,0-3.29,0v5.337A1.646,1.646,0,0,0,476.121,1264.992Z" transform="translate(-463.359 -1254.321)"/><rect class="b" width="3.29" height="3.291" transform="translate(11.117 37.796)"/><path class="b" d="M477.693,1295.562v-1.023h0Z" transform="translate(-463.286 -1253.453)"/><rect class="b" width="3.291" height="3.291" transform="translate(23.923 27.124)"/><path class="b" d="M501.165,1264.992a1.646,1.646,0,0,0,1.645-1.645v-5.337a1.645,1.645,0,0,0-3.289,0v5.337A1.646,1.646,0,0,0,501.165,1264.992Z" transform="translate(-462.79 -1254.321)"/><rect class="b" width="3.29" height="3.291" transform="translate(11.117 27.124)"/><path class="b" d="M477.693,1285.128V1284.1h0Z" transform="translate(-463.286 -1253.69)"/><rect class="b" width="3.29" height="3.291" transform="translate(36.73 27.124)"/><path class="b" d="M465.606,1274.366v25.39a3.25,3.25,0,0,0,3.246,3.246h40.554a3.249,3.249,0,0,0,3.245-3.246v-25.39ZM480.013,1295a2.048,2.048,0,0,1-2.045,2.045h-3.29a2.048,2.048,0,0,1-2.045-2.045v-3.291a2.047,2.047,0,0,1,2.045-2.046h3.29a2.048,2.048,0,0,1,2.045,2.046Zm0-10.672a2.047,2.047,0,0,1-2.045,2.045h-3.29a2.047,2.047,0,0,1-2.045-2.045v-3.291a2.048,2.048,0,0,1,2.045-2.045h3.29a2.048,2.048,0,0,1,2.045,2.045ZM492.82,1295a2.049,2.049,0,0,1-2.045,2.045h-3.291a2.049,2.049,0,0,1-2.045-2.045v-3.291a2.048,2.048,0,0,1,2.045-2.046h3.291a2.048,2.048,0,0,1,2.045,2.046Zm0-10.672a2.048,2.048,0,0,1-2.045,2.045h-3.291a2.048,2.048,0,0,1-2.045-2.045v-3.291a2.049,2.049,0,0,1,2.045-2.045h3.291a2.049,2.049,0,0,1,2.045,2.045ZM505.625,1295a2.048,2.048,0,0,1-2.045,2.045h-3.289a2.048,2.048,0,0,1-2.045-2.045v-3.291a2.048,2.048,0,0,1,2.045-2.046h3.289a2.048,2.048,0,0,1,2.045,2.046Zm0-10.672a2.048,2.048,0,0,1-2.045,2.045h-3.289a2.047,2.047,0,0,1-2.045-2.045v-3.291a2.048,2.048,0,0,1,2.045-2.045h3.289a2.048,2.048,0,0,1,2.045,2.045Z" transform="translate(-463.561 -1253.911)"/><rect class="b" width="3.29" height="3.291" transform="translate(36.73 37.796)"/><path class="c" d="M490.334,1278.887h-3.291a2.049,2.049,0,0,0-2.045,2.045v3.291a2.048,2.048,0,0,0,2.045,2.045h3.291a2.048,2.048,0,0,0,2.045-2.045v-3.291A2.049,2.049,0,0,0,490.334,1278.887Zm-3.291,5.337v-3.291h3.291v3.291Z" transform="translate(-463.12 -1253.809)"/><path class="c" d="M477.812,1278.887h-3.29a2.048,2.048,0,0,0-2.045,2.045v3.291a2.047,2.047,0,0,0,2.045,2.045h3.29a2.047,2.047,0,0,0,2.045-2.045v-3.291A2.048,2.048,0,0,0,477.812,1278.887Zm0,5.337h-3.289v-3.291h3.29Zm0,1.023v-1.023h0Z" transform="translate(-463.404 -1253.809)"/><path class="c" d="M502.855,1278.887h-3.289a2.048,2.048,0,0,0-2.045,2.045v3.291a2.047,2.047,0,0,0,2.045,2.045h3.289a2.048,2.048,0,0,0,2.045-2.045v-3.291A2.048,2.048,0,0,0,502.855,1278.887Zm-3.289,5.337v-3.291h3.289v3.291Z" transform="translate(-462.835 -1253.809)"/><path class="c" d="M490.334,1289.322h-3.291a2.048,2.048,0,0,0-2.045,2.046v3.291a2.049,2.049,0,0,0,2.045,2.045h3.291a2.049,2.049,0,0,0,2.045-2.045v-3.291A2.048,2.048,0,0,0,490.334,1289.322Zm-3.291,5.337v-3.291h3.291v3.291Z" transform="translate(-463.12 -1253.571)"/><path class="c" d="M477.812,1289.322h-3.29a2.047,2.047,0,0,0-2.045,2.046v3.291a2.048,2.048,0,0,0,2.045,2.045h3.29a2.048,2.048,0,0,0,2.045-2.045v-3.291A2.048,2.048,0,0,0,477.812,1289.322Zm0,5.337h-3.289v-3.291h3.29Zm0,1.023v-1.023h0Z" transform="translate(-463.404 -1253.571)"/><path class="c" d="M502.855,1289.322h-3.289a2.048,2.048,0,0,0-2.045,2.046v3.291a2.048,2.048,0,0,0,2.045,2.045h3.289a2.048,2.048,0,0,0,2.045-2.045v-3.291A2.048,2.048,0,0,0,502.855,1289.322Zm-3.289,5.337v-3.291h3.289v3.291Z" transform="translate(-462.835 -1253.571)"/><rect width="18.231" height="2.045" transform="translate(16.453 4.268)"/><path d="M509.452,1258.54h-3.781v2.046h3.781a3.248,3.248,0,0,1,3.245,3.245v8.85H465.651v-8.85a3.249,3.249,0,0,1,3.246-3.245h3.78v-2.046H468.9a5.3,5.3,0,0,0-5.292,5.291v36.285a5.3,5.3,0,0,0,5.292,5.292h40.554a5.3,5.3,0,0,0,5.291-5.292V1263.83A5.3,5.3,0,0,0,509.452,1258.54Zm0,44.822H468.9a3.25,3.25,0,0,1-3.246-3.246v-25.39H512.7v25.39A3.249,3.249,0,0,1,509.452,1303.362Z" transform="translate(-463.606 -1254.271)"/><path class="c" d="M472.476,1263.393a3.69,3.69,0,0,0,7.381,0v-5.337a3.69,3.69,0,0,0-7.381,0v5.337Zm2.045-5.337a1.645,1.645,0,0,1,3.29,0v5.337a1.645,1.645,0,0,1-3.29,0Z" transform="translate(-463.404 -1254.366)"/><path class="c" d="M497.52,1263.393a3.69,3.69,0,1,0,7.38,0v-5.337a3.69,3.69,0,1,0-7.38,0v5.337Zm2.045-5.337a1.645,1.645,0,0,1,3.289,0v5.337a1.645,1.645,0,1,1-3.289,0Z" transform="translate(-462.835 -1254.366)"/></g></g></symbol><symbol id="icon_check" viewBox="0 0 17.578 13.406"><path class="a" d="M-3.211-4.781,7.43-15.422l1.359,1.406-12,12L-8.789-7.594-7.383-9Z" transform="translate(8.789 15.422)"/></symbol><symbol id="icon_clock" viewBox="0 0 91 91"><g transform="translate(0.5 0.5)"><circle class="a" cx="45" cy="45" r="45"/><g transform="translate(20.218 12.926)"><path class="b" d="M381.3,1281.423a2.541,2.541,0,1,0-2.542,2.54A2.545,2.545,0,0,0,381.3,1281.423Z" transform="translate(-353.973 -1249.348)"/><path class="b" d="M395.2,1265.732l-.1.1-1.637-1.636.011-.011a22.75,22.75,0,1,0,1.728,1.545Zm-4.581,27.555a1.022,1.022,0,0,1-1.446,0l-7.54-7.541a4.542,4.542,0,0,1-2.429.712,4.586,4.586,0,1,1,4.587-4.586,4.544,4.544,0,0,1-.712,2.428l7.54,7.541A1.021,1.021,0,0,1,390.618,1293.287Zm3.755-2.228a1.009,1.009,0,0,1-.484-.123,1.021,1.021,0,0,1-.415-1.385,16.212,16.212,0,0,0-12.034-23.73,1.022,1.022,0,0,1-.873-1.153,1.01,1.01,0,0,1,1.153-.872,18.255,18.255,0,0,1,13.555,26.726A1.022,1.022,0,0,1,394.373,1291.059Z" transform="translate(-354.422 -1249.797)"/><path d="M396.69,1264.493l.907-.907,1.228,1.228a.578.578,0,0,0,.818,0l.819-.819a.578.578,0,0,0,0-.818l-4.094-4.093a.579.579,0,0,0-.818,0l-.819.818a.581.581,0,0,0,0,.819l1.228,1.227-.989.989a24.67,24.67,0,0,0-13.347-5.524v-2.658h2.542a1.022,1.022,0,0,0,1.023-1.023v-2.706a1.023,1.023,0,0,0-1.023-1.023h-9.835a1.023,1.023,0,0,0-1.023,1.023v2.706a1.022,1.022,0,0,0,1.023,1.023h2.541v2.658a24.807,24.807,0,1,0,19.817,7.079Zm-17.442,40.323a22.737,22.737,0,1,1,14.267-40.422l-.011.011,1.637,1.636.1-.1a22.723,22.723,0,0,1-16,38.877Z" transform="translate(-354.467 -1250.004)"/><path class="c" d="M381.184,1263.693a1.01,1.01,0,0,0-1.153.872,1.022,1.022,0,0,0,.873,1.153,16.212,16.212,0,0,1,12.034,23.73,1.021,1.021,0,0,0,.415,1.385,1.009,1.009,0,0,0,.484.123,1.022,1.022,0,0,0,.9-.537,18.255,18.255,0,0,0-13.555-26.726Z" transform="translate(-353.886 -1249.693)"/><path class="c" d="M382.675,1283.9a4.544,4.544,0,0,0,.712-2.428,4.587,4.587,0,1,0-4.587,4.586,4.542,4.542,0,0,0,2.429-.712l7.54,7.541a1.023,1.023,0,1,0,1.446-1.446Zm-6.417-2.428a2.541,2.541,0,1,1,2.541,2.54A2.545,2.545,0,0,1,376.258,1281.469Z" transform="translate(-354.018 -1249.393)"/></g></g></symbol><symbol id="icon_cross" viewBox="0 0 14.016 13.969"><path class="a" d="M7.008-14.578,1.383-9,7.008-3.422,5.6-2.016-.023-7.594-5.6-2.016-7.008-3.422-1.43-9l-5.578-5.578L-5.6-15.984l5.578,5.578L5.6-15.984Z" transform="translate(7.008 15.984)"/></symbol><symbol id="icon_d-cube" viewBox="0 0 160 160"><g transform="translate(30 27)"><g class="e" transform="matrix(1, 0, 0, 1, -30, -27)"><rect class="a" width="100" height="100" rx="5" transform="translate(30 27)"/></g><g transform="translate(13.803 15.373)"><path class="b" d="M445.423,283.417l5.588-11.873,0-36-5.59,9.4Z" transform="translate(-380.325 -218.486)"/><path class="b" d="M435.471,230.416,424.7,239.573l60.482.009,6.17-9.165Z" transform="translate(-421.43 -228.658)"/><path class="c" d="M495.911,230.236v0l0,0h0a.894.894,0,0,0-.1-.131h0v0a.894.894,0,0,0-.334-.215l0,0h0l-.093-.027c-.069-.015-.113,0-.212-.024h-57.84a.869.869,0,0,0-.567.209l-12.84,10.913a.891.891,0,0,0-.31.68v57.058a.877.877,0,0,0,.877.877H487.82a.883.883,0,0,0,.8-.5l7.345-15.606a.855.855,0,0,0,.086-.373l0-52.375A.858.858,0,0,0,495.911,230.236Zm-8.559,10.513-60.483-.006,10.776-9.159h55.877Zm6.936,42.136L488.7,294.758V256.283l5.591-9.4Z" transform="translate(-423.602 -229.827)"/><g transform="translate(7.36 24.087)"><path class="d" d="M445.256,238.071a15.757,15.757,0,0,1,5.916,1.113,15.463,15.463,0,0,1,4.806,3.144,14.57,14.57,0,0,1,3.222,4.687,13.967,13.967,0,0,1,1.151,5.764,14.245,14.245,0,0,1-1.151,5.761,15.642,15.642,0,0,1-3.222,4.687,14.024,14.024,0,0,1-4.806,3.088,14.744,14.744,0,0,1-5.916,1.152H433.985V238.071Zm3.729,23.144a8.139,8.139,0,0,0,2.87-1.954,8.774,8.774,0,0,0,1.817-2.93,9.328,9.328,0,0,0,.665-3.553,9.193,9.193,0,0,0-.665-3.595,8.517,8.517,0,0,0-4.687-4.863,9.885,9.885,0,0,0-3.729-.7H440v18.4h5.257a9.906,9.906,0,0,0,3.729-.8" transform="translate(-410.369 -237.564)"/><path class="d" d="M435.058,237.9a8.984,8.984,0,1,0,8.986,8.986,8.988,8.988,0,0,0-8.986-8.986m0,12.676a3.692,3.692,0,1,1,3.69-3.69,3.69,3.69,0,0,1-3.69,3.69" transform="translate(-426.069 -237.901)"/></g></g></g></symbol><symbol id="icon_d-house" viewBox="0 0 160 160"><g transform="translate(30 27)"><g class="d" transform="matrix(1, 0, 0, 1, -30, -27)"><rect class="a" width="100" height="100" rx="5" transform="translate(30 27)"/></g><g transform="translate(13.002 14.675)"><path class="b" d="M333.338,260.492a2.189,2.189,0,0,0,3.065.336l2.021-1.624v33.917a3.97,3.97,0,0,0,3.956,3.96h56.256a3.97,3.97,0,0,0,3.96-3.96V259.273l1.959,1.576a2.209,2.209,0,0,0,1.363.476,2.152,2.152,0,0,0,1.7-.832,2.194,2.194,0,0,0-.336-3.069l-34.43-27.683-.791-.394a3.89,3.89,0,0,0-3.131.01l-.829.384-34.43,27.686a2.189,2.189,0,0,0-.336,3.066" transform="translate(-332.861 -229.023)"/><path class="c" d="M358.639,260.66a8.235,8.235,0,0,0,2.911-1.98,8.973,8.973,0,0,0,1.839-2.966,9.482,9.482,0,0,0,.671-3.6,9.288,9.288,0,0,0-.671-3.641,8.837,8.837,0,0,0-1.839-2.929,8.679,8.679,0,0,0-2.911-2,10.03,10.03,0,0,0-3.778-.712h-5.323v18.64h5.323a10.118,10.118,0,0,0,3.778-.812m-3.778-23.449a16.011,16.011,0,0,1,5.994,1.127,15.642,15.642,0,0,1,4.871,3.189,14.7,14.7,0,0,1,3.264,4.747,14.109,14.109,0,0,1,1.168,5.837,14.434,14.434,0,0,1-1.168,5.837,15.936,15.936,0,0,1-3.264,4.751,14.221,14.221,0,0,1-4.871,3.127,14.909,14.909,0,0,1-5.994,1.168H343.445V237.211Z" transform="translate(-307.192 -209.163)"/><path class="c" d="M345.563,249.9a3.739,3.739,0,1,1,3.74-3.74,3.736,3.736,0,0,1-3.74,3.74m0-12.841a9.1,9.1,0,1,0,9.1,9.1,9.106,9.106,0,0,0-9.1-9.1" transform="translate(-324.135 -209.527)"/></g></g></symbol><symbol id="icon_data" viewBox="0 0 90 90"><g transform="translate(-410.29 -105.329)"><circle class="a" cx="45" cy="45" r="45" transform="translate(410.29 105.329)"/><g transform="translate(428.164 119.544)"><path d="M454.893,124.588a26.592,26.592,0,0,1,12.965,3.22l-6.244.942a1.023,1.023,0,0,0,.152,2.034,1.119,1.119,0,0,0,.153-.011l8.969-1.353a1.02,1.02,0,0,0,.206-.084.939.939,0,0,0,.145-.059.96.96,0,0,0,.272-.246c0-.005.011-.007.015-.013l0-.008a.944.944,0,0,0,.116-.133,1.027,1.027,0,0,0,0-.933l-4.172-8.157a1.023,1.023,0,0,0-1.821.933l2.523,4.934a28.9,28.9,0,0,0-13.284-3.109,27.129,27.129,0,0,0-22.108,42.847,1.023,1.023,0,0,0,1.666-1.186,25.084,25.084,0,0,1,20.442-39.615Z" transform="translate(-427.767 -119.228)"/><path class="b" d="M476.378,133.106a1.022,1.022,0,1,0-1.635,1.227,25.084,25.084,0,0,1-20.08,40.11,25.933,25.933,0,0,1-12.968-3.382l6.691-1.1a1.023,1.023,0,0,0-.331-2.019l-9.275,1.525h0l-.018,0c-.017,0-.03.016-.046.02a.812.812,0,0,0-.466.251.92.92,0,0,0-.141.127.844.844,0,0,0-.046.1c-.014.023-.039.036-.05.059s-.009.06-.02.089a1,1,0,0,0-.065.286.83.83,0,0,0,.078.481c.011.025.007.053.02.077l4.746,8.988a1.023,1.023,0,1,0,1.808-.956l-2.979-5.64a28.224,28.224,0,0,0,13.066,3.14,27.128,27.128,0,0,0,21.716-43.383Z" transform="translate(-427.536 -118.922)"/><path d="M441.49,151.735v5.851a1.023,1.023,0,1,0,2.045,0v-5.851a1.023,1.023,0,0,0-2.045,0Z" transform="translate(-427.455 -118.513)"/><path d="M445.416,148.875v8.776a1.023,1.023,0,1,0,2.045,0v-8.776a1.023,1.023,0,1,0-2.045,0Z" transform="translate(-427.366 -118.578)"/><path d="M449.342,146.014v11.7a1.023,1.023,0,1,0,2.045,0v-11.7a1.023,1.023,0,1,0-2.045,0Z" transform="translate(-427.277 -118.643)"/><path d="M453.268,150.3v7.314a1.023,1.023,0,0,0,2.045,0V150.3a1.023,1.023,0,0,0-2.045,0Z" transform="translate(-427.187 -118.545)"/><path d="M457.194,147.921v9.752a1.023,1.023,0,0,0,2.045,0v-9.752a1.023,1.023,0,0,0-2.045,0Z" transform="translate(-427.098 -118.599)"/><path d="M461.12,145.061v12.677a1.023,1.023,0,1,0,2.045,0V145.061a1.023,1.023,0,0,0-2.045,0Z" transform="translate(-427.009 -118.664)"/><path d="M465.046,142.2v15.6a1.023,1.023,0,1,0,2.045,0V142.2a1.023,1.023,0,1,0-2.045,0Z" transform="translate(-426.92 -118.729)"/><path class="b" d="M467.974,135.507a1.021,1.021,0,0,0-1.429-.224l-11.788,8.6-3.4-4.171a1.021,1.021,0,0,0-1.395-.179l-8.935,6.523a1.023,1.023,0,0,0,1.206,1.653l8.152-5.952,3.4,4.171a1.025,1.025,0,0,0,1.395.179l12.57-9.174A1.022,1.022,0,0,0,467.974,135.507Z" transform="translate(-427.475 -118.868)"/></g></g></symbol><symbol id="icon_down_white" viewBox="0 0 25.018 13.509"><path class="a" d="M13,12.256,24.509.745l1,1L13,14.254.491,1.746l1-1Z" transform="translate(-0.491 -0.745)"/></symbol><symbol id="icon_energy" viewBox="0 0 90 90"><g transform="translate(-275.449 -105.329)"><circle class="a" cx="45" cy="45" r="45" transform="translate(275.449 105.329)"/><g transform="translate(288.744 118.624)"><g transform="translate(14.832 14.601)"><path d="M319.824,166.812a17.1,17.1,0,1,1,16.872-17.1A17.009,17.009,0,0,1,319.824,166.812Zm0-32.161a15.059,15.059,0,1,0,14.826,15.058A14.961,14.961,0,0,0,319.824,134.651Z" transform="translate(-302.951 -132.606)"/></g><g transform="translate(23.153 20.922)"><path class="b" d="M317.407,160.351a1.858,1.858,0,0,1-1.841-2.121l.813-5.687h-3.434a1.859,1.859,0,0,1-1.39-3.094l8.924-10.039a1.859,1.859,0,0,1,3.224,1.542l-.754,4.526h3.382a1.859,1.859,0,0,1,1.45,3.022l-8.922,11.154A1.853,1.853,0,0,1,317.407,160.351Zm-4.047-9.854h5.378l-1.05,7.347,8.257-10.321h-5.41l1.046-6.271Z" transform="translate(-311.087 -138.786)"/></g><g transform="translate(9.176 8.862)"><path class="b" d="M319.95,172.678a1.023,1.023,0,1,1,0-2.045,20.665,20.665,0,0,0,20.483-20.8,1.023,1.023,0,1,1,2.045,0A22.713,22.713,0,0,1,319.95,172.678Zm-21.506-21.819a1.022,1.022,0,0,1-1.023-1.023,22.713,22.713,0,0,1,22.529-22.843,1.023,1.023,0,1,1,0,2.045,20.665,20.665,0,0,0-20.483,20.8A1.022,1.022,0,0,1,298.444,150.859Z" transform="translate(-297.421 -126.994)"/></g><g transform="translate(30.681)"><path d="M319.471,123.65a1.022,1.022,0,0,1-1.023-1.023v-3.276a1.023,1.023,0,1,1,2.045,0v3.276A1.022,1.022,0,0,1,319.471,123.65Z" transform="translate(-318.448 -118.329)"/></g><g transform="translate(15.34 4.109)"><path class="b" d="M306.111,127.231a1.021,1.021,0,0,1-.887-.511l-1.639-2.837a1.023,1.023,0,1,1,1.771-1.023L307,125.7a1.023,1.023,0,0,1-.885,1.534Z" transform="translate(-303.448 -122.347)"/></g><g transform="translate(4.11 15.34)"><path d="M296.327,137.012a1.015,1.015,0,0,1-.51-.137l-2.837-1.637A1.023,1.023,0,0,1,294,133.465l2.837,1.638a1.023,1.023,0,0,1-.512,1.908Z" transform="translate(-292.467 -133.328)"/></g><g transform="translate(0 30.682)"><path class="b" d="M292.748,150.374h-3.276a1.023,1.023,0,0,1,0-2.045h3.276a1.023,1.023,0,0,1,0,2.045Z" transform="translate(-288.449 -148.329)"/></g><g transform="translate(4.11 44.384)"><path d="M293.492,165.411a1.023,1.023,0,0,1-.512-1.909l2.837-1.637a1.023,1.023,0,0,1,1.023,1.771L294,165.274A1.014,1.014,0,0,1,293.492,165.411Z" transform="translate(-292.467 -161.727)"/></g><g transform="translate(15.341 54.415)"><path class="b" d="M304.471,176.419a1.023,1.023,0,0,1-.885-1.534l1.638-2.838A1.023,1.023,0,1,1,307,173.069l-1.638,2.838A1.023,1.023,0,0,1,304.471,176.419Z" transform="translate(-303.449 -171.535)"/></g><g transform="translate(30.682 58.087)"><path d="M319.472,180.447a1.022,1.022,0,0,1-1.023-1.023v-3.277a1.023,1.023,0,1,1,2.045,0v3.277A1.022,1.022,0,0,1,319.472,180.447Z" transform="translate(-318.449 -175.125)"/></g><g transform="translate(44.383 54.414)"><path class="b" d="M334.509,176.418a1.022,1.022,0,0,1-.887-.511l-1.639-2.837a1.023,1.023,0,0,1,1.772-1.023l1.638,2.837a1.023,1.023,0,0,1-.885,1.534Z" transform="translate(-331.846 -171.534)"/></g><g transform="translate(54.415 44.383)"><path d="M345.515,165.411a1.015,1.015,0,0,1-.51-.137l-2.838-1.638a1.023,1.023,0,0,1,1.023-1.772l2.838,1.638a1.023,1.023,0,0,1-.512,1.909Z" transform="translate(-341.655 -161.726)"/></g><g transform="translate(58.087 30.682)"><path class="b" d="M349.545,150.374h-3.277a1.023,1.023,0,1,1,0-2.045h3.277a1.023,1.023,0,1,1,0,2.045Z" transform="translate(-345.245 -148.329)"/></g><g transform="translate(54.415 15.34)"><path d="M342.679,137.012a1.023,1.023,0,0,1-.512-1.908L345,133.465a1.023,1.023,0,0,1,1.023,1.772l-2.838,1.637A1.015,1.015,0,0,1,342.679,137.012Z" transform="translate(-341.655 -133.328)"/></g><g transform="translate(44.383 4.109)"><path class="b" d="M332.869,127.231a1.023,1.023,0,0,1-.886-1.534l1.638-2.837a1.023,1.023,0,1,1,1.771,1.023l-1.637,2.837A1.024,1.024,0,0,1,332.869,127.231Z" transform="translate(-331.846 -122.347)"/></g></g></g></symbol><symbol id="icon_googlepay_grey" viewBox="0 0 202.5 60"><path class="a" d="M195,1.2a6.3,6.3,0,0,1,6.3,6.3v45a6.3,6.3,0,0,1-6.3,6.3H7.5a6.3,6.3,0,0,1-6.3-6.3V7.5A6.3,6.3,0,0,1,7.5,1.2ZM195,0H7.5A7.5,7.5,0,0,0,0,7.5v45A7.5,7.5,0,0,0,7.5,60H195a7.5,7.5,0,0,0,7.5-7.5V7.5A7.5,7.5,0,0,0,195,0Z"/><path class="a" d="M106.3,34.325a6.375,6.375,0,1,0,6.4,6.375,6.285,6.285,0,0,0-6.4-6.375Zm0,10.245a3.87,3.87,0,1,1,3.6-3.87,3.69,3.69,0,0,1-3.6,3.87ZM92.332,34.325a6.375,6.375,0,1,0,6.39,6.375,6.285,6.285,0,0,0-6.4-6.375Zm0,10.245a3.87,3.87,0,1,1,3.585-3.87,3.69,3.69,0,0,1-3.6,3.87ZM75.7,36.29v2.7h6.48a5.655,5.655,0,0,1-1.5,3.4,6.63,6.63,0,0,1-5,1.98,7.2,7.2,0,1,1,0-14.4,6.9,6.9,0,0,1,4.9,1.935L82.492,30A9.435,9.435,0,0,0,75.7,27.2a9.915,9.915,0,1,0,0,19.815,8.756,8.756,0,0,0,9.255-9.1,8.8,8.8,0,0,0-.15-1.7Zm67.965,2.1A5.9,5.9,0,0,0,132.2,40.7a6.241,6.241,0,0,0,6.33,6.375,6.345,6.345,0,0,0,5.31-2.82l-2.175-1.5a3.646,3.646,0,0,1-3.135,1.77,3.24,3.24,0,0,1-3.09-1.935l8.535-3.525Zm-8.7,2.13a3.495,3.495,0,0,1,3.33-3.72,2.475,2.475,0,0,1,2.37,1.35Zm-6.93,6.18h2.805V27.95h-2.805Zm-4.59-10.95h-.1a4.5,4.5,0,0,0-3.36-1.5,6.39,6.39,0,0,0,0,12.765,4.348,4.348,0,0,0,3.36-1.5h.09v.915c0,2.445-1.3,3.75-3.4,3.75a3.525,3.525,0,0,1-3.21-2.265l-2.445,1.02a6.075,6.075,0,0,0,5.655,3.765c3.285,0,6-1.935,6-6.645V34.7h-2.58Zm-3.21,8.82a3.885,3.885,0,0,1,0-7.74,3.6,3.6,0,0,1,3.4,3.87,3.57,3.57,0,0,1-3.42,3.87ZM156.8,27.95h-6.7V46.7h2.8V39.59h3.915a5.835,5.835,0,1,0,0-11.64Zm0,9h-3.915V30.56h3.975a3.217,3.217,0,1,1,0,6.435Zm17.295-2.7a5.251,5.251,0,0,0-4.995,2.865l2.49,1.035a2.654,2.654,0,0,1,2.55-1.38,2.7,2.7,0,0,1,3,2.415v.195a6.2,6.2,0,0,0-2.925-.72c-2.685,0-5.4,1.5-5.4,4.215A4.335,4.335,0,0,0,173.467,47a3.946,3.946,0,0,0,3.6-1.8h.09v1.5h2.7V39.485c0-3.285-2.49-5.19-5.685-5.19Zm-.345,10.275c-.915,0-2.19-.465-2.19-1.59,0-1.5,1.59-2,3-2a4.98,4.98,0,0,1,2.55.63,3.391,3.391,0,0,1-3.285,3ZM189.7,34.7l-3.21,8.13h-.09l-3.33-8.13h-3l4.995,11.37-2.85,6.315h2.925l7.68-17.685Zm-25.215,12h2.805V27.95h-2.805Z" transform="translate(-4.087 -1.699)"/><path class="a" d="M75.165,16.145a4.066,4.066,0,0,1-1.125,3,4.366,4.366,0,0,1-3.3,1.335,4.725,4.725,0,0,1-3.315-8.055,4.5,4.5,0,0,1,3.315-1.35,4.65,4.65,0,0,1,1.845.375,3.706,3.706,0,0,1,1.41,1.005l-.795.8a3,3,0,0,0-2.46-1.065,3.48,3.48,0,0,0-3.495,3.6,3.54,3.54,0,0,0,6,2.595,2.835,2.835,0,0,0,.75-1.83H70.74V15.47H75.1A3.817,3.817,0,0,1,75.165,16.145Zm6.87-3.75h-4.05v2.85h3.69v1.08h-3.69v2.85h4.05v1.11h-5.25v-9h5.25Zm4.92,7.89H85.8V12.4H83.28v-1.11h6.255V12.4h-2.58Zm6.99,0v-9H95.1v9Zm6.285,0H99.074V12.4h-2.52v-1.11h6.18V12.4h-2.5Zm14.22-1.17a4.68,4.68,0,0,1-6.6,0,4.859,4.859,0,0,1,0-6.675,4.649,4.649,0,0,1,6.6,0,4.844,4.844,0,0,1,0,6.675Zm-5.745-.75a3.465,3.465,0,0,0,4.89,0,3.841,3.841,0,0,0,0-5.16,3.465,3.465,0,0,0-4.89,0,3.841,3.841,0,0,0,0,5.16Zm8.7,1.92v-9h1.41l4.38,7.005V11.285h1.155v9h-1.2l-4.575-7.335v7.335Z" transform="translate(-4.128 -0.692)"/><path class="b" d="M111.139,11.206a4.5,4.5,0,0,0-3.192,1.328,4.709,4.709,0,0,0,0,6.466,4.53,4.53,0,0,0,6.385,0,4.694,4.694,0,0,0,0-6.466,4.5,4.5,0,0,0-3.192-1.329Zm-1.845.069a4.8,4.8,0,0,1,5.252,1.05l0,0a4.994,4.994,0,0,1,0,6.882l0,0a4.83,4.83,0,0,1-6.812,0l0,0a5.009,5.009,0,0,1,0-6.881l0,0A4.8,4.8,0,0,1,109.294,11.275Zm-38.568-.06a4.351,4.351,0,0,0-3.2,1.305h0a4.575,4.575,0,0,0,3.21,7.8h0a4.215,4.215,0,0,0,3.186-1.289A3.915,3.915,0,0,0,75,16.142l.15-.007H75a3.669,3.669,0,0,0-.038-.525H70.88v.78h3.26l-.005.155a2.985,2.985,0,0,1-.79,1.927l-.006.006a3.69,3.69,0,0,1-6.254-2.7,3.63,3.63,0,0,1,3.641-3.752,3.15,3.15,0,0,1,2.47,1l.581-.582a3.554,3.554,0,0,0-1.259-.861h0a4.5,4.5,0,0,0-1.785-.363ZM75.3,16.132a4.216,4.216,0,0,1-1.167,3.107,4.516,4.516,0,0,1-3.412,1.381,4.875,4.875,0,0,1-3.418-8.31,4.65,4.65,0,0,1,3.423-1.395,4.8,4.8,0,0,1,1.9.386A3.855,3.855,0,0,1,74.1,12.347l.092.106-1.01,1.01-.105-.125a2.85,2.85,0,0,0-2.337-1.012h-.009a3.329,3.329,0,0,0-3.344,3.445v.007a3.39,3.39,0,0,0,5.743,2.488,2.685,2.685,0,0,0,.7-1.575H70.58V15.31h4.64l.022.123A3.963,3.963,0,0,1,75.3,16.132Zm1.32-5.007h5.55v1.41h-4.05v2.55h3.69v1.38h-3.69v2.55h4.05v1.41h-5.55Zm.3.3v8.7h4.95v-.81h-4.05v-3.15h3.69v-.78h-3.69v-3.15h4.05v-.81Zm6.195-.3h6.555v1.41h-2.58v7.89H85.64v-7.89H83.12Zm.3.3v.81h2.52v7.89h.855v-7.89h2.58v-.81Zm10.365-.3H95.24v9.3H93.785Zm.3.3v8.7h.855v-8.7Zm2.31-.3h6.48v1.41h-2.505v7.89H98.914v-7.89h-2.52Zm.3.3v.81h2.52v7.89h.855v-7.89h2.5v-.81Zm20.55-.3h1.643l4.147,6.632V11.125h1.455v9.3h-1.433l-4.342-6.961v6.961h-1.47Zm.3.3v8.7h.87V12.416l4.808,7.709h.967v-8.7h-.855V18.8l-4.613-7.378Zm-8.956,1.664a3.615,3.615,0,0,1,5.1,0l.006.005a3.992,3.992,0,0,1,0,5.362l-.006.006a3.615,3.615,0,0,1-5.1,0l.106-.106-.111.1a3.989,3.989,0,0,1,0-5.362Zm.215,5.163a3.314,3.314,0,0,0,4.673,0,3.69,3.69,0,0,0,0-4.953,3.314,3.314,0,0,0-4.673,0,3.69,3.69,0,0,0,0,4.953Z" transform="translate(-4.118 -0.682)"/><path class="a" d="M16.741,49.779,35.117,30.719,16.756,11.694a2.121,2.121,0,0,0-.794,1.88V47.917A2.162,2.162,0,0,0,16.741,49.779Z" transform="translate(-0.998 -0.731)"/><path class="a" d="M35.892,30.179,41.366,24.5,19.076,11.824a2.4,2.4,0,0,0-1.236-.346l18.05,18.7Z" transform="translate(-1.115 -0.717)"/><path class="a" d="M35.888,32.551,17.781,51.333a2.39,2.39,0,0,0,1.293-.355L41.408,38.266Z" transform="translate(-1.111 -2.034)"/><path class="a" d="M50.678,29.995l-7.418-4.227L37.638,31.6,43.3,37.47l7.374-4.215C52.244,32.36,52.244,30.886,50.678,29.995Z" transform="translate(-2.352 -1.61)"/></symbol><symbol id="icon_googlepay_white" viewBox="0 0 162 48"><path class="a" d="M156,.96A5.04,5.04,0,0,1,161.04,6V42A5.04,5.04,0,0,1,156,47.04H6A5.04,5.04,0,0,1,.96,42V6A5.04,5.04,0,0,1,6,.96ZM156,0H6A6,6,0,0,0,0,6V42a6,6,0,0,0,6,6H156a6,6,0,0,0,6-6V6a6,6,0,0,0-6-6Z"/><path class="a" d="M98.117,32.9a5.1,5.1,0,1,0,5.124,5.1,5.028,5.028,0,0,0-5.124-5.1Zm0,8.2A3.1,3.1,0,1,1,101,38a2.952,2.952,0,0,1-2.88,3.1ZM86.945,32.9A5.1,5.1,0,1,0,92.057,38a5.028,5.028,0,0,0-5.124-5.1Zm0,8.2A3.1,3.1,0,1,1,89.813,38a2.952,2.952,0,0,1-2.88,3.1ZM73.637,34.47v2.16h5.184a4.524,4.524,0,0,1-1.2,2.724,5.3,5.3,0,0,1-4,1.584,5.76,5.76,0,1,1,0-11.52,5.52,5.52,0,0,1,3.924,1.548l1.524-1.524A7.548,7.548,0,0,0,73.637,27.2a7.932,7.932,0,1,0,0,15.852,7,7,0,0,0,7.4-7.284,7.041,7.041,0,0,0-.12-1.356Zm54.372,1.68A4.718,4.718,0,0,0,118.841,38a4.992,4.992,0,0,0,5.064,5.1,5.076,5.076,0,0,0,4.248-2.256l-1.74-1.2a2.917,2.917,0,0,1-2.508,1.416,2.592,2.592,0,0,1-2.472-1.548l6.828-2.82Zm-6.96,1.7a2.8,2.8,0,0,1,2.664-2.976,1.98,1.98,0,0,1,1.9,1.08ZM115.505,42.8h2.244v-15h-2.244Zm-3.672-8.76h-.084a3.6,3.6,0,0,0-2.688-1.2,5.112,5.112,0,0,0,0,10.212,3.479,3.479,0,0,0,2.688-1.2h.072v.732c0,1.956-1.044,3-2.724,3a2.82,2.82,0,0,1-2.568-1.812l-1.956.816A4.86,4.86,0,0,0,109.1,47.6c2.628,0,4.8-1.548,4.8-5.316V33.2h-2.064Zm-2.568,7.056a3.108,3.108,0,0,1,0-6.192,2.88,2.88,0,0,1,2.724,3.1,2.856,2.856,0,0,1-2.736,3.1Zm29.256-13.3h-5.364v15H135.4V37.11h3.132a4.668,4.668,0,1,0,0-9.312Zm0,7.2h-3.132V29.886h3.18a2.574,2.574,0,1,1,0,5.148Zm13.836-2.16a4.2,4.2,0,0,0-4,2.292l1.992.828a2.123,2.123,0,0,1,2.04-1.1,2.16,2.16,0,0,1,2.4,1.932v.156a4.957,4.957,0,0,0-2.34-.576c-2.148,0-4.32,1.2-4.32,3.372a3.468,3.468,0,0,0,3.72,3.3,3.157,3.157,0,0,0,2.88-1.44h.072v1.2h2.16V37.026c0-2.628-1.992-4.152-4.548-4.152Zm-.276,8.22c-.732,0-1.752-.372-1.752-1.272,0-1.2,1.272-1.6,2.4-1.6a3.984,3.984,0,0,1,2.04.5,2.712,2.712,0,0,1-2.628,2.4Zm12.756-7.86-2.568,6.5H162.2l-2.664-6.5h-2.4l4,9.1-2.28,5.052h2.34L167.333,33.2Zm-20.172,9.6h2.244v-15h-2.244Z" transform="translate(-16.349 -6.798)"/><path class="a" d="M73.342,15.13a3.253,3.253,0,0,1-.9,2.4A3.492,3.492,0,0,1,69.8,18.6a3.78,3.78,0,0,1-2.652-6.444,3.6,3.6,0,0,1,2.652-1.08,3.72,3.72,0,0,1,1.476.3,2.965,2.965,0,0,1,1.128.8l-.636.636a2.4,2.4,0,0,0-1.968-.852,2.784,2.784,0,0,0-2.8,2.88,2.832,2.832,0,0,0,4.8,2.076,2.268,2.268,0,0,0,.6-1.464H69.8V14.59h3.492A3.054,3.054,0,0,1,73.342,15.13Zm5.5-3H75.6v2.28H78.55v.864H75.6v2.28h3.24v.888h-4.2v-7.2h4.2Zm3.936,6.312H81.85V12.13H79.834v-.888h5v.888H82.774Zm5.592,0v-7.2h.924v7.2Zm5.028,0H92.47V12.13H90.454v-.888H95.4v.888h-2Zm11.376-.936a3.744,3.744,0,0,1-5.28,0,3.887,3.887,0,0,1,0-5.34,3.72,3.72,0,0,1,5.28,0,3.875,3.875,0,0,1,0,5.34Zm-4.6-.6a2.772,2.772,0,0,0,3.912,0,3.073,3.073,0,0,0,0-4.128,2.772,2.772,0,0,0-3.912,0,3.073,3.073,0,0,0,0,4.128Zm6.96,1.536v-7.2h1.128l3.5,5.6v-5.6h.924v7.2h-.96l-3.66-5.868v5.868Z" transform="translate(-16.513 -2.767)"/><path class="b" d="M102.09,11.146a3.6,3.6,0,0,0-2.554,1.063,3.767,3.767,0,0,0,0,5.173,3.624,3.624,0,0,0,5.108,0,3.756,3.756,0,0,0,0-5.172,3.6,3.6,0,0,0-2.554-1.063Zm-1.476.055a3.841,3.841,0,0,1,4.2.84v0a4,4,0,0,1,0,5.505l0,0a3.864,3.864,0,0,1-5.449,0l0,0a4.007,4.007,0,0,1,0-5.5l0,0A3.836,3.836,0,0,1,100.614,11.2Zm-30.855-.048A3.481,3.481,0,0,0,67.2,12.2h0a3.66,3.66,0,0,0,2.568,6.239h0a3.372,3.372,0,0,0,2.549-1.031,3.132,3.132,0,0,0,.867-2.311l.12-.006h-.12a2.934,2.934,0,0,0-.03-.42h-3.27v.624H72.49l0,.124a2.388,2.388,0,0,1-.632,1.541l0,.005a2.952,2.952,0,0,1-5-2.161,2.9,2.9,0,0,1,2.913-3,2.52,2.52,0,0,1,1.976.8l.465-.465a2.843,2.843,0,0,0-1.007-.689h0a3.6,3.6,0,0,0-1.428-.29Zm3.663,3.933a3.373,3.373,0,0,1-.933,2.486,3.613,3.613,0,0,1-2.729,1.1,3.9,3.9,0,0,1-2.735-6.648,3.72,3.72,0,0,1,2.739-1.116,3.839,3.839,0,0,1,1.521.309,3.084,3.084,0,0,1,1.172.836l.073.084-.808.808-.084-.1a2.28,2.28,0,0,0-1.87-.809h-.007A2.664,2.664,0,0,0,67.086,14.8V14.8a2.712,2.712,0,0,0,4.594,1.99,2.148,2.148,0,0,0,.558-1.26h-2.6v-1.1h3.712l.018.1A3.17,3.17,0,0,1,73.422,15.087Zm1.056-4.005h4.44V12.21h-3.24v2.04H78.63v1.1H75.678v2.04h3.24v1.128h-4.44Zm.24.24v6.96h3.96v-.648h-3.24v-2.52H78.39V14.49H75.438V11.97h3.24v-.648Zm4.956-.24h5.244V12.21H82.854v6.312H81.69V12.21H79.674Zm.24.24v.648H81.93v6.312h.684V11.97h2.064v-.648Zm8.292-.24H89.37v7.44H88.206Zm.24.24v6.96h.684v-6.96Zm1.848-.24h5.184V12.21h-2v6.312H92.31V12.21H90.294Zm.24.24v.648H92.55v6.312h.684V11.97h2v-.648Zm16.44-.24h1.315l3.317,5.306V11.082h1.164v7.44h-1.147l-3.473-5.569v5.569h-1.176Zm.24.24v6.96h.7V12.114l3.847,6.167h.773v-6.96h-.684v5.9l-3.691-5.9Zm-7.165,1.331a2.892,2.892,0,0,1,4.082,0l0,0a3.194,3.194,0,0,1,0,4.289l0,0a2.892,2.892,0,0,1-4.082,0l.085-.085-.088.081a3.191,3.191,0,0,1,0-4.289Zm.172,4.13a2.652,2.652,0,0,0,3.738,0,2.952,2.952,0,0,0,0-3.962,2.652,2.652,0,0,0-3.738,0,2.952,2.952,0,0,0,0,3.962Z" transform="translate(-16.473 -2.727)"/><path class="a" d="M16.585,42.162l14.7-15.247L16.6,11.694a1.7,1.7,0,0,0-.635,1.5V40.672A1.73,1.73,0,0,0,16.585,42.162Z" transform="translate(-3.991 -2.924)"/><path class="a" d="M32.282,26.439,36.661,21.9,18.828,11.755a1.92,1.92,0,0,0-.989-.277l14.44,14.96Z" transform="translate(-4.46 -2.869)"/><path class="a" d="M32.267,32.551,17.781,47.577a1.912,1.912,0,0,0,1.034-.284L36.683,37.123Z" transform="translate(-4.445 -8.138)"/><path class="a" d="M48.07,29.149l-5.934-3.381-4.5,4.666,4.532,4.7,5.9-3.372A1.375,1.375,0,0,0,48.07,29.149Z" transform="translate(-9.409 -6.442)"/></symbol><symbol id="icon_like" viewBox="0 0 90 90"><g transform="translate(-781.454 -1112.701)"><circle class="a" cx="45" cy="45" r="45" transform="translate(781.454 1112.701)"/><g transform="translate(802.866 1124.827)"><path class="b" d="M817.362,1172.8v5.87a12.206,12.206,0,0,0,6.444,2.084h10.537c3.7,0,4.349-1.014,4.7-2.053a1.837,1.837,0,0,0-.08-1.548,1.317,1.317,0,0,0-1.037-.552,1.043,1.043,0,0,1-.156-.049,1.017,1.017,0,0,1-.2-.062.953.953,0,0,1-.159-.113,1.028,1.028,0,0,1-.149-.125,1.009,1.009,0,0,1-.1-.165,1.832,1.832,0,0,1-.154-.536c0-.013.008-.025.009-.038s-.005-.026,0-.039a.992.992,0,0,1,.051-.162,1.04,1.04,0,0,1,.058-.187,1.007,1.007,0,0,1,.127-.175.959.959,0,0,1,.109-.131.841.841,0,0,1,.546-.234.922.922,0,0,1,.157-.028,2.412,2.412,0,0,0,2.591-1.741,2.217,2.217,0,0,0-.141-1.893,1.559,1.559,0,0,0-1.337-.517h-.03a.982.982,0,0,1-.182-.042,1.056,1.056,0,0,1-.2-.047.927.927,0,0,1-.163-.109,1.045,1.045,0,0,1-.16-.114,1.147,1.147,0,0,1-.109-.163.92.92,0,0,1-.1-.166.979.979,0,0,1-.04-.2.937.937,0,0,1-.038-.186l0-.014c0-.005,0-.009,0-.014a.95.95,0,0,1,.042-.179,1.045,1.045,0,0,1,.047-.2,9.683,9.683,0,0,1,.225-.321,1.073,1.073,0,0,1,.158-.106,1.045,1.045,0,0,1,.169-.107,1.057,1.057,0,0,1,.207-.041.95.95,0,0,1,.178-.037l.024,0h.006a2.273,2.273,0,0,0,2.57-1.665,2.421,2.421,0,0,0-.2-1.863,1.582,1.582,0,0,0-1.278-.475h-.01a1.006,1.006,0,0,1-.192-.045,1.076,1.076,0,0,1-.2-.047,1.019,1.019,0,0,1-.16-.113,1,1,0,0,1-.16-.115,1.113,1.113,0,0,1-.106-.165.943.943,0,0,1-.1-.166.963.963,0,0,1-.037-.2.943.943,0,0,1-.035-.193v-.01a.951.951,0,0,1,.049-.215,1.037,1.037,0,0,1,.039-.171,1,1,0,0,1,.131-.188.972.972,0,0,1,.091-.129,1,1,0,0,1,.217-.144.778.778,0,0,1,.105-.069,1,1,0,0,1,.392-.079h.032a2.358,2.358,0,0,0,2.569-1.669,2.332,2.332,0,0,0-.29-1.912,1.125,1.125,0,0,0-.944-.421h-10.6a1.025,1.025,0,0,1-.878-1.553,35.5,35.5,0,0,0,3.121-6.257,8.887,8.887,0,0,0-2.5-7.786,3.216,3.216,0,0,0-2.924-.957c-.8.235-.869.5-.9.6a4.692,4.692,0,0,0,.151,1.636,8.091,8.091,0,0,1-.972,6.608c-1.525,2.31-7.4,8.018-8.83,9.392V1172.8Z" transform="translate(-802.05 -1124.169)"/><path class="b" d="M804.394,1166.459v14.922h11.213v-24.3H804.394Zm7.089,8.061a2.787,2.787,0,1,1-2.787,2.787A2.787,2.787,0,0,1,811.483,1174.521Z" transform="translate(-802.344 -1123.819)"/><path class="b" d="M811.341,1177.616a.741.741,0,1,0-.742-.741A.742.742,0,0,0,811.341,1177.616Z" transform="translate(-802.203 -1123.386)"/><path class="c" d="M841.686,1156.3H832.87a26.362,26.362,0,0,0,2.467-5.329l.006-.028a10.908,10.908,0,0,0-3.132-9.707,5.057,5.057,0,0,0-4.883-1.406,2.967,2.967,0,0,0-2.295,2.029,5.759,5.759,0,0,0,.117,2.551,6.177,6.177,0,0,1-.669,5.1,76.9,76.9,0,0,1-7.119,7.66v2.86c1.428-1.374,7.305-7.081,8.83-9.392a8.091,8.091,0,0,0,.972-6.608,4.692,4.692,0,0,1-.151-1.636c.027-.1.1-.361.9-.6a3.216,3.216,0,0,1,2.924.957,8.887,8.887,0,0,1,2.5,7.786,35.5,35.5,0,0,1-3.121,6.257,1.025,1.025,0,0,0,.878,1.553h10.6a1.125,1.125,0,0,1,.944.421,2.332,2.332,0,0,1,.29,1.912,2.358,2.358,0,0,1-2.569,1.669h-.032a1,1,0,0,0-.392.079.778.778,0,0,0-.105.069,1,1,0,0,0-.217.144.972.972,0,0,0-.091.129,1,1,0,0,0-.131.188,1.037,1.037,0,0,0-.039.171.951.951,0,0,0-.049.215v.01a.943.943,0,0,0,.035.193.963.963,0,0,0,.037.2.943.943,0,0,0,.1.166,1.113,1.113,0,0,0,.106.165,1,1,0,0,0,.16.115,1.019,1.019,0,0,0,.16.113,1.076,1.076,0,0,0,.2.047,1.006,1.006,0,0,0,.192.045h.01a1.582,1.582,0,0,1,1.278.475,2.421,2.421,0,0,1,.2,1.863,2.273,2.273,0,0,1-2.57,1.665H839.2l-.024,0a.95.95,0,0,0-.178.037,1.057,1.057,0,0,0-.207.041,1.045,1.045,0,0,0-.169.107,1.073,1.073,0,0,0-.158.106,9.683,9.683,0,0,0-.225.321,1.045,1.045,0,0,0-.047.2.95.95,0,0,0-.042.179c0,.005,0,.009,0,.014l0,.014a.937.937,0,0,0,.038.186.979.979,0,0,0,.04.2.92.92,0,0,0,.1.166,1.147,1.147,0,0,0,.109.163,1.045,1.045,0,0,0,.16.114.927.927,0,0,0,.163.109,1.056,1.056,0,0,0,.2.047.982.982,0,0,0,.182.042h.03a1.559,1.559,0,0,1,1.337.517,2.217,2.217,0,0,1,.141,1.893,2.412,2.412,0,0,1-2.591,1.741.922.922,0,0,0-.157.028,1.188,1.188,0,0,0-.546.234.959.959,0,0,0-.109.131,1.007,1.007,0,0,0-.127.175,1.04,1.04,0,0,0-.058.187.992.992,0,0,0-.051.162c0,.013.005.026,0,.039s-.008.024-.009.038a33.557,33.557,0,0,1,.062.363,1,1,0,0,0,.092.173,1.009,1.009,0,0,0,.1.165,1.028,1.028,0,0,0,.149.125.953.953,0,0,0,.159.113,1.017,1.017,0,0,0,.2.062,1.043,1.043,0,0,0,.156.049,1.317,1.317,0,0,1,1.037.552,1.837,1.837,0,0,1,.08,1.548c-.352,1.039-1,2.053-4.7,2.053H823.806a12.206,12.206,0,0,1-6.444-2.084v2.392a13.71,13.71,0,0,0,6.444,1.742h10.539c2.708,0,5.613-.411,6.64-3.444a3.83,3.83,0,0,0-.295-3.312c-.018-.029-.045-.049-.064-.078a4.4,4.4,0,0,0,1.982-2.531,4.184,4.184,0,0,0-.44-3.725c-.019-.026-.044-.053-.065-.08a4,4,0,0,0,1.669-2.472,4.39,4.39,0,0,0-.568-3.575,4.027,4.027,0,0,0,1.709-2.472,4.315,4.315,0,0,0-.675-3.659A3.173,3.173,0,0,0,841.686,1156.3Z" transform="translate(-802.05 -1124.215)"/><path class="c" d="M836.742,1137.525a1.019,1.019,0,0,0,.724-.3l5.422-5.421a1.025,1.025,0,0,0-1.449-1.449l-5.423,5.421a1.025,1.025,0,0,0,.725,1.75Z" transform="translate(-801.633 -1124.433)"/><path class="c" d="M820.205,1137.224a1.025,1.025,0,0,0,1.449-1.449l-5.423-5.421a1.025,1.025,0,0,0-1.449,1.449Z" transform="translate(-802.115 -1124.433)"/><path d="M810.012,1145.37h7.668a1.025,1.025,0,1,0,0-2.049h-7.668a1.025,1.025,0,1,0,0,2.049Z" transform="translate(-802.24 -1124.131)"/><path d="M847.709,1143.321h-7.667a1.025,1.025,0,1,0,0,2.049h7.667a1.025,1.025,0,1,0,0-2.049Z" transform="translate(-801.558 -1124.131)"/><path d="M828.776,1134.275a1.025,1.025,0,0,0,1.025-1.025v-7.667a1.025,1.025,0,1,0-2.05,0v7.667A1.024,1.024,0,0,0,828.776,1134.275Z" transform="translate(-801.814 -1124.558)"/><path d="M817.7,1177.547V1156.1a1.025,1.025,0,0,0-1.025-1.025H803.415a1.025,1.025,0,0,0-1.025,1.025v26.352a1.025,1.025,0,0,0,1.025,1.025h13.263a1.025,1.025,0,0,0,1.025-1.025v-4.9Zm-2.05-6.36v10.24H804.44v-24.3h11.213Z" transform="translate(-802.39 -1123.864)"/><path d="M811.387,1179.707a2.787,2.787,0,1,0-2.787-2.787A2.787,2.787,0,0,0,811.387,1179.707Zm0-3.528a.741.741,0,1,1-.742.741A.742.742,0,0,1,811.387,1176.178Z" transform="translate(-802.249 -1123.431)"/></g></g></symbol><symbol id="icon_location" viewBox="0 0 90 90"><g transform="translate(-668.493 -1237.366)"><circle class="a" cx="45" cy="45" r="45" transform="translate(668.493 1237.366)"/><g transform="translate(688.268 1253.898)"><path class="b" d="M696.558,1276.886l-.065,0a1.766,1.766,0,0,1-1.375-.749c-.013-.018-1.066-1.517-2.6-3.568-2.271-3.044-4.693-6.6-4.693-10.306a8.729,8.729,0,1,1,17.459,0c0,3.585-2.324,7.2-4.6,10.257l-2.719,3.657A1.768,1.768,0,0,1,696.558,1276.886Zm0-1.054v0Zm0-20.255a6.691,6.691,0,0,0-6.684,6.685c0,3.078,2.213,6.3,4.287,9.084,1.139,1.526,2,2.733,2.4,3.293l2.484-3.34c2.074-2.792,4.194-6.048,4.194-9.037A6.691,6.691,0,0,0,696.558,1255.576Z" transform="translate(-687.829 -1253.531)"/><g transform="translate(4.585 4.366)"><path class="b" d="M696.456,1266.091a4.146,4.146,0,1,1,4.146-4.146A4.15,4.15,0,0,1,696.456,1266.091Zm0-6.246a2.1,2.1,0,1,0,2.1,2.1A2.1,2.1,0,0,0,696.456,1259.845Z" transform="translate(-692.312 -1257.8)"/></g><g transform="translate(32.99 33.58)"><path class="b" d="M728.816,1309.72H728.8a1.772,1.772,0,0,1-1.429-.75c-.151-.213-1.165-1.648-2.6-3.569-2.27-3.044-4.693-6.6-4.693-10.306a8.729,8.729,0,1,1,17.459,0c0,3.586-2.324,7.2-4.6,10.257l-2.721,3.658A1.763,1.763,0,0,1,728.816,1309.72Zm-.231-1.93h0Zm.447-.021h0Zm-.216-19.359a6.691,6.691,0,0,0-6.685,6.685c0,3.077,2.213,6.3,4.287,9.084,1.135,1.521,2.009,2.741,2.4,3.293l2.485-3.34c2.073-2.792,4.193-6.047,4.193-9.037A6.691,6.691,0,0,0,728.816,1288.41Z" transform="translate(-720.086 -1286.365)"/><g transform="translate(4.584 4.366)"><path class="b" d="M728.714,1298.925a4.146,4.146,0,1,1,4.145-4.145A4.151,4.151,0,0,1,728.714,1298.925Zm0-6.246a2.1,2.1,0,1,0,2.1,2.1A2.1,2.1,0,0,0,728.714,1292.679Z" transform="translate(-724.568 -1290.634)"/></g></g><g transform="translate(0 21.309)"><path d="M723.643,1309.993H701.9a14.073,14.073,0,0,1,0-28.146h31.614a2.717,2.717,0,0,0,0-5.435H701.51a1.023,1.023,0,0,1,0-2.045h32.005a4.763,4.763,0,0,1,0,9.526H701.9a12.027,12.027,0,1,0,0,24.055h21.741a1.023,1.023,0,0,1,0,2.045Z" transform="translate(-687.829 -1274.367)"/></g></g></g></symbol><symbol id="icon_modes" viewBox="0 0 91 91"><g transform="translate(0.5 0.5)"><circle class="a" cx="45" cy="45" r="45"/><g transform="translate(8.87 8.525)"><path class="b" d="M186.885,1283.786h3.883l-1.913-5.971Z" transform="translate(-126.821 -1244.972)"/><path d="M169.058,1307.881c-.109-.217-4.413-7.586-4.413-7.586a.959.959,0,0,0-1.669,0s-4.3,7.373-4.413,7.586l-.013.023a6.309,6.309,0,0,0-.589,3.84,5.92,5.92,0,0,0,11.781-1.023,6.282,6.282,0,0,0-.67-2.823Z" transform="translate(-127.48 -1244.472)"/><path d="M159.183,1256.184l-1.3,4.072,4.067-1.306,1.96,3.8,1.953-3.8,4.072,1.3-1.306-4.067,3.8-1.96-3.8-1.953,1.3-4.072-4.067,1.306-1.96-3.8-1.953,3.8-4.072-1.3,1.306,4.067-3.8,1.96Z" transform="translate(-127.537 -1245.702)"/><path class="c" d="M170.219,1276.462l-1.653-1.653-3.448,3.448v-7.167H162.78v7.645l-3.926-3.926-1.653,1.653,3.926,3.925h-7.644v2.338h7.167l-3.448,3.448,1.653,1.653,3.925-3.925v7.644h2.338v-7.166l3.448,3.447,1.653-1.653-3.448-3.448h7.167v-2.338h-7.644Z" transform="translate(-127.58 -1245.125)"/><path d="M136.552,1278.626a1.652,1.652,0,0,1,.187.005,4.044,4.044,0,0,0,2.659-.7q.232-.162.463-.336c1.961-1.461.377-3.556-1.691-4.53-1.976-.933-3.985.275-4.326,3.068a4.754,4.754,0,0,0,.833,3.268A2.642,2.642,0,0,1,136.552,1278.626Z" transform="translate(-128.027 -1245.087)"/><path d="M136.584,1283.7a1.6,1.6,0,0,1-.187-.005,4.05,4.05,0,0,0-2.659.7q-.232.162-.463.336c-1.96,1.462-.374,3.556,1.692,4.531,1.975.932,3.984-.276,4.326-3.068a4.752,4.752,0,0,0-.834-3.268A2.642,2.642,0,0,1,136.584,1283.7Z" transform="translate(-128.06 -1244.855)"/><path d="M141.593,1278.442a4.754,4.754,0,0,0-3.268.833,2.64,2.64,0,0,1,.776,1.875,1.416,1.416,0,0,1-.008.187,4.056,4.056,0,0,0,.7,2.659q.163.232.338.463c1.461,1.959,3.555.374,4.53-1.692C145.592,1280.795,144.389,1278.783,141.593,1278.442Z" transform="translate(-127.924 -1244.958)"/><path d="M134.026,1281.18a1.584,1.584,0,0,1,.005-.184,4.053,4.053,0,0,0-.7-2.659c-.108-.154-.221-.308-.336-.462-1.463-1.961-3.556-.377-4.531,1.688-.932,1.975.276,3.984,3.068,4.326a4.752,4.752,0,0,0,3.268-.833A2.643,2.643,0,0,1,134.026,1281.18Z" transform="translate(-128.156 -1244.99)"/><path d="M134.814,1281.129h0a1.716,1.716,0,1,0,1.717-1.716A1.717,1.717,0,0,0,134.814,1281.129Z" transform="translate(-128.004 -1244.935)"/><path d="M192.271,1273.59h-3.123l-5.2,14.636-2.06.286v.573h5.472v-.573l-1.79-.291.909-2.756h4.913l.924,2.884-1.79.239v.5h8.408v-.5l-1.406-.156ZM187,1283.882l1.97-5.971,1.912,5.971Z" transform="translate(-126.934 -1245.068)"/></g></g></symbol><symbol id="icon_pin" viewBox="0 0 90 90"><g transform="translate(-556.041 -1237.366)"><circle class="a" cx="45" cy="45" r="45" transform="translate(556.041 1237.366)"/><g transform="translate(585.72 1255.604)"><path class="b" d="M606.924,1260.874h1.768a1.024,1.024,0,0,0,1.023-1.023V1257.2H590.787v2.652a1.024,1.024,0,0,0,1.023,1.023h15.114Z" transform="translate(-584.93 -1255.153)"/><path class="b" d="M601.75,1288.89h-3.345l1.673,11.149Z" transform="translate(-584.757 -1254.433)"/><path class="b" d="M605.953,1262.792H594.459l-1.7,17.02h14.9Z" transform="translate(-584.885 -1255.026)"/><path class="b" d="M611.567,1281.433H589.105a2.048,2.048,0,0,0-2.045,2.046v3.536h26.552v-3.536A2.048,2.048,0,0,0,611.567,1281.433Z" transform="translate(-585.015 -1254.603)"/><path d="M600.124,1300.04l-1.673-11.15h-2.068l2.73,18.2a1.023,1.023,0,0,0,2.023,0l2.729-18.2H601.8Z" transform="translate(-584.803 -1254.433)"/><path class="c" d="M611.612,1279.984h-1.725l-1.7-17.019h.637a3.072,3.072,0,0,0,3.068-3.068v-3.675a1.022,1.022,0,0,0-1.023-1.023H589.894a1.022,1.022,0,0,0-1.023,1.023v3.675a3.072,3.072,0,0,0,3.068,3.068h.638l-1.7,17.019h-1.724a4.1,4.1,0,0,0-4.091,4.091v4.558a1.022,1.022,0,0,0,1.023,1.023h28.6a1.022,1.022,0,0,0,1.023-1.023v-4.558A4.094,4.094,0,0,0,611.612,1279.984ZM590.917,1259.9v-2.652h18.928v2.652a1.024,1.024,0,0,1-1.023,1.023H591.94A1.024,1.024,0,0,1,590.917,1259.9Zm3.717,3.068h11.494l1.7,17.019h-14.9Zm19.024,24.646H587.105v-3.536a2.048,2.048,0,0,1,2.045-2.046h22.461a2.048,2.048,0,0,1,2.045,2.046Z" transform="translate(-585.06 -1255.199)"/></g></g></symbol><symbol id="icon_status" viewBox="0 0 91 91"><g transform="translate(-924.954 -1236.866)"><circle class="a" cx="45" cy="45" r="45" transform="translate(925.454 1237.366)"/><g transform="translate(933.589 1256.495)"><path class="b" d="M990.937,1282.749a.511.511,0,0,1,0,1.023H979.67a11.521,11.521,0,0,1-2.007,2.669,11,11,0,0,1-8.045,3.315h-17.77v7.789a2.59,2.59,0,0,0,2.588,2.587h1v-5.665h42.681v5.665h.9a2.59,2.59,0,0,0,2.588-2.587v-15.993a2.59,2.59,0,0,0-2.588-2.588H980.953a11.248,11.248,0,0,1-.8,3.785Zm2.854,0h3.394a.511.511,0,0,1,0,1.023h-3.394a.511.511,0,0,1,0-1.023Z" transform="translate(-932.989 -1255.55)"/><path class="b" d="M995.947,1298.515h-3.064a.511.511,0,0,1,0-1.023h3.064v-1.371H957.356v1.371h32.408a.511.511,0,0,1,0,1.023H957.356v1.226h38.591Z" transform="translate(-932.864 -1255.16)"/><path d="M999.064,1276.964H980.927a12.1,12.1,0,0,1,.1,1.477c0,.192-.017.38-.026.569h18.065a2.59,2.59,0,0,1,2.588,2.588v15.993a2.59,2.59,0,0,1-2.588,2.587h-.9v-5.665H955.481v5.665h-1a2.59,2.59,0,0,1-2.588-2.587V1289.8h-2.045v7.789a4.632,4.632,0,0,0,4.633,4.632h44.582a4.632,4.632,0,0,0,4.633-4.632V1281.6A4.633,4.633,0,0,0,999.064,1276.964Zm-41.537,21.987h32.408a.511.511,0,0,0,0-1.023H957.527v-1.371h38.591v1.371h-3.064a.511.511,0,0,0,0,1.023h3.064v1.226H957.527Z" transform="translate(-933.034 -1255.595)"/><path d="M992.87,1283.688h3.394a.511.511,0,0,0,0-1.023H992.87a.511.511,0,0,0,0,1.023Z" transform="translate(-932.068 -1255.465)"/><path d="M990.83,1283.176a.51.51,0,0,0-.511-.511H979.535a10.734,10.734,0,0,1-.483,1.023h11.266A.511.511,0,0,0,990.83,1283.176Z" transform="translate(-932.371 -1255.465)"/><path class="b" d="M969.992,1288.185a9.317,9.317,0,0,0,7.572-14.742,9.23,9.23,0,0,0-4.47-3.374,1.019,1.019,0,0,1-.679-.962v-.575a10.5,10.5,0,0,0-10.464-10.463,10.227,10.227,0,0,0-5.293,1.435,10.609,10.609,0,0,0-3.8,3.8,1.022,1.022,0,0,1-1.451.335,5.886,5.886,0,0,0-7.4.734,5.609,5.609,0,0,0-1.711,4.157,6.53,6.53,0,0,0,.373,2.172,1.023,1.023,0,0,1-.791,1.349,7.255,7.255,0,0,0-3.277,1.449,8.389,8.389,0,0,0-2.336,2.882,8.058,8.058,0,0,0-.861,3.634,8.169,8.169,0,0,0,8.166,8.167Zm-12.33-21.048a8.52,8.52,0,1,1-8.519,8.519A8.529,8.529,0,0,1,957.663,1267.137Z" transform="translate(-933.363 -1256.025)"/><path class="b" d="M957.312,1281.885a6.474,6.474,0,1,0-6.474-6.475A6.482,6.482,0,0,0,957.312,1281.885Zm1.023-2.206h-2.045v-1.631h2.045Zm0-8.538v6.092h-2.045v-6.092Z" transform="translate(-933.012 -1255.778)"/><path class="c" d="M952.268,1290.276h17.77a11,11,0,0,0,8.045-3.315,11.521,11.521,0,0,0,2.007-2.669,10.734,10.734,0,0,0,.483-1.023,11.248,11.248,0,0,0,.8-3.785c.008-.189.026-.376.026-.569a12.1,12.1,0,0,0-.1-1.477,10.9,10.9,0,0,0-2.038-5.156,11.37,11.37,0,0,0-4.757-3.828A12.543,12.543,0,0,0,962,1256.07a12.227,12.227,0,0,0-6.337,1.722,12.7,12.7,0,0,0-3.977,3.67,7.749,7.749,0,0,0-3.469-.8,7.888,7.888,0,0,0-7.915,7.914,8.533,8.533,0,0,0,.183,1.761,9.235,9.235,0,0,0-3.092,1.6,10.4,10.4,0,0,0-2.906,3.578,10.1,10.1,0,0,0-1.077,4.548,10.215,10.215,0,0,0,10.212,10.212h8.648Zm-14.422-4.439a7.808,7.808,0,0,1-2.392-5.773,8.058,8.058,0,0,1,.861-3.634,8.389,8.389,0,0,1,2.336-2.882,7.255,7.255,0,0,1,3.277-1.449,1.023,1.023,0,0,0,.791-1.349,6.53,6.53,0,0,1-.373-2.172,5.842,5.842,0,0,1,5.869-5.868,5.666,5.666,0,0,1,3.238.977,1.022,1.022,0,0,0,1.451-.335,10.609,10.609,0,0,1,3.8-3.8,10.227,10.227,0,0,1,5.293-1.435,10.5,10.5,0,0,1,10.464,10.463v.575a1.019,1.019,0,0,0,.679.962,9.23,9.23,0,0,1,4.47,3.374,9.3,9.3,0,0,1-7.572,14.742H943.62A7.8,7.8,0,0,1,937.846,1285.838Z" transform="translate(-933.408 -1256.07)"/><rect width="2.045" height="6.092" transform="translate(23.277 15.364)"/><rect width="2.045" height="1.631" transform="translate(23.277 22.27)"/><path d="M957.357,1283.976a8.52,8.52,0,1,0-8.519-8.52A8.53,8.53,0,0,0,957.357,1283.976Zm0-14.994a6.474,6.474,0,1,1-6.474,6.474A6.482,6.482,0,0,1,957.357,1268.982Z" transform="translate(-933.057 -1255.823)"/></g></g></symbol><symbol id="icon_temperature" viewBox="0 0 91 91"><g transform="translate(0.5 0.5)"><circle class="a" cx="45" cy="45" r="45"/><g transform="translate(32.185 15.197)"><path class="b" d="M44.622,1296.444l-.478-.3v-38.5a3.414,3.414,0,1,0-6.828,0l0,38.5-.477.3a7.121,7.121,0,0,0-3.368,6.035,7.261,7.261,0,0,0,14.522,0A7.12,7.12,0,0,0,44.622,1296.444Zm-3.891,11.162a5.129,5.129,0,0,1-5.128-5.127,5.056,5.056,0,0,1,3.845-4.872v-21.518h2.565v21.518a5.056,5.056,0,0,1,3.846,4.872A5.129,5.129,0,0,1,40.73,1307.606Z" transform="translate(-31.425 -1252.18)"/><path class="c" d="M46.234,1295.08v-37.394a5.459,5.459,0,1,0-10.918,0l0,37.4a9.137,9.137,0,0,0-3.844,7.443,9.306,9.306,0,0,0,18.613,0A9.137,9.137,0,0,0,46.234,1295.08Zm-5.458,14.7a7.268,7.268,0,0,1-7.26-7.259,7.121,7.121,0,0,1,3.368-6.035l.477-.3,0-38.5a3.414,3.414,0,1,1,6.828,0v38.5l.478.3a7.12,7.12,0,0,1,3.37,6.035A7.268,7.268,0,0,1,40.776,1309.784Z" transform="translate(-31.47 -1252.225)"/><path class="d" d="M41.965,1297.121V1275.6H39.4v21.518a5.056,5.056,0,0,0-3.845,4.872,5.128,5.128,0,0,0,10.257,0A5.056,5.056,0,0,0,41.965,1297.121Z" transform="translate(-31.377 -1251.694)"/><rect class="c" width="7.283" height="2.045" transform="translate(17.324 8.356)"/><rect class="c" width="7.283" height="2.045" transform="translate(17.324 18.066)"/><rect class="c" width="7.283" height="2.045" transform="translate(17.324 27.776)"/><rect class="c" width="7.283" height="2.045" transform="translate(17.324 37.484)"/></g></g></symbol></svg>