<svg xmlns="http://www.w3.org/2000/svg" xmlns:xlink="http://www.w3.org/1999/xlink" width="570" height="400" viewBox="0 0 570 400"><defs><style>.a{fill:#fff;}.b{fill:url(#a);}.c{fill:none;}.d{fill:#191717;}.e{filter:url(#b);}</style><linearGradient id="a" x1="0.5" x2="0.5" y2="1" gradientUnits="objectBoundingBox"><stop offset="0" stop-color="#7fb0f8"/><stop offset="1" stop-color="#d5d3ff"/></linearGradient><filter id="b" x="164" y="15" width="242" height="242" filterUnits="userSpaceOnUse"><feOffset dy="3" input="SourceAlpha"/><feGaussianBlur stdDeviation="10" result="c"/><feFlood flood-opacity="0.161"/><feComposite operator="in" in2="c"/><feComposite in="SourceGraphic"/></filter></defs><g transform="translate(-1095 -1988)"><rect class="a" width="570" height="400" transform="translate(1095 1988)"/><g transform="translate(1289 2030)"><g class="e" transform="matrix(1, 0, 0, 1, -194, -42)"><rect class="b" width="182" height="182" rx="10" transform="translate(194 42)"/></g><g transform="translate(-461 -2484)"><g transform="translate(486.121 2511.98)"><path class="c" d="M445.423,322.672l10.17-21.61,0-65.516-10.174,17.1Z" transform="translate(-326.944 -204.496)"/><path class="c" d="M444.305,230.416,424.7,247.081l110.077.016L546,230.416Z" transform="translate(-418.75 -227.217)"/><path class="a" d="M555.2,230.571v-.005l-.006-.005h0a1.629,1.629,0,0,0-.185-.239h-.005v-.005a1.628,1.628,0,0,0-.608-.391l-.005-.005h-.005c-.054-.016-.109-.032-.168-.049-.125-.027-.206-.005-.385-.044H448.567a1.582,1.582,0,0,0-1.032.38l-23.369,19.861a1.622,1.622,0,0,0-.565,1.238V355.153a1.6,1.6,0,0,0,1.6,1.6H540.479a1.607,1.607,0,0,0,1.45-.918l13.368-28.4a1.556,1.556,0,0,0,.157-.679l.006-95.322A1.561,1.561,0,0,0,555.2,230.571ZM539.627,249.7l-110.08-.011,19.612-16.669h101.7Zm12.624,76.688L542.081,348V277.977l10.175-17.1Z" transform="translate(-423.602 -229.827)"/></g><g transform="translate(464.001 2480)"><path class="d" d="M454.5,238.071a28.677,28.677,0,0,1,10.767,2.025,28.144,28.144,0,0,1,8.747,5.723,26.517,26.517,0,0,1,5.864,8.53,25.421,25.421,0,0,1,2.1,10.49,25.927,25.927,0,0,1-2.1,10.484,28.47,28.47,0,0,1-5.864,8.53,25.524,25.524,0,0,1-8.747,5.62,26.835,26.835,0,0,1-10.767,2.1H433.985v-53.5Zm6.787,42.123a14.813,14.813,0,0,0,5.223-3.556,15.97,15.97,0,0,0,3.307-5.332,16.977,16.977,0,0,0,1.211-6.467,16.733,16.733,0,0,0-1.211-6.543,15.5,15.5,0,0,0-8.53-8.85,17.99,17.99,0,0,0-6.787-1.281h-9.567v33.484H454.5a18.028,18.028,0,0,0,6.787-1.455" transform="translate(-355.489 -161.329)"/><path class="d" d="M442.428,237.9a16.351,16.351,0,1,0,16.354,16.354A16.358,16.358,0,0,0,442.428,237.9m0,23.07a6.719,6.719,0,1,1,6.716-6.716,6.715,6.715,0,0,1-6.716,6.716" transform="translate(-390.554 -162.082)"/></g></g></g></g></svg>