<svg xmlns="http://www.w3.org/2000/svg" width="91" height="91" viewBox="0 0 91 91"><defs><style>.a{fill:none;stroke:#f5f5f5;}.b{fill:#fff;}.c{fill:#00adef;}</style></defs><g transform="translate(-924.954 -1236.866)"><circle class="a" cx="45" cy="45" r="45" transform="translate(925.454 1237.366)"/><g transform="translate(933.589 1256.495)"><path class="b" d="M990.937,1282.749a.511.511,0,0,1,0,1.023H979.67a11.521,11.521,0,0,1-2.007,2.669,11,11,0,0,1-8.045,3.315h-17.77v7.789a2.59,2.59,0,0,0,2.588,2.587h1v-5.665h42.681v5.665h.9a2.59,2.59,0,0,0,2.588-2.587v-15.993a2.59,2.59,0,0,0-2.588-2.588H980.953a11.248,11.248,0,0,1-.8,3.785Zm2.854,0h3.394a.511.511,0,0,1,0,1.023h-3.394a.511.511,0,0,1,0-1.023Z" transform="translate(-932.989 -1255.55)"/><path class="b" d="M995.947,1298.515h-3.064a.511.511,0,0,1,0-1.023h3.064v-1.371H957.356v1.371h32.408a.511.511,0,0,1,0,1.023H957.356v1.226h38.591Z" transform="translate(-932.864 -1255.16)"/><path d="M999.064,1276.964H980.927a12.1,12.1,0,0,1,.1,1.477c0,.192-.017.38-.026.569h18.065a2.59,2.59,0,0,1,2.588,2.588v15.993a2.59,2.59,0,0,1-2.588,2.587h-.9v-5.665H955.481v5.665h-1a2.59,2.59,0,0,1-2.588-2.587V1289.8h-2.045v7.789a4.632,4.632,0,0,0,4.633,4.632h44.582a4.632,4.632,0,0,0,4.633-4.632V1281.6A4.633,4.633,0,0,0,999.064,1276.964Zm-41.537,21.987h32.408a.511.511,0,0,0,0-1.023H957.527v-1.371h38.591v1.371h-3.064a.511.511,0,0,0,0,1.023h3.064v1.226H957.527Z" transform="translate(-933.034 -1255.595)"/><path d="M992.87,1283.688h3.394a.511.511,0,0,0,0-1.023H992.87a.511.511,0,0,0,0,1.023Z" transform="translate(-932.068 -1255.465)"/><path d="M990.83,1283.176a.51.51,0,0,0-.511-.511H979.535a10.734,10.734,0,0,1-.483,1.023h11.266A.511.511,0,0,0,990.83,1283.176Z" transform="translate(-932.371 -1255.465)"/><path class="b" d="M969.992,1288.185a9.317,9.317,0,0,0,7.572-14.742,9.23,9.23,0,0,0-4.47-3.374,1.019,1.019,0,0,1-.679-.962v-.575a10.5,10.5,0,0,0-10.464-10.463,10.227,10.227,0,0,0-5.293,1.435,10.609,10.609,0,0,0-3.8,3.8,1.022,1.022,0,0,1-1.451.335,5.886,5.886,0,0,0-7.4.734,5.609,5.609,0,0,0-1.711,4.157,6.53,6.53,0,0,0,.373,2.172,1.023,1.023,0,0,1-.791,1.349,7.255,7.255,0,0,0-3.277,1.449,8.389,8.389,0,0,0-2.336,2.882,8.058,8.058,0,0,0-.861,3.634,8.169,8.169,0,0,0,8.166,8.167Zm-12.33-21.048a8.52,8.52,0,1,1-8.519,8.519A8.529,8.529,0,0,1,957.663,1267.137Z" transform="translate(-933.363 -1256.025)"/><path class="b" d="M957.312,1281.885a6.474,6.474,0,1,0-6.474-6.475A6.482,6.482,0,0,0,957.312,1281.885Zm1.023-2.206h-2.045v-1.631h2.045Zm0-8.538v6.092h-2.045v-6.092Z" transform="translate(-933.012 -1255.778)"/><path class="c" d="M952.268,1290.276h17.77a11,11,0,0,0,8.045-3.315,11.521,11.521,0,0,0,2.007-2.669,10.734,10.734,0,0,0,.483-1.023,11.248,11.248,0,0,0,.8-3.785c.008-.189.026-.376.026-.569a12.1,12.1,0,0,0-.1-1.477,10.9,10.9,0,0,0-2.038-5.156,11.37,11.37,0,0,0-4.757-3.828A12.543,12.543,0,0,0,962,1256.07a12.227,12.227,0,0,0-6.337,1.722,12.7,12.7,0,0,0-3.977,3.67,7.749,7.749,0,0,0-3.469-.8,7.888,7.888,0,0,0-7.915,7.914,8.533,8.533,0,0,0,.183,1.761,9.235,9.235,0,0,0-3.092,1.6,10.4,10.4,0,0,0-2.906,3.578,10.1,10.1,0,0,0-1.077,4.548,10.215,10.215,0,0,0,10.212,10.212h8.648Zm-14.422-4.439a7.808,7.808,0,0,1-2.392-5.773,8.058,8.058,0,0,1,.861-3.634,8.389,8.389,0,0,1,2.336-2.882,7.255,7.255,0,0,1,3.277-1.449,1.023,1.023,0,0,0,.791-1.349,6.53,6.53,0,0,1-.373-2.172,5.842,5.842,0,0,1,5.869-5.868,5.666,5.666,0,0,1,3.238.977,1.022,1.022,0,0,0,1.451-.335,10.609,10.609,0,0,1,3.8-3.8,10.227,10.227,0,0,1,5.293-1.435,10.5,10.5,0,0,1,10.464,10.463v.575a1.019,1.019,0,0,0,.679.962,9.23,9.23,0,0,1,4.47,3.374,9.3,9.3,0,0,1-7.572,14.742H943.62A7.8,7.8,0,0,1,937.846,1285.838Z" transform="translate(-933.408 -1256.07)"/><rect width="2.045" height="6.092" transform="translate(23.277 15.364)"/><rect width="2.045" height="1.631" transform="translate(23.277 22.27)"/><path d="M957.357,1283.976a8.52,8.52,0,1,0-8.519-8.52A8.53,8.53,0,0,0,957.357,1283.976Zm0-14.994a6.474,6.474,0,1,1-6.474,6.474A6.482,6.482,0,0,1,957.357,1268.982Z" transform="translate(-933.057 -1255.823)"/></g></g></svg>