<svg xmlns="http://www.w3.org/2000/svg" width="91" height="91" viewBox="0 0 91 91"><defs><style>.a{fill:none;stroke:#f5f5f5;}.b{fill:#231f20;}.c{fill:#00adef;}</style></defs><g transform="translate(0.5 0.5)"><circle class="a" cx="45" cy="45" r="45"/><g transform="translate(16.46 21.695)"><path class="b" d="M248.6,1275.855h27.9a8.638,8.638,0,1,0-8.638-8.638,1.062,1.062,0,0,0,2.123,0,6.515,6.515,0,1,1,6.515,6.515H248.6a1.062,1.062,0,1,0,0,2.123Z" transform="translate(-247.543 -1258.579)"/><g transform="translate(5.095 7.939)"><path class="c" d="M302.085,1268.766a8.275,8.275,0,0,0-14.126,5.851,1.062,1.062,0,0,0,2.123,0,6.152,6.152,0,1,1,6.152,6.152H253.588a1.062,1.062,0,1,0,0,2.123h42.647a8.275,8.275,0,0,0,5.851-14.126Z" transform="translate(-252.525 -1266.342)"/></g><g transform="translate(0 29.333)"><path class="b" d="M276.508,1287.26H248.6a1.062,1.062,0,0,0,0,2.123h27.9a6.515,6.515,0,1,1-6.515,6.515,1.062,1.062,0,1,0-2.123,0,8.638,8.638,0,1,0,8.638-8.638Z" transform="translate(-247.543 -1287.26)"/></g></g></g></svg>