<svg xmlns="http://www.w3.org/2000/svg" width="90" height="90" viewBox="0 0 90 90"><defs><style>.a{fill:#fff;}.b{fill:none;}.c{fill:#00adef;}</style></defs><g transform="translate(-781.454 -1112.701)"><circle class="a" cx="45" cy="45" r="45" transform="translate(781.454 1112.701)"/><g transform="translate(802.866 1124.827)"><path class="b" d="M817.362,1172.8v5.87a12.206,12.206,0,0,0,6.444,2.084h10.537c3.7,0,4.349-1.014,4.7-2.053a1.837,1.837,0,0,0-.08-1.548,1.317,1.317,0,0,0-1.037-.552,1.043,1.043,0,0,1-.156-.049,1.017,1.017,0,0,1-.2-.062.953.953,0,0,1-.159-.113,1.028,1.028,0,0,1-.149-.125,1.009,1.009,0,0,1-.1-.165,1.832,1.832,0,0,1-.154-.536c0-.013.008-.025.009-.038s-.005-.026,0-.039a.992.992,0,0,1,.051-.162,1.04,1.04,0,0,1,.058-.187,1.007,1.007,0,0,1,.127-.175.959.959,0,0,1,.109-.131.841.841,0,0,1,.546-.234.922.922,0,0,1,.157-.028,2.412,2.412,0,0,0,2.591-1.741,2.217,2.217,0,0,0-.141-1.893,1.559,1.559,0,0,0-1.337-.517h-.03a.982.982,0,0,1-.182-.042,1.056,1.056,0,0,1-.2-.047.927.927,0,0,1-.163-.109,1.045,1.045,0,0,1-.16-.114,1.147,1.147,0,0,1-.109-.163.92.92,0,0,1-.1-.166.979.979,0,0,1-.04-.2.937.937,0,0,1-.038-.186l0-.014c0-.005,0-.009,0-.014a.95.95,0,0,1,.042-.179,1.045,1.045,0,0,1,.047-.2,9.683,9.683,0,0,1,.225-.321,1.073,1.073,0,0,1,.158-.106,1.045,1.045,0,0,1,.169-.107,1.057,1.057,0,0,1,.207-.041.95.95,0,0,1,.178-.037l.024,0h.006a2.273,2.273,0,0,0,2.57-1.665,2.421,2.421,0,0,0-.2-1.863,1.582,1.582,0,0,0-1.278-.475h-.01a1.006,1.006,0,0,1-.192-.045,1.076,1.076,0,0,1-.2-.047,1.019,1.019,0,0,1-.16-.113,1,1,0,0,1-.16-.115,1.113,1.113,0,0,1-.106-.165.943.943,0,0,1-.1-.166.963.963,0,0,1-.037-.2.943.943,0,0,1-.035-.193v-.01a.951.951,0,0,1,.049-.215,1.037,1.037,0,0,1,.039-.171,1,1,0,0,1,.131-.188.972.972,0,0,1,.091-.129,1,1,0,0,1,.217-.144.778.778,0,0,1,.105-.069,1,1,0,0,1,.392-.079h.032a2.358,2.358,0,0,0,2.569-1.669,2.332,2.332,0,0,0-.29-1.912,1.125,1.125,0,0,0-.944-.421h-10.6a1.025,1.025,0,0,1-.878-1.553,35.5,35.5,0,0,0,3.121-6.257,8.887,8.887,0,0,0-2.5-7.786,3.216,3.216,0,0,0-2.924-.957c-.8.235-.869.5-.9.6a4.692,4.692,0,0,0,.151,1.636,8.091,8.091,0,0,1-.972,6.608c-1.525,2.31-7.4,8.018-8.83,9.392V1172.8Z" transform="translate(-802.05 -1124.169)"/><path class="b" d="M804.394,1166.459v14.922h11.213v-24.3H804.394Zm7.089,8.061a2.787,2.787,0,1,1-2.787,2.787A2.787,2.787,0,0,1,811.483,1174.521Z" transform="translate(-802.344 -1123.819)"/><path class="b" d="M811.341,1177.616a.741.741,0,1,0-.742-.741A.742.742,0,0,0,811.341,1177.616Z" transform="translate(-802.203 -1123.386)"/><path class="c" d="M841.686,1156.3H832.87a26.362,26.362,0,0,0,2.467-5.329l.006-.028a10.908,10.908,0,0,0-3.132-9.707,5.057,5.057,0,0,0-4.883-1.406,2.967,2.967,0,0,0-2.295,2.029,5.759,5.759,0,0,0,.117,2.551,6.177,6.177,0,0,1-.669,5.1,76.9,76.9,0,0,1-7.119,7.66v2.86c1.428-1.374,7.305-7.081,8.83-9.392a8.091,8.091,0,0,0,.972-6.608,4.692,4.692,0,0,1-.151-1.636c.027-.1.1-.361.9-.6a3.216,3.216,0,0,1,2.924.957,8.887,8.887,0,0,1,2.5,7.786,35.5,35.5,0,0,1-3.121,6.257,1.025,1.025,0,0,0,.878,1.553h10.6a1.125,1.125,0,0,1,.944.421,2.332,2.332,0,0,1,.29,1.912,2.358,2.358,0,0,1-2.569,1.669h-.032a1,1,0,0,0-.392.079.778.778,0,0,0-.105.069,1,1,0,0,0-.217.144.972.972,0,0,0-.091.129,1,1,0,0,0-.131.188,1.037,1.037,0,0,0-.039.171.951.951,0,0,0-.049.215v.01a.943.943,0,0,0,.035.193.963.963,0,0,0,.037.2.943.943,0,0,0,.1.166,1.113,1.113,0,0,0,.106.165,1,1,0,0,0,.16.115,1.019,1.019,0,0,0,.16.113,1.076,1.076,0,0,0,.2.047,1.006,1.006,0,0,0,.192.045h.01a1.582,1.582,0,0,1,1.278.475,2.421,2.421,0,0,1,.2,1.863,2.273,2.273,0,0,1-2.57,1.665H839.2l-.024,0a.95.95,0,0,0-.178.037,1.057,1.057,0,0,0-.207.041,1.045,1.045,0,0,0-.169.107,1.073,1.073,0,0,0-.158.106,9.683,9.683,0,0,0-.225.321,1.045,1.045,0,0,0-.047.2.95.95,0,0,0-.042.179c0,.005,0,.009,0,.014l0,.014a.937.937,0,0,0,.038.186.979.979,0,0,0,.04.2.92.92,0,0,0,.1.166,1.147,1.147,0,0,0,.109.163,1.045,1.045,0,0,0,.16.114.927.927,0,0,0,.163.109,1.056,1.056,0,0,0,.2.047.982.982,0,0,0,.182.042h.03a1.559,1.559,0,0,1,1.337.517,2.217,2.217,0,0,1,.141,1.893,2.412,2.412,0,0,1-2.591,1.741.922.922,0,0,0-.157.028,1.188,1.188,0,0,0-.546.234.959.959,0,0,0-.109.131,1.007,1.007,0,0,0-.127.175,1.04,1.04,0,0,0-.058.187.992.992,0,0,0-.051.162c0,.013.005.026,0,.039s-.008.024-.009.038a33.557,33.557,0,0,1,.062.363,1,1,0,0,0,.092.173,1.009,1.009,0,0,0,.1.165,1.028,1.028,0,0,0,.149.125.953.953,0,0,0,.159.113,1.017,1.017,0,0,0,.2.062,1.043,1.043,0,0,0,.156.049,1.317,1.317,0,0,1,1.037.552,1.837,1.837,0,0,1,.08,1.548c-.352,1.039-1,2.053-4.7,2.053H823.806a12.206,12.206,0,0,1-6.444-2.084v2.392a13.71,13.71,0,0,0,6.444,1.742h10.539c2.708,0,5.613-.411,6.64-3.444a3.83,3.83,0,0,0-.295-3.312c-.018-.029-.045-.049-.064-.078a4.4,4.4,0,0,0,1.982-2.531,4.184,4.184,0,0,0-.44-3.725c-.019-.026-.044-.053-.065-.08a4,4,0,0,0,1.669-2.472,4.39,4.39,0,0,0-.568-3.575,4.027,4.027,0,0,0,1.709-2.472,4.315,4.315,0,0,0-.675-3.659A3.173,3.173,0,0,0,841.686,1156.3Z" transform="translate(-802.05 -1124.215)"/><path class="c" d="M836.742,1137.525a1.019,1.019,0,0,0,.724-.3l5.422-5.421a1.025,1.025,0,0,0-1.449-1.449l-5.423,5.421a1.025,1.025,0,0,0,.725,1.75Z" transform="translate(-801.633 -1124.433)"/><path class="c" d="M820.205,1137.224a1.025,1.025,0,0,0,1.449-1.449l-5.423-5.421a1.025,1.025,0,0,0-1.449,1.449Z" transform="translate(-802.115 -1124.433)"/><path d="M810.012,1145.37h7.668a1.025,1.025,0,1,0,0-2.049h-7.668a1.025,1.025,0,1,0,0,2.049Z" transform="translate(-802.24 -1124.131)"/><path d="M847.709,1143.321h-7.667a1.025,1.025,0,1,0,0,2.049h7.667a1.025,1.025,0,1,0,0-2.049Z" transform="translate(-801.558 -1124.131)"/><path d="M828.776,1134.275a1.025,1.025,0,0,0,1.025-1.025v-7.667a1.025,1.025,0,1,0-2.05,0v7.667A1.024,1.024,0,0,0,828.776,1134.275Z" transform="translate(-801.814 -1124.558)"/><path d="M817.7,1177.547V1156.1a1.025,1.025,0,0,0-1.025-1.025H803.415a1.025,1.025,0,0,0-1.025,1.025v26.352a1.025,1.025,0,0,0,1.025,1.025h13.263a1.025,1.025,0,0,0,1.025-1.025v-4.9Zm-2.05-6.36v10.24H804.44v-24.3h11.213Z" transform="translate(-802.39 -1123.864)"/><path d="M811.387,1179.707a2.787,2.787,0,1,0-2.787-2.787A2.787,2.787,0,0,0,811.387,1179.707Zm0-3.528a.741.741,0,1,1-.742.741A.742.742,0,0,1,811.387,1176.178Z" transform="translate(-802.249 -1123.431)"/></g></g></svg>