<svg xmlns="http://www.w3.org/2000/svg" width="91" height="91" viewBox="0 0 91 91"><defs><style>.a,.b{fill:none;}.a{stroke:#f5f5f5;}.c{fill:#00adef;}</style></defs><g transform="translate(0.5 0.5)"><circle class="a" cx="45" cy="45" r="45"/><g transform="translate(8.87 8.525)"><path class="b" d="M186.885,1283.786h3.883l-1.913-5.971Z" transform="translate(-126.821 -1244.972)"/><path d="M169.058,1307.881c-.109-.217-4.413-7.586-4.413-7.586a.959.959,0,0,0-1.669,0s-4.3,7.373-4.413,7.586l-.013.023a6.309,6.309,0,0,0-.589,3.84,5.92,5.92,0,0,0,11.781-1.023,6.282,6.282,0,0,0-.67-2.823Z" transform="translate(-127.48 -1244.472)"/><path d="M159.183,1256.184l-1.3,4.072,4.067-1.306,1.96,3.8,1.953-3.8,4.072,1.3-1.306-4.067,3.8-1.96-3.8-1.953,1.3-4.072-4.067,1.306-1.96-3.8-1.953,3.8-4.072-1.3,1.306,4.067-3.8,1.96Z" transform="translate(-127.537 -1245.702)"/><path class="c" d="M170.219,1276.462l-1.653-1.653-3.448,3.448v-7.167H162.78v7.645l-3.926-3.926-1.653,1.653,3.926,3.925h-7.644v2.338h7.167l-3.448,3.448,1.653,1.653,3.925-3.925v7.644h2.338v-7.166l3.448,3.447,1.653-1.653-3.448-3.448h7.167v-2.338h-7.644Z" transform="translate(-127.58 -1245.125)"/><path d="M136.552,1278.626a1.652,1.652,0,0,1,.187.005,4.044,4.044,0,0,0,2.659-.7q.232-.162.463-.336c1.961-1.461.377-3.556-1.691-4.53-1.976-.933-3.985.275-4.326,3.068a4.754,4.754,0,0,0,.833,3.268A2.642,2.642,0,0,1,136.552,1278.626Z" transform="translate(-128.027 -1245.087)"/><path d="M136.584,1283.7a1.6,1.6,0,0,1-.187-.005,4.05,4.05,0,0,0-2.659.7q-.232.162-.463.336c-1.96,1.462-.374,3.556,1.692,4.531,1.975.932,3.984-.276,4.326-3.068a4.752,4.752,0,0,0-.834-3.268A2.642,2.642,0,0,1,136.584,1283.7Z" transform="translate(-128.06 -1244.855)"/><path d="M141.593,1278.442a4.754,4.754,0,0,0-3.268.833,2.64,2.64,0,0,1,.776,1.875,1.416,1.416,0,0,1-.008.187,4.056,4.056,0,0,0,.7,2.659q.163.232.338.463c1.461,1.959,3.555.374,4.53-1.692C145.592,1280.795,144.389,1278.783,141.593,1278.442Z" transform="translate(-127.924 -1244.958)"/><path d="M134.026,1281.18a1.584,1.584,0,0,1,.005-.184,4.053,4.053,0,0,0-.7-2.659c-.108-.154-.221-.308-.336-.462-1.463-1.961-3.556-.377-4.531,1.688-.932,1.975.276,3.984,3.068,4.326a4.752,4.752,0,0,0,3.268-.833A2.643,2.643,0,0,1,134.026,1281.18Z" transform="translate(-128.156 -1244.99)"/><path d="M134.814,1281.129h0a1.716,1.716,0,1,0,1.717-1.716A1.717,1.717,0,0,0,134.814,1281.129Z" transform="translate(-128.004 -1244.935)"/><path d="M192.271,1273.59h-3.123l-5.2,14.636-2.06.286v.573h5.472v-.573l-1.79-.291.909-2.756h4.913l.924,2.884-1.79.239v.5h8.408v-.5l-1.406-.156ZM187,1283.882l1.97-5.971,1.912,5.971Z" transform="translate(-126.934 -1245.068)"/></g></g></svg>