<svg xmlns="http://www.w3.org/2000/svg" width="202.5" height="60" viewBox="0 0 202.5 60"><defs><style>.a,.b{fill:#888;}.b{fill-rule:evenodd;}</style></defs><path class="a" d="M195,1.2a6.3,6.3,0,0,1,6.3,6.3v45a6.3,6.3,0,0,1-6.3,6.3H7.5a6.3,6.3,0,0,1-6.3-6.3V7.5A6.3,6.3,0,0,1,7.5,1.2ZM195,0H7.5A7.5,7.5,0,0,0,0,7.5v45A7.5,7.5,0,0,0,7.5,60H195a7.5,7.5,0,0,0,7.5-7.5V7.5A7.5,7.5,0,0,0,195,0Z"/><path class="a" d="M106.3,34.325a6.375,6.375,0,1,0,6.4,6.375,6.285,6.285,0,0,0-6.4-6.375Zm0,10.245a3.87,3.87,0,1,1,3.6-3.87,3.69,3.69,0,0,1-3.6,3.87ZM92.332,34.325a6.375,6.375,0,1,0,6.39,6.375,6.285,6.285,0,0,0-6.4-6.375Zm0,10.245a3.87,3.87,0,1,1,3.585-3.87,3.69,3.69,0,0,1-3.6,3.87ZM75.7,36.29v2.7h6.48a5.655,5.655,0,0,1-1.5,3.4,6.63,6.63,0,0,1-5,1.98,7.2,7.2,0,1,1,0-14.4,6.9,6.9,0,0,1,4.9,1.935L82.492,30A9.435,9.435,0,0,0,75.7,27.2a9.915,9.915,0,1,0,0,19.815,8.756,8.756,0,0,0,9.255-9.1,8.8,8.8,0,0,0-.15-1.7Zm67.965,2.1A5.9,5.9,0,0,0,132.2,40.7a6.241,6.241,0,0,0,6.33,6.375,6.345,6.345,0,0,0,5.31-2.82l-2.175-1.5a3.646,3.646,0,0,1-3.135,1.77,3.24,3.24,0,0,1-3.09-1.935l8.535-3.525Zm-8.7,2.13a3.495,3.495,0,0,1,3.33-3.72,2.475,2.475,0,0,1,2.37,1.35Zm-6.93,6.18h2.805V27.95h-2.805Zm-4.59-10.95h-.1a4.5,4.5,0,0,0-3.36-1.5,6.39,6.39,0,0,0,0,12.765,4.348,4.348,0,0,0,3.36-1.5h.09v.915c0,2.445-1.3,3.75-3.4,3.75a3.525,3.525,0,0,1-3.21-2.265l-2.445,1.02a6.075,6.075,0,0,0,5.655,3.765c3.285,0,6-1.935,6-6.645V34.7h-2.58Zm-3.21,8.82a3.885,3.885,0,0,1,0-7.74,3.6,3.6,0,0,1,3.4,3.87,3.57,3.57,0,0,1-3.42,3.87ZM156.8,27.95h-6.7V46.7h2.8V39.59h3.915a5.835,5.835,0,1,0,0-11.64Zm0,9h-3.915V30.56h3.975a3.217,3.217,0,1,1,0,6.435Zm17.295-2.7a5.251,5.251,0,0,0-4.995,2.865l2.49,1.035a2.654,2.654,0,0,1,2.55-1.38,2.7,2.7,0,0,1,3,2.415v.195a6.2,6.2,0,0,0-2.925-.72c-2.685,0-5.4,1.5-5.4,4.215A4.335,4.335,0,0,0,173.467,47a3.946,3.946,0,0,0,3.6-1.8h.09v1.5h2.7V39.485c0-3.285-2.49-5.19-5.685-5.19Zm-.345,10.275c-.915,0-2.19-.465-2.19-1.59,0-1.5,1.59-2,3-2a4.98,4.98,0,0,1,2.55.63,3.391,3.391,0,0,1-3.285,3ZM189.7,34.7l-3.21,8.13h-.09l-3.33-8.13h-3l4.995,11.37-2.85,6.315h2.925l7.68-17.685Zm-25.215,12h2.805V27.95h-2.805Z" transform="translate(-4.087 -1.699)"/><path class="a" d="M75.165,16.145a4.066,4.066,0,0,1-1.125,3,4.366,4.366,0,0,1-3.3,1.335,4.725,4.725,0,0,1-3.315-8.055,4.5,4.5,0,0,1,3.315-1.35,4.65,4.65,0,0,1,1.845.375,3.706,3.706,0,0,1,1.41,1.005l-.795.8a3,3,0,0,0-2.46-1.065,3.48,3.48,0,0,0-3.495,3.6,3.54,3.54,0,0,0,6,2.595,2.835,2.835,0,0,0,.75-1.83H70.74V15.47H75.1A3.817,3.817,0,0,1,75.165,16.145Zm6.87-3.75h-4.05v2.85h3.69v1.08h-3.69v2.85h4.05v1.11h-5.25v-9h5.25Zm4.92,7.89H85.8V12.4H83.28v-1.11h6.255V12.4h-2.58Zm6.99,0v-9H95.1v9Zm6.285,0H99.074V12.4h-2.52v-1.11h6.18V12.4h-2.5Zm14.22-1.17a4.68,4.68,0,0,1-6.6,0,4.859,4.859,0,0,1,0-6.675,4.649,4.649,0,0,1,6.6,0,4.844,4.844,0,0,1,0,6.675Zm-5.745-.75a3.465,3.465,0,0,0,4.89,0,3.841,3.841,0,0,0,0-5.16,3.465,3.465,0,0,0-4.89,0,3.841,3.841,0,0,0,0,5.16Zm8.7,1.92v-9h1.41l4.38,7.005V11.285h1.155v9h-1.2l-4.575-7.335v7.335Z" transform="translate(-4.128 -0.692)"/><path class="b" d="M111.139,11.206a4.5,4.5,0,0,0-3.192,1.328,4.709,4.709,0,0,0,0,6.466,4.53,4.53,0,0,0,6.385,0,4.694,4.694,0,0,0,0-6.466,4.5,4.5,0,0,0-3.192-1.329Zm-1.845.069a4.8,4.8,0,0,1,5.252,1.05l0,0a4.994,4.994,0,0,1,0,6.882l0,0a4.83,4.83,0,0,1-6.812,0l0,0a5.009,5.009,0,0,1,0-6.881l0,0A4.8,4.8,0,0,1,109.294,11.275Zm-38.568-.06a4.351,4.351,0,0,0-3.2,1.305h0a4.575,4.575,0,0,0,3.21,7.8h0a4.215,4.215,0,0,0,3.186-1.289A3.915,3.915,0,0,0,75,16.142l.15-.007H75a3.669,3.669,0,0,0-.038-.525H70.88v.78h3.26l-.005.155a2.985,2.985,0,0,1-.79,1.927l-.006.006a3.69,3.69,0,0,1-6.254-2.7,3.63,3.63,0,0,1,3.641-3.752,3.15,3.15,0,0,1,2.47,1l.581-.582a3.554,3.554,0,0,0-1.259-.861h0a4.5,4.5,0,0,0-1.785-.363ZM75.3,16.132a4.216,4.216,0,0,1-1.167,3.107,4.516,4.516,0,0,1-3.412,1.381,4.875,4.875,0,0,1-3.418-8.31,4.65,4.65,0,0,1,3.423-1.395,4.8,4.8,0,0,1,1.9.386A3.855,3.855,0,0,1,74.1,12.347l.092.106-1.01,1.01-.105-.125a2.85,2.85,0,0,0-2.337-1.012h-.009a3.329,3.329,0,0,0-3.344,3.445v.007a3.39,3.39,0,0,0,5.743,2.488,2.685,2.685,0,0,0,.7-1.575H70.58V15.31h4.64l.022.123A3.963,3.963,0,0,1,75.3,16.132Zm1.32-5.007h5.55v1.41h-4.05v2.55h3.69v1.38h-3.69v2.55h4.05v1.41h-5.55Zm.3.3v8.7h4.95v-.81h-4.05v-3.15h3.69v-.78h-3.69v-3.15h4.05v-.81Zm6.195-.3h6.555v1.41h-2.58v7.89H85.64v-7.89H83.12Zm.3.3v.81h2.52v7.89h.855v-7.89h2.58v-.81Zm10.365-.3H95.24v9.3H93.785Zm.3.3v8.7h.855v-8.7Zm2.31-.3h6.48v1.41h-2.505v7.89H98.914v-7.89h-2.52Zm.3.3v.81h2.52v7.89h.855v-7.89h2.5v-.81Zm20.55-.3h1.643l4.147,6.632V11.125h1.455v9.3h-1.433l-4.342-6.961v6.961h-1.47Zm.3.3v8.7h.87V12.416l4.808,7.709h.967v-8.7h-.855V18.8l-4.613-7.378Zm-8.956,1.664a3.615,3.615,0,0,1,5.1,0l.006.005a3.992,3.992,0,0,1,0,5.362l-.006.006a3.615,3.615,0,0,1-5.1,0l.106-.106-.111.1a3.989,3.989,0,0,1,0-5.362Zm.215,5.163a3.314,3.314,0,0,0,4.673,0,3.69,3.69,0,0,0,0-4.953,3.314,3.314,0,0,0-4.673,0,3.69,3.69,0,0,0,0,4.953Z" transform="translate(-4.118 -0.682)"/><path class="a" d="M16.741,49.779,35.117,30.719,16.756,11.694a2.121,2.121,0,0,0-.794,1.88V47.917A2.162,2.162,0,0,0,16.741,49.779Z" transform="translate(-0.998 -0.731)"/><path class="a" d="M35.892,30.179,41.366,24.5,19.076,11.824a2.4,2.4,0,0,0-1.236-.346l18.05,18.7Z" transform="translate(-1.115 -0.717)"/><path class="a" d="M35.888,32.551,17.781,51.333a2.39,2.39,0,0,0,1.293-.355L41.408,38.266Z" transform="translate(-1.111 -2.034)"/><path class="a" d="M50.678,29.995l-7.418-4.227L37.638,31.6,43.3,37.47l7.374-4.215C52.244,32.36,52.244,30.886,50.678,29.995Z" transform="translate(-2.352 -1.61)"/></svg>