<svg xmlns="http://www.w3.org/2000/svg" width="90" height="90" viewBox="0 0 90 90"><defs><style>.a{fill:#fff;}.b{fill:none;}.c{fill:#00adef;}</style></defs><g transform="translate(-556.041 -1237.366)"><circle class="a" cx="45" cy="45" r="45" transform="translate(556.041 1237.366)"/><g transform="translate(585.72 1255.604)"><path class="b" d="M606.924,1260.874h1.768a1.024,1.024,0,0,0,1.023-1.023V1257.2H590.787v2.652a1.024,1.024,0,0,0,1.023,1.023h15.114Z" transform="translate(-584.93 -1255.153)"/><path class="b" d="M601.75,1288.89h-3.345l1.673,11.149Z" transform="translate(-584.757 -1254.433)"/><path class="b" d="M605.953,1262.792H594.459l-1.7,17.02h14.9Z" transform="translate(-584.885 -1255.026)"/><path class="b" d="M611.567,1281.433H589.105a2.048,2.048,0,0,0-2.045,2.046v3.536h26.552v-3.536A2.048,2.048,0,0,0,611.567,1281.433Z" transform="translate(-585.015 -1254.603)"/><path d="M600.124,1300.04l-1.673-11.15h-2.068l2.73,18.2a1.023,1.023,0,0,0,2.023,0l2.729-18.2H601.8Z" transform="translate(-584.803 -1254.433)"/><path class="c" d="M611.612,1279.984h-1.725l-1.7-17.019h.637a3.072,3.072,0,0,0,3.068-3.068v-3.675a1.022,1.022,0,0,0-1.023-1.023H589.894a1.022,1.022,0,0,0-1.023,1.023v3.675a3.072,3.072,0,0,0,3.068,3.068h.638l-1.7,17.019h-1.724a4.1,4.1,0,0,0-4.091,4.091v4.558a1.022,1.022,0,0,0,1.023,1.023h28.6a1.022,1.022,0,0,0,1.023-1.023v-4.558A4.094,4.094,0,0,0,611.612,1279.984ZM590.917,1259.9v-2.652h18.928v2.652a1.024,1.024,0,0,1-1.023,1.023H591.94A1.024,1.024,0,0,1,590.917,1259.9Zm3.717,3.068h11.494l1.7,17.019h-14.9Zm19.024,24.646H587.105v-3.536a2.048,2.048,0,0,1,2.045-2.046h22.461a2.048,2.048,0,0,1,2.045,2.046Z" transform="translate(-585.06 -1255.199)"/></g></g></svg>