<svg xmlns="http://www.w3.org/2000/svg" width="90" height="90" viewBox="0 0 90 90"><defs><style>.a{fill:#fff;}.b{fill:#00adef;}</style></defs><g transform="translate(-410.29 -105.329)"><circle class="a" cx="45" cy="45" r="45" transform="translate(410.29 105.329)"/><g transform="translate(428.164 119.544)"><path d="M454.893,124.588a26.592,26.592,0,0,1,12.965,3.22l-6.244.942a1.023,1.023,0,0,0,.152,2.034,1.119,1.119,0,0,0,.153-.011l8.969-1.353a1.02,1.02,0,0,0,.206-.084.939.939,0,0,0,.145-.059.96.96,0,0,0,.272-.246c0-.005.011-.007.015-.013l0-.008a.944.944,0,0,0,.116-.133,1.027,1.027,0,0,0,0-.933l-4.172-8.157a1.023,1.023,0,0,0-1.821.933l2.523,4.934a28.9,28.9,0,0,0-13.284-3.109,27.129,27.129,0,0,0-22.108,42.847,1.023,1.023,0,0,0,1.666-1.186,25.084,25.084,0,0,1,20.442-39.615Z" transform="translate(-427.767 -119.228)"/><path class="b" d="M476.378,133.106a1.022,1.022,0,1,0-1.635,1.227,25.084,25.084,0,0,1-20.08,40.11,25.933,25.933,0,0,1-12.968-3.382l6.691-1.1a1.023,1.023,0,0,0-.331-2.019l-9.275,1.525h0l-.018,0c-.017,0-.03.016-.046.02a.812.812,0,0,0-.466.251.92.92,0,0,0-.141.127.844.844,0,0,0-.046.1c-.014.023-.039.036-.05.059s-.009.06-.02.089a1,1,0,0,0-.065.286.83.83,0,0,0,.078.481c.011.025.007.053.02.077l4.746,8.988a1.023,1.023,0,1,0,1.808-.956l-2.979-5.64a28.224,28.224,0,0,0,13.066,3.14,27.128,27.128,0,0,0,21.716-43.383Z" transform="translate(-427.536 -118.922)"/><path d="M441.49,151.735v5.851a1.023,1.023,0,1,0,2.045,0v-5.851a1.023,1.023,0,0,0-2.045,0Z" transform="translate(-427.455 -118.513)"/><path d="M445.416,148.875v8.776a1.023,1.023,0,1,0,2.045,0v-8.776a1.023,1.023,0,1,0-2.045,0Z" transform="translate(-427.366 -118.578)"/><path d="M449.342,146.014v11.7a1.023,1.023,0,1,0,2.045,0v-11.7a1.023,1.023,0,1,0-2.045,0Z" transform="translate(-427.277 -118.643)"/><path d="M453.268,150.3v7.314a1.023,1.023,0,0,0,2.045,0V150.3a1.023,1.023,0,0,0-2.045,0Z" transform="translate(-427.187 -118.545)"/><path d="M457.194,147.921v9.752a1.023,1.023,0,0,0,2.045,0v-9.752a1.023,1.023,0,0,0-2.045,0Z" transform="translate(-427.098 -118.599)"/><path d="M461.12,145.061v12.677a1.023,1.023,0,1,0,2.045,0V145.061a1.023,1.023,0,0,0-2.045,0Z" transform="translate(-427.009 -118.664)"/><path d="M465.046,142.2v15.6a1.023,1.023,0,1,0,2.045,0V142.2a1.023,1.023,0,1,0-2.045,0Z" transform="translate(-426.92 -118.729)"/><path class="b" d="M467.974,135.507a1.021,1.021,0,0,0-1.429-.224l-11.788,8.6-3.4-4.171a1.021,1.021,0,0,0-1.395-.179l-8.935,6.523a1.023,1.023,0,0,0,1.206,1.653l8.152-5.952,3.4,4.171a1.025,1.025,0,0,0,1.395.179l12.57-9.174A1.022,1.022,0,0,0,467.974,135.507Z" transform="translate(-427.475 -118.868)"/></g></g></svg>