<svg xmlns="http://www.w3.org/2000/svg" width="162" height="48" viewBox="0 0 162 48"><defs><style>.a,.b{fill:#fff;}.b{fill-rule:evenodd;}</style></defs><path class="a" d="M156,.96A5.04,5.04,0,0,1,161.04,6V42A5.04,5.04,0,0,1,156,47.04H6A5.04,5.04,0,0,1,.96,42V6A5.04,5.04,0,0,1,6,.96ZM156,0H6A6,6,0,0,0,0,6V42a6,6,0,0,0,6,6H156a6,6,0,0,0,6-6V6a6,6,0,0,0-6-6Z"/><path class="a" d="M98.117,32.9a5.1,5.1,0,1,0,5.124,5.1,5.028,5.028,0,0,0-5.124-5.1Zm0,8.2A3.1,3.1,0,1,1,101,38a2.952,2.952,0,0,1-2.88,3.1ZM86.945,32.9A5.1,5.1,0,1,0,92.057,38a5.028,5.028,0,0,0-5.124-5.1Zm0,8.2A3.1,3.1,0,1,1,89.813,38a2.952,2.952,0,0,1-2.88,3.1ZM73.637,34.47v2.16h5.184a4.524,4.524,0,0,1-1.2,2.724,5.3,5.3,0,0,1-4,1.584,5.76,5.76,0,1,1,0-11.52,5.52,5.52,0,0,1,3.924,1.548l1.524-1.524A7.548,7.548,0,0,0,73.637,27.2a7.932,7.932,0,1,0,0,15.852,7,7,0,0,0,7.4-7.284,7.041,7.041,0,0,0-.12-1.356Zm54.372,1.68A4.718,4.718,0,0,0,118.841,38a4.992,4.992,0,0,0,5.064,5.1,5.076,5.076,0,0,0,4.248-2.256l-1.74-1.2a2.917,2.917,0,0,1-2.508,1.416,2.592,2.592,0,0,1-2.472-1.548l6.828-2.82Zm-6.96,1.7a2.8,2.8,0,0,1,2.664-2.976,1.98,1.98,0,0,1,1.9,1.08ZM115.505,42.8h2.244v-15h-2.244Zm-3.672-8.76h-.084a3.6,3.6,0,0,0-2.688-1.2,5.112,5.112,0,0,0,0,10.212,3.479,3.479,0,0,0,2.688-1.2h.072v.732c0,1.956-1.044,3-2.724,3a2.82,2.82,0,0,1-2.568-1.812l-1.956.816A4.86,4.86,0,0,0,109.1,47.6c2.628,0,4.8-1.548,4.8-5.316V33.2h-2.064Zm-2.568,7.056a3.108,3.108,0,0,1,0-6.192,2.88,2.88,0,0,1,2.724,3.1,2.856,2.856,0,0,1-2.736,3.1Zm29.256-13.3h-5.364v15H135.4V37.11h3.132a4.668,4.668,0,1,0,0-9.312Zm0,7.2h-3.132V29.886h3.18a2.574,2.574,0,1,1,0,5.148Zm13.836-2.16a4.2,4.2,0,0,0-4,2.292l1.992.828a2.123,2.123,0,0,1,2.04-1.1,2.16,2.16,0,0,1,2.4,1.932v.156a4.957,4.957,0,0,0-2.34-.576c-2.148,0-4.32,1.2-4.32,3.372a3.468,3.468,0,0,0,3.72,3.3,3.157,3.157,0,0,0,2.88-1.44h.072v1.2h2.16V37.026c0-2.628-1.992-4.152-4.548-4.152Zm-.276,8.22c-.732,0-1.752-.372-1.752-1.272,0-1.2,1.272-1.6,2.4-1.6a3.984,3.984,0,0,1,2.04.5,2.712,2.712,0,0,1-2.628,2.4Zm12.756-7.86-2.568,6.5H162.2l-2.664-6.5h-2.4l4,9.1-2.28,5.052h2.34L167.333,33.2Zm-20.172,9.6h2.244v-15h-2.244Z" transform="translate(-16.349 -6.798)"/><path class="a" d="M73.342,15.13a3.253,3.253,0,0,1-.9,2.4A3.492,3.492,0,0,1,69.8,18.6a3.78,3.78,0,0,1-2.652-6.444,3.6,3.6,0,0,1,2.652-1.08,3.72,3.72,0,0,1,1.476.3,2.965,2.965,0,0,1,1.128.8l-.636.636a2.4,2.4,0,0,0-1.968-.852,2.784,2.784,0,0,0-2.8,2.88,2.832,2.832,0,0,0,4.8,2.076,2.268,2.268,0,0,0,.6-1.464H69.8V14.59h3.492A3.054,3.054,0,0,1,73.342,15.13Zm5.5-3H75.6v2.28H78.55v.864H75.6v2.28h3.24v.888h-4.2v-7.2h4.2Zm3.936,6.312H81.85V12.13H79.834v-.888h5v.888H82.774Zm5.592,0v-7.2h.924v7.2Zm5.028,0H92.47V12.13H90.454v-.888H95.4v.888h-2Zm11.376-.936a3.744,3.744,0,0,1-5.28,0,3.887,3.887,0,0,1,0-5.34,3.72,3.72,0,0,1,5.28,0,3.875,3.875,0,0,1,0,5.34Zm-4.6-.6a2.772,2.772,0,0,0,3.912,0,3.073,3.073,0,0,0,0-4.128,2.772,2.772,0,0,0-3.912,0,3.073,3.073,0,0,0,0,4.128Zm6.96,1.536v-7.2h1.128l3.5,5.6v-5.6h.924v7.2h-.96l-3.66-5.868v5.868Z" transform="translate(-16.513 -2.767)"/><path class="b" d="M102.09,11.146a3.6,3.6,0,0,0-2.554,1.063,3.767,3.767,0,0,0,0,5.173,3.624,3.624,0,0,0,5.108,0,3.756,3.756,0,0,0,0-5.172,3.6,3.6,0,0,0-2.554-1.063Zm-1.476.055a3.841,3.841,0,0,1,4.2.84v0a4,4,0,0,1,0,5.505l0,0a3.864,3.864,0,0,1-5.449,0l0,0a4.007,4.007,0,0,1,0-5.5l0,0A3.836,3.836,0,0,1,100.614,11.2Zm-30.855-.048A3.481,3.481,0,0,0,67.2,12.2h0a3.66,3.66,0,0,0,2.568,6.239h0a3.372,3.372,0,0,0,2.549-1.031,3.132,3.132,0,0,0,.867-2.311l.12-.006h-.12a2.934,2.934,0,0,0-.03-.42h-3.27v.624H72.49l0,.124a2.388,2.388,0,0,1-.632,1.541l0,.005a2.952,2.952,0,0,1-5-2.161,2.9,2.9,0,0,1,2.913-3,2.52,2.52,0,0,1,1.976.8l.465-.465a2.843,2.843,0,0,0-1.007-.689h0a3.6,3.6,0,0,0-1.428-.29Zm3.663,3.933a3.373,3.373,0,0,1-.933,2.486,3.613,3.613,0,0,1-2.729,1.1,3.9,3.9,0,0,1-2.735-6.648,3.72,3.72,0,0,1,2.739-1.116,3.839,3.839,0,0,1,1.521.309,3.084,3.084,0,0,1,1.172.836l.073.084-.808.808-.084-.1a2.28,2.28,0,0,0-1.87-.809h-.007A2.664,2.664,0,0,0,67.086,14.8V14.8a2.712,2.712,0,0,0,4.594,1.99,2.148,2.148,0,0,0,.558-1.26h-2.6v-1.1h3.712l.018.1A3.17,3.17,0,0,1,73.422,15.087Zm1.056-4.005h4.44V12.21h-3.24v2.04H78.63v1.1H75.678v2.04h3.24v1.128h-4.44Zm.24.24v6.96h3.96v-.648h-3.24v-2.52H78.39V14.49H75.438V11.97h3.24v-.648Zm4.956-.24h5.244V12.21H82.854v6.312H81.69V12.21H79.674Zm.24.24v.648H81.93v6.312h.684V11.97h2.064v-.648Zm8.292-.24H89.37v7.44H88.206Zm.24.24v6.96h.684v-6.96Zm1.848-.24h5.184V12.21h-2v6.312H92.31V12.21H90.294Zm.24.24v.648H92.55v6.312h.684V11.97h2v-.648Zm16.44-.24h1.315l3.317,5.306V11.082h1.164v7.44h-1.147l-3.473-5.569v5.569h-1.176Zm.24.24v6.96h.7V12.114l3.847,6.167h.773v-6.96h-.684v5.9l-3.691-5.9Zm-7.165,1.331a2.892,2.892,0,0,1,4.082,0l0,0a3.194,3.194,0,0,1,0,4.289l0,0a2.892,2.892,0,0,1-4.082,0l.085-.085-.088.081a3.191,3.191,0,0,1,0-4.289Zm.172,4.13a2.652,2.652,0,0,0,3.738,0,2.952,2.952,0,0,0,0-3.962,2.652,2.652,0,0,0-3.738,0,2.952,2.952,0,0,0,0,3.962Z" transform="translate(-16.473 -2.727)"/><path class="a" d="M16.585,42.162l14.7-15.247L16.6,11.694a1.7,1.7,0,0,0-.635,1.5V40.672A1.73,1.73,0,0,0,16.585,42.162Z" transform="translate(-3.991 -2.924)"/><path class="a" d="M32.282,26.439,36.661,21.9,18.828,11.755a1.92,1.92,0,0,0-.989-.277l14.44,14.96Z" transform="translate(-4.46 -2.869)"/><path class="a" d="M32.267,32.551,17.781,47.577a1.912,1.912,0,0,0,1.034-.284L36.683,37.123Z" transform="translate(-4.445 -8.138)"/><path class="a" d="M48.07,29.149l-5.934-3.381-4.5,4.666,4.532,4.7,5.9-3.372A1.375,1.375,0,0,0,48.07,29.149Z" transform="translate(-9.409 -6.442)"/></svg>