<svg xmlns="http://www.w3.org/2000/svg" width="91" height="91" viewBox="0 0 91 91"><defs><style>.a{fill:none;stroke:#f5f5f5;}.b{fill:#fff;}.c{fill:#2d221e;}.d{fill:#00adef;}</style></defs><g transform="translate(0.5 0.5)"><circle class="a" cx="45" cy="45" r="45"/><g transform="translate(32.185 15.197)"><path class="b" d="M44.622,1296.444l-.478-.3v-38.5a3.414,3.414,0,1,0-6.828,0l0,38.5-.477.3a7.121,7.121,0,0,0-3.368,6.035,7.261,7.261,0,0,0,14.522,0A7.12,7.12,0,0,0,44.622,1296.444Zm-3.891,11.162a5.129,5.129,0,0,1-5.128-5.127,5.056,5.056,0,0,1,3.845-4.872v-21.518h2.565v21.518a5.056,5.056,0,0,1,3.846,4.872A5.129,5.129,0,0,1,40.73,1307.606Z" transform="translate(-31.425 -1252.18)"/><path class="c" d="M46.234,1295.08v-37.394a5.459,5.459,0,1,0-10.918,0l0,37.4a9.137,9.137,0,0,0-3.844,7.443,9.306,9.306,0,0,0,18.613,0A9.137,9.137,0,0,0,46.234,1295.08Zm-5.458,14.7a7.268,7.268,0,0,1-7.26-7.259,7.121,7.121,0,0,1,3.368-6.035l.477-.3,0-38.5a3.414,3.414,0,1,1,6.828,0v38.5l.478.3a7.12,7.12,0,0,1,3.37,6.035A7.268,7.268,0,0,1,40.776,1309.784Z" transform="translate(-31.47 -1252.225)"/><path class="d" d="M41.965,1297.121V1275.6H39.4v21.518a5.056,5.056,0,0,0-3.845,4.872,5.128,5.128,0,0,0,10.257,0A5.056,5.056,0,0,0,41.965,1297.121Z" transform="translate(-31.377 -1251.694)"/><rect class="c" width="7.283" height="2.045" transform="translate(17.324 8.356)"/><rect class="c" width="7.283" height="2.045" transform="translate(17.324 18.066)"/><rect class="c" width="7.283" height="2.045" transform="translate(17.324 27.776)"/><rect class="c" width="7.283" height="2.045" transform="translate(17.324 37.484)"/></g></g></svg>