<svg xmlns="http://www.w3.org/2000/svg" xmlns:xlink="http://www.w3.org/1999/xlink" width="160" height="160" viewBox="0 0 160 160"><defs><style>.a{fill:url(#a);}.b{fill:#fff;}.c{fill:#231f20;}.d{filter:url(#b);}</style><linearGradient id="a" x1="0.5" x2="0.5" y2="1" gradientUnits="objectBoundingBox"><stop offset="0" stop-color="#7fb0f8"/><stop offset="1" stop-color="#d5d3ff"/></linearGradient><filter id="b" x="0" y="0" width="160" height="160" filterUnits="userSpaceOnUse"><feOffset dy="3" input="SourceAlpha"/><feGaussianBlur stdDeviation="10" result="c"/><feFlood flood-opacity="0.161"/><feComposite operator="in" in2="c"/><feComposite in="SourceGraphic"/></filter></defs><g transform="translate(30 27)"><g class="d" transform="matrix(1, 0, 0, 1, -30, -27)"><rect class="a" width="100" height="100" rx="5" transform="translate(30 27)"/></g><g transform="translate(13.002 14.675)"><path class="b" d="M333.338,260.492a2.189,2.189,0,0,0,3.065.336l2.021-1.624v33.917a3.97,3.97,0,0,0,3.956,3.96h56.256a3.97,3.97,0,0,0,3.96-3.96V259.273l1.959,1.576a2.209,2.209,0,0,0,1.363.476,2.152,2.152,0,0,0,1.7-.832,2.194,2.194,0,0,0-.336-3.069l-34.43-27.683-.791-.394a3.89,3.89,0,0,0-3.131.01l-.829.384-34.43,27.686a2.189,2.189,0,0,0-.336,3.066" transform="translate(-332.861 -229.023)"/><path class="c" d="M358.639,260.66a8.235,8.235,0,0,0,2.911-1.98,8.973,8.973,0,0,0,1.839-2.966,9.482,9.482,0,0,0,.671-3.6,9.288,9.288,0,0,0-.671-3.641,8.837,8.837,0,0,0-1.839-2.929,8.679,8.679,0,0,0-2.911-2,10.03,10.03,0,0,0-3.778-.712h-5.323v18.64h5.323a10.118,10.118,0,0,0,3.778-.812m-3.778-23.449a16.011,16.011,0,0,1,5.994,1.127,15.642,15.642,0,0,1,4.871,3.189,14.7,14.7,0,0,1,3.264,4.747,14.109,14.109,0,0,1,1.168,5.837,14.434,14.434,0,0,1-1.168,5.837,15.936,15.936,0,0,1-3.264,4.751,14.221,14.221,0,0,1-4.871,3.127,14.909,14.909,0,0,1-5.994,1.168H343.445V237.211Z" transform="translate(-307.192 -209.163)"/><path class="c" d="M345.563,249.9a3.739,3.739,0,1,1,3.74-3.74,3.736,3.736,0,0,1-3.74,3.74m0-12.841a9.1,9.1,0,1,0,9.1,9.1,9.106,9.106,0,0,0-9.1-9.1" transform="translate(-324.135 -209.527)"/></g></g></svg>