<svg xmlns="http://www.w3.org/2000/svg" width="88.11" height="70.414" viewBox="0 0 88.11 70.414"><defs><style>.a{fill:#00adef;}.b{fill:#fff;}</style></defs><g transform="translate(-670.947 -844.554)"><path class="a" d="M754.527,890.107H720.053a11.031,11.031,0,0,1,.072,1.226c0,.262-.021.518-.039.774h34.441a2.533,2.533,0,0,1,2.53,2.53v15.8a2.533,2.533,0,0,1-2.53,2.529h-.917v-5.589H711.6v5.589h-1.013a2.533,2.533,0,0,1-2.53-2.529V902.28a11.006,11.006,0,0,1-2-.389v8.548a4.53,4.53,0,0,0,4.53,4.529h43.94a4.53,4.53,0,0,0,4.53-4.529v-15.8A4.53,4.53,0,0,0,754.527,890.107ZM713.6,911.746h31.913a.5.5,0,0,0,0-1H713.6v-1.367h38.01v1.367h-3.029a.5.5,0,0,0,0,1h3.029v1.222H713.6Z"/><path class="a" d="M749.353,896.848h3.339a.5.5,0,0,0,0-1h-3.339a.5.5,0,0,0,0,1Z"/><path class="a" d="M731.633,896.848h14.91a.5.5,0,0,0,0-1h-14.91a.5.5,0,0,0,0,1Z"/><path d="M681.293,878.091h43.522a4.53,4.53,0,0,0,4.53-4.53V857.448a4.53,4.53,0,0,0-4.53-4.53h-33.9c.012.212.032.421.032.636a11.16,11.16,0,0,1-.093,1.364h33.961a2.533,2.533,0,0,1,2.53,2.53v16.113a2.533,2.533,0,0,1-2.53,2.53h-.985v-5.684H681.293v5.684H680.21a2.533,2.533,0,0,1-2.53-2.53v-9.243a10.907,10.907,0,0,1-2-.623v9.866a4.53,4.53,0,0,0,4.53,4.53Zm2-3.27H715.63a.5.5,0,0,0,0-1H683.293v-1.414H721.83v1.414h-3.093a.5.5,0,0,0,0,1h3.093v1.27H683.293Z"/><path d="M719.519,859.738H722.9a.5.5,0,0,0,0-1h-3.381a.5.5,0,0,0,0,1Z"/><path d="M701.576,859.738h15.1a.5.5,0,0,0,0-1h-15.1a.5.5,0,0,0,0,1Z"/><path d="M734.251,866.5h13.33v16.229l-3.851-3.851a1,1,0,0,0-1.414,1.414l5.558,5.558a1,1,0,0,0,1.414,0l5.558-5.558a1,1,0,0,0-1.414-1.414l-3.851,3.851V865.5a1,1,0,0,0-1-1h-14.33a1,1,0,0,0,0,2Z"/><path d="M701,901.684h-13.33V885.456l3.85,3.85a1,1,0,0,0,1.414-1.414l-5.557-5.558a1,1,0,0,0-1.414,0l-5.558,5.558a1,1,0,0,0,1.414,1.414l3.851-3.85v17.228a1,1,0,0,0,1,1H701a1,1,0,0,0,0-2Z"/><path class="b" d="M672.947,853.554a7,7,0,1,0,7-7A7.008,7.008,0,0,0,672.947,853.554Zm3.293-3.707a1,1,0,0,1,1.414,0l2.293,2.293,2.293-2.293a1,1,0,0,1,1.414,1.414l-2.293,2.293,2.293,2.293a1,1,0,1,1-1.414,1.414l-2.293-2.293-2.293,2.293a1,1,0,0,1-1.414-1.414l2.293-2.293-2.293-2.293A1,1,0,0,1,676.24,849.847Z"/><path d="M679.947,862.554a9,9,0,1,0-9-9A9.01,9.01,0,0,0,679.947,862.554Zm7-9a7,7,0,1,1-7-7A7.008,7.008,0,0,1,686.947,853.554Z"/><path class="b" d="M709.125,898.333a7,7,0,1,0-7-7A7.008,7.008,0,0,0,709.125,898.333Zm-4.008-7.954a1,1,0,0,1,1.414,0l1.659,1.659,3.53-3.531a1,1,0,0,1,1.414,1.414L708.9,894.16a1,1,0,0,1-1.414,0l-2.365-2.367A1,1,0,0,1,705.117,890.379Z"/><path class="a" d="M709.125,900.333a9,9,0,1,0-9-9A9.01,9.01,0,0,0,709.125,900.333Zm0-16a7,7,0,1,1-7,7A7.009,7.009,0,0,1,709.125,884.333Z"/><path d="M678.533,853.554l-2.293,2.293a1,1,0,1,0,1.414,1.414l2.293-2.293,2.293,2.293a1,1,0,0,0,1.414-1.414l-2.293-2.293,2.293-2.293a1,1,0,0,0-1.414-1.414l-2.293,2.293-2.293-2.293a1,1,0,0,0-1.414,1.414Z"/><path class="a" d="M707.482,894.16a1,1,0,0,0,1.414,0l4.238-4.239a1,1,0,0,0-1.414-1.414l-3.53,3.531-1.659-1.659a1,1,0,0,0-1.414,1.414Z"/></g></svg>