<?xml version="1.0" standalone="no"?>
<!DOCTYPE svg PUBLIC "-//W3C//DTD SVG 20010904//EN"
 "http://www.w3.org/TR/2001/REC-SVG-20010904/DTD/svg10.dtd">
<svg version="1.0" xmlns="http://www.w3.org/2000/svg"
 width="569.000000pt" height="103.000000pt" viewBox="0 0 569.000000 103.000000"
 preserveAspectRatio="xMidYMid meet">

<g transform="translate(0.000000,103.000000) scale(0.100000,-0.100000)"
fill="#000000" stroke="none">
<path d="M162 999 c-109 -54 -162 -143 -162 -274 0 -94 25 -160 84 -218 56
-57 110 -80 197 -85 109 -6 168 15 240 87 65 65 89 124 89 216 0 84 -23 145
-78 206 -65 73 -125 99 -228 99 -70 0 -89 -4 -142 -31z m231 -199 c31 -35 36
-84 12 -130 -21 -41 -53 -60 -101 -60 -81 0 -140 82 -111 152 38 89 136 108
200 38z"/>
<path d="M3598 1011 c-82 -26 -135 -61 -199 -127 -65 -69 -103 -143 -124 -239
-42 -198 10 -389 139 -513 109 -105 199 -136 375 -130 105 4 123 7 184 35 76
36 166 116 204 181 25 42 63 150 63 178 0 11 -22 14 -107 14 l-108 0 -19 -47
c-44 -107 -124 -157 -251 -157 -89 0 -126 14 -183 68 -46 43 -70 92 -84 175
-27 156 33 295 152 357 45 24 179 25 231 2 57 -25 105 -74 130 -133 l24 -55
108 0 c122 0 117 -5 88 89 -26 83 -60 137 -123 198 -97 91 -186 123 -343 122
-68 0 -118 -6 -157 -18z"/>
<path d="M790 515 l0 -507 248 4 c225 4 253 6 312 27 213 74 343 254 343 476
0 219 -129 400 -338 476 -54 20 -84 23 -312 27 l-253 4 0 -507z m489 289 c74
-22 151 -98 181 -179 54 -145 -9 -313 -144 -383 -46 -24 -64 -27 -178 -30
l-128 -4 0 306 0 306 108 0 c69 0 127 -6 161 -16z"/>
<path d="M2061 998 c-43 -120 -331 -968 -331 -977 0 -8 30 -11 112 -9 l111 3
35 103 34 102 207 0 207 0 34 -105 34 -105 113 0 c62 0 113 2 113 4 0 5 -324
961 -335 989 -6 15 -24 17 -166 17 -156 0 -160 0 -168 -22z m247 -385 l70
-213 -150 0 c-116 0 -149 3 -145 13 2 6 35 105 73 219 38 114 71 204 75 200 4
-4 38 -103 77 -219z"/>
<path d="M2880 515 l0 -505 105 0 105 0 0 505 0 505 -105 0 -105 0 0 -505z"/>
<path d="M4400 515 l0 -505 110 0 110 0 0 210 0 210 215 0 215 0 0 -210 0
-210 110 0 110 0 0 505 0 505 -110 0 -110 0 0 -205 0 -205 -215 0 -215 0 0
205 0 205 -110 0 -110 0 0 -505z"/>
<path d="M5480 515 l0 -505 105 0 105 0 0 505 0 505 -105 0 -105 0 0 -505z"/>
</g>
</svg>
