<svg xmlns="http://www.w3.org/2000/svg" width="90" height="90" viewBox="0 0 90 90"><defs><style>.a{fill:#fff;}.b{fill:#00adef;}</style></defs><g transform="translate(-668.493 -1237.366)"><circle class="a" cx="45" cy="45" r="45" transform="translate(668.493 1237.366)"/><g transform="translate(688.268 1253.898)"><path class="b" d="M696.558,1276.886l-.065,0a1.766,1.766,0,0,1-1.375-.749c-.013-.018-1.066-1.517-2.6-3.568-2.271-3.044-4.693-6.6-4.693-10.306a8.729,8.729,0,1,1,17.459,0c0,3.585-2.324,7.2-4.6,10.257l-2.719,3.657A1.768,1.768,0,0,1,696.558,1276.886Zm0-1.054v0Zm0-20.255a6.691,6.691,0,0,0-6.684,6.685c0,3.078,2.213,6.3,4.287,9.084,1.139,1.526,2,2.733,2.4,3.293l2.484-3.34c2.074-2.792,4.194-6.048,4.194-9.037A6.691,6.691,0,0,0,696.558,1255.576Z" transform="translate(-687.829 -1253.531)"/><g transform="translate(4.585 4.366)"><path class="b" d="M696.456,1266.091a4.146,4.146,0,1,1,4.146-4.146A4.15,4.15,0,0,1,696.456,1266.091Zm0-6.246a2.1,2.1,0,1,0,2.1,2.1A2.1,2.1,0,0,0,696.456,1259.845Z" transform="translate(-692.312 -1257.8)"/></g><g transform="translate(32.99 33.58)"><path class="b" d="M728.816,1309.72H728.8a1.772,1.772,0,0,1-1.429-.75c-.151-.213-1.165-1.648-2.6-3.569-2.27-3.044-4.693-6.6-4.693-10.306a8.729,8.729,0,1,1,17.459,0c0,3.586-2.324,7.2-4.6,10.257l-2.721,3.658A1.763,1.763,0,0,1,728.816,1309.72Zm-.231-1.93h0Zm.447-.021h0Zm-.216-19.359a6.691,6.691,0,0,0-6.685,6.685c0,3.077,2.213,6.3,4.287,9.084,1.135,1.521,2.009,2.741,2.4,3.293l2.485-3.34c2.073-2.792,4.193-6.047,4.193-9.037A6.691,6.691,0,0,0,728.816,1288.41Z" transform="translate(-720.086 -1286.365)"/><g transform="translate(4.584 4.366)"><path class="b" d="M728.714,1298.925a4.146,4.146,0,1,1,4.145-4.145A4.151,4.151,0,0,1,728.714,1298.925Zm0-6.246a2.1,2.1,0,1,0,2.1,2.1A2.1,2.1,0,0,0,728.714,1292.679Z" transform="translate(-724.568 -1290.634)"/></g></g><g transform="translate(0 21.309)"><path d="M723.643,1309.993H701.9a14.073,14.073,0,0,1,0-28.146h31.614a2.717,2.717,0,0,0,0-5.435H701.51a1.023,1.023,0,0,1,0-2.045h32.005a4.763,4.763,0,0,1,0,9.526H701.9a12.027,12.027,0,1,0,0,24.055h21.741a1.023,1.023,0,0,1,0,2.045Z" transform="translate(-687.829 -1274.367)"/></g></g></g></svg>