<svg xmlns="http://www.w3.org/2000/svg" width="79.278" height="90" viewBox="0 0 79.278 90"><defs><style>.a{fill:none;}.b{fill:#00adef;}</style></defs><g transform="translate(-963.604 -847.261)"><path class="a" d="M994.122,888.1a6.814,6.814,0,1,0-6.814-6.814A6.822,6.822,0,0,0,994.122,888.1Z" transform="translate(9.117 10.467)"/><path class="a" d="M986.537,896.984a1.389,1.389,0,0,1,1.415.2,15.094,15.094,0,0,0,4.209,2.431,1.388,1.388,0,0,1,.882,1.127l.6,4.845,8.128-.017.6-4.83a1.389,1.389,0,0,1,.882-1.127,15.059,15.059,0,0,0,4.205-2.429,1.389,1.389,0,0,1,1.416-.2l4.476,1.9,4.056-7.107-3.874-2.915a1.386,1.386,0,0,1-.532-1.324,15.8,15.8,0,0,0,0-4.9,1.388,1.388,0,0,1,.532-1.324l3.878-2.934-4.082-7.092-4.454,1.908a1.386,1.386,0,0,1-1.416-.2,15.084,15.084,0,0,0-4.205-2.429,1.389,1.389,0,0,1-.882-1.127l-.6-4.845-8.144.015-.579,4.828a1.382,1.382,0,0,1-.882,1.126A15.158,15.158,0,0,0,987.953,873a1.389,1.389,0,0,1-1.417.2l-4.472-1.9-4.056,7.109,3.874,2.911a1.386,1.386,0,0,1,.53,1.326,15.5,15.5,0,0,0,0,4.9,1.383,1.383,0,0,1-.53,1.324L978,891.8l4.082,7.092ZM997.7,875.507a9.584,9.584,0,1,1-9.583,9.584A9.6,9.6,0,0,1,997.7,875.507Z" transform="translate(5.539 6.667)"/><path d="M1003.242,854.887a38.97,38.97,0,0,1,19.354,4.895l-9.485,1.43a1.386,1.386,0,0,0,.206,2.755,1.5,1.5,0,0,0,.208-.015l13.143-1.984a1.327,1.327,0,0,0,.3-.122,1.271,1.271,0,0,0,.168-.069,1.319,1.319,0,0,0,.39-.353h0a1.415,1.415,0,0,0,.163-.19,1.391,1.391,0,0,0,0-1.263l-6.113-11.953a1.385,1.385,0,0,0-2.467,1.26l3.87,7.564a42.128,42.128,0,0,0-19.743-4.722,39.646,39.646,0,0,0-32.307,62.613,1.384,1.384,0,0,0,2.255-1.606,36.877,36.877,0,0,1,30.052-58.237Z" transform="translate(0 0)"/><path d="M1030.751,862.394a1.384,1.384,0,1,0-2.214,1.66,36.874,36.874,0,0,1-29.52,58.967,38.063,38.063,0,0,1-19.343-5.13l10.126-1.664a1.384,1.384,0,0,0-.449-2.732l-13.6,2.235h0l-.025,0c-.023,0-.042.022-.065.028a1.384,1.384,0,0,0-.474.2,431.657,431.657,0,0,0-.348.31,1.306,1.306,0,0,0-.062.134c-.018.031-.051.047-.066.079a1.141,1.141,0,0,0-.028.119,1.315,1.315,0,0,0-.089.389,1.124,1.124,0,0,0,.107.654c.014.032.008.069.025.1l.029.054h0l6.929,13.117a1.38,1.38,0,0,0,1.225.738,1.365,1.365,0,0,0,.644-.161,1.382,1.382,0,0,0,.577-1.871l-4.546-8.607a41.159,41.159,0,0,0,19.429,4.774,39.641,39.641,0,0,0,31.734-63.4Z" transform="translate(4.224 5.607)"/><path class="b" d="M976.373,893.918l4.079,7.117a2.756,2.756,0,0,0,3.462,1.164l3.725-1.583a17.969,17.969,0,0,0,3.524,2.037l.5,4.038a2.754,2.754,0,0,0,2.73,2.415h8.162a2.752,2.752,0,0,0,2.729-2.415l.5-4.039a17.935,17.935,0,0,0,3.522-2.036l3.729,1.583a2.751,2.751,0,0,0,3.459-1.166l4.078-7.114a2.754,2.754,0,0,0-.724-3.561l-3.234-2.451a18.824,18.824,0,0,0,0-4.1l3.233-2.447a2.755,2.755,0,0,0,.725-3.563l-4.076-7.114a2.758,2.758,0,0,0-3.462-1.167L1009.3,871.1a17.948,17.948,0,0,0-3.522-2.035l-.5-4.036a2.752,2.752,0,0,0-2.729-2.417H994.39a2.754,2.754,0,0,0-2.73,2.416l-.5,4.036a18.041,18.041,0,0,0-3.524,2.038l-3.726-1.584a2.755,2.755,0,0,0-3.46,1.166l-4.08,7.116a2.759,2.759,0,0,0,.728,3.563l3.232,2.445a18.2,18.2,0,0,0,0,4.107l-3.232,2.448A2.756,2.756,0,0,0,976.373,893.918Zm6.275-4.289a1.383,1.383,0,0,0,.53-1.324,15.5,15.5,0,0,1,0-4.9,1.386,1.386,0,0,0-.53-1.326l-3.874-2.911,4.056-7.109,4.472,1.9a1.389,1.389,0,0,0,1.417-.2,15.158,15.158,0,0,1,4.209-2.434,1.382,1.382,0,0,0,.882-1.126l.579-4.828,8.144-.015.6,4.845a1.389,1.389,0,0,0,.882,1.127,15.084,15.084,0,0,1,4.205,2.429,1.386,1.386,0,0,0,1.416.2l4.454-1.908,4.082,7.092-3.878,2.934a1.388,1.388,0,0,0-.532,1.324,15.8,15.8,0,0,1,0,4.9,1.386,1.386,0,0,0,.532,1.324l3.874,2.915-4.056,7.107-4.476-1.9a1.389,1.389,0,0,0-1.416.2,15.059,15.059,0,0,1-4.205,2.429,1.389,1.389,0,0,0-.882,1.127l-.6,4.83-8.128.017-.6-4.845a1.388,1.388,0,0,0-.882-1.127,15.094,15.094,0,0,1-4.209-2.431,1.389,1.389,0,0,0-1.415-.2l-4.452,1.908-4.082-7.092Z" transform="translate(4.772 5.902)"/><path class="b" d="M994.891,891.643a9.584,9.584,0,1,0-9.583-9.583A9.594,9.594,0,0,0,994.891,891.643Zm0-16.4a6.814,6.814,0,1,1-6.814,6.815A6.823,6.823,0,0,1,994.891,875.245Z" transform="translate(8.348 9.698)"/></g></svg>