<svg xmlns="http://www.w3.org/2000/svg" width="202.5" height="60" viewBox="0 0 202.5 60"><defs><style>.a{fill:#888;}</style></defs><path class="a" d="M444.862,321.52a6.3,6.3,0,0,1,6.3,6.3v45a6.3,6.3,0,0,1-6.3,6.3h-187.5a6.3,6.3,0,0,1-6.3-6.3v-45a6.3,6.3,0,0,1,6.3-6.3Zm0-1.2h-187.5a7.5,7.5,0,0,0-7.5,7.5v45a7.5,7.5,0,0,0,7.5,7.5h187.5a7.5,7.5,0,0,0,7.5-7.5v-45a7.5,7.5,0,0,0-7.5-7.5Z" transform="translate(-249.862 -320.32)"/><path class="a" d="M299.591,350.515a8.283,8.283,0,0,1,3.946-6.952,8.482,8.482,0,0,0-6.682-3.613c-2.812-.3-5.539,1.682-6.97,1.682-1.461,0-3.667-1.654-6.043-1.6a8.9,8.9,0,0,0-7.489,4.568c-3.239,5.607-.823,13.847,2.279,18.379,1.553,2.219,3.366,4.7,5.74,4.611,2.322-.1,3.189-1.481,5.992-1.481,2.777,0,3.592,1.481,6.012,1.425,2.493-.039,4.062-2.229,5.56-4.469a18.357,18.357,0,0,0,2.543-5.178A8.007,8.007,0,0,1,299.591,350.515Z" transform="translate(-251.422 -321.545)"/><path class="a" d="M296,336.382a8.158,8.158,0,0,0,1.867-5.844,8.3,8.3,0,0,0-5.371,2.779,7.757,7.757,0,0,0-1.915,5.628A6.862,6.862,0,0,0,296,336.382Z" transform="translate(-252.404 -320.959)"/><path class="a" d="M336.023,367.82h-3.246L331,362.232H324.82l-1.694,5.588h-3.16l6.123-19.02h3.782Zm-5.559-7.931-1.608-4.966q-.256-.762-.959-3.583h-.057q-.281,1.214-.9,3.583l-1.579,4.966Z" transform="translate(-254.244 -322.1)"/><path class="a" d="M353.008,361.128a7.8,7.8,0,0,1-1.891,5.53,5.53,5.53,0,0,1-4.2,1.806,4.2,4.2,0,0,1-3.894-1.946h-.057v7.224h-3.047V358.955q0-2.2-.113-4.515h2.679l.171,2.173h.057a5.421,5.421,0,0,1,8.677-.537A7.559,7.559,0,0,1,353.008,361.128Zm-3.1.112a5.645,5.645,0,0,0-.9-3.3,3.119,3.119,0,0,0-2.652-1.356,3.17,3.17,0,0,0-2.046.748,3.468,3.468,0,0,0-1.2,1.962,4.02,4.02,0,0,0-.142.929v2.287a3.661,3.661,0,0,0,.918,2.527,3.041,3.041,0,0,0,2.384,1.03,3.118,3.118,0,0,0,2.679-1.326A5.839,5.839,0,0,0,349.9,361.24Z" transform="translate(-255.483 -322.435)"/><path class="a" d="M369.835,361.128a7.791,7.791,0,0,1-1.893,5.53,5.523,5.523,0,0,1-4.2,1.806,4.2,4.2,0,0,1-3.893-1.946h-.057v7.224h-3.047V358.955q0-2.2-.113-4.515h2.68l.17,2.173h.057a5.423,5.423,0,0,1,8.678-.537A7.578,7.578,0,0,1,369.835,361.128Zm-3.105.112a5.638,5.638,0,0,0-.9-3.3,3.113,3.113,0,0,0-2.65-1.356,3.175,3.175,0,0,0-2.047.748,3.466,3.466,0,0,0-1.2,1.962,4.072,4.072,0,0,0-.142.929v2.287a3.672,3.672,0,0,0,.915,2.527,3.046,3.046,0,0,0,2.387,1.03,3.118,3.118,0,0,0,2.679-1.326A5.839,5.839,0,0,0,366.73,361.24Z" transform="translate(-256.535 -322.435)"/><path class="a" d="M388.74,362.467a5.069,5.069,0,0,1-1.689,3.951,7.485,7.485,0,0,1-5.181,1.665,9.07,9.07,0,0,1-4.929-1.185l.706-2.54a8.353,8.353,0,0,0,4.4,1.215,4.165,4.165,0,0,0,2.683-.777,2.54,2.54,0,0,0,.957-2.078,2.646,2.646,0,0,0-.79-1.949,7.333,7.333,0,0,0-2.624-1.471q-5-1.863-4.993-5.453a4.828,4.828,0,0,1,1.75-3.844,6.906,6.906,0,0,1,4.657-1.5,9.23,9.23,0,0,1,4.316.9l-.762,2.484a7.486,7.486,0,0,0-3.639-.875,3.683,3.683,0,0,0-2.51.79,2.255,2.255,0,0,0-.762,1.722,2.323,2.323,0,0,0,.873,1.862,9.889,9.889,0,0,0,2.768,1.468,9.377,9.377,0,0,1,3.611,2.312A4.83,4.83,0,0,1,388.74,362.467Z" transform="translate(-257.804 -322.082)"/><path class="a" d="M399.716,356.518h-3.358v6.658q0,2.541,1.778,2.541a5.447,5.447,0,0,0,1.354-.142l.084,2.314a6.917,6.917,0,0,1-2.37.337,3.656,3.656,0,0,1-2.823-1.1,5.408,5.408,0,0,1-1.016-3.7v-6.913h-2v-2.287h2v-2.512l2.993-.9v3.414h3.358Z" transform="translate(-258.706 -322.226)"/><path class="a" d="M415.542,361.185a7.519,7.519,0,0,1-1.807,5.192,6.448,6.448,0,0,1-5.025,2.089,6.134,6.134,0,0,1-4.809-2,7.294,7.294,0,0,1-1.792-5.051,7.447,7.447,0,0,1,1.848-5.219,6.4,6.4,0,0,1,4.979-2.033,6.263,6.263,0,0,1,4.854,2A7.211,7.211,0,0,1,415.542,361.185Zm-3.161.1a6.168,6.168,0,0,0-.818-3.254,3.01,3.01,0,0,0-2.736-1.641,3.055,3.055,0,0,0-2.794,1.641,6.285,6.285,0,0,0-.818,3.311,6.161,6.161,0,0,0,.818,3.253,3.114,3.114,0,0,0,5.5-.029A6.19,6.19,0,0,0,412.38,361.283Z" transform="translate(-259.378 -322.435)"/><path class="a" d="M426.513,357.12a5.337,5.337,0,0,0-.961-.084,2.88,2.88,0,0,0-2.483,1.215,4.568,4.568,0,0,0-.762,2.708v7.2H419.26l.029-9.4q0-2.371-.114-4.318h2.654l.112,2.624h.084a4.69,4.69,0,0,1,1.523-2.172,3.683,3.683,0,0,1,2.2-.735,4.908,4.908,0,0,1,.762.056Z" transform="translate(-260.444 -322.435)"/><path class="a" d="M440.725,360.647a7.134,7.134,0,0,1-.112,1.382h-9.142a3.977,3.977,0,0,0,1.327,3.106,4.53,4.53,0,0,0,2.99.959,10.1,10.1,0,0,0,3.7-.649l.478,2.115a11.436,11.436,0,0,1-4.6.847,6.662,6.662,0,0,1-5.011-1.877,6.931,6.931,0,0,1-1.819-5.036,7.856,7.856,0,0,1,1.7-5.164,5.839,5.839,0,0,1,4.8-2.2,5.111,5.111,0,0,1,4.489,2.2A7.421,7.421,0,0,1,440.725,360.647Zm-2.906-.79a4.134,4.134,0,0,0-.592-2.343,2.661,2.661,0,0,0-2.428-1.27,2.892,2.892,0,0,0-2.425,1.242,4.549,4.549,0,0,0-.9,2.37h6.347Z" transform="translate(-261.029 -322.433)"/><path class="a" d="M329.577,336.018a4.691,4.691,0,0,1-1.512,3.8,6.012,6.012,0,0,1-3.977,1.178,18.282,18.282,0,0,1-2.191-.112v-9.191a16.181,16.181,0,0,1,2.579-.194,5.563,5.563,0,0,1,3.7,1.068A4.313,4.313,0,0,1,329.577,336.018Zm-1.579.041a3.045,3.045,0,0,0-3.4-3.382,6.359,6.359,0,0,0-1.207.1v6.988a8.028,8.028,0,0,0,1.012.041,3.544,3.544,0,0,0,2.654-.956A3.832,3.832,0,0,0,328,336.059Z" transform="translate(-254.364 -321.019)"/><path class="a" d="M338.582,337.656a3.7,3.7,0,0,1-.888,2.551,3.166,3.166,0,0,1-2.468,1.027,3.01,3.01,0,0,1-2.363-.984,3.584,3.584,0,0,1-.879-2.482,3.662,3.662,0,0,1,.908-2.564,3.146,3.146,0,0,1,2.447-1,3.08,3.08,0,0,1,2.385.983A3.556,3.556,0,0,1,338.582,337.656Zm-1.554.049a3.048,3.048,0,0,0-.4-1.6,1.48,1.48,0,0,0-1.343-.806,1.5,1.5,0,0,0-1.373.806,3.085,3.085,0,0,0-.4,1.627,3.049,3.049,0,0,0,.4,1.6,1.512,1.512,0,0,0,1.359.806,1.5,1.5,0,0,0,1.343-.82A3.028,3.028,0,0,0,337.028,337.7Z" transform="translate(-254.995 -321.188)"/><path class="a" d="M350.347,334.352l-2.108,6.738h-1.372l-.874-2.926a21.836,21.836,0,0,1-.541-2.177h-.027a15.958,15.958,0,0,1-.542,2.177l-.928,2.926h-1.388l-1.982-6.738h1.539l.761,3.2c.185.758.336,1.478.458,2.162h.027c.112-.563.3-1.281.556-2.148l.956-3.216H346.1l.916,3.147q.332,1.15.54,2.218h.041a21.444,21.444,0,0,1,.458-2.218l.817-3.147h1.471Z" transform="translate(-255.532 -321.197)"/><path class="a" d="M358.886,341.08h-1.5v-3.859q0-1.785-1.358-1.784a1.352,1.352,0,0,0-1.082.49,1.741,1.741,0,0,0-.416,1.155v4h-1.5v-4.81q0-.887-.054-1.928H354.3l.07,1.054h.041a2.167,2.167,0,0,1,.776-.814,2.532,2.532,0,0,1,1.357-.379,2.15,2.15,0,0,1,1.568.61,2.966,2.966,0,0,1,.776,2.233Z" transform="translate(-256.307 -321.188)"/><path class="a" d="M363.586,340.884h-1.5v-9.829h1.5Z" transform="translate(-256.876 -320.991)"/><path class="a" d="M372.652,337.656a3.7,3.7,0,0,1-.888,2.551,3.166,3.166,0,0,1-2.468,1.027,3.007,3.007,0,0,1-2.363-.984,3.588,3.588,0,0,1-.879-2.482,3.661,3.661,0,0,1,.908-2.564,3.149,3.149,0,0,1,2.446-1,3.085,3.085,0,0,1,2.387.983A3.556,3.556,0,0,1,372.652,337.656Zm-1.555.049a3.048,3.048,0,0,0-.4-1.6,1.478,1.478,0,0,0-1.342-.806,1.5,1.5,0,0,0-1.373.806,3.093,3.093,0,0,0-.4,1.627,3.048,3.048,0,0,0,.4,1.6,1.512,1.512,0,0,0,1.359.806,1.5,1.5,0,0,0,1.342-.82A3.02,3.02,0,0,0,371.1,337.7Z" transform="translate(-257.124 -321.188)"/><path class="a" d="M380.455,341.081H379.11L379,340.3h-.042a2.306,2.306,0,0,1-1.968.929,2.031,2.031,0,0,1-1.538-.61,1.914,1.914,0,0,1-.528-1.373,2.092,2.092,0,0,1,1.033-1.884,5.358,5.358,0,0,1,2.906-.637V336.6q0-1.332-1.4-1.331a3.135,3.135,0,0,0-1.756.5l-.3-.983a4.321,4.321,0,0,1,2.311-.581q2.641,0,2.644,2.787v2.481A10.475,10.475,0,0,0,380.455,341.081Zm-1.555-2.316v-1.039q-2.478-.044-2.478,1.357a1.017,1.017,0,0,0,.287.79,1.046,1.046,0,0,0,.732.263,1.513,1.513,0,0,0,.916-.312,1.278,1.278,0,0,0,.543-1.06Z" transform="translate(-257.678 -321.188)"/><path class="a" d="M389.473,340.884h-1.329l-.069-1.082h-.042a2.239,2.239,0,0,1-2.164,1.235,2.533,2.533,0,0,1-2.023-.956,3.724,3.724,0,0,1-.8-2.481,3.9,3.9,0,0,1,.873-2.648,2.687,2.687,0,0,1,2.08-.944,2.018,2.018,0,0,1,1.9.915h.029v-3.867h1.5v8.014Q389.421,340.052,389.473,340.884Zm-1.552-2.842v-1.123a2.2,2.2,0,0,0-.042-.472,1.7,1.7,0,0,0-.541-.907,1.473,1.473,0,0,0-1-.368,1.538,1.538,0,0,0-1.318.666,2.855,2.855,0,0,0-.48,1.705,2.658,2.658,0,0,0,.46,1.622,1.541,1.541,0,0,0,1.309.665,1.444,1.444,0,0,0,1.184-.554A1.849,1.849,0,0,0,387.922,338.042Z" transform="translate(-258.186 -320.991)"/><path class="a" d="M403.127,337.656a3.7,3.7,0,0,1-.888,2.551,3.165,3.165,0,0,1-2.469,1.027,3.015,3.015,0,0,1-2.363-.984,3.588,3.588,0,0,1-.879-2.482,3.661,3.661,0,0,1,.907-2.564,3.148,3.148,0,0,1,2.449-1,3.075,3.075,0,0,1,2.383.983A3.556,3.556,0,0,1,403.127,337.656Zm-1.552.049a3.047,3.047,0,0,0-.4-1.6,1.482,1.482,0,0,0-1.345-.806,1.506,1.506,0,0,0-1.373.806,3.085,3.085,0,0,0-.4,1.627,3.049,3.049,0,0,0,.4,1.6,1.512,1.512,0,0,0,1.359.806,1.5,1.5,0,0,0,1.344-.82A3.038,3.038,0,0,0,401.575,337.7Z" transform="translate(-259.029 -321.188)"/><path class="a" d="M411.763,341.08h-1.5v-3.859q0-1.785-1.359-1.784a1.349,1.349,0,0,0-1.081.49,1.736,1.736,0,0,0-.415,1.155v4h-1.5v-4.81q0-.887-.052-1.928h1.315l.069,1.054h.042a2.187,2.187,0,0,1,.775-.814,2.541,2.541,0,0,1,1.359-.379,2.152,2.152,0,0,1,1.567.61,2.963,2.963,0,0,1,.776,2.233Z" transform="translate(-259.612 -321.188)"/><path class="a" d="M422.635,335.362h-1.65v3.273c0,.832.293,1.248.874,1.248a2.607,2.607,0,0,0,.667-.07l.039,1.136a3.363,3.363,0,0,1-1.164.168,1.788,1.788,0,0,1-1.385-.541,2.639,2.639,0,0,1-.5-1.816v-3.4h-.984V334.24h.984v-1.235l1.468-.443v1.676h1.649v1.123Z" transform="translate(-260.404 -321.085)"/><path class="a" d="M430.977,340.884h-1.5v-3.831q0-1.811-1.357-1.812a1.429,1.429,0,0,0-1.429,1.051,1.855,1.855,0,0,0-.07.538v4.052h-1.5v-9.827h1.5v4.06h.029a2.264,2.264,0,0,1,2.023-1.108,2.09,2.09,0,0,1,1.541.61,3.072,3.072,0,0,1,.761,2.26Z" transform="translate(-260.816 -320.991)"/><path class="a" d="M439.693,337.393a3.634,3.634,0,0,1-.055.679h-4.492a1.962,1.962,0,0,0,.651,1.524,2.226,2.226,0,0,0,1.47.472,4.946,4.946,0,0,0,1.817-.319l.234,1.041a5.634,5.634,0,0,1-2.261.416,3.265,3.265,0,0,1-2.459-.922,3.4,3.4,0,0,1-.893-2.474,3.855,3.855,0,0,1,.832-2.537,2.863,2.863,0,0,1,2.355-1.081,2.506,2.506,0,0,1,2.2,1.081A3.6,3.6,0,0,1,439.693,337.393Zm-1.43-.388a2.014,2.014,0,0,0-.29-1.15,1.309,1.309,0,0,0-1.192-.624,1.421,1.421,0,0,0-1.192.61,2.27,2.27,0,0,0-.444,1.164Z" transform="translate(-261.352 -321.187)"/></svg>