<svg xmlns="http://www.w3.org/2000/svg" width="64.987" height="65" viewBox="0 0 64.987 65"><defs><style>.a{fill:#00adef;}.b{fill:#fff;}</style></defs><g transform="translate(-525.454 -847.261)"><path class="a" d="M557.941,847.261a32.458,32.458,0,0,0-27.183,14.706v-10.39a1,1,0,0,0-2,0V864.84a1,1,0,0,0,1,1h.126a.977.977,0,0,0,.6,0h12.539a1,1,0,0,0,0-2h-11.09a30.494,30.494,0,1,1,1.842,34.53,30.84,30.84,0,0,1-5.243-26.89,1,1,0,1,0-1.933-.508,32.824,32.824,0,0,0,5.592,28.619,32.5,32.5,0,1,0,25.752-52.33Z"/><path d="M534.731,878.761h-3.316a1,1,0,0,0,0,2h3.316a1,1,0,0,0,0-2Z"/><path d="M585.468,879.761a1,1,0,0,0-1-1h-3.316a1,1,0,0,0,0,2h3.316A1,1,0,0,0,585.468,879.761Z"/><path d="M557.941,852.235a1,1,0,0,0-1,1v3.316a1,1,0,0,0,2,0v-3.316A1,1,0,0,0,557.941,852.235Z"/><path d="M556.941,906.288a1,1,0,0,0,2,0v-3.316a1,1,0,0,0-2,0Z"/><path d="M578.544,890.5a1,1,0,1,0-1,1.732l2.87,1.658a1,1,0,1,0,1-1.732Z"/><path d="M571.705,855.922a1,1,0,0,0-1.366.367l-1.658,2.872a1,1,0,1,0,1.732,1l1.658-2.872A1,1,0,0,0,571.705,855.922Z"/><path d="M545.47,899.362l-1.658,2.872a1,1,0,0,0,1.733,1l1.657-2.872a1,1,0,0,0-1.732-1Z"/><path d="M546.836,860.527a1,1,0,0,0,.366-1.366l-1.657-2.872a1,1,0,1,0-1.733,1l1.658,2.872a1,1,0,0,0,1.366.366Z"/><path d="M570.413,899.362a1,1,0,1,0-1.732,1l1.658,2.872a1,1,0,0,0,1.732-1Z"/><path d="M580.414,865.632l-2.872,1.658a1,1,0,1,0,1,1.732l2.872-1.657a1,1,0,0,0-1-1.733Z"/><path d="M534.1,893.525a1,1,0,0,0,1.366.366l2.872-1.658a1,1,0,0,0-1-1.732l-2.872,1.658A1,1,0,0,0,534.1,893.525Z"/><path class="b" d="M554.251,883.735l-.283-.755v.755Z"/><path class="a" d="M543.133,885.286a1,1,0,0,0,.835.449h8v2.315a1,1,0,0,0,2,0v-2.315h.658a1,1,0,0,0,0-2h-.658V878.1a1,1,0,0,0-1-1,.987.987,0,0,0-.94.7.973.973,0,0,0-.06.3v5.632h-6.484l4.676-10.909.411-.96a1,1,0,1,0-1.838-.787l-5.684,13.262A1,1,0,0,0,543.133,885.286Z"/><path class="a" d="M558.6,883.88c0,3.044,2.456,5.17,5.973,5.17s5.974-2.126,5.974-5.17a4.738,4.738,0,0,0-2.432-4.25,4.935,4.935,0,0,0,1.94-4.04c0-3.013-2.254-5.118-5.482-5.118s-5.481,2.105-5.481,5.118a4.94,4.94,0,0,0,1.919,4.025A4.7,4.7,0,0,0,558.6,883.88Zm2.492-8.29c0-1.894,1.366-3.118,3.481-3.118,2.148,0,3.482,1.2,3.482,3.118,0,1.534-.915,3.171-3.482,3.171S561.092,877.124,561.092,875.59Zm3.481,11.46c-2.414,0-3.973-1.244-3.973-3.17,0-1.953,1.485-3.119,3.973-3.119,2.451,0,3.974,1.2,3.974,3.119S566.987,887.05,564.573,887.05Z"/></g></svg>