<svg xmlns="http://www.w3.org/2000/svg" width="150" height="150" viewBox="0 0 150 150"><defs><style>.a{fill:none;}.b{fill:#191717;}.c{fill:red;}</style></defs><g transform="translate(-723.114 -751.89)"><g transform="translate(756.606 830.549)"><path class="a" d="M839,849.6H771.769a5.017,5.017,0,0,0-5.03,4.993v23.284a5.018,5.018,0,0,0,5.03,4.993h.793v-9.044h65.854l0,9.041H839a5.017,5.017,0,0,0,5.03-4.993V854.591A5.017,5.017,0,0,0,839,849.6Zm-11.367,7.464H803.866a.538.538,0,0,1-.042-1.076h23.766a.538.538,0,0,1,.042,1.076Zm9.47,0h-4.854a.538.538,0,0,1-.043-1.076h4.854a.538.538,0,0,1,.043,1.076Z" transform="translate(-763.877 -846.737)"/><path class="a" d="M831.506,885.827a.538.538,0,0,1-.042-1.075h5.822v-2.69H777.155v2.69h49.7a.538.538,0,0,1,.043,1.075H777.155v2.416h60.131v-2.416Z" transform="translate(-765.613 -852.116)"/><path class="b" d="M838.427,846.169H771.2a7.882,7.882,0,0,0-7.893,7.854V877.3a7.883,7.883,0,0,0,7.893,7.854h67.231a7.881,7.881,0,0,0,7.892-7.851V854.023A7.88,7.88,0,0,0,838.427,846.169ZM774.847,882.3v-2.416H824.59a.538.538,0,0,0-.042-1.075h-49.7v-2.69h60.131v2.69h-5.822a.538.538,0,0,0,.042,1.075h5.78V882.3Zm68.611-4.993a5.017,5.017,0,0,1-5.03,4.993h-.588l0-9.041H771.989V882.3H771.2a5.018,5.018,0,0,1-5.03-4.993V854.023a5.016,5.016,0,0,1,5.03-4.992h67.231a5.016,5.016,0,0,1,5.03,4.992Z" transform="translate(-763.304 -846.169)"/><path class="b" d="M834.9,857.256H811.139a.538.538,0,0,0,.042,1.075h23.767a.538.538,0,0,0-.043-1.075Z" transform="translate(-771.19 -848.006)"/><path class="b" d="M850.051,857.256H845.2a.538.538,0,0,0,.042,1.075h4.854a.538.538,0,0,0-.042-1.075Z" transform="translate(-776.867 -848.006)"/></g><rect class="a" width="150" height="150" transform="translate(723.114 751.89)"/><g transform="translate(723.114 751.89)"><rect class="a" width="150" height="150"/></g><g transform="translate(777.281 772.748)"><path class="a" d="M809.12,779.69a18.227,18.227,0,1,0,18.206,18.228A18.216,18.216,0,0,0,809.12,779.69Zm8.521,26.109-.648.648-7.872-7.882-7.873,7.882-.648-.648,7.873-7.883-7.873-7.882.648-.649,7.873,7.883,7.872-7.883.648.649-7.873,7.882Z" transform="translate(-788.581 -777.354)"/><path class="c" d="M808.653,776.89a20.564,20.564,0,1,0,20.539,20.564h0A20.552,20.552,0,0,0,808.653,776.89Zm0,38.791a18.228,18.228,0,1,1,18.206-18.227A18.217,18.217,0,0,1,808.653,815.681Z" transform="translate(-788.114 -776.89)"/><path class="c" d="M818.929,791.311l-7.873,7.883-7.873-7.883-.648.648,7.873,7.883-7.873,7.883.648.648,7.873-7.883,7.873,7.883.648-.648-7.873-7.883,7.873-7.883Z" transform="translate(-790.518 -779.279)"/></g></g></svg>