<svg xmlns="http://www.w3.org/2000/svg" xmlns:xlink="http://www.w3.org/1999/xlink" width="300" height="71.97" viewBox="0 0 300 71.97"><defs><style>.a{fill:none;}.b{fill:#231f20;}.c{clip-path:url(#a);}.d{fill:url(#b);}</style><clipPath id="a"><rect class="a" width="154.921" height="9.734"/></clipPath><linearGradient id="b" x1="1" y1="0.5" x2="0" y2="0.5" gradientUnits="objectBoundingBox"><stop offset="0" stop-color="#ffa3b1"/><stop offset="1" stop-color="#ffe4aa"/></linearGradient></defs><path class="b" d="M42.981.334A36.109,36.109,0,0,1,68.819,10.6a35.465,35.465,0,0,1,7.766,11.273,34.1,34.1,0,0,1,2.791,13.849,33.961,33.961,0,0,1-2.791,13.849A35.143,35.143,0,0,1,57.259,68.328,35.787,35.787,0,0,1,42.945,71.12H15.89V.334Zm9.09,55.72a19.718,19.718,0,0,0,6.871-4.688,22.188,22.188,0,0,0,4.4-7.157,22.76,22.76,0,0,0,1.575-8.589,23.118,23.118,0,0,0-1.575-8.66,21.83,21.83,0,0,0-4.4-6.978,21.007,21.007,0,0,0-6.871-4.688,24.049,24.049,0,0,0-9.09-1.825H30.348V57.843H42.981a21.472,21.472,0,0,0,9.09-1.789" transform="translate(40.975 0.847)"/><path class="b" d="M21.472,0A21.472,21.472,0,1,0,42.944,21.472,21.472,21.472,0,0,0,21.472,0m0,30.49a8.875,8.875,0,1,1,6.42-2.6,8.875,8.875,0,0,1-6.42,2.6"/><path class="b" d="M43.321,4.111V21.432H40.53V1.57h4.688L50.3,18.139,55.381,1.57H60.07V21.432H57.242V4.111L51.767,21.432H48.8Z" transform="translate(104.514 4.049)"/><path class="b" d="M47.149,11.818a9.376,9.376,0,1,1,18.645,0,9.376,9.376,0,1,1-18.645,0m15.818,0c0-5.118-2.863-7.909-6.477-7.909S50.012,6.7,50.012,11.818s2.863,7.98,6.477,7.98,6.477-2.827,6.477-7.98" transform="translate(121.442 3.713)"/><path class="b" d="M56.241,24.6H53.45V4.742h2.791V20.6L66.977,4.813h2.756V24.6H66.942V8.821Zm5.4-20.971C58.5,3.632,56.957,2.2,56.671.34h2.111c0,1.038,1.181,1.61,2.9,1.61S64.4,1.342,64.615.34h2.111C66.512,2.2,64.9,3.632,61.645,3.632" transform="translate(137.83 0.877)"/><path class="b" d="M43.321,20.453v9.054H40.53V9.61h2.791v8.446h2L52.018,9.61h3.364l-7.658,9.412,7.945,10.486H52.34L45.4,20.453Z" transform="translate(104.514 24.781)"/><path class="b" d="M45.039,19.868a9.376,9.376,0,1,1,18.645,0,9.376,9.376,0,1,1-18.645,0m15.782,0c0-5.153-2.827-7.945-6.442-7.945S47.9,14.715,47.9,19.868s2.827,7.945,6.477,7.945,6.442-2.827,6.442-7.945" transform="translate(116.001 24.472)"/><path class="b" d="M54.091,12.187V29.507H51.3V9.61h4.688L61.07,26.179,66.116,9.61H70.8v19.9H68.012V12.187L62.537,29.507h-2.97Z" transform="translate(132.286 24.781)"/><path class="b" d="M78.012,20.332a8.3,8.3,0,0,1-8.839,8.338V31H66.346V28.671a8.446,8.446,0,1,1,0-16.891V9.31h2.827v2.469a8.374,8.374,0,0,1,8.839,8.553m-17.679,0a5.9,5.9,0,0,0,6.012,6.084V14.105a5.869,5.869,0,0,0-6.012,6.155m14.816,0a5.9,5.9,0,0,0-5.976-6.155V26.344a5.869,5.869,0,0,0,5.976-6.084" transform="translate(149.305 24.007)"/><path class="b" d="M64.279,19.868a9.376,9.376,0,1,1,18.645,0,9.376,9.376,0,1,1-18.645,0m15.818,0c0-5.153-2.863-7.945-6.477-7.945S67,14.894,67,19.868s2.863,7.945,6.477,7.945,6.477-2.827,6.477-7.945" transform="translate(165.615 24.472)"/><path class="b" d="M85.177,15.622c0,4.939-3.4,6.012-8.267,6.012H73.331v7.873H70.54V9.61h6.227c4.867,0,8.267,1.109,8.267,6.012M73.331,19.2H76.91c2.9,0,5.189-.322,5.189-3.579s-2.29-3.579-5.189-3.579H73.331Z" transform="translate(181.899 24.781)"/><path class="b" d="M74.74,12.043V9.61H90.486v2.433H84.009V29.507H81.217V12.043Z" transform="translate(192.73 24.781)"/><path class="b" d="M85.851,18.99H79.66V16.628h6.191V10.58h2.505v6.048h6.227V18.99H88.356v6.191H85.851Z" transform="translate(205.417 27.282)"/><g class="c" transform="translate(145.044 62.197)"><rect class="d" width="154.921" height="9.734"/></g></svg>