<svg xmlns="http://www.w3.org/2000/svg" xmlns:xlink="http://www.w3.org/1999/xlink" width="289.087" height="64" viewBox="0 0 289.087 64"><defs><style>.a{fill:none;}.b{fill:#231f20;}.c{clip-path:url(#a);}.d{fill:url(#b);}</style><clipPath id="a"><rect class="a" width="160.105" height="8.656"/></clipPath><linearGradient id="b" x1="1" y1="0.5" x2="0.358" y2="0.5" gradientUnits="objectBoundingBox"><stop offset="0" stop-color="#7bbaff"/><stop offset="1" stop-color="#ceeede"/></linearGradient></defs><path class="b" d="M42.917,3.886V18.748H40.53V1.69h4.01L48.9,15.915,53.259,1.69h4.01V18.748H54.882V3.886l-4.71,14.862H47.627Z" transform="translate(88.451 3.688)"/><path class="b" d="M46.924,10.561a8.02,8.02,0,1,1,15.912,0,8.02,8.02,0,1,1-15.912,0m13.525,0c0-4.392-2.45-6.81-5.537-6.81s-5.537,2.45-5.537,6.81,2.419,6.81,5.537,6.81,5.537-2.419,5.537-6.81" transform="translate(102.266 3.346)"/><path class="b" d="M59.365,8.437c3.787,0,6.078,1.559,6.078,5.028s-2.546,5.283-6.078,5.283H53V1.69H64.457V3.759h-9.1V8.437Zm3.628,5.06c0-2.291-1.4-3.182-3.819-3.182H55.355v6.365h4.01c2.355,0,3.723-1.114,3.723-3.182" transform="translate(115.666 3.688)"/><path class="b" d="M60.307,18.748H57.92V1.69h2.387V15.215L69.472,1.69h2.387V18.748H69.472V5.191Z" transform="translate(126.403 3.688)"/><path class="b" d="M75.031,3.759H68.985V6.75c-.286,7.383-1.464,12-4.964,12h-.7V16.679h.35c2.259,0,2.832-4.837,3.023-10.661V1.69H77.259V18.748H75.031Z" transform="translate(138.188 3.688)"/><path class="b" d="M71.507,1.69V8.055h2.514c4.264-.064,7.447.987,7.447,5.315s-3.182,5.378-7.288,5.378H69.12V1.69Zm7.288,11.679c0-2.832-2.069-3.182-4.678-3.182h-2.61v6.492h2.61c2.61,0,4.678-.541,4.678-3.182" transform="translate(150.845 3.688)"/><path class="b" d="M87.588,18.748H85.2V11.014H76.227v7.733H73.84V1.69h2.387V8.946H85.2V1.69h2.387Z" transform="translate(161.146 3.688)"/><path class="b" d="M79.294,10.561a8.02,8.02,0,1,1,15.912,0,8.02,8.02,0,1,1-15.912,0m13.525,0c0-4.392-2.419-6.81-5.537-6.81s-5.6,2.45-5.6,6.81,2.45,6.81,5.537,6.81,5.537-2.419,5.537-6.81" transform="translate(172.909 3.346)"/><path class="b" d="M96.944,1.69V3.759h-9.2V8.946H96.4v2.069H87.747v5.665h9.2v2.069H85.36V1.69Z" transform="translate(186.287 3.688)"/><path class="b" d="M39.981.333A32.11,32.11,0,0,1,62.957,9.467a31.537,31.537,0,0,1,6.906,10.024,30.328,30.328,0,0,1,2.482,12.316,30.2,30.2,0,0,1-2.482,12.316A31.251,31.251,0,0,1,52.678,60.8,31.824,31.824,0,0,1,39.949,63.28H15.89V.333Zm8.083,49.549a17.535,17.535,0,0,0,6.11-4.169,19.731,19.731,0,0,0,3.914-6.365,20.24,20.24,0,0,0,1.4-7.638,20.558,20.558,0,0,0-1.4-7.7A19.413,19.413,0,0,0,54.174,17.8a18.68,18.68,0,0,0-6.11-4.169,21.386,21.386,0,0,0-8.083-1.623H28.747V51.474H39.981a19.094,19.094,0,0,0,8.083-1.591" transform="translate(34.678 0.717)"/><path class="b" d="M19.094,0A19.094,19.094,0,1,0,38.188,19.094,19.094,19.094,0,0,0,19.094,0m0,27.114A7.892,7.892,0,1,1,24.8,24.8a7.892,7.892,0,0,1-5.709,2.311"/><g class="c" transform="translate(128.981 55.31)"><rect class="d" width="160.105" height="8.656"/></g><path class="b" d="M42.939,25.247H44.53A2.1,2.1,0,0,0,46.566,24.1l.318-.6L40.52,9.94H43.1l4.965,11.075L52.645,9.94h2.641L48.921,24.2a4.742,4.742,0,0,1-4.36,3.182h-1.75Z" transform="translate(88.43 21.693)"/><path class="b" d="M56.646,12.009H48.117V26.966H45.73V9.94h13.3V26.966H56.646Z" transform="translate(99.8 21.693)"/><path class="b" d="M63.741,15.1c0,4.233-2.9,5.155-7.065,5.155H53.749V27H51.33V9.94h5.315c4.169,0,7.065.923,7.065,5.155m-9.993,3.182H56.9c2.482,0,4.455-.255,4.455-3.182s-1.973-3.182-4.455-3.182H53.717Z" transform="translate(112.021 21.693)"/><path class="b" d="M63.962,9.94,70.326,27H67.749l-1.337-3.692H58.647L57.31,27H54.86L61.225,9.94Zm1.75,11.3L62.53,12.359l-3.182,8.879Z" transform="translate(119.725 21.693)"/><path class="b" d="M66.632,9.94c3.182,0,5.983.827,5.983,4.2A4.233,4.233,0,0,1,70.737,17.9a4.042,4.042,0,0,1,2.578,4.042c0,3.628-2.705,5.06-6.11,5.06H60.49V9.94Zm.35,7.288c1.973,0,3.182-.764,3.182-2.769s-1.3-2.514-3.182-2.514H62.877v5.283Zm.255,7.733c2.419,0,3.628-1.05,3.628-2.991s-1.209-2.832-3.787-2.832h-4.2v5.824Z" transform="translate(132.012 21.693)"/><path class="b" d="M76.769,12.009H70.755v2.96C70.5,22.351,69.323,27,65.822,27H65.09V24.929h.35c2.259,0,2.864-4.869,3.182-10.693V9.94H79.315V27H76.9Z" transform="translate(142.05 21.693)"/><path class="b" d="M82.492,9.94v2.069H73.327v5.155h8.624v2.1H73.327V24.9h9.165v2.069H70.94V9.94Z" transform="translate(154.817 21.693)"/><path class="b" d="M89.4,26.966H87.011V19.233H78.069v7.733H75.65V9.94h2.419v7.224h8.942V9.94H89.4Z" transform="translate(165.096 21.693)"/><path class="b" d="M83.809,26.966H81.39V9.94h2.419V23.465L92.974,9.94h2.387V26.966H92.974V13.441Z" transform="translate(177.623 21.693)"/><path class="b" d="M98.784,9.94v2.069h-9.2v5.155h8.656v2.1H89.587V24.9h9.2v2.069H87.2V9.94Z" transform="translate(190.303 21.693)"/></svg>